<?xml version="1.0" standalone="no"?>
<!DOCTYPE svg PUBLIC "-//W3C//DTD SVG 1.1//EN" "http://www.w3.org/Graphics/SVG/1.1/DTD/svg11.dtd" >
<svg>
<metadata>
Created by FontForge 20090914 at Sun Feb  9 01:16:41 2014
 By www-data
Copyright (c) 2007 by Jeremy Dooley. All rights reserved.
</metadata>
<defs>
<font id="ChennaiLight" horiz-adv-x="559" >
  <font-face 
    font-family="Chennai Light"
    font-weight="300"
    font-stretch="normal"
    units-per-em="1000"
    panose-1="2 0 0 0 0 0 0 0 0 0"
    ascent="700"
    descent="-300"
    x-height="409"
    cap-height="700"
    bbox="-206.001 -397.998 1640.01 1068"
    underline-thickness="20"
    underline-position="-113"
    unicode-range="U+0020-U+FB04"
  />
<missing-glyph horiz-adv-x="490" 
d="M400 0h-351v806h351v-806zM68 762v-716l21 -22h269l22 22v716l-22 21h-269z" />
    <glyph glyph-name="f_f_j" unicode="ffj" horiz-adv-x="657" 
d="M561 392v-379c0 -24.667 -1.33301 -44.334 -4 -59.001c-9.33301 -48 -33.333 -87.667 -72 -119c-43.333 -34 -92.666 -51 -147.999 -51c-6 0 -11.5 1.5 -16.5 4.5s-7.5 7.16699 -7.5 12.5c0 4.66699 2.5 8.66699 7.5 12s10.5 5 16.5 5c9.33301 0 16 0.333008 20 1
c23.333 2 48.666 11 75.999 27l2 1c25.333 18.667 45.333 41.334 60 68.001c12 21.333 18 54 18 98v341l-21 21h-137l-21 -21v-402c0 -5.33301 -2.5 -9.66602 -7.5 -12.999s-10.5 -5 -16.5 -5s-11.5 1.66699 -16.5 5s-7.5 7.66602 -7.5 12.999v402l-21 21h-143l-21 -21v-557
c0 -5.33301 -2.5 -9.66602 -7.5 -12.999s-10.833 -5 -17.5 -5c-5.33301 0 -10.5 1.66699 -15.5 5s-7.5 7.66602 -7.5 12.999v634c0 66 21.167 120.5 63.5 163.5s95.833 64.5 160.5 64.5h90l12 3c38.667 26 83 39 133 39c15.333 0 23 -5.66699 23 -17s-8.33301 -17 -25 -17
h-1c-36.667 -2.66699 -67.5 -10.667 -92.5 -24s-43 -30.5 -54 -51.5s-18.5 -40.333 -22.5 -58s-6 -36.5 -6 -56.5v-46l21 -22h171c23.333 0 35 -5.66699 35 -17zM276 625c-36.667 -2.66699 -67.5 -10.8311 -92.5 -24.498s-43 -30.834 -54 -51.501
s-18.5 -39.834 -22.5 -57.501s-6 -36.5 -6 -56.5v-4l21 -22h143l21 22v42c0 43.333 10 83.333 30 120l-19 32h-21z" />
    <glyph glyph-name="f_j" unicode="fj" horiz-adv-x="397" 
d="M301 392l-0.000976562 -379c0 -24.667 -1.33301 -44.334 -4 -59.001c-9.33301 -48 -33.333 -87.667 -72 -119c-43.333 -34 -92.666 -51 -147.999 -51c-6 0 -11.5 1.5 -16.5 4.5s-7.5 7.16699 -7.5 12.5c0 4.66699 2.5 8.66699 7.5 12s10.5 5 16.5 5
c9.33301 0 16.333 0.333008 21 1c22.667 2 47.667 11 75 27l2 1c27.333 19.333 47.333 42 60 68c12 21.333 18 54 18 98v341l-21 21h-110l-21 -21v-413c0 -12 -8.33301 -18 -25 -18c-5.33301 0 -10.5 1.66699 -15.5 5s-7.5 7.66602 -7.5 12.999v532
c0 66.667 21.333 121.334 64 164.001s96.667 64 162 64c14.667 0 22 -5.66699 22 -17c0 -5.33301 -2.5 -9.5 -7.5 -12.5s-10.5 -4.5 -16.5 -4.5h-1c-36.667 -2.66699 -67.5 -10.667 -92.5 -24s-43 -30.5 -54 -51.5s-18.5 -40.333 -22.5 -58s-6 -36.5 -6 -56.5v-46l21 -22
h144l6 1h6c5.33301 0 10.5 -1.66699 15.5 -5s7.5 -7.66602 7.5 -12.999z" />
    <glyph glyph-name="ff" unicode="ff" horiz-adv-x="492" 
d="M426 409c16.667 0 25 -5.66797 25 -17.001c0 -4.66699 -2.66699 -8.66699 -8 -12s-11 -5 -17 -5h-71l-21 -21v-557c0 -5.33301 -2.5 -9.66602 -7.5 -12.999s-10.5 -5 -16.5 -5s-11.5 1.66699 -16.5 5s-7.5 7.66602 -7.5 12.999v557l-21 21h-143l-21 -21v-557
c0 -5.33301 -2.5 -9.66602 -7.5 -12.999s-10.833 -5 -17.5 -5c-5.33301 0 -10.5 1.66699 -15.5 5s-7.5 7.66602 -7.5 12.999v634c0 66 21.167 120.333 63.5 163s95.833 64.334 160.5 65.001h90l12 3c38.667 26 83 39 133 39c15.333 0 23 -5.66699 23 -17
s-8.33301 -17 -25 -17h-1c-36.667 -2.66699 -67.5 -10.667 -92.5 -24s-43 -30.5 -54 -51.5s-18.5 -40.333 -22.5 -58s-6 -36.5 -6 -56.5v-46l21 -22h71zM276 624.999c-36.667 -2.66699 -67.5 -10.8311 -92.5 -24.498s-43 -30.834 -54 -51.501s-18.5 -39.834 -22.5 -57.501
s-6 -36.5 -6 -56.5v-4l21 -22h143l21 22v42c0 43.333 10 83.333 30 120l-19 32h-21z" />
    <glyph glyph-name="fi" unicode="fi" horiz-adv-x="403" 
d="M122 409l151 -0.00195312c3.33301 0 6.33301 -0.333008 9 -1h3c10.667 -3.33301 16 -8.66602 16 -15.999v-251c0 -56 16.333 -92.333 49 -109c7.33301 -4 11 -9.33301 11 -16c0 -10.667 -7.66699 -16 -23 -16c-5.33301 0 -10.333 1 -15 3
c-30 14 -49.167 33.167 -57.5 57.5s-12.5 54.5 -12.5 90.5v203l-21 21h-110l-21 -21v-557c0 -5.33301 -2.5 -9.66602 -7.5 -12.999s-10.833 -5 -17.5 -5c-5.33301 0 -10.5 1.66699 -15.5 5s-7.5 7.66602 -7.5 12.999v676c0 66.667 21.333 121.334 64 164.001
s96.667 64 162 64c14.667 0 22 -5.66699 22 -17c0 -5.33301 -2.5 -9.5 -7.5 -12.5s-10.5 -4.5 -16.5 -4.5h-1c-36.667 -2.66699 -67.5 -10.667 -92.5 -24s-43 -30.5 -54 -51.5s-18.5 -40.333 -22.5 -58s-6 -36.5 -6 -56.5v-46z" />
    <glyph glyph-name="fl" unicode="fl" horiz-adv-x="461" 
d="M405 33l5 -3.00098c6 -2 9 -6.33301 9 -13c0 -11.333 -8 -17 -24 -17c-6.66699 0 -11.334 0.666992 -14.001 2c-28 12 -46.5 31.333 -55.5 58s-13.5 60.334 -13.5 101.001v485l-21 21c-58.667 0 -105 -16.667 -139 -50s-51 -80 -51 -140v-46l21 -22h71
c16 0 24 -5.66699 24 -17c0 -4.66699 -2.5 -8.66699 -7.5 -12s-10.5 -5 -16.5 -5h-71l-21 -21v-557c0 -5.33301 -2.5 -9.66602 -7.5 -12.999s-10.833 -5 -17.5 -5c-5.33301 0 -10.5 1.66699 -15.5 5s-7.5 7.66602 -7.5 12.999v676c0 66.667 21.333 121.167 64 163.5
s96.667 63.5 162 63.5h15c2 0 5.33301 0.166992 10 0.5s8 0.5 10 0.5c30.667 0 46 -6 46 -18v-540c0 -26 2.83301 -47.167 8.5 -63.5s17.834 -31.833 36.501 -46.5z" />
    <glyph glyph-name="ffi" unicode="ffi" horiz-adv-x="654" 
d="M601 32c7.33301 -3.33301 11 -8.66504 11 -15.998c0 -10.667 -7.33301 -16 -22 -16c-6 0 -11 1 -15 3c-21.333 9.33301 -37.5 23.166 -48.5 41.499s-17.333 34.666 -19 48.999s-2.5 33.5 -2.5 57.5v203l-21 21h-129l-21 -21v-557c0 -5.33301 -2.5 -9.66602 -7.5 -12.999
s-10.5 -5 -16.5 -5s-11.5 1.66699 -16.5 5s-7.5 7.66602 -7.5 12.999v557l-21 21h-143l-21 -21v-557c0 -5.33301 -2.5 -9.66602 -7.5 -12.999s-10.833 -5 -17.5 -5c-5.33301 0 -10.5 1.66699 -15.5 5s-7.5 7.66602 -7.5 12.999v634c0 66 21.167 120.5 63.5 163.5
s95.833 64.5 160.5 64.5h90l12 3c38.667 26 83 39 133 39c15.333 0 23 -5.66699 23 -17s-8.33301 -17 -25 -17h-1c-36.667 -2.66699 -67.5 -10.667 -92.5 -24s-43 -30.5 -54 -51.5s-18.5 -40.333 -22.5 -58s-6 -36.5 -6 -56.5v-46l21 -22h176c6 0 11.167 -1.66699 15.5 -5
s6.5 -7.33301 6.5 -12v-251c0 -56 16 -92.333 48 -109zM276 625.001c-36.667 -2.66699 -67.5 -10.8311 -92.5 -24.498s-43 -30.834 -54 -51.501s-18.5 -39.834 -22.5 -57.501s-6 -36.5 -6 -56.5v-4l21 -22h143l21 22v42c0 43.333 10 83.333 30 120l-19 32h-21z" />
    <glyph glyph-name="ffl" unicode="ffl" horiz-adv-x="658" 
d="M602 31c0 -0.666992 1.66602 -1.00098 4.99902 -1.00098c4.66699 -6 7.33398 -10.667 8.00098 -14v-2c-0.666992 -5.33301 -3 -9.33301 -7 -12l-3 -1c-4 -0.666992 -8 -1 -12 -1h-2c-20 0 -36.5 7.66699 -49.5 23s-21.833 33.833 -26.5 55.5s-7 45.834 -7 72.501v203
l-21 21h-132l-21 -21v-557c0 -5.33301 -2.5 -9.66602 -7.5 -12.999s-10.5 -5 -16.5 -5s-11.5 1.66699 -16.5 5s-7.5 7.66602 -7.5 12.999v557l-21 21h-143l-21 -21v-557c0 -5.33301 -2.5 -9.66602 -7.5 -12.999s-10.833 -5 -17.5 -5c-5.33301 0 -10.5 1.66699 -15.5 5
s-7.5 7.66602 -7.5 12.999v634c0 66 21.167 120.5 63.5 163.5s95.833 64.5 160.5 64.5h90l12 3c38.667 26 84 39 136 39c27.333 0 41 -6 41 -18v-563c0 -34 15.333 -63.667 46 -89zM333.999 476.999l0.000976562 -46l21 -22h132l21 22v212l-24 21
c-30.667 -5.33301 -56.667 -15.166 -78 -29.499s-36.833 -31.333 -46.5 -51s-16.334 -37.834 -20.001 -54.501s-5.5 -34 -5.5 -52zM276 624.999c-36.667 -2.66699 -67.5 -10.8311 -92.5 -24.498s-43 -30.834 -54 -51.501s-18.5 -39.834 -22.5 -57.501s-6 -36.5 -6 -56.5v-4
l21 -22h143l21 22v42c0 43.333 10 83.333 30 120l-19 32h-21zM614 30.002h-7c-0.666992 0 -1.66699 0.666992 -3 2c-1.33301 0 -2 0.333008 -2 1z" />
    <glyph glyph-name=".notdef" horiz-adv-x="490" 
d="M400 0h-351v806h351v-806zM68 762v-716l21 -22h269l22 22v716l-22 21h-269z" />
    <glyph glyph-name="space" unicode=" " horiz-adv-x="260" 
 />
    <glyph glyph-name="exclam" unicode="!" horiz-adv-x="161" 
d="M86 147c0 -4.66699 -2.5 -8.66699 -7.5 -12s-10.167 -5 -15.5 -5c-6 0 -11.667 1.66699 -17 5s-8 7.33301 -8 12v602c0 4.66699 2.66699 8.66699 8 12s11 5 17 5c5.33301 0 10.5 -1.66699 15.5 -5s7.5 -7.33301 7.5 -12v-602zM63 -10c-6.66699 0 -12.5 1.66699 -17.5 5
s-7.5 7.66602 -7.5 12.999c0 11.333 8.33301 17 25 17c5.33301 0 10.5 -1.5 15.5 -4.5s7.5 -7.16699 7.5 -12.5s-2.5 -9.66602 -7.5 -12.999s-10.167 -5 -15.5 -5z" />
    <glyph glyph-name="quotedbl" unicode="&#x22;" horiz-adv-x="346" 
d="M101 721c0 16.667 5.66699 25 17 25c5.33301 0 9.66602 -2.5 12.999 -7.5s5 -10.833 5 -17.5v-132c0 -6 -1.66699 -11.5 -5 -16.5s-7.66602 -7.5 -12.999 -7.5s-9.5 2.5 -12.5 7.5s-4.5 10.5 -4.5 16.5v132zM223 721c0 16.667 5.66699 25 17 25
c5.33301 0 9.66602 -2.5 12.999 -7.5s5 -10.833 5 -17.5v-132c0 -6 -1.66699 -11.5 -5 -16.5s-7.66602 -7.5 -12.999 -7.5s-9.5 2.5 -12.5 7.5s-4.5 10.5 -4.5 16.5v132z" />
    <glyph glyph-name="numbersign" unicode="#" horiz-adv-x="563" 
d="M545 489c3.33301 -3.33301 4.99902 -6.99707 4.99902 -10.9971s-1.66699 -7.66699 -5 -11c-14 -12 -32.667 -22 -56 -30c-11.333 -3.33301 -25.333 -5.66602 -42 -6.99902l-21 -22v2c-17.333 -60.667 -27.333 -96.334 -30 -107.001l-5 -12l21 -28h3c10 2 19.333 4 28 6
l5 1l6 4l12 6l1 1l8 6l1 1c4 4.66699 10 7 18 7c6 0 12.333 -2.66699 19 -8c4 -3.33301 6 -6.33301 6 -9c0 -5.33301 -2 -9.33301 -6 -12c-16 -13.333 -34.667 -23 -56 -29c-19.333 -6 -39.666 -9 -60.999 -9h-10l-20 -15c-10.667 -34 -17.667 -61 -21 -81v-2l-3 -33v-2
c-2.66699 -12 -10.667 -18 -24 -18c-6 0 -11.5 1.66699 -16.5 5s-7.5 7 -7.5 11c2 38 9.33301 76.667 22 116l-17 28l-84 11c-1.33301 0.666992 -5.33301 1 -12 1l-21 -15c-15.333 -49.333 -24.666 -83 -27.999 -101v-3l-3 -33v-2
c-0.666992 -4.66699 -3.33398 -8.83398 -8.00098 -12.501s-10 -5.5 -16 -5.5c-5.33301 0 -10.666 1.66699 -15.999 5s-8 7 -8 11c2 35.333 10 75.666 24 120.999l-28 26l-10 -5l-5 -3l-14 -11l-3 -4c-2.66699 -4 -7 -6.33301 -13 -7l-1 -1
c-1.33301 -0.666992 -3.66602 -1 -6.99902 -1c-5.33301 0 -9.33301 0.666992 -12 2c-5.33301 2.66699 -9 6.66699 -11 12c-0.666992 0.666992 -1 2 -1 4c0 2.66699 0.333008 4.33398 1 5.00098c9.33301 10 21 20.333 35 31c16.667 8.66699 28 13.667 34 15
c11.333 3.33301 26 5.66602 44 6.99902l19 16l23 81l13 42l-22 28c-4.66699 -0.666992 -14.334 -3 -29.001 -7l-4 -1l-15 -7l-4 -3l-14 -12l-2 -2c-2.66699 -3.33301 -7.33398 -6.33301 -14.001 -9l-1 -1c-1.33301 -0.666992 -4.33301 -1 -9 -1s-8.33398 0.666992 -11.001 2
c-6 4.66699 -9.33301 8.66699 -10 12c-0.666992 0.666992 -1 2 -1 4v5l1 1c11.333 12 23.333 22 36 30c10.667 6.66699 22 11.667 34 15c18 6 37 9 57 9h10l20 15l2 6c10.667 34 19.667 70.333 27 109v15c0 2 1.66699 5.33301 5 10c3.33301 3.33301 9.33301 5 18 5
s14.667 -1.66699 18 -5c2 -2.66699 4.33301 -7.33398 7 -14.001v-2c0 -3.33301 -2.33301 -16.666 -7 -39.999l-11 -50l-2 -2c-1.33301 -8.66699 -3.66602 -17.667 -6.99902 -27l18 -28c4.66699 -0.666992 15 -2.33398 31 -5.00098h1c8 -1.33301 25 -3.33301 51 -6
c1.33301 -1.33301 5 -2 11 -2h3l20 15c0.666992 2 1.5 4.33301 2.5 7s1.5 4.66699 1.5 6l1 1c1.33301 5.33301 2 8.66602 2 9.99902l1 3c0 0.666992 0.666992 3.33398 2 8.00098s2.66602 8.33398 3.99902 11.001v1c1.33301 6 8 33.667 20 83v19c0 2.66699 2 6.66699 6 12
c3.33301 3.33301 9.33301 5 18 5s14.667 -1.66699 18 -5c2 -2.66699 3.66699 -7.33398 5 -14.001v1h1v-1c-1.33301 -9.33301 -2.66602 -18 -3.99902 -26c-0.666992 -2 -1.16699 -4.66699 -1.5 -8s-0.5 -6 -0.5 -8l-12 -50l-10 -39l30 -24l14 7l4 3l8 6l1 1
c4 4 9.66699 6 17 6c8.66699 0 15 -2 19 -6zM359.999 433.003l-94 14l-23 -15l-6 -22c-12.667 -38.667 -23 -72.667 -31 -102l17 -27l93 -14l23 15c11.333 33.333 21.333 66.333 30 99l8 24z" />
    <glyph glyph-name="dollar" unicode="$" horiz-adv-x="732" 
d="M368 -81c0 -4.66699 -2.49707 -8.66602 -7.49707 -11.999s-10.167 -5 -15.5 -5c-6 0 -11.667 1.66699 -17 5s-8 7.33301 -8 12v51l-20 22c-34 2 -68 6.33301 -102 13c-108.667 24.667 -163 49.667 -163 75c0 4.66699 2.33301 8.83398 7 12.501s10 5.5 16 5.5
c5.33301 0 18.666 -5.66699 39.999 -17v-1c14 -8.66699 27 -15.334 39 -20.001c54 -19.333 107.667 -31 161 -35l22 22v268l-18 21c-2 0 -4.33301 0.166992 -7 0.5s-5 0.833008 -7 1.5l-5 1c-0.666992 0 -1 0.333008 -1 1c-20 4 -36.5 7.5 -49.5 10.5
s-30.667 7.66699 -53 14s-41 13.666 -56 21.999s-30.167 18 -45.5 29s-26.833 24.5 -34.5 40.5s-11.5 33.333 -11.5 52c0 18 3.33301 34 10 48c40.667 82.667 127 130.334 259 143.001l19 21v50c0 11.333 8.33301 17 25 17c5.33301 0 10.5 -1.5 15.5 -4.5
s7.5 -7.16699 7.5 -12.5v-49l20 -21c60.667 -4 117.167 -13.333 169.5 -28s78.5 -32.334 78.5 -53.001c0 -4.66699 -2.33301 -8.83398 -7 -12.501s-10.334 -5.5 -17.001 -5.5c-4.66699 0 -8.33398 0.666992 -11.001 2h-1c-64 36.667 -133.667 57.667 -209 63l-23 -21v-268
l17 -22l35 -6c29.333 -6 54.833 -12.333 76.5 -19s45.667 -16 72 -28s47.333 -27.667 63 -47s24.5 -41.666 26.5 -66.999c0 -31.333 -8.5 -59.333 -25.5 -84s-39.333 -44.5 -67 -59.5s-56.5 -26.667 -86.5 -35s-60.667 -13.833 -92 -16.5l-19 -22v-52zM608.003 180.001
c0 67.333 -71.667 114.666 -215 141.999l-25 -21v-253l23 -21c58.667 6.66699 109.5 23.334 152.5 50.001s64.5 61 64.5 103zM78.0029 508.001c0 -20 6.00195 -37.8301 18.002 -53.4971s29 -28.834 51 -39.501s44.667 -19.334 68 -26.001s50 -12.667 80 -18l25 21v250
l-24 21c-34.667 -4.66699 -67.334 -12.334 -98.001 -23.001s-58.334 -27.5 -83.001 -50.5s-37 -50.167 -37 -81.5z" />
    <glyph glyph-name="percent" unicode="%" horiz-adv-x="844" 
d="M183 344c-44 0 -79.499 17.6699 -106.499 53.0029s-40.5 77 -40.5 125c0 47.333 13 89.666 39 126.999s61.333 56 106 56c45.333 0 81.166 -18.5 107.499 -55.5s39.5 -78.5 39.5 -124.5c0 -46.667 -13.5 -88.334 -40.5 -125.001s-61.833 -55.334 -104.5 -56.001z
M644.001 0.00292969c-44 0 -79.667 17.6689 -107 53.002s-41 77 -41 125c0 47.333 13.167 89.833 39.5 127.5s61.833 56.5 106.5 56.5s80.167 -18.667 106.5 -56s39.5 -79 39.5 -125c0 -46.667 -13.5 -88.334 -40.5 -125.001s-61.5 -55.334 -103.5 -56.001zM647.001 328.005
c-31.333 0 -56.5 -16.333 -75.5 -49s-28.5 -66 -28.5 -100c0 -35.333 10 -67.666 30 -96.999s42.667 -44 68 -44c24 0 46.5 13.333 67.5 40s31.5 61 31.5 103c0 17.333 -3 36.666 -9 57.999s-16.5 41.5 -31.5 60.5s-32.5 28.5 -52.5 28.5zM187.001 671.005
c-31.333 0 -56.499 -16.334 -75.499 -49.001s-28.5 -65.667 -28.5 -99c0 -35.333 9.83301 -67.666 29.5 -96.999s42.167 -44 67.5 -44c24 0 46.667 13.333 68 40s32 61 32 103c0 29.333 -8.33301 61 -25 95s-39.334 51 -68.001 51zM712.002 695.004l-552 -683.002
c-6 -8 -13.667 -12 -23 -12c-16 0 -24 6 -24 18l1 2c1.33301 0.666992 2 1.33398 2 2.00098l551 684c5.33301 8 13 12 23 12c6 0 11.5 -1.66699 16.5 -5s7.5 -7.66602 7.5 -12.999c0 -2 -0.666992 -3.66699 -2 -5z" />
    <glyph glyph-name="ampersand" unicode="&#x26;" horiz-adv-x="864" 
d="M712 57c36.667 -12 64.002 -24.666 82.002 -37.999c0 -0.666992 0.5 -1.83398 1.5 -3.50098s1.5 -2.83398 1.5 -3.50098c0 -5.33301 -2.5 -9.5 -7.5 -12.5s-10.5 -4.5 -16.5 -4.5c-2.66699 0 -4.33398 0.333008 -5.00098 1c-81.333 28.667 -144 56.667 -188 84l-24 -3
c-67.333 -58 -149 -87 -245 -87c-40.667 0 -81.5 7.5 -122.5 22.5s-76.667 38.5 -107 70.5s-45.5 68.333 -45.5 109c0 69.333 47.333 135.666 142 198.999l5 31l-12 16c-33.333 41.333 -50 84.666 -50 129.999c0 26 6.5 48.333 19.5 67s30.333 32.834 52 42.501
s43.667 16.5 66 20.5s45.5 6 69.5 6c13.333 0 23.333 -0.333008 30 -1h3c31.333 0 75.833 -4.5 133.5 -13.5s86.5 -22.5 86.5 -40.5c0 -5.33301 -2.5 -9.83301 -7.5 -13.5s-10.5 -5.5 -16.5 -5.5c-2.66699 0 -4.33398 0.333008 -5.00098 1
c-82.667 26 -158.334 39 -227.001 39c-16 0 -32.333 -1.5 -49 -4.5s-33.5 -8.16699 -50.5 -15.5s-30.833 -18.166 -41.5 -32.499s-16 -31.166 -16 -50.499c0 -50.667 36.667 -113 110 -187c86.667 -92.667 173.334 -168.334 260.001 -227.001l30 7l4 7
c14 28 21 60.333 21 97c0 8.66699 -3.66699 27 -11 55c-4.66699 16.667 -7 29.667 -7 39c0 4.66699 2.5 8.5 7.5 11.5s10.167 4.5 15.5 4.5c28.667 0 43 -37.667 43 -113c0 -43.333 -12 -85.666 -36 -126.999l5 -28c19.333 -14 53.333 -30.333 102 -49zM488.002 75.001
l1 -0.00195312c7.33301 5.33301 14.333 11 21 17l-1 33l-4 3h-1c-85.333 58.667 -174.333 137.334 -267 236.001l-28 2c-83.333 -60.667 -125 -119 -125 -175c0 -21.333 3.66699 -38.666 11 -51.999c21.333 -39.333 51.833 -68.333 91.5 -87s82.167 -28 127.5 -28
c60.667 0 118.667 17 174 51zM799.002 15.999c-0.666992 0 -1.66699 0.666992 -3 2c-1.33301 0 -2 0.333008 -2 1c-0.666992 0.666992 -1 1.66699 -1 3z" />
    <glyph glyph-name="quotesingle" unicode="'" horiz-adv-x="174" 
d="M88 678c0 5.33301 2.16699 10.333 6.5 15s9.83301 7 16.5 7c7.33301 0 13.333 -2.33301 18 -7s7 -9.66699 7 -15v-126c0 -6 -2.33301 -11.167 -7 -15.5s-10.667 -6.5 -18 -6.5c-6.66699 0 -12.167 2.16699 -16.5 6.5s-6.5 9.5 -6.5 15.5v126z" />
    <glyph glyph-name="parenleft" unicode="(" horiz-adv-x="325" 
d="M73 667l-0.00195312 -1c38 108 83 176.333 135 205c2.66699 0 8.33398 1.66699 17.001 5c2.66699 1.33301 4.33398 2 5.00098 2c6 0 11.167 -2.16699 15.5 -6.5s6.5 -10.166 6.5 -17.499s-7.33301 -16.666 -22 -27.999c-19.333 -13.333 -34.333 -26.666 -45 -39.999v-1
c-77.333 -106.667 -116 -261.334 -116 -464.001c0 -62.667 3.83301 -123.334 11.5 -182.001s23.5 -118.667 47.5 -180s54.667 -107.333 92 -138l3 -1l21 -13c8 -4.66699 12 -11.334 12 -20.001c0 -6.66699 -2.16699 -12.5 -6.5 -17.5s-9.5 -7.5 -15.5 -7.5
c-25.333 0 -57.333 26.667 -96 80c-77.333 106 -116 268.667 -116 488c0 122.667 17 235 51 337z" />
    <glyph glyph-name="parenright" unicode=")" horiz-adv-x="325" 
d="M207 666l-0.00195312 1c34 -102 51 -214.333 51 -337c0 -219.333 -38.667 -382 -116 -488c-38.667 -53.333 -70.667 -80 -96 -80c-6 0 -11 2.5 -15 7.5s-6 10.833 -6 17.5c0 8.66699 3.66699 15.334 11 20.001l21 13l3 1c37.333 30.667 68 76.667 92 138
s39.833 121.333 47.5 180s11.5 119.334 11.5 182.001c0 202.667 -38.667 357.334 -116 464.001v1c-10.667 13.333 -25.667 26.666 -45 39.999c-14.667 11.333 -22 20.666 -22 27.999s2.16699 13.166 6.5 17.499s9.5 6.5 15.5 6.5c0.666992 0 2.33398 -0.666992 5.00098 -2
c8.66699 -3.33301 14.334 -5 17.001 -5c52 -28.667 97 -97 135 -205z" />
    <glyph glyph-name="asterisk" unicode="*" horiz-adv-x="391" 
d="M281 467l-1 -0.00195312c-1.33301 1.33301 -3.5 2.83301 -6.5 4.5s-5.83301 3.16699 -8.5 4.5l-1 1l-29 19l-32 -18v-56c0 -4.66699 -2.5 -8.66699 -7.5 -12s-10.5 -5 -16.5 -5s-11.5 1.66699 -16.5 5s-7.5 7.33301 -7.5 12v56l-32 18
c-1.33301 -1.33301 -3.66602 -3 -6.99902 -5s-6 -3.66699 -8 -5l-1 -1c-20 -13.333 -33.333 -20 -40 -20c-17.333 0 -26 5.66699 -26 17c0 3.33301 4.33301 8 13 14l64 42v36l-63 41c-9.33301 5.33301 -14 10 -14 14c0 12 8.66699 18 26 18c4.66699 0 18 -6.66699 40 -20
l1 -1l8 -5.5c3.33301 -2.33301 5.66602 -4.16602 6.99902 -5.49902l32 18v55c0 5.33301 2.5 9.5 7.5 12.5s10.5 4.5 16.5 4.5s11.5 -1.5 16.5 -4.5s7.5 -7.16699 7.5 -12.5v-55l32 -18l20 13c18 12.667 30.333 19 37 19c6 0 11.5 -1.66699 16.5 -5s7.5 -7.66602 7.5 -12.999
s-4 -9.66602 -12 -12.999l-1 -1l-62 -41v-36l62 -42c8.66699 -4.66699 13 -9.33398 13 -14.001c0 -11.333 -8 -17 -24 -17c-5.33301 0 -9 0.666992 -11 2z" />
    <glyph glyph-name="plus" unicode="+" horiz-adv-x="511" 
d="M210 453c0 16 5.66602 24.001 16.999 24.001c12 0 18 -8 18 -24v-150l21 -21h151c6 0 11.5 -1.5 16.5 -4.5s7.5 -7.16699 7.5 -12.5c0 -12 -8 -18 -24 -18h-151l-21 -21v-152c0 -5.33301 -1.66699 -10.5 -5 -15.5s-7.66602 -7.5 -12.999 -7.5s-9.5 2.5 -12.5 7.5
s-4.5 10.167 -4.5 15.5v152l-21 21h-151c-5.33301 0 -10.5 1.66699 -15.5 5s-7.5 7.66602 -7.5 12.999s2.5 9.5 7.5 12.5s10.167 4.5 15.5 4.5h151l21 21v150z" />
    <glyph glyph-name="comma" unicode="," horiz-adv-x="186" 
d="M48 -99c-0.666992 -0.666992 -1.83105 -1.5 -3.49805 -2.5s-2.83398 -1.83301 -3.50098 -2.5c0 0.666992 0.333008 1 1 1l1 1c2 2.66699 4.33301 6.66699 7 12l1 3l7 15c10 18.667 15 33 15 43c0 12.667 -7.66699 26.667 -23 42l-1 1c-9.33301 7.33301 -14 13.333 -14 18
c0 7.33301 3.66699 13.5 11 18.5s15.666 7.5 24.999 7.5c8.66699 0 16.667 -2.5 24 -7.5s11 -11.167 11 -18.5c0 -52 -19 -95.667 -57 -131h-1zM35.0029 -120c0 4.66699 -1.66797 7 -5.00098 7c2.66699 1.33301 6.33398 4.33301 11.001 9c-4 -8 -6 -13.333 -6 -16z" />
    <glyph glyph-name="hyphen" unicode="-" horiz-adv-x="340" 
d="M251 311c6 0 11.667 -1.66699 17 -5s8 -7.33301 8 -12c0 -12 -8.33301 -18 -25 -18h-199c-15.333 0 -23 6 -23 18c0 4.66699 2.33301 8.66699 7 12s10 5 16 5h199z" />
    <glyph glyph-name="period" unicode="." horiz-adv-x="107" 
d="M33 0c-8.66699 0 -16.334 2.33301 -23.001 7s-10 10.667 -10 18s3.33301 13.333 10 18s14.334 7 23.001 7c8 0 15.333 -2.33301 22 -7s10 -10.667 10 -18s-3.33301 -13.333 -10 -18s-14 -7 -22 -7z" />
    <glyph glyph-name="slash" unicode="/" horiz-adv-x="426" 
d="M493 738l-412 -772c-6.66699 -10 -15.667 -15 -27 -15c-14 0 -21 4.66699 -21 14c0 1.33301 0.333008 2.33301 1 3l2 10l1 -3l413 771c4.66699 9.33301 13 14 25 14c14 0 21 -4.66699 21 -14v-3l-2 -3z" />
    <glyph glyph-name="zero" unicode="0" horiz-adv-x="652" 
d="M303 701c53.333 0 100.665 -18.334 141.998 -55.001s72 -81.5 92 -134.5s30 -108.167 30 -165.5c0 -58 -10.167 -113.667 -30.5 -167s-51.166 -98.166 -92.499 -134.499s-88.666 -54.5 -141.999 -54.5s-100.333 18.667 -141 56s-70.667 82.5 -90 135.5
s-29 107.167 -29 162.5s9.33301 109.5 28 162.5s48.5 98.667 89.5 137s88.833 57.5 143.5 57.5zM519.999 345.999c0 28 -4.16699 59.167 -12.5 93.5s-20.5 69 -36.5 104s-38.667 64.333 -68 88s-62.333 35.5 -99 35.5c-37.333 0 -70.5 -11.167 -99.5 -33.5
s-51.5 -50.5 -67.5 -84.5s-28 -68.5 -36 -103.5s-12 -68.167 -12 -99.5s4.5 -65 13.5 -101s21.667 -70.833 38 -104.5s39 -61.5 68 -83.5s60.833 -33 95.5 -33c42 0 80.167 17.333 114.5 52s59.833 76.167 76.5 124.5s25 96.833 25 145.5z" />
    <glyph glyph-name="one" unicode="1" horiz-adv-x="276" 
d="M180 652v-634c0 -12 -8 -18 -24 -18c-15.333 0 -23 6 -23 18v581l-34 17l-26 -18c-6.66699 -4.66699 -13.334 -7 -20.001 -7c-6 0 -11.167 1.66699 -15.5 5s-6.5 8 -6.5 14c0 2.66699 1 5 3 7l1 1l102 75c6.66699 4.66699 13.334 7 20.001 7c15.333 0 23 -16 23 -48z" />
    <glyph glyph-name="two" unicode="2" horiz-adv-x="599" 
d="M475 65l3 0.99707c5.33301 2 9.66602 3 12.999 3c15.333 0 23 -5.66699 23 -17c0 -20.667 -28.667 -36.167 -86 -46.5s-112.666 -15.5 -165.999 -15.5c-46.667 0 -95 5 -145 15s-75 25.667 -75 47c0 3.33301 2 7 6 11l129 97l70.5 54.5c19 15 42.5 35.833 70.5 62.5
s50.5 51.834 67.5 75.501s31.833 51 44.5 82s19 61.5 19 91.5c0 43.333 -12.667 78.5 -38 105.5s-63.333 40.5 -114 40.5c-56 0 -112.667 -14 -170 -42c-4 -2 -8 -3 -12 -3c-16 0 -24 5.33301 -24 16c0 18.667 24.333 33.667 73 45s94.334 17 137.001 17
c59.333 0 106.666 -16.333 141.999 -49s53 -76.667 53 -132c0 -37.333 -7.83301 -74.166 -23.5 -110.499s-38.667 -71.166 -69 -104.499s-59 -62 -86 -86s-60.167 -50.667 -99.5 -80l-88 -67l8 -37c37.333 -9.33301 76.333 -14 117 -14c66.667 0 140 13.333 220 40z" />
    <glyph glyph-name="three" unicode="3" 
d="M471 154h-0.995117c-10.667 -51.333 -40 -91.5 -88 -120.5s-100.333 -43.5 -157 -43.5c-40 0 -82.167 4.5 -126.5 13.5s-66.5 22.833 -66.5 41.5c0 4.66699 2.5 8.66699 7.5 12s10.5 5 16.5 5c3.33301 0 7.66602 -1.33301 12.999 -4
c46.667 -22.667 94.334 -34 143.001 -34c24 0 47.667 2.83301 71 8.5s46.166 14.5 68.499 26.5s40.333 29.167 54 51.5s20.5 48.5 20.5 78.5c0 50.667 -21.5 92 -64.5 124s-90.833 48 -143.5 48h-58c-5.33301 0 -10.5 1.5 -15.5 4.5s-7.5 7.16699 -7.5 12.5
c0 4.66699 2.5 8.66699 7.5 12s10.167 5 15.5 5h2c78 6 136.833 24.333 176.5 55s59.5 71.667 59.5 123c0 30 -14.833 53.167 -44.5 69.5s-64.834 24.5 -105.501 24.5c-43.333 0 -99 -9 -167 -27c-11.333 -4 -18.333 -6 -21 -6c-12.667 0 -19 4 -19 12
c0 17.333 23.833 30.833 71.5 40.5s92.167 14.5 133.5 14.5c23.333 0 45.166 -1.66699 65.499 -5s41.166 -9.33301 62.499 -18s38.166 -22.167 50.499 -40.5s18.5 -40.833 18.5 -67.5c0 -30.667 -9.16699 -61 -27.5 -91s-41.5 -54.333 -69.5 -73l3 -37
c36 -15.333 66 -39.333 90 -72s36 -67.667 36 -105c0 -12 -1.33301 -24.667 -4 -38z" />
    <glyph glyph-name="four" unicode="4" horiz-adv-x="605" 
d="M517 264c6 0 11.501 -1.49902 16.501 -4.49902s7.5 -7.16699 7.5 -12.5c0 -4.66699 -2.5 -8.66699 -7.5 -12s-10.5 -5 -16.5 -5h-58l-21 -21v-191c0 -12 -8 -18 -24 -18s-24 6 -24 18v191l-21 21h-322c-10 0 -17.333 3.33301 -22 10l-1 1
c-1.33301 1.33301 -2 3.66602 -2 6.99902c0 2 0.333008 3.33301 1 4l61 74l126 149l124 149l56 66c5.33301 6 9.66602 9.66699 12.999 11c0.666992 0 2.16699 0.166992 4.5 0.5s4.5 0.5 6.5 0.5c1.33301 0 3 -0.166992 5 -0.5s3.66699 -0.5 5 -0.5
c9.33301 -2 14 -7.33301 14 -16v-400l21 -21h58zM390.001 285.001v280l-37 14l-71 -84l-32 -38l-125 -148l-1 -1l-7 -10l17 -34h235z" />
    <glyph glyph-name="five" unicode="5" horiz-adv-x="557" 
d="M472 222c0 -56.667 -20.3301 -106.502 -60.9971 -149.502s-89.667 -67.5 -147 -73.5h-1c-16 -2 -32 -3 -48 -3c-11.333 0 -24.333 1 -39 3c-59.333 8 -103 31.667 -131 71c-2 2 -3 4.33301 -3 7c0 6 3.66699 11 11 15c4 1.33301 8 2 12 2c10.667 0 20.334 -6 29.001 -18
l3 -2c9.33301 -9.33301 16.666 -15.666 21.999 -18.999l1 -1c26 -16.667 59.667 -25 101 -25c56 0 103.833 18.167 143.5 54.5s59.5 83.166 59.5 140.499c0 56.667 -24.833 103.5 -74.5 140.5s-104.5 55.5 -164.5 55.5c-11.333 0 -19.333 -0.333008 -24 -1
c-3.33301 0 -8 -0.166992 -14 -0.5s-10.667 -0.5 -14 -0.5h-31c-13.333 0 -21.333 4 -24 12v4l6 80v1l9 152c1.33301 6.66699 3.33301 11 6 13c3.33301 2.66699 9 4.66699 17 6h1c56 8 109.667 12 161 12c57.333 0 111.666 -3.66699 162.999 -11
c18 -2.66699 27 -8.66699 27 -18c0 -4.66699 -2.33301 -8.66699 -7 -12s-10.334 -5 -17.001 -5c-8 0.666992 -18.833 1.83398 -32.5 3.50098s-23.5 2.83398 -29.5 3.50098c-38.667 4.66699 -73.334 7 -104.001 7c-40 0 -80.333 -2.66699 -121 -8l-18 -21l-11 -163l22 -22h35
c2.66699 0 7.5 -0.166992 14.5 -0.5s12.167 -0.5 15.5 -0.5c67.333 -1.33301 127 -22.833 179 -64.5s78 -96.5 78 -164.5z" />
    <glyph glyph-name="six" unicode="6" horiz-adv-x="591" 
d="M280 399c60 0 114.498 -19.498 163.498 -58.498s73.5 -88.5 73.5 -148.5c0 -58.667 -24.167 -107.334 -72.5 -146.001s-104.166 -58 -167.499 -58c-23.333 0 -47.666 3.5 -72.999 10.5s-50.5 17.667 -75.5 32s-45.667 34.5 -62 60.5s-24.5 56 -24.5 90
c0 198 82.667 352 248 462c58 40 95.333 60 112 60c15.333 0 23 -5.66699 23 -17c0 -4.66699 -3.33301 -9.33398 -10 -14.001c-66 -35.333 -121 -70.833 -165 -106.5s-79.667 -79.167 -107 -130.5v-1l-16 -37l30 -27l6 3c34.667 17.333 73.667 26 117 26zM278.998 23.002
c48 0 91.666 16.1699 130.999 48.5029s59 73.166 59 122.499s-19.167 90.166 -57.5 122.499s-82.5 48.5 -132.5 48.5c-46 0 -89 -15.5 -129 -46.5s-60 -73.5 -60 -127.5c0 -36.667 10.833 -68.334 32.5 -95.001s46.334 -45.5 74.001 -56.5s55.167 -16.5 82.5 -16.5z" />
    <glyph glyph-name="seven" unicode="7" horiz-adv-x="543" 
d="M453 679h1c16.667 -1.33301 25 -7.33301 25 -18l4 3l-5 -6l-38 -82l-165 -355l-24 -50l-20 -42.5l-22 -47.5l-31 -64c-5.33301 -11.333 -13 -17 -23 -17c-16.667 -0 -25.334 5.33301 -26.001 16c2.66699 2 4 5 4 9l36 78c6.66699 15.333 26 56.333 58 123
c1.33301 2 3.33301 6 6 12s5 10.333 7 13v1l161 346l1 1c3.33301 9.33301 7 17.333 11 24l-15 30c-42.667 8.66699 -93.667 13 -153 13c-80 0 -144.667 -8 -194 -24c-1.33301 -0.666992 -2.66602 -1 -3.99902 -1c-6.66699 0 -12.667 1.66699 -18 5s-8 7.33301 -8 12
c0 28 74.667 42 224 42c56 0 113 -5 171 -15zM129 16l-1 -1v1l1 2v-2z" />
    <glyph glyph-name="eight" unicode="8" horiz-adv-x="599" 
d="M457 325c36 -40 55 -84.3359 57 -133.003c-0.666992 -59.333 -24.5 -108 -71.5 -146s-101.5 -57 -163.5 -57c-60 0 -114.5 18.833 -163.5 56.5s-73.5 86.834 -73.5 147.501c0 34.667 10.333 67.834 31 99.501s47 55.834 79 72.501l3 36c-48.667 34 -73 78.667 -73 134
c0 52 20.667 93.167 62 123.5s87 45.5 137 45.5c51.333 0 96.5 -16.333 135.5 -49s58.5 -72.667 58.5 -120c0 -56 -24.333 -100.333 -73 -133l2 -37c18 -10.667 35.667 -24 53 -40zM278 21.9971c42 0 81.833 13.333 119.5 40s60.167 62.334 67.5 107.001v2
c1.33301 8 2 15.333 2 22c0 51.333 -19.5 92.5 -58.5 123.5s-82.5 46.5 -130.5 46.5c-58 0 -103.833 -17.833 -137.5 -53.5s-50.5 -74.834 -50.5 -117.501c0 -37.333 11 -69.5 33 -96.5s46.667 -46 74 -57s54.333 -16.5 81 -16.5zM129 554.997
c-0.666992 -4 -0.998047 -11.334 -0.998047 -22.001c0 -41.333 15.667 -74.166 47 -98.499s65.666 -36.5 102.999 -36.5s70 11 98 33s45 49.333 51 82v42c-7.33301 36.667 -25.333 65 -54 85s-60.334 30 -95.001 30c-36.667 0 -69 -10.667 -97 -32s-45.333 -49 -52 -83z" />
    <glyph glyph-name="nine" unicode="9" horiz-adv-x="583" 
d="M266 701c59.333 0 112.831 -19.499 160.498 -58.499s71.5 -88.167 71.5 -147.5c0 -88 -16.667 -167.167 -50 -237.5s-79.666 -128.5 -138.999 -174.5c-2 -1.33301 -4.5 -3.33301 -7.5 -6s-4.83301 -4.33398 -5.5 -5.00098h-1c-59.333 -48 -100.666 -72 -123.999 -72
c-16.667 0 -25 5.66699 -25 17c0 6 3.66699 11 11 15c72 38 128.167 76.667 168.5 116s71.833 91 94.5 155l-31 26c-10 -6.66699 -21.667 -12 -35 -16c-29.333 -10 -58.333 -15 -87 -15c-60 0 -114.167 18.667 -162.5 56s-72.5 86 -72.5 146c0 42 12.667 78.833 38 110.5
s55.333 54.667 90 69s70 21.5 106 21.5zM240.998 333.001c4 -0.666992 12 -1.00098 24 -1.00098c52.667 0 96.667 16.667 132 50s53 72 53 116c0 52 -19 93.167 -57 123.5s-80.667 45.5 -128 45.5c-53.333 0 -97.5 -17 -132.5 -51s-52.5 -72.667 -52.5 -116
c0 -26 5.16699 -49.5 15.5 -70.5s24 -37.833 41 -50.5s34.167 -22.667 51.5 -30s35 -12.666 53 -15.999z" />
    <glyph glyph-name="colon" unicode=":" horiz-adv-x="200" 
d="M51 0c-8.66699 0 -16.334 2.33301 -23.001 7s-10 10.667 -10 18s3.33301 13.333 10 18s14.334 7 23.001 7c8 0 15.333 -2.33301 22 -7s10 -10.667 10 -18s-3.33301 -13.333 -10 -18s-14 -7 -22 -7zM51 343c-8.66699 0 -16.334 2.33301 -23.001 7s-10 10.667 -10 18
s3.33301 13.166 10 17.499s14.334 6.5 23.001 6.5c8 0 15.333 -2.16699 22 -6.5s10 -10.166 10 -17.499s-3.33301 -13.333 -10 -18s-14 -7 -22 -7z" />
    <glyph glyph-name="semicolon" unicode=";" horiz-adv-x="189" 
d="M20 -99c-1.33301 -0.666992 -2.49902 -1.66602 -3.49902 -2.99902s-1.83301 -2 -2.5 -2c0 0.666992 0.333008 1 1 1l1 1l6 12l1 3l8 15c10 21.333 15 35.666 15 42.999c0 12 -8 26 -24 42l-1 1c-9.33301 8 -14 14 -14 18c0 7.33301 3.66699 13.5 11 18.5
s15.666 7.5 24.999 7.5c8.66699 0 16.667 -2.5 24 -7.5s11 -11.167 11 -18.5c0 -52 -19 -95.667 -57 -131h-1zM42.001 345.001c-8 0 -15.333 2.33301 -22 7s-10 10.667 -10 18s3.33301 13.333 10 18s14 7 22 7s15.333 -2.33301 22 -7s10 -10.667 10 -18
s-3.33301 -13.333 -10 -18s-14 -7 -22 -7zM7.00098 -119.999c0 4.66699 -1.66699 6.99902 -5 6.99902c2 0.666992 6 3.66699 12 9c-4.66699 -9.33301 -7 -14.666 -7 -15.999z" />
    <glyph glyph-name="less" unicode="&#x3c;" horiz-adv-x="544" 
d="M437 108c6.66699 -4 10 -9 10 -15c0 -4.66699 -2.5 -8.66699 -7.5 -12s-10.5 -5 -16.5 -5c-4 0 -8.33301 1.33301 -13 4l-372 176h-1c-6 2.66699 -9 7 -9 13c0 8 18 19.333 54 34c3.33301 2 6 3.33301 8 4l13.5 5.5c5.66699 2.33301 9.5 3.83301 11.5 4.5l290 126
c2.66699 1.33301 7.66699 2 15 2c15.333 0 23 -5 23 -15c0 -7.33301 -2.66699 -12 -8 -14l-1 -1l-160 -69l-103 -45l-32 -14l-1 -38z" />
    <glyph glyph-name="equal" unicode="=" horiz-adv-x="608" 
d="M471 186c6 0 11.5 -1.66602 16.5 -4.99902s7.5 -7.33301 7.5 -12c0 -12 -8 -18 -24 -18h-379c-5.33301 0 -10.5 1.66699 -15.5 5s-7.5 7.66602 -7.5 12.999c0 4.66699 2.5 8.66699 7.5 12s10.167 5 15.5 5h379zM471 378.001c6 0 11.5 -1.66602 16.5 -4.99902
s7.5 -7.33301 7.5 -12c0 -12 -8 -18 -24 -18h-379c-5.33301 0 -10.5 1.66699 -15.5 5s-7.5 7.66602 -7.5 12.999c0 4.66699 2.5 8.66699 7.5 12s10.167 5 15.5 5h379z" />
    <glyph glyph-name="greater" unicode="&#x3e;" horiz-adv-x="545" 
d="M34 108l299.001 140.998l-1 38l-32 14l-103 45l-160 69l-1 1c-5.33301 2 -8 6.66699 -8 14c0 10 7.66699 15 23 15c7.33301 0 12.333 -0.666992 15 -2l289 -126c8 -3.33301 16.667 -6.66602 26 -9.99902c37.333 -16 57.666 -27.333 60.999 -34
c0.666992 -1.33301 1 -2.66602 1 -3.99902c0 -6 -3 -10.333 -9 -13h-1l-373 -176c-3.33301 -2.66699 -7.33301 -4 -12 -4c-6 0 -11.5 1.66699 -16.5 5s-7.5 7.33301 -7.5 12c0 6 3.33301 11 10 15z" />
    <glyph glyph-name="question" unicode="?" horiz-adv-x="433" 
d="M87 660c-15.333 0 -23 5.66895 -23 17.002c0 19.333 29 29 87 29c62 0 112 -14.667 150 -44s57 -77.666 57 -144.999c0 -80.667 -51 -148.334 -153 -203.001h-1c-19.333 -10.667 -34.333 -21.834 -45 -33.501s-17.167 -21.5 -19.5 -29.5s-3.5 -17.667 -3.5 -29v-33
c0 -1.33301 0.166992 -5.33301 0.5 -12s0.5 -14 0.5 -22c0 -11.333 -8.33301 -17 -25 -17c-5.33301 0 -10.5 1.5 -15.5 4.5s-7.5 7.16699 -7.5 12.5c0 8 -0.333008 14.667 -1 20v8v29c1.33301 20 4.16602 37 8.49902 51s11.166 25.833 20.499 35.5s17.333 16.667 24 21
s17.334 10.5 32.001 18.5c2.66699 1.33301 7 3.83301 13 7.5l14 8.5c74.667 51.333 112 105.666 112 162.999c0 56 -14.667 95.333 -44 118s-73.666 34.667 -132.999 36l-10 -2c-0.666992 -0.666992 -1.66699 -1 -3 -1s-2.33301 -0.333008 -3 -1
c-17.333 -4.66699 -28 -7 -32 -7zM113 0.00195312c-8 0 -15.333 2.33301 -22 7s-10 10.667 -10 18s3.33301 13.333 10 18s14 7 22 7s15.333 -2.33301 22 -7s10 -10.667 10 -18s-3.33301 -13.333 -10 -18s-14 -7 -22 -7z" />
    <glyph glyph-name="at" unicode="@" horiz-adv-x="966" 
d="M791 539c24 -47.333 35.998 -96.9971 35.998 -148.997c0 -51.333 -14 -95.5 -42 -132.5s-70.333 -60.5 -127 -70.5c-34.667 0 -60.334 8.33301 -77.001 25l-23 4l-18 -7c-30 -12.667 -63.333 -19 -100 -19c-42.667 0 -79.667 13.833 -111 41.5s-47 62.834 -47 105.501
c0 50 20.833 94.5 62.5 133.5s90.834 58.5 147.501 58.5c38 0 71.333 -7.5 100 -22.5s43 -40.167 43 -75.5c0 -8.66699 -9 -60.667 -27 -156c-0.666992 -2 -1 -5.66699 -1 -11c0 -12.667 4.33301 -23.167 13 -31.5s19.334 -12.5 32.001 -12.5c32 0 61.667 16.167 89 48.5
s41 69.5 41 111.5c0 31.333 -5.5 63.666 -16.5 96.999s-23.833 60.666 -38.5 81.999c-51.333 74 -138.666 111 -261.999 111c-52 0 -99.333 -10.5 -142 -31.5s-76.334 -47.833 -101.001 -80.5s-43.5 -67.167 -56.5 -103.5s-19.5 -71.833 -19.5 -106.5
c0 -64 16 -121.333 48 -172s71.833 -88.667 119.5 -114s97.167 -38 148.5 -38c33.333 0 67 5.66699 101 17l33 15h1c14.667 8 25.334 12 32.001 12c6 0 11.5 -1.83301 16.5 -5.5s7.5 -7.83398 7.5 -12.501c0 -18 -22.167 -32.5 -66.5 -43.5s-84.833 -16.5 -121.5 -16.5
c-104.667 0 -192 35.833 -262 107.5s-105 155.5 -105 251.5c0 66 17.5 126.667 52.5 182s80.333 98.166 136 128.499s114.5 45.5 176.5 45.5c83.333 0 152.333 -14.833 207 -44.5s95 -70.167 121 -121.5zM402.998 229.003l1.99902 -1c16 -2 28.333 -3 37 -3
c1.33301 0 3 0.166992 5 0.5s3.66699 0.5 5 0.5h8c62 6.66699 97.333 32.667 106 78c0.666992 2 1.66699 6.33301 3 13s2.33301 12 3 16c11.333 55.333 17 89.333 17 102c0 22 -9.66699 37.667 -29 47s-41 14 -65 14c-51.333 0 -91.666 -17.333 -120.999 -52
s-44 -70.667 -44 -108c0 -30 7.16699 -54 21.5 -72s31.5 -29.667 51.5 -35z" />
    <glyph glyph-name="A" unicode="A" horiz-adv-x="811" 
d="M685 456c10 -38 15.001 -83.001 15.001 -135.001v-304c0 -5.33301 -2.5 -9.5 -7.5 -12.5s-10.167 -4.5 -15.5 -4.5c-16.667 0 -25 5.66699 -25 17v256l-21 21h-493l-21 -21v-256c0 -5.33301 -2.5 -9.5 -7.5 -12.5s-10.5 -4.5 -16.5 -4.5s-11.5 1.5 -16.5 4.5
s-7.5 7.16699 -7.5 12.5v330c0 56.667 12.167 111.834 36.5 165.501s61.166 99 110.499 136s105 55.5 167 55.5c70.667 0 134.5 -23.833 191.5 -71.5s93.833 -106.5 110.5 -176.5zM631.001 327.999l21 20.999c0 51.333 -10.167 101 -30.5 149s-51.5 88.667 -93.5 122
s-89.667 50 -143 50c-52.667 0 -100.167 -16.667 -142.5 -50s-73.833 -74.166 -94.5 -122.499s-31 -97.833 -31 -148.5l21 -21h493z" />
    <glyph glyph-name="B" unicode="B" horiz-adv-x="758" 
d="M664 263l-0.000976562 1.00098c6 -25.333 9 -49.333 9 -72c0 -138 -108.333 -207 -325 -207c-19.333 0 -41.166 0.5 -65.499 1.5s-54.333 3.16699 -90 6.5s-65.167 9.16602 -88.5 17.499s-35 18.5 -35 30.5v606c0 21.333 29 36 87 44s117.333 12 178 12
c79.333 0 144.333 -17 195 -51s76 -81.667 76 -143c0 -47.333 -14.667 -81.666 -44 -102.999l4 -36c52 -22.667 85 -58.334 99 -107.001zM451.999 23.001c50 6.66699 91.498 24.5 124.498 53.5s49.5 68.833 49.5 119.5c0 24.667 -2.66699 46 -8 64s-14.333 32.5 -27 43.5
s-25.167 19.667 -37.5 26s-29.666 11 -51.999 14s-41.5 4.83301 -57.5 5.5s-38.333 1 -67 1c-27.333 0 -58.666 -0.166992 -93.999 -0.5s-58.333 -0.5 -69 -0.5h-76l-21 -21v-260l16 -20c76 -19.333 149.333 -29 220 -29c44.667 0 77.667 1.33301 99 4zM333.997 669.001
c-77.333 0 -144.666 -9.00293 -201.999 -27.0029l-15 -20v-217l21 -21h242c20 0 39.5 1.83301 58.5 5.5s37.667 9.83398 56 18.501s33.166 21.834 44.499 39.501s17 38.5 17 62.5c0 25.333 -3.66699 47.5 -11 66.5s-18 34 -32 45s-27.667 20 -41 27s-30 11.833 -50 14.5
s-35.5 4.33398 -46.5 5.00098s-24.833 1 -41.5 1z" />
    <glyph glyph-name="C" unicode="C" horiz-adv-x="766" 
d="M105 147l-0.00292969 1.00098c-42 60 -63 127 -63 201c0 103.333 37.833 188.5 113.5 255.5s163.5 100.5 263.5 100.5c38.667 0 75.334 -5.33301 110.001 -16c32 -9.33301 66.333 -23.833 103 -43.5s55 -37.167 55 -52.5c0 -11.333 -8 -17 -24 -17c-8 0 -14 2 -18 6
c-63.333 58.667 -139 88 -227 88c-87.333 0 -164 -30.833 -230 -92.5s-99 -138.167 -99 -229.5c0 -86.667 32 -162.834 96 -228.501s141.667 -98.5 233 -98.5c64.667 0 125.334 18 182.001 54c7.33301 5.33301 17 13 29 23c20.667 16 33 24 37 24c17.333 0 26 -6 26 -18
c0 -3.33301 -2.33301 -7.33301 -7 -12c-71.333 -70 -160.666 -105 -267.999 -105c-61.333 0 -120 14.333 -176 43s-101.333 67.667 -136 117z" />
    <glyph glyph-name="D" unicode="D" horiz-adv-x="757" 
d="M270 -15c-41.333 1.33301 -85.165 8.00098 -131.498 20.001s-69.5 26.667 -69.5 44v586c0 5.33301 6.33301 11.333 19 18v1c50.667 29.333 113 44 187 44c107.333 0 200.333 -34 279 -102s118 -151.667 118 -251c0 -57.333 -12.333 -109.5 -37 -156.5
s-56.834 -84.833 -96.501 -113.5s-82.834 -50.834 -129.501 -66.501s-93 -23.5 -139 -23.5zM626.001 344.001c0 67.333 -17.8311 126 -53.498 176s-79.334 86.667 -131.001 110s-106.167 35 -163.5 35c-48.667 0 -98.334 -11 -149.001 -33l-12 -19v-543l12 -19
c48.667 -21.333 98.667 -32 150 -32c96 0 177.833 32.667 245.5 98s101.5 141 101.5 227z" />
    <glyph glyph-name="E" unicode="E" horiz-adv-x="658" 
d="M117 619v-214.004l21 -21h300c15.333 0 23 -5.66699 23 -17s-7.66699 -17 -23 -17h-300l-21 -21v-257l13 -20l14 -5c42.667 -15.333 98 -23 166 -23c44 0 95 5.33301 153 16c29.333 6.66699 53.666 15.334 72.999 26.001c4 2 8 3 12 3c10 0 17.333 -3.33301 22 -10
c2 -3.33301 3 -5.66602 3 -6.99902c0 -7.33301 -3.33301 -12 -10 -14h-1c-64.667 -32 -151 -48 -259 -48c-80.667 0 -148.667 11.667 -204 35h-1l-5 4c-16 9.33301 -24 17 -24 23v588c2 6.66699 7.33301 12.334 16 17.001s23.667 11.334 45 20.001
c61.333 16 125.333 24 192 24c88.667 0 169 -15.333 241 -46c6.66699 -4 10 -8.66699 10 -14c0 -3.33301 -0.666992 -6 -2 -8c-4.66699 -6 -12 -9 -22 -9c-4 0 -8 1 -12 3c-51.333 26 -121.666 39 -210.999 39h-12c-60.667 0 -117.667 -7.66699 -171 -23
c-4.66699 0 -9.66699 -1.66699 -15 -5z" />
    <glyph glyph-name="F" unicode="F" horiz-adv-x="636" 
d="M69 21v618.998c2 6 5.66699 11 11 15c30 18 64.167 29.833 102.5 35.5s84.833 8.83398 139.5 9.50098c62 0 114.333 -5.33301 157 -16l1 -1c31.333 -6 59 -15.333 83 -28c6.66699 -4 10 -8.66699 10 -14c0 -3.33301 -0.666992 -6 -2 -8c-4.66699 -6 -12 -9 -22 -9
c-4 0 -8 1 -12 3c-52 26 -123.333 39 -214 39c-86 0 -150.667 -9.33301 -194 -28l-12 -19v-214l21 -21h300c15.333 0 23 -5.66699 23 -17s-7.66699 -17 -23 -17h-300l-21 -21v-308c0 -14 -8.33301 -21 -25 -21c-6 0 -11.167 1.83301 -15.5 5.5s-6.83301 8.83398 -7.5 15.501
z" />
    <glyph glyph-name="G" unicode="G" horiz-adv-x="879" 
d="M771 362c6 0 11.332 -1.66699 15.999 -5s7 -7.33301 7 -12c0 -68.667 -18.667 -131.334 -56 -188.001c-26 -40.667 -59.667 -75 -101 -103s-86 -47 -134 -57c-27.333 -6.66699 -55.333 -10 -84 -10c-61.333 0 -121 15 -179 45s-104 70.667 -138 122
c-28 39.333 -46 81.666 -54 126.999c-4 34.667 -6 59.334 -6 74.001c0 72.667 23.333 140 70 202c77.333 98.667 180.333 148 309 148c40.667 0 78.667 -6 114 -18h1c60.667 -19.333 110.334 -48 149.001 -86c4.66699 -6 7 -10 7 -12c0 -4 -2.33301 -8.33301 -7 -13
c-4.66699 -3.33301 -11 -5 -19 -5c-6.66699 0 -12.334 1.66699 -17.001 5c-60.667 61.333 -136 92 -226 92c-62 0 -120.5 -15.667 -175.5 -47s-96.833 -75 -125.5 -131c-13.333 -26.667 -23.333 -57 -30 -91v-1c-2 -16 -3 -33 -3 -51c0 -52 13 -102.167 39 -150.5
s61.667 -87.166 107 -116.499c61.333 -39.333 122.333 -59 183 -59s117.834 16.5 171.501 49.5s95.167 77.167 124.5 132.5c18 33.333 28.333 67.333 31 102l-22 23h-178c-5.33301 0 -10.5 1.5 -15.5 4.5s-7.5 7.16699 -7.5 12.5c0 4.66699 2.5 8.66699 7.5 12
s10.167 5 15.5 5h226z" />
    <glyph glyph-name="H" unicode="H" horiz-adv-x="810" 
d="M676 700c5.33301 0 10.5 -1.5 15.5 -4.5s7.5 -7.16699 7.5 -12.5v-666c0 -5.33301 -2.5 -9.5 -7.5 -12.5s-10.167 -4.5 -15.5 -4.5c-16.667 0 -25 5.66699 -25 17v319l-21 21h-492l-21 -21v-319c0 -5.33301 -2.5 -9.5 -7.5 -12.5s-10.5 -4.5 -16.5 -4.5
s-11.5 1.5 -16.5 4.5s-7.5 7.16699 -7.5 12.5v666c0 5.33301 2.5 9.5 7.5 12.5s10.5 4.5 16.5 4.5s11.5 -1.5 16.5 -4.5s7.5 -7.16699 7.5 -12.5v-270l21 -22h492l21 22v270c0 11.333 8.33301 17 25 17z" />
    <glyph glyph-name="I" unicode="I" horiz-adv-x="228" 
d="M92 0c-5.33301 0 -10.5 1.5 -15.5 4.5s-7.5 7.16699 -7.5 12.5v666c0 5.33301 2.5 9.5 7.5 12.5s10.167 4.5 15.5 4.5c16.667 0 25 -5.66699 25 -17v-666c0 -11.333 -8.33301 -17 -25 -17z" />
    <glyph glyph-name="J" unicode="J" horiz-adv-x="228" 
d="M117 682v-668.999c0 -24.667 -1.66699 -44.334 -5 -59.001c-8 -47.333 -32 -87 -72 -119c-42 -34 -91 -51 -147 -51c-16.667 0 -25 5.66699 -25 17c0 4.66699 2.66699 8.66699 8 12s11 5 17 5c32.667 0 63 8.66699 91 26s50.333 41 67 71c12 21.333 18 54 18 98v669
c0 12 8 18 24 18s24 -6 24 -18z" />
    <glyph glyph-name="K" unicode="K" horiz-adv-x="725" 
d="M627 34l2.00293 -1.00098c4 -0.666992 7.5 -2.66699 10.5 -6s4.5 -6.66602 4.5 -9.99902c0 -0.666992 -0.166992 -1.33398 -0.5 -2.00098s-0.5 -1.33398 -0.5 -2.00098c-2.66699 -8.66699 -10.667 -13 -24 -13h-5l-2 1c-34.667 6.66699 -64.334 28.667 -89.001 66
c-14.667 20.667 -32.667 62 -54 124l-3 9l-4 11.5c-1.33301 3.66699 -2.33301 6.83398 -3 9.50098c-11.333 37.333 -24 70 -38 98c-26.667 52.667 -60.667 81 -102 85l-17 -6l-179 -171l-6 -15v-195c0 -5.33301 -2.5 -9.5 -7.5 -12.5s-10.5 -4.5 -16.5 -4.5
s-11.5 1.5 -16.5 4.5s-7.5 7.16699 -7.5 12.5v666c0 5.33301 2.5 9.5 7.5 12.5s10.5 4.5 16.5 4.5s11.5 -1.5 16.5 -4.5s7.5 -7.16699 7.5 -12.5v-351l36 -16l403 378v1c3.33301 3.33301 8.66602 5 15.999 5c8.66699 0 15 -2 19 -6c3.33301 -2 5 -5.66699 5 -11
c0 -3.33301 -1.66699 -6.66602 -5 -9.99902l-2 -2l-222 -212l6 -34c28 -10.667 52 -31 72 -61c18.667 -26 37.334 -67.333 56.001 -124v-1c1.33301 -3.33301 3.16602 -8.83301 5.49902 -16.5s4.16602 -13.167 5.49902 -16.5c14.667 -43.333 26.667 -74.333 36 -93v-1
c24.667 -46.667 51 -72.667 79 -78z" />
    <glyph glyph-name="L" unicode="L" horiz-adv-x="620" 
d="M510 54h1.00098c5.33301 2 11 4.66699 17 8l2 1c10.667 4.66699 19.334 7 26.001 7h2l2 -1c6.66699 -1.33301 11.667 -4.66602 15 -9.99902c2 -3.33301 3 -5.33301 3 -6s-0.166992 -1.33398 -0.5 -2.00098s-0.5 -1.33398 -0.5 -2.00098
c-1.33301 -4.66699 -4.66602 -8 -9.99902 -10h-1c-23.333 -12.667 -51.333 -23 -84 -31c-58.667 -12 -114.334 -18 -167.001 -18c-12 0 -34 1.33301 -66 4c-45.333 4 -76 8 -92 12c-36.667 10.667 -63.334 21.667 -80.001 33c-4.66699 4.66699 -7 11.334 -7 20.001v625
c0 5.33301 2.5 9.5 7.5 12.5s10.5 4.5 16.5 4.5s11.5 -1.5 16.5 -4.5s7.5 -7.16699 7.5 -12.5v-611l11 -19l-1 2l9 -5l8 -3c22.667 -8.66699 49.667 -14.667 81 -18c30 -3.33301 59 -5 87 -5c26 0 55 1.66699 87 5h1c39.333 5.33301 75.666 13.333 108.999 24z" />
    <glyph glyph-name="M" unicode="M" horiz-adv-x="1000" 
d="M876 532c8.66699 -39.333 12.9951 -87.9961 12.9951 -145.996v-369c0 -5.33301 -2.5 -9.5 -7.5 -12.5s-10.5 -4.5 -16.5 -4.5s-11.5 1.5 -16.5 4.5s-7.5 7.16699 -7.5 12.5v385c0 93.333 -15.5 161.5 -46.5 204.5s-71.833 64.5 -122.5 64.5
c-32 0 -59.667 -7.83301 -83 -23.5s-41 -36.167 -53 -61.5s-20.5 -50.833 -25.5 -76.5s-7.5 -51.834 -7.5 -78.501v-414c0 -5.33301 -2.5 -9.5 -7.5 -12.5s-10.5 -4.5 -16.5 -4.5s-11.5 1.5 -16.5 4.5s-7.5 7.16699 -7.5 12.5v409c0 84 -16.333 145.833 -49 185.5
s-72.667 59.5 -120 59.5c-23.333 0 -44.166 -3.66699 -62.499 -11s-33.166 -16.333 -44.499 -27s-21.166 -24.834 -29.499 -42.501s-14.666 -33.834 -18.999 -48.501s-7.5 -32.834 -9.5 -54.501s-3.16699 -38.5 -3.5 -50.5s-0.5 -27.667 -0.5 -47v-373
c0 -5.33301 -2.5 -9.5 -7.5 -12.5s-10.5 -4.5 -16.5 -4.5s-11.5 1.5 -16.5 4.5s-7.5 7.16699 -7.5 12.5v358c0 7.33301 0.166992 17.666 0.5 30.999s0.5 23.333 0.5 30c0 84.667 20 150.334 60 197.001s90.667 70.667 152 72h6c36 0 69.5 -8.66699 100.5 -26
s55.167 -41 72.5 -71h36c16 29.333 39.333 52.5 70 69.5s64.334 26.167 101.001 27.5h7c50.667 0 94.167 -16.333 130.5 -49s59.833 -74 70.5 -124z" />
    <glyph glyph-name="N" unicode="N" horiz-adv-x="780" 
d="M669 456c10 -38 15.001 -82.998 15.001 -134.998v-304c0 -5.33301 -2.5 -9.5 -7.5 -12.5s-10.167 -4.5 -15.5 -4.5c-16.667 0 -25 5.66699 -25 17v315c0 92 -25.167 170.5 -75.5 235.5s-114.5 97.5 -192.5 97.5c-57.333 0 -106.833 -16.833 -148.5 -50.5
s-71.834 -75.834 -90.501 -126.501s-28 -106.334 -28 -167.001v-304c0 -5.33301 -2.5 -9.5 -7.5 -12.5s-10.5 -4.5 -16.5 -4.5s-11.5 1.5 -16.5 4.5s-7.5 7.16699 -7.5 12.5v330c0 60.667 13 118 39 172s63.333 98.333 112 133s103 52 163 52c72 0 135.333 -23.5 190 -70.5
s92 -106.167 112 -177.5z" />
    <glyph glyph-name="O" unicode="O" horiz-adv-x="881" 
d="M672 614c39.333 -34 69.999 -74.166 91.999 -120.499s33 -94.833 33 -145.5c0 -70 -18.5 -132.833 -55.5 -188.5s-84 -97.834 -141 -126.501s-117.167 -43 -180.5 -43c-101.333 0 -189.666 34.833 -264.999 104.5s-113 154.167 -113 253.5c0 68 18.667 129.833 56 185.5
s84.833 98.167 142.5 127.5s118.167 44 181.5 44c94.667 0 178 -30.333 250 -91zM419.999 24.001c88 0 164.832 31.333 230.499 94s98.5 139.334 98.5 230.001c0 46 -7.66699 88 -23 126s-35 68.833 -59 92.5s-51 43.5 -81 59.5s-58.833 27.333 -86.5 34
s-54.167 10 -79.5 10c-52.667 0 -100.5 -10 -143.5 -30s-77.667 -45.833 -104 -77.5s-46.5 -66.167 -60.5 -103.5s-21 -74.333 -21 -111c0 -51.333 10.333 -98.333 31 -141s47.5 -76.834 80.5 -102.501s68.333 -45.5 106 -59.5s74.834 -21 111.501 -21z" />
    <glyph glyph-name="P" unicode="P" horiz-adv-x="668" 
d="M546 638c39.333 -30.667 59 -68.668 59 -114.001c0 -46.667 -20 -86.667 -60 -120c-49.333 -41.333 -126.666 -62 -231.999 -62c-59.333 0 -117 2.66699 -173 8l-23 -21v-312c0 -5.33301 -2.5 -9.5 -7.5 -12.5s-10.5 -4.5 -16.5 -4.5s-11.5 1.5 -16.5 4.5
s-7.5 7.16699 -7.5 12.5v643c1.33301 10.667 6.66602 16.334 15.999 17.001h1c76.667 17.333 154 26 232 26c98.667 0 174.667 -21.667 228 -65zM315 374.999c54.667 0 100.668 6.66602 138.001 19.999c28 10 52.5 26.667 73.5 50s31.5 49.333 31.5 78
c0 18.667 -3.66699 35.334 -11 50.001l-1 1c-36.667 63.333 -114.334 95 -233.001 95c-52.667 0 -112 -5.66699 -178 -17l-18 -21v-226l19 -21c56 -6 115.667 -9 179 -9z" />
    <glyph glyph-name="Q" unicode="Q" horiz-adv-x="881" 
d="M1104 -183c6 0 11.332 -1.66699 15.999 -5s7 -7.33301 7 -12c0 -11.333 -7.66699 -17 -23 -17c-22 0 -52.333 2.33301 -91 7c-61.333 8 -118.666 24.667 -171.999 50c-40.667 17.333 -87.334 47 -140.001 89c-31.333 24.667 -63 55 -95 91l-25 4
c-51.333 -22.667 -105 -34 -161 -34h-11c-96.667 0 -182 35.5 -256 106.5s-111 154.833 -111 251.5c0 96 37.333 179.5 112 250.5s160 106.5 256 106.5h11c95.333 0 179 -30.667 251 -92c78 -66.667 119.667 -150.334 125 -251.001v-14c0 -41.333 -8.33301 -83.333 -25 -126
c-20 -48 -46.667 -88.667 -80 -122c-13.333 -13.333 -27 -24.666 -41 -33.999l-2 -32c50 -53.333 99.667 -95.666 149 -126.999c29.333 -20 66.333 -38.333 111 -55c46.667 -16.667 91.334 -27.334 134.001 -32.001c20 -2 40.333 -3 61 -3zM530.999 43l10 3.99805l11 33
l-61 76c-2.66699 4.66699 -6.83398 10.334 -12.501 17.001s-9.5 11.334 -11.5 14.001c-3.33301 3.33301 -5 6 -5 8c0 6 3.33301 11 10 15c4 2 8.66699 3 14 3c9.33301 0 16.666 -3.66699 21.999 -11c28.667 -38 57.334 -73.667 86.001 -107l29 -3c14 12 22.667 20 26 24
c30.667 28.667 55 63 73 103s27 81 27 123v3c0 88 -32.833 164.167 -98.5 228.5s-142.5 96.5 -230.5 96.5c-87.333 0 -164.166 -32 -230.499 -96s-99.5 -139.333 -99.5 -226c0 -86 32.333 -161.5 97 -226.5s139.667 -97.5 225 -97.5h8c11.333 0 23 1 35 3h4
c20 2.66699 44 8 72 16z" />
    <glyph glyph-name="R" unicode="R" horiz-adv-x="723" 
d="M664 27c2 -6 3 -9.33301 3 -10c0 -4.66699 -2.33301 -8.66699 -7 -12s-10 -5 -16 -5c-6.66699 -0 -13.667 2.33301 -21 7c-28 20 -57.333 45.667 -88 77c-67.333 66 -129.333 149.333 -186 250l-18 11c-30.667 0 -53.667 0.333008 -69 1
c-44.667 1.33301 -85.334 3.66602 -122.001 6.99902l-23 -21v-315c0 -5.33301 -2.5 -9.5 -7.5 -12.5s-10.5 -4.5 -16.5 -4.5s-11.5 1.5 -16.5 4.5s-7.5 7.16699 -7.5 12.5v643c2 10 13.333 16.667 34 20c76.667 15.333 146.334 23 209.001 23
c29.333 0 59.5 -2.83301 90.5 -8.5s62.333 -14.667 94 -27s57.667 -30.666 78 -54.999s30.5 -52.833 30.5 -85.5c0 -46.667 -20 -86.667 -60 -120c-30.667 -25.333 -72 -43 -124 -53l-14 -32c45.333 -74.667 92 -138.667 140 -192v-1
c39.333 -42.667 78.333 -76.667 117 -102zM117 408l19.001 -21c54.667 -5.33301 111.667 -8 171 -8c20 0 39.5 0.833008 58.5 2.5s40.667 5.66699 65 12s45.333 14.5 63 24.5s32.667 24.5 45 43.5s18.5 40.833 18.5 65.5c0 26.667 -8.33301 50 -25 70s-38.334 35 -65.001 45
s-52.667 17.167 -78 21.5s-50.333 6.5 -75 6.5c-68 0 -128 -6 -180 -18l-17 -21v-223z" />
    <glyph glyph-name="S" unicode="S" horiz-adv-x="732" 
d="M420 349c29.333 -6 54.8389 -12.3311 76.5059 -18.998s45.667 -16 72 -28s47.166 -27.667 62.499 -47s24.333 -41.666 27 -66.999c-0.666992 -34.667 -11.667 -65.5 -33 -92.5s-48.333 -47.833 -81 -62.5s-65.834 -25.5 -99.501 -32.5s-66.5 -10.5 -98.5 -10.5
c-48 0 -97.333 5 -148 15c-108.667 24.667 -163 49.667 -163 75c0 4.66699 2.33301 8.83398 7 12.501s10 5.5 16 5.5c5.33301 0 18.666 -5.66699 39.999 -17v-1c14 -8.66699 27 -15.334 39 -20.001c65.333 -24 134.666 -36 207.999 -36c40 0 79.5 5.66699 118.5 17
s72.833 29.333 101.5 54s43 53 43 85c0 15.333 -3.83301 29.666 -11.5 42.999s-16.834 24.666 -27.501 33.999s-25.5 18 -44.5 26s-35.333 14.333 -49 19s-32.5 9.5 -56.5 14.5s-41.333 8.33301 -52 10l-48 7.5c-10 1.33301 -22.333 3.33301 -37 6
c-20 4 -36.5 7.5 -49.5 10.5s-30.667 7.66699 -53 14s-41 13.666 -56 21.999s-30.167 18 -45.5 29s-26.833 24.5 -34.5 40.5s-11.5 33.333 -11.5 52c0 18 3.33301 34 10 48c25.333 50.667 66.166 87.5 122.499 110.5s118.833 34.5 187.5 34.5c60 0 122.333 -7.66699 187 -23
s97 -35 97 -59c0 -4.66699 -2.33301 -8.83398 -7 -12.501s-10.334 -5.5 -17.001 -5.5c-4.66699 0 -8.33398 0.666992 -11.001 2h-1c-73.333 42.667 -157 64 -251 64c-23.333 0 -49.333 -2.83301 -78 -8.5s-58 -14.167 -88 -25.5s-55 -28 -75 -50s-30 -47 -30 -75
c0 -14 3.33301 -27 10 -39s14.5 -22.167 23.5 -30.5s22.167 -16.5 39.5 -24.5s32.333 -14.167 45 -18.5s30.834 -9.16602 54.501 -14.499s41.334 -9 53.001 -11l53.5 -9c8 -2 18.833 -4 32.5 -6s23.5 -3.66699 29.5 -5z" />
    <glyph glyph-name="T" unicode="T" horiz-adv-x="749" 
d="M669 668c10.667 -2.66699 15.998 -8.00098 15.998 -16.001c0 -10.667 -5.33301 -16.667 -16 -18c-101.333 17.333 -191.666 27.333 -270.999 30l-23 -21v-626c0 -11.333 -7.66699 -17 -23 -17c-16 0 -24 5.66699 -24 17v626l-23 21
c-95.333 -3.33301 -184 -13.333 -266 -30h1v-1h-2c-4 0 -7.5 1.83301 -10.5 5.5s-4.5 7.83398 -4.5 12.501c0 8 5.66699 13.333 17 16c82.667 14 142.834 22.833 180.501 26.5s80.5 5.5 128.5 5.5c88 0 194.667 -10.333 320 -31z" />
    <glyph glyph-name="U" unicode="U" horiz-adv-x="780" 
d="M669 239c-20 -72 -57.498 -131.499 -112.498 -178.499s-118.167 -70.5 -189.5 -70.5c-64 0 -120.667 18.667 -170 56s-85.666 82.666 -108.999 135.999s-35 108.666 -35 165.999v336c0 5.33301 2.5 9.5 7.5 12.5s10.5 4.5 16.5 4.5s11.5 -1.5 16.5 -4.5
s7.5 -7.16699 7.5 -12.5v-311c0 -55.333 8 -105.5 24 -150.5s36.833 -81.167 62.5 -108.5s54 -48.166 85 -62.499s62.833 -21.5 95.5 -21.5c41.333 0 78.166 7.83301 110.499 23.5s58.166 35.334 77.499 59.001s35.166 51 47.499 82s20.833 60.333 25.5 88s7 54.5 7 80.5
v321c0 11.333 8.33301 17 25 17c5.33301 0 10.5 -1.5 15.5 -4.5s7.5 -7.16699 7.5 -12.5v-311c0 -52.667 -5 -97.334 -15 -134.001z" />
    <glyph glyph-name="V" unicode="V" horiz-adv-x="714" 
d="M602 684c4.66699 9.33301 12.667 14 24 14c16.667 0 25 -5 25 -15c0 -0.666992 -0.333008 -1.66699 -1 -3v-2l-295 -672c-2 -4 -8.66699 -6 -20 -6s-18 2 -20 6l-294 675v4c0 8.66699 7.33301 13 22 13c12.667 0 21.667 -5 27 -15l246 -563h38z" />
    <glyph glyph-name="W" unicode="W" horiz-adv-x="1000" 
d="M889 683l-0.000976562 -366.001c0 -73.333 -5.66699 -130 -17 -170c-16 -52.667 -41.5 -91.667 -76.5 -117s-74.833 -38.666 -119.5 -39.999h-7c-36 0 -69.5 8.66699 -100.5 26s-55.167 41.333 -72.5 72l-37 -1c-15.333 -31.333 -38.666 -54.833 -69.999 -70.5
s-65 -24.5 -101 -26.5h-5c-142.667 0 -214 106.333 -214 319v374c0 5.33301 2.5 9.5 7.5 12.5s10.5 4.5 16.5 4.5s11.5 -1.5 16.5 -4.5s7.5 -7.16699 7.5 -12.5v-389c0 -95.333 15.667 -164.166 47 -206.499s71.666 -63.5 120.999 -63.5c32 0 59.833 7.66699 83.5 23
s41.334 35.666 53.001 60.999s20.167 50.833 25.5 76.5s8 52.5 8 80.5v418c0 5.33301 2.5 9.5 7.5 12.5s10.167 4.5 15.5 4.5c16.667 0 25 -5.66699 25 -17v-414c0 -82 16 -143.333 48 -184s72 -61 120 -61c23.333 0 44 3.5 62 10.5s32.833 15.833 44.5 26.5
s21.834 24.5 30.501 41.5s15 32.667 19 47s7.16699 32 9.5 53s3.66602 37.667 3.99902 50s0.5 27.5 0.5 45.5v385c0 5.33301 2.5 9.5 7.5 12.5s10.167 4.5 15.5 4.5c16.667 0 25 -5.66699 25 -17z" />
    <glyph glyph-name="X" unicode="X" horiz-adv-x="758" 
d="M560 275c75.333 -73.333 113.001 -159.67 113.001 -259.003c0 -10.667 -7.66699 -16 -23 -16c-6 0 -11.5 1.5 -16.5 4.5s-7.5 7.16699 -7.5 12.5c0 88.667 -28 161.834 -84 219.501s-117.667 86.5 -185 86.5c-71.333 0 -130.333 -25.5 -177 -76.5
s-75.334 -110.5 -86.001 -178.5c-0.666992 -2.66699 -1.16699 -7 -1.5 -13s-0.5 -10.333 -0.5 -13v-1c-0.666992 -9.33301 -1.5 -16.333 -2.5 -21s-3.33301 -9.16699 -7 -13.5s-8.83398 -6.5 -15.501 -6.5c-6 0 -11.5 1.5 -16.5 4.5s-7.5 7.16699 -7.5 12.5
c0 62.667 15.667 121.834 47 177.501s74.666 97.834 129.999 126.501l1 39c-56.667 30.667 -100.667 75.667 -132 135s-47 122 -47 188c0 5.33301 2.5 9.5 7.5 12.5s10.5 4.5 16.5 4.5s11.5 -1.5 16.5 -4.5s7.5 -7.16699 7.5 -12.5c0 -36 5.83301 -72.667 17.5 -110
s28.334 -72.333 50.001 -105s50 -59.334 85 -80.001s73.167 -31 114.5 -31c38.667 0 74.167 8.33301 106.5 25s58.833 38.5 79.5 65.5s37.5 55.167 50.5 84.5s22.5 59.333 28.5 90v1c0.666992 4.66699 1 12.667 1 24c0.666992 10 1.16699 16.667 1.5 20
s1.33301 8.33301 3 15s4.33398 11.334 8.00098 14.001s8.16699 4 13.5 4c15.333 0 23 -5.66699 23 -17c0 -67.333 -15.5 -130.5 -46.5 -189.5s-74.5 -104.167 -130.5 -135.5v-37c25.333 -12.667 47 -28 65 -46z" />
    <glyph glyph-name="Y" unicode="Y" horiz-adv-x="778" 
d="M660 701c5.33301 0 10.5 -1.5 15.5 -4.5s7.5 -7.16699 7.5 -12.5c0 -79.333 -23.333 -153.5 -70 -222.5s-107 -110.5 -181 -124.5l-24 -4l-17 -21v-295c0 -11.333 -7.66699 -17 -23 -17c-16 0 -24 5.66699 -24 17v295l-18 21
c-84.667 12.667 -151.334 53.5 -200.001 122.5s-73 145.167 -73 228.5c0 5.33301 2.5 9.5 7.5 12.5s10.167 4.5 15.5 4.5c16.667 0 25 -5.66699 25 -17c0 -49.333 9.83301 -97.833 29.5 -145.5s50.5 -88.667 92.5 -123s90.333 -51.5 145 -51.5
c78.667 0 142.834 32.333 192.501 97s74.5 139 74.5 223c0 11.333 8.33301 17 25 17z" />
    <glyph glyph-name="Z" unicode="Z" horiz-adv-x="717" 
d="M103 82l10 -35.999c64.667 -14.667 133.667 -22 207 -22c72.667 0 147.667 7 225 21l2 1c39.333 9.33301 65.666 17 78.999 23h2c8.66699 0 14 -4 16 -12l1 -2v-3c0 -8.66699 -3.66699 -14 -11 -16h-1c-74.667 -28 -177.334 -43.333 -308.001 -46
c-117.333 0 -211.333 14 -282 42l-7 1l3 1c-1.33301 0.666992 -2.16602 1.16699 -2.49902 1.5s-1.16602 0.833008 -2.49902 1.5h-1c-8 4 -12 9 -12 15c0 2.66699 2.33301 7 7 13l542 549l-11 36c-64.667 14 -135.667 21 -213 21c-84.667 0 -158.667 -6.66699 -222 -20
c-24 -4 -48.333 -11 -73 -21l-2 -1h-3c-8.66699 0 -14 3 -16 9c-0.666992 2 -1 4.33301 -1 7c0 7.33301 3.66699 13 11 17c33.333 11.333 62.666 19.333 87.999 24h1c68 12.667 142 19 222 19c104.667 0 198.334 -13.333 281.001 -40l11 -5
c6.66699 -3.33301 10 -8.33301 10 -15c0 -4.66699 -2 -8.33398 -6 -11.001l-1 -1zM629 70.001c-0.666992 -0.666992 -1.33301 -1 -2 -1c0.666992 0 1 0.166992 1 0.5s0.333008 0.5 1 0.5zM627.001 69.001h-1h1z" />
    <glyph glyph-name="bracketleft" unicode="[" horiz-adv-x="298" 
d="M121 -85h95c6.66699 0 12.334 -2.5 17.001 -7.5s7 -10.5 7 -16.5c0 -6.66699 -2.33301 -12.334 -7 -17.001s-10.334 -7 -17.001 -7h-140c-6.66699 0 -12.334 2.33301 -17.001 7s-7 10.334 -7 17.001v897c0 6.66699 2.33301 12.334 7 17.001s10.334 7 17.001 7h147
c6 0 11.333 -2.33301 16 -7s7 -10.334 7 -17.001s-2.33301 -12.167 -7 -16.5s-10 -6.5 -16 -6.5h-102l-21 -22v-807z" />
    <glyph glyph-name="backslash" unicode="\" horiz-adv-x="557" 
d="M448 -34l-414 774.999c-0.666992 0.666992 -1 2.33398 -1 5.00098c0 9.33301 7 14 21 14c11.333 0 20 -4.66699 26 -14l412 -771l1 3l2 -10c0.666992 -0.666992 1 -1.66699 1 -3c0 -9.33301 -7 -14 -21 -14c-12.667 0 -21.667 5 -27 15z" />
    <glyph glyph-name="bracketright" unicode="]" horiz-adv-x="299" 
d="M82 -85h95l21 21v807l-21 22h-102c-6 0 -11.333 2.16699 -16 6.5s-7 9.83301 -7 16.5s2.33301 12.334 7 17.001s10 7 16 7h147c6.66699 0 12.334 -2.33301 17.001 -7s7 -10.334 7 -17.001v-897c0 -6.66699 -2.33301 -12.334 -7 -17.001s-10.334 -7 -17.001 -7h-140
c-6.66699 0 -12.334 2.33301 -17.001 7s-7 10.334 -7 17.001c0 6 2.33301 11.5 7 16.5s10.334 7.5 17.001 7.5z" />
    <glyph glyph-name="asciicircum" unicode="^" horiz-adv-x="495" 
d="M258 733l157.999 -364v-3l1 -1c0 -12 -8.66699 -18 -26 -18c-11.333 0 -18.666 5 -21.999 15l-1 1l-85 195l-28 67l-5 9l-38 1l-130 -275c-6.66699 -11.333 -14.667 -17 -24 -17c-16.667 0 -25 6 -25 18l91 192l37 78l48 101v1c5.33301 10.667 13.333 16 24 16
c11.333 0 19.333 -4.66699 24 -14z" />
    <glyph glyph-name="underscore" unicode="_" horiz-adv-x="634" 
d="M543 -102c16 0 24 -5.66699 24 -17c0 -5.33301 -2.5 -9.66602 -7.5 -12.999s-10.5 -5 -16.5 -5h-497c-6 0 -11.5 1.66699 -16.5 5s-7.5 7.66602 -7.5 12.999s2.5 9.5 7.5 12.5s10.5 4.5 16.5 4.5h497z" />
    <glyph glyph-name="grave" unicode="`" horiz-adv-x="222" 
d="M84 729l94.999 -95.998c6 -6 9 -11.333 9 -16c0 -6 -3.66699 -9 -11 -9c-5.33301 0 0 -7 16 -21c2.66699 -2.66699 5.66699 -5.33398 9 -8.00098h-56l15 36l-95 97c-5.33301 5.33301 -8 10.666 -8 15.999s3 8 9 8c6.66699 0 12.334 -2.33301 17.001 -7z" />
    <glyph glyph-name="a" unicode="a" horiz-adv-x="594" 
d="M273 410c55.333 0 105.5 -19.832 150.5 -59.499s67.5 -87.167 67.5 -142.5v-78c0 -20 0.666992 -34 2 -42l1 -1c5.33301 -20.667 18.333 -39.667 39 -57c12.667 -11.333 19 -19 19 -23c0 -4.66699 -2.5 -8.66699 -7.5 -12s-10.5 -5 -16.5 -5
c-3.33301 0 -8.33301 1.33301 -15 4l-1 1c-24 9.33301 -41.667 26.666 -53 51.999l-34 6c-44 -42 -97 -63 -159 -63c-61.333 0 -114 19.667 -158 59s-66 88.333 -66 147c0 45.333 12.167 84.833 36.5 118.5s53.5 58 87.5 73s69.667 22.5 107 22.5zM266 24.001
c46.667 0 87.667 16.833 123 50.5s53 75.5 53 125.5c0 57.333 -19 101.166 -57 131.499s-77.667 45.5 -119 45.5c-56 0 -99.333 -18.667 -130 -56s-46 -77.666 -46 -120.999c0 -48 17.333 -89.333 52 -124s76 -52 124 -52z" />
    <glyph glyph-name="b" unicode="b" horiz-adv-x="587" 
d="M387 384l0.000976562 -0.99707c34 -18.667 61.667 -44.334 83 -77.001s32 -68.334 32 -107.001c0 -58.667 -22.667 -108.167 -68 -148.5s-97.333 -60.5 -156 -60.5c-64 0 -117.5 20.667 -160.5 62s-64.5 90.666 -64.5 147.999v483c0 5.33301 2.5 9.5 7.5 12.5
s10.5 4.5 16.5 4.5s11.5 -1.5 16.5 -4.5s7.5 -7.16699 7.5 -12.5v-331l37 -14c41.333 47.333 92 71 152 71c35.333 0 67.666 -8.33301 96.999 -25zM277.001 24.0029c46 0 86.834 16.833 122.501 50.5s53.5 75.167 53.5 124.5c0 54 -18.333 97.167 -55 129.5
s-77.667 48.5 -123 48.5c-50.667 0 -92.334 -17.667 -125.001 -53s-49 -78 -49 -128s18.333 -91.167 55 -123.5s77 -48.5 121 -48.5z" />
    <glyph glyph-name="c" unicode="c" horiz-adv-x="506" 
d="M425 75l0.999023 -0.999023c4 -2 6 -5 6 -9c0 -5.33301 -2.33301 -9.33301 -7 -12l-1 -1c-15.333 -14.667 -32.333 -26.667 -51 -36c-33.333 -17.333 -69.333 -26 -108 -26c-56 0 -107.167 20 -153.5 60s-69.5 89.333 -69.5 148c0 61.333 23 113 69 155
c43.333 37.333 95 56 155 56c61.333 0 113.333 -19.333 156 -58c4 -5.33301 6 -9.33301 6 -12c0 -4.66699 -1.66699 -8 -5 -10c-4.66699 -4.66699 -11 -7 -19 -7c-6.66699 0 -12.334 2.33301 -17.001 7c-3.33301 3.33301 -7.66602 6.83301 -12.999 10.5
s-8.66602 6.16699 -9.99902 7.5l-1 1c-29.333 19.333 -61.333 29 -96 29c-46 0 -86.833 -17.167 -122.5 -51.5s-53.5 -75.5 -53.5 -123.5c0 -64.667 26 -114.334 78 -149.001c27.333 -19.333 59.333 -29 96 -29c36 0 68.667 9.66699 98 29l1 1c10.667 8 19 15 25 21
c4 4.66699 9.66699 7 17 7c8.66699 0 15 -2.33301 19 -7z" />
    <glyph glyph-name="d" unicode="d" horiz-adv-x="587" 
d="M157 383l0.000976562 0.99707c29.333 16.667 62 25 98 25c59.333 0 109.666 -23.667 150.999 -71l37 14v331c0 5.33301 2.5 9.5 7.5 12.5s10.5 4.5 16.5 4.5s11.5 -1.5 16.5 -4.5s7.5 -7.16699 7.5 -12.5v-483c0 -57.333 -21.5 -106.666 -64.5 -147.999
s-96.5 -62 -160.5 -62c-58.667 0 -110.667 20.167 -156 60.5s-68 89.833 -68 148.5c0 38.667 10.667 74.334 32 107.001s49 58.334 83 77.001zM267.001 23.9971c44 0 84.334 16.167 121.001 48.5s55 73.5 55 123.5s-16.333 92.667 -49 128s-74.334 53 -125.001 53
c-45.333 0 -86.333 -16.167 -123 -48.5s-55 -75.5 -55 -129.5c0 -49.333 17.833 -90.833 53.5 -124.5s76.5 -50.5 122.5 -50.5z" />
    <glyph glyph-name="e" unicode="e" horiz-adv-x="532" 
d="M436 120c5.33301 0 10.334 -1.82812 15.001 -5.49512s7 -7.83398 7 -12.501c0 -2.66699 -0.666992 -5.33398 -2 -8.00098c-20.667 -31.333 -48.834 -56.5 -84.501 -75.5s-72.167 -28.5 -109.5 -28.5c-46.667 0 -89.5 13.167 -128.5 39.5s-66.833 63.166 -83.5 110.499
c-5.33301 19.333 -8 37.666 -8 54.999c0 57.333 21.5 107.5 64.5 150.5s92.833 64.5 149.5 64.5c15.333 0 30.5 -1 45.5 -3s31.333 -6 49 -12s32 -16 43 -30s16.5 -31 16.5 -51c0 -28.667 -15.833 -56.834 -47.5 -84.501s-67.834 -50 -108.501 -67s-80 -28.833 -118 -35.5
l-12 -35l10 -10c32 -38 75 -57 129 -57c22.667 0 43.667 4 63 12s33.333 15.667 42 23s19.334 18 32.001 32c17.333 18.667 29.333 28 36 28zM260.001 377.005c-44.667 0 -84.333 -19 -119 -57s-52 -81 -52 -129v-6c0 -1.33301 0.166992 -2.5 0.5 -3.5
s0.5 -1.83301 0.5 -2.5l25 -21c44 7.33301 88 21.5 132 42.5s78.333 47.833 103 80.5c6.66699 6.66699 10 16 10 28c0 45.333 -33.333 68 -100 68z" />
    <glyph glyph-name="f" unicode="f" horiz-adv-x="259" 
d="M193 410c16 0 24 -5.66504 24 -16.998c0 -10.667 -8 -16 -24 -16h-71l-21 -22v-558c0 -5.33301 -2.5 -9.66602 -7.5 -12.999s-10.833 -5 -17.5 -5c-5.33301 0 -10.5 1.66699 -15.5 5s-7.5 7.66602 -7.5 12.999v675c0 66.667 21.333 121.334 64 164.001s96.667 64 162 64
c14.667 0 22 -5.66699 22 -17c0 -5.33301 -2.5 -9.5 -7.5 -12.5s-10.5 -4.5 -16.5 -4.5h-1c-36.667 -2.66699 -67.5 -10.834 -92.5 -24.501s-43 -30.834 -54 -51.501s-18.5 -39.834 -22.5 -57.501s-6 -36.5 -6 -56.5v-44l21 -22h71z" />
    <glyph glyph-name="g" unicode="g" horiz-adv-x="585" 
d="M379 383c34 -19.333 61 -44.832 81 -76.499s30 -67.167 30 -106.5v-189c0 -72 -24.333 -128.5 -73 -169.5s-107.667 -61.5 -177 -61.5c-10 0 -29 2 -57 6c-26 4 -53.667 12.5 -83 25.5s-44 26.833 -44 41.5c0 12 8.66699 18 26 18c4.66699 0 9.66699 -2 15 -6
c34 -34 81 -51 141 -51c66.667 0 117.5 18.5 152.5 55.5s52.5 84.5 52.5 142.5v18c0 2 -0.166992 5 -0.5 9s-0.5 7.33301 -0.5 10l-38 13c-32.667 -44.667 -77.667 -68.667 -135 -72h-3c-60 0 -112.333 20.167 -157 60.5s-67 89.166 -67 146.499c0 60 22.333 110.5 67 151.5
s97 61.5 157 61.5c44 0 81.667 -9 113 -27zM442 205.001c0 25.333 -4.5 48.3359 -13.5 69.0029s-20 37.167 -33 49.5s-27.833 22.666 -44.5 30.999s-32 14.166 -46 17.499s-27 5 -39 5c-50.667 0 -92.834 -17.833 -126.501 -53.5s-50.5 -76.834 -50.5 -123.501
c0 -47.333 17.833 -88.5 53.5 -123.5s77.834 -52.5 126.501 -52.5c48 0 88.833 17.833 122.5 53.5s50.5 78.167 50.5 127.5z" />
    <glyph glyph-name="h" unicode="h" horiz-adv-x="590" 
d="M484 270v-0.999023c6.66699 -20.667 10 -46 10 -76v-176c0 -11.333 -7.66699 -17 -23 -17c-16 0 -24 5.66699 -24 17v181c0 59.333 -18 104.5 -54 135.5s-77 46.5 -123 46.5c-40.667 0 -76.167 -13.333 -106.5 -40s-50.833 -60.667 -61.5 -102l-1 -6v-215
c0 -5.33301 -2.5 -9.5 -7.5 -12.5s-10.5 -4.5 -16.5 -4.5s-11.5 1.5 -16.5 4.5s-7.5 7.16699 -7.5 12.5v666c0 5.33301 2.5 9.5 7.5 12.5s10.5 4.5 16.5 4.5s11.5 -1.5 16.5 -4.5s7.5 -7.16699 7.5 -12.5v-323l36 -15c43.333 44.667 87 67.667 131 69h5
c46 0 89 -13.333 129 -40s67.333 -61.334 82 -104.001z" />
    <glyph glyph-name="i" unicode="i" horiz-adv-x="203" 
d="M150 32c6.66699 -3.33301 10 -8.66504 10 -15.998c0 -10.667 -7.33301 -16 -22 -16c-6 0 -11 1 -15 3c-21.333 9.33301 -37.5 23.166 -48.5 41.499s-17.333 34.666 -19 48.999s-2.5 33.5 -2.5 57.5v241c0 5.33301 2.5 9.5 7.5 12.5s10.5 4.5 16.5 4.5
s11.5 -1.5 16.5 -4.5s7.5 -7.16699 7.5 -12.5v-251c0 -56.667 16.333 -93 49 -109zM77 543.001c-16 0 -24 6 -24 18c0 5.33301 2.5 9.5 7.5 12.5s10.5 4.5 16.5 4.5s11.5 -1.5 16.5 -4.5s7.5 -7.16699 7.5 -12.5c0 -12 -8 -18 -24 -18z" />
    <glyph glyph-name="j" unicode="j" horiz-adv-x="196" 
d="M101 392l-0.000976562 -379c0 -24.667 -1.33301 -44.334 -4 -59.001c-9.33301 -47.333 -33.666 -87 -72.999 -119c-42 -34 -91 -51 -147 -51c-16 0 -24 5.66699 -24 17c0 4.66699 2.5 8.66699 7.5 12s10.5 5 16.5 5c9.33301 0 16 0.333008 20 1c23.333 2 48.333 11 75 27
l3 1c25.333 18.667 45.333 41.334 60 68.001c12 21.333 18 54 18 98v379c0 12 8 18 24 18s24 -6 24 -18zM76.999 544c-6 0 -11.5 1.5 -16.5 4.5s-7.5 7.16699 -7.5 12.5c0 12 8 18 24 18s24 -6 24 -18c0 -5.33301 -2.5 -9.5 -7.5 -12.5s-10.5 -4.5 -16.5 -4.5z" />
    <glyph glyph-name="k" unicode="k" horiz-adv-x="512" 
d="M424 35l-1.99902 0.998047c11.333 -2 17 -8 17 -18v-3c-2.66699 -8.66699 -10.334 -13 -23.001 -13c-24.667 2 -46.334 12.5 -65.001 31.5s-32.667 42.5 -42 70.5c-0.666992 2.66699 -2 6.66699 -4 12s-3.33301 9.33301 -4 12v1c-8 28.667 -17.333 55.334 -28 80.001
c-12 26.667 -29 43.667 -51 51l-20 -3l-92 -68l-8 -17v-155c0 -5.33301 -2.5 -9.5 -7.5 -12.5s-10.5 -4.5 -16.5 -4.5s-11.5 1.5 -16.5 4.5s-7.5 7.16699 -7.5 12.5v666c0 5.33301 2.5 9.5 7.5 12.5s10.5 4.5 16.5 4.5s11.5 -1.5 16.5 -4.5s7.5 -7.16699 7.5 -12.5v-409
l34 -17l213 158c7.33301 4.66699 14 7 20 7c7.33301 0 13 -2 17 -6c3.33301 -3.33301 5 -7.33301 5 -12c0 -4 -1.33301 -7 -4 -9l-115 -86l1 -35c12.667 -10 24 -21.333 34 -34c11.333 -17.333 19.333 -34.666 24 -51.999c7.33301 -23.333 11.333 -36 12 -38
c6.66699 -26 14.334 -48 23.001 -66c12.667 -28 32 -44.333 58 -49z" />
    <glyph glyph-name="l" unicode="l" horiz-adv-x="203" 
d="M146 33l6 -3c5.33301 -2 8 -6.33301 8 -13c0 -2 -1 -5 -3 -9c-4.66699 -5.33301 -11.667 -8 -21 -8c-6.66699 0 -11.334 0.666992 -14.001 2c-32 14 -53 39 -63 75c-4 16.667 -6 44.667 -6 84v522c0 5.33301 2.5 9.5 7.5 12.5s10.167 4.5 15.5 4.5
c16.667 0 25 -5.66699 25 -17v-540c0 -26 2.83301 -47.167 8.5 -63.5s17.834 -31.833 36.501 -46.5z" />
    <glyph glyph-name="m" unicode="m" horiz-adv-x="833" 
d="M714 0c-16.667 0 -25.002 5.66699 -25.002 17v173c0 27.333 -4.5 54.833 -13.5 82.5s-24.167 52.167 -45.5 73.5s-46.666 32 -75.999 32c-31.333 0 -59 -12.333 -83 -37s-41 -58.667 -51 -102v-2c-1.33301 -15.333 -2 -38.666 -2 -69.999v-150
c0 -5.33301 -2.5 -9.5 -7.5 -12.5s-10.167 -4.5 -15.5 -4.5c-16.667 0 -25 5.66699 -25 17v187c0 40.667 -12.333 79.667 -37 117s-57.334 56 -98.001 56c-28.667 0 -53.167 -9 -73.5 -27s-34.166 -36.333 -41.499 -55s-12.666 -37.334 -15.999 -56.001
c-2 -15.333 -3 -39 -3 -71v-151c0 -5.33301 -2.5 -9.5 -7.5 -12.5s-10.5 -4.5 -16.5 -4.5s-11.5 1.5 -16.5 4.5s-7.5 7.16699 -7.5 12.5v145c0 44 4.33301 82.333 13 115s26.667 62 54 88c32 30 69.667 45 113 45c50 0 95 -22 135 -66l10 -11l32 1c38 50.667 86 76 144 76
c50 0 93 -20.5 129 -61.5s54 -89.5 54 -145.5v-186c0 -5.33301 -2.5 -9.5 -7.5 -12.5s-10.167 -4.5 -15.5 -4.5z" />
    <glyph glyph-name="n" unicode="n" 
d="M53 17v187.002c0.666992 58 22 106.833 64 146.5s90 59.5 144 59.5c58 0 106.167 -21.333 144.5 -64s57.5 -93 57.5 -151v-178c0 -11.333 -8 -17 -24 -17c-15.333 0 -23 5.66699 -23 17v144c0 62 -13.167 113.5 -39.5 154.5s-65.833 61.5 -118.5 61.5
c-32 0 -59 -7.16699 -81 -21.5s-38.167 -33.333 -48.5 -57s-17.5 -46.334 -21.5 -68.001s-6 -43.834 -6 -66.501v-147c0 -5.33301 -2.5 -9.5 -7.5 -12.5s-10.5 -4.5 -16.5 -4.5s-11.5 1.5 -16.5 4.5s-7.5 7.16699 -7.5 12.5z" />
    <glyph glyph-name="o" unicode="o" horiz-adv-x="576" 
d="M273 410c56.667 0 107.167 -20.3311 151.5 -60.998s66.5 -89.334 66.5 -146.001c0 -60.667 -22.5 -111.334 -67.5 -152.001s-97.5 -61 -157.5 -61c-61.333 0 -114 19.667 -158 59s-66 88.333 -66 147c0 45.333 12.167 84.833 36.5 118.5s53.5 58 87.5 73
s69.667 22.5 107 22.5zM266 24.002c46.667 0 87.667 16.833 123 50.5s53 75.5 53 125.5c0 57.333 -19 101.166 -57 131.499s-77.667 45.5 -119 45.5c-56 0 -99.333 -18.667 -130 -56s-46 -77.666 -46 -120.999c0 -48 17.333 -89.333 52 -124s76 -52 124 -52z" />
    <glyph glyph-name="p" unicode="p" horiz-adv-x="587" 
d="M387 17v-0.999023c-30.667 -17.333 -63 -26 -97 -26c-60 0 -110.667 24 -152 72l-37 -14v-251c0 -4.66699 -2.5 -8.66699 -7.5 -12s-10.5 -5 -16.5 -5s-11.5 1.66699 -16.5 5s-7.5 7.33301 -7.5 12v402c0 58 21.5 107.5 64.5 148.5s96.5 61.5 160.5 61.5
c58.667 0 110.667 -20.167 156 -60.5s68 -89.833 68 -148.5c0 -38 -10.667 -73.333 -32 -106s-49 -58.334 -83 -77.001zM277 375.001c-44 0 -84.334 -15.999 -121.001 -47.999s-55 -73 -55 -123s16.333 -92.667 49 -128s74.334 -53 125.001 -53
c45.333 0 86.333 16.167 123 48.5s55 75.166 55 128.499c0 50 -17.833 91.667 -53.5 125s-76.5 50 -122.5 50z" />
    <glyph glyph-name="q" unicode="q" horiz-adv-x="587" 
d="M157 17l-0.000976562 0.998047c-34 18.667 -61.667 44.334 -83 77.001s-32 68.334 -32 107.001c0 58.667 22.667 108 68 148s97.333 60 156 60c64 0 117.5 -20.5 160.5 -61.5s64.5 -90.5 64.5 -148.5v-403c0 -4.66699 -2.5 -8.66699 -7.5 -12s-10.5 -5 -16.5 -5
s-11.5 1.66699 -16.5 5s-7.5 7.33301 -7.5 12v252l-37 14c-41.333 -47.333 -91.666 -71 -150.999 -71c-36 0 -68.667 8.33301 -98 25zM266.999 376.998c-46 0 -86.834 -16.833 -122.501 -50.5s-53.5 -75.167 -53.5 -124.5c0 -54 18.333 -97.167 55 -129.5
s77.667 -48.5 123 -48.5c50.667 0 92.334 17.667 125.001 53s49 78 49 128s-18.333 91.167 -55 123.5s-77 48.5 -121 48.5z" />
    <glyph glyph-name="r" unicode="r" horiz-adv-x="344" 
d="M277 413c6 0 11.5 -1.66797 16.5 -5.00098s7.5 -7.33301 7.5 -12c0 -5.33301 -2.5 -9.5 -7.5 -12.5s-10.5 -4.5 -16.5 -4.5c-30.667 0 -62.667 -9.66699 -96 -29l-2 -1c-27.333 -20.667 -47.333 -43.667 -60 -69v-1c-12 -25.333 -18 -62.666 -18 -111.999v-150
c0 -5.33301 -2.5 -9.5 -7.5 -12.5s-10.5 -4.5 -16.5 -4.5s-11.5 1.5 -16.5 4.5s-7.5 7.16699 -7.5 12.5v181c0 66 25.667 120.333 77 163c42.667 34.667 91.667 52 147 52z" />
    <glyph glyph-name="s" unicode="s" horiz-adv-x="469" 
d="M372 147l1.99902 -2.00098c6.66699 -8.66699 10 -21.667 10 -39c0 -10 -2.33301 -20.333 -7 -31c-14 -30.667 -36.667 -52 -68 -64c-31.333 -14 -64.333 -21 -99 -21c-64.667 0 -116.667 9 -156 27l-1 1c-5.33301 2 -8 6.33301 -8 13c0 2 1 4.33301 3 7
c4 6.66699 10.667 10 20 10c5.33301 0 10.333 -1 15 -3l1 -2c38.667 -14 77 -21 115 -21c28 0 52.333 4 73 12c15.333 4.66699 29.5 13.667 42.5 27s19.5 29 19.5 47c0 22.667 -17.667 42.334 -53 59.001l-2 1c-15.333 4.66699 -39 10.667 -71 18
c-34.667 6.66699 -60 13 -76 19h-2c-56 20 -85.333 49.333 -88 88c0 29.333 13.333 54.333 40 75l1 1c32.667 27.333 78.334 41 137.001 41c48 0 91.333 -8.33301 130 -25l1 -1c6 -2.66699 9 -6.66699 9 -12c0 -1.33301 -1.33301 -4 -4 -8v-1
c-2.66699 -5.33301 -8 -8 -16 -8c-12 0 -30 3.33301 -54 10c-40 8.66699 -64.333 13 -73 13c-24 0 -50.333 -7.16699 -79 -21.5s-43 -34.166 -43 -59.499c0 -13.333 4.66699 -25 14 -35s24 -18.833 44 -26.5s36.833 -13.334 50.5 -17.001s33.5 -8.16699 59.5 -13.5
c41.333 -10.667 64 -16.667 68 -18c21.333 -10.667 36.333 -24 45 -40z" />
    <glyph glyph-name="t" unicode="t" horiz-adv-x="260" 
d="M193 410c16 0 24 -5.66797 24 -17.001c0 -10.667 -8 -16 -24 -16h-71l-21 -22v-215c0 -63.333 15.333 -99.333 46 -108c8.66699 -3.33301 13 -8.66602 13 -15.999c0 -1.33301 -1 -4 -3 -8c-3.33301 -5.33301 -10 -8 -20 -8c-7.33301 0 -12.333 0.666992 -15 2
c-46 18.667 -69 60 -69 124v435c0 5.33301 2.5 9.5 7.5 12.5s10.167 4.5 15.5 4.5c16.667 0 25 -5.66699 25 -17v-129l21 -22h71z" />
    <glyph glyph-name="u" unicode="u" 
d="M463 392l0.000976562 -198.001c0 -53.333 -20.333 -100.666 -61 -141.999s-87.334 -62 -140.001 -62h-6c-47.333 0 -89.333 15.667 -126 47l-1 1c-50.667 40 -76 96 -76 168v186c0 5.33301 2.5 9.5 7.5 12.5s10.5 4.5 16.5 4.5s11.5 -1.5 16.5 -4.5
s7.5 -7.16699 7.5 -12.5v-175c0 -49.333 13.333 -93.333 40 -132s65.667 -58 117 -58c46.667 0 84.667 17.833 114 53.5s44 79.167 44 130.5v181c0 11.333 7.66699 17 23 17c16 0 24 -5.66699 24 -17z" />
    <glyph glyph-name="v" unicode="v" horiz-adv-x="495" 
d="M407 410c17.333 0 26.001 -6 26.001 -18l-180 -376c-4 -10.667 -12 -16 -24 -16c-12.667 -0 -20.334 4.33301 -23.001 13l-1 3l-180 376c0 12 8.66699 18 26 18c10 0 17.667 -5 23 -15v-2l136 -283h38l140 281c6.66699 12.667 13 19 19 19z" />
    <glyph glyph-name="w" unicode="w" horiz-adv-x="769" 
d="M682 410c15.333 0 23.002 -5.66992 23.002 -17.0029v-195c0 -56 -18 -104.667 -54 -146s-79 -62 -129 -62c-58 0 -105.667 25.667 -143 77l-33 1l-10 -11c-40 -44.667 -84.667 -67 -134 -67c-44 0 -82 15 -114 45c-26.667 26 -44.5 55.333 -53.5 88
s-13.5 71.334 -13.5 116.001v154c0 11.333 8.33301 17 25 17c5.33301 0 10.5 -1.5 15.5 -4.5s7.5 -7.16699 7.5 -12.5v-160c0 -32 1 -55.667 3 -71c2.66699 -13.333 6.5 -26.666 11.5 -39.999s12.333 -28 22 -44s23 -29 40 -39s36.5 -15 58.5 -15
c40.667 0 73.167 18.667 97.5 56s36.5 76.333 36.5 117v196c0 11.333 8.33301 17 25 17c5.33301 0 10.5 -1.5 15.5 -4.5s7.5 -7.16699 7.5 -12.5v-159c0 -31.333 0.666992 -54.666 2 -69.999v-2c10 -43.333 27 -77.333 51 -102s51.667 -37 83 -37
c29.333 0 54.666 10.667 75.999 32s36.666 45.833 45.999 73.5s14 55.167 14 82.5v182c0 11.333 8 17 24 17z" />
    <glyph glyph-name="x" unicode="x" horiz-adv-x="538" 
d="M360 217v-33.999c17.333 -12.667 31.666 -26 42.999 -40h1c32.667 -36.667 49 -82 49 -136c0 -4.66699 -2.5 -8.66699 -7.5 -12s-10.167 -5 -15.5 -5c-6 0 -11.667 1.66699 -17 5s-8 7.33301 -8 12v1c-1.33301 42.667 -17.333 82.334 -48 119.001s-67 55 -109 55
c-42.667 0 -79.667 -18.5 -111 -55.5s-47 -76.833 -47 -119.5c0 -4.66699 -2.5 -8.66699 -7.5 -12s-10.167 -5 -15.5 -5c-6 0 -11.667 1.66699 -17 5s-8 7.33301 -8 12c0 7.33301 1.33301 16 4 26v3c0 0.666992 0.333008 1.66699 1 3l1 2c4 24.667 12.667 49.167 26 73.5
s28.666 43.5 45.999 57.5c6.66699 5.33301 11.334 8.66602 14.001 9.99902l1 36c-14 9.33301 -28.333 22.333 -43 39c-33.333 37.333 -50 82.666 -50 135.999c0 11.333 8.33301 17 25 17c5.33301 0 10.5 -1.5 15.5 -4.5s7.5 -7.16699 7.5 -12.5
c0 -44 14.5 -83.5 43.5 -118.5s66.5 -54.5 112.5 -58.5h3c44 2 81 20.5 111 55.5s45 75.5 45 121.5c0 11.333 8.33301 17 25 17c5.33301 0 10.5 -1.5 15.5 -4.5s7.5 -7.16699 7.5 -12.5c0 -10.667 -1.66699 -25 -5 -43c-9.33301 -50.667 -38.666 -95 -87.999 -133z" />
    <glyph glyph-name="y" unicode="y" horiz-adv-x="582" 
d="M487 11c0 -75.333 -25.165 -132.666 -75.498 -171.999s-108.5 -59 -174.5 -59c-12 0 -31.333 2 -58 6c-26 4 -53.5 12.5 -82.5 25.5s-43.5 26.833 -43.5 41.5c0 5.33301 2.5 9.66602 7.5 12.999s10.5 5 16.5 5c3.33301 0 11.666 -4.66699 24.999 -14
c12 -8.66699 19.667 -14 23 -16c32 -18 68.333 -27 109 -27c40 0 74.333 6.33301 103 19s50 29.667 64 51s23.833 42.666 29.5 63.999s8.5 44 8.5 68l-35 17c-36.667 -29.333 -77.334 -44 -122.001 -44c-58 0 -106.833 21.333 -146.5 64s-59.5 93.334 -59.5 152.001v188
c0 11.333 8.33301 17 25 17c5.33301 0 10.5 -1.5 15.5 -4.5s7.5 -7.16699 7.5 -12.5v-154c0 -71.333 14.833 -125 44.5 -161s67.167 -54 112.5 -54c28 0 52.833 6.33301 74.5 19s38.167 28.5 49.5 47.5s19.833 37.833 25.5 56.5s8.5 36 8.5 52v194
c0 5.33301 2.5 9.5 7.5 12.5s10.5 4.5 16.5 4.5s11.5 -1.5 16.5 -4.5s7.5 -7.16699 7.5 -12.5v-382z" />
    <glyph glyph-name="z" unicode="z" horiz-adv-x="538" 
d="M445 363l-313 -295.999l9 -36c13.333 -3.33301 31 -5.66602 53 -6.99902h5c9.33301 -0.666992 23.666 -1 42.999 -1c70.667 0 131 9 181 27h3c6 0 11 -1 15 -3c7.33301 -2.66699 11 -7.33398 11 -14.001c0 -2 -0.666992 -5 -2 -9c-4.66699 -4.66699 -8 -7 -10 -7l-7 -1
c-19.333 -6.66699 -47.333 -12.667 -84 -18c-40.667 -5.33301 -78 -8 -112 -8c-15.333 0 -39.666 1.33301 -72.999 4h-1c-29.333 2 -55.666 6.33301 -78.999 13h-1c-12 3.33301 -21.667 7 -29 11v1c-8 4 -12 8.66699 -12 14c0 3.33301 2 6.33301 6 9l3 4
c2 2 5.16699 5 9.5 9s7.5 7 9.5 9l1 1l143 133l149 140l-6 35c-4 2.66699 -8.66699 4 -14 4c-26.667 2.66699 -57.334 4 -92.001 4c-62 0 -116 -6 -162 -18c-1.33301 -0.666992 -3.66602 -1 -6.99902 -1c-10.667 0 -18.334 4.33301 -23.001 13c-0.666992 1.33301 -1 3 -1 5
c0 7.33301 3 11.666 9 12.999c88 15.333 151 23 189 23c15.333 0 40.333 -1.33301 75 -4h1c30.667 -3.33301 57.667 -7.66602 81 -12.999c14 -4.66699 23.667 -8.33398 29 -11.001c7.33301 -3.33301 11 -8 11 -14c0 -4 -2 -7.66699 -6 -11h-2z" />
    <glyph glyph-name="braceleft" unicode="{" horiz-adv-x="348" 
d="M243 -32c1.33301 0 2.33789 -0.335938 3.00488 -1.00293h-1c9.33301 -1.33301 14 -6.66602 14 -15.999c0 -11.333 -8.33301 -17 -25 -17h-4l-2 1c-24.667 4.66699 -44.334 15.167 -59.001 31.5s-24.334 33 -29.001 50s-8.33398 38.833 -11.001 65.5l-9 121
c0 0.666992 -0.166992 2 -0.5 4s-0.5 3.66699 -0.5 5v1c-4.66699 87.333 -29 131 -73 131c-4 0 -8.16699 1.5 -12.5 4.5s-6.5 7.16699 -6.5 12.5c0 7.33301 6 13 18 17l20 6l8 5l7 7c19.333 19.333 29.666 55.333 30.999 108v1c0 10 0.333008 17.667 1 23v1l10 132
c11.333 84 46 126 104 126c22 0 33 -5.66699 33 -17c0 -4.66699 -2.33301 -8.66699 -7 -12s-9.33398 -5 -14.001 -5c-9.33301 0 -16 -0.333008 -20 -1c-0.666992 0 -1 -0.166992 -1 -0.5s-0.333008 -0.5 -1 -0.5l-14 -6c-24 -25.333 -36.667 -73.666 -38 -144.999
c0 -2.66699 -0.166992 -6.33398 -0.5 -11.001s-0.5 -8.33398 -0.5 -11.001s-0.166992 -7 -0.5 -13s-0.5 -11 -0.5 -15c-3.33301 -85.333 -16 -141.333 -38 -168l1 -29c17.333 -18 29 -42 35 -72s10 -67.667 12 -113c0 -5.33301 0.166992 -13.166 0.5 -23.499
s0.833008 -18.166 1.5 -23.499v-2c0.666992 -5.33301 1 -11.666 1 -18.999v-1c2.66699 -57.333 13 -95 31 -113l1 -1l7 -6l6 -3l7 -4l2 -1c4 -2 8.66699 -3 14 -3z" />
    <glyph glyph-name="bar" unicode="|" horiz-adv-x="173" 
d="M100 -102c0 -4.66699 -2.5 -8.66699 -7.5 -12s-10.5 -5 -16.5 -5s-11.5 1.66699 -16.5 5s-7.5 7.33301 -7.5 12v851c0 4.66699 2.5 8.66699 7.5 12s10.5 5 16.5 5s11.5 -1.66699 16.5 -5s7.5 -7.33301 7.5 -12v-851z" />
    <glyph glyph-name="braceright" unicode="}" horiz-adv-x="348" 
d="M27 -49c0 9.33301 4.33203 14.6631 12.999 15.9961h-1c0.666992 0.666992 1.66699 1 3 1c4 0 8.66699 1 14 3l2 1l8 4l5 3l7 6l2 1c17.333 18 27.333 55.667 30 113v1c0 7.33301 0.333008 13.666 1 18.999v2c0.666992 5.33301 1.16699 13.166 1.5 23.499
s0.5 18.166 0.5 23.499c2 32 3.83301 56.333 5.5 73s6 36.334 13 59.001s16.5 40.334 28.5 53.001l1 29c-22 26.667 -34.667 82.667 -38 168c0 4 -0.166992 9 -0.5 15s-0.5 10.333 -0.5 13s-0.166992 6.33398 -0.5 11.001s-0.5 8.33398 -0.5 11.001
c-0.666992 22.667 -1.5 40.334 -2.5 53.001s-4.33301 28.334 -10 47.001s-13.834 33.667 -24.501 45l-15 6c-0.666992 0 -1 0.166992 -1 0.5s-0.333008 0.5 -1 0.5c-3.33301 0.666992 -9.66602 1 -18.999 1c-5.33301 0 -10.166 1.66699 -14.499 5s-6.5 7.33301 -6.5 12
c0 11.333 10.667 17 32 17c59.333 0 94 -42 104 -126l10 -132v-1c0.666992 -5.33301 1 -13 1 -23v-1c1.33301 -52.667 12 -88.667 32 -108l6 -7l9 -5l20 -6c12 -4.66699 18 -10.334 18 -17.001c0 -5.33301 -2.16699 -9.5 -6.5 -12.5s-8.5 -4.5 -12.5 -4.5
c-44 0 -68.333 -43.667 -73 -131v-1c0 -1.33301 -0.333008 -3 -1 -5s-1 -3.33301 -1 -4l-9 -121c-2 -19.333 -4.5 -35.666 -7.5 -48.999s-7.83301 -27.5 -14.5 -42.5s-16.5 -27.167 -29.5 -36.5s-28.833 -15.666 -47.5 -18.999l-2 -1h-4c-16 0 -24 5.66699 -24 17z" />
    <glyph glyph-name="asciitilde" unicode="~" horiz-adv-x="540" 
d="M452 404l-0.99707 0.99707c7.33301 -4 11 -11.333 11 -22c0 -2.66699 -1 -6 -3 -10l-24 -34c-16 -22.667 -30.333 -38.834 -43 -48.501s-28.334 -14.5 -47.001 -14.5c-24.667 0 -58.334 17.667 -101.001 53c-33.333 27.333 -58 41 -74 41c-22 0 -37.333 -5.66699 -46 -17
s-15.667 -27.666 -21 -48.999s-14 -32 -26 -32c-6 0 -11.5 2.33301 -16.5 7s-7.5 10.334 -7.5 17.001c0 34.667 10.667 63.667 32 87s47.333 35 78 35c16 0 31.667 -3.33301 47 -10s26.666 -12.667 33.999 -18s18.666 -14.666 33.999 -27.999
c5.33301 -5.33301 13.333 -12.666 24 -21.999l1 -1c16 -9.33301 28 -14 36 -14c12 0 22.833 4.33301 32.5 13s24.834 28 45.501 58c6 8 12.667 12 20 12c5.33301 0 10.333 -1.33301 15 -4z" />
    <glyph glyph-name="exclamdown" unicode="&#xa1;" horiz-adv-x="170" 
d="M97 331v-601c0 -5.33301 -2.5 -9.5 -7.5 -12.5s-10.5 -4.5 -16.5 -4.5s-11.5 1.5 -16.5 4.5s-7.5 7.16699 -7.5 12.5v601c0 5.33301 2.5 9.5 7.5 12.5s10.5 4.5 16.5 4.5s11.5 -1.5 16.5 -4.5s7.5 -7.16699 7.5 -12.5zM73 488c16 0 24 -6 24 -18
c0 -5.33301 -2.5 -9.5 -7.5 -12.5s-10.5 -4.5 -16.5 -4.5s-11.5 1.5 -16.5 4.5s-7.5 7.16699 -7.5 12.5c0 12 8 18 24 18z" />
    <glyph glyph-name="cent" unicode="&#xa2;" horiz-adv-x="532" 
d="M291 -91c0 -5.33301 -2.49707 -9.50195 -7.49707 -12.502s-10.5 -4.5 -16.5 -4.5s-11.5 1.5 -16.5 4.5s-7.5 7.16699 -7.5 12.5v67l-17 21c-48 10 -89.333 33.5 -124 70.5s-52 80.5 -52 130.5c0 62.667 23 114.334 69 155.001c28 25.333 63.667 42.333 107 51l17 21v73
c0 5.33301 2.5 9.5 7.5 12.5s10.5 4.5 16.5 4.5s11.5 -1.5 16.5 -4.5s7.5 -7.16699 7.5 -12.5v-71l18 -21c45.333 -5.33301 85.666 -23.666 120.999 -54.999c4 -5.33301 6 -9.33301 6 -12c0 -4.66699 -1.66699 -8 -5 -10c-6 -4.66699 -12.333 -7 -19 -7
s-12.334 2.33301 -17.001 7c-6.66699 5.33301 -14.667 11.333 -24 18l-2 1c-22.667 12 -34.667 18.333 -36 19h-1c-2.66699 1.33301 -4.33398 1.66602 -5.00098 0.999023c-6.66699 2.66699 -11.667 4 -15 4l-21 -21v-301l26 -20c6.66699 0.666992 12 2.33398 16 5.00098
c8 3.33301 20 9.33301 36 18l2 1c6 4 14.667 11 26 21c4 4.66699 9.66699 7 17 7c8 0 14.333 -2.33301 19 -7l1 -1c3.33301 -2 5 -5 5 -9c0 -4.66699 -2 -8.66699 -6 -12l-1 -1c-15.333 -14.667 -32.333 -26.667 -51 -36c-19.333 -10 -43.333 -17.333 -72 -22l-18 -22v-63z
M177.003 52.998c10.667 -6.66699 17.999 -11.001 21.999 -13.001c2 -4.66699 9.66699 -7 23 -7l21 21v292l-29 20c-7.33301 -2.66699 -19.666 -8.33398 -36.999 -17.001l-2 -2c-50.667 -35.333 -76 -83.666 -76 -144.999c0 -63.333 25.667 -112.666 77 -147.999z
M213.002 34.9971l-13.998 20v-15c1.33301 -0.666992 3.66602 -1.5 6.99902 -2.5s5.66602 -1.83301 6.99902 -2.5z" />
    <glyph glyph-name="sterling" unicode="&#xa3;" horiz-adv-x="578" 
d="M472 32c15.333 0 22.998 -5.00391 22.998 -15.0039c0 -11.333 -7.66699 -17 -23 -17h-387c-15.333 0 -23 5.66699 -23 17c0 6.66699 13.667 23.334 41 50.001l2 1c42 52.667 63 112.334 63 179.001l-22 21h-71c-6 0 -11.5 1.66699 -16.5 5s-7.5 7.33301 -7.5 12
c0 5.33301 2.5 9.5 7.5 12.5s10.5 4.5 16.5 4.5h58l20 27c-10.667 39.333 -16 72 -16 98c0 38 5.33301 69 16 93l1 1l2 5c10.667 30 29.834 53.167 57.501 69.5s57.834 24.5 90.501 24.5c28.667 0 54.667 -6.33301 78 -19c16.667 -10 33.167 -22 49.5 -36s24.5 -25 24.5 -33
c0 -5.33301 -2.33301 -9.66602 -7 -12.999s-10 -5 -16 -5c-9.33301 0 -24.333 9.66699 -45 29c-11.333 10.667 -19.5 18 -24.5 22s-13.167 8.66699 -24.5 14s-23 8 -35 8c-40.667 0 -70.667 -15.5 -90 -46.5s-29 -68.5 -29 -112.5c0 -29.333 6 -63.333 18 -102l1 -1v-2
l21 -21h166c6 0 11.5 -1.5 16.5 -4.5s7.5 -7.16699 7.5 -12.5c0 -4.66699 -2.5 -8.66699 -7.5 -12s-10.5 -5 -16.5 -5h-154l-20 -30c-0.666992 0.666992 -1 1.33398 -1 2.00098c-0.666992 -55.333 -19 -111.333 -55 -168v-1l-4 -7l18 -32h297z" />
    <glyph glyph-name="currency" unicode="&#xa4;" horiz-adv-x="615" 
d="M418 162l-27.001 3c-37.333 -24.667 -78.666 -37 -123.999 -37c-38.667 0 -78.667 12.333 -120 37l-26 -3l-84 -82c-3.33301 -4 -9 -6 -17 -6c-6 0 -11.333 1.66699 -16 5s-7 7.33301 -7 12s2 9 6 13l86 86l2 27c-26.667 34.667 -40 77.334 -40 128.001
c0 36.667 11 73 33 109l7 11l-2 26l-86 86c-4 3.33301 -6 7.66602 -6 12.999c0 4.66699 2.33301 8.66699 7 12s10 5 16 5c8 0 13.333 -1.66699 16 -5l1 -1l84 -82l26 -4c36.667 24.667 76.667 37 120 37c46 0 87.333 -12.333 124 -37l27 4l83 82c3.33301 4 9 6 17 6
c6 0 11.5 -1.66699 16.5 -5s7.5 -7.33301 7.5 -12c0 -5.33301 -2 -9.33301 -6 -12l-87 -87l-2 -28c27.333 -36.667 41 -77 41 -121s-13.667 -85.667 -41 -125l2 -27l87 -87c4 -2.66699 6 -6.66699 6 -12c0 -4.66699 -2.5 -8.66699 -7.5 -12s-10.5 -5 -16.5 -5
c-8 0 -14 2 -18 6zM268.999 519c-46 0 -86.001 -18 -120.001 -54s-51 -77.667 -51 -125c0 -46 16.833 -87 50.5 -123s73.834 -54 120.501 -54s86.667 17.5 120 52.5s50 76.5 50 124.5c0 46.667 -16.333 88.167 -49 124.5s-73 54.5 -121 54.5z" />
    <glyph glyph-name="yen" unicode="&#xa5;" horiz-adv-x="778" 
d="M557 291c6 0 11.499 -1.66504 16.499 -4.99805s7.5 -7.33301 7.5 -12c0 -12 -8 -18 -24 -18h-143l-22 -22v-27l22 -21h143c6 0 11.5 -1.66699 16.5 -5s7.5 -7.33301 7.5 -12c0 -12 -8 -18 -24 -18h-143l-22 -22v-122c0 -4.66699 -2.5 -8.66699 -7.5 -12
s-10.5 -5 -16.5 -5s-11.333 1.66699 -16 5s-7 7.33301 -7 12v122l-22 22h-145c-5.33301 0 -10.5 1.66699 -15.5 5s-7.5 7.66602 -7.5 12.999c0 4.66699 2.5 8.66699 7.5 12s10.167 5 15.5 5h145l22 21v27l-22 22h-145c-5.33301 0 -10.5 1.66699 -15.5 5
s-7.5 7.66602 -7.5 12.999c0 4.66699 2.5 8.66699 7.5 12s10.167 5 15.5 5h145l22 21v21l-6 14l-286 331l-1 1v3c0 12 8 18 24 18c9.33301 0 17 -4 23 -12l253 -291h32l253 291c7.33301 8 15.333 12 24 12c12.667 0 20.334 -4.66699 23.001 -14v-2l1 -2v-3l-1 -1l-286 -331
l-6 -14v-21l22 -21h143z" />
    <glyph glyph-name="brokenbar" unicode="&#xa6;" horiz-adv-x="172" 
d="M91 381c0 -5.33301 -2.50098 -9.5 -7.50098 -12.5s-10.167 -4.5 -15.5 -4.5c-6.66699 0 -13 2 -19 6s-9.33301 9 -10 15v344c0 4.66699 2.66699 8.66699 8 12s11 5 17 5s11.833 -2.16699 17.5 -6.5s8.83398 -9.5 9.50098 -15.5v-343zM90.999 -164
c0 -5.33301 -2.50098 -9.5 -7.50098 -12.5s-10.167 -4.5 -15.5 -4.5c-6.66699 0 -13 2 -19 6s-9.33301 9 -10 15v343c0 11.333 8.33301 17 25 17c6 0 11.833 -2 17.5 -6s8.83398 -9 9.50098 -15v-343z" />
    <glyph glyph-name="section" unicode="&#xa7;" horiz-adv-x="471" 
d="M423 345l1.99902 -2.00391c6.66699 -9.33301 10 -22.666 10 -39.999c0 -11.333 -2.66699 -21.333 -8 -30c-12 -29.333 -33.667 -50.666 -65 -63.999h4l-13 -38c9.33301 -8.66699 16 -17 20 -25l2 -1c6.66699 -8.66699 10 -21.667 10 -39c0 -10 -2.33301 -20.333 -7 -31
c-14.667 -31.333 -37.334 -52.666 -68.001 -63.999c-31.333 -14 -64.333 -21 -99 -21c-64.667 0 -116.667 9 -156 27l-1 1c-5.33301 2 -8 6.33301 -8 13c0 2 1 4.33301 3 7c4 6.66699 10.667 10 20 10c6 0 11 -1 15 -3l1 -2c38.667 -14 77 -21 115 -21c28 0 52.333 4 73 12
c15.333 4.66699 29.5 13.667 42.5 27s19.5 29 19.5 47c0 22.667 -17.667 42.334 -53 59.001l-2 1c-13.333 4 -37 10 -71 18c-29.333 5.33301 -51.666 10 -66.999 14c-16 5.33301 -27.667 10 -35 14l-5 1c-0.666992 0 -2 1 -4 3h-1c-33.333 18.667 -51.333 43.667 -54 75
c0 29.333 13.333 54.333 40 75l1 1c9.33301 9.33301 22 16.666 38 21.999l5 37c-22 17.333 -33.333 38 -34 62c0 29.333 13.333 54.333 40 75l1 1c34 28 79.333 42 136 42c46 0 89.667 -8.66699 131 -26l1 -1c5.33301 -2 8 -5.66699 8 -11c0 -2.66699 -1 -5.66699 -3 -9v-1
c-2.66699 -4.66699 -8 -7 -16 -7c-14.667 0 -32.667 3 -54 9c-40 8.66699 -64.333 13 -73 13c-24 0 -50.333 -7.16699 -79 -21.5s-43 -34.166 -43 -59.499c0 -10.667 3.66699 -20.5 11 -29.5s15.833 -16.333 25.5 -22s23.334 -11.5 41.001 -17.5s32 -10.167 43 -12.5
l47.5 -10.5c31.333 -7.33301 54 -13.333 68 -18c22 -11.333 37 -24.333 45 -39zM91.999 296.996c0 -24 19.333 -44.668 58 -62.001l2 -1c30 -9.33301 62.667 -14 98 -14c28 0 52 3.66699 72 11c16 5.33301 30.5 14.5 43.5 27.5s19.5 28.5 19.5 46.5s-10.333 33.667 -31 47
l-11 3h-1c-12.667 0 -31 3.33301 -55 10c-40 8.66699 -64.333 13 -73 13c-24 0 -50.333 -7.16699 -79 -21.5s-43 -34.166 -43 -59.499z" />
    <glyph glyph-name="dieresis" unicode="&#xa8;" horiz-adv-x="402" 
d="M106 638c0 -8 -2.83301 -15 -8.5 -21s-12.167 -9 -19.5 -9s-13.833 3 -19.5 9s-8.5 13 -8.5 21s2.83301 15.167 8.5 21.5s12.167 9.5 19.5 9.5s13.833 -3.16699 19.5 -9.5s8.5 -13.5 8.5 -21.5zM326 638c0 -8 -2.83301 -15 -8.5 -21s-12.167 -9 -19.5 -9
c-8 0 -14.833 3 -20.5 9s-8.5 13 -8.5 21s2.83301 15.167 8.5 21.5s12.5 9.5 20.5 9.5c7.33301 0 13.833 -3.16699 19.5 -9.5s8.5 -13.5 8.5 -21.5z" />
    <glyph glyph-name="copyright" unicode="&#xa9;" horiz-adv-x="833" 
d="M395 -14c-102.667 0 -189.332 36.832 -259.999 110.499s-106 159.5 -106 257.5c0 102 36 188.833 108 260.5s158.333 107.5 259 107.5c104 0 191 -37 261 -111s105 -163.333 105 -268c0 -53.333 -10.667 -102.666 -32 -147.999s-49.333 -82.833 -84 -112.5
s-73.834 -53 -117.501 -70s-88.167 -25.833 -133.5 -26.5zM395.002 9.99902c95.333 0 176.502 33.668 243.502 101.001s100.5 148.333 100.5 243c0 95.333 -33.333 176.666 -100 243.999s-147.667 101 -243 101c-48.667 0 -94.834 -10 -138.501 -30
s-80.334 -46.333 -110.001 -79s-53.167 -69.667 -70.5 -111s-26 -83 -26 -125c0 -64 16.667 -122.833 50 -176.5s76.333 -95 129 -124s107.667 -43.5 165 -43.5zM570.004 234l0.998047 -1c3.33301 -2 5 -5 5 -9c0 -4.66699 -2 -8.66699 -6 -12l-2 -1
c-12 -12.667 -28.667 -24.667 -50 -36c-32.667 -16.667 -69 -25 -109 -25c-56 0 -107 19.833 -153 59.5s-69 88.834 -69 147.501c0 62 23 113.667 69 155c42.667 37.333 94 56 154 56c61.333 0 113.333 -19.333 156 -58c4.66699 -4.66699 7 -8.66699 7 -12
c0 -4.66699 -2 -8 -6 -10c-4 -4 -10.333 -6 -19 -6c-6.66699 0 -12.334 2 -17.001 6c-3.33301 3.33301 -7.66602 6.83301 -12.999 10.5s-8.66602 6.16699 -9.99902 7.5l-1 1c-29.333 19.333 -61 29 -95 29c-46.667 0 -87.834 -17.167 -123.501 -51.5
s-53.5 -75.5 -53.5 -123.5c0 -64.667 26 -114.334 78 -149.001c27.333 -19.333 59.333 -29 96 -29c36 0 68.667 9.66699 98 29l1 1c12 9.33301 20.333 16.333 25 21s10.334 7 17.001 7c8.66699 0 15.334 -2.33301 20.001 -7z" />
    <glyph glyph-name="guillemotleft" unicode="&#xab;" horiz-adv-x="528" 
d="M241 89c3.33301 -3.33301 5.00098 -7.33496 5.00098 -12.002s-2.5 -8.66699 -7.5 -12s-10.5 -5 -16.5 -5c-6.66699 0 -12.334 2.33301 -17.001 7l-186 167c-3.33301 4.66699 -5 8.66699 -5 12c0 2.66699 1.66699 6.33398 5 11.001h1l180 167c6 4.66699 11.667 7 17 7
c6 0 11.667 -1.66699 17 -5s8 -7.33301 8 -12c0 -5.33301 -2.33301 -9.66602 -7 -12.999l-71 -65v-1c-0.666992 -0.666992 -10 -9 -28 -25s-35.333 -32.333 -52 -49l1 -31zM441.001 88.998c4 -4 6 -8 6 -12c0 -4.66699 -2.5 -8.66699 -7.5 -12s-10.833 -5 -17.5 -5
s-12.334 2.33301 -17.001 7l-185 167c-4 4 -6 8 -6 12c0 3.33301 2 7 6 11h1l180 167c4.66699 4.66699 10.334 7 17.001 7c6 0 11.5 -1.66699 16.5 -5s7.5 -7.33301 7.5 -12s-2 -9 -6 -13l-71 -65v-1c-12 -10.667 -21.667 -19 -29 -25c-18 -16 -35.333 -32.333 -52 -49
l1 -31z" />
    <glyph glyph-name="logicalnot" unicode="&#xac;" horiz-adv-x="558" 
d="M0 382h467v-241h-32v182l-21 22h-414v37z" />
    <glyph glyph-name="registered" unicode="&#xae;" horiz-adv-x="832" 
d="M395 -15c-101.333 0 -187.666 36.6689 -258.999 110.002s-107 159.333 -107 258c0 102 36 188.833 108 260.5s158.333 107.5 259 107.5c101.333 0 187.666 -36 258.999 -108s107 -158.667 107 -260c0 -68.667 -18.5 -131.834 -55.5 -189.501
s-83.333 -101.834 -139 -132.501s-113.167 -46 -172.5 -46zM395 8.00195c94 0 174.833 33.502 242.5 100.502s101.5 148.5 101.5 244.5s-33.333 177.5 -100 244.5s-147.667 100.5 -243 100.5c-96 0 -177.5 -34.833 -244.5 -104.5s-100.5 -149.834 -100.5 -240.501
c0 -65.333 17 -124.833 51 -178.5s77.167 -94.834 129.5 -123.501s106.833 -43 163.5 -43zM520 229.004c23.333 -25.333 46.666 -46 69.999 -62c-0.666992 -1.33301 -3 -2 -7 -2c-1.33301 0 -3 1 -5 3l-2 2c-18.667 12.667 -36 27 -52 43c-40 40 -76.333 89.333 -109 148
l-18 10c-18 0 -31.667 0.333008 -41 1h-1c-30.667 1.33301 -54.667 3 -72 5l-23 -22v-187c0 -2 -1.66699 -3 -5 -3c-4.66699 0 -7 1 -7 3v382c0 0.666992 4.66699 2.33398 14 5.00098c47.333 10 88.333 15 123 15c16.667 0 33.834 -1.66699 51.501 -5s35.5 -8.5 53.5 -15.5
s32.833 -17.167 44.5 -30.5s17.5 -29 17.5 -47c0 -26 -10.667 -47.333 -32 -64l-1 -1c-15.333 -14.667 -38.666 -24.334 -69.999 -29.001l-14 -32c25.333 -42.667 53.666 -81.667 84.999 -117zM260 401.004l19 -21c34.667 -3.33301 69 -5 103 -5
c16.667 0 32.667 1.16699 48 3.5s32 6.5 50 12.5s32.5 16 43.5 30s16.5 31 16.5 51c0 23.333 -9.5 42.5 -28.5 57.5s-39.333 24.833 -61 29.5s-43.167 7 -64.5 7c-40 0 -76.333 -3.66699 -109 -11l-17 -20v-134zM591 167.004l1.00098 -2
c-0.666992 0 -1.33398 0.666992 -2.00098 2h1zM590.001 168.004v-1v1z" />
    <glyph glyph-name="macron" unicode="&#xaf;" horiz-adv-x="360" 
d="M293 634c13.333 0 20 -4 20 -12c0 -9.33301 -6.66699 -14 -20 -14h-260c-12.667 0 -19 4.66699 -19 14c0 8 6.33301 12 19 12h260z" />
    <glyph glyph-name="degree" unicode="&#xb0;" horiz-adv-x="342" 
d="M150 729c32.667 0 61.167 -12.333 85.5 -37s36.5 -53.667 36.5 -87c0 -34 -12.167 -63 -36.5 -87s-52.833 -36 -85.5 -36c-33.333 0 -62 12.167 -86 36.5s-36 53.5 -36 87.5s12.167 63 36.5 87s52.833 36 85.5 36zM151 490c31.333 0 58.332 11.168 80.999 33.501
s34 48.833 34 79.5c0 32 -11.167 59.5 -33.5 82.5s-49.166 34.5 -80.499 34.5c-33.333 0 -61.5 -10.833 -84.5 -32.5s-34.5 -48.5 -34.5 -80.5c0 -32.667 11.333 -60.334 34 -83.001s50.667 -34 84 -34z" />
    <glyph glyph-name="plusminus" unicode="&#xb1;" horiz-adv-x="533" 
d="M210 492c0 16.667 5.66602 25 16.999 25c12 0 18 -8.33301 18 -25v-149l21 -22h151c6 0 11.5 -1.5 16.5 -4.5s7.5 -7.16699 7.5 -12.5s-2.5 -9.66602 -7.5 -12.999s-10.5 -5 -16.5 -5h-151l-21 -21v-152c0 -5.33301 -1.66699 -10.5 -5 -15.5s-7.66602 -7.5 -12.999 -7.5
s-9.5 2.5 -12.5 7.5s-4.5 10.167 -4.5 15.5v152l-21 21h-151c-5.33301 0 -10.5 1.66699 -15.5 5s-7.5 7.66602 -7.5 12.999s2.5 9.5 7.5 12.5s10.167 4.5 15.5 4.5h151l21 22v149zM413.999 23c6 0 11.5 -1.5 16.5 -4.5s7.5 -7.16699 7.5 -12.5s-2.5 -9.66602 -7.5 -12.999
s-10.5 -5 -16.5 -5h-376c-5.33301 0 -10.5 1.66699 -15.5 5s-7.5 7.66602 -7.5 12.999s2.5 9.5 7.5 12.5s10.167 4.5 15.5 4.5h376z" />
    <glyph glyph-name="twosuperior" unicode="&#xb2;" horiz-adv-x="279" 
d="M192 554v-24h-150c59.333 62 96.5 102.833 111.5 122.5s22.5 36.5 22.5 50.5c0 12.667 -4.33301 22.5 -13 29.5s-20 10.5 -34 10.5s-24.5 -2.66699 -31.5 -8s-11.833 -15.666 -14.5 -30.999l-24 8c8.66699 38 31.667 57 69 57c21.333 0 38.5 -6 51.5 -18
s19.5 -27.667 19.5 -47c0 -28.667 -22.333 -65.334 -67 -110.001l-5 -4l15 -36h50z" />
    <glyph glyph-name="threesuperior" unicode="&#xb3;" horiz-adv-x="246" 
d="M171 593c0 -23.333 -7.5 -40.666 -22.5 -51.999s-33.5 -17 -55.5 -17c-31.333 0 -53.333 15.333 -66 46l10 6c10 -20 29 -30 57 -30c15.333 0 28 4.16699 38 12.5s15 20.166 15 35.499c0 16 -4.5 26.833 -13.5 32.5s-23.167 8.5 -42.5 8.5h-6v23h7
c14.667 0 26.5 4.83301 35.5 14.5s13.5 20.167 13.5 31.5c0 25.333 -15.667 38 -47 38h-4c-25.333 -5.33301 -39 -14 -41 -26l-17 6c4 13.333 12 24 24 32s26.333 12 43 12c19.333 0 35 -5.5 47 -16.5s18 -25.5 18 -43.5c0 -16.667 -4 -30 -12 -40v-28
c12.667 -14 19 -29 19 -45z" />
    <glyph glyph-name="acute" unicode="&#xb4;" horiz-adv-x="218" 
d="M-12 617c0 5.33301 2.66699 10.667 8 16l94 95c5.33301 5.33301 11.333 8 18 8s10 -2.66699 10 -8c0 -6.66699 -2.66699 -11.667 -8 -15l-1 -1l-94 -97c-4.66699 -4.66699 -10 -7 -16 -7c-7.33301 0 -11 3 -11 9z" />
    <glyph glyph-name="paragraph" unicode="&#xb6;" horiz-adv-x="535" 
d="M443 736l0.000976562 -857.999h-38v806l-21 21h-103l-21 -21v-806h-38v448l-22 21c-56.667 0 -102.5 17.833 -137.5 53.5s-52.5 82.5 -52.5 140.5c0 57.333 18.167 104.166 54.5 140.499s84.166 54.5 143.499 54.5h235z" />
    <glyph glyph-name="periodcentered" unicode="&#xb7;" horiz-adv-x="157" 
d="M89 304c0 -9.33301 -3.16895 -17.333 -9.50195 -24s-13.833 -10 -22.5 -10c-9.33301 0 -17.166 3.33301 -23.499 10s-9.5 14.667 -9.5 24s3.33301 17.5 10 24.5s14.334 10.5 23.001 10.5s16.167 -3.5 22.5 -10.5s9.5 -15.167 9.5 -24.5z" />
    <glyph glyph-name="cedilla" unicode="&#xb8;" horiz-adv-x="196" 
d="M87 -39l2.00098 -6.99902l10 -11c13.333 -8 24.166 -19.833 32.499 -35.5s12.5 -31.834 12.5 -48.501c0 -26.667 -9 -49 -27 -67c-19.333 -18 -42 -27 -68 -27c-5.33301 0 -10 1.83301 -14 5.5s-6 8.16699 -6 13.5s2 10 6 14s8.66699 6 14 6h4l11 2
c12 1.33301 21.667 7.33301 29 18s11 22.334 11 35.001c0 18.667 -4.66699 31.834 -14 39.501s-22.333 13.834 -39 18.501c-14.667 3.33301 -22 9.66602 -22 18.999l1 2c0.666992 1.33301 1.5 3.16602 2.5 5.49902s1.83301 4.16602 2.5 5.49902l3 10l25 56
c3.33301 5.33301 9 8 17 8c3.33301 0 5.33301 -0.333008 6 -1l4 -2c6 -2 9 -7.33301 9 -16c0 -5.33301 -0.333008 -8.33301 -1 -9l-1 -1c-2.66699 -2.66699 -4.33398 -4.66699 -5.00098 -6s-1.66699 -2.33301 -3 -3s-2.16602 -2 -2.49902 -4s-0.5 -6 -0.5 -12v-2z" />
    <glyph glyph-name="onesuperior" unicode="&#xb9;" horiz-adv-x="200" 
d="M87 764h25v-234h-22v159l-21 22h-3l-14 -5l-3 -3v29zM49 703l-14 -10z" />
    <glyph glyph-name="ordmasculine" unicode="&#xba;" horiz-adv-x="395" 
d="M176 431c-45.333 0 -81 13.999 -107 41.999s-39 66 -39 114c0 46.667 13 84 39 112s61.667 42 107 42s80.833 -13.833 106.5 -41.5s38.5 -65.167 38.5 -112.5s-12.833 -85.166 -38.5 -113.499s-61.167 -42.5 -106.5 -42.5zM299 586.999c0 94.667 -41.333 142 -124 142
c-82 0 -123 -48 -123 -144c0 -94.667 41 -142 123 -142c82.667 0 124 48 124 144z" />
    <glyph glyph-name="guillemotright" unicode="&#xbb;" horiz-adv-x="529" 
d="M220 89l155 141.001l2 31c-16.667 16.667 -34 33 -52 49c-13.333 10.667 -23 19 -29 25v1l-71 65c-4.66699 3.33301 -7 7.66602 -7 12.999c0 4.66699 2.66699 8.66699 8 12s11 5 17 5s11.333 -2.33301 16 -7l181 -167h1c4 -5.33301 6 -9 6 -11
c0 -2.66699 -2 -6.66699 -6 -12l-185 -167c-6 -4.66699 -11.667 -7 -17 -7c-6.66699 0 -12.5 1.66699 -17.5 5s-7.5 7.33301 -7.5 12s2 8.66699 6 12zM19 89.001l156.002 141.002l1 31c-16.667 16.667 -34 33 -52 49l-29 25v1l-71 65c-4 3.33301 -6 7.66602 -6 12.999
c0 4.66699 2.5 8.66699 7.5 12s10.5 5 16.5 5s11.333 -2.33301 16 -7l182 -167h1c3.33301 -4.66699 5 -8.33398 5 -11.001c0 -3.33301 -1.66699 -7.33301 -5 -12l-186 -167c-4.66699 -4.66699 -10.334 -7 -17.001 -7s-12.334 1.66699 -17.001 5s-7 7.33301 -7 12
s1.66699 8.66699 5 12z" />
    <glyph glyph-name="onequarter" unicode="&#xbc;" horiz-adv-x="1159" 
d="M1064 203c5.33301 0 10.8311 -2.16699 16.498 -6.5s8.5 -9.16602 8.5 -14.499c0 -6 -2.83301 -11 -8.5 -15s-11.167 -6 -16.5 -6h-26l-21 -21v-119c0 -6.66699 -2.66699 -11.834 -8 -15.501s-11.333 -5.5 -18 -5.5s-12.5 1.83301 -17.5 5.5s-7.5 8.83398 -7.5 15.501v119
l-21 21h-211c-7.33301 0 -13.666 2 -18.999 6s-8 9.33301 -8 16c0 3.33301 1 5.66602 3 6.99902l1 1l222 265c2 1.33301 4 3.5 6 6.5s3.66699 5.16699 5 6.5l1 1c18.667 22.667 31.334 35.667 38.001 39h19c10 -2 15 -9 15 -21v-264l21 -21h26zM723.998 697
l-382.002 -717.999c-10.667 -14.667 -21.667 -22 -33 -22c-15.333 0 -23 5 -23 15c0 5.33301 1.66699 10.666 5 15.999l389 727c6.66699 13.333 15.334 20 26.001 20c6.66699 0 12.334 -1.83301 17.001 -5.5s7 -8.5 7 -14.5c0 -7.33301 -1.66699 -13 -5 -17z
M199.996 680.001l0.000976562 -443c0 -6.66699 -2.5 -12 -7.5 -16s-10.833 -6 -17.5 -6s-12.334 2 -17.001 6s-7 9.33301 -7 16v378l-32 18c-8 -3.33301 -13.333 -5 -16 -5c-6 0 -11.333 2 -16 6s-7 9.33301 -7 16c0 7.33301 9.33301 17.333 28 30l1 1l13 9
c10 6.66699 20 12.667 30 18c14.667 9.33301 22.667 14 24 14c16 0 24 -14 24 -42zM965.997 224.001v141l-37 14l-118 -141l16 -35h118z" />
    <glyph glyph-name="onehalf" unicode="&#xbd;" horiz-adv-x="1100" 
d="M990 63l-6.00098 -1.00488h1c0.666992 0.666992 1.33398 1 2.00098 1l8 1c1.33301 0.666992 3.33301 1.33398 6 2.00098l3 1c6 0 11.833 -2 17.5 -6s8.5 -9 8.5 -15c0 -18 -21.167 -31.333 -63.5 -40s-83.166 -13 -122.499 -13c-34 0 -69.333 4.16699 -106 12.5
s-55 21.833 -55 40.5c0 6 1.66699 10 5 12l1 1l91 68c24.667 18.667 45.334 35.167 62.001 49.5s35.834 32.833 57.501 55.5s38.167 46.334 49.5 71.001s17 49.334 17 74.001c0 27.333 -8 49.833 -24 67.5s-40.333 26.5 -73 26.5c-38.667 0 -77.334 -9.66699 -116.001 -29
l-1 -1c-2.66699 -2 -6.33398 -3 -11.001 -3c-6 0 -11.667 1.83301 -17 5.5s-8 8.5 -8 14.5c0 15.333 18.167 28 54.5 38s70.166 15 101.499 15c44.667 0 80 -12.333 106 -37s39 -58 39 -100c0 -27.333 -5.5 -53.833 -16.5 -79.5s-27.833 -50.667 -50.5 -75
s-42.667 -44.166 -60 -59.499s-41 -34.666 -71 -57.999l-34 -27l10 -38c18.667 -1.33301 33.667 -2 45 -2c47.333 0 97.333 9.33301 150 28zM680.999 695.995l-388 -726c-7.33301 -8.66699 -16.666 -13 -27.999 -13c-13.333 0 -20 6.33301 -20 19c0 4.66699 0.666992 9 2 13
l388 728c7.33301 12 16.666 18 27.999 18c14.667 0 22 -7 22 -21c0 -6 -1.33301 -12 -4 -18zM153.999 680.995l-0.000976562 -444.001c0 -6.66699 -2.66699 -12.167 -8 -16.5s-11.333 -6.5 -18 -6.5c-6 0 -11.667 2.33301 -17 7s-8.33301 10.334 -9 17.001v376l-34 17
c-2 -1.33301 -6 -2 -12 -2s-11.333 1.83301 -16 5.5s-7 8.83398 -7 15.501c0 11.333 12.833 26.166 38.5 44.499s44.834 27.5 57.501 27.5c16.667 0 25 -13.667 25 -41z" />
    <glyph glyph-name="threequarters" unicode="&#xbe;" horiz-adv-x="1173" 
d="M1074 203c6.66699 0 12.668 -2 18.001 -6s8 -9 8 -15s-2.66699 -11 -8 -15s-11.333 -6 -18 -6h-24l-21 -21v-119c0 -6.66699 -2.83301 -11.834 -8.5 -15.501s-11.834 -5.5 -18.501 -5.5c-6 0 -11.5 1.83301 -16.5 5.5s-7.5 8.83398 -7.5 15.501v119l-21 21h-211
c-6.66699 0 -12.667 2 -18 6s-8 9.33301 -8 16c0 4 0.333008 6.33301 1 7l223 266l16 19l1 1c14 19.333 25.333 30.333 34 33h17c4 -1.33301 7.83301 -4 11.5 -8s5.5 -8.33301 5.5 -13v-264l21 -21h24zM350.001 331l-1 -0.99707c-8.66699 -38.667 -30.5 -68.667 -65.5 -90
s-73.167 -32 -114.5 -32c-30 0 -61.667 3.83301 -95 11.5s-50 19.5 -50 35.5c0 6 2.83301 10.833 8.5 14.5s11.834 5.5 18.501 5.5c4.66699 0 7.33398 -0.333008 8.00098 -1l6 -4c32.667 -14 64 -21 94 -21c35.333 0 67.666 8.5 96.999 25.5s44 43.833 44 80.5
c0 33.333 -14 60.333 -42 81s-59.667 31 -95 31h-40c-6.66699 0 -12.334 2 -17.001 6s-7 9 -7 15c0 4.66699 2.66699 9.16699 8 13.5s11 6.83301 17 7.5c48.667 5.33301 87 18.166 115 38.499s42 45.833 42 76.5c0 18.667 -9.5 33 -28.5 43s-41.5 15 -67.5 15
c-29.333 0 -67 -6 -113 -18c-1.33301 0 -3.5 -0.333008 -6.5 -1s-5.16699 -1.33398 -6.5 -2.00098h-1l-5 -2c-14.667 0 -22 5.66699 -22 17c0 15.333 17.5 27 52.5 35s68.167 12 99.5 12c24 0 46 -2.16699 66 -6.5s38.5 -14.5 55.5 -30.5s25.5 -37 25.5 -63
c0 -38.667 -18.333 -75.334 -55 -110.001l3 -34c22 -14 40 -31.667 54 -53s21 -44.333 21 -69c0 -5.33301 -1 -14 -3 -26zM811.001 697.003l-383.001 -717.999c-9.33301 -14.667 -20 -22 -32 -22c-15.333 0 -23 5 -23 15c0 5.33301 1.33301 10.666 4 15.999l388 728
c6 12.667 15.333 19 28 19c6.66699 0 12.334 -1.83301 17.001 -5.5s7 -8.5 7 -14.5c0 -7.33301 -1.66699 -13 -5 -17zM978 224.004v141l-37 14l-119 -141l16 -35h119z" />
    <glyph glyph-name="questiondown" unicode="&#xbf;" horiz-adv-x="433" 
d="M87 -160c4.66699 0 20.6699 -3.66699 48.0029 -11l3 -1h1h1c43.333 1.33301 75.666 10.333 96.999 27s32 45.334 32 86.001c0 42.667 -30.667 84.667 -92 126c-2 1.33301 -5.83301 3.66602 -11.5 6.99902s-9.5 5.66602 -11.5 6.99902h-1c-18 10 -31.333 18 -40 24
s-18.834 15 -30.501 27s-20.167 27 -25.5 45s-9 40 -11 66v30v4.5c0 2.33301 0.166992 5.5 0.5 9.5s0.5 9 0.5 15c0 17.333 6.66699 31.666 20 42.999s28.333 17 45 17s32 -5.66699 46 -17s21 -25.666 21 -42.999c0 -8 -0.166992 -15.333 -0.5 -22s-0.5 -10.667 -0.5 -12
v-33c0 -19.333 15.333 -37.333 46 -54c51.333 -27.333 93.666 -61.166 126.999 -101.499s50 -86.5 50 -138.5c0 -82 -23 -141.333 -69 -178s-106.333 -55 -181 -55c-31.333 0 -60.833 5.83301 -88.5 17.5s-41.5 29.834 -41.5 54.501c0 17.333 7 31.666 21 42.999
s29 17 45 17zM117.003 413c-8.66699 0 -16.334 2.33301 -23.001 7s-10 10.667 -10 18s3.33301 13.166 10 17.499s14.334 6.5 23.001 6.5c8 0 15.167 -2.16699 21.5 -6.5s9.5 -10.166 9.5 -17.499s-3.16699 -13.333 -9.5 -18s-13.5 -7 -21.5 -7z" />
    <glyph glyph-name="Agrave" unicode="&#xc0;" horiz-adv-x="811" 
d="M685 456c10 -38 15.001 -83.001 15.001 -135.001v-304c0 -5.33301 -2.5 -9.5 -7.5 -12.5s-10.167 -4.5 -15.5 -4.5c-16.667 0 -25 5.66699 -25 17v256l-21 21h-493l-21 -21v-256c0 -5.33301 -2.5 -9.5 -7.5 -12.5s-10.5 -4.5 -16.5 -4.5s-11.5 1.5 -16.5 4.5
s-7.5 7.16699 -7.5 12.5v330c0 56.667 12.167 111.834 36.5 165.501s61.166 99 110.499 136s105 55.5 167 55.5c70.667 0 134.5 -23.833 191.5 -71.5s93.833 -106.5 110.5 -176.5zM631.001 327.999l21 20.999c0 51.333 -10.167 101 -30.5 149s-51.5 88.667 -93.5 122
s-89.667 50 -143 50c-52.667 0 -100.167 -16.667 -142.5 -50s-73.833 -74.166 -94.5 -122.499s-31 -97.833 -31 -148.5l21 -21h493zM273.001 992.998l94.999 -96c6 -6 9 -11.333 9 -16c0 -6 -3.66699 -9 -11 -9c-5.33301 0 0.333984 -7.66699 17.001 -23
c2 -2 4.33301 -4 7 -6h-55l15 36l-95 97c-5.33301 4 -8 9.33301 -8 16c0 5.33301 3 8 9 8c5.33301 0 11 -2.33301 17 -7z" />
    <glyph glyph-name="Aacute" unicode="&#xc1;" horiz-adv-x="811" 
d="M685 456c10 -38 15.001 -83.001 15.001 -135.001v-304c0 -5.33301 -2.5 -9.5 -7.5 -12.5s-10.167 -4.5 -15.5 -4.5c-16.667 0 -25 5.66699 -25 17v256l-21 21h-493l-21 -21v-256c0 -5.33301 -2.5 -9.5 -7.5 -12.5s-10.5 -4.5 -16.5 -4.5s-11.5 1.5 -16.5 4.5
s-7.5 7.16699 -7.5 12.5v330c0 56.667 12.167 111.834 36.5 165.501s61.166 99 110.499 136s105 55.5 167 55.5c70.667 0 134.5 -23.833 191.5 -71.5s93.833 -106.5 110.5 -176.5zM631.001 327.999l21 20.999c0 51.333 -10.167 101 -30.5 149s-51.5 88.667 -93.5 122
s-89.667 50 -143 50c-52.667 0 -100.167 -16.667 -142.5 -50s-73.833 -74.166 -94.5 -122.499s-31 -97.833 -31 -148.5l21 -21h493zM384.001 876.998c0 6 2.33301 11.333 7 16l95 94c5.33301 6 11.333 9 18 9c6 0 9 -3 9 -9c0 -5.33301 -2.33301 -10 -7 -14l-1 -1l-95 -97
c-4.66699 -4.66699 -9.66699 -7 -15 -7c-7.33301 0 -11 3 -11 9z" />
    <glyph glyph-name="Acircumflex" unicode="&#xc2;" horiz-adv-x="811" 
d="M685 456c10 -38 15.001 -83.001 15.001 -135.001v-304c0 -5.33301 -2.5 -9.5 -7.5 -12.5s-10.167 -4.5 -15.5 -4.5c-16.667 0 -25 5.66699 -25 17v256l-21 21h-493l-21 -21v-256c0 -5.33301 -2.5 -9.5 -7.5 -12.5s-10.5 -4.5 -16.5 -4.5s-11.5 1.5 -16.5 4.5
s-7.5 7.16699 -7.5 12.5v330c0 56.667 12.167 111.834 36.5 165.501s61.166 99 110.499 136s105 55.5 167 55.5c70.667 0 134.5 -23.833 191.5 -71.5s93.833 -106.5 110.5 -176.5zM631.001 327.999l21 20.999c0 51.333 -10.167 101 -30.5 149s-51.5 88.667 -93.5 122
s-89.667 50 -143 50c-52.667 0 -100.167 -16.667 -142.5 -50s-73.833 -74.166 -94.5 -122.499s-31 -97.833 -31 -148.5l21 -21h493zM402.001 973.998l96 -107l2 -2v-2c0 -6.66699 -1.66699 -10 -5 -10c-8 0 -15.333 3.33301 -22 10v1l-73 69h-30l-73 -69v-1
c-6.66699 -6.66699 -14 -10 -22 -10c-3.33301 0 -5 3.33301 -5 10v2l2 2l95 107c7.33301 7.33301 13.333 11 18 11c4 0 9.66699 -3.66699 17 -11z" />
    <glyph glyph-name="Atilde" unicode="&#xc3;" horiz-adv-x="811" 
d="M685 456c10 -38 15.001 -83.001 15.001 -135.001v-304c0 -5.33301 -2.5 -9.5 -7.5 -12.5s-10.167 -4.5 -15.5 -4.5c-16.667 0 -25 5.66699 -25 17v256l-21 21h-493l-21 -21v-256c0 -5.33301 -2.5 -9.5 -7.5 -12.5s-10.5 -4.5 -16.5 -4.5s-11.5 1.5 -16.5 4.5
s-7.5 7.16699 -7.5 12.5v330c0 56.667 12.167 111.834 36.5 165.501s61.166 99 110.499 136s105 55.5 167 55.5c70.667 0 134.5 -23.833 191.5 -71.5s93.833 -106.5 110.5 -176.5zM631.001 327.999l21 20.999c0 51.333 -10.167 101 -30.5 149s-51.5 88.667 -93.5 122
s-89.667 50 -143 50c-52.667 0 -100.167 -16.667 -142.5 -50s-73.833 -74.166 -94.5 -122.499s-31 -97.833 -31 -148.5l21 -21h493zM508.001 950.998l1.00195 -1c8.66699 -2 13 -8 13 -18c0 -14 -7.66699 -28.833 -23 -44.5s-35.333 -24.167 -60 -25.5h-7
c-18.667 1.33301 -32.334 5 -41.001 11h-1l-18 13c-6 6 -10 9.66699 -12 11c-12 10.667 -23 16 -33 16c-14 0 -28.667 -8.66699 -44 -26c-10 -12.667 -18 -19 -24 -19c-12 0 -18 3.66699 -18 11c0 15.333 9.5 31 28.5 47s38.833 24 59.5 24c12.667 0 31.667 -8.66699 57 -26
l11 -9c10 -10 23 -15 39 -15c20 0 33.333 7.33301 40 22l8 13c5.33301 10.667 11.666 16 18.999 16h5z" />
    <glyph glyph-name="Adieresis" unicode="&#xc4;" horiz-adv-x="811" 
d="M685 456c10 -38 15.001 -83.001 15.001 -135.001v-304c0 -5.33301 -2.5 -9.5 -7.5 -12.5s-10.167 -4.5 -15.5 -4.5c-16.667 0 -25 5.66699 -25 17v256l-21 21h-493l-21 -21v-256c0 -5.33301 -2.5 -9.5 -7.5 -12.5s-10.5 -4.5 -16.5 -4.5s-11.5 1.5 -16.5 4.5
s-7.5 7.16699 -7.5 12.5v330c0 56.667 12.167 111.834 36.5 165.501s61.166 99 110.499 136s105 55.5 167 55.5c70.667 0 134.5 -23.833 191.5 -71.5s93.833 -106.5 110.5 -176.5zM631.001 327.999l21 20.999c0 51.333 -10.167 101 -30.5 149s-51.5 88.667 -93.5 122
s-89.667 50 -143 50c-52.667 0 -100.167 -16.667 -142.5 -50s-73.833 -74.166 -94.5 -122.499s-31 -97.833 -31 -148.5l21 -21h493zM304.001 896.998c0 -8.66699 -2.66699 -15.834 -8 -21.501s-11.666 -8.5 -18.999 -8.5c-8 0 -14.833 2.83301 -20.5 8.5
s-8.5 12.834 -8.5 21.501c0 8 2.83301 15.167 8.5 21.5s12.5 9.5 20.5 9.5c7.33301 0 13.666 -3.16699 18.999 -9.5s8 -13.5 8 -21.5zM524.001 896.998c0 -8.66699 -2.83301 -15.834 -8.5 -21.501s-12.167 -8.5 -19.5 -8.5c-8 0 -14.667 2.83301 -20 8.5
s-8 12.834 -8 21.501c0 8 2.66699 15.167 8 21.5s12 9.5 20 9.5c7.33301 0 13.833 -3.16699 19.5 -9.5s8.5 -13.5 8.5 -21.5z" />
    <glyph glyph-name="Aring" unicode="&#xc5;" horiz-adv-x="811" 
d="M685 456c10 -38 15.001 -83.001 15.001 -135.001v-304c0 -5.33301 -2.5 -9.5 -7.5 -12.5s-10.167 -4.5 -15.5 -4.5c-16.667 0 -25 5.66699 -25 17v256l-21 21h-493l-21 -21v-256c0 -5.33301 -2.5 -9.5 -7.5 -12.5s-10.5 -4.5 -16.5 -4.5s-11.5 1.5 -16.5 4.5
s-7.5 7.16699 -7.5 12.5v330c0 56.667 12.167 111.834 36.5 165.501s61.166 99 110.499 136s105 55.5 167 55.5c70.667 0 134.5 -23.833 191.5 -71.5s93.833 -106.5 110.5 -176.5zM631.001 327.999l21 20.999c0 51.333 -10.167 101 -30.5 149s-51.5 88.667 -93.5 122
s-89.667 50 -143 50c-52.667 0 -100.167 -16.667 -142.5 -50s-73.833 -74.166 -94.5 -122.499s-31 -97.833 -31 -148.5l21 -21h493zM458.001 1013l0.000976562 -1c19.333 -18 29 -41.333 29 -70s-10.5 -51.5 -31.5 -68.5s-44.833 -25.5 -71.5 -25.5
c-24.667 0 -47.334 9.33301 -68.001 28s-31 40 -31 64c0 32 11 55.667 33 71s45.667 23 71 23c32 0 55 -7 69 -21zM392.002 866.998c18.667 2 34.001 10.335 46.001 25.002s18 31 18 49c0 20 -5.5 37.167 -16.5 51.5s-25.5 23.5 -43.5 27.5l-6 1h-10
c-20 -2.66699 -35.5 -11.334 -46.5 -26.001s-16.5 -32.334 -16.5 -53.001c0 -18.667 5.66699 -35.167 17 -49.5s26.666 -22.833 45.999 -25.5h12z" />
    <glyph glyph-name="AE" unicode="&#xc6;" horiz-adv-x="1241" 
d="M700 619l0.00195312 -214.001l21 -21h300c6 0 11.5 -1.5 16.5 -4.5s7.5 -7.16699 7.5 -12.5s-2.5 -9.5 -7.5 -12.5s-10.5 -4.5 -16.5 -4.5h-300l-21 -21v-257l14 -20l14 -5c35.333 -14 90.333 -21.667 165 -23c97.333 0 172.666 14 225.999 42c4 2 8.33301 3 13 3
c6 0 11.5 -1.5 16.5 -4.5s7.5 -7.16699 7.5 -12.5c0 -15.333 -18.167 -28 -54.5 -38s-73 -16.5 -110 -19.5s-71.833 -4.5 -104.5 -4.5c-56 0 -112.667 8 -170 24l-65 19v240l-21 21h-493l-21 -21v-256c0 -5.33301 -2.5 -9.5 -7.5 -12.5s-10.5 -4.5 -16.5 -4.5
s-11.5 1.5 -16.5 4.5s-7.5 7.16699 -7.5 12.5v330c0 56.667 12.167 111.834 36.5 165.501s61.166 99 110.499 136s105 55.5 167 55.5c44.667 0 87.167 -10 127.5 -30s75.166 -47.333 104.499 -82l37 14v34c6.66699 20.667 36.167 36 88.5 46s107.5 15 165.5 15
c50.667 0 105 -5 163 -15s87 -25 87 -45c0 -5.33301 -2.5 -9.5 -7.5 -12.5s-10.167 -4.5 -15.5 -4.5c-4.66699 0 -9 1 -13 3c-51.333 26 -121.666 39 -210.999 39h-12c-59.333 0 -116 -7.66699 -170 -23c-5.33301 0 -10.333 -1.66699 -15 -5zM631.002 327.999l21 20.999
c0 51.333 -10.167 101 -30.5 149s-51.5 88.667 -93.5 122s-89.667 50 -143 50c-52.667 0 -100.167 -16.667 -142.5 -50s-73.833 -74.166 -94.5 -122.499s-31 -97.833 -31 -148.5l21 -21h493z" />
    <glyph glyph-name="Ccedilla" unicode="&#xc7;" horiz-adv-x="766" 
d="M425 -54l1.99805 -5.99805l10 -12c13.333 -8 24.333 -19.833 33 -35.5s13 -31.834 13 -48.501c0 -26 -9.33301 -48.333 -28 -67c-19.333 -18 -42 -27 -68 -27c-5.33301 0 -10 1.83301 -14 5.5s-6 8.16699 -6 13.5c0 4.66699 2.16699 9.16699 6.5 13.5
s8.83301 6.5 13.5 6.5h4l11 2c12 1.33301 21.667 7.33301 29 18s11 22.334 11 35.001c0 18.667 -4.5 32 -13.5 40s-22.167 14 -39.5 18c-14.667 5.33301 -22 12 -22 20l6 12c0.666992 1.33301 1.66699 3 3 5s2 3.66699 2 5l7 19l-17 29
c-53.333 6 -103.166 22.5 -149.499 49.5s-84.166 62.167 -113.499 105.5v1c-42 60 -63 127 -63 201c0 103.333 37.833 188.5 113.5 255.5s163.5 100.5 263.5 100.5c38.667 0 75.334 -5.33301 110.001 -16c32 -9.33301 66.333 -23.833 103 -43.5s55 -37.167 55 -52.5
c0 -11.333 -8 -17 -24 -17c-8 0 -14 2 -18 6c-63.333 58.667 -139 88 -227 88c-87.333 0 -164 -30.833 -230 -92.5s-99 -138.167 -99 -229.5c0 -86.667 32 -162.834 96 -228.501s141.667 -98.5 233 -98.5c64.667 0 125.334 18 182.001 54c7.33301 5.33301 17 13 29 23
c20.667 16 33 24 37 24c17.333 0 26 -6 26 -18c0 -3.33301 -2.33301 -7.33301 -7 -12c-60.667 -60 -138.667 -94.333 -234 -103l-16 -9c-1.33301 -1.33301 -2.83301 -3 -4.5 -5s-2.83398 -3.5 -3.50098 -4.5s-1.33398 -2.83301 -2.00098 -5.5s-1 -6.33398 -1 -11.001v-2z
" />
    <glyph glyph-name="Egrave" unicode="&#xc8;" horiz-adv-x="658" 
d="M117 619v-214.004l21 -21h300c15.333 0 23 -5.66699 23 -17s-7.66699 -17 -23 -17h-300l-21 -21v-257l13 -20l14 -5c42.667 -15.333 98 -23 166 -23c44 0 95 5.33301 153 16c29.333 6.66699 53.666 15.334 72.999 26.001c4 2 8 3 12 3c10 0 17.333 -3.33301 22 -10
c2 -3.33301 3 -5.66602 3 -6.99902c0 -7.33301 -3.33301 -12 -10 -14h-1c-64.667 -32 -151 -48 -259 -48c-80.667 0 -148.667 11.667 -204 35h-1l-5 4c-16 9.33301 -24 17 -24 23v588c2 6.66699 7.33301 12.334 16 17.001s23.667 11.334 45 20.001
c61.333 16 125.333 24 192 24c88.667 0 169 -15.333 241 -46c6.66699 -4 10 -8.66699 10 -14c0 -3.33301 -0.666992 -6 -2 -8c-4.66699 -6 -12 -9 -22 -9c-4 0 -8 1 -12 3c-51.333 26 -121.666 39 -210.999 39h-12c-60.667 0 -117.667 -7.66699 -171 -23
c-4.66699 0 -9.66699 -1.66699 -15 -5zM209 992.996l95 -95.999c6 -4.66699 9 -10 9 -16s-3.66699 -9 -11 -9c-6 0 1 -8.66699 21 -26c1.33301 -0.666992 2.66602 -1.66699 3.99902 -3h-55l14 36l-95 97c-5.33301 5.33301 -8 10.666 -8 15.999s3 8 9 8
c6.66699 0 12.334 -2.33301 17.001 -7z" />
    <glyph glyph-name="Eacute" unicode="&#xc9;" horiz-adv-x="658" 
d="M117 619v-214.004l21 -21h300c15.333 0 23 -5.66699 23 -17s-7.66699 -17 -23 -17h-300l-21 -21v-257l13 -20l14 -5c42.667 -15.333 98 -23 166 -23c44 0 95 5.33301 153 16c29.333 6.66699 53.666 15.334 72.999 26.001c4 2 8 3 12 3c10 0 17.333 -3.33301 22 -10
c2 -3.33301 3 -5.66602 3 -6.99902c0 -7.33301 -3.33301 -12 -10 -14h-1c-64.667 -32 -151 -48 -259 -48c-80.667 0 -148.667 11.667 -204 35h-1l-5 4c-16 9.33301 -24 17 -24 23v588c2 6.66699 7.33301 12.334 16 17.001s23.667 11.334 45 20.001
c61.333 16 125.333 24 192 24c88.667 0 169 -15.333 241 -46c6.66699 -4 10 -8.66699 10 -14c0 -3.33301 -0.666992 -6 -2 -8c-4.66699 -6 -12 -9 -22 -9c-4 0 -8 1 -12 3c-51.333 26 -121.666 39 -210.999 39h-12c-60.667 0 -117.667 -7.66699 -171 -23
c-4.66699 0 -9.66699 -1.66699 -15 -5zM320 876.996c0 6.66699 2.66699 12 8 16l94 94c5.33301 6 11.333 9 18 9s10 -3 10 -9s-2.66699 -10.667 -8 -14l-1 -1l-94 -97c-4.66699 -4.66699 -10 -7 -16 -7c-7.33301 0 -11 3 -11 9z" />
    <glyph glyph-name="Ecircumflex" unicode="&#xca;" horiz-adv-x="658" 
d="M117 619v-214.004l21 -21h300c15.333 0 23 -5.66699 23 -17s-7.66699 -17 -23 -17h-300l-21 -21v-257l13 -20l14 -5c42.667 -15.333 98 -23 166 -23c44 0 95 5.33301 153 16c29.333 6.66699 53.666 15.334 72.999 26.001c4 2 8 3 12 3c10 0 17.333 -3.33301 22 -10
c2 -3.33301 3 -5.66602 3 -6.99902c0 -7.33301 -3.33301 -12 -10 -14h-1c-64.667 -32 -151 -48 -259 -48c-80.667 0 -148.667 11.667 -204 35h-1l-5 4c-16 9.33301 -24 17 -24 23v588c2 6.66699 7.33301 12.334 16 17.001s23.667 11.334 45 20.001
c61.333 16 125.333 24 192 24c88.667 0 169 -15.333 241 -46c6.66699 -4 10 -8.66699 10 -14c0 -3.33301 -0.666992 -6 -2 -8c-4.66699 -6 -12 -9 -22 -9c-4 0 -8 1 -12 3c-51.333 26 -121.666 39 -210.999 39h-12c-60.667 0 -117.667 -7.66699 -171 -23
c-4.66699 0 -9.66699 -1.66699 -15 -5zM338 973.996l97 -107l1 -2v-2c0 -6.66699 -1.33301 -10 -4 -10c-8 0 -15.667 3.33301 -23 10v1l-73 69h-29l-74 -69v-1c-6.66699 -6.66699 -14 -10 -22 -10c-2.66699 0 -4 3.33301 -4 10v2l1 2l95 107
c8.66699 7.33301 14.667 11 18 11c4 0 9.66699 -3.66699 17 -11z" />
    <glyph glyph-name="Edieresis" unicode="&#xcb;" horiz-adv-x="658" 
d="M117 619v-214.004l21 -21h300c15.333 0 23 -5.66699 23 -17s-7.66699 -17 -23 -17h-300l-21 -21v-257l13 -20l14 -5c42.667 -15.333 98 -23 166 -23c44 0 95 5.33301 153 16c29.333 6.66699 53.666 15.334 72.999 26.001c4 2 8 3 12 3c10 0 17.333 -3.33301 22 -10
c2 -3.33301 3 -5.66602 3 -6.99902c0 -7.33301 -3.33301 -12 -10 -14h-1c-64.667 -32 -151 -48 -259 -48c-80.667 0 -148.667 11.667 -204 35h-1l-5 4c-16 9.33301 -24 17 -24 23v588c2 6.66699 7.33301 12.334 16 17.001s23.667 11.334 45 20.001
c61.333 16 125.333 24 192 24c88.667 0 169 -15.333 241 -46c6.66699 -4 10 -8.66699 10 -14c0 -3.33301 -0.666992 -6 -2 -8c-4.66699 -6 -12 -9 -22 -9c-4 0 -8 1 -12 3c-51.333 26 -121.666 39 -210.999 39h-12c-60.667 0 -117.667 -7.66699 -171 -23
c-4.66699 0 -9.66699 -1.66699 -15 -5zM460 896.996c0 -8.66699 -2.66699 -15.834 -8 -21.501s-11.666 -8.5 -18.999 -8.5c-8 0 -14.833 2.83301 -20.5 8.5s-8.5 12.834 -8.5 21.501c0 8 2.83301 15.167 8.5 21.5s12.5 9.5 20.5 9.5c7.33301 0 13.666 -3.16699 18.999 -9.5
s8 -13.5 8 -21.5zM241 896.996c0 -8.66699 -2.83301 -15.834 -8.5 -21.501s-12.167 -8.5 -19.5 -8.5c-8 0 -14.667 2.83301 -20 8.5s-8 12.834 -8 21.501c0 8 2.66699 15.167 8 21.5s12 9.5 20 9.5c7.33301 0 13.833 -3.16699 19.5 -9.5s8.5 -13.5 8.5 -21.5z" />
    <glyph glyph-name="Igrave" unicode="&#xcc;" horiz-adv-x="228" 
d="M92 0c-5.33301 0 -10.5 1.5 -15.5 4.5s-7.5 7.16699 -7.5 12.5v666c0 5.33301 2.5 9.5 7.5 12.5s10.167 4.5 15.5 4.5c16.667 0 25 -5.66699 25 -17v-666c0 -11.333 -8.33301 -17 -25 -17zM-20 993l95 -95.999c6 -4.66699 9 -10 9 -16s-3.66699 -9 -11 -9
c-6 0 1 -8.66699 21 -26c1.33301 -0.666992 2.66602 -1.66699 3.99902 -3h-56l15 36l-95 97c-5.33301 5.33301 -8 10.666 -8 15.999s3 8 9 8c6.66699 0 12.334 -2.33301 17.001 -7z" />
    <glyph glyph-name="Iacute" unicode="&#xcd;" horiz-adv-x="228" 
d="M92 0c-5.33301 0 -10.5 1.5 -15.5 4.5s-7.5 7.16699 -7.5 12.5v666c0 5.33301 2.5 9.5 7.5 12.5s10.167 4.5 15.5 4.5c16.667 0 25 -5.66699 25 -17v-666c0 -11.333 -8.33301 -17 -25 -17zM194 988c5.33301 5.33301 11 8 17 8c6.66699 0 10 -3 10 -9
c0 -5.33301 -2.66699 -10 -8 -14l-1 -1l-94 -97c-6 -4.66699 -11.333 -7 -16 -7c-7.33301 0 -11 3 -11 9c0 6.66699 2.66699 12 8 16z" />
    <glyph glyph-name="Icircumflex" unicode="&#xce;" horiz-adv-x="228" 
d="M92 0c-5.33301 0 -10.5 1.5 -15.5 4.5s-7.5 7.16699 -7.5 12.5v666c0 5.33301 2.5 9.5 7.5 12.5s10.167 4.5 15.5 4.5c16.667 0 25 -5.66699 25 -17v-666c0 -11.333 -8.33301 -17 -25 -17zM109 974l97 -107l1 -2v-2c0 -6.66699 -1.33301 -10 -4 -10
c-8 0 -15.667 3.33301 -23 10v1l-73 69h-30l-73 -69v-1c-6.66699 -6.66699 -14 -10 -22 -10c-2.66699 0 -4 3.33301 -4 10v2l1 2l95 107c8.66699 7.33301 14.667 11 18 11c4 0 9.66699 -3.66699 17 -11z" />
    <glyph glyph-name="Idieresis" unicode="&#xcf;" horiz-adv-x="228" 
d="M92 0c-5.33301 0 -10.5 1.5 -15.5 4.5s-7.5 7.16699 -7.5 12.5v666c0 5.33301 2.5 9.5 7.5 12.5s10.167 4.5 15.5 4.5c16.667 0 25 -5.66699 25 -17v-666c0 -11.333 -8.33301 -17 -25 -17zM231 897c0 -8.66699 -2.66895 -15.834 -8.00195 -21.501
s-11.666 -8.5 -18.999 -8.5c-8 0 -14.833 2.83301 -20.5 8.5s-8.5 12.834 -8.5 21.501c0 8 2.83301 15.167 8.5 21.5s12.5 9.5 20.5 9.5c6.66699 0 12.834 -3.16699 18.501 -9.5s8.5 -13.5 8.5 -21.5zM11.998 897c0 -8.66699 -2.83301 -15.834 -8.5 -21.501
s-12.167 -8.5 -19.5 -8.5c-8 0 -14.833 2.83301 -20.5 8.5s-8.5 12.834 -8.5 21.501c0 8 2.83301 15.167 8.5 21.5s12.5 9.5 20.5 9.5c7.33301 0 13.833 -3.16699 19.5 -9.5s8.5 -13.5 8.5 -21.5z" />
    <glyph glyph-name="Eth" unicode="&#xd0;" horiz-adv-x="757" 
d="M270 -15c-41.333 1.33301 -85.165 8.00195 -131.498 20.002s-69.5 26.667 -69.5 44v246l-21 21h-60c-6 0 -11.333 1.66699 -16 5s-7 7.66602 -7 12.999s2.5 9.5 7.5 12.5s10.167 4.5 15.5 4.5h60l21 21v263c0 5.33301 6.33301 11.333 19 18v1
c50.667 29.333 113 44 187 44c107.333 0 200.333 -34 279 -102s118 -151.667 118 -251c0 -57.333 -12.333 -109.5 -37 -156.5s-56.834 -84.833 -96.501 -113.5s-82.834 -50.834 -129.501 -66.501s-93 -23.5 -139 -23.5zM188.001 351.002c6 0 11.502 -1.5 16.502 -4.5
s7.5 -7.16699 7.5 -12.5c0 -12 -8 -18 -24 -18h-50l-21 -21v-225l12 -19c48.667 -21.333 98.667 -32 150 -32c96 0 177.833 32.667 245.5 98s101.5 141 101.5 227c0 67.333 -17.833 126 -53.5 176s-79.334 86.667 -131.001 110s-106.167 35 -163.5 35
c-48.667 0 -98.334 -11 -149.001 -33l-12 -19v-241l21 -21h50z" />
    <glyph glyph-name="Ntilde" unicode="&#xd1;" horiz-adv-x="780" 
d="M669 456c10 -38 15.001 -82.998 15.001 -134.998v-304c0 -5.33301 -2.5 -9.5 -7.5 -12.5s-10.167 -4.5 -15.5 -4.5c-16.667 0 -25 5.66699 -25 17v315c0 92 -25.167 170.5 -75.5 235.5s-114.5 97.5 -192.5 97.5c-57.333 0 -106.833 -16.833 -148.5 -50.5
s-71.834 -75.834 -90.501 -126.501s-28 -106.334 -28 -167.001v-304c0 -5.33301 -2.5 -9.5 -7.5 -12.5s-10.5 -4.5 -16.5 -4.5s-11.5 1.5 -16.5 4.5s-7.5 7.16699 -7.5 12.5v330c0 60.667 13 118 39 172s63.333 98.333 112 133s103 52 163 52c72 0 135.333 -23.5 190 -70.5
s92 -106.167 112 -177.5zM492.001 951.002l1.00195 -1c8.66699 -2 13 -8 13 -18c0 -14 -7.66699 -28.833 -23 -44.5s-35.333 -24.167 -60 -25.5h-7c-18.667 1.33301 -32.334 5 -41.001 11h-1l-18 13c-6 6 -10 9.66699 -12 11c-12 10.667 -23 16 -33 16
c-14 0 -28.667 -8.66699 -44 -26c-10 -12.667 -18 -19 -24 -19c-12 0 -18 3.66699 -18 11c0 15.333 9.66699 31 29 47s39 24 59 24c12.667 0 31.667 -8.66699 57 -26l11 -9c10 -10 23 -15 39 -15c20 0 33.333 7.33301 40 22l8 13c5.33301 10.667 11.666 16 18.999 16h5z" />
    <glyph glyph-name="Ograve" unicode="&#xd2;" horiz-adv-x="881" 
d="M672 614c39.333 -34 69.999 -74.166 91.999 -120.499s33 -94.833 33 -145.5c0 -70 -18.5 -132.833 -55.5 -188.5s-84 -97.834 -141 -126.501s-117.167 -43 -180.5 -43c-101.333 0 -189.666 34.833 -264.999 104.5s-113 154.167 -113 253.5c0 68 18.667 129.833 56 185.5
s84.833 98.167 142.5 127.5s118.167 44 181.5 44c94.667 0 178 -30.333 250 -91zM419.999 24.001c88 0 164.832 31.333 230.499 94s98.5 139.334 98.5 230.001c0 46 -7.66699 88 -23 126s-35 68.833 -59 92.5s-51 43.5 -81 59.5s-58.833 27.333 -86.5 34
s-54.167 10 -79.5 10c-52.667 0 -100.5 -10 -143.5 -30s-77.667 -45.833 -104 -77.5s-46.5 -66.167 -60.5 -103.5s-21 -74.333 -21 -111c0 -51.333 10.333 -98.333 31 -141s47.5 -76.834 80.5 -102.501s68.333 -45.5 106 -59.5s74.834 -21 111.501 -21zM310.998 993.001
l94.998 -96c6 -6 9 -11.333 9 -16c0 -6 -3.66699 -9 -11 -9c-5.33301 0 0.333984 -7.66699 17.001 -23c2 -2 4.33301 -4 7 -6h-55l15 36l-95 97c-5.33301 4 -8 9.33301 -8 16c0 5.33301 3 8 9 8c6.66699 0 12.334 -2.33301 17.001 -7z" />
    <glyph glyph-name="Oacute" unicode="&#xd3;" horiz-adv-x="881" 
d="M672 614c39.333 -34 69.999 -74.166 91.999 -120.499s33 -94.833 33 -145.5c0 -70 -18.5 -132.833 -55.5 -188.5s-84 -97.834 -141 -126.501s-117.167 -43 -180.5 -43c-101.333 0 -189.666 34.833 -264.999 104.5s-113 154.167 -113 253.5c0 68 18.667 129.833 56 185.5
s84.833 98.167 142.5 127.5s118.167 44 181.5 44c94.667 0 178 -30.333 250 -91zM419.999 24.001c88 0 164.832 31.333 230.499 94s98.5 139.334 98.5 230.001c0 46 -7.66699 88 -23 126s-35 68.833 -59 92.5s-51 43.5 -81 59.5s-58.833 27.333 -86.5 34
s-54.167 10 -79.5 10c-52.667 0 -100.5 -10 -143.5 -30s-77.667 -45.833 -104 -77.5s-46.5 -66.167 -60.5 -103.5s-21 -74.333 -21 -111c0 -51.333 10.333 -98.333 31 -141s47.5 -76.834 80.5 -102.501s68.333 -45.5 106 -59.5s74.834 -21 111.501 -21zM421.998 877.001
c0 6.66699 2.66699 12 8 16l94 94c5.33301 6 11.333 9 18 9s10 -3 10 -9c0 -5.33301 -2.66699 -10 -8 -14l-1 -1l-94 -97c-6 -4.66699 -11.333 -7 -16 -7c-7.33301 0 -11 3 -11 9z" />
    <glyph glyph-name="Ocircumflex" unicode="&#xd4;" horiz-adv-x="881" 
d="M672 614c39.333 -34 69.999 -74.166 91.999 -120.499s33 -94.833 33 -145.5c0 -70 -18.5 -132.833 -55.5 -188.5s-84 -97.834 -141 -126.501s-117.167 -43 -180.5 -43c-101.333 0 -189.666 34.833 -264.999 104.5s-113 154.167 -113 253.5c0 68 18.667 129.833 56 185.5
s84.833 98.167 142.5 127.5s118.167 44 181.5 44c94.667 0 178 -30.333 250 -91zM419.999 24.001c88 0 164.832 31.333 230.499 94s98.5 139.334 98.5 230.001c0 46 -7.66699 88 -23 126s-35 68.833 -59 92.5s-51 43.5 -81 59.5s-58.833 27.333 -86.5 34
s-54.167 10 -79.5 10c-52.667 0 -100.5 -10 -143.5 -30s-77.667 -45.833 -104 -77.5s-46.5 -66.167 -60.5 -103.5s-21 -74.333 -21 -111c0 -51.333 10.333 -98.333 31 -141s47.5 -76.834 80.5 -102.501s68.333 -45.5 106 -59.5s74.834 -21 111.501 -21zM439.998 974.001
l96.999 -107l1 -2v-2c0 -6.66699 -1.66699 -10 -5 -10c-7.33301 0 -14.666 3.33301 -21.999 10v1l-73 69h-30l-73 -69v-1c-6.66699 -6.66699 -14 -10 -22 -10c-2.66699 0 -4 3.33301 -4 10v2l1 2l95 107c7.33301 7.33301 13.333 11 18 11c4 0 9.66699 -3.66699 17 -11z" />
    <glyph glyph-name="Otilde" unicode="&#xd5;" horiz-adv-x="881" 
d="M672 614c39.333 -34 69.999 -74.166 91.999 -120.499s33 -94.833 33 -145.5c0 -70 -18.5 -132.833 -55.5 -188.5s-84 -97.834 -141 -126.501s-117.167 -43 -180.5 -43c-101.333 0 -189.666 34.833 -264.999 104.5s-113 154.167 -113 253.5c0 68 18.667 129.833 56 185.5
s84.833 98.167 142.5 127.5s118.167 44 181.5 44c94.667 0 178 -30.333 250 -91zM419.999 24.001c88 0 164.832 31.333 230.499 94s98.5 139.334 98.5 230.001c0 46 -7.66699 88 -23 126s-35 68.833 -59 92.5s-51 43.5 -81 59.5s-58.833 27.333 -86.5 34
s-54.167 10 -79.5 10c-52.667 0 -100.5 -10 -143.5 -30s-77.667 -45.833 -104 -77.5s-46.5 -66.167 -60.5 -103.5s-21 -74.333 -21 -111c0 -51.333 10.333 -98.333 31 -141s47.5 -76.834 80.5 -102.501s68.333 -45.5 106 -59.5s74.834 -21 111.501 -21zM545.998 951.001
l1.00098 -1c8.66699 -2 13 -8 13 -18c0 -14 -7.66699 -28.833 -23 -44.5s-35.333 -24.167 -60 -25.5h-7c-18.667 1.33301 -32 5 -40 11h-2l-18 13c-6 6 -10 9.66699 -12 11c-12 10.667 -23 16 -33 16c-14 0 -28.667 -8.66699 -44 -26c-10 -12.667 -18 -19 -24 -19
c-12 0 -18 3.66699 -18 11c0 15.333 9.66699 31 29 47s39 24 59 24c12.667 0 31.667 -8.66699 57 -26l11 -9c10 -10 23 -15 39 -15c20 0 33.333 7.33301 40 22l8 13c5.33301 10.667 11.666 16 18.999 16h5z" />
    <glyph glyph-name="Odieresis" unicode="&#xd6;" horiz-adv-x="881" 
d="M672 614c39.333 -34 69.999 -74.166 91.999 -120.499s33 -94.833 33 -145.5c0 -70 -18.5 -132.833 -55.5 -188.5s-84 -97.834 -141 -126.501s-117.167 -43 -180.5 -43c-101.333 0 -189.666 34.833 -264.999 104.5s-113 154.167 -113 253.5c0 68 18.667 129.833 56 185.5
s84.833 98.167 142.5 127.5s118.167 44 181.5 44c94.667 0 178 -30.333 250 -91zM419.999 24.001c88 0 164.832 31.333 230.499 94s98.5 139.334 98.5 230.001c0 46 -7.66699 88 -23 126s-35 68.833 -59 92.5s-51 43.5 -81 59.5s-58.833 27.333 -86.5 34
s-54.167 10 -79.5 10c-52.667 0 -100.5 -10 -143.5 -30s-77.667 -45.833 -104 -77.5s-46.5 -66.167 -60.5 -103.5s-21 -74.333 -21 -111c0 -51.333 10.333 -98.333 31 -141s47.5 -76.834 80.5 -102.501s68.333 -45.5 106 -59.5s74.834 -21 111.501 -21zM342.998 897.001
c0 -8.66699 -2.83301 -15.834 -8.5 -21.501s-12.167 -8.5 -19.5 -8.5c-8 0 -14.833 2.83301 -20.5 8.5s-8.5 12.834 -8.5 21.501c0 8 2.83301 15.167 8.5 21.5s12.5 9.5 20.5 9.5c7.33301 0 13.833 -3.16699 19.5 -9.5s8.5 -13.5 8.5 -21.5zM561.998 897.001
c0 -8.66699 -2.66895 -15.834 -8.00195 -21.501s-11.666 -8.5 -18.999 -8.5c-8 0 -14.833 2.83301 -20.5 8.5s-8.5 12.834 -8.5 21.501c0 8 2.83301 15.167 8.5 21.5s12.5 9.5 20.5 9.5c6.66699 0 12.834 -3.16699 18.501 -9.5s8.5 -13.5 8.5 -21.5z" />
    <glyph glyph-name="multiply" unicode="&#xd7;" horiz-adv-x="568" 
d="M247 222l-177 -177l-24 25l177 177v30l-176 177l24 25l178 -177h30l177 177l24 -25l-177 -177v-30l176 -177l-25 -24l-177 176h-30z" />
    <glyph glyph-name="Oslash" unicode="&#xd8;" horiz-adv-x="881" 
d="M648 738l-32.999 -60.999l8 -28c9.33301 -6 25.666 -18 48.999 -36c39.333 -34 70 -74 92 -120s33 -94.333 33 -145c0 -70 -18.5 -132.833 -55.5 -188.5s-84 -97.834 -141 -126.501s-117.167 -43 -180.5 -43c-44 0 -89.667 8.66699 -137 26l-26 -10l-22 -39
c-5.33301 -10.667 -14 -16 -26 -16c-14 0 -21 4.66699 -21 14c0 1.33301 0.333008 2.33301 1 3l2 10l1 -3l26 49l-7 28c-52 32 -93.167 74 -123.5 126s-45.5 108.667 -45.5 170c0 68 18.667 129.833 56 185.5s84.833 98.167 142.5 127.5s118.167 44 181.5 44
c45.333 0 88 -7.33301 128 -22l27 11l28 52c4.66699 9.33301 13 14 25 14c14 0 21 -4.66699 21 -14v-3l-2 -3zM420.001 24.001c88 0 164.834 31.332 230.501 93.999s98.5 139.334 98.5 230.001c0 117.333 -47 206 -141 266l-31 -8l-283 -532l11 -29
c39.333 -14 77.666 -21 114.999 -21zM91.002 348c0 -57.333 12.332 -108 36.999 -152s57.334 -80 98.001 -108l31 7l282 528l-13 29c-36 12 -71.333 18 -106 18c-52.667 0 -100.5 -10 -143.5 -30s-77.667 -45.833 -104 -77.5s-46.5 -66.167 -60.5 -103.5
s-21 -74.333 -21 -111z" />
    <glyph glyph-name="Ugrave" unicode="&#xd9;" horiz-adv-x="780" 
d="M669 239c-20 -72 -57.498 -131.499 -112.498 -178.499s-118.167 -70.5 -189.5 -70.5c-64 0 -120.667 18.667 -170 56s-85.666 82.666 -108.999 135.999s-35 108.666 -35 165.999v336c0 5.33301 2.5 9.5 7.5 12.5s10.5 4.5 16.5 4.5s11.5 -1.5 16.5 -4.5
s7.5 -7.16699 7.5 -12.5v-311c0 -55.333 8 -105.5 24 -150.5s36.833 -81.167 62.5 -108.5s54 -48.166 85 -62.499s62.833 -21.5 95.5 -21.5c41.333 0 78.166 7.83301 110.499 23.5s58.166 35.334 77.499 59.001s35.166 51 47.499 82s20.833 60.333 25.5 88s7 54.5 7 80.5
v321c0 11.333 8.33301 17 25 17c5.33301 0 10.5 -1.5 15.5 -4.5s7.5 -7.16699 7.5 -12.5v-311c0 -52.667 -5 -97.334 -15 -134.001zM259.002 993.001l94.999 -95.998c6 -6 9 -11.333 9 -16c0 -6 -3.66699 -9 -11 -9c-5.33301 0 0 -7 16 -21
c2.66699 -2.66699 5.66699 -5.33398 9 -8.00098h-56l15 36l-95 97c-5.33301 5.33301 -8 10.666 -8 15.999s3 8 9 8c6.66699 0 12.334 -2.33301 17.001 -7z" />
    <glyph glyph-name="Uacute" unicode="&#xda;" horiz-adv-x="780" 
d="M669 239c-20 -72 -57.498 -131.499 -112.498 -178.499s-118.167 -70.5 -189.5 -70.5c-64 0 -120.667 18.667 -170 56s-85.666 82.666 -108.999 135.999s-35 108.666 -35 165.999v336c0 5.33301 2.5 9.5 7.5 12.5s10.5 4.5 16.5 4.5s11.5 -1.5 16.5 -4.5
s7.5 -7.16699 7.5 -12.5v-311c0 -55.333 8 -105.5 24 -150.5s36.833 -81.167 62.5 -108.5s54 -48.166 85 -62.499s62.833 -21.5 95.5 -21.5c41.333 0 78.166 7.83301 110.499 23.5s58.166 35.334 77.499 59.001s35.166 51 47.499 82s20.833 60.333 25.5 88s7 54.5 7 80.5
v321c0 11.333 8.33301 17 25 17c5.33301 0 10.5 -1.5 15.5 -4.5s7.5 -7.16699 7.5 -12.5v-311c0 -52.667 -5 -97.334 -15 -134.001zM370.002 877.001c0 6.66699 2.66699 12 8 16l94 94c5.33301 6 11.333 9 18 9s10 -3 10 -9c0 -5.33301 -2.66699 -10 -8 -14l-1 -1l-94 -97
c-6 -4.66699 -11.333 -7 -16 -7c-7.33301 0 -11 3 -11 9z" />
    <glyph glyph-name="Ucircumflex" unicode="&#xdb;" horiz-adv-x="780" 
d="M669 239c-20 -72 -57.498 -131.499 -112.498 -178.499s-118.167 -70.5 -189.5 -70.5c-64 0 -120.667 18.667 -170 56s-85.666 82.666 -108.999 135.999s-35 108.666 -35 165.999v336c0 5.33301 2.5 9.5 7.5 12.5s10.5 4.5 16.5 4.5s11.5 -1.5 16.5 -4.5
s7.5 -7.16699 7.5 -12.5v-311c0 -55.333 8 -105.5 24 -150.5s36.833 -81.167 62.5 -108.5s54 -48.166 85 -62.499s62.833 -21.5 95.5 -21.5c41.333 0 78.166 7.83301 110.499 23.5s58.166 35.334 77.499 59.001s35.166 51 47.499 82s20.833 60.333 25.5 88s7 54.5 7 80.5
v321c0 11.333 8.33301 17 25 17c5.33301 0 10.5 -1.5 15.5 -4.5s7.5 -7.16699 7.5 -12.5v-311c0 -52.667 -5 -97.334 -15 -134.001zM388.002 974.001l97 -107l1 -2v-2c0 -6.66699 -1.33301 -10 -4 -10c-8 0 -15.667 3.33301 -23 10v1l-73 69h-30l-73 -69v-1
c-6.66699 -6.66699 -14 -10 -22 -10c-2.66699 0 -4 3.33301 -4 10v2l1 2l95 107c7.33301 7.33301 13.333 11 18 11c4 0 9.66699 -3.66699 17 -11z" />
    <glyph glyph-name="Udieresis" unicode="&#xdc;" horiz-adv-x="780" 
d="M669 239c-20 -72 -57.498 -131.499 -112.498 -178.499s-118.167 -70.5 -189.5 -70.5c-64 0 -120.667 18.667 -170 56s-85.666 82.666 -108.999 135.999s-35 108.666 -35 165.999v336c0 5.33301 2.5 9.5 7.5 12.5s10.5 4.5 16.5 4.5s11.5 -1.5 16.5 -4.5
s7.5 -7.16699 7.5 -12.5v-311c0 -55.333 8 -105.5 24 -150.5s36.833 -81.167 62.5 -108.5s54 -48.166 85 -62.499s62.833 -21.5 95.5 -21.5c41.333 0 78.166 7.83301 110.499 23.5s58.166 35.334 77.499 59.001s35.166 51 47.499 82s20.833 60.333 25.5 88s7 54.5 7 80.5
v321c0 11.333 8.33301 17 25 17c5.33301 0 10.5 -1.5 15.5 -4.5s7.5 -7.16699 7.5 -12.5v-311c0 -52.667 -5 -97.334 -15 -134.001zM510.002 897.001c0 -8.66699 -2.66895 -15.834 -8.00195 -21.501s-11.666 -8.5 -18.999 -8.5c-8 0 -14.833 2.83301 -20.5 8.5
s-8.5 12.834 -8.5 21.501c0 8 2.83301 15.167 8.5 21.5s12.5 9.5 20.5 9.5c6.66699 0 12.834 -3.16699 18.501 -9.5s8.5 -13.5 8.5 -21.5zM291 897.001c0 -8.66699 -2.83301 -15.834 -8.5 -21.501s-12.167 -8.5 -19.5 -8.5c-8 0 -14.833 2.83301 -20.5 8.5
s-8.5 12.834 -8.5 21.501c0 8 2.83301 15.167 8.5 21.5s12.5 9.5 20.5 9.5c7.33301 0 13.833 -3.16699 19.5 -9.5s8.5 -13.5 8.5 -21.5z" />
    <glyph glyph-name="Yacute" unicode="&#xdd;" horiz-adv-x="778" 
d="M660 701c5.33301 0 10.5 -1.5 15.5 -4.5s7.5 -7.16699 7.5 -12.5c0 -79.333 -23.333 -153.5 -70 -222.5s-107 -110.5 -181 -124.5l-24 -4l-17 -21v-295c0 -11.333 -7.66699 -17 -23 -17c-16 0 -24 5.66699 -24 17v295l-18 21
c-84.667 12.667 -151.334 53.5 -200.001 122.5s-73 145.167 -73 228.5c0 5.33301 2.5 9.5 7.5 12.5s10.167 4.5 15.5 4.5c16.667 0 25 -5.66699 25 -17c0 -49.333 9.83301 -97.833 29.5 -145.5s50.5 -88.667 92.5 -123s90.333 -51.5 145 -51.5
c78.667 0 142.834 32.333 192.501 97s74.5 139 74.5 223c0 11.333 8.33301 17 25 17zM370 877c0 6.66699 2.66699 12 8 16l94 94c5.33301 6 11.333 9 18 9s10 -3 10 -9c0 -5.33301 -2.66699 -10 -8 -14l-1 -1l-94 -97c-6 -4.66699 -11.333 -7 -16 -7c-7.33301 0 -11 3 -11 9
z" />
    <glyph glyph-name="Thorn" unicode="&#xde;" horiz-adv-x="533" 
d="M491 397c0 -68 -21.5 -121.333 -64.5 -160s-103.5 -58 -181.5 -58h-123l-21 -21v-159h-52v730h53v-104l21 -22h103c176.667 0 265 -68.667 265 -206zM438 393c0 110.667 -69.333 166 -208 166h-108l-21 -21v-293l21 -21h109c138 0 207 56.333 207 169z" />
    <glyph glyph-name="germandbls" unicode="&#xdf;" horiz-adv-x="1876" 
d="M500 349c22.667 -4.66699 42.6738 -9.32715 60.0068 -13.9941s37.333 -11.5 60 -20.5s41.667 -18.833 57 -29.5s28.666 -24.334 39.999 -41.001s18 -35.334 20 -56.001c-0.666992 -34.667 -11.5 -65.5 -32.5 -92.5s-47.833 -47.833 -80.5 -62.5s-66 -25.5 -100 -32.5
s-67 -10.5 -99 -10.5c-47.333 0 -96.333 5 -147 15c-108.667 24 -163 49 -163 75c0 4.66699 2.16699 8.83398 6.5 12.501s9.83301 5.5 16.5 5.5c4.66699 0 17.667 -5.66699 39 -17v-1c17.333 -10 30.333 -16.667 39 -20c66 -24 135.333 -36 208 -36
c40 0 79.667 5.66699 119 17s73.166 29.333 101.499 54s42.5 53 42.5 85c0 15.333 -4 29.666 -12 42.999s-17.167 24.666 -27.5 33.999s-25 18 -44 26s-35.333 14.333 -49 19s-32.5 9.5 -56.5 14.5s-41 8.33301 -51 10s-26 4.16699 -48 7.5c-14 2 -26.333 4 -37 6
c-20 4 -36.5 7.5 -49.5 10.5s-30.833 7.66699 -53.5 14s-41.334 13.666 -56.001 21.999s-29.834 18 -45.501 29s-27.334 24.5 -35.001 40.5s-11.5 33.333 -11.5 52c0 16 3.66699 32 11 48c25.333 50.667 66.166 87.5 122.499 110.5s118.833 34.5 187.5 34.5
c60 0 122.333 -7.66699 187 -23s97 -35 97 -59c0 -4.66699 -2.5 -8.83398 -7.5 -12.501s-10.5 -5.5 -16.5 -5.5c-5.33301 0 -9 0.666992 -11 2h-1c-74 42.667 -158 64 -252 64c-23.333 0 -49.166 -2.83301 -77.499 -8.5s-57.5 -14.167 -87.5 -25.5s-55 -28 -75 -50
s-30 -47 -30 -75c0 -16 3.66699 -30.667 11 -44s19.166 -24.833 35.499 -34.5s31.833 -18 46.5 -25s35.167 -13.5 61.5 -19.5s46.666 -10.333 60.999 -13s35.5 -6.33398 63.5 -11.001c8 -2 18.667 -4 32 -6s23 -3.66699 29 -5zM1402.01 349.007
c29.333 -6 54.8418 -12.3291 76.5088 -18.9961s45.667 -16 72 -28s47.166 -27.667 62.499 -47s24.333 -41.666 27 -66.999c-0.666992 -34.667 -11.5 -65.5 -32.5 -92.5s-47.833 -47.833 -80.5 -62.5s-66 -25.5 -100 -32.5s-67 -10.5 -99 -10.5c-48 0 -97.333 5 -148 15
c-108.667 24.667 -163 49.667 -163 75c0 4.66699 2.33301 8.83398 7 12.501s10 5.5 16 5.5c5.33301 0 18.666 -5.66699 39.999 -17v-1c14 -8.66699 27 -15.334 39 -20.001c65.333 -24 134.666 -36 207.999 -36c40 0 79.5 5.66699 118.5 17s72.833 29.333 101.5 54
s43 53 43 85c0 15.333 -3.83301 29.666 -11.5 42.999s-16.834 24.666 -27.501 33.999s-25.5 18 -44.5 26s-35.333 14.333 -49 19s-32.5 9.5 -56.5 14.5s-41.333 8.33301 -52 10l-48 7.5l-37 6c-20 4 -36.5 7.5 -49.5 10.5s-30.667 7.66699 -53 14s-41 13.666 -56 21.999
s-30.167 18 -45.5 29s-26.833 24.5 -34.5 40.5s-11.5 33.333 -11.5 52c0 18 3.66699 34 11 48c25.333 50.667 66 87.5 122 110.5s118.333 34.5 187 34.5c60 0 122.333 -7.66699 187 -23s97 -35 97 -59c0 -4.66699 -2.33301 -8.83398 -7 -12.501s-10.334 -5.5 -17.001 -5.5
c-4.66699 0 -8.33398 0.666992 -11.001 2h-1c-73.333 42.667 -157 64 -251 64c-23.333 0 -49.333 -2.83301 -78 -8.5s-57.834 -14.167 -87.501 -25.5s-54.5 -28 -74.5 -50s-30 -47 -30 -75c0 -16 3.66699 -30.667 11 -44s19.166 -24.833 35.499 -34.5s31.833 -18 46.5 -25
s35.167 -13.5 61.5 -19.5s46.666 -10.333 60.999 -13s35.5 -6.33398 63.5 -11.001c8 -2 18.667 -4 32 -6s23 -3.66699 29 -5z" />
    <glyph glyph-name="agrave" unicode="&#xe0;" horiz-adv-x="594" 
d="M273 410c55.333 0 105.5 -19.832 150.5 -59.499s67.5 -87.167 67.5 -142.5v-78c0 -20 0.666992 -34 2 -42l1 -1c5.33301 -20.667 18.333 -39.667 39 -57c12.667 -11.333 19 -19 19 -23c0 -4.66699 -2.5 -8.66699 -7.5 -12s-10.5 -5 -16.5 -5
c-3.33301 0 -8.33301 1.33301 -15 4l-1 1c-24 9.33301 -41.667 26.666 -53 51.999l-34 6c-44 -42 -97 -63 -159 -63c-61.333 0 -114 19.667 -158 59s-66 88.333 -66 147c0 45.333 12.167 84.833 36.5 118.5s53.5 58 87.5 73s69.667 22.5 107 22.5zM266 24.001
c46.667 0 87.667 16.833 123 50.5s53 75.5 53 125.5c0 57.333 -19 101.166 -57 131.499s-77.667 45.5 -119 45.5c-56 0 -99.333 -18.667 -130 -56s-46 -77.666 -46 -120.999c0 -48 17.333 -89.333 52 -124s76 -52 124 -52zM155 692.001l95 -96c6 -4.66699 9 -10 9 -16
s-3.66699 -9 -11 -9c-6 0 1 -8.66699 21 -26c1.33301 -0.666992 2.66602 -1.66699 3.99902 -3h-56l15 36l-95 97c-5.33301 5.33301 -8 10.333 -8 15c0 6 3 9 9 9c6.66699 0 12.334 -2.33301 17.001 -7z" />
    <glyph glyph-name="aacute" unicode="&#xe1;" horiz-adv-x="594" 
d="M273 410c55.333 0 105.5 -19.832 150.5 -59.499s67.5 -87.167 67.5 -142.5v-78c0 -20 0.666992 -34 2 -42l1 -1c5.33301 -20.667 18.333 -39.667 39 -57c12.667 -11.333 19 -19 19 -23c0 -4.66699 -2.5 -8.66699 -7.5 -12s-10.5 -5 -16.5 -5
c-3.33301 0 -8.33301 1.33301 -15 4l-1 1c-24 9.33301 -41.667 26.666 -53 51.999l-34 6c-44 -42 -97 -63 -159 -63c-61.333 0 -114 19.667 -158 59s-66 88.333 -66 147c0 45.333 12.167 84.833 36.5 118.5s53.5 58 87.5 73s69.667 22.5 107 22.5zM266 24.001
c46.667 0 87.667 16.833 123 50.5s53 75.5 53 125.5c0 57.333 -19 101.166 -57 131.499s-77.667 45.5 -119 45.5c-56 0 -99.333 -18.667 -130 -56s-46 -77.666 -46 -120.999c0 -48 17.333 -89.333 52 -124s76 -52 124 -52zM266 576.001c0 6.66699 2.66699 12 8 16l94 94
c5.33301 6 11.333 9 18 9s10 -3 10 -9c0 -4.66699 -2.66699 -9.66699 -8 -15l-1 -1l-94 -96c-6.66699 -5.33301 -12 -8 -16 -8c-2.66699 0 -5.16699 1 -7.5 3s-3.5 4.33301 -3.5 7z" />
    <glyph glyph-name="acircumflex" unicode="&#xe2;" horiz-adv-x="594" 
d="M273 410c55.333 0 105.5 -19.832 150.5 -59.499s67.5 -87.167 67.5 -142.5v-78c0 -20 0.666992 -34 2 -42l1 -1c5.33301 -20.667 18.333 -39.667 39 -57c12.667 -11.333 19 -19 19 -23c0 -4.66699 -2.5 -8.66699 -7.5 -12s-10.5 -5 -16.5 -5
c-3.33301 0 -8.33301 1.33301 -15 4l-1 1c-24 9.33301 -41.667 26.666 -53 51.999l-34 6c-44 -42 -97 -63 -159 -63c-61.333 0 -114 19.667 -158 59s-66 88.333 -66 147c0 45.333 12.167 84.833 36.5 118.5s53.5 58 87.5 73s69.667 22.5 107 22.5zM266 24.001
c46.667 0 87.667 16.833 123 50.5s53 75.5 53 125.5c0 57.333 -19 101.166 -57 131.499s-77.667 45.5 -119 45.5c-56 0 -99.333 -18.667 -130 -56s-46 -77.666 -46 -120.999c0 -48 17.333 -89.333 52 -124s76 -52 124 -52zM284 672.001l96.999 -107l1 -1v-2
c0 -6.66699 -1.33301 -10 -4 -10c-8 0 -15.667 3.33301 -23 10v1l-73 69h-30l-73 -69v-1c-6.66699 -6.66699 -14 -10 -22 -10c-2.66699 0 -4 3.33301 -4 10v2l1 1l95 107c8 8 14 12 18 12c4.66699 0 10.334 -4 17.001 -12z" />
    <glyph glyph-name="atilde" unicode="&#xe3;" horiz-adv-x="594" 
d="M273 410c55.333 0 105.5 -19.832 150.5 -59.499s67.5 -87.167 67.5 -142.5v-78c0 -20 0.666992 -34 2 -42l1 -1c5.33301 -20.667 18.333 -39.667 39 -57c12.667 -11.333 19 -19 19 -23c0 -4.66699 -2.5 -8.66699 -7.5 -12s-10.5 -5 -16.5 -5
c-3.33301 0 -8.33301 1.33301 -15 4l-1 1c-24 9.33301 -41.667 26.666 -53 51.999l-34 6c-44 -42 -97 -63 -159 -63c-61.333 0 -114 19.667 -158 59s-66 88.333 -66 147c0 45.333 12.167 84.833 36.5 118.5s53.5 58 87.5 73s69.667 22.5 107 22.5zM266 24.001
c46.667 0 87.667 16.833 123 50.5s53 75.5 53 125.5c0 57.333 -19 101.166 -57 131.499s-77.667 45.5 -119 45.5c-56 0 -99.333 -18.667 -130 -56s-46 -77.666 -46 -120.999c0 -48 17.333 -89.333 52 -124s76 -52 124 -52zM390 650.001l1.00098 -1c8.66699 -2 13 -8 13 -18
c0 -14 -7.66699 -28.833 -23 -44.5s-35.333 -24.167 -60 -25.5h-7c-18.667 1.33301 -32 5 -40 11h-1l-18 12c-6.66699 6.66699 -11 10.667 -13 12c-14 10.667 -25 16 -33 16c-14 0 -28.667 -9 -44 -27c-11.333 -12.667 -19.333 -19 -24 -19c-12 0 -18 4 -18 12
c0 15.333 9.66699 31 29 47s39 24 59 24c12.667 0 31.667 -8.66699 57 -26l11 -9c10 -10 23 -15 39 -15c20 0 33.333 7 40 21l8 14c5.33301 10.667 11.666 16 18.999 16h5z" />
    <glyph glyph-name="adieresis" unicode="&#xe4;" horiz-adv-x="594" 
d="M273 410c55.333 0 105.5 -19.832 150.5 -59.499s67.5 -87.167 67.5 -142.5v-78c0 -20 0.666992 -34 2 -42l1 -1c5.33301 -20.667 18.333 -39.667 39 -57c12.667 -11.333 19 -19 19 -23c0 -4.66699 -2.5 -8.66699 -7.5 -12s-10.5 -5 -16.5 -5
c-3.33301 0 -8.33301 1.33301 -15 4l-1 1c-24 9.33301 -41.667 26.666 -53 51.999l-34 6c-44 -42 -97 -63 -159 -63c-61.333 0 -114 19.667 -158 59s-66 88.333 -66 147c0 45.333 12.167 84.833 36.5 118.5s53.5 58 87.5 73s69.667 22.5 107 22.5zM266 24.001
c46.667 0 87.667 16.833 123 50.5s53 75.5 53 125.5c0 57.333 -19 101.166 -57 131.499s-77.667 45.5 -119 45.5c-56 0 -99.333 -18.667 -130 -56s-46 -77.666 -46 -120.999c0 -48 17.333 -89.333 52 -124s76 -52 124 -52zM187 596.001c0 -8.66699 -2.83301 -16 -8.5 -22
s-12.167 -9 -19.5 -9c-8 0 -14.833 3 -20.5 9s-8.5 13.333 -8.5 22c0 8 2.83301 15.167 8.5 21.5s12.5 9.5 20.5 9.5c7.33301 0 13.833 -3.16699 19.5 -9.5s8.5 -13.5 8.5 -21.5zM406 596.001c0 -8.66699 -2.66895 -16 -8.00195 -22s-11.666 -9 -18.999 -9
c-8 0 -14.833 3 -20.5 9s-8.5 13.333 -8.5 22c0 8 2.83301 15.167 8.5 21.5s12.5 9.5 20.5 9.5c6.66699 0 12.834 -3.16699 18.501 -9.5s8.5 -13.5 8.5 -21.5z" />
    <glyph glyph-name="aring" unicode="&#xe5;" horiz-adv-x="594" 
d="M273 410c55.333 0 105.5 -19.832 150.5 -59.499s67.5 -87.167 67.5 -142.5v-78c0 -20 0.666992 -34 2 -42l1 -1c5.33301 -20.667 18.333 -39.667 39 -57c12.667 -11.333 19 -19 19 -23c0 -4.66699 -2.5 -8.66699 -7.5 -12s-10.5 -5 -16.5 -5
c-3.33301 0 -8.33301 1.33301 -15 4l-1 1c-24 9.33301 -41.667 26.666 -53 51.999l-34 6c-44 -42 -97 -63 -159 -63c-61.333 0 -114 19.667 -158 59s-66 88.333 -66 147c0 45.333 12.167 84.833 36.5 118.5s53.5 58 87.5 73s69.667 22.5 107 22.5zM266 24.001
c46.667 0 87.667 16.833 123 50.5s53 75.5 53 125.5c0 57.333 -19 101.166 -57 131.499s-77.667 45.5 -119 45.5c-56 0 -99.333 -18.667 -130 -56s-46 -77.666 -46 -120.999c0 -48 17.333 -89.333 52 -124s76 -52 124 -52zM340 712.001v-1c19.333 -18 29 -41.333 29 -70
s-10.5 -51.5 -31.5 -68.5s-44.833 -25.5 -71.5 -25.5c-24.667 0 -47.167 9.16699 -67.5 27.5s-30.5 39.5 -30.5 63.5c0 32.667 11 56.667 33 72s45.667 23 71 23c31.333 0 54 -7 68 -21zM275 565.001c18.667 2.66699 33.833 11.335 45.5 26.002s17.5 31 17.5 49
c0 20 -5.5 37.167 -16.5 51.5s-25.5 23.5 -43.5 27.5l-5 1h-11c-19.333 -2.66699 -34.666 -11.334 -45.999 -26.001s-17 -32.334 -17 -53.001c0 -18 5.66699 -34.333 17 -49s26.666 -23.667 45.999 -27h13z" />
    <glyph glyph-name="ae" unicode="&#xe6;" horiz-adv-x="871" 
d="M774 120c6 0 11.3291 -1.82812 15.9961 -5.49512s7 -7.83398 7 -12.501c0 -2.66699 -1 -5.33398 -3 -8.00098c-21.333 -31.333 -49.5 -56.5 -84.5 -75.5s-71.5 -28.5 -109.5 -28.5c-68 0 -124 25 -168 75l-27 4c-8.66699 -4.66699 -21 -11.667 -37 -21
c-23.333 -14 -41.166 -24 -53.499 -30s-29.333 -12.167 -51 -18.5s-44.167 -9.5 -67.5 -9.5c-37.333 0 -72.333 9.16699 -105 27.5s-49 45.166 -49 80.499c0 28.667 12.5 53.5 37.5 74.5s55.167 36.833 90.5 47.5c8.66699 2.66699 29 6.66699 61 12h1l36.5 7
c7 1.33301 18 3.83301 33 7.5s25.833 7.16699 32.5 10.5s14.334 7.5 23.001 12.5s14.834 10.833 18.501 17.5s5.5 14.334 5.5 23.001c0 22 -12.5 39.167 -37.5 51.5s-50.167 18.5 -75.5 18.5c-24.667 0 -51 -4.66699 -79 -14h-1c-12 -4 -25.333 -10 -40 -18
c-21.333 -12 -34.666 -18 -39.999 -18c-15.333 0 -23 5.66699 -23 17c0 4.66699 1 7.66699 3 9l15 11c51.333 30.667 106 46 164 46c28.667 0 57.334 -5 86.001 -15s49.667 -25.333 63 -46l33 -3c42 40.667 90.333 61 145 61c16 0 31.333 -1 46 -3s31 -6 49 -12
s32.5 -16 43.5 -30s16.5 -31 16.5 -51c0 -22 -9.16699 -43.833 -27.5 -65.5s-41.833 -40.334 -70.5 -56.001s-58.334 -29.334 -89.001 -41.001s-60 -19.834 -88 -24.501l-12 -35l10 -10c32 -38 75 -57 129 -57c23.333 0 44.5 4 63.5 12s33 15.833 42 23.5
s19.5 18.167 31.5 31.5c17.333 18.667 29.333 28 36 28zM379.996 135.005l0.00195312 71.999l-31 19c-12 -6 -42 -13.667 -90 -23c-28 -5.33301 -48.833 -9.83301 -62.5 -13.5s-30.334 -9.5 -50.001 -17.5s-33.834 -18.167 -42.501 -30.5s-13 -27.166 -13 -44.499
c0 -23.333 11.167 -41.5 33.5 -54.5s45.5 -19.5 69.5 -19.5c36.667 0 73.5 9.16699 110.5 27.5s61.833 43.833 74.5 76.5zM597.998 377.004c-44 0 -83 -17.999 -117 -53.999s-52 -77.667 -54 -125v-13c0 -1.33301 0.166992 -2.5 0.5 -3.5s0.5 -1.83301 0.5 -2.5l25 -21
c44 7.33301 88 21.5 132 42.5s78.333 47.833 103 80.5c6.66699 5.33301 10 14.666 10 27.999c0 45.333 -33.333 68 -100 68z" />
    <glyph glyph-name="ccedilla" unicode="&#xe7;" horiz-adv-x="607" 
d="M291 -40l1.99609 -6.99609l9 -11c13.333 -8 24.333 -19.833 33 -35.5s13 -31.834 13 -48.501c0 -26 -9.33301 -48.333 -28 -67c-20 -18.667 -42.667 -28 -68 -28c-5.33301 0 -10 2 -14 6s-6 8.66699 -6 14c0 4.66699 2 9.16699 6 13.5s8.66699 6.5 14 6.5h5l10 2
c12.667 1.33301 22.667 7.16602 30 17.499s11 22.166 11 35.499c0 18.667 -4.66699 31.834 -14 39.501s-22.333 13.834 -39 18.501c-15.333 4 -23 10.333 -23 19l1 2l2.5 5c1 2 2.16699 4 3.5 6c0 0.666992 0.5 2.16699 1.5 4.5s1.83301 4.16602 2.5 5.49902l3 8l-16 29
c-49.333 9.33301 -92.166 32.666 -128.499 69.999s-54.5 81.666 -54.5 132.999c0 62.667 23 114.334 69 155.001c42.667 37.333 94 56 154 56c61.333 0 113.333 -19.333 156 -58c4.66699 -4.66699 7 -8.66699 7 -12c0 -4.66699 -2 -8 -6 -10
c-4.66699 -4.66699 -11 -7 -19 -7c-5.33301 0 -11 2.33301 -17 7c-3.33301 3.33301 -7.66602 6.83301 -12.999 10.5s-8.66602 6.16699 -9.99902 7.5l-1 1c-29.333 19.333 -61 29 -95 29c-46.667 0 -87.834 -17.167 -123.501 -51.5s-53.5 -75.5 -53.5 -123.5
c0 -64.667 26 -114.334 78 -149.001c27.333 -19.333 59.333 -29 96 -29c36 0 68.667 9.66699 98 29l1 1c8 5.33301 16.333 12.333 25 21c4.66699 4.66699 10.334 7 17.001 7c8.66699 0 15.334 -2.33301 20.001 -7l1 -1c3.33301 -2 5 -5 5 -9c0 -4.66699 -2 -8.66699 -6 -12
l-2 -1c-13.333 -14.667 -30 -26.667 -50 -36c-24 -12 -47 -19.333 -69 -22l-12 -7c-4.66699 -4.66699 -7 -11 -7 -19v-2z" />
    <glyph glyph-name="egrave" unicode="&#xe8;" horiz-adv-x="532" 
d="M436 120c5.33301 0 10.334 -1.82812 15.001 -5.49512s7 -7.83398 7 -12.501c0 -2.66699 -0.666992 -5.33398 -2 -8.00098c-20.667 -31.333 -48.834 -56.5 -84.501 -75.5s-72.167 -28.5 -109.5 -28.5c-46.667 0 -89.5 13.167 -128.5 39.5s-66.833 63.166 -83.5 110.499
c-5.33301 19.333 -8 37.666 -8 54.999c0 57.333 21.5 107.5 64.5 150.5s92.833 64.5 149.5 64.5c15.333 0 30.5 -1 45.5 -3s31.333 -6 49 -12s32 -16 43 -30s16.5 -31 16.5 -51c0 -28.667 -15.833 -56.834 -47.5 -84.501s-67.834 -50 -108.501 -67s-80 -28.833 -118 -35.5
l-12 -35l10 -10c32 -38 75 -57 129 -57c22.667 0 43.667 4 63 12s33.333 15.667 42 23s19.334 18 32.001 32c17.333 18.667 29.333 28 36 28zM260.001 377.005c-44.667 0 -84.333 -19 -119 -57s-52 -81 -52 -129v-6c0 -1.33301 0.166992 -2.5 0.5 -3.5
s0.5 -1.83301 0.5 -2.5l25 -21c44 7.33301 88 21.5 132 42.5s78.333 47.833 103 80.5c6.66699 6.66699 10 16 10 28c0 45.333 -33.333 68 -100 68zM157.002 692.005l95 -96c6 -4.66699 9 -10 9 -16s-3.66699 -9 -11 -9c-6 0 1 -8.66699 21 -26
c1.33301 -0.666992 2.66602 -1.66699 3.99902 -3h-55l14 36l-95 97c-4.66699 4.66699 -7 9.66699 -7 15c0 6 2.66699 9 8 9c6.66699 0 12.334 -2.33301 17.001 -7z" />
    <glyph glyph-name="eacute" unicode="&#xe9;" horiz-adv-x="532" 
d="M436 120c5.33301 0 10.334 -1.82812 15.001 -5.49512s7 -7.83398 7 -12.501c0 -2.66699 -0.666992 -5.33398 -2 -8.00098c-20.667 -31.333 -48.834 -56.5 -84.501 -75.5s-72.167 -28.5 -109.5 -28.5c-46.667 0 -89.5 13.167 -128.5 39.5s-66.833 63.166 -83.5 110.499
c-5.33301 19.333 -8 37.666 -8 54.999c0 57.333 21.5 107.5 64.5 150.5s92.833 64.5 149.5 64.5c15.333 0 30.5 -1 45.5 -3s31.333 -6 49 -12s32 -16 43 -30s16.5 -31 16.5 -51c0 -28.667 -15.833 -56.834 -47.5 -84.501s-67.834 -50 -108.501 -67s-80 -28.833 -118 -35.5
l-12 -35l10 -10c32 -38 75 -57 129 -57c22.667 0 43.667 4 63 12s33.333 15.667 42 23s19.334 18 32.001 32c17.333 18.667 29.333 28 36 28zM260.001 377.005c-44.667 0 -84.333 -19 -119 -57s-52 -81 -52 -129v-6c0 -1.33301 0.166992 -2.5 0.5 -3.5
s0.5 -1.83301 0.5 -2.5l25 -21c44 7.33301 88 21.5 132 42.5s78.333 47.833 103 80.5c6.66699 6.66699 10 16 10 28c0 45.333 -33.333 68 -100 68zM371.002 687.005c6.66699 5.33301 12.332 8.00098 16.999 8.00098c6.66699 0 10 -3 10 -9
c0 -5.33301 -2.66699 -10.333 -8 -15l-1 -1l-94 -96c-5.33301 -5.33301 -10.666 -8 -15.999 -8c-2.66699 0 -5.16699 1 -7.5 3s-3.5 4.33301 -3.5 7c0 5.33301 2.66699 10.666 8 15.999z" />
    <glyph glyph-name="ecircumflex" unicode="&#xea;" horiz-adv-x="532" 
d="M436 120c5.33301 0 10.334 -1.82812 15.001 -5.49512s7 -7.83398 7 -12.501c0 -2.66699 -0.666992 -5.33398 -2 -8.00098c-20.667 -31.333 -48.834 -56.5 -84.501 -75.5s-72.167 -28.5 -109.5 -28.5c-46.667 0 -89.5 13.167 -128.5 39.5s-66.833 63.166 -83.5 110.499
c-5.33301 19.333 -8 37.666 -8 54.999c0 57.333 21.5 107.5 64.5 150.5s92.833 64.5 149.5 64.5c15.333 0 30.5 -1 45.5 -3s31.333 -6 49 -12s32 -16 43 -30s16.5 -31 16.5 -51c0 -28.667 -15.833 -56.834 -47.5 -84.501s-67.834 -50 -108.501 -67s-80 -28.833 -118 -35.5
l-12 -35l10 -10c32 -38 75 -57 129 -57c22.667 0 43.667 4 63 12s33.333 15.667 42 23s19.334 18 32.001 32c17.333 18.667 29.333 28 36 28zM260.001 377.005c-44.667 0 -84.333 -19 -119 -57s-52 -81 -52 -129v-6c0 -1.33301 0.166992 -2.5 0.5 -3.5
s0.5 -1.83301 0.5 -2.5l25 -21c44 7.33301 88 21.5 132 42.5s78.333 47.833 103 80.5c6.66699 6.66699 10 16 10 28c0 45.333 -33.333 68 -100 68zM286.002 672.005l96.999 -107l1 -1v-2c0 -6.66699 -1.33301 -10 -4 -10c-8 0 -15.667 3.33301 -23 10v1l-73 69h-29l-74 -69
v-1c-6.66699 -6.66699 -14 -10 -22 -10c-2.66699 0 -4 3.33301 -4 10v2l1 1l95 107c8 8 14 12 18 12c4.66699 0 10.334 -4 17.001 -12z" />
    <glyph glyph-name="edieresis" unicode="&#xeb;" horiz-adv-x="532" 
d="M436 120c5.33301 0 10.334 -1.82812 15.001 -5.49512s7 -7.83398 7 -12.501c0 -2.66699 -0.666992 -5.33398 -2 -8.00098c-20.667 -31.333 -48.834 -56.5 -84.501 -75.5s-72.167 -28.5 -109.5 -28.5c-46.667 0 -89.5 13.167 -128.5 39.5s-66.833 63.166 -83.5 110.499
c-5.33301 19.333 -8 37.666 -8 54.999c0 57.333 21.5 107.5 64.5 150.5s92.833 64.5 149.5 64.5c15.333 0 30.5 -1 45.5 -3s31.333 -6 49 -12s32 -16 43 -30s16.5 -31 16.5 -51c0 -28.667 -15.833 -56.834 -47.5 -84.501s-67.834 -50 -108.501 -67s-80 -28.833 -118 -35.5
l-12 -35l10 -10c32 -38 75 -57 129 -57c22.667 0 43.667 4 63 12s33.333 15.667 42 23s19.334 18 32.001 32c17.333 18.667 29.333 28 36 28zM260.001 377.005c-44.667 0 -84.333 -19 -119 -57s-52 -81 -52 -129v-6c0 -1.33301 0.166992 -2.5 0.5 -3.5
s0.5 -1.83301 0.5 -2.5l25 -21c44 7.33301 88 21.5 132 42.5s78.333 47.833 103 80.5c6.66699 6.66699 10 16 10 28c0 45.333 -33.333 68 -100 68zM189.002 596.005c0 -8.66699 -2.83301 -16 -8.5 -22s-12.167 -9 -19.5 -9c-8 0 -14.667 3 -20 9s-8 13.333 -8 22
c0 8 2.66699 15.167 8 21.5s12 9.5 20 9.5c7.33301 0 13.833 -3.16699 19.5 -9.5s8.5 -13.5 8.5 -21.5zM408.002 596.005c0 -8.66699 -2.66699 -16 -8 -22s-11.666 -9 -18.999 -9c-8 0 -14.833 3 -20.5 9s-8.5 13.333 -8.5 22c0 8 2.83301 15.167 8.5 21.5
s12.5 9.5 20.5 9.5c7.33301 0 13.666 -3.16699 18.999 -9.5s8 -13.5 8 -21.5z" />
    <glyph glyph-name="igrave" unicode="&#xec;" horiz-adv-x="259" 
d="M172 27l-24 -33.001c-20 6.66699 -35.5 18.334 -46.5 35.001s-17.5 31.167 -19.5 43.5s-4 29.833 -6 52.5v310h49v-274c0 -81.333 15.667 -126 47 -134zM-12 685.999l96 -95.001c5.33301 -5.33301 8 -10.666 8 -15.999c0 -6.66699 -3.33301 -10 -10 -10
s1.33301 -9.33301 24 -28h-55l15 36l-96 96c-4.66699 4.66699 -7 10 -7 16s2.66699 9 8 9c6 0 11.667 -2.66699 17 -8z" />
    <glyph glyph-name="iacute" unicode="&#xed;" horiz-adv-x="259" 
d="M172 27l-24 -33.001c-20 6.66699 -35.5 18.334 -46.5 35.001s-17.5 31.167 -19.5 43.5s-4 29.833 -6 52.5v310h49v-274c0 -81.333 15.667 -126 47 -134zM203 681.999c6 4.66699 11.667 7 17 7c6 0 9 -2.66699 9 -8c0 -6 -2.33301 -11 -7 -15l-1 -1l-95 -97
c-4.66699 -4.66699 -10 -7 -16 -7c-6.66699 0 -10 3.33301 -10 10c0 4.66699 2.33301 10 7 16z" />
    <glyph glyph-name="icircumflex" unicode="&#xee;" horiz-adv-x="259" 
d="M172 27l-24 -33.001c-20 6.66699 -35.5 18.334 -46.5 35.001s-17.5 31.167 -19.5 43.5s-4 29.833 -6 52.5v310h49v-274c0 -81.333 15.667 -126 47 -134zM118 666.999l96 -107l1 -1v-2c0 -7.33301 -1.33301 -11 -4 -11c-8 0 -15.333 3.66699 -22 11v1l-73 69h-30l-73 -69
v-1c-7.33301 -7.33301 -15 -11 -23 -11c-2.66699 0 -4 3.66699 -4 11v2l1 1l96 107c8 8 14 12 18 12c2 0 7.66699 -4 17 -12z" />
    <glyph glyph-name="idieresis" unicode="&#xef;" horiz-adv-x="259" 
d="M172 27l-24 -33.001c-20 6.66699 -35.5 18.334 -46.5 35.001s-17.5 31.167 -19.5 43.5s-4 29.833 -6 52.5v310h49v-274c0 -81.333 15.667 -126 47 -134zM240 590.999c0 -8.66699 -2.83301 -16 -8.5 -22s-12.167 -9 -19.5 -9c-8 0 -14.833 3 -20.5 9s-8.5 13.333 -8.5 22
c0 8 2.83301 15.167 8.5 21.5s12.5 9.5 20.5 9.5c7.33301 0 13.833 -3.16699 19.5 -9.5s8.5 -13.5 8.5 -21.5zM20 590.999c0 -8.66699 -2.66895 -16 -8.00195 -22s-11.666 -9 -18.999 -9c-8 0 -14.833 3 -20.5 9s-8.5 13.333 -8.5 22c0 8 2.83301 15.167 8.5 21.5
s12.5 9.5 20.5 9.5c6.66699 0 12.834 -3.16699 18.501 -9.5s8.5 -13.5 8.5 -21.5z" />
    <glyph glyph-name="eth" unicode="&#xf0;" horiz-adv-x="716" 
d="M187 493c-0.666992 -0.666992 -2.66602 -1 -5.99902 -1c-6 0 -10.667 2.66699 -14 8c-3.33301 3.33301 -5 8 -5 14c0 3.33301 0.666992 5.66602 2 6.99902l102 79l-1 35c-17.333 12 -39.333 24.333 -66 37c-6.66699 4.66699 -10 9.66699 -10 15s2.5 9.5 7.5 12.5
s10.5 4.5 16.5 4.5c21.333 0 53.333 -16.667 96 -50h25l100 78c0.666992 0.666992 2.33398 1 5.00098 1c7.33301 0 12.666 -3 15.999 -9c2.66699 -3.33301 4 -7.33301 4 -12c0 -3.33301 -0.666992 -5.66602 -2 -6.99902l-1 -1l-85 -66l-1 -32c110 -94.667 167 -227 171 -397
c0 -28 -4.66699 -52.333 -14 -73c-18.667 -40.667 -48 -73 -88 -97s-83.333 -36 -130 -36c-36 0 -71.333 7.16699 -106 21.5s-64.834 37.333 -90.501 69s-38.5 68.834 -38.5 111.501c0 59.333 24.167 107.666 72.5 144.999s102.833 56 163.5 56c44 0 83 -9 117 -27l3 -2
l32 24c-25.333 73.333 -68 135.333 -128 186l-26 1zM283.001 371c-41.333 -6 -78.5 -22.833 -111.5 -50.5s-49.5 -66.167 -49.5 -115.5c0 -44 17.5 -83 52.5 -117s79.5 -51 133.5 -51c46.667 0 89 15.167 127 45.5s57 71.5 57 123.5c0 44.667 -17.5 83.5 -52.5 116.5
s-78.833 49.5 -131.5 49.5c-12 0 -20.333 -0.333008 -25 -1z" />
    <glyph glyph-name="ntilde" unicode="&#xf1;" 
d="M53 17v187.002c0.666992 58 22 106.833 64 146.5s90 59.5 144 59.5c58 0 106.167 -21.333 144.5 -64s57.5 -93 57.5 -151v-178c0 -11.333 -8 -17 -24 -17c-15.333 0 -23 5.66699 -23 17v144c0 62 -13.167 113.5 -39.5 154.5s-65.833 61.5 -118.5 61.5
c-32 0 -59 -7.16699 -81 -21.5s-38.167 -33.333 -48.5 -57s-17.5 -46.334 -21.5 -68.001s-6 -43.834 -6 -66.501v-147c0 -5.33301 -2.5 -9.5 -7.5 -12.5s-10.5 -4.5 -16.5 -4.5s-11.5 1.5 -16.5 4.5s-7.5 7.16699 -7.5 12.5zM384 650.002l1.00195 -1
c8.66699 -2 13 -8 13 -18c0 -14 -7.66699 -28.833 -23 -44.5s-35.333 -24.167 -60 -25.5h-7c-18.667 1.33301 -32.334 5 -41.001 11h-1l-18 12c-4.66699 6 -9 10 -13 12c-12 10.667 -22.667 16 -32 16c-14 0 -28.667 -9 -44 -27c-11.333 -12.667 -19.333 -19 -24 -19
c-12 0 -18 4 -18 12c0 15.333 9.5 31 28.5 47s38.833 24 59.5 24c12.667 0 31.667 -8.66699 57 -26l11 -9c10 -10 23 -15 39 -15c20 0 33.333 7 40 21l8 14c5.33301 10.667 11.666 16 18.999 16h5z" />
    <glyph glyph-name="ograve" unicode="&#xf2;" horiz-adv-x="576" 
d="M273 410c56.667 0 107.167 -20.3311 151.5 -60.998s66.5 -89.334 66.5 -146.001c0 -60.667 -22.5 -111.334 -67.5 -152.001s-97.5 -61 -157.5 -61c-61.333 0 -114 19.667 -158 59s-66 88.333 -66 147c0 45.333 12.167 84.833 36.5 118.5s53.5 58 87.5 73
s69.667 22.5 107 22.5zM266 24.002c46.667 0 87.667 16.833 123 50.5s53 75.5 53 125.5c0 57.333 -19 101.166 -57 131.499s-77.667 45.5 -119 45.5c-56 0 -99.333 -18.667 -130 -56s-46 -77.666 -46 -120.999c0 -48 17.333 -89.333 52 -124s76 -52 124 -52zM158 692.002
l95 -96c6 -4.66699 9 -10 9 -16s-3.66699 -9 -11 -9c-6 0 1 -8.66699 21 -26c1.33301 -0.666992 2.66602 -1.66699 3.99902 -3h-55l14 36l-95 97c-4.66699 4.66699 -7 9.66699 -7 15c0 6 2.66699 9 8 9c6.66699 0 12.334 -2.33301 17.001 -7z" />
    <glyph glyph-name="oacute" unicode="&#xf3;" horiz-adv-x="576" 
d="M273 410c56.667 0 107.167 -20.3311 151.5 -60.998s66.5 -89.334 66.5 -146.001c0 -60.667 -22.5 -111.334 -67.5 -152.001s-97.5 -61 -157.5 -61c-61.333 0 -114 19.667 -158 59s-66 88.333 -66 147c0 45.333 12.167 84.833 36.5 118.5s53.5 58 87.5 73
s69.667 22.5 107 22.5zM266 24.002c46.667 0 87.667 16.833 123 50.5s53 75.5 53 125.5c0 57.333 -19 101.166 -57 131.499s-77.667 45.5 -119 45.5c-56 0 -99.333 -18.667 -130 -56s-46 -77.666 -46 -120.999c0 -48 17.333 -89.333 52 -124s76 -52 124 -52zM269 576.002
c0 5.33301 2.66602 10.667 7.99902 16l94 94c6 6 12 9 18 9c6.66699 0 10 -3 10 -9c0 -5.33301 -2.66699 -10.333 -8 -15l-1 -1l-94 -96c-5.33301 -5.33301 -10.666 -8 -15.999 -8c-2.66699 0 -5.16699 1 -7.5 3s-3.5 4.33301 -3.5 7z" />
    <glyph glyph-name="ocircumflex" unicode="&#xf4;" horiz-adv-x="576" 
d="M273 410c56.667 0 107.167 -20.3311 151.5 -60.998s66.5 -89.334 66.5 -146.001c0 -60.667 -22.5 -111.334 -67.5 -152.001s-97.5 -61 -157.5 -61c-61.333 0 -114 19.667 -158 59s-66 88.333 -66 147c0 45.333 12.167 84.833 36.5 118.5s53.5 58 87.5 73
s69.667 22.5 107 22.5zM266 24.002c46.667 0 87.667 16.833 123 50.5s53 75.5 53 125.5c0 57.333 -19 101.166 -57 131.499s-77.667 45.5 -119 45.5c-56 0 -99.333 -18.667 -130 -56s-46 -77.666 -46 -120.999c0 -48 17.333 -89.333 52 -124s76 -52 124 -52zM287 672.002
l96.999 -107l1 -1v-2c0 -6.66699 -1.33301 -10 -4 -10c-8 0 -15.667 3.33301 -23 10v1l-73 69h-29l-74 -69v-1c-6.66699 -6.66699 -14 -10 -22 -10c-2.66699 0 -4 3.33301 -4 10v2l1 1l95 107c8 8 14 12 18 12c4.66699 0 10.334 -4 17.001 -12z" />
    <glyph glyph-name="otilde" unicode="&#xf5;" horiz-adv-x="576" 
d="M273 410c56.667 0 107.167 -20.3311 151.5 -60.998s66.5 -89.334 66.5 -146.001c0 -60.667 -22.5 -111.334 -67.5 -152.001s-97.5 -61 -157.5 -61c-61.333 0 -114 19.667 -158 59s-66 88.333 -66 147c0 45.333 12.167 84.833 36.5 118.5s53.5 58 87.5 73
s69.667 22.5 107 22.5zM266 24.002c46.667 0 87.667 16.833 123 50.5s53 75.5 53 125.5c0 57.333 -19 101.166 -57 131.499s-77.667 45.5 -119 45.5c-56 0 -99.333 -18.667 -130 -56s-46 -77.666 -46 -120.999c0 -48 17.333 -89.333 52 -124s76 -52 124 -52zM393 650.002
l2.00195 -1c8 -2 12 -8 12 -18c0 -14 -7.5 -28.833 -22.5 -44.5s-34.833 -24.167 -59.5 -25.5h-8c-18.667 1.33301 -32 5 -40 11h-1l-18 12c-6.66699 6.66699 -11 10.667 -13 12c-12 10.667 -23 16 -33 16c-14 0 -28.333 -9 -43 -27c-12.667 -12.667 -21 -19 -25 -19
c-12 0 -18 4 -18 12c0 15.333 9.66699 31 29 47s39 24 59 24c13.333 0 32.666 -8.66699 57.999 -26l10 -9c11.333 -10 24.333 -15 39 -15c19.333 0 33 7 41 21l7 14c5.33301 10.667 11.666 16 18.999 16h5z" />
    <glyph glyph-name="odieresis" unicode="&#xf6;" horiz-adv-x="576" 
d="M273 410c56.667 0 107.167 -20.3311 151.5 -60.998s66.5 -89.334 66.5 -146.001c0 -60.667 -22.5 -111.334 -67.5 -152.001s-97.5 -61 -157.5 -61c-61.333 0 -114 19.667 -158 59s-66 88.333 -66 147c0 45.333 12.167 84.833 36.5 118.5s53.5 58 87.5 73
s69.667 22.5 107 22.5zM266 24.002c46.667 0 87.667 16.833 123 50.5s53 75.5 53 125.5c0 57.333 -19 101.166 -57 131.499s-77.667 45.5 -119 45.5c-56 0 -99.333 -18.667 -130 -56s-46 -77.666 -46 -120.999c0 -48 17.333 -89.333 52 -124s76 -52 124 -52zM190 596.002
c0 -8.66699 -2.83301 -16 -8.5 -22s-12.167 -9 -19.5 -9c-8 0 -14.667 3 -20 9s-8 13.333 -8 22c0 8 2.66699 15.167 8 21.5s12 9.5 20 9.5c7.33301 0 13.833 -3.16699 19.5 -9.5s8.5 -13.5 8.5 -21.5zM409 596.002c0 -8.66699 -2.66699 -16 -8 -22s-11.666 -9 -18.999 -9
c-8 0 -14.833 3 -20.5 9s-8.5 13.333 -8.5 22c0 8 2.83301 15.167 8.5 21.5s12.5 9.5 20.5 9.5c7.33301 0 13.666 -3.16699 18.999 -9.5s8 -13.5 8 -21.5z" />
    <glyph glyph-name="divide" unicode="&#xf7;" horiz-adv-x="599" 
d="M477 266c16.667 0 25 -5.66504 25 -16.998c0 -5.33301 -2.66699 -9.83301 -8 -13.5s-11 -5.5 -17 -5.5h-417c-5.33301 0 -10.5 1.66699 -15.5 5s-7.5 7.66602 -7.5 12.999s2.5 9.66602 7.5 12.999s10.167 5 15.5 5h417zM280 0.00195312
c-8.66699 0 -16.334 2.33301 -23.001 7s-10 10.667 -10 18s3.33301 13.333 10 18s14.334 7 23.001 7c8 0 15.333 -2.33301 22 -7s10 -10.667 10 -18s-3.33301 -13.333 -10 -18s-14 -7 -22 -7zM280 439.002c-8.66699 0 -16.334 2.5 -23.001 7.5s-10 11.167 -10 18.5
c0 6.66699 3.33301 12.334 10 17.001s14.334 7 23.001 7c8 0 15.333 -2.33301 22 -7s10 -10.334 10 -17.001c0 -7.33301 -3.33301 -13.5 -10 -18.5s-14 -7.5 -22 -7.5z" />
    <glyph glyph-name="oslash" unicode="&#xf8;" horiz-adv-x="576" 
d="M273 410c13.333 0 30.665 -2 51.998 -6l24 10l40 74v1c4.66699 10 13.334 15 26.001 15c4.66699 0 9.33398 -1.5 14.001 -4.5s7 -6.5 7 -10.5v-2l-2 -3l-1 -2l-45 -83l8 -28c29.333 -20 52.5 -44.5 69.5 -73.5s25.5 -60.5 25.5 -94.5
c0 -60.667 -22.5 -111.334 -67.5 -152.001s-97.5 -61 -157.5 -61c-18 0 -41.667 3.33301 -71 10l-24 -11l-41 -75c-5.33301 -10 -14 -15 -26 -15c-14 0 -21 4.66699 -21 14c0 1.33301 0.333008 2.33301 1 3l2 10l1 -3l46 85l-7 27c-56 40.667 -84 94.334 -84 161.001
c0 45.333 12.167 84.833 36.5 118.5s53.5 58 87.5 73s69.667 22.5 107 22.5zM265.999 24c46.667 0 87.667 16.834 123 50.501s53 75.5 53 125.5c0 55.333 -19.667 99.666 -59 132.999l-33 -6l-142 -267l14 -29c17.333 -4.66699 32 -7 44 -7zM89.999 200.001
c0 -46 15.999 -86.668 47.999 -122.001l35 6l138 259l-14 29c-13.333 3.33301 -23.666 5 -30.999 5c-56 0 -99.333 -18.667 -130 -56s-46 -77.666 -46 -120.999z" />
    <glyph glyph-name="ugrave" unicode="&#xf9;" 
d="M463 392l0.000976562 -198.001c0 -53.333 -20.333 -100.666 -61 -141.999s-87.334 -62 -140.001 -62h-6c-47.333 0 -89.333 15.667 -126 47l-1 1c-50.667 40 -76 96 -76 168v186c0 5.33301 2.5 9.5 7.5 12.5s10.5 4.5 16.5 4.5s11.5 -1.5 16.5 -4.5
s7.5 -7.16699 7.5 -12.5v-175c0 -49.333 13.333 -93.333 40 -132s65.667 -58 117 -58c46.667 0 84.667 17.833 114 53.5s44 79.167 44 130.5v181c0 11.333 7.66699 17 23 17c16 0 24 -5.66699 24 -17zM147.001 691.999l96 -96.001c5.33301 -5.33301 8 -10.666 8 -15.999
c0 -6 -3.33301 -9 -10 -9s0 -8.66699 20 -26c1.33301 -0.666992 2.66602 -1.66699 3.99902 -3h-55l15 36l-96 97c-4.66699 4.66699 -7 9.66699 -7 15c0 6 2.66699 9 8 9c6.66699 0 12.334 -2.33301 17.001 -7z" />
    <glyph glyph-name="uacute" unicode="&#xfa;" 
d="M463 392l0.000976562 -198.001c0 -53.333 -20.333 -100.666 -61 -141.999s-87.334 -62 -140.001 -62h-6c-47.333 0 -89.333 15.667 -126 47l-1 1c-50.667 40 -76 96 -76 168v186c0 5.33301 2.5 9.5 7.5 12.5s10.5 4.5 16.5 4.5s11.5 -1.5 16.5 -4.5
s7.5 -7.16699 7.5 -12.5v-175c0 -49.333 13.333 -93.333 40 -132s65.667 -58 117 -58c46.667 0 84.667 17.833 114 53.5s44 79.167 44 130.5v181c0 11.333 7.66699 17 23 17c16 0 24 -5.66699 24 -17zM362.001 686.999c5.33301 5.33301 10.999 8 16.999 8s9 -3 9 -9
c0 -5.33301 -2.33301 -10.333 -7 -15l-1 -1l-95 -96c-5.33301 -5.33301 -10.666 -8 -15.999 -8c-6.66699 0 -10 3.33301 -10 10c0 6 2.33301 11.333 7 16z" />
    <glyph glyph-name="ucircumflex" unicode="&#xfb;" 
d="M463 392l0.000976562 -198.001c0 -53.333 -20.333 -100.666 -61 -141.999s-87.334 -62 -140.001 -62h-6c-47.333 0 -89.333 15.667 -126 47l-1 1c-50.667 40 -76 96 -76 168v186c0 5.33301 2.5 9.5 7.5 12.5s10.5 4.5 16.5 4.5s11.5 -1.5 16.5 -4.5
s7.5 -7.16699 7.5 -12.5v-175c0 -49.333 13.333 -93.333 40 -132s65.667 -58 117 -58c46.667 0 84.667 17.833 114 53.5s44 79.167 44 130.5v181c0 11.333 7.66699 17 23 17c16 0 24 -5.66699 24 -17zM277.001 671.999l95.998 -107l1 -1v-2c0 -6.66699 -1.33301 -10 -4 -10
c-8 0 -15.333 3.33301 -22 10v1l-73 69h-30l-73 -69v-1c-7.33301 -6.66699 -14.666 -10 -21.999 -10c-3.33301 0 -5 3.33301 -5 10v2l1 1l96 107c6.66699 8 12.667 12 18 12c4.66699 0 10.334 -4 17.001 -12z" />
    <glyph glyph-name="udieresis" unicode="&#xfc;" 
d="M463 392l0.000976562 -198.001c0 -53.333 -20.333 -100.666 -61 -141.999s-87.334 -62 -140.001 -62h-6c-47.333 0 -89.333 15.667 -126 47l-1 1c-50.667 40 -76 96 -76 168v186c0 5.33301 2.5 9.5 7.5 12.5s10.5 4.5 16.5 4.5s11.5 -1.5 16.5 -4.5
s7.5 -7.16699 7.5 -12.5v-175c0 -49.333 13.333 -93.333 40 -132s65.667 -58 117 -58c46.667 0 84.667 17.833 114 53.5s44 79.167 44 130.5v181c0 11.333 7.66699 17 23 17c16 0 24 -5.66699 24 -17zM399.001 595.999c0 -8.66699 -2.83301 -16 -8.5 -22
s-12.167 -9 -19.5 -9c-8 0 -14.667 3 -20 9s-8 13.333 -8 22c0 8 2.66699 15.167 8 21.5s12 9.5 20 9.5c7.33301 0 13.833 -3.16699 19.5 -9.5s8.5 -13.5 8.5 -21.5zM179.001 595.999c0 -8.66699 -2.66699 -16 -8 -22s-11.666 -9 -18.999 -9c-8 0 -14.833 3 -20.5 9
s-8.5 13.333 -8.5 22c0 8 2.83301 15.167 8.5 21.5s12.5 9.5 20.5 9.5c7.33301 0 13.666 -3.16699 18.999 -9.5s8 -13.5 8 -21.5z" />
    <glyph glyph-name="yacute" unicode="&#xfd;" horiz-adv-x="582" 
d="M487 11c0 -75.333 -25.165 -132.666 -75.498 -171.999s-108.5 -59 -174.5 -59c-12 0 -31.333 2 -58 6c-26 4 -53.5 12.5 -82.5 25.5s-43.5 26.833 -43.5 41.5c0 5.33301 2.5 9.66602 7.5 12.999s10.5 5 16.5 5c3.33301 0 11.666 -4.66699 24.999 -14
c12 -8.66699 19.667 -14 23 -16c32 -18 68.333 -27 109 -27c40 0 74.333 6.33301 103 19s50 29.667 64 51s23.833 42.666 29.5 63.999s8.5 44 8.5 68l-35 17c-36.667 -29.333 -77.334 -44 -122.001 -44c-58 0 -106.833 21.333 -146.5 64s-59.5 93.334 -59.5 152.001v188
c0 11.333 8.33301 17 25 17c5.33301 0 10.5 -1.5 15.5 -4.5s7.5 -7.16699 7.5 -12.5v-154c0 -71.333 14.833 -125 44.5 -161s67.167 -54 112.5 -54c28 0 52.833 6.33301 74.5 19s38.167 28.5 49.5 47.5s19.833 37.833 25.5 56.5s8.5 36 8.5 52v194
c0 5.33301 2.5 9.5 7.5 12.5s10.5 4.5 16.5 4.5s11.5 -1.5 16.5 -4.5s7.5 -7.16699 7.5 -12.5v-382zM398.002 687c5.33301 5.33301 10.999 8 16.999 8s9 -3 9 -9c0 -5.33301 -2.33301 -10.333 -7 -15l-1 -1l-95 -96c-5.33301 -5.33301 -10.666 -8 -15.999 -8
c-6.66699 0 -10 3.33301 -10 10c0 6 2.33301 11.333 7 16z" />
    <glyph glyph-name="thorn" unicode="&#xfe;" horiz-adv-x="540" 
d="M497 259c0 -82.667 -18.833 -148.668 -56.5 -198.001s-90.167 -74 -157.5 -74c-25.333 0 -49.5 4.5 -72.5 13.5s-40 17.833 -51 26.5s-16.833 15.334 -17.5 20.001l-20 16h-4l-21 -22v-270h-48v1015h51v-316l21 -21h4l17 8c36 48 83.667 72 143 72
c65.333 0 117 -25 155 -75s57 -115 57 -195zM261 488.999c-110.667 0 -165.999 -77.333 -165.999 -232c0 -153.333 55 -230 165 -230c62 0 108.667 19.667 140 59s47 96.333 47 171c0 76.667 -16.333 134.5 -49 173.5s-78.334 58.5 -137.001 58.5z" />
    <glyph glyph-name="ydieresis" unicode="&#xff;" horiz-adv-x="582" 
d="M487 11c0 -75.333 -25.165 -132.666 -75.498 -171.999s-108.5 -59 -174.5 -59c-12 0 -31.333 2 -58 6c-26 4 -53.5 12.5 -82.5 25.5s-43.5 26.833 -43.5 41.5c0 5.33301 2.5 9.66602 7.5 12.999s10.5 5 16.5 5c3.33301 0 11.666 -4.66699 24.999 -14
c12 -8.66699 19.667 -14 23 -16c32 -18 68.333 -27 109 -27c40 0 74.333 6.33301 103 19s50 29.667 64 51s23.833 42.666 29.5 63.999s8.5 44 8.5 68l-35 17c-36.667 -29.333 -77.334 -44 -122.001 -44c-58 0 -106.833 21.333 -146.5 64s-59.5 93.334 -59.5 152.001v188
c0 11.333 8.33301 17 25 17c5.33301 0 10.5 -1.5 15.5 -4.5s7.5 -7.16699 7.5 -12.5v-154c0 -71.333 14.833 -125 44.5 -161s67.167 -54 112.5 -54c28 0 52.833 6.33301 74.5 19s38.167 28.5 49.5 47.5s19.833 37.833 25.5 56.5s8.5 36 8.5 52v194
c0 5.33301 2.5 9.5 7.5 12.5s10.5 4.5 16.5 4.5s11.5 -1.5 16.5 -4.5s7.5 -7.16699 7.5 -12.5v-382zM435.002 596c0 -8.66699 -2.83301 -16 -8.5 -22s-12.167 -9 -19.5 -9c-8 0 -14.667 3 -20 9s-8 13.333 -8 22c0 8 2.66699 15.167 8 21.5s12 9.5 20 9.5
c7.33301 0 13.833 -3.16699 19.5 -9.5s8.5 -13.5 8.5 -21.5zM215.002 596c0 -8.66699 -2.66699 -16 -8 -22s-11.666 -9 -18.999 -9c-8 0 -14.833 3 -20.5 9s-8.5 13.333 -8.5 22c0 8 2.83301 15.167 8.5 21.5s12.5 9.5 20.5 9.5c7.33301 0 13.666 -3.16699 18.999 -9.5
s8 -13.5 8 -21.5z" />
    <glyph glyph-name="Amacron" unicode="&#x100;" horiz-adv-x="811" 
d="M685 456c10 -38 15.001 -83.001 15.001 -135.001v-304c0 -5.33301 -2.5 -9.5 -7.5 -12.5s-10.167 -4.5 -15.5 -4.5c-16.667 0 -25 5.66699 -25 17v256l-21 21h-493l-21 -21v-256c0 -5.33301 -2.5 -9.5 -7.5 -12.5s-10.5 -4.5 -16.5 -4.5s-11.5 1.5 -16.5 4.5
s-7.5 7.16699 -7.5 12.5v330c0 56.667 12.167 111.834 36.5 165.501s61.166 99 110.499 136s105 55.5 167 55.5c70.667 0 134.5 -23.833 191.5 -71.5s93.833 -106.5 110.5 -176.5zM631.001 327.999l21 20.999c0 51.333 -10.167 101 -30.5 149s-51.5 88.667 -93.5 122
s-89.667 50 -143 50c-52.667 0 -100.167 -16.667 -142.5 -50s-73.833 -74.166 -94.5 -122.499s-31 -97.833 -31 -148.5l21 -21h493zM508.001 894.998c13.333 0 20 -4.33301 20 -13s-6.66699 -13 -20 -13h-260c-12.667 0 -19 4.33301 -19 13s6.33301 13 19 13h260z" />
    <glyph glyph-name="amacron" unicode="&#x101;" horiz-adv-x="594" 
d="M273 410c55.333 0 105.5 -19.832 150.5 -59.499s67.5 -87.167 67.5 -142.5v-78c0 -20 0.666992 -34 2 -42l1 -1c5.33301 -20.667 18.333 -39.667 39 -57c12.667 -11.333 19 -19 19 -23c0 -4.66699 -2.5 -8.66699 -7.5 -12s-10.5 -5 -16.5 -5
c-3.33301 0 -8.33301 1.33301 -15 4l-1 1c-24 9.33301 -41.667 26.666 -53 51.999l-34 6c-44 -42 -97 -63 -159 -63c-61.333 0 -114 19.667 -158 59s-66 88.333 -66 147c0 45.333 12.167 84.833 36.5 118.5s53.5 58 87.5 73s69.667 22.5 107 22.5zM266 24.001
c46.667 0 87.667 16.833 123 50.5s53 75.5 53 125.5c0 57.333 -19 101.166 -57 131.499s-77.667 45.5 -119 45.5c-56 0 -99.333 -18.667 -130 -56s-46 -77.666 -46 -120.999c0 -48 17.333 -89.333 52 -124s76 -52 124 -52zM390 594.001c13.333 0 20 -4.33301 20 -13
c0 -4 -2 -7.33301 -6 -10s-8.66699 -4 -14 -4h-260c-4.66699 0 -9 1.33301 -13 4s-6 6 -6 10c0 8.66699 6.33301 13 19 13h260z" />
    <glyph glyph-name="Abreve" unicode="&#x102;" horiz-adv-x="811" 
d="M685 456c10 -38 15.001 -83.001 15.001 -135.001v-304c0 -5.33301 -2.5 -9.5 -7.5 -12.5s-10.167 -4.5 -15.5 -4.5c-16.667 0 -25 5.66699 -25 17v256l-21 21h-493l-21 -21v-256c0 -5.33301 -2.5 -9.5 -7.5 -12.5s-10.5 -4.5 -16.5 -4.5s-11.5 1.5 -16.5 4.5
s-7.5 7.16699 -7.5 12.5v330c0 56.667 12.167 111.834 36.5 165.501s61.166 99 110.499 136s105 55.5 167 55.5c70.667 0 134.5 -23.833 191.5 -71.5s93.833 -106.5 110.5 -176.5zM631.001 327.999l21 20.999c0 51.333 -10.167 101 -30.5 149s-51.5 88.667 -93.5 122
s-89.667 50 -143 50c-52.667 0 -100.167 -16.667 -142.5 -50s-73.833 -74.166 -94.5 -122.499s-31 -97.833 -31 -148.5l21 -21h493zM525.001 976.998l1.99902 -2.00098c-1.33301 -32 -16.5 -57.833 -45.5 -77.5s-60.833 -29.5 -95.5 -29.5
c-33.333 0 -64.666 9.83301 -93.999 29.5s-44.333 44.5 -45 74.5c0 2 0.666992 3.66699 2 5l1 1c5.33301 3.33301 10.666 5 15.999 5c6 0 10 -1 12 -3c4 -6 6.33301 -8.66699 7 -8c6.66699 -25.333 19 -44.833 37 -58.5s39.667 -20.5 65 -20.5c26.667 0 50 7.33301 70 22
s31 35.334 33 62.001l2 1c4.66699 3.33301 10 5 16 5c6.66699 0 12.334 -2 17.001 -6z" />
    <glyph glyph-name="abreve" unicode="&#x103;" horiz-adv-x="594" 
d="M273 410c55.333 0 105.5 -19.832 150.5 -59.499s67.5 -87.167 67.5 -142.5v-78c0 -20 0.666992 -34 2 -42l1 -1c5.33301 -20.667 18.333 -39.667 39 -57c12.667 -11.333 19 -19 19 -23c0 -4.66699 -2.5 -8.66699 -7.5 -12s-10.5 -5 -16.5 -5
c-3.33301 0 -8.33301 1.33301 -15 4l-1 1c-24 9.33301 -41.667 26.666 -53 51.999l-34 6c-44 -42 -97 -63 -159 -63c-61.333 0 -114 19.667 -158 59s-66 88.333 -66 147c0 45.333 12.167 84.833 36.5 118.5s53.5 58 87.5 73s69.667 22.5 107 22.5zM266 24.001
c46.667 0 87.667 16.833 123 50.5s53 75.5 53 125.5c0 57.333 -19 101.166 -57 131.499s-77.667 45.5 -119 45.5c-56 0 -99.333 -18.667 -130 -56s-46 -77.666 -46 -120.999c0 -48 17.333 -89.333 52 -124s76 -52 124 -52zM407 676.001l1.99902 -2.99902
c-1.33301 -31.333 -16.5 -57 -45.5 -77s-60.833 -30 -95.5 -30c-32.667 0 -63.667 9.83301 -93 29.5s-44.666 44.5 -45.999 74.5c0 2.66699 1 4.66699 3 6l1 1c4.66699 3.33301 9.66699 5 15 5c6 0 10 -1 12 -3c0.666992 -2 1.66699 -3.83301 3 -5.5
s2.5 -2.83398 3.5 -3.50098s1.5 -0.666992 1.5 0c6 -24.667 18 -43.834 36 -57.501s39.667 -20.5 65 -20.5c26.667 0 50 7.33301 70 22s31 35.334 33 62.001l2 1c5.33301 3.33301 10.666 5 15.999 5c6.66699 0 12.334 -2 17.001 -6z" />
    <glyph glyph-name="Aogonek" unicode="&#x104;" horiz-adv-x="811" 
d="M733 -112c4.66699 0 9.16895 -2.66602 13.502 -7.99902s6.5 -11 6.5 -17c0 -16 -8.66699 -29 -26 -39s-34 -15 -50 -15c-26 0 -49.167 10 -69.5 30s-30.5 43 -30.5 69c0 16 6.66699 34.667 20 56s29 38.666 47 51.999l8 17v240l-21 21h-493l-21 -21v-256
c0 -5.33301 -2.5 -9.5 -7.5 -12.5s-10.5 -4.5 -16.5 -4.5s-11.5 1.5 -16.5 4.5s-7.5 7.16699 -7.5 12.5v330c0 56.667 12.167 111.834 36.5 165.501s61.166 99 110.499 136s105 55.5 167 55.5c71.333 0 135.166 -23.833 191.499 -71.5s93.166 -106.5 110.499 -176.5
c10 -42 15 -87 15 -135v-304c0 -16 -4.33301 -26.667 -13 -32v-1l-10 -7h-1c-30.667 -25.333 -46 -49 -46 -71c0 -10.667 3.33301 -21.334 10 -32.001s17.334 -16 32.001 -16c12 0 26.333 6.33301 43 19c8.66699 7.33301 14.667 11 18 11zM631.002 328.001l21 20.999
c0 51.333 -10.167 101 -30.5 149s-51.5 88.667 -93.5 122s-89.667 50 -143 50c-52.667 0 -100.167 -16.667 -142.5 -50s-73.833 -74.166 -94.5 -122.499s-31 -97.833 -31 -148.5l21 -21h493z" />
    <glyph glyph-name="aogonek" unicode="&#x105;" horiz-adv-x="594" 
d="M570 -119c4.66699 0 9.16602 -2.66699 13.499 -8s6.5 -10.666 6.5 -15.999c0 -16 -8.66699 -29 -26 -39s-34.333 -15 -51 -15c-26 0 -49 9.83301 -69 29.5s-30 42.5 -30 68.5c0 32 18 64.333 54 97l3 29c-6 7.33301 -9.66699 13.666 -11 18.999l-35 7
c-44 -42 -97 -63 -159 -63c-61.333 0 -114 19.667 -158 59s-66 88.333 -66 147c0 45.333 12.167 84.833 36.5 118.5s53.5 58 87.5 73s69.667 22.5 107 22.5c55.333 0 105.5 -19.833 150.5 -59.5s67.5 -87.167 67.5 -142.5v-78c0 -20 0.666992 -34 2 -42l1 -1
c5.33301 -20.667 18.333 -39.667 39 -57c12.667 -11.333 19 -19 19 -23c0 -6 -3.66699 -10.333 -11 -13l-10 -9l-3 -3c-2 -1.33301 -3.66699 -2.66602 -5 -3.99902l-10 -8h-1c-30 -24.667 -45 -48.334 -45 -71.001c0 -10.667 3.33301 -21.167 10 -31.5
s17.334 -15.5 32.001 -15.5c12 0 26.333 6.33301 43 19c8 6.66699 14 10 18 10zM265.999 24c46.667 0 87.667 16.833 123 50.5s53 75.5 53 125.5c0 57.333 -19 101.166 -57 131.499s-77.667 45.5 -119 45.5c-56 0 -99.333 -18.667 -130 -56s-46 -77.666 -46 -120.999
c0 -48 17.333 -89.333 52 -124s76 -52 124 -52z" />
    <glyph glyph-name="Cacute" unicode="&#x106;" horiz-adv-x="766" 
d="M105 147l-0.00292969 1.00098c-42 60 -63 127 -63 201c0 103.333 37.833 188.5 113.5 255.5s163.5 100.5 263.5 100.5c38.667 0 75.334 -5.33301 110.001 -16c32 -9.33301 66.333 -23.833 103 -43.5s55 -37.167 55 -52.5c0 -11.333 -8 -17 -24 -17c-8 0 -14 2 -18 6
c-63.333 58.667 -139 88 -227 88c-87.333 0 -164 -30.833 -230 -92.5s-99 -138.167 -99 -229.5c0 -86.667 32 -162.834 96 -228.501s141.667 -98.5 233 -98.5c64.667 0 125.334 18 182.001 54c7.33301 5.33301 17 13 29 23c20.667 16 33 24 37 24c17.333 0 26 -6 26 -18
c0 -3.33301 -2.33301 -7.33301 -7 -12c-71.333 -70 -160.666 -105 -267.999 -105c-61.333 0 -120 14.333 -176 43s-101.333 67.667 -136 117zM414.997 877.001c0 6 2.33301 11.333 7 16l95 94c4.66699 6 10.667 9 18 9c6 0 9 -3 9 -9c0 -5.33301 -2.33301 -10 -7 -14l-1 -1
l-95 -97c-4.66699 -4.66699 -10 -7 -16 -7c-6.66699 0 -10 3 -10 9z" />
    <glyph glyph-name="cacute" unicode="&#x107;" horiz-adv-x="506" 
d="M425 75l0.999023 -0.999023c4 -2 6 -5 6 -9c0 -5.33301 -2.33301 -9.33301 -7 -12l-1 -1c-15.333 -14.667 -32.333 -26.667 -51 -36c-33.333 -17.333 -69.333 -26 -108 -26c-56 0 -107.167 20 -153.5 60s-69.5 89.333 -69.5 148c0 61.333 23 113 69 155
c43.333 37.333 95 56 155 56c61.333 0 113.333 -19.333 156 -58c4 -5.33301 6 -9.33301 6 -12c0 -4.66699 -1.66699 -8 -5 -10c-4.66699 -4.66699 -11 -7 -19 -7c-6.66699 0 -12.334 2.33301 -17.001 7c-3.33301 3.33301 -7.66602 6.83301 -12.999 10.5
s-8.66602 6.16699 -9.99902 7.5l-1 1c-29.333 19.333 -61.333 29 -96 29c-46 0 -86.833 -17.167 -122.5 -51.5s-53.5 -75.5 -53.5 -123.5c0 -64.667 26 -114.334 78 -149.001c27.333 -19.333 59.333 -29 96 -29c36 0 68.667 9.66699 98 29l1 1c10.667 8 19 15 25 21
c4 4.66699 9.66699 7 17 7c8.66699 0 15 -2.33301 19 -7zM366.999 687.001c5.33301 5.33301 11 8 17 8s9 -3 9 -9c0 -5.33301 -2.33301 -10.333 -7 -15l-1 -1l-94 -96c-6.66699 -5.33301 -12 -8 -16 -8c-7.33301 0 -11 3.33301 -11 10s2.66699 12 8 16z" />
    <glyph glyph-name="Ccircumflex" unicode="&#x108;" horiz-adv-x="766" 
d="M105 147l-0.00292969 1.00098c-42 60 -63 127 -63 201c0 103.333 37.833 188.5 113.5 255.5s163.5 100.5 263.5 100.5c38.667 0 75.334 -5.33301 110.001 -16c32 -9.33301 66.333 -23.833 103 -43.5s55 -37.167 55 -52.5c0 -11.333 -8 -17 -24 -17c-8 0 -14 2 -18 6
c-63.333 58.667 -139 88 -227 88c-87.333 0 -164 -30.833 -230 -92.5s-99 -138.167 -99 -229.5c0 -86.667 32 -162.834 96 -228.501s141.667 -98.5 233 -98.5c64.667 0 125.334 18 182.001 54c7.33301 5.33301 17 13 29 23c20.667 16 33 24 37 24c17.333 0 26 -6 26 -18
c0 -3.33301 -2.33301 -7.33301 -7 -12c-71.333 -70 -160.666 -105 -267.999 -105c-61.333 0 -120 14.333 -176 43s-101.333 67.667 -136 117zM432.997 974.001l95.999 -107l1 -2v-2c0 -6.66699 -1.33301 -10 -4 -10c-8 0 -15.333 3.33301 -22 10v1l-73 69h-30l-73 -69v-1
c-7.33301 -6.66699 -15 -10 -23 -10c-2.66699 0 -4 3.33301 -4 10v2l1 2l96 107c7.33301 7.33301 13.333 11 18 11c2.66699 0 8.33398 -3.66699 17.001 -11z" />
    <glyph glyph-name="ccircumflex" unicode="&#x109;" horiz-adv-x="506" 
d="M425 75l0.999023 -0.999023c4 -2 6 -5 6 -9c0 -5.33301 -2.33301 -9.33301 -7 -12l-1 -1c-15.333 -14.667 -32.333 -26.667 -51 -36c-33.333 -17.333 -69.333 -26 -108 -26c-56 0 -107.167 20 -153.5 60s-69.5 89.333 -69.5 148c0 61.333 23 113 69 155
c43.333 37.333 95 56 155 56c61.333 0 113.333 -19.333 156 -58c4 -5.33301 6 -9.33301 6 -12c0 -4.66699 -1.66699 -8 -5 -10c-4.66699 -4.66699 -11 -7 -19 -7c-6.66699 0 -12.334 2.33301 -17.001 7c-3.33301 3.33301 -7.66602 6.83301 -12.999 10.5
s-8.66602 6.16699 -9.99902 7.5l-1 1c-29.333 19.333 -61.333 29 -96 29c-46 0 -86.833 -17.167 -122.5 -51.5s-53.5 -75.5 -53.5 -123.5c0 -64.667 26 -114.334 78 -149.001c27.333 -19.333 59.333 -29 96 -29c36 0 68.667 9.66699 98 29l1 1c10.667 8 19 15 25 21
c4 4.66699 9.66699 7 17 7c8.66699 0 15 -2.33301 19 -7zM281.999 672.001l96.998 -107l1 -1v-2c0 -6.66699 -1.66699 -10 -5 -10c-7.33301 0 -14.666 3.33301 -21.999 10v1l-73 69h-30l-73 -69v-1c-6.66699 -6.66699 -14 -10 -22 -10c-2.66699 0 -4 3.33301 -4 10v2l1 1
l95 107c6.66699 8 12.667 12 18 12c4.66699 0 10.334 -4 17.001 -12z" />
    <glyph glyph-name="Cdotaccent" unicode="&#x10a;" horiz-adv-x="766" 
d="M105 147l-0.00292969 1.00098c-42 60 -63 127 -63 201c0 103.333 37.833 188.5 113.5 255.5s163.5 100.5 263.5 100.5c38.667 0 75.334 -5.33301 110.001 -16c32 -9.33301 66.333 -23.833 103 -43.5s55 -37.167 55 -52.5c0 -11.333 -8 -17 -24 -17c-8 0 -14 2 -18 6
c-63.333 58.667 -139 88 -227 88c-87.333 0 -164 -30.833 -230 -92.5s-99 -138.167 -99 -229.5c0 -86.667 32 -162.834 96 -228.501s141.667 -98.5 233 -98.5c64.667 0 125.334 18 182.001 54c7.33301 5.33301 17 13 29 23c20.667 16 33 24 37 24c17.333 0 26 -6 26 -18
c0 -3.33301 -2.33301 -7.33301 -7 -12c-71.333 -70 -160.666 -105 -267.999 -105c-61.333 0 -120 14.333 -176 43s-101.333 67.667 -136 117zM442.997 898.001c0 -8.66699 -2.66699 -15.834 -8 -21.501s-11.666 -8.5 -18.999 -8.5c-8 0 -14.833 2.83301 -20.5 8.5
s-8.5 12.834 -8.5 21.501c0 8 2.83301 15.167 8.5 21.5s12.5 9.5 20.5 9.5c7.33301 0 13.666 -3.16699 18.999 -9.5s8 -13.5 8 -21.5z" />
    <glyph glyph-name="cdotaccent" unicode="&#x10b;" horiz-adv-x="506" 
d="M425 75l0.999023 -0.999023c4 -2 6 -5 6 -9c0 -5.33301 -2.33301 -9.33301 -7 -12l-1 -1c-15.333 -14.667 -32.333 -26.667 -51 -36c-33.333 -17.333 -69.333 -26 -108 -26c-56 0 -107.167 20 -153.5 60s-69.5 89.333 -69.5 148c0 61.333 23 113 69 155
c43.333 37.333 95 56 155 56c61.333 0 113.333 -19.333 156 -58c4 -5.33301 6 -9.33301 6 -12c0 -4.66699 -1.66699 -8 -5 -10c-4.66699 -4.66699 -11 -7 -19 -7c-6.66699 0 -12.334 2.33301 -17.001 7c-3.33301 3.33301 -7.66602 6.83301 -12.999 10.5
s-8.66602 6.16699 -9.99902 7.5l-1 1c-29.333 19.333 -61.333 29 -96 29c-46 0 -86.833 -17.167 -122.5 -51.5s-53.5 -75.5 -53.5 -123.5c0 -64.667 26 -114.334 78 -149.001c27.333 -19.333 59.333 -29 96 -29c36 0 68.667 9.66699 98 29l1 1c10.667 8 19 15 25 21
c4 4.66699 9.66699 7 17 7c8.66699 0 15 -2.33301 19 -7zM292.999 597.001c0 -8.66699 -2.83301 -16 -8.5 -22s-12.167 -9 -19.5 -9c-8 0 -14.667 3 -20 9s-8 13.333 -8 22c0 8 2.66699 15.167 8 21.5s12 9.5 20 9.5c7.33301 0 13.833 -3.16699 19.5 -9.5
s8.5 -13.5 8.5 -21.5z" />
    <glyph glyph-name="Ccaron" unicode="&#x10c;" horiz-adv-x="766" 
d="M105 147l-0.00292969 1.00098c-42 60 -63 127 -63 201c0 103.333 37.833 188.5 113.5 255.5s163.5 100.5 263.5 100.5c38.667 0 75.334 -5.33301 110.001 -16c32 -9.33301 66.333 -23.833 103 -43.5s55 -37.167 55 -52.5c0 -11.333 -8 -17 -24 -17c-8 0 -14 2 -18 6
c-63.333 58.667 -139 88 -227 88c-87.333 0 -164 -30.833 -230 -92.5s-99 -138.167 -99 -229.5c0 -86.667 32 -162.834 96 -228.501s141.667 -98.5 233 -98.5c64.667 0 125.334 18 182.001 54c7.33301 5.33301 17 13 29 23c20.667 16 33 24 37 24c17.333 0 26 -6 26 -18
c0 -3.33301 -2.33301 -7.33301 -7 -12c-71.333 -70 -160.666 -105 -267.999 -105c-61.333 0 -120 14.333 -176 43s-101.333 67.667 -136 117zM504.997 1008c8 6.66699 13.667 10 17 10c14 0 21 -4.66699 21 -14c0 -4 -0.333008 -6.33301 -1 -7l-106 -120l-3 -3
c-2 -4 -7.66699 -6 -17 -6s-14 0.333008 -14 1l-3 5l-109 123v3c0 12 7 18 21 18c4.66699 0 9.66699 -2.66699 15 -8l2 -2l73 -73h30z" />
    <glyph glyph-name="ccaron" unicode="&#x10d;" horiz-adv-x="506" 
d="M425 75l0.999023 -0.999023c4 -2 6 -5 6 -9c0 -5.33301 -2.33301 -9.33301 -7 -12l-1 -1c-15.333 -14.667 -32.333 -26.667 -51 -36c-33.333 -17.333 -69.333 -26 -108 -26c-56 0 -107.167 20 -153.5 60s-69.5 89.333 -69.5 148c0 61.333 23 113 69 155
c43.333 37.333 95 56 155 56c61.333 0 113.333 -19.333 156 -58c4 -5.33301 6 -9.33301 6 -12c0 -4.66699 -1.66699 -8 -5 -10c-4.66699 -4.66699 -11 -7 -19 -7c-6.66699 0 -12.334 2.33301 -17.001 7c-3.33301 3.33301 -7.66602 6.83301 -12.999 10.5
s-8.66602 6.16699 -9.99902 7.5l-1 1c-29.333 19.333 -61.333 29 -96 29c-46 0 -86.833 -17.167 -122.5 -51.5s-53.5 -75.5 -53.5 -123.5c0 -64.667 26 -114.334 78 -149.001c27.333 -19.333 59.333 -29 96 -29c36 0 68.667 9.66699 98 29l1 1c10.667 8 19 15 25 21
c4 4.66699 9.66699 7 17 7c8.66699 0 15 -2.33301 19 -7zM353.999 706.001c8.66699 7.33301 14.334 11.001 17.001 11.001c14 0 21 -4.66699 21 -14c0 -4 -0.333008 -6.33301 -1 -7l-106 -120l-3 -3c-2 -4.66699 -7.66699 -7 -17 -7s-14 0.333008 -14 1l-3 6l-109 123v3
c0 5.33301 2.16699 9.66602 6.5 12.999s9.16602 5 14.499 5c6 0 11 -3 15 -9l2 -2l73 -72h30z" />
    <glyph glyph-name="Dcaron" unicode="&#x10e;" horiz-adv-x="757" 
d="M672 345c0 -57.333 -12.334 -109.499 -37.001 -156.499s-56.667 -84.833 -96 -113.5s-82.166 -50.834 -128.499 -66.501s-92.5 -23.5 -138.5 -23.5c-41.333 1.33301 -85.5 8 -132.5 20s-70.5 26.667 -70.5 44v586c0 5.33301 6.33301 11.333 19 18v1
c50.667 29.333 113 44 187 44c107.333 0 200.333 -34 279 -102s118 -151.667 118 -251zM625.999 344.001c0 67.333 -17.8311 126 -53.498 176s-79.334 86.667 -131.001 110s-106.167 35 -163.5 35c-48.667 0 -98.334 -11 -149.001 -33l-12 -19v-543l12 -19
c48.667 -21.333 98.667 -32 150 -32c96 0 177.833 32.667 245.5 98s101.5 141 101.5 227zM445.001 1037c8.66699 7.33301 14.334 10.999 17.001 10.999c14.667 0 22 -4.66699 22 -14c0 -4 -0.333008 -6.33301 -1 -7l-106 -120l-4 -3c-2 -4.66699 -7.66699 -7 -17 -7
c-8.66699 0 -13 0.333008 -13 1l-4 6l-109 123v3c0 4.66699 2.16699 8.83398 6.5 12.501s9.16602 5.5 14.499 5.5c6 0 11 -3 15 -9l2 -2l74 -72h29z" />
    <glyph glyph-name="Dcroat" unicode="&#x110;" horiz-adv-x="757" 
d="M270 -15c-41.333 1.33301 -85.165 8.00098 -131.498 20.001s-69.5 26.667 -69.5 44v263l-21 21h-87c-12.667 0 -19 4.66699 -19 14c0 8.66699 6.33301 13 19 13h87l21 21v254c0 5.33301 6.33301 11.333 19 18v1c50.667 29.333 113 44 187 44
c107.333 0 200.333 -34 279 -102s118 -151.667 118 -251c0 -57.333 -12.333 -109.5 -37 -156.5s-56.834 -84.833 -96.501 -113.5s-82.834 -50.834 -129.501 -66.501s-93 -23.5 -139 -23.5zM221.001 360.001c4.66699 0 9.16895 -1.33301 13.502 -4s6.5 -5.66699 6.5 -9
c0 -9.33301 -6.66699 -14 -20 -14h-83l-21 -21v-242l12 -19c48.667 -21.333 98.667 -32 150 -32c96 0 177.833 32.667 245.5 98s101.5 141 101.5 227c0 67.333 -17.833 126 -53.5 176s-79.334 86.667 -131.001 110s-106.167 35 -163.5 35
c-48.667 0 -98.334 -11 -149.001 -33l-12 -19v-232l21 -21h83z" />
    <glyph glyph-name="Emacron" unicode="&#x112;" horiz-adv-x="658" 
d="M117 619v-214.004l21 -21h300c15.333 0 23 -5.66699 23 -17s-7.66699 -17 -23 -17h-300l-21 -21v-257l13 -20l14 -5c42.667 -15.333 98 -23 166 -23c44 0 95 5.33301 153 16c29.333 6.66699 53.666 15.334 72.999 26.001c4 2 8 3 12 3c10 0 17.333 -3.33301 22 -10
c2 -3.33301 3 -5.66602 3 -6.99902c0 -7.33301 -3.33301 -12 -10 -14h-1c-64.667 -32 -151 -48 -259 -48c-80.667 0 -148.667 11.667 -204 35h-1l-5 4c-16 9.33301 -24 17 -24 23v588c2 6.66699 7.33301 12.334 16 17.001s23.667 11.334 45 20.001
c61.333 16 125.333 24 192 24c88.667 0 169 -15.333 241 -46c6.66699 -4 10 -8.66699 10 -14c0 -3.33301 -0.666992 -6 -2 -8c-4.66699 -6 -12 -9 -22 -9c-4 0 -8 1 -12 3c-51.333 26 -121.666 39 -210.999 39h-12c-60.667 0 -117.667 -7.66699 -171 -23
c-4.66699 0 -9.66699 -1.66699 -15 -5zM444 894.996c14 0 21 -4.33301 21 -13s-7 -13 -21 -13h-259c-13.333 0 -20 4.33301 -20 13s6.66699 13 20 13h259z" />
    <glyph glyph-name="emacron" unicode="&#x113;" horiz-adv-x="532" 
d="M436 120c5.33301 0 10.334 -1.82812 15.001 -5.49512s7 -7.83398 7 -12.501c0 -2.66699 -0.666992 -5.33398 -2 -8.00098c-20.667 -31.333 -48.834 -56.5 -84.501 -75.5s-72.167 -28.5 -109.5 -28.5c-46.667 0 -89.5 13.167 -128.5 39.5s-66.833 63.166 -83.5 110.499
c-5.33301 19.333 -8 37.666 -8 54.999c0 57.333 21.5 107.5 64.5 150.5s92.833 64.5 149.5 64.5c15.333 0 30.5 -1 45.5 -3s31.333 -6 49 -12s32 -16 43 -30s16.5 -31 16.5 -51c0 -28.667 -15.833 -56.834 -47.5 -84.501s-67.834 -50 -108.501 -67s-80 -28.833 -118 -35.5
l-12 -35l10 -10c32 -38 75 -57 129 -57c22.667 0 43.667 4 63 12s33.333 15.667 42 23s19.334 18 32.001 32c17.333 18.667 29.333 28 36 28zM260.001 377.005c-44.667 0 -84.333 -19 -119 -57s-52 -81 -52 -129v-6c0 -1.33301 0.166992 -2.5 0.5 -3.5
s0.5 -1.83301 0.5 -2.5l25 -21c44 7.33301 88 21.5 132 42.5s78.333 47.833 103 80.5c6.66699 6.66699 10 16 10 28c0 45.333 -33.333 68 -100 68zM392.002 594.005c14 0 20.999 -4.33301 20.999 -13c0 -4 -2.16699 -7.33301 -6.5 -10s-9.16602 -4 -14.499 -4h-259
c-5.33301 0 -10 1.33301 -14 4s-6 6 -6 10c0 8.66699 6.66699 13 20 13h259z" />
    <glyph glyph-name="Ebreve" unicode="&#x114;" horiz-adv-x="658" 
d="M117 619v-214.004l21 -21h300c15.333 0 23 -5.66699 23 -17s-7.66699 -17 -23 -17h-300l-21 -21v-257l13 -20l14 -5c42.667 -15.333 98 -23 166 -23c44 0 95 5.33301 153 16c29.333 6.66699 53.666 15.334 72.999 26.001c4 2 8 3 12 3c10 0 17.333 -3.33301 22 -10
c2 -3.33301 3 -5.66602 3 -6.99902c0 -7.33301 -3.33301 -12 -10 -14h-1c-64.667 -32 -151 -48 -259 -48c-80.667 0 -148.667 11.667 -204 35h-1l-5 4c-16 9.33301 -24 17 -24 23v588c2 6.66699 7.33301 12.334 16 17.001s23.667 11.334 45 20.001
c61.333 16 125.333 24 192 24c88.667 0 169 -15.333 241 -46c6.66699 -4 10 -8.66699 10 -14c0 -3.33301 -0.666992 -6 -2 -8c-4.66699 -6 -12 -9 -22 -9c-4 0 -8 1 -12 3c-51.333 26 -121.666 39 -210.999 39h-12c-60.667 0 -117.667 -7.66699 -171 -23
c-4.66699 0 -9.66699 -1.66699 -15 -5zM461 976.996l2 -2.00098c-1.33301 -32 -16.5 -57.833 -45.5 -77.5s-60.833 -29.5 -95.5 -29.5c-33.333 0 -64.5 9.83301 -93.5 29.5s-44.167 44.5 -45.5 74.5c0 1.33301 1 3 3 5l1 1c4.66699 3.33301 10 5 16 5c5.33301 0 9 -1 11 -3
c3.33301 -4 6 -6.66699 8 -8c6 -25.333 18 -44.833 36 -58.5s39.667 -20.5 65 -20.5c26.667 0 50 7.33301 70 22s31 35.334 33 62.001l2 1c5.33301 3.33301 10.666 5 15.999 5c6.66699 0 12.334 -2 17.001 -6z" />
    <glyph glyph-name="ebreve" unicode="&#x115;" horiz-adv-x="532" 
d="M436 120c5.33301 0 10.334 -1.82812 15.001 -5.49512s7 -7.83398 7 -12.501c0 -2.66699 -0.666992 -5.33398 -2 -8.00098c-20.667 -31.333 -48.834 -56.5 -84.501 -75.5s-72.167 -28.5 -109.5 -28.5c-46.667 0 -89.5 13.167 -128.5 39.5s-66.833 63.166 -83.5 110.499
c-5.33301 19.333 -8 37.666 -8 54.999c0 57.333 21.5 107.5 64.5 150.5s92.833 64.5 149.5 64.5c15.333 0 30.5 -1 45.5 -3s31.333 -6 49 -12s32 -16 43 -30s16.5 -31 16.5 -51c0 -28.667 -15.833 -56.834 -47.5 -84.501s-67.834 -50 -108.501 -67s-80 -28.833 -118 -35.5
l-12 -35l10 -10c32 -38 75 -57 129 -57c22.667 0 43.667 4 63 12s33.333 15.667 42 23s19.334 18 32.001 32c17.333 18.667 29.333 28 36 28zM260.001 377.005c-44.667 0 -84.333 -19 -119 -57s-52 -81 -52 -129v-6c0 -1.33301 0.166992 -2.5 0.5 -3.5
s0.5 -1.83301 0.5 -2.5l25 -21c44 7.33301 88 21.5 132 42.5s78.333 47.833 103 80.5c6.66699 6.66699 10 16 10 28c0 45.333 -33.333 68 -100 68zM409.002 676.005l3 -2.99902c-2 -31.333 -17.5 -57 -46.5 -77s-60.833 -30 -95.5 -30c-32.667 0 -63.667 9.83301 -93 29.5
s-44.333 44.5 -45 74.5c0 2.66699 0.666992 4.66699 2 6l1 1c4.66699 3.33301 10 5 16 5c5.33301 0 9 -1 11 -3c0.666992 -2 1.66699 -3.83301 3 -5.5s2.5 -2.83398 3.5 -3.50098s1.5 -0.666992 1.5 0c6 -24.667 18.167 -43.834 36.5 -57.501s40.166 -20.5 65.499 -20.5
c26 0 49 7.33301 69 22s31 35.334 33 62.001l3 1c4.66699 3.33301 9.66699 5 15 5c6.66699 0 12.334 -2 17.001 -6z" />
    <glyph glyph-name="Edotaccent" unicode="&#x116;" horiz-adv-x="658" 
d="M117 619v-214.004l21 -21h300c15.333 0 23 -5.66699 23 -17s-7.66699 -17 -23 -17h-300l-21 -21v-257l13 -20l14 -5c42.667 -15.333 98 -23 166 -23c44 0 95 5.33301 153 16c29.333 6.66699 53.666 15.334 72.999 26.001c4 2 8 3 12 3c10 0 17.333 -3.33301 22 -10
c2 -3.33301 3 -5.66602 3 -6.99902c0 -7.33301 -3.33301 -12 -10 -14h-1c-64.667 -32 -151 -48 -259 -48c-80.667 0 -148.667 11.667 -204 35h-1l-5 4c-16 9.33301 -24 17 -24 23v588c2 6.66699 7.33301 12.334 16 17.001s23.667 11.334 45 20.001
c61.333 16 125.333 24 192 24c88.667 0 169 -15.333 241 -46c6.66699 -4 10 -8.66699 10 -14c0 -3.33301 -0.666992 -6 -2 -8c-4.66699 -6 -12 -9 -22 -9c-4 0 -8 1 -12 3c-51.333 26 -121.666 39 -210.999 39h-12c-60.667 0 -117.667 -7.66699 -171 -23
c-4.66699 0 -9.66699 -1.66699 -15 -5zM349 897.996c0 -8.66699 -2.83301 -15.834 -8.5 -21.501s-12.167 -8.5 -19.5 -8.5c-8 0 -14.667 2.83301 -20 8.5s-8 12.834 -8 21.501c0 8 2.66699 15.167 8 21.5s12 9.5 20 9.5c7.33301 0 13.833 -3.16699 19.5 -9.5
s8.5 -13.5 8.5 -21.5z" />
    <glyph glyph-name="edotaccent" unicode="&#x117;" horiz-adv-x="532" 
d="M436 120c5.33301 0 10.334 -1.82812 15.001 -5.49512s7 -7.83398 7 -12.501c0 -2.66699 -0.666992 -5.33398 -2 -8.00098c-20.667 -31.333 -48.834 -56.5 -84.501 -75.5s-72.167 -28.5 -109.5 -28.5c-46.667 0 -89.5 13.167 -128.5 39.5s-66.833 63.166 -83.5 110.499
c-5.33301 19.333 -8 37.666 -8 54.999c0 57.333 21.5 107.5 64.5 150.5s92.833 64.5 149.5 64.5c15.333 0 30.5 -1 45.5 -3s31.333 -6 49 -12s32 -16 43 -30s16.5 -31 16.5 -51c0 -28.667 -15.833 -56.834 -47.5 -84.501s-67.834 -50 -108.501 -67s-80 -28.833 -118 -35.5
l-12 -35l10 -10c32 -38 75 -57 129 -57c22.667 0 43.667 4 63 12s33.333 15.667 42 23s19.334 18 32.001 32c17.333 18.667 29.333 28 36 28zM260.001 377.005c-44.667 0 -84.333 -19 -119 -57s-52 -81 -52 -129v-6c0 -1.33301 0.166992 -2.5 0.5 -3.5
s0.5 -1.83301 0.5 -2.5l25 -21c44 7.33301 88 21.5 132 42.5s78.333 47.833 103 80.5c6.66699 6.66699 10 16 10 28c0 45.333 -33.333 68 -100 68zM297.002 597.005c0 -8.66699 -2.83301 -16 -8.5 -22s-12.167 -9 -19.5 -9c-8 0 -14.667 3 -20 9s-8 13.333 -8 22
c0 8 2.66699 15.167 8 21.5s12 9.5 20 9.5c7.33301 0 13.833 -3.16699 19.5 -9.5s8.5 -13.5 8.5 -21.5z" />
    <glyph glyph-name="Eogonek" unicode="&#x118;" horiz-adv-x="658" 
d="M361 -140c4.66699 0 9.16699 -2.67188 13.5 -8.00488s6.5 -10.666 6.5 -15.999c0 -16 -8.66699 -29 -26 -39s-34.333 -15 -51 -15c-26 0 -49 9.83301 -69 29.5s-30 42.5 -30 68.5c0 22.667 12.333 49.334 37 80.001l-14 35c-48.667 5.33301 -91.334 15.333 -128.001 30
c0 0.666992 -0.333008 1 -1 1l-1 -1l-5 4c-16 9.33301 -24 17 -24 23v588c2 6.66699 7.33301 12.334 16 17.001s23.667 11.334 45 20.001c61.333 16 125.333 24 192 24c88.667 0 169 -15.333 241 -46c6.66699 -4 10 -8.66699 10 -14c0 -3.33301 -0.666992 -6 -2 -8
c-4.66699 -6 -12 -9 -22 -9c-4 0 -8 1 -12 3c-51.333 26 -121.666 39 -210.999 39h-12c-60.667 0 -117.667 -7.66699 -171 -23c-4.66699 0 -9.66699 -1.66699 -15 -5l-11 -19v-214l21 -21h300c15.333 0 23 -5.66699 23 -17s-7.66699 -17 -23 -17h-300l-21 -21v-257l13 -20
l14 -5c42.667 -15.333 98 -23 166 -23c44 0 95 5.33301 153 16c29.333 6.66699 53.666 15.334 72.999 26.001c4 2 8 3 12 3c10 0 17.333 -3.33301 22 -10c2 -3.33301 3 -5.66602 3 -6.99902c0 -7.33301 -3.33301 -12 -10 -14h-1c-53.333 -27.333 -125 -42.666 -215 -45.999
l-20 -19c-0.666992 -4.66699 -4.66699 -10 -12 -16l-11 -8h-1c-30 -24.667 -45 -48.334 -45 -71.001c0 -10.667 3.33301 -21.334 10 -32.001s17.334 -16 32.001 -16c10.667 0 25 6.33301 43 19c7.33301 7.33301 13.333 11 18 11z" />
    <glyph glyph-name="eogonek" unicode="&#x119;" horiz-adv-x="532" 
d="M319 -140c5.33301 0 9.99902 -2.49512 13.999 -7.49512s6 -10.5 6 -16.5c0 -16 -8.5 -29 -25.5 -39s-33.833 -15 -50.5 -15c-26 0 -49.167 9.83301 -69.5 29.5s-30.5 42.5 -30.5 68.5s14.333 54.667 43 86l-10 34c-33.333 10 -63.166 27 -89.499 51
s-45.166 53.667 -56.499 89c-5.33301 19.333 -8 37.666 -8 54.999c0 57.333 21.5 107.5 64.5 150.5s92.833 64.5 149.5 64.5c15.333 0 30.5 -1 45.5 -3s31.333 -6 49 -12s32 -16 43 -30s16.5 -31 16.5 -51c0 -28.667 -15.833 -56.834 -47.5 -84.501
s-67.834 -50 -108.501 -67s-80 -28.833 -118 -35.5l-12 -35l10 -10c32 -38 75 -57 129 -57c22.667 0 43.667 4 63 12s33.333 15.667 42 23s19.334 18 32.001 32c17.333 18.667 29.333 28 36 28c5.33301 0 10.333 -1.83301 15 -5.5s7 -7.83398 7 -12.501
c0 -2.66699 -0.666992 -5.33398 -2 -8.00098c-36.667 -54.667 -87.334 -87.334 -152.001 -98.001l-18 -18c-0.666992 -8.66699 -4.66699 -15.334 -12 -20.001v-1l-11 -8h-1c-9.33301 -7.33301 -19.333 -17.666 -30 -30.999s-16 -26.666 -16 -39.999
c0 -10.667 3.5 -21.334 10.5 -32.001s17.833 -16 32.5 -16c10 0 24 6.33301 42 19c8.66699 7.33301 14.667 11 18 11zM259.999 377.005c-44.667 0 -84.333 -19 -119 -57s-52 -81 -52 -129v-6c0 -1.33301 0.166992 -2.5 0.5 -3.5s0.5 -1.83301 0.5 -2.5l25 -21
c44 7.33301 88 21.5 132 42.5s78.333 47.833 103 80.5c6.66699 6.66699 10 16 10 28c0 45.333 -33.333 68 -100 68z" />
    <glyph glyph-name="Ecaron" unicode="&#x11a;" horiz-adv-x="658" 
d="M117 619v-214.004l21 -21h300c15.333 0 23 -5.66699 23 -17s-7.66699 -17 -23 -17h-300l-21 -21v-257l13 -20l14 -5c42.667 -15.333 98 -23 166 -23c44 0 95 5.33301 153 16c29.333 6.66699 53.666 15.334 72.999 26.001c4 2 8 3 12 3c10 0 17.333 -3.33301 22 -10
c2 -3.33301 3 -5.66602 3 -6.99902c0 -7.33301 -3.33301 -12 -10 -14h-1c-64.667 -32 -151 -48 -259 -48c-80.667 0 -148.667 11.667 -204 35h-1l-5 4c-16 9.33301 -24 17 -24 23v588c2 6.66699 7.33301 12.334 16 17.001s23.667 11.334 45 20.001
c61.333 16 125.333 24 192 24c88.667 0 169 -15.333 241 -46c6.66699 -4 10 -8.66699 10 -14c0 -3.33301 -0.666992 -6 -2 -8c-4.66699 -6 -12 -9 -22 -9c-4 0 -8 1 -12 3c-51.333 26 -121.666 39 -210.999 39h-12c-60.667 0 -117.667 -7.66699 -171 -23
c-4.66699 0 -9.66699 -1.66699 -15 -5zM410 1008c9.33301 6.66699 15.001 10.001 17.001 10.001c14.667 0 22 -4.66699 22 -14c0 -4 -0.333008 -6.33301 -1 -7l-106 -120l-4 -3c-2 -4 -7.66699 -6 -17 -6c-8.66699 0 -13 0.333008 -13 1l-4 5l-109 123v3
c0 5.33301 2.16699 9.66602 6.5 12.999s9.16602 5 14.499 5c6 0 11 -2.66699 15 -8l2 -2l74 -73h29z" />
    <glyph glyph-name="ecaron" unicode="&#x11b;" horiz-adv-x="532" 
d="M436 120c5.33301 0 10.334 -1.82812 15.001 -5.49512s7 -7.83398 7 -12.501c0 -2.66699 -0.666992 -5.33398 -2 -8.00098c-20.667 -31.333 -48.834 -56.5 -84.501 -75.5s-72.167 -28.5 -109.5 -28.5c-46.667 0 -89.5 13.167 -128.5 39.5s-66.833 63.166 -83.5 110.499
c-5.33301 19.333 -8 37.666 -8 54.999c0 57.333 21.5 107.5 64.5 150.5s92.833 64.5 149.5 64.5c15.333 0 30.5 -1 45.5 -3s31.333 -6 49 -12s32 -16 43 -30s16.5 -31 16.5 -51c0 -28.667 -15.833 -56.834 -47.5 -84.501s-67.834 -50 -108.501 -67s-80 -28.833 -118 -35.5
l-12 -35l10 -10c32 -38 75 -57 129 -57c22.667 0 43.667 4 63 12s33.333 15.667 42 23s19.334 18 32.001 32c17.333 18.667 29.333 28 36 28zM260.001 377.005c-44.667 0 -84.333 -19 -119 -57s-52 -81 -52 -129v-6c0 -1.33301 0.166992 -2.5 0.5 -3.5
s0.5 -1.83301 0.5 -2.5l25 -21c44 7.33301 88 21.5 132 42.5s78.333 47.833 103 80.5c6.66699 6.66699 10 16 10 28c0 45.333 -33.333 68 -100 68zM358.002 706.005c8.66699 7.33301 14.334 11.001 17.001 11.001c14.667 0 22 -4.66699 22 -14
c0 -4 -0.333008 -6.33301 -1 -7l-106 -120l-4 -3c-2 -4.66699 -7.66699 -7 -17 -7c-8.66699 0 -13 0.333008 -13 1l-4 6l-109 123v3c0 5.33301 2.16699 9.66602 6.5 12.999s9.16602 5 14.499 5c6 0 11 -3 15 -9l2 -2l74 -72h29z" />
    <glyph glyph-name="Gcircumflex" unicode="&#x11c;" horiz-adv-x="879" 
d="M771 362c6 0 11.332 -1.66699 15.999 -5s7 -7.33301 7 -12c0 -68.667 -18.667 -131.334 -56 -188.001c-26 -40.667 -59.667 -75 -101 -103s-86 -47 -134 -57c-27.333 -6.66699 -55.333 -10 -84 -10c-61.333 0 -121 15 -179 45s-104 70.667 -138 122
c-28 39.333 -46 81.666 -54 126.999c-4 34.667 -6 59.334 -6 74.001c0 72.667 23.333 140 70 202c77.333 98.667 180.333 148 309 148c40.667 0 78.667 -6 114 -18h1c60.667 -19.333 110.334 -48 149.001 -86c4.66699 -6 7 -10 7 -12c0 -4 -2.33301 -8.33301 -7 -13
c-4.66699 -3.33301 -11 -5 -19 -5c-6.66699 0 -12.334 1.66699 -17.001 5c-60.667 61.333 -136 92 -226 92c-62 0 -120.5 -15.667 -175.5 -47s-96.833 -75 -125.5 -131c-13.333 -26.667 -23.333 -57 -30 -91v-1c-2 -16 -3 -33 -3 -51c0 -52 13 -102.167 39 -150.5
s61.667 -87.166 107 -116.499c61.333 -39.333 122.333 -59 183 -59s117.834 16.5 171.501 49.5s95.167 77.167 124.5 132.5c18 33.333 28.333 67.333 31 102l-22 23h-178c-5.33301 0 -10.5 1.5 -15.5 4.5s-7.5 7.16699 -7.5 12.5c0 4.66699 2.5 8.66699 7.5 12
s10.167 5 15.5 5h226zM442.999 974l97 -107l1 -2v-2c0 -6.66699 -1.33301 -10 -4 -10c-8 0 -15.667 3.33301 -23 10v1l-73 69h-29l-74 -69v-1c-6.66699 -6.66699 -14 -10 -22 -10c-2.66699 0 -4 3.33301 -4 10v2l1 2l95 107c8.66699 7.33301 14.667 11 18 11
c4 0 9.66699 -3.66699 17 -11z" />
    <glyph glyph-name="gcircumflex" unicode="&#x11d;" horiz-adv-x="585" 
d="M379 383c34 -19.333 61 -44.832 81 -76.499s30 -67.167 30 -106.5v-189c0 -72 -24.333 -128.5 -73 -169.5s-107.667 -61.5 -177 -61.5c-10 0 -29 2 -57 6c-26 4 -53.667 12.5 -83 25.5s-44 26.833 -44 41.5c0 12 8.66699 18 26 18c4.66699 0 9.66699 -2 15 -6
c34 -34 81 -51 141 -51c66.667 0 117.5 18.5 152.5 55.5s52.5 84.5 52.5 142.5v18c0 2 -0.166992 5 -0.5 9s-0.5 7.33301 -0.5 10l-38 13c-32.667 -44.667 -77.667 -68.667 -135 -72h-3c-60 0 -112.333 20.167 -157 60.5s-67 89.166 -67 146.499c0 60 22.333 110.5 67 151.5
s97 61.5 157 61.5c44 0 81.667 -9 113 -27zM442 205.001c0 25.333 -4.5 48.3359 -13.5 69.0029s-20 37.167 -33 49.5s-27.833 22.666 -44.5 30.999s-32 14.166 -46 17.499s-27 5 -39 5c-50.667 0 -92.834 -17.833 -126.501 -53.5s-50.5 -76.834 -50.5 -123.501
c0 -47.333 17.833 -88.5 53.5 -123.5s77.834 -52.5 126.501 -52.5c48 0 88.833 17.833 122.5 53.5s50.5 78.167 50.5 127.5zM288 714.004l97.001 -107l1 -1v-3c0 -6.66699 -1.33301 -10 -4 -10c-8 0 -15.333 3.33301 -22 10v2l-74 68h-29l-74 -68v-2
c-6.66699 -6.66699 -14 -10 -22 -10c-2.66699 0 -4 3.33301 -4 10v3l1 1l95 107c8.66699 7.33301 15 11 19 11c3.33301 0 8.66602 -3.66699 15.999 -11z" />
    <glyph glyph-name="Gbreve" unicode="&#x11e;" horiz-adv-x="879" 
d="M771 362c6 0 11.332 -1.66699 15.999 -5s7 -7.33301 7 -12c0 -68.667 -18.667 -131.334 -56 -188.001c-26 -40.667 -59.667 -75 -101 -103s-86 -47 -134 -57c-27.333 -6.66699 -55.333 -10 -84 -10c-61.333 0 -121 15 -179 45s-104 70.667 -138 122
c-28 39.333 -46 81.666 -54 126.999c-4 34.667 -6 59.334 -6 74.001c0 72.667 23.333 140 70 202c77.333 98.667 180.333 148 309 148c40.667 0 78.667 -6 114 -18h1c60.667 -19.333 110.334 -48 149.001 -86c4.66699 -6 7 -10 7 -12c0 -4 -2.33301 -8.33301 -7 -13
c-4.66699 -3.33301 -11 -5 -19 -5c-6.66699 0 -12.334 1.66699 -17.001 5c-60.667 61.333 -136 92 -226 92c-62 0 -120.5 -15.667 -175.5 -47s-96.833 -75 -125.5 -131c-13.333 -26.667 -23.333 -57 -30 -91v-1c-2 -16 -3 -33 -3 -51c0 -52 13 -102.167 39 -150.5
s61.667 -87.166 107 -116.499c61.333 -39.333 122.333 -59 183 -59s117.834 16.5 171.501 49.5s95.167 77.167 124.5 132.5c18 33.333 28.333 67.333 31 102l-22 23h-178c-5.33301 0 -10.5 1.5 -15.5 4.5s-7.5 7.16699 -7.5 12.5c0 4.66699 2.5 8.66699 7.5 12
s10.167 5 15.5 5h226zM565.999 977l2.00098 -2.00098c-1.33301 -32 -16.5 -57.833 -45.5 -77.5s-60.833 -29.5 -95.5 -29.5c-33.333 0 -64.5 9.83301 -93.5 29.5s-44.167 44.5 -45.5 74.5c0 1.33301 1 3 3 5l1 1c4.66699 3.33301 10 5 16 5c5.33301 0 9 -1 11 -3
c3.33301 -4 6 -6.66699 8 -8c6 -25.333 18 -44.833 36 -58.5s39.667 -20.5 65 -20.5c26.667 0 50 7.33301 70 22s31 35.334 33 62.001l2 1c5.33301 3.33301 10.666 5 15.999 5c6 0 11.667 -2 17 -6z" />
    <glyph glyph-name="gbreve" unicode="&#x11f;" horiz-adv-x="585" 
d="M379 383c34 -19.333 61 -44.832 81 -76.499s30 -67.167 30 -106.5v-189c0 -72 -24.333 -128.5 -73 -169.5s-107.667 -61.5 -177 -61.5c-10 0 -29 2 -57 6c-26 4 -53.667 12.5 -83 25.5s-44 26.833 -44 41.5c0 12 8.66699 18 26 18c4.66699 0 9.66699 -2 15 -6
c34 -34 81 -51 141 -51c66.667 0 117.5 18.5 152.5 55.5s52.5 84.5 52.5 142.5v18c0 2 -0.166992 5 -0.5 9s-0.5 7.33301 -0.5 10l-38 13c-32.667 -44.667 -77.667 -68.667 -135 -72h-3c-60 0 -112.333 20.167 -157 60.5s-67 89.166 -67 146.499c0 60 22.333 110.5 67 151.5
s97 61.5 157 61.5c44 0 81.667 -9 113 -27zM442 205.001c0 25.333 -4.5 48.3359 -13.5 69.0029s-20 37.167 -33 49.5s-27.833 22.666 -44.5 30.999s-32 14.166 -46 17.499s-27 5 -39 5c-50.667 0 -92.834 -17.833 -126.501 -53.5s-50.5 -76.834 -50.5 -123.501
c0 -47.333 17.833 -88.5 53.5 -123.5s77.834 -52.5 126.501 -52.5c48 0 88.833 17.833 122.5 53.5s50.5 78.167 50.5 127.5zM409 717.004l3 -2c-2 -32 -17.5 -57.833 -46.5 -77.5s-60.833 -29.5 -95.5 -29.5c-33.333 0 -64.5 9.83301 -93.5 29.5s-43.833 44.5 -44.5 74.5
c0 2 0.666992 3.66699 2 5l1 1c4.66699 3.33301 10 5 16 5c5.33301 0 9 -1 11 -3c0.666992 -1.33301 1.66699 -2.83301 3 -4.5s2.5 -2.83398 3.5 -3.50098s1.5 -0.666992 1.5 0c6 -25.333 18.167 -44.833 36.5 -58.5s40.166 -20.5 65.499 -20.5c26 0 49 7.33301 69 22
s31 35.334 33 62.001l3 1c4.66699 3.33301 9.66699 5 15 5c6.66699 0 12.334 -2 17.001 -6z" />
    <glyph glyph-name="Gdotaccent" unicode="&#x120;" horiz-adv-x="879" 
d="M771 362c6 0 11.332 -1.66699 15.999 -5s7 -7.33301 7 -12c0 -68.667 -18.667 -131.334 -56 -188.001c-26 -40.667 -59.667 -75 -101 -103s-86 -47 -134 -57c-27.333 -6.66699 -55.333 -10 -84 -10c-61.333 0 -121 15 -179 45s-104 70.667 -138 122
c-28 39.333 -46 81.666 -54 126.999c-4 34.667 -6 59.334 -6 74.001c0 72.667 23.333 140 70 202c77.333 98.667 180.333 148 309 148c40.667 0 78.667 -6 114 -18h1c60.667 -19.333 110.334 -48 149.001 -86c4.66699 -6 7 -10 7 -12c0 -4 -2.33301 -8.33301 -7 -13
c-4.66699 -3.33301 -11 -5 -19 -5c-6.66699 0 -12.334 1.66699 -17.001 5c-60.667 61.333 -136 92 -226 92c-62 0 -120.5 -15.667 -175.5 -47s-96.833 -75 -125.5 -131c-13.333 -26.667 -23.333 -57 -30 -91v-1c-2 -16 -3 -33 -3 -51c0 -52 13 -102.167 39 -150.5
s61.667 -87.166 107 -116.499c61.333 -39.333 122.333 -59 183 -59s117.834 16.5 171.501 49.5s95.167 77.167 124.5 132.5c18 33.333 28.333 67.333 31 102l-22 23h-178c-5.33301 0 -10.5 1.5 -15.5 4.5s-7.5 7.16699 -7.5 12.5c0 4.66699 2.5 8.66699 7.5 12
s10.167 5 15.5 5h226zM453.999 898c0 -8.66699 -2.83301 -15.834 -8.5 -21.501s-12.167 -8.5 -19.5 -8.5c-8 0 -14.667 2.83301 -20 8.5s-8 12.834 -8 21.501c0 8 2.66699 15.167 8 21.5s12 9.5 20 9.5c7.33301 0 13.833 -3.16699 19.5 -9.5s8.5 -13.5 8.5 -21.5z" />
    <glyph glyph-name="gdotaccent" unicode="&#x121;" horiz-adv-x="585" 
d="M379 383c34 -19.333 61 -44.832 81 -76.499s30 -67.167 30 -106.5v-189c0 -72 -24.333 -128.5 -73 -169.5s-107.667 -61.5 -177 -61.5c-10 0 -29 2 -57 6c-26 4 -53.667 12.5 -83 25.5s-44 26.833 -44 41.5c0 12 8.66699 18 26 18c4.66699 0 9.66699 -2 15 -6
c34 -34 81 -51 141 -51c66.667 0 117.5 18.5 152.5 55.5s52.5 84.5 52.5 142.5v18c0 2 -0.166992 5 -0.5 9s-0.5 7.33301 -0.5 10l-38 13c-32.667 -44.667 -77.667 -68.667 -135 -72h-3c-60 0 -112.333 20.167 -157 60.5s-67 89.166 -67 146.499c0 60 22.333 110.5 67 151.5
s97 61.5 157 61.5c44 0 81.667 -9 113 -27zM442 205.001c0 25.333 -4.5 48.3359 -13.5 69.0029s-20 37.167 -33 49.5s-27.833 22.666 -44.5 30.999s-32 14.166 -46 17.499s-27 5 -39 5c-50.667 0 -92.834 -17.833 -126.501 -53.5s-50.5 -76.834 -50.5 -123.501
c0 -47.333 17.833 -88.5 53.5 -123.5s77.834 -52.5 126.501 -52.5c48 0 88.833 17.833 122.5 53.5s50.5 78.167 50.5 127.5zM299 638.004c0 -8 -2.66895 -15 -8.00195 -21s-11.666 -9 -18.999 -9c-8 0 -14.833 3 -20.5 9s-8.5 13 -8.5 21s2.83301 15.167 8.5 21.5
s12.5 9.5 20.5 9.5c6.66699 0 12.834 -3.16699 18.501 -9.5s8.5 -13.5 8.5 -21.5z" />
    <glyph glyph-name="Gcommaaccent" unicode="&#x122;" horiz-adv-x="879" 
d="M771 362c6 0 11.332 -1.66699 15.999 -5s7 -7.33301 7 -12c0 -68.667 -18.667 -131.334 -56 -188.001c-26 -40.667 -59.667 -75 -101 -103s-86 -47 -134 -57c-27.333 -6.66699 -55.333 -10 -84 -10c-61.333 0 -121 15 -179 45s-104 70.667 -138 122
c-28 39.333 -46 81.666 -54 126.999c-4 34.667 -6 59.334 -6 74.001c0 72.667 23.333 140 70 202c77.333 98.667 180.333 148 309 148c40.667 0 78.667 -6 114 -18h1c60.667 -19.333 110.334 -48 149.001 -86c4.66699 -6 7 -10 7 -12c0 -4 -2.33301 -8.33301 -7 -13
c-4.66699 -3.33301 -11 -5 -19 -5c-6.66699 0 -12.334 1.66699 -17.001 5c-60.667 61.333 -136 92 -226 92c-62 0 -120.5 -15.667 -175.5 -47s-96.833 -75 -125.5 -131c-13.333 -26.667 -23.333 -57 -30 -91v-1c-2 -16 -3 -33 -3 -51c0 -52 13 -102.167 39 -150.5
s61.667 -87.166 107 -116.499c61.333 -39.333 122.333 -59 183 -59s117.834 16.5 171.501 49.5s95.167 77.167 124.5 132.5c18 33.333 28.333 67.333 31 102l-22 23h-178c-5.33301 0 -10.5 1.5 -15.5 4.5s-7.5 7.16699 -7.5 12.5c0 4.66699 2.5 8.66699 7.5 12
s10.167 5 15.5 5h226zM394.999 -357c-1.33301 -0.666992 -2.66797 -1.6709 -4.00098 -3.00391l-3 -3c0 0.666992 0.333008 1 1 1l1 1c0.666992 2 1.83398 4.33301 3.50098 7s2.83398 4.33398 3.50098 5.00098l1 3l7 15c10 18.667 15 33.334 15 44.001
s-7.66699 24.334 -23 41.001l-1 1c-9.33301 6.66699 -14 12.667 -14 18c0 7.33301 3.66699 13.666 11 18.999s15.666 8 24.999 8c8.66699 0 16.667 -2.66699 24 -8s11 -11.666 11 -18.999c0 -51.333 -19 -94.666 -57 -129.999h-1zM381.997 -379.004
c0 4.66699 -1.66797 7 -5.00098 7c2.66699 1.33301 6.33398 4.33301 11.001 9c-4 -8 -6 -13.333 -6 -16z" />
    </font>
</defs>
</svg>
