<?xml version="1.0" standalone="no"?>
<!DOCTYPE svg PUBLIC "-//W3C//DTD SVG 1.1//EN" "http://www.w3.org/Graphics/SVG/1.1/DTD/svg11.dtd" >
<svg>
<metadata>
Created by FontForge 20090914 at Fri Feb  7 10:49:25 2014
 By www-data
&#194;&#169; Graham Meade. All rights reserved. gem@c031.aone.net.au
</metadata>
<defs>
<font id="Lane-Posh" horiz-adv-x="521" >
  <font-face 
    font-family="Lane - Posh"
    font-weight="400"
    font-stretch="normal"
    units-per-em="1000"
    panose-1="2 0 5 6 2 0 0 2 0 4"
    ascent="800"
    descent="-200"
    x-height="529"
    cap-height="729"
    bbox="-188 -291 1057 973.003"
    underline-thickness="21"
    underline-position="-93"
    unicode-range="U+0020-U+2212"
  />
<missing-glyph horiz-adv-x="500" 
 />
    <glyph glyph-name=".notdef" horiz-adv-x="500" 
 />
    <glyph glyph-name="space" unicode=" " horiz-adv-x="623" 
 />
    <glyph glyph-name="exclam" unicode="!" horiz-adv-x="307" 
d="M133 169h6l47 -47h38l9 553l-47 47v6h-62zM134 718h42l-9 -539h-24zM123 47c0 -31.333 7.66699 -49.667 23 -55l42 -42c4 -4 9.33301 -6 16 -6c19.333 0 29 18 29 54c0 23.333 -4 39 -12 47l-41 41c-5.33301 12 -14 18 -26 18c-20.667 0 -31 -19 -31 -57zM133 46.999
c0 31.333 7 47 21 47c14.667 0 22 -15.667 22 -47s-7.33301 -47 -22 -47c-14 0 -21 15.667 -21 47z" />
    <glyph glyph-name="quotedbl" unicode="&#x22;" horiz-adv-x="259" 
d="M165 710v-241h6l47 -47h48v235l-47 47v6h-54zM40 710v-241h6l47 -47h48v235l-47 47v6h-54zM84 700v-221h-34v221h34zM209 700v-221h-34v221h34z" />
    <glyph glyph-name="numbersign" unicode="#" horiz-adv-x="534" 
d="M233 580l-40 -109l-86 -1l-18 -56h7l47 -47h12l-26 -74h-75l-18 -56h7l47 -47h2l-22 -64h7l47 -47h61l41 111h48l-22 -64h7l47 -47h62l39 111h85l13 50l-48 47l2 6h-17l27 75l70 -1l17 50l-48 48l2 5h-3l20 57l-48 48l2 5h-67l-40 -109h-48l21 56l-48 48l2 5h-68z
M287 570l-40 -109h134l40 109h46l-39 -109l68 -1l-12 -36l-70 1l-50 -142h82l-10 -36h-84l-39 -111h-47l40 111h-135l-41 -111h-46l40 111h-74l11 36h75l52 142l-85 -1l11 36l86 1l40 109h47zM185 283h133l49 142h-133zM289 368h47l-26 -75h-47z" />
    <glyph glyph-name="dollar" unicode="$" horiz-adv-x="573" 
d="M161 -6l0.99707 -1.00098c6.66699 0 14.667 -4.66699 24 -14c12.667 -11.333 20.334 -18 23.001 -20v-73h6l47 -47h50v28l28 -28h50v93c53.333 8 96.333 26.333 129 55c44.667 36.667 67 88 67 154c0 48 -15.667 87.667 -47 119l-2 2v-1l-21 21
c-14 22.667 -33 41.667 -57 57c-12.667 8 -35.667 18.333 -69 31v272c20.667 -6 36.334 -12.333 47.001 -19c19.333 -28 29.333 -64.333 30 -109h6l47 -47h46c-2.66699 69.333 -23 122.333 -61 159l-27 26c-22.667 33.333 -52 57 -88 71v73l-47 47v6h-56v-28l-22 22v6h-56
v-112c-48 -12 -85.667 -34 -113 -66c-28.667 -32.667 -43 -74 -43 -124c0 -52 18 -94 54 -126c6 -6 12 -10.667 18 -14l28 -29c2 -2 4 -3.66699 6 -5c13.333 -14 34.666 -26.333 63.999 -37l-14 4v-302c-15.333 5.33301 -29.666 13 -42.999 23
c-17.333 30.667 -27.666 69 -30.999 115l-47 46v7h-53c5.33301 -83.333 31 -146.666 77 -189.999c6 -7.33301 13 -13.333 21 -18zM332.997 282.999l0.000976562 -266.001c47.333 7.33301 85.333 24.666 114 51.999c32 30 48 67.667 48 113c0 55.333 -22.333 97 -67 125
c-16 9.33301 -64 26.666 -144 51.999l-13 4c-87.333 27.333 -139.666 49 -156.999 65c-34 30.667 -51 70.334 -51 119.001c0 56 19.667 101.667 59 137c26 23.333 58.333 38.333 97 45v110h36v-105c2.66699 0.666992 6.66699 1 12 1h21c4 0 7 -0.333008 9 -1v105h36v-109
c52.667 -8 94.5 -30.667 125.5 -68s47.833 -83.333 50.5 -138h-32c-1.33301 46 -14.666 84.833 -39.999 116.5s-60 51.834 -104 60.501v-280l-36 10v276h-31c-5.33301 0 -9 -0.333008 -11 -1v-260l-36 10v245c-82.667 -20 -124 -71.333 -124 -154
c0 -37.333 14.667 -69.666 44 -96.999c19.333 -17.333 66.666 -36.666 141.999 -57.999c1.33301 -0.666992 3.16602 -1.16699 5.49902 -1.5s5.16602 -1.16602 8.49902 -2.49902l41 -12c16 -4.66699 34.333 -10.334 55 -17.001c14 -5.33301 26.167 -10.333 36.5 -15
s18.833 -9.33398 25.5 -14.001c50.667 -32 76 -78.333 76 -139c0 -58.667 -18.667 -106 -56 -142c-33.333 -32.667 -80 -53 -140 -61v-92h-36v90h-7c-5.33301 0 -11 0.166992 -17 0.5s-12 0.833008 -18 1.5v-92h-36v98c-53.333 12 -95 39 -125 81
c-28.667 38.667 -45 86.667 -49 144h33c4 -63.333 25.333 -113.333 64 -150c22 -20.667 47.667 -35.667 77 -45v303l36 -10v-300c12 -2 24 -3 36 -3h6v278zM286.998 304.998l-0.000976562 -7l-22 22v2c14.667 -6.66699 32.667 -12 54 -16l13 -4l34 -10l34 -10l36 -13
c10.667 -4 20.334 -8.33301 29.001 -13c13.333 -21.333 20 -46 20 -74c0 -64.667 -31.667 -111 -95 -139v196l-47 47v6zM151.997 496.998c0 54.667 18.998 94.665 56.998 119.998v-169l7 -2l33 -35c-17.333 4.66699 -33.166 9.83398 -47.499 15.501
s-27.166 11.834 -38.499 18.501c-7.33301 14.667 -11 32 -11 52zM311.995 402.996l12 -12l-12 3v9zM535.995 262.996v-1h1zM293.995 397.996h-1h1z" />
    <glyph glyph-name="percent" unicode="%" horiz-adv-x="727" 
d="M510 762l-131.999 -285.001c0 3.33301 0.333008 6.66602 1 9.99902v10c0 46.667 -12.333 86.667 -37 120c-5.33301 6.66699 -11.333 13.667 -18 21l-27 27c-0.666992 0.666992 -1.16699 1.33398 -1.5 2.00098s-0.833008 1.33398 -1.5 2.00098c-29.333 40 -66 60 -110 60
c-45.333 0 -82 -19.667 -110 -59c-26 -35.333 -39 -76.333 -39 -123c0 -46 12.667 -86.667 38 -122c13.333 -18 27.333 -31.667 42 -41l28 -28c25.333 -25.333 55.666 -38 90.999 -38c32 0 60.333 10.333 85 31l-166 -358h8l47 -47h50l353 765l-48 47l3 6h-56z
M396.001 174.999c0 -46 12.335 -86.335 37.002 -121.002c12 -16.667 25.333 -30 40 -40l30 -29c25.333 -25.333 55.666 -38 90.999 -38c45.333 0 81.666 18.667 108.999 56c24.667 34.667 37 75.334 37 122.001c0 57.333 -18.667 104.666 -56 141.999l-26 26
c-0.666992 0.666992 -1.16699 1.33398 -1.5 2.00098s-0.833008 1.33398 -1.5 2.00098c-28.667 40.667 -65.667 61 -111 61c-46 0 -83 -19.667 -111 -59c-24.667 -34.667 -37 -76 -37 -124zM406.003 174.997c0 44.667 11.667 83.667 35 117c26 37.333 60.333 56 103 56
c41.333 0 75.666 -19 102.999 -57c24 -33.333 36 -72 36 -116c0 -44.667 -11.667 -83.667 -35 -117c-26 -36.667 -60.667 -55 -104 -55c-41.333 0 -75.666 18.667 -102.999 56c-23.333 33.333 -35 72 -35 116zM45.0029 546.997c0 44 12 82.666 36 115.999
c27.333 37.333 61.666 56 102.999 56c42 0 76 -18.667 102 -56c24 -34 36 -72.667 36 -116c0 -44 -11.667 -82.667 -35 -116c-26 -37.333 -60.333 -56 -103 -56c-41.333 0 -75.666 18.667 -102.999 56c-24 32.667 -36 71.334 -36 116.001zM76.0029 546.996
c0 -34.667 9 -66 27 -94c20.667 -32 47.667 -48 81 -48c32 0 58.667 16 80 48c18 28 27 59.333 27 94c0 35.333 -9 66.666 -27 93.999c-20 31.333 -46.667 47 -80 47c-34 0 -61 -15.667 -81 -47c-18 -27.333 -27 -58.666 -27 -93.999zM437.003 174.996
c0 -36 8.66699 -67.332 26 -93.999c21.333 -31.333 48.333 -47 81 -47s59.667 15.667 81 47c17.333 27.333 26 58.666 26 93.999c0 36 -8.66699 67.333 -26 94c-21.333 31.333 -48.333 47 -81 47c-35.333 0 -62.333 -15.333 -81 -46c-17.333 -27.333 -26 -59 -26 -95z
M550.003 751.997l-346 -752h-35l347 752h34zM133.003 496.997c0 34 8.33398 63.666 25.001 88.999c18.667 30 44 45 76 45c7.33301 0 16 -1.66699 26 -5c14 -24 21 -50.333 21 -79c0 -31.333 -8.66699 -60.666 -26 -87.999h1c-19.333 -29.333 -43.333 -44 -72 -44
c-12.667 0 -24.334 2.66699 -35.001 8c-10.667 22 -16 46.667 -16 74zM494.004 124.996c0 36 8.33301 66.333 25 91c18.667 28.667 43.667 43 75 43c11.333 0 20 -1.33301 26 -4c14 -25.333 21 -52 21 -80c0 -31.333 -8.33301 -60.333 -25 -87h1
c-19.333 -29.333 -43.666 -44 -72.999 -44c-12.667 0 -24.334 2.66699 -35.001 8c-10 24 -15 48.333 -15 73z" />
    <glyph glyph-name="ampersand" unicode="&#x26;" horiz-adv-x="609" 
d="M518 334c0 -64.667 -8.66699 -118 -26 -160c-21.333 -49.333 -57 -89 -107 -119c-39.333 -23.333 -78.666 -35 -117.999 -35c-36.667 0 -69.667 9.66699 -99 29c-15.333 27.333 -23 59 -23 95c0 42.667 18.333 82.667 55 120c15.333 16 34.333 31.167 57 45.5
s49.334 27.833 80.001 40.5c99.333 42 149 103.333 149 184c0 42.667 -12.667 76.667 -38 102l-32 31c-27.333 41.333 -69 62 -125 62c-46.667 0 -84 -13.667 -112 -41s-42 -64.333 -42 -111c0 -27.333 11.667 -57.333 35 -90c15.333 -20.667 29.666 -35.667 42.999 -45
l10 -10c-120 -56 -180 -135.667 -180 -239v-4c0 -65.333 22 -118 66 -158c6.66699 -7.33301 13.667 -13.333 21 -18l31 -29c39.333 -39.333 93.666 -59 162.999 -59c79.333 0 149 34.333 209 103l32 -37h4l47 -47h58l-107 131c30 52 45.667 120.667 47 206l-47 47v6h-51z
M559 324c-1.33301 -80 -17.334 -146.335 -48.001 -199.002l101 -125h-41l-79 96c-62 -76 -134 -114 -216 -114c-64 0 -117.333 19 -160 57c-41.333 38.667 -61.666 90 -60.999 154c2.66699 112.667 75 195.334 217 248.001c-6.66699 -1.33301 -11 -2 -13 -2
c-28 0 -54.333 18 -79 54c-22 30.667 -33 58.667 -33 84c0 44 13 78.667 39 104s61 38 105 38c42 0 75.5 -12 100.5 -36s37.5 -57 37.5 -99c0 -78 -48.333 -137.333 -145 -178c-62.667 -26.667 -109 -55.667 -139 -87c-38 -40 -57 -81.667 -57 -125
c0 -53.333 16.333 -97.333 49 -132s76 -52 130 -52c45.333 0 88.666 13 129.999 39c42.667 27.333 74.334 61.333 95.001 102c24 44.667 36 102.334 36 173.001h31zM303.999 468.998c22 0.666992 43.668 14.668 65.001 42.001c19.333 25.333 29 49.666 29 72.999
c0 32.667 -10.333 58.667 -31 78s-47.334 29 -80.001 29c-30 0 -55.167 -9.16699 -75.5 -27.5s-30.5 -42.5 -30.5 -72.5c0 -28.667 10.667 -56.667 32 -84c22 -26.667 47.333 -40 76 -40c1.33301 0 3.33301 0.166992 6 0.5s5.66699 0.833008 9 1.5zM302 478.999
c-3.33301 -0.666992 -6.00098 -1.16797 -8.00098 -1.50098s-3.66699 -0.5 -5 -0.5c-13.333 0 -26 3 -38 9c-8.66699 16.667 -13 35 -13 55c0 28 9.5 50.5 28.5 67.5s42.5 25.5 70.5 25.5c18 0 32 -2.33301 42 -7c6 -13.333 9 -27.666 9 -42.999
c0 -26 -10.667 -50.333 -32 -73c-21.333 -21.333 -38.666 -32 -51.999 -32h-2z" />
    <glyph glyph-name="quotesingle" unicode="'" horiz-adv-x="134" 
d="M40 710v-241h6l47 -47h48v235l-47 47v6h-54zM84 700v-221h-34v221h34z" />
    <glyph glyph-name="parenleft" unicode="(" horiz-adv-x="288" 
d="M297 -275l50.998 0.000976562c-107.333 159.333 -161 321.666 -161 486.999c0 164 50.667 317.667 152 461l-48 47c0.666992 0.666992 1.33398 1.66699 2.00098 3s1.33398 2.33301 2.00098 3h-60c-98.667 -146.667 -148 -302.667 -148 -468
c0 -167.333 53 -329.333 159 -486h4zM250.998 -217.999c-102.667 151.333 -154 310 -154 476c0 164 47.667 316.667 143 458h35c-96.667 -136.667 -145 -288 -145 -454c0 -166.667 51.667 -326.667 155 -480h-34z" />
    <glyph glyph-name="parenright" unicode=")" horiz-adv-x="288" 
d="M4 -228l4.99902 0.000976562l47 -47h38c105.333 157.333 158 318.333 158 483s-48.667 319.667 -146 465l-41 40c-1.33301 2.66699 -2.66602 5 -3.99902 7l-4 6h-59c102.667 -145.333 154 -300 154 -464c0 -164.667 -51.333 -323.334 -154 -476.001zM5.99902 -217.999
c104 152.667 156 312.668 156 480.001c0 166 -48.333 317.333 -145 454h35c95.333 -141.333 143 -294 143 -458c0 -162.667 -51.667 -321.334 -155 -476.001h-34z" />
    <glyph glyph-name="asterisk" unicode="*" horiz-adv-x="500" 
d="M168 568c-41.333 -24 -61.998 -43.335 -61.998 -58.002c0 -10 4.33301 -16 13 -18l44 -43c2.66699 -2.66699 7 -4 13 -4c12 0 28 5 48 15c4 -25.333 11.667 -39 23 -41l42 -42c3.33301 -3.33301 7 -5 11 -5c16.667 0 25 27.667 25 83c0 7.33301 -0.166992 14 -0.5 20
s-0.833008 11.667 -1.5 17c9.33301 -7.33301 19.666 -13.333 30.999 -18l1 -1c30.667 -18.667 53.667 -28 69 -28c11.333 0 17 5 17 15c0 6 -3.66699 12.667 -11 20l-38 37c-3.33301 8 -11.333 17 -24 27l12 7c40.667 24 61 42.333 61 55
c0 4.66699 -1.33301 8.33398 -4 11.001l-43 43c-3.33301 9.33301 -10 14 -20 14c-10.667 0 -28 -6 -52 -18c-2 14.667 -5.66699 25.667 -11 33l-42 41c-4 11.333 -10.333 17 -19 17c-18.667 0 -28 -28.667 -28 -86v-17c0 -6.66699 0.333008 -11.667 1 -15
c-2 1.33301 -4.5 2.83301 -7.5 4.5s-6.5 3.83398 -10.5 6.50098h2c-38.667 22.667 -65.667 34 -81 34c-13.333 0 -20 -6 -20 -18c0 -10.667 11.667 -24.667 35 -42l29 -28c1.33301 -2 4.66602 -5.66699 9.99902 -11l-7 -3.5c-2 -1 -3.66699 -2.16699 -5 -3.5z
M173.002 558.998c20.667 12 37.667 20.002 51 24.002c-13.333 4 -30.333 12 -51 24c-38 22 -57 38.333 -57 49c0 5.33301 3.33301 8 10 8c10 0 31.667 -9 65 -27l26 -15.5c8 -5 14.667 -10.167 20 -15.5c-1.33301 7.33301 -2.5 15.5 -3.5 24.5s-1.5 19.167 -1.5 30.5
c0 50.667 6 76 18 76s18 -25.333 18 -76c0 -11.333 -0.5 -21.5 -1.5 -30.5s-2.16699 -17.167 -3.5 -24.5c5.33301 4.66699 11.833 9.66699 19.5 15s16.5 10.666 26.5 15.999c32 18 53.667 27 65 27c6.66699 0 10 -2.66699 10 -8c0 -10.667 -19 -27 -57 -49
c-21.333 -12 -38.333 -20 -51 -24c12.667 -4 29.667 -12 51 -24c38 -22 57 -38.333 57 -49c0 -5.33301 -3.33301 -8 -10 -8c-11.333 0 -33 9 -65 27c-10 5.33301 -18.833 10.666 -26.5 15.999s-14.167 10.333 -19.5 15c1.33301 -7.33301 2.5 -15.5 3.5 -24.5
s1.5 -19.167 1.5 -30.5c0 -50.667 -6 -76 -18 -76s-18 25.333 -18 76c0 11.333 0.5 21.5 1.5 30.5s2.16699 17.167 3.5 24.5c-5.33301 -5.33301 -12 -10.5 -20 -15.5l-26 -15.5c-33.333 -18 -55 -27 -65 -27c-6.66699 0 -10 2.66699 -10 8c0 10.667 19 27 57 49z
M249.002 581h2l2 2l-2 2h-2l-2 -2z" />
    <glyph glyph-name="plus" unicode="+" horiz-adv-x="833" 
d="M392 606v-283h-278v-50h6l47 -47h225v-235h6l47 -47h44v282h277v44l-47 47v6h-230v230l-47 47v6h-50zM432 596v-283h277v-30h-277v-283h-30v283h-278v30h278v283h30z" />
    <glyph glyph-name="comma" unicode="," horiz-adv-x="260" 
d="M75 51c0 -21.333 9.33301 -37.333 28 -48l16 -15v-116h6l47 -47h49v234l-47 47v6h-55v-6c-29.333 -8 -44 -26.333 -44 -55zM85 51c0 12.667 4.33301 23.833 13 33.5s19 14.5 31 14.5v3h35v-220h-35v121c-12 0 -22.333 5 -31 15s-13 21 -13 33z" />
    <glyph glyph-name="hyphen" unicode="-" horiz-adv-x="603" 
d="M566 226v44l-47 47v6h-405v-50h6l47 -47h399zM509 283h-385v30h385v-30z" />
    <glyph glyph-name="hyphen" unicode="&#xad;" horiz-adv-x="603" 
d="M566 226v44l-47 47v6h-405v-50h6l47 -47h399zM509 283h-385v30h385v-30z" />
    <glyph glyph-name="period" unicode="." horiz-adv-x="284" 
d="M103 41c0 -31.333 7.66699 -49.667 23 -55l42 -42c4 -4 9.66699 -6 17 -6c19.333 0 29 18 29 54c0 22.667 -4 38 -12 46l-40 40c-4.66699 12.667 -13.667 19 -27 19c-21.333 0 -32 -18.667 -32 -56zM113 40.999c0 30.667 7.33301 46 22 46s22 -15.333 22 -46
s-7.33301 -46 -22 -46s-22 15.333 -22 46z" />
    <glyph glyph-name="slash" unicode="/" horiz-adv-x="292" 
d="M292 748l-323 -840h8l46 -47h50l321 834l-47 47l2 6h-57zM333 738l-315 -820h-33l314 820h34z" />
    <glyph glyph-name="zero" unicode="0" 
d="M29 340c0 -168.667 39.002 -280.332 117.002 -334.999l28 -27c35.333 -35.333 80.666 -53 135.999 -53c85.333 0 147.666 42 186.999 126c28 62 42 141.667 42 239c0 147.333 -30.667 251.666 -92 312.999l-27 27c-38.667 52.667 -92 79 -160 79
c-86 0 -148.667 -42.667 -188 -128c-28.667 -62 -43 -142.333 -43 -241zM39.002 340.002c0 94 13.667 172 41 234c37.333 83.333 97.333 125 180 125c83.333 0 143.666 -41.667 180.999 -125c27.333 -62 41 -140 41 -234s-13.667 -172.333 -41 -235
c-37.333 -82 -97.666 -123 -180.999 -123s-143.333 41.333 -180 124c-27.333 62 -41 140 -41 234zM73.002 340.002c0 -84.667 10.667 -155 32 -211c31.333 -79.333 83.333 -119 156 -119c124.667 0 187 110 187 330c0 219.333 -62.333 329 -187 329
c-73.333 0 -125.333 -39.333 -156 -118c-21.333 -56 -32 -126.333 -32 -211zM162.002 82.002l-0.998047 0.000976562c-20.667 57.333 -31 126.666 -31 207.999c0 85.333 10.333 154.666 31 207.999h1c30 76 79.667 114 149 114c25.333 0 48.666 -5.66699 69.999 -17
c10 -13.333 18.667 -29.666 26 -48.999c20.667 -52 31 -120.667 31 -206c0 -213.333 -59 -320 -177 -320c-32 0 -59.333 8 -82 24c-6.66699 12 -12.334 24.667 -17.001 38zM217.004 176.003l36 -23l145 240l-48 47l3 4l-42 27l-149 -246l17 -11zM177.004 228.003l137 228
l24 -15l-137 -228z" />
    <glyph glyph-name="one" unicode="1" 
d="M148 470l5 6l48 -48l63 72l1 -509h6l47 -47h47v692l-47 47v6h-39l-5 5l-126 -148v-76zM158 542l116 138l1 -1h33v-679h-33l-1 630l-116 -133v45z" />
    <glyph glyph-name="two" unicode="2" 
d="M384 403l-374.999 -411.999h10l47 -47h455v44l-47 46v6h-255l271 300l-2 1c24.667 34.667 37 74.667 37 120c0 60 -17.333 106.333 -52 139l-28 27c-36 54 -93.333 81 -172 81c-66.667 0 -118.834 -18.833 -156.501 -56.5s-56.5 -89.834 -56.5 -156.501v-19h6l47 -47h49
v18c0 50.667 14.167 90.5 42.5 119.5s67.833 43.5 118.5 43.5c30 0 56 -6 78 -18c14 -23.333 21 -51.333 21 -84c0 -41.333 -12.667 -76.333 -38 -105zM391.001 396.001c27.333 30.667 41.002 68 41.002 112c0 48.667 -14.333 87.334 -43 116.001s-67.334 43 -116.001 43
c-52.667 0 -93.834 -15.167 -123.501 -45.5s-44.5 -71.833 -44.5 -124.5v-11h-35v9c0 64.667 17.667 114.667 53 150s85.333 53 150 53c60 0 107.5 -16.5 142.5 -49.5s52.5 -78.833 52.5 -137.5c0 -50.667 -15 -93.334 -45 -128.001h1l-318 -353h358v-30h-432z" />
    <glyph glyph-name="three" unicode="3" 
d="M253 24c-38.667 0 -70.3311 7.99902 -94.998 23.999c-11.333 22 -18.333 46 -21 72l-47 47c-0.666992 0.666992 -1 3.33398 -1 8.00098l-50 -23c11.333 -65.333 38.666 -113.333 81.999 -144l29 -27c36.667 -36 88 -54 154 -54c68.667 0 123.667 19.333 165 58
c42.667 38 64 91 64 159c0 52.667 -16.333 100.334 -49 143.001l-7 8.5c-2 2.33301 -4.33301 4.83301 -7 7.5l-25 24c0 0.666992 -3.66699 5.66699 -11 15c52 20 78 70 78 150c0 46 -13.667 82.667 -41 110l-31 30c-4.66699 6.66699 -9.83398 13.167 -15.501 19.5
s-12.167 12.166 -19.5 17.499c-33.333 25.333 -79 38 -137 38c-107.333 0 -175.333 -46 -204 -138l11 -6l43 -42l43 -21c22 73.333 72 110 150 110c35.333 0 64.666 -5 87.999 -15c7.33301 -16.667 11 -34.667 11 -54c0 -84 -52.667 -126 -158 -126h-18l-34 1l7 -53h5
l48 -47c5.33301 0.666992 10 1.16699 14 1.5s7.33301 0.5 10 0.5h13c44 0 79.333 -8.33301 106 -25c18.667 -26.667 28 -61 28 -103c0 -50.667 -17 -91 -51 -121c-33.333 -30 -75.666 -45 -126.999 -45zM253.003 13.999c54 0 98.6689 15.999 134.002 47.999
c36 32 54 74.667 54 128c0 58.667 -17.667 104.167 -53 136.5s-82.333 48.5 -141 48.5h-16c-6.66699 0 -11.667 -0.333008 -15 -1l-5 32l23 -1c124 -5.33301 186 40 186 136c0 84 -53 126 -159 126c-82 0 -133.667 -35.667 -155 -107l-29 14c26 82 89.667 123 191 123
c54 0 97.667 -12 131 -36c37.333 -27.333 56 -67 56 -119c0 -94.667 -38.667 -145.667 -116 -153c41.333 -9.33301 75 -33.666 101 -72.999c24 -37.333 36 -78 36 -122c0 -33.333 -5.33301 -63 -16 -89s-25.834 -48 -45.501 -66s-43.167 -31.667 -70.5 -41
s-57.333 -14 -90 -14c-115.333 0 -183 54 -203 162l30 14c15.333 -97.333 72.666 -146 171.999 -146z" />
    <glyph glyph-name="four" unicode="4" 
d="M356 -9h6l47 -47h46v180h77v44l-47 47v6h-30v415l-47 47v6l-50 -1l-332 -484l15 -33h5l47 -47h263v-133zM366 181h-319l-10 22l326 475l35 1v-468h77v-30h-77v-181h-32v181zM367 623l-286 -413h286v413zM181 220l176 253v-253h-176z" />
    <glyph glyph-name="five" unicode="5" 
d="M37 185c6.66699 -80.667 35.668 -140.001 87.001 -178.001l30 -28c37.333 -36.667 87 -55 149 -55c34.667 0 66.167 5.33301 94.5 16s52.166 26 71.499 46s34.333 44.167 45 72.5s16 60.166 16 95.499c0 72.667 -19.333 127.334 -58 164.001l-31 30
c-39.333 58 -99 87 -179 87c-35.333 0 -69 -6.66699 -101 -20v177h341v44l-47 47v6h-394l1 -375h6l47 -47h38c36.667 48 87.667 72 153 72c35.333 0 66.333 -7.33301 93 -22c20 -31.333 30 -67.666 30 -108.999c0 -56.667 -15.5 -102.167 -46.5 -136.5
s-74.833 -51.5 -131.5 -51.5c-38 0 -69 8 -93 24c-12.667 24 -20 53.333 -22 88l-46 46c-0.666992 0.666992 -1 3 -1 7h-52zM80.001 174.999c10.667 -110 67.665 -165.001 170.998 -165.001c60 0 106.333 18 139 54s49 84 49 144c0 58 -16 103.833 -48 137.5
s-77 50.5 -135 50.5c-68 0 -120.333 -24 -157 -72h-27l-1 355h374v-30h-341v-281c38.667 38 91.334 57 158.001 57c66 0 117.333 -20.333 154 -61c38 -41.333 57 -94.666 57 -159.999c0 -68 -20 -122.333 -60 -163c-39.333 -40 -92.666 -60 -159.999 -60
c-60.667 0 -108.5 17.167 -143.5 51.5s-55.5 81.833 -61.5 142.5h32z" />
    <glyph glyph-name="six" unicode="6" 
d="M173 -19c37.333 -37.333 87.335 -56 150.002 -56c66 0 118 23.667 156 71c35.333 43.333 53 98.333 53 165c0 79.333 -22 140 -66 182l-26 25l-4 6c-34 51.333 -88.667 77 -164 77c-50.667 0 -92.334 -13 -125.001 -39c23.333 131.333 84 197 182 197
c25.333 0 49 -4.66699 71 -14c5.33301 -10 10.166 -21.333 14.499 -34s7.83301 -26.667 10.5 -42h6l47 -47h46c-6 62 -23.333 105.333 -52 130l-7 6v0c0.666992 0 1 -0.333008 1 -1l-23 24c-6 10 -14 19.333 -24 28c-35.333 32 -80 48 -134 48
c-165.333 0 -248 -128 -248 -384c0 -162 36.667 -267.667 110 -317zM434.002 529c-13.333 91.333 -65 136.999 -155 136.999c-132 0 -198 -111.667 -198 -335v-30v-11c0 -3.33301 0.333008 -6.33301 1 -9c26 106.667 89.333 160 190 160c66 0 117 -22.333 153 -67
c33.333 -41.333 50 -95.666 50 -162.999c0 -66 -17 -120 -51 -162c-36 -44.667 -86.333 -67 -151 -67c-150.667 0 -226 113.667 -226 341c0 249.333 79.333 374 238 374c54 0 96.333 -14.5 127 -43.5s48.667 -70.5 54 -124.5h-32zM440.002 210.999
c0 58.667 -13.333 105.333 -40 140c-30 40 -73 60 -129 60c-54.667 0 -97.667 -19.667 -129 -59c-28 -36 -42 -82.667 -42 -140c0 -56 13.333 -102.333 40 -139c28.667 -40.667 70.667 -61 126 -61c56 0 99.667 19.667 131 59c28.667 35.333 43 82 43 140zM430.002 210.998
c0 -56.667 -13.333 -101.334 -40 -134.001c-30 -36.667 -71.333 -55 -124 -55c-31.333 0 -58.333 7 -81 21c-18.667 32.667 -28 72.334 -28 119.001c0 53.333 13.667 98.666 41 135.999h-1c30 37.333 71.333 56 124 56c28 0 53.667 -6.33301 77 -19
c21.333 -33.333 32 -74.666 32 -123.999z" />
    <glyph glyph-name="seven" unicode="7" 
d="M430 690v-1h-382v-52h6l47 -47l296 -1l-209 -598h7l47 -47h49l244 693l-48 48l2 5h-59zM475 680l-239 -680h-34l227 646l-371 1v32h382v1h35z" />
    <glyph glyph-name="eight" unicode="8" 
d="M34 189c0 -76 28.3311 -135.335 84.998 -178.002l30 -28c38.667 -38 91.334 -57 158.001 -57c34 0 65 4.83301 93 14.5s52 23.834 72 42.501s35.333 41.5 46 68.5s16 57.5 16 91.5c0 58.667 -16.667 104 -50 136l-32 31c-6 8.66699 -13 16.667 -21 24
c49.333 33.333 74 80 74 140c0 53.333 -16 95.666 -48 126.999l-28 27c-5.33301 10.667 -14.333 21.334 -27 32.001c-35.333 32 -82.666 48 -141.999 48c-58 0 -105 -16 -141 -48c-38 -33.333 -57 -78.666 -57 -135.999c0 -63.333 24 -110.333 72 -141l11 -11
c-74 -37.333 -111 -98.333 -111 -183zM175.998 372.998c-69.333 29.333 -104 79.667 -104 151c0 54.667 18 97.667 54 129c34 30 78.667 45 134 45s100.333 -14.667 135 -44c35.333 -31.333 53 -74.666 53 -129.999c0 -70 -34.333 -120.333 -103 -151
c88 -29.333 132 -89.333 132 -180c0 -33.333 -5.16699 -63 -15.5 -89s-25.166 -48 -44.499 -66s-42.5 -31.667 -69.5 -41s-57.167 -14 -90.5 -14c-64.667 0 -116.334 18.333 -155.001 55s-58 87 -58 151c0 91.333 44 152.666 132 183.999zM78.998 193.999
c0 -54.667 16.501 -98.166 49.501 -130.499s76.833 -48.5 131.5 -48.5c27.333 0 52.166 4.33301 74.499 13s41.5 20.667 57.5 36s28.333 34 37 56s13 46 13 72c0 54 -16.833 94.833 -50.5 122.5s-77.5 41.5 -131.5 41.5c-54.667 0 -97.667 -13.333 -129 -40
c-34.667 -28.667 -52 -69.334 -52 -122.001zM107.999 527c0 -44.667 13.832 -79.333 41.499 -104s64.5 -37 110.5 -37c44.667 0 81.334 12.5 110.001 37.5s43 59.5 43 103.5c0 22 -3.83301 41.833 -11.5 59.5s-18.167 32.5 -31.5 44.5s-29.5 21.333 -48.5 28
s-39.5 10 -61.5 10c-46 0 -82.833 -12.5 -110.5 -37.5s-41.5 -59.833 -41.5 -104.5zM135.998 144.001c0 51.333 16.667 90.667 50 118c29.333 24.667 70.666 37 123.999 37c38.667 0 72.334 -7.33301 101.001 -22c14 -24 21 -52.333 21 -85
c0 -52 -15.667 -92.833 -47 -122.5s-73 -44.5 -125 -44.5c-40 0 -74.667 9.66699 -104 29c-13.333 25.333 -20 55.333 -20 90zM164.998 477.002c0 42.667 13.167 75.833 39.5 99.5s61.5 35.5 105.5 35.5c30 0 55.333 -5.66699 76 -17c11.333 -19.333 17 -42 17 -68
c0 -42 -13.333 -74.333 -40 -97s-61 -34 -103 -34c-33.333 0 -61.333 6.66699 -84 20c-7.33301 16 -11 36.333 -11 61z" />
    <glyph glyph-name="nine" unicode="9" 
d="M44 158c5.33301 -62.667 24.668 -109.332 58.001 -139.999c9.33301 -8 16 -13.333 20 -16l28 -27l4 -4c33.333 -30.667 77.333 -46 132 -46c164 0 246 126.333 246 379c0 140 -28 238 -84 294l-25 25c-40 56 -98.333 84 -175 84c-68 0 -121 -24.333 -159 -73
c-34.667 -44.667 -52 -100.667 -52 -168c0 -66.667 16.333 -121.334 49 -164.001h-1c14 -18 27.667 -31.667 41 -41l31 -30c35.333 -34.667 82.666 -52 141.999 -52c46 0 86.667 13 122 39c-22 -131.333 -81.667 -197 -179 -197c-32.667 0 -59.334 6.33301 -80.001 19
c-9.33301 16 -15.666 37.667 -18.999 65l-46 46c-0.666992 0.666992 -1 3 -1 7h-52zM87.002 148.002c13.333 -91.333 65 -136.999 155 -136.999c132 0 198 111.667 198 335v28v12c0 3.33301 -0.333008 6.66602 -1 9.99902c-26 -106.667 -89.333 -160 -190 -160
c-66 0 -117 22.333 -153 67c-32.667 40.667 -49 95 -49 163c0 65.333 16.667 119.333 50 162c36 46 86.333 69 151 69c151.333 0 227 -114.333 227 -343c0 -248 -79.667 -372 -239 -372c-54 0 -96.5 14.5 -127.5 43.5s-48.833 69.833 -53.5 122.5h32zM81.002 466.003
c0 -56.667 13.667 -103.331 41 -139.998c30 -40 72.667 -60 128 -60c54 0 97 20 129 60c28.667 35.333 43 81.666 43 138.999s-13.333 103.666 -40 138.999c-30 40.667 -72.333 61 -127 61c-56 0 -99.667 -19.667 -131 -59c-28.667 -35.333 -43 -82 -43 -140z
M138.002 416.006c0 57.333 13.667 102.667 41 136c31.333 37.333 73.333 56 126 56c27.333 0 51.666 -5.66699 72.999 -17c22.667 -33.333 34 -75.333 34 -126c0 -53.333 -13.333 -97.333 -40 -132c-29.333 -38 -70 -57 -122 -57c-31.333 0 -59.666 7.66699 -84.999 23
c-18 30.667 -27 69.667 -27 117z" />
    <glyph glyph-name="colon" unicode=":" horiz-adv-x="284" 
d="M103 436c0 -32 7.66699 -50.667 23 -56l42 -42c4 -4 9.66699 -6 17 -6c19.333 0 29 18 29 54c0 24 -4 40 -12 48l-1 1v-1l-1 1h1l-40 40c-5.33301 12 -14 18 -26 18c-21.333 0 -32 -19 -32 -57zM103 41c0 -31.333 7.66699 -49.667 23 -55l42 -42c4 -4 9.66699 -6 17 -6
c19.333 0 29 18 29 54c0 22.667 -4 38 -12 46l-40 40c-4.66699 12.667 -13.667 19 -27 19c-21.333 0 -32 -18.667 -32 -56zM113 435.999c0 31.333 7.33301 47 22 47s22 -15.667 22 -47s-7.33301 -47 -22 -47s-22 15.667 -22 47zM113 40.999c0 30.667 7.33301 46 22 46
s22 -15.333 22 -46s-7.33301 -46 -22 -46s-22 15.333 -22 46z" />
    <glyph glyph-name="semicolon" unicode=";" horiz-adv-x="284" 
d="M75 51c0 -21.333 9.33301 -37.333 28 -48l16 -15v-116h6l47 -47h49v234l-47 47v6h-55v-6c-29.333 -8 -44 -26.333 -44 -55zM103 436c0 -32 7.66699 -50.667 23 -56l42 -42c4 -4 9.66699 -6 17 -6c19.333 0 29 18 29 54c0 24 -4 40 -12 48l-1 1v-1l-1 1h1l-40 40
c-5.33301 12 -14 18 -26 18c-21.333 0 -32 -19 -32 -57zM85 51c0 12.667 4.33301 23.833 13 33.5s19 14.5 31 14.5v3h35v-220h-35v121c-12 0 -22.333 5 -31 15s-13 21 -13 33zM113 435.999c0 31.333 7.33301 47 22 47s22 -15.667 22 -47s-7.33301 -47 -22 -47
s-22 15.667 -22 47z" />
    <glyph glyph-name="semicolon" unicode="&#x37e;" horiz-adv-x="284" 
d="M75 51c0 -21.333 9.33301 -37.333 28 -48l16 -15v-116h6l47 -47h49v234l-47 47v6h-55v-6c-29.333 -8 -44 -26.333 -44 -55zM103 436c0 -32 7.66699 -50.667 23 -56l42 -42c4 -4 9.66699 -6 17 -6c19.333 0 29 18 29 54c0 24 -4 40 -12 48l-1 1v-1l-1 1h1l-40 40
c-5.33301 12 -14 18 -26 18c-21.333 0 -32 -19 -32 -57zM85 51c0 12.667 4.33301 23.833 13 33.5s19 14.5 31 14.5v3h35v-220h-35v121c-12 0 -22.333 5 -31 15s-13 21 -13 33zM113 435.999c0 31.333 7.33301 47 22 47s22 -15.667 22 -47s-7.33301 -47 -22 -47
s-22 15.667 -22 47z" />
    <glyph glyph-name="less" unicode="&#x3c;" horiz-adv-x="532" 
d="M472 508l-413 -194v-32l9 -5l44 -43l407 -195v49l-47 47v5l-252 122l299 142v49l-47 47v8zM462 458l-339 -160l339 -164v-34l-393 188v20l393 184v-34z" />
    <glyph glyph-name="equal" unicode="=" horiz-adv-x="833" 
d="M114 247v-51h6l47 -47h599v45l-47 47v6h-605zM114 405v-51h6l47 -47h599v45l-47 47v6h-605zM709 395v-31h-585v31h585zM709 237v-31h-585v31h585z" />
    <glyph glyph-name="greater" unicode="&#x3e;" horiz-adv-x="532" 
d="M59 508v-56l9 -5l44 -43l249 -118l-302 -146v-56l5 2l48 -47l407 195v28l-47 47v5zM69 458v34l393 -184v-20l-393 -188v34l340 164z" />
    <glyph glyph-name="question" unicode="?" horiz-adv-x="463" 
d="M31 567l7 -2.99512l46 -45l40 -12c16 92 68.667 138 158 138c34.667 0 65 -5.66699 91 -17c10.667 -18.667 16 -42.334 16 -71.001c0 -34 -15.667 -62.667 -47 -86l-47 -35l-50 -38c-36 -40 -54 -95.333 -54 -166c0 -8.66699 0.333008 -18.334 1 -29.001
s1.66699 -22.667 3 -36h6l47 -47h46c-4 24.667 -6 46.667 -6 66c0 55.333 16.667 99.666 50 132.999l97 74c36.667 26 55 65.333 55 118c0 49.333 -15.667 89.666 -47 120.999l-25 25c-39.333 58 -99.333 87 -180 87c-56.667 0 -103.5 -14.333 -140.5 -43
s-60.833 -70.334 -71.5 -125.001zM36 576.005c8 38.667 23.667 71.334 47 98.001c36 40 87.667 60 155 60c56 0 101.667 -14.667 137 -44c38.667 -30.667 58 -73.667 58 -129c0 -48 -17.333 -85.333 -52 -112l-97 -74c-35.333 -34 -53 -80.333 -53 -139
c0 -6.66699 0.5 -14.834 1.5 -24.501l3.5 -34.5h-32c-2 20 -3 38.333 -3 55c0 66.667 17 119.667 51 159c2.66699 2.66699 34.667 26.667 96 72c34 24.667 51 56 51 94c0 96.667 -55.667 145 -167 145c-93.333 0 -148 -45.333 -164 -136zM186 47.0049
c0 -31.333 7.66699 -49.667 23 -55l42 -42c4 -4 9.33301 -6 16 -6c19.333 0 29 18 29 54c0 23.333 -4 39 -12 47l-1 1v-1l-1 1h1l-40 40c-5.33301 12 -14 18 -26 18c-20.667 0 -31 -19 -31 -57zM196 47.0039c0 31.333 7 47 21 47c14.667 0 22 -15.667 22 -47
s-7.33301 -47 -22 -47c-14 0 -21 15.667 -21 47z" />
    <glyph glyph-name="at" unicode="@" horiz-adv-x="1000" 
d="M212 -62c84 -84 199.666 -126.002 346.999 -126.002c116.667 0 224.667 36.667 324 110l-19 29l-39 39l-10 14c-96.667 -64.667 -200.334 -97 -311.001 -97c-115.333 0 -207.333 28.333 -276 85c-1.33301 1.33301 -2.5 2.33301 -3.5 3s-1.83301 1.33398 -2.5 2.00098
c-39.333 51.333 -59 118.333 -59 201c0 138 51.333 248.333 154 331c74.667 60 165.667 90 273 90c94 0 174 -23 240 -69c38.667 -46.667 58 -103.334 58 -170.001c0 -99.333 -23.667 -173.666 -71 -222.999l-24.5 -25.5l-9.5 -9.5c-13.333 -12.667 -26.333 -22 -39 -28
s-28 -11 -46 -15l64 401l-48 48l1 5l-52 -1l-10 -61l-6 7c-28 39.333 -70.667 59 -128 59h-7c-66 0 -121.333 -25 -166 -75c-38 -42 -62.667 -99 -74 -171l-3.5 -30c-1 -8.66699 -1.5 -16.667 -1.5 -24c0 -35.333 9 -68.333 27 -99c14 -26 32.333 -46.333 55 -61l28 -27
c31.333 -29.333 68 -44 110 -44h3c42 0 79.667 10.333 113 31c3.33301 -4 8 -7 14 -9l40 -39c8 -8 21.333 -12 40 -12c3.33301 0 7 0.166992 11 0.5s8.33301 0.833008 13 1.5h3c40 4.66699 72.333 14.334 97 29.001l24 18c4.66699 3.33301 10.334 7.66602 17.001 12.999
l23 18c73.333 58 110 148.667 110 272c0 84.667 -29.667 156.667 -89 216l-16 16c-17.333 24.667 -41.333 48.334 -72 71.001c-73.333 55.333 -164.666 83 -273.999 83c-165.333 0 -296.333 -59 -393 -177c-66 -81.333 -99 -175.333 -99 -282
c0 -127.333 48.333 -228.333 145 -303zM439.999 62.998c-58 -1.33301 -103.667 25.6689 -137 81.002c-17.333 29.333 -26 60.333 -26 93c0 7.33301 0.5 15.333 1.5 24l3.5 29c11.333 70 35 125 71 165c40.667 46.667 93.667 70.667 159 72c77.333 2 126 -29 146 -93l14 88
l32 1l-67 -428c0.666992 -3.33301 1.16699 -6.83301 1.5 -10.5s1.16602 -7.83398 2.49902 -12.501c2.66699 -6 9.66699 -9 21 -9c3.33301 0 6.83301 0.166992 10.5 0.5s7.16699 0.833008 10.5 1.5c36 6.66699 65 17.667 87 33c5.33301 3.33301 12.333 9.5 21 18.5l33 33.5
c49.333 53.333 74 130 74 230c0 94 -37 168.667 -111 224c-65.333 48 -147.666 72 -246.999 72c-107.333 0 -199.666 -30.667 -276.999 -92c-104.667 -84 -157 -196 -157 -336c0 -112.667 38.667 -200.667 116 -264c72 -58 166 -87 282 -87
c112.667 0 215.334 31.333 308.001 94l11 -17c-94 -70 -198.667 -105 -314 -105c-124 0 -224.333 29.333 -301 88c-97.333 73.333 -146 173 -146 299c0 106.667 32 198.667 96 276c95.333 115.333 224 173 386 173c107.333 0 196.666 -27 267.999 -81
c84 -64 126 -145.667 126 -245c0 -120 -35.667 -208.667 -107 -266c-14.667 -12.667 -36 -29 -64 -49c-36.667 -20.667 -76.667 -31 -120 -31c-29.333 0 -44 11.667 -44 35c0 5.33301 0.333008 8.66602 1 9.99902h-1l13 85c-38.667 -64.667 -97.334 -98 -176.001 -100z
M329.999 151c20.667 -40 59.001 -59.3311 115.001 -57.998c62.667 0.666992 112.667 29.334 150 86.001c31.333 49.333 47 106.666 47 171.999c0 45.333 -10.667 80.666 -32 105.999c-23.333 28 -57.333 41.667 -102 41c-58.667 -0.666992 -106.334 -26 -143.001 -76
c-30.667 -42.667 -48.667 -95.334 -54 -158.001c-0.666992 -4.66699 -1 -9.33398 -1 -14.001v-11c0 -33.333 6.66699 -62.666 20 -87.999zM367 189.002c0 18.667 1.33301 35.666 4 50.999c8.66699 56 27.667 102 57 138c34 42 77.333 63 130 63h4
c19.333 0 37 -3.33301 53 -10c11.333 -24 17 -50.667 17 -80c0 -18.667 -1.33301 -35.667 -4 -51c-9.33301 -57.333 -28 -102.666 -56 -135.999c-34 -40.667 -76.333 -61 -127 -61h-8c-22 0 -41 3.66699 -57 11c-8.66699 19.333 -13 44.333 -13 75z" />
    <glyph glyph-name="A" unicode="A" horiz-adv-x="574" 
d="M-20 -9h8l46 -47h49l94 244h291l75 -197h5l47 -47h48l-278 732l-45 45l-3 8h-52zM272 719h38l273 -719h-33l-93 245h-335l-94 -245h-32zM445 275l-154 405l-157 -405h311zM430 285h-215l108 278z" />
    <glyph glyph-name="B" unicode="B" horiz-adv-x="618" 
d="M72 -9l6.00098 0.000976562l47 -47h226c94 0 160.667 12 200 36c56.667 34 85 88 85 162c0 58 -16.333 103.333 -49 136l-30 30c-12.667 16.667 -24.334 28.667 -35.001 36c51.333 33.333 77 82.333 77 147c0 55.333 -15.667 98 -47 128l-27 26
c-22 35.333 -58.667 59.666 -110 72.999c-32.667 7.33301 -78 11 -136 11h-207v-738zM82.001 719.001l197 0.00195312c89.333 0 151.333 -10.333 186 -31c51.333 -30 77 -79 77 -147c0 -80.667 -41 -135.334 -123 -164.001c106.667 -20.667 160 -82.334 160 -185.001
c0 -72 -27.333 -124.333 -82 -157c-38.667 -23.333 -104 -35 -196 -35h-219v719zM294.001 30.0029c78.667 0 132.667 6 162 18c58.667 24 88 74 88 150c0 66 -27.333 111.333 -82 136c-38 18 -93.667 27 -167 27h-179v-331h178zM283.001 387.003
c150 0 224.999 52 224.999 156c0 60.667 -24.333 102 -73 124c-31.333 14.667 -82.666 22 -153.999 22h-165v-302h167zM173 304.003l172 -0.000976562c71.333 0 126.333 -8.66699 165 -26c2 -2 4 -3.33301 6 -4c12 -21.333 18 -46.666 18 -75.999
c0 -71.333 -27.333 -118.333 -82 -141c-28 -11.333 -80.667 -17 -158 -17h-121v264zM173 632.002h158c68.667 0 119 -7 151 -21c0 -0.666992 0.333008 -0.666992 1 0v-1c10 -18 15 -40.333 15 -67c0 -97.333 -71.667 -146 -215 -146h-110v235z" />
    <glyph glyph-name="C" unicode="C" horiz-adv-x="681" 
d="M623 181l-41 22.001c-27.333 -119.333 -106.333 -179 -237 -179c-57.333 0 -105 16 -143 48l-3 6c-37.333 61.333 -56 138 -56 230c0 94 19.333 171.333 58 232c44.667 72 111 108 199 108c55.333 0 101.666 -11.333 138.999 -34c14.667 -20 26.667 -43.667 36 -71l4 2
l48 -48l44 23c-12.667 35.333 -32 66 -58 92l-5 5l-21 20c-15.333 19.333 -30 34.666 -44 45.999c-51.333 41.333 -113.666 62 -186.999 62c-108 0 -189.333 -39 -244 -117c-47.333 -68.667 -71 -158.667 -71 -270c0 -108.667 23 -197 69 -265
c19.333 -28.667 40.666 -50.667 63.999 -66l21 -21c50.667 -50.667 119 -76 205 -76c66.667 0 124.334 15.667 173.001 47c52 32.667 86 80.667 102 144l-4 8l-44 44zM618 173.001c-16 -61.333 -49 -108.333 -99 -141c-47.333 -30 -103.666 -45 -168.999 -45
c-104 0 -181.333 37.333 -232 112c-44.667 64.667 -67 151 -67 259c0 108.667 22.667 196.334 68 263.001c52.667 76 131.667 114 237 114c71.333 0 131.666 -19.667 180.999 -59c35.333 -28 60.333 -62.333 75 -103l-31 -16c-32.667 98.667 -109.667 148 -231 148
c-90 0 -158.333 -37 -205 -111c-39.333 -62.667 -59 -141.334 -59 -236.001c0 -95.333 19 -173.333 57 -234c45.333 -73.333 112.666 -110 201.999 -110c62 0 113.667 14.333 155 43c46.667 31.333 76.334 75 89.001 131z" />
    <glyph glyph-name="D" unicode="D" horiz-adv-x="689" 
d="M72 -9h5.99902l47 -47h172c104.667 0 182.667 12 234 36c108.667 50 163 159.667 163 329c0 128 -31 221.667 -93 281l-23 22c-26 34.667 -58 61.667 -96 81c-47.333 24 -125.666 36 -234.999 36h-175v-738zM81.999 719l165 -0.000976562c106 0 183 -11.667 231 -35
c106 -53.333 159 -161.666 159 -324.999c0 -167.333 -53 -275.333 -159 -324c-50.667 -23.333 -127.667 -35 -231 -35h-165v719zM254.999 29.999c96.667 0 168 11.999 214 35.999c88.667 46.667 133 144.334 133 293.001c0 120.667 -31.667 209.667 -95 267
c-30 26.667 -69.667 44.667 -119 54c-14.667 2.66699 -33 4.66699 -55 6s-48 2 -78 2h-139v-658h139zM172.999 630.998l132 -0.000976562c30 0 56 -0.666992 78 -2s40 -3.33301 54 -6c36 -7.33301 66.333 -18.666 91 -33.999c42.667 -55.333 64 -132 64 -230
c0 -145.333 -42.333 -240 -127 -284c-45.333 -23.333 -115.333 -35 -210 -35h-82v591z" />
    <glyph glyph-name="E" unicode="E" horiz-adv-x="567" 
d="M72 -9h6l47 -47h463v46l-47 46v6h-368v260h321v45l-47 47v6h-274v230h405v46l-47 47v6h-459v-738zM82 719h439v-32h-405v-297h321v-31h-321v-327h415v-32h-449v719z" />
    <glyph glyph-name="F" unicode="F" horiz-adv-x="523" 
d="M72 -9h6l47 -47h48v358h307v45l-47 47v6h-260v230h386v46l-47 47v6h-440v-738zM82 719h420v-32h-386v-297h307v-31h-307v-359h-34v719z" />
    <glyph glyph-name="G" unicode="G" horiz-adv-x="709" 
d="M200 8c52.667 -52.667 123.998 -79.001 213.998 -79.001c49.333 0 95 9 137 27c107.333 45.333 161 145.666 161 300.999v21v12c0 4 -0.333008 7.66699 -1 11l-47 46v7h-289v-50h6l47 -47h183c-4 -72.667 -27.667 -129.667 -71 -171s-102 -62 -176 -62
c-62.667 0 -115 17 -157 51c-42 60 -63 138 -63 234c0 94.667 20.667 172.667 62 234c46.667 70 116 105 208 105c58.667 0 106.334 -11.333 143.001 -34c14.667 -20 26.667 -44 36 -72l8 -3l45 -45l10 -4l37 18c-14.667 46.667 -35 82 -61 106l-24 23
c-51.333 72 -132.666 108 -243.999 108c-108 0 -190.333 -39.333 -247 -118c-50 -69.333 -75 -158.666 -75 -267.999s25.333 -198.666 76 -267.999c20 -27.333 40.333 -48 61 -62zM602.998 545.999c-32 106 -111.666 159 -238.999 159c-92.667 0 -163.667 -35.667 -213 -107
c-42.667 -61.333 -64 -141 -64 -239s21.333 -177.333 64 -238c49.333 -71.333 120.333 -107 213 -107c82 0 145.333 24.333 190 73c45.333 49.333 68 114.666 68 195.999v31h-237v30h269c0.666992 -3.33301 1 -6.66602 1 -9.99902v-9v-18c0 -153.333 -52.333 -252 -157 -296
c-40 -16.667 -84.667 -25 -134 -25c-104.667 0 -184.334 37.333 -239.001 112c-48.667 65.333 -73 152.333 -73 261c0 108 24.333 195.333 73 262c54.667 76 134.334 114 239.001 114c65.333 0 120.666 -13.667 165.999 -41c51.333 -30 86 -74.333 104 -133z" />
    <glyph glyph-name="H" unicode="H" horiz-adv-x="686" 
d="M72 -9h6l47 -47h48v368h388v-321h6l47 -47h47v732l-47 47v6h-53v-320h-388v267l-47 47v6h-54v-738zM82 719h34v-320h455v320h33v-719h-33v369h-455v-369h-34v719z" />
    <glyph glyph-name="I" unicode="I" horiz-adv-x="207" 
d="M77 -9h6l47 -47h47v732l-47 47v6h-53v-738zM87 719h33v-719h-33v719z" />
    <glyph glyph-name="J" unicode="J" horiz-adv-x="473" 
d="M217 23c-31.333 0 -56.3301 6.33301 -74.9971 19c-0.666992 1.33301 -1.33398 2.83301 -2.00098 4.5s-1.33398 3.83398 -2.00098 6.50098l-44 44c-2 2 -3.66699 5.66699 -5 11c-2.66699 -2.66699 -4.33398 -4 -5.00098 -4c-8.66699 -4.66699 -23 -10 -43 -16
c12.667 -36 34 -64.333 64 -85l30 -28c33.333 -31.333 76.333 -47 129 -47c127.333 0 191 77 191 231v517l-47 47v6h-53v-510c0 -64.667 -8 -111.334 -24 -140.001c-21.333 -37.333 -59.333 -56 -114 -56zM217.003 13c58.667 0 99.667 20.667 123 62
c16.667 30.667 25 78.667 25 144v500h33v-510c0 -149.333 -61.333 -224 -184 -224c-80.667 0 -134 32 -160 96c3.33301 0.666992 7.5 2.16699 12.5 4.5l18.5 8.5c22 -54 66 -81 132 -81z" />
    <glyph glyph-name="K" unicode="K" horiz-adv-x="582" 
d="M72 -9h6l47 -47h48v273l119 121l264 -347h4l47 -47h58l-332 436l292 296l-48 48l5 5h-71l-338 -344v291l-47 47v6h-54v-738zM82 719h34v-405l399 405h43l-284 -288l327 -431h-40l-309 408l-136 -138v-270h-34v719z" />
    <glyph glyph-name="L" unicode="L" horiz-adv-x="509" 
d="M73 -9h6l47 -47h429v46l-47 46v6h-334v634l-47 47v6h-54v-738zM83 719h34v-687h381v-32h-415v719z" />
    <glyph glyph-name="M" unicode="M" horiz-adv-x="773" 
d="M72 -9h6l47 -47h44v604l206 -386h5l47 -47h28l196 380v-504h6l47 -47h44v732l-47 47v6h-63l-237 -476l-217 423l-43 42l-5 11h-64v-738zM82 719h48l262 -506l252 506h47v-719h-30v677l-260 -505h-20l-269 505v-677h-30v719z" />
    <glyph glyph-name="N" unicode="N" horiz-adv-x="682" 
d="M72 -9h6l47 -47h47v615l390 -568h4l47 -47h44v732l-47 47v6h-53v-622l-387 569l-41 40l-8 13h-49v-738zM82 719h34l451 -662v662h33v-719h-33l-452 661v-661h-33v719z" />
    <glyph glyph-name="O" unicode="O" horiz-adv-x="741" 
d="M42 359c0 -110.667 25.666 -200.668 76.999 -270.001c8.66699 -11.333 17.334 -21.333 26.001 -30s17.667 -16.667 27 -24l25 -25c54.667 -54 129 -81 223 -81c108.667 0 191.667 37 249 111c51.333 67.333 77 157 77 269c0 112.667 -25.333 202.334 -76 269.001
c-7.33301 10 -16.333 20.333 -27 31l-21 21c-56.667 76.667 -140.667 115 -252 115c-110 0 -193.333 -38.333 -250 -115c-52 -68 -78 -158.333 -78 -271zM51.999 358.999c0 108.667 25.001 196.667 75.001 264c56 74.667 137 112 243 112
c107.333 0 188.666 -37 243.999 -111c50 -66 75 -154.333 75 -265c0 -111.333 -25 -199.333 -75 -264c-54.667 -72.667 -136 -109 -244 -109c-106.667 0 -188 36.333 -244 109c-49.333 66.667 -74 154.667 -74 264zM87 358.999c0 -99.333 21.668 -179.666 65.001 -240.999
c49.333 -69.333 122 -104 218 -104c96.667 0 169.667 34.667 219 104c43.333 61.333 65 141.666 65 240.999s-22 179.666 -66 240.999c-50 70 -122.667 105 -218 105c-96.667 0 -169.334 -35 -218.001 -105c-43.333 -61.333 -65 -141.666 -65 -240.999zM144.001 308.999
c0 97.333 21.001 175.999 63.001 235.999c48 68.667 119 103 213 103c57.333 0 107.666 -14 150.999 -42l9 -12c42.667 -56.667 64 -135 64 -235c0 -98.667 -21 -177 -63 -235c-48 -66.667 -118.333 -100 -211 -100c-66.667 0 -121.667 17.333 -165 52
c-40.667 60.667 -61 138.334 -61 233.001z" />
    <glyph glyph-name="P" unicode="P" horiz-adv-x="575" 
d="M278 729h-206v-738h6l47 -47h48v331h152c52 0 89.333 2.33301 112 7c50 10 88.667 32.333 116 67s41 78 41 130c0 56 -16 100 -48 132l-28 28c-40 60 -120 90 -240 90zM278 719c172.667 0 259 -63.334 259 -190.001c0 -50.667 -13 -92.667 -39 -126
s-63.333 -54.666 -112 -63.999c-21.333 -4.66699 -58.333 -7 -111 -7h-159v-332h-34v719h196zM116 688.999l-0.000976562 -327h137c83.333 0 139 6.33301 167 19c54.667 24 82 74.333 82 151c0 86.667 -44.333 137 -133 151c-25.333 4 -63.666 6 -114.999 6h-138z
M172.999 631.999l130.998 -0.000976562c52.667 0 91 -2 115 -6c24.667 -4 43.334 -10 56.001 -18c11.333 -21.333 17 -46.666 17 -75.999c0 -72.667 -25.333 -120 -76 -142c-27.333 -12 -81.666 -18 -162.999 -18h-80v260z" />
    <glyph glyph-name="Q" unicode="Q" horiz-adv-x="741" 
d="M709 -69c-57.333 4.66699 -99 13.332 -125 25.999c-1.33301 2 -2.33301 5 -3 9c30.667 18.667 56.667 39.667 78 63c58 68 87 161.333 87 280c0 112.667 -25.333 202.334 -76 269.001c-7.33301 10 -16.333 20.333 -27 31l-21 21c-56.667 76.667 -140.667 115 -252 115
c-110 0 -193.333 -38.333 -250 -115c-52 -68 -78 -158.333 -78 -271c0 -110.667 25.667 -200.667 77 -270c8.66699 -11.333 17.334 -21.333 26.001 -30s17.667 -16.667 27 -24l25 -25c54.667 -54 129 -81 223 -81c35.333 0 69 4.33301 101 13c4 -4 11.667 -10 23 -18l33 -33
c29.333 -30 85.666 -47.333 168.999 -52l9 39l-48 48zM690 -104.002c-82 5.33301 -136.666 24.002 -163.999 56.002c-12 14 -21.667 32 -29 54c-38.667 -13.333 -81 -20 -127 -20c-106.667 0 -188 36.333 -244 109c-49.333 66.667 -74 154.667 -74 264
c0 108.667 25 196.667 75 264c56 74.667 137 112 243 112c107.333 0 188.666 -37 243.999 -111c50 -66 75 -154.333 75 -265c0 -116.667 -28.333 -208.334 -85 -275.001c-24 -28 -51.333 -50 -82 -66c7.33301 -20.667 16 -36.334 26 -47.001c22.667 -26.667 72 -43 148 -49z
M489.001 37l-14.999 60c-7.33301 20.667 -16.333 37.334 -27 50.001c-24 27.333 -73.667 43.666 -149 48.999l2 32c28.667 -2 59 -7.66699 91 -17c42.667 -12.667 72 -31.667 88 -57c9.33301 -14.667 20.666 -49.334 33.999 -104.001c23.333 13.333 45 32 65 56
c50.667 60.667 76 145 76 253c0 99.333 -22 179.666 -66 240.999c-50 70 -122.667 105 -218 105c-96.667 0 -169.334 -35 -218.001 -105c-43.333 -61.333 -65 -141.666 -65 -240.999s21.667 -179.666 65 -240.999c49.333 -69.333 122 -104 218 -104
c42.667 0 82.334 7.66699 119.001 23zM370.002 24c-66.667 0 -121.669 17.3281 -165.002 51.9951c-40.667 60.667 -61 138.334 -61 233.001c0 97.333 21 176 63 236c48 68.667 119 103 213 103c57.333 0 107.666 -14 150.999 -42l9 -12c42.667 -56.667 64 -135 64 -235
c0 -108 -24.333 -190.333 -73 -247c-7.33301 -8 -16.333 -16.667 -27 -26c-1.33301 2.66699 -2.66602 5.66699 -3.99902 9l-5 13c-2 3.33301 -4.16699 6.33301 -6.5 9s-4.83301 5.33398 -7.5 8.00098l-32 31v2c-0.666992 0 -1 0.333008 -1 1
c-19.333 28 -50.666 48.667 -93.999 62c-14 4.66699 -29.667 8.33398 -47 11.001s-36.333 4.66699 -57 6l-2 -52h3c0.666992 -0.666992 1.66699 -1 3 -1l47 -46c50.667 -4 88.334 -11.333 113.001 -22c2 -3.33301 5 -11.166 9 -23.499s8.66699 -29.166 14 -50.499
c-34 -12.667 -69.667 -19 -107 -19z" />
    <glyph glyph-name="R" unicode="R" horiz-adv-x="622" 
d="M544 -56l53 0.000976562l-2 237c-4 41.333 -17.333 73.333 -40 96l-33 33c68 32 102 89 102 171c0 62 -16 108.667 -48 140l-29 28c-31.333 53.333 -106.666 80 -225.999 80h-249v-738h6l47 -47h48v339h210c35.333 0 66.666 -4 93.999 -12
c4.66699 -11.333 8.66699 -24.333 12 -39c0.666992 -5.33301 1.16699 -13.833 1.5 -25.5s0.5 -26.834 0.5 -45.501v-170h6zM116 340.001l-0.00195312 -340.002h-34v719h239c79.333 0 137.333 -11.333 174 -34c48 -29.333 72 -80.666 72 -153.999
c0 -91.333 -43.333 -150.333 -130 -177c60.667 -12 94.334 -53.333 101.001 -124v-24c0 -15.333 0.333008 -38.333 1 -69l1 -137h-39v161c0 20 -0.166992 36 -0.5 48s-0.833008 20 -1.5 24c-7.33301 44.667 -26.333 74.334 -57 89.001c-23.333 12 -59.666 18 -108.999 18
h-217zM337.998 369.999c130 0 195 52.666 195 157.999c0 88.667 -40.333 140.334 -121 155.001c-9.33301 1.33301 -21.5 2.5 -36.5 3.5s-33.167 1.5 -54.5 1.5h-205v-318h222zM172.998 630.998l198 -0.000976562c18.667 0 35.5 -0.5 50.5 -1.5s28.167 -2.16699 39.5 -3.5
c5.33301 -1.33301 11.5 -3.16602 18.5 -5.49902l24.5 -8.5c12.667 -22.667 19 -50.667 19 -84c0 -98.667 -61.667 -148 -185 -148h-165v251z" />
    <glyph glyph-name="S" unicode="S" horiz-adv-x="573" 
d="M35 229c4.66699 -98.667 36.9951 -167.67 96.9951 -207.003l27 -26l1 -1c20.667 0 50.667 -11 90 -33c38.667 -22 68.667 -33 90 -33c72 0 129.667 17.333 173 52c48.667 36.667 73 90 73 160c0 48 -15.667 87.667 -47 119l-24 24c-13.333 22 -32.333 40.333 -57 55
c-25.333 16.667 -78.666 36.334 -159.999 59.001h-3c2.66699 -2 3.33398 -3 2.00098 -3c-0.666992 0 -3.66699 0.666992 -9 2l1 3c-2.66699 0.666992 -4 1.66699 -4 3h-3c-54 14 -93.667 28 -119 42c-7.33301 14.667 -11 32 -11 52c0 50 17 88.667 51 116
c30.667 24.667 72 37 124 37c42 0 78.667 -8.66699 110 -26c19.333 -29.333 29.333 -66 30 -110h6l47 -47h46c-3.33301 68.667 -23 121.334 -59 158.001l-30 30c-43.333 60 -109.333 90 -198 90c-61.333 0 -112.333 -15.333 -153 -46v1
c-48.667 -36.667 -73 -87.667 -73 -153c0 -58 22.667 -104 68 -138l30 -29c0.666992 -1.33301 3.33398 -3.66602 8.00098 -6.99902c24 -22 77.333 -44.333 160 -67c1.33301 0 2.33301 -0.333008 3 -1h1c12 -3.33301 24 -7 36 -11s24.333 -7.66699 37 -11
c32 -10.667 55 -20 69 -28c13.333 -21.333 20 -45.666 20 -72.999c0 -50.667 -20.333 -90.334 -61 -119.001c-37.333 -26 -81.666 -39 -132.999 -39c-49.333 0 -90.666 12.333 -123.999 37c-18 30.667 -28.667 69 -32 115l-47 46v7h-53zM77.9951 218.997
c4 -64 24.501 -114.173 61.501 -150.506s87.5 -54.5 151.5 -54.5c55.333 0 102 14 140 42c42.667 30.667 64 72.667 64 126c0 54.667 -22.333 96.334 -67 125.001c-11.333 7.33301 -29 15.5 -53 24.5s-54.333 18.167 -91 27.5c-0.666992 0.666992 -5 2 -13 4
c-82.667 23.333 -135 45 -157 65c-34 30.667 -51 70.334 -51 119.001c0 61.333 21.333 108.333 64 141c39.333 31.333 90 47 152 47c34 0 64.667 -4.83301 92 -14.5s51 -23.5 71 -41.5s35.667 -40 47 -66s18 -55.667 20 -89h-32
c-1.33301 57.333 -20.666 102.666 -57.999 135.999c-36.667 31.333 -84 47 -142 47c-53.333 0 -96.333 -13 -129 -39c-35.333 -29.333 -53 -69.666 -53 -120.999c0 -37.333 14.667 -69.666 44 -96.999c19.333 -17.333 66.666 -36.666 141.999 -57.999
c1.33301 -0.666992 3.16602 -1.16699 5.49902 -1.5s5.16602 -1.16602 8.49902 -2.49902c84.667 -25.333 137.334 -44.666 158.001 -57.999c50.667 -32.667 76 -79 76 -139c0 -66.667 -23.667 -118.667 -71 -156c-42.667 -32.667 -98.667 -49 -168 -49
c-36 0 -68.5 5.33301 -97.5 16s-54 26.167 -75 46.5s-37.833 44.833 -50.5 73.5s-20 61 -22 97h33zM293.996 397.991h-1h1z" />
    <glyph glyph-name="T" unicode="T" horiz-adv-x="509" 
d="M230 -9h6l47 -47h48v687h224v45l-47 47v6h-502v-51h6l47 -47h171v-640zM240 688h-224v31h482v-31h-224v-688h-34v688z" />
    <glyph glyph-name="U" unicode="U" horiz-adv-x="671" 
d="M67 729l-0.000976562 -478c0 -86 23.333 -153.333 70 -202c10.667 -11.333 20.667 -20.333 30 -27l24 -22c49.333 -47.333 114.333 -71 195 -71c85.333 0 151 23.833 197 71.5s69 114.5 69 200.5v475l-47 47v6h-53v-462c0 -77.333 -16.667 -136.333 -50 -177
c-37.333 -44 -92.666 -66 -165.999 -66c-56 0 -101 12 -135 36c-22.667 38.667 -34 91 -34 157v459l-47 47v6h-53zM109.999 719v-452c0 -168.667 75.333 -253 226 -253s226 84.333 226 253v452h33v-468c0 -84 -22.333 -149.167 -67 -195.5s-108.667 -69.5 -192 -69.5
s-147.333 23.167 -192 69.5s-67 111.5 -67 195.5v468h33z" />
    <glyph glyph-name="V" unicode="V" horiz-adv-x="525" 
d="M239 -9h5l47 -47h42l255 732l-48 48l2 5h-56l-209 -606l-190 553l-46 45l-2 8h-54zM-1 719h33l231 -670l230 670h35l-250 -719h-32z" />
    <glyph glyph-name="W" unicode="W" horiz-adv-x="824" 
d="M192 -9h5l47 -47h45l155 435l139 -388h5l47 -47h45l195 732l-48 47l2 6h-55l-157 -590l-134 366l-45 45l-3 8h-46l-151 -411l-140 529l-46 46l-2 7h-54zM8 719h34l176 -659l178 488h32l179 -488l175 659h34l-192 -719h-34l-178 501l-178 -501h-34z" />
    <glyph glyph-name="X" unicode="X" horiz-adv-x="530" 
d="M-17 -9h9l46 -47h54l211 317l183 -270h4l47 -47h55l-249 375l235 357l-48 47l4 6h-62l-201 -305l-166 252l-38 38l-10 15h-63l238 -361zM245 368l-233 351h39l214 -323l213 323h37l-230 -350l244 -369h-38l-228 339l-225 -339h-37z" />
    <glyph glyph-name="Y" unicode="Y" horiz-adv-x="530" 
d="M238 -9h6l47 -47h47v319l253 413l-48 47l4 6h-63l-211 -345l-180 292l-40 40l-8 13h-62l255 -417v-321zM248 318l-247 401h38l227 -367l224 367h38l-247 -403v-316h-33v318z" />
    <glyph glyph-name="Z" unicode="Z" horiz-adv-x="529" 
d="M0 -9h5l47 -47h524v44l-47 46v6h-383l418 592v44l-47 47v6h-479v-51h6l47 -47h328l-419 -594v-46zM9 33l462 655h-423v31h459v-34l-462 -655h474v-30h-510v33z" />
    <glyph glyph-name="bracketleft" unicode="[" horiz-adv-x="302" 
d="M207 630h134v45l-47 47v6h-189v-942h6l47 -47h183v44l-47 47v6h-87v794zM115 -204v922h169v-31h-134v-861h134v-30h-169z" />
    <glyph glyph-name="backslash" unicode="\" horiz-adv-x="292" 
d="M-49 748l314 -840h5l47 -47h50l-313 834l-45 45l-3 8h-55zM0 738l307 -820h-35l-307 820h35z" />
    <glyph glyph-name="bracketright" unicode="]" horiz-adv-x="302" 
d="M12 -214h6l47 -47h183v936l-47 47v6h-189v-51h6l47 -47h81v-794h-134v-50zM22 -174h134v861h-134v31h169v-922h-169v30z" />
    <glyph glyph-name="asciicircum" unicode="^" horiz-adv-x="542" 
d="M242 721l-158 -265h9l47 -47h70l99 168l72 -121h5l47 -47h70l-154 259l-41 40l-7 13h-59zM295 711l145 -245h-53l-116 196l-115 -196h-53l145 245h47z" />
    <glyph glyph-name="underscore" unicode="_" horiz-adv-x="500" 
d="M-9 -194v-50h6l46 -47h514v44l-47 47v6h-519zM500 -204v-30h-500v30h500z" />
    <glyph glyph-name="grave" unicode="`" horiz-adv-x="500" 
d="M299 527h70l-111 174l-39 39l-9 14h-78l115 -180h5zM253 584l-102 160h53l102 -160h-53z" />
    <glyph glyph-name="a" unicode="a" horiz-adv-x="572" 
d="M163 -8c40.667 -40.667 94.668 -61 162.001 -61c63.333 0 113.666 17 150.999 51l38 -38h45v532l-47 47v6h-51v-80l-9 9c-40 54.667 -99 82 -177 82c-80 0 -141 -28.333 -183 -85c-37.333 -51.333 -56 -117 -56 -197s18.667 -145.667 56 -197
c13.333 -18 28.333 -32.667 45 -44zM471.001 112c-32.667 -82.667 -98 -124.001 -196 -124.001c-76 0 -134.333 26.333 -175 79c-36 46.667 -54 110.334 -54 191.001c0 79.333 18 143 54 191c40 54 98.333 81 175 81c96.667 0 162 -43.333 196 -130v119h31v-519h-31v112z
M78.001 257.999c0 -70 14.999 -126.333 44.999 -169c34.667 -50 85.334 -75 152.001 -75s117 25 151 75c30 42.667 45 99 45 169c0 69.333 -15 125.666 -45 168.999c-34 50 -84.333 75 -151 75c-66 0 -116.333 -25 -151 -75c-30.667 -43.333 -46 -99.666 -46 -168.999z
M135 207.999c0 66 14.666 120.666 43.999 163.999c32.667 48.667 81.334 73 146.001 73c36 0 66.333 -7.33301 91 -22l2 -2c28.667 -41.333 43 -95.666 43 -162.999s-14 -121.333 -42 -162c-33.333 -48 -81.333 -72 -144 -72c-42 0 -76.667 9.66699 -104 29
c-24 40 -36 91.667 -36 155z" />
    <glyph glyph-name="b" unicode="b" horiz-adv-x="572" 
d="M59 -9l6 -0.00195312l47 -47h46v77c2 -2 4 -3.66699 6 -5l28 -26c41.333 -39.333 93 -59 155 -59c79.333 0 139.666 27 180.999 81c36.667 48.667 55 114 55 196c0 94.667 -25.667 167.667 -77 219l-23 23c-0.666992 0.666992 -1.16699 1.33398 -1.5 2.00098
s-0.833008 1.33398 -1.5 2.00098c-41.333 57.333 -102.333 86 -183 86c-55.333 0 -101.666 -14.667 -138.999 -44v179l-47 47v6h-52v-737zM69 717.998h32.001v-317c36 86 101.333 129 196 129c75.333 0 133.666 -27 174.999 -81c36 -49.333 54 -113 54 -191
c0 -79.333 -18 -143 -54 -191c-40 -52.667 -98.333 -79 -175 -79c-90.667 0 -156 40.667 -196 122v-110h-32v718zM101.001 257.998c0 -70 15 -126.333 45 -169c34 -50 84.333 -75 151 -75c66 0 116.667 25 152 75c30 42.667 45 99 45 169c0 69.333 -15 125.666 -45 168.999
c-35.333 50 -86 75 -152 75c-66.667 0 -117 -25 -151 -75c-30 -43.333 -45 -99.666 -45 -168.999zM158.001 207.998c0 68 14.3311 122.666 42.998 163.999c32.667 48.667 81.334 73 146.001 73c34.667 0 65.667 -7.66699 93 -23v-1h1c28.667 -41.333 43 -95.666 43 -162.999
s-14 -121.333 -42 -162c-33.333 -48 -81.666 -72 -144.999 -72c-40.667 0 -75 10 -103 30c-24 40.667 -36 92 -36 154z" />
    <glyph glyph-name="c" unicode="c" horiz-adv-x="519" 
d="M472 134l-39.999 22.998c-10 -39.333 -28.667 -71.333 -56 -96c-28.667 -24.667 -63.334 -37 -104.001 -37s-75 10 -103 30c-24 40.667 -36 92 -36 154c0 68 14.333 122.667 43 164c32.667 48.667 81.334 73 146.001 73c32 0 59.333 -6.33301 82 -19
c2 -3.33301 4.66699 -8.5 8 -15.5s7.33301 -16.167 12 -27.5l4 2l48 -47l40 26c-10.667 28.667 -25.334 51.667 -44.001 69l-29 28c-36.667 52.667 -93.667 79 -171 79c-79.333 0 -140 -28.667 -182 -86c-37.333 -51.333 -56 -116.666 -56 -195.999s18.333 -144.333 55 -195
c13.333 -19.333 29.333 -35.666 48 -48.999l26 -24c41.333 -39.333 93.333 -59 156 -59c60 0 108.333 16.333 145 49c27.333 23.333 47 54.333 59 93l-3 8l-45 45zM466.001 124.998c-28 -91.333 -93.667 -137 -197 -137c-76 0 -133.333 27 -172 81
c-35.333 48.667 -53 111.667 -53 189s18 140.666 54 189.999c40 54.667 98 82 174 82c94 0 155.667 -37.667 185 -113l-27 -18c-11.333 32.667 -31.5 58 -60.5 76s-61.5 27 -97.5 27c-66.667 0 -117 -25 -151 -75c-30 -43.333 -45 -99.666 -45 -168.999
c0 -70 15 -126.333 45 -169c34 -50 84.333 -75 151 -75c42 0 77.833 11.167 107.5 33.5s49.5 53.5 59.5 93.5z" />
    <glyph glyph-name="d" unicode="d" horiz-adv-x="572" 
d="M512 728h-51v-276l-9 9c-40.667 52.667 -99.667 79 -177 79c-80 0 -141 -28.667 -183 -86c-37.333 -51.333 -56 -116.666 -56 -195.999c0 -80.667 18.667 -146.334 56 -197.001c13.333 -18 28.333 -32.667 45 -44l26 -25c40.667 -40.667 94.667 -61 162 -61
c62 0 111.667 17.333 149 52l40 -39h45v731l-47 47v6zM502 0h-31v115c-34 -84.667 -99.333 -127 -196 -127c-76.667 0 -135 26.333 -175 79c-36 48 -54 111.667 -54 191c0 78 18 141.667 54 191c40.667 54 99 81 175 81c98.667 0 164 -41.667 196 -125v313h31v-718zM471 258
c0 69.333 -15.001 125.666 -45.001 168.999c-34 50 -84.333 75 -151 75c-66 0 -116.333 -25 -151 -75c-30.667 -43.333 -46 -99.666 -46 -168.999c0 -70 15 -126.333 45 -169c34.667 -50 85.334 -75 152.001 -75s117 25 151 75c30 42.667 45 99 45 169zM460.999 258
c0 -67.333 -14.001 -121.334 -42.001 -162.001c-33.333 -48 -81.333 -72 -144 -72c-42 0 -76.667 9.66699 -104 29c-24 40 -36 91.667 -36 155c0 66 14.667 120.667 44 164c32.667 48.667 81.334 73 146.001 73c36 0 66.333 -7.33301 91 -22l2 -2
c28.667 -41.333 43 -95.666 43 -162.999z" />
    <glyph glyph-name="e" unicode="e" horiz-adv-x="523" 
d="M473 122l-44.999 24.0039c-31.333 -81.333 -86.333 -122 -165 -122c-35.333 0 -66 9 -92 27c-25.333 41.333 -38 90.333 -38 147v1h405v26c0 77.333 -17.667 138.666 -53 183.999l-18 21l-27 26c-0.666992 1.33301 -1.16699 2.16602 -1.5 2.49902
s-0.833008 1.16602 -1.5 2.49902c-38.667 52.667 -96.667 79 -174 79c-76.667 0 -135.334 -29 -176.001 -87c-36 -50 -54 -115 -54 -195c0 -77.333 17.667 -142.333 53 -195c7.33301 -10.667 15.333 -20.334 24 -29.001s18 -16.334 28 -23.001l24 -23
c38 -38 88.333 -57 151 -57c54 0 100 15 138 45v1c30 23.333 52.667 54.666 68 93.999l-48 47c0.666992 0.666992 1 1.33398 1 2.00098s0.333008 1.33398 1 2.00098zM263.001 -11.9961c-74.667 0 -131.333 27.333 -170 82c-33.333 47.333 -50 110 -50 188
c0 76 17 138.667 51 188c38.667 56 95 84 169 84c72.667 0 128 -25 166 -75c34.667 -44.667 52 -104.667 52 -180v-19h-405v-8c0 -64 15 -117.333 45 -160c34 -49.333 81.333 -74 142 -74c84 0 141 39.333 171 118l26 -14c-16 -42 -41.333 -74.167 -76 -96.5
s-75 -33.5 -121 -33.5zM447.002 285.004c0 60.667 -14.333 110.667 -43 150c-32 44.667 -77 67 -135 67c-60.667 0 -107.667 -21.667 -141 -65c-30 -38 -47 -88.667 -51 -152h370zM184.002 383.004l-0.998047 0.000976562c33.333 41.333 78.666 62 135.999 62
c29.333 0 55.666 -6.66699 78.999 -20c23.333 -34 36.333 -77.333 39 -130h-295c10 35.333 24 64.666 42 87.999z" />
    <glyph glyph-name="f" unicode="f" horiz-adv-x="211" 
d="M38 592v-601h6l47 -47h45v489h102v43l-47 47v6h-55v14c0 35.333 2.66699 59 8 71c9.33301 17.333 28 26 56 26h94v41l-47 47v6l-102 -1c-44.667 -0.666992 -75 -14.667 -91 -42v1c-10.667 -18.667 -16 -52 -16 -100zM48 592c0 45.333 5.00098 76.668 15.001 94.001
c12.667 23.333 40 35.666 82 36.999l92 1v-27h-87c-32.667 0 -53.334 -10 -62.001 -30c-6 -13.333 -9 -38 -9 -74v-74h102v-29h-102v-490h-31v592z" />
    <glyph glyph-name="g" unicode="g" horiz-adv-x="572" 
d="M439 -87c-30 -54.667 -86.666 -82 -169.999 -82c-42 0 -77 8 -105 24c-2.66699 5.33301 -4.83398 12 -6.50098 20s-2.83398 17.333 -3.50098 28l-47 47v6h-50c0.666992 -62.667 22.334 -108 65.001 -136c0.666992 0 1.66699 -0.666992 3 -2l28 -28
c36 -36 88.667 -54 158 -54c99.333 0 170.666 31 213.999 93c22.667 32.667 34 82.667 34 150v497l-47 47v6h-51v-80l-6 6c-40.667 56.667 -100.667 85 -180 85c-80 0 -141 -28.333 -183 -85c-37.333 -51.333 -56 -117 -56 -197c0 -110.667 33.667 -192 101 -244l27 -25
c41.333 -39.333 94.333 -59 159 -59c52.667 0 96.667 12.667 132 38c-3.33301 -22.667 -8.66602 -41 -15.999 -55zM471.001 111c-36 -82.667 -102.002 -124 -198.002 -124c-76.667 0 -134.667 26.667 -174 80c-35.333 48.667 -53 112.334 -53 191.001
c0 79.333 18 143 54 191c40 54 98.333 81 175 81c46 0 86.333 -10.667 121 -32s59.667 -53 75 -95v116h31v-491c0 -64.667 -11 -113 -33 -145c-41.333 -60 -110.666 -90 -207.999 -90c-54 0 -98.333 11.667 -133 35c-40 27.333 -60.333 66.666 -61 117.999h30
c6 -83.333 63.333 -125 172 -125c86.667 0 146.334 29.333 179.001 88c15.333 27.333 23 77 23 149v53zM470.999 258c0 69.333 -15.001 125.666 -45.001 168.999c-34 50 -84.333 75 -151 75c-66 0 -116.333 -25 -151 -75c-30.667 -43.333 -46 -99.666 -46 -168.999
c0 -70 15 -126.333 45 -169c34.667 -50 85.334 -75 152.001 -75s117 25 151 75c30 42.667 45 99 45 169zM460.998 258c0 -67.333 -14.001 -121.334 -42.001 -162.001c-33.333 -48 -81.333 -72 -144 -72c-42 0 -76.667 9.66699 -104 29c-24 40 -36 91.667 -36 155
c0 66 14.667 120.667 44 164c32.667 48.667 81.334 73 146.001 73c36 0 66.333 -7.33301 91 -22l2 -2c28.667 -41.333 43 -95.666 43 -162.999z" />
    <glyph glyph-name="h" unicode="h" 
d="M59 -9h6.00098l47 -47h46v284c0 19.333 0.5 36.5 1.5 51.5s2.16699 27.5 3.5 37.5c14 84.667 68.667 127 164 127c21.333 0 43.666 -4 66.999 -12c12 -24 18 -56.667 18 -98v-343h6l47 -47h46v350c0 66 -16 115 -48 147l-2 1l1 -1l-29 29c-30 46.667 -82.333 70 -157 70
c-46.667 0 -86 -10 -118 -30v165l-47 47v6h-52v-737zM69.001 718h31.999v-284c32.667 64 91 96 175 96c118.667 0 178 -62 178 -186v-344h-32v334c0 55.333 -10 96 -30 122c-23.333 30 -61.666 45 -114.999 45c-99.333 0 -156.333 -44.333 -171 -133
c-1.33301 -9.33301 -2.5 -21.5 -3.5 -36.5s-1.5 -32.833 -1.5 -53.5v-278h-32v718z" />
    <glyph glyph-name="i" unicode="i" horiz-adv-x="175" 
d="M62 -9h6l47 -47h45v532l-47 47v6h-51v-538zM72 519h31v-519h-31v519zM56 680c0 -33.333 7.33301 -52.333 22 -57l43 -42c4 -4 9.33301 -6 16 -6c19.333 0 29 18.333 29 55c0 24 -4 40 -12 48l-41 41c-5.33301 12 -14 18 -26 18c-20.667 0 -31 -19 -31 -57zM66 680
c0 31.333 7 47 21 47c14.667 0 22 -15.667 22 -47c0 -32 -7.33301 -48 -22 -48c-14 0 -21 16 -21 48z" />
    <glyph glyph-name="j" unicode="j" horiz-adv-x="175" 
d="M63 529v-597c0 -40 -2 -64.333 -6 -73c-7.33301 -16 -25 -24 -53 -24h-63v-50h6l47 -47h67c43.333 0 72 12.667 86 38c9.33301 17.333 14 49 14 95v605l-47 47v6h-51zM104 519l0.000976562 -597.999c0 -46.667 -4.33301 -77.334 -13 -92.001
c-12.667 -22.667 -39.334 -34 -80.001 -34h-60v30h53c32 0 52.667 10 62 30c4.66699 10 7 35.667 7 77v587h31zM54.001 680.001c0 -33.333 7.33301 -52.333 22 -57l43 -42c4 -4 9.33301 -6 16 -6c19.333 0 29 18.333 29 55c0 24 -4 40 -12 48l-41 41
c-5.33301 12 -14 18 -26 18c-20.667 0 -31 -19 -31 -57zM64.001 680.001c0 31.333 7 47 21 47c14.667 0 22 -15.667 22 -47c0 -32 -7.33301 -48 -22 -48c-14 0 -21 16 -21 48z" />
    <glyph glyph-name="k" unicode="k" horiz-adv-x="458" 
d="M59 -9h6l47 -47h46v188l106 103l164 -244h4l47 -47h53l-223 335l197 197l-48 48l5 5h-67l-238 -236v382l-47 47v6h-52v-737zM69 718h32v-495l299 296h39l-189 -189l219 -330h-36l-205 308l-127 -123v-185h-32v718z" />
    <glyph glyph-name="l" unicode="l" horiz-adv-x="175" 
d="M62 -9h6l47 -47h45v731l-47 47v6h-51v-737zM72 718h31v-718h-31v718z" />
    <glyph glyph-name="m" unicode="m" horiz-adv-x="817" 
d="M59 -9h6l47 -47h46v286c0 19.333 0.5 36.166 1.5 50.499s2.16699 26.833 3.5 37.5c14 84 63.333 126 148 126c22.667 0 41.667 -3.33301 57 -10c0 -1.33301 0.666992 -2.66602 2 -3.99902c9.33301 -22.667 14 -62 14 -118v-321h6l47 -47h45v286
c0 67.333 9.33301 117.333 28 150c24 42.667 65.667 64 125 64c22.667 0 41.667 -3.33301 57 -10c0 -1.33301 0.666992 -2.66602 2 -3.99902c9.33301 -22.667 14 -62 14 -118v-321h6l47 -47h46v350c0 69.333 -16 119.666 -48 150.999l-31 30c-28 43.333 -75.333 65 -142 65
c-69.333 0 -123.333 -28 -162 -84l-23 24c-30 40 -76 60 -138 60c-51.333 0 -93.333 -14.333 -126 -43l-26 26v6h-52v-538zM69 519l32.001 0.000976562v-85c34 64 88 96 162 96c84 0 135.333 -35.333 154 -106c36 70.667 92.333 106 169 106c109.333 0 164 -62 164 -186
v-344h-32v312c0 57.333 -5 98 -15 122c-18.667 44.667 -58 67 -118 67c-62 0 -105.667 -22.667 -131 -68c-19.333 -35.333 -29 -86.333 -29 -153v-280h-31v312c0 57.333 -5 98 -15 122c-18.667 44.667 -58 67 -118 67c-88.667 0 -140.334 -44 -155.001 -132
c-1.33301 -10.667 -2.5 -23.334 -3.5 -38.001s-1.5 -31.667 -1.5 -51v-280h-32v519z" />
    <glyph glyph-name="n" unicode="n" 
d="M59 -9h6.00098l47 -47h46v284c0 19.333 0.5 36.5 1.5 51.5s2.16699 27.5 3.5 37.5c14 84.667 68.667 127 164 127c21.333 0 43.666 -4 66.999 -12c12 -24 18 -56.667 18 -98v-343h6l47 -47h46v350c0 66.667 -16 115.667 -48 147l-30 29c-30 46.667 -82.333 70 -157 70
c-56.667 0 -102.667 -14.667 -138 -44l-27 27v6h-52v-538zM69.001 519h31.999v-85c32.667 64 91 96 175 96c118.667 0 178 -62 178 -186v-344h-32v334c0 55.333 -10 96 -30 122c-23.333 30 -61.666 45 -114.999 45c-99.333 0 -156.333 -44.333 -171 -133
c-1.33301 -9.33301 -2.5 -21.5 -3.5 -36.5s-1.5 -32.833 -1.5 -53.5v-278h-32v519z" />
    <glyph glyph-name="o" unicode="o" horiz-adv-x="545" 
d="M34 258c0 -80 18.667 -145.67 56 -197.003c13.333 -18 28.333 -32.667 45 -44l26 -25c40.667 -40.667 94.334 -61 161.001 -61c79.333 0 139.666 27 180.999 81c36.667 48.667 55 114 55 196c0 94.667 -25.667 167.667 -77 219l-23 23
c-0.666992 0.666992 -1.16699 1.33398 -1.5 2.00098s-0.833008 1.33398 -1.5 2.00098c-41.333 57.333 -102.333 86 -183 86c-79.333 0 -140 -28.667 -182 -86c-37.333 -51.333 -56 -116.666 -56 -195.999zM44 257.997c0 77.333 18.001 140.669 54.001 190.002
c40 54.667 98 82 174 82c75.333 0 133.666 -27 174.999 -81c36 -49.333 54 -113 54 -191c0 -80.667 -18 -144.334 -54 -191.001c-40.667 -52.667 -99 -79 -175 -79c-76.667 0 -135 26.667 -175 80c-35.333 47.333 -53 110.666 -53 189.999zM76.001 258
c0 -70 15 -126.333 45 -169c34 -50 84.333 -75 151 -75c66 0 116.667 25 152 75c30 42.667 45 99 45 169c0 69.333 -15 125.666 -45 168.999c-35.333 50 -86 75 -152 75c-66.667 0 -117 -25 -151 -75c-30 -43.333 -45 -99.666 -45 -168.999zM133.001 208
c0 68 14.3311 122.666 42.998 163.999c32.667 48.667 81.334 73 146.001 73c34.667 0 65.667 -7.66699 93 -23v-1h1c28.667 -41.333 43 -95.666 43 -162.999s-14 -121.333 -42 -162c-33.333 -48 -81.666 -72 -144.999 -72c-40.667 0 -75 10 -103 30
c-24 40.667 -36 92 -36 154z" />
    <glyph glyph-name="p" unicode="p" horiz-adv-x="572" 
d="M59 -214h6.00098l47 -47h46v278c1.33301 -1.33301 2.33301 -2 3 -2l29 -28c37.333 -37.333 89.666 -56 156.999 -56c79.333 0 139.666 27 180.999 81c36.667 48.667 55 114 55 196c0 96 -25.333 169.333 -76 220l-27 27c-40.667 56.667 -101.667 85 -183 85
c-61.333 0 -111.666 -17.667 -150.999 -53l-35 36v6h-52v-743zM69.001 519l32 0.000976562v-119c34 86.667 99.333 130 196 130c76.667 0 135 -27 175 -81c36 -48 54 -111.667 54 -191c0 -80.667 -18 -144.334 -54 -191.001c-40.667 -52.667 -99 -79 -175 -79
c-98 0 -163.333 41.333 -196 124v-316h-32v723zM101.001 258.001c0 -70 15 -126.333 45 -169c34 -50 84.333 -75 151 -75c66 0 116.667 25 152 75c30 42.667 45 99 45 169c0 69.333 -15 125.666 -45 168.999c-35.333 50 -86 75 -152 75c-66.667 0 -117 -25 -151 -75
c-30 -43.333 -45 -99.666 -45 -168.999zM158.001 208.001c0 68 14.3311 122.666 42.998 163.999c32.667 48.667 81.334 73 146.001 73c34.667 0 65.667 -7.66699 93 -23v-1h1c28.667 -41.333 43 -95.666 43 -162.999s-14 -121.333 -42 -162
c-33.333 -48 -81.666 -72 -144.999 -72c-40.667 0 -75 10 -103 30c-24 40.667 -36 92 -36 154z" />
    <glyph glyph-name="q" unicode="q" horiz-adv-x="572" 
d="M163 -8c40.667 -40.667 94.667 -61 162 -61c54.667 0 100 13 136 39v-184h6l47 -47h45v737l-47 47v6h-51v-80l-9 9c-40 54.667 -99 82 -177 82c-80 0 -141 -28.333 -183 -85c-37.333 -51.333 -56 -117 -56 -197s18.667 -145.667 56 -197
c13.333 -18 28.333 -32.667 45 -44zM471 112c-32.667 -82.667 -98 -124.001 -196 -124.001c-76 0 -134.333 26.333 -175 79c-36 46.667 -54 110.334 -54 191.001c0 79.333 18 143 54 191c40 54 98.333 81 175 81c96.667 0 162 -43.333 196 -130v119h31v-723h-31v316z
M78 257.999c0 -70 14.999 -126.333 44.999 -169c34.667 -50 85.334 -75 152.001 -75s117 25 151 75c30 42.667 45 99 45 169c0 69.333 -15 125.666 -45 168.999c-34 50 -84.333 75 -151 75c-66 0 -116.333 -25 -151 -75c-30.667 -43.333 -46 -99.666 -46 -168.999z
M134.999 207.999c0 66 14.666 120.666 43.999 163.999c32.667 48.667 81.334 73 146.001 73c36 0 66.333 -7.33301 91 -22l2 -2c28.667 -41.333 43 -95.666 43 -162.999s-14 -121.333 -42 -162c-33.333 -48 -81.333 -72 -144 -72c-42 0 -76.667 9.66699 -104 29
c-24 40 -36 91.667 -36 155z" />
    <glyph glyph-name="r" unicode="r" horiz-adv-x="263" 
d="M59 -9l6 0.000976562l47 -47h46v351c0 33.333 9 60.666 27 81.999c24 26 46.333 42.333 67 49c12 4 30.333 6 55 6l30 42l-48 48l4 5h-25c-53.333 0 -96 -11 -128 -33l-29 29v6h-52v-538zM69 519.001h32.001v-86c26.667 56.667 84 84.667 172 84l-20 -28
c-22.667 0 -40.334 -2 -53.001 -6c-30 -9.33301 -54 -27 -72 -53s-27 -54.333 -27 -85v-345h-32v519z" />
    <glyph glyph-name="s" unicode="s" horiz-adv-x="481" 
d="M82 164h-43c4.66699 -64.667 27 -112.667 67 -144c1.33301 -1.33301 2.83301 -2.66602 4.5 -3.99902l6.5 -5l29 -27c6.66699 -6.66699 10.667 -10.334 12 -11.001c36 -28 82.667 -42 140 -42c52.667 0 96.334 12.333 131.001 37c40.667 26.667 61 65 61 115
c0 37.333 -11 66.666 -33 87.999l-33 32c-11.333 16.667 -24 29.667 -38 39v-1c-14 9.33301 -33.333 18.333 -58 27l-30 10l-30 10h-6c-45.333 10.667 -80.333 23.667 -105 39c-2 6 -3 12.667 -3 20c0 32.667 15 58 45 76c24.667 14.667 54.334 22 89.001 22
c28.667 0 52 -4.33301 70 -13c8.66699 -15.333 15 -35.666 19 -60.999h6l47 -47h45c-5.33301 48 -21.666 85.667 -48.999 113l-29 29c-4 6 -8.66699 11.667 -14 17l-16 16c-35.333 27.333 -77 41 -125 41c-52 0 -94.667 -11.333 -128 -34c-40 -27.333 -60 -65 -60 -113
c0 -42 17 -76 51 -102v1l3 -3l32 -31c6.66699 -6.66699 10.667 -10.334 12 -11.001v1c25.333 -20.667 80.666 -42 165.999 -64l3.5 -0.5c2.33301 -0.333008 5.83301 -1.16602 10.5 -2.49902l10 -3c0.666992 -0.666992 1.66699 -1 3 -1l39 -15
c4 -9.33301 6 -18.666 6 -27.999c0 -36.667 -15.333 -64.334 -46 -83.001c-26.667 -16.667 -59 -25 -97 -25c-38.667 0 -69.334 7.33301 -92.001 22c-4.66699 9.33301 -8.33398 18.666 -11.001 27.999s-4.66699 19 -6 29l-46 46c-0.666992 0.666992 -1 2.33398 -1 5.00098z
M81 154c16.667 -92 72 -138 166 -138c42 0 76.667 9 104 27c32.667 20.667 49 51 49 91c0 48 -34.333 81.333 -103 100c-63.333 17.333 -96.666 26.666 -99.999 27.999c-42 12.667 -72.333 26.334 -91 41.001c-28 22 -42 52 -42 90c0 45.333 19.333 80.333 58 105
c33.333 21.333 73.333 32 120 32c48.667 0 88.667 -12.833 120 -38.5s49.666 -62.5 54.999 -110.5h-31c-10.667 80.667 -60 121 -148 121c-36.667 0 -68.334 -8 -95.001 -24c-30.667 -18.667 -46 -45.667 -46 -81c0 -52 53 -91.333 159 -118
c0.666992 -0.666992 4 -1.66699 10 -3c54.667 -14 92.667 -28.333 114 -43c35.333 -24 53 -57.333 53 -100c0 -46.667 -19.667 -83.667 -59 -111c-34.667 -22.667 -76.667 -34 -126 -34c-57.333 0 -102.666 13.333 -135.999 40c-36 28.667 -56.667 70.667 -62 126h31z" />
    <glyph glyph-name="t" unicode="t" horiz-adv-x="187" 
d="M37 671v-680h6l47 -47h46v490h104v42l-47 47v6h-57v89l-47 47v6h-52zM79 661v-142h104v-28h-104v-491h-32v661h32z" />
    <glyph glyph-name="u" unicode="u" 
d="M461 529h-50.999v-291c0 -17.333 -0.5 -33.5 -1.5 -48.5s-2.16699 -28.833 -3.5 -41.5v1c-14.667 -82.667 -68.334 -124 -161.001 -124c-28 0 -53 4.66699 -75 14c-9.33301 24 -14 55 -14 93v344l-47 47v6h-51v-357c0 -80 23.667 -135.667 71 -167l30 -28
c31.333 -30.667 77 -46 137 -46c57.333 0 103.333 14.333 138 43l30 -30h45v532l-47 47v6zM451.001 0l-31.001 0.000976562v81c-33.333 -62 -91.666 -93 -174.999 -93c-118.667 0 -178 61.333 -178 184v347h31v-337c0 -54.667 10.333 -95.334 31 -122.001
c22.667 -30 61 -45 115 -45c98.667 0 155.667 44 171 132c1.33301 9.33301 2.5 21.5 3.5 36.5s1.5 33.167 1.5 54.5v281h31v-519z" />
    <glyph glyph-name="v" unicode="v" horiz-adv-x="444" 
d="M194 -9h5l47 -47h46l206 532l-47 47l2 6h-56l-164 -425l-137 372l-45 45l-3 8h-53zM8 519h33l178 -482l185 482h33l-200 -519h-36z" />
    <glyph glyph-name="w" unicode="w" horiz-adv-x="669" 
d="M171 -9h5l47 -47h42l99 288l87 -241h5l47 -47h42l171 532l-48 47l2 6h-53l-130 -404l-85 244l-46 45l-2 8h-43l-101 -293l-109 347l-46 45l-2 8h-53zM13 519h33l148 -470l124 363h29l127 -363l150 470h32l-166 -519h-32l-126 355l-122 -355h-32z" />
    <glyph glyph-name="x" unicode="x" horiz-adv-x="410" 
d="M57 514l-11 15h-62l188 -261l-195 -277h9l46 -47h54l159 223l128 -176h4l47 -47h55l-197 274l184 258l-48 48l4 5h-62l-150 -212l-115 159zM-3 0l188 268l-182 251h38l164 -225l160 225h37l-179 -251l192 -268h-37l-174 243l-172 -243h-35z" />
    <glyph glyph-name="y" unicode="y" 
d="M158 146l0.000976562 341l-47 47v6h-52v-354c0 -80 23.667 -135.667 71 -167l30 -29c30.667 -30.667 76.334 -46 137.001 -46c43.333 0 80.666 9 111.999 27v-7c-2.66699 -16 -7.66699 -31.667 -15 -47c-28 -54 -78.333 -81 -151 -81c-32.667 0 -61.667 6.66699 -87 20
c-2.66699 6.66699 -4.83398 14.167 -6.50098 22.5s-2.83398 17.5 -3.50098 27.5l-47 47v6h-47c0.666992 -33.333 5.66699 -59.333 15 -78c6.66699 -13.333 23.334 -33 50.001 -59l29 -29c34 -34 80.667 -51 140 -51c119.333 0 191 49.333 215 148c6.66699 26 10 50 10 72
v525l-47 47v6h-52v-288c0 -18 -0.5 -34.5 -1.5 -49.5s-2.16699 -28.167 -3.5 -39.5v1c-15.333 -83.333 -69 -125 -161 -125c-27.333 0 -52 4.66699 -74 14c-9.33301 24 -14 55 -14 93zM444.001 -58c-22 -95.333 -91.334 -143.002 -208.001 -143.002
c-50.667 0 -91.334 12.333 -122.001 37c-34 26.667 -51.333 64.334 -52 113.001h27c2 -42 18.333 -73.333 49 -94c27.333 -19.333 62.333 -29 105 -29c46.667 0 85.334 11.333 116.001 34c33.333 24 53.333 58.333 60 103c2 12.667 3 30.334 3 53.001v80
c-33.333 -64 -91.666 -96 -174.999 -96c-118.667 0 -178 62 -178 186v344h32v-334c0 -55.333 10 -96 30 -122c22.667 -30 61 -45 115 -45c98 0 155 44.333 171 133c1.33301 9.33301 2.5 21.5 3.5 36.5s1.5 32.833 1.5 53.5v278h32v-519c0 -18.667 -3.33301 -41.667 -10 -69z
" />
    <glyph glyph-name="z" unicode="z" horiz-adv-x="437" 
d="M7 -9h6l47 -47h417v45l-47 46v6h-274l310 390v45l-47 47v6h-392v-51h6l47 -47h237l-310 -392v-48zM17 37l358 451h-338v31h372v-37l-358 -451h369v-31h-403v37z" />
    <glyph glyph-name="braceleft" unicode="{" horiz-adv-x="500" 
d="M376 731l-25.999 -0.000976562c-99.333 0 -149 -38.333 -149 -115c0 -32.667 8 -76 24 -130c16.667 -54.667 25 -95.667 25 -123c0 -51.333 -32.667 -77 -98 -77h-13c-3.33301 0 -6 0.333008 -8 1h-7v-56h6l47 -47l29 1h11c11.333 0 22 -1 32 -3
c0.666992 -3.33301 1.16699 -6.33301 1.5 -9s0.5 -5.33398 0.5 -8.00098c0 -26.667 -8.66699 -69 -26 -127s-26 -100.667 -26 -128c0 -45.333 16.667 -77.666 50 -96.999l32 -32c25.333 -25.333 67.666 -38 126.999 -38h15v48l-47 47v6h-14c-20 0 -38.667 2.66699 -56 8
c-0.666992 2 -1 5.33301 -1 10v10c0 24.667 8.66699 65.667 26 123c17.333 56 26 98.333 26 127s-8.33301 51.334 -25 68.001l-4 3c0 0.666992 -0.333008 1 -1 1l-16 17c31.333 15.333 47 44.333 47 87c0 29.333 -8 72 -24 128c-16 56.667 -24 99.667 -24 129
c0 50.667 28.667 76 86 76h10c2 0 4.5 -0.166992 7.5 -0.5s6.16699 -0.833008 9.5 -1.5v49l-47 47v6zM350.001 720.999l16 -0.00195312v-34c-2 0.666992 -5.33301 1 -10 1h-10c-62 0 -93 -27.667 -93 -83c0 -29.333 8 -72.333 24 -129c16 -56 24 -98.667 24 -128
c0 -51.333 -23.667 -81 -71 -89c46.667 -10.667 70 -39.667 70 -87c0 -27.333 -8.66699 -69 -26 -125s-26 -97.667 -26 -125c0 -59.333 39.333 -88.666 118 -87.999v-34c-104.667 -2 -157 34.667 -157 110c0 28.667 8.66699 71 26 127c17.333 57.333 26 100 26 128
c0 54 -35 79.667 -105 77l-22 -1v36c84 -5.33301 126 23.334 126 86.001c0 29.333 -8.33301 71.333 -25 126c-16 54 -24 96.333 -24 127c0 70 46.333 105 139 105z" />
    <glyph glyph-name="bar" unicode="|" horiz-adv-x="500" 
d="M222 774v-1018h6l47 -47h50v1012l-47 47v6h-56zM268 764v-998h-36v998h36z" />
    <glyph glyph-name="braceright" unicode="}" horiz-adv-x="500" 
d="M79 731l-0.000976562 -55h2c0.666992 0.666992 1.66699 1 3 1l48 -48c3.33301 0.666992 6.5 1.16699 9.5 1.5s5.16699 0.5 6.5 0.5h11c4.66699 0 14.667 -1 30 -3c2 -7.33301 3 -15 3 -23c0 -29.333 -8 -72.333 -24 -129c-16 -56 -24 -98.667 -24 -128
c0 -42 14 -71 42 -87l4 -4c-30.667 -16.667 -46 -45 -46 -85c0 -28 8.66699 -70.667 26 -128c18 -56 27 -96.667 27 -122c0 -52 -34.667 -78 -104 -78h-14v-54h6l47 -47h15c103.333 0 155 39 155 117c0 28 -8.66699 70.667 -26 128c-16.667 54 -25 96.333 -25 127
c0 46.667 28.667 70 86 70h11l29 -1v50l-47 47v6h-8c-2 -0.666992 -4.66699 -1 -8 -1h-12c-21.333 0 -37.666 2.33301 -48.999 7c-0.666992 2 -1 5 -1 9v11c0 28.667 8 70.667 24 126c16 56 24 98.333 24 127c0 33.333 -9 59 -27 77l-4 3l-31 32
c-22 35.333 -66.333 53 -133 53h-26zM104.999 721c92 0 138 -34.9951 138 -104.995c0 -28.667 -8 -71 -24 -127c-16 -55.333 -24 -97.333 -24 -126c0 -62.667 41.667 -91.334 125 -86.001v-36l-22 1c-69.333 3.33301 -104 -22.334 -104 -77.001
c0 -30.667 8.33301 -73.334 25 -128.001c17.333 -56 26 -98.333 26 -127c0 -75.333 -52 -112 -156 -110v34c78.667 -0.666992 118 28.666 118 87.999c0 27.333 -9 68.666 -27 123.999c-17.333 56 -26 98 -26 126c0 47.333 23.333 76.333 70 87c-46.667 8 -70 37.667 -70 89
c0 29.333 8 72 24 128c16 56.667 24 99.667 24 129c0 55.333 -31 83 -93 83h-10c-4.66699 0 -8 -0.333008 -10 -1v34h16zM268.999 645.005h1l-1 1v-1z" />
    <glyph glyph-name="asciitilde" unicode="~" horiz-adv-x="602" 
d="M546 381c-62 -62 -110.332 -93 -144.999 -93c-21.333 0 -53.333 11.333 -96 34c-46.667 24.667 -81.334 37 -104.001 37c-45.333 0 -93.666 -26.667 -144.999 -80v-65l5 5l48 -48c58.667 60.667 106 91 142 91c17.333 0 50 -11.667 98 -35s82 -35 102 -35
c43.333 0 90.666 25.667 141.999 77v55l-47 47v10zM536.001 322c-48.667 -48.667 -93.667 -73 -135 -73c-19.333 0 -53 11.667 -101 35s-81 35 -99 35c-37.333 0 -82.333 -27 -135 -81v37c47.333 49.333 92.333 74 135 74c20 0 53 -12 99 -36c48 -23.333 81.667 -35 101 -35
c37.333 0 82.333 26.333 135 79v-35z" />
    <glyph glyph-name="quotesinglbase" horiz-adv-x="237" 
d="M58 45c0 -20 6.66699 -33.667 20 -41l9 -7l-29 -119h7l47 -47h49l59 233l-48 47l2 6h-58v-3c-15.333 -3.33301 -28.833 -11.833 -40.5 -25.5s-17.5 -28.167 -17.5 -43.5zM126 105l0.000976562 1.99902h35l-56 -219h-34l31 121c-22.667 0 -34 12 -34 36
c0 6.66699 1.66699 13.667 5 21s7.66602 13.833 12.999 19.5s11.333 10.334 18 14.001s13.667 5.5 21 5.5h1z" />
    <glyph glyph-name="quotesinglbase" unicode="&#x201a;" horiz-adv-x="237" 
d="M58 45c0 -20 6.66699 -33.667 20 -41l9 -7l-29 -119h7l47 -47h49l59 233l-48 47l2 6h-58v-3c-15.333 -3.33301 -28.833 -11.833 -40.5 -25.5s-17.5 -28.167 -17.5 -43.5zM126 105l0.000976562 1.99902h35l-56 -219h-34l31 121c-22.667 0 -34 12 -34 36
c0 6.66699 1.66699 13.667 5 21s7.66602 13.833 12.999 19.5s11.333 10.334 18 14.001s13.667 5.5 21 5.5h1z" />
    <glyph glyph-name="florin" horiz-adv-x="244" 
d="M-135 -184l99.998 1.99805c42.667 0.666992 73.334 14.334 92.001 41.001c12 15.333 22 45.666 30 90.999l81 483l102 2l7 43l-48 47l1 6l-47 -1l3 12c5.33301 20.667 12.333 44.334 21 71.001c12 18.667 32.333 28 61 28l92 1l8 41l-47 47l1 6l-106 -2
c-43.333 -1.33301 -75 -15.333 -95 -42c-14 -19.333 -24.333 -50.666 -31 -93.999l-99 -597c-5.33301 -26 -11.666 -47 -18.999 -63c-10.667 -16.667 -30 -25.667 -58 -27l-96 -2l-6 -46h6zM116.998 518.998l102.002 1.99902l-5 -29l-102 -2l-82 -490
c-7.33301 -42 -17 -71 -29 -87c-16.667 -24.667 -45.334 -37.334 -86.001 -38.001l-92 -2l4 26l87 2c32 0.666992 54.333 11 67 31c8 13.333 14.333 36 19 68l100 597c6.66699 42 16.334 71.667 29.001 89c16.667 24 45.667 36.667 87 38l93 2l-5 -27l-86 -1
c-32 -0.666992 -54.333 -11 -67 -31c-4.66699 -7.33301 -8.83398 -17.166 -12.501 -29.499s-6.83398 -27.166 -9.50098 -44.499z" />
    <glyph glyph-name="florin" unicode="&#x192;" horiz-adv-x="244" 
d="M-135 -184l99.998 1.99805c42.667 0.666992 73.334 14.334 92.001 41.001c12 15.333 22 45.666 30 90.999l81 483l102 2l7 43l-48 47l1 6l-47 -1l3 12c5.33301 20.667 12.333 44.334 21 71.001c12 18.667 32.333 28 61 28l92 1l8 41l-47 47l1 6l-106 -2
c-43.333 -1.33301 -75 -15.333 -95 -42c-14 -19.333 -24.333 -50.666 -31 -93.999l-99 -597c-5.33301 -26 -11.666 -47 -18.999 -63c-10.667 -16.667 -30 -25.667 -58 -27l-96 -2l-6 -46h6zM116.998 518.998l102.002 1.99902l-5 -29l-102 -2l-82 -490
c-7.33301 -42 -17 -71 -29 -87c-16.667 -24.667 -45.334 -37.334 -86.001 -38.001l-92 -2l4 26l87 2c32 0.666992 54.333 11 67 31c8 13.333 14.333 36 19 68l100 597c6.66699 42 16.334 71.667 29.001 89c16.667 24 45.667 36.667 87 38l93 2l-5 -27l-86 -1
c-32 -0.666992 -54.333 -11 -67 -31c-4.66699 -7.33301 -8.83398 -17.166 -12.501 -29.499s-6.83398 -27.166 -9.50098 -44.499z" />
    <glyph glyph-name="quotedblbase" horiz-adv-x="381" 
d="M49 44c0 -24.667 8 -39.333 24 -44l5 -4l-29 -119h7l47 -47l49 -1l47 192c4 -8.66699 10 -15 18 -19l8 -6l-30 -119h7l47 -47l50 -1l58 233l-48 47l2 6l-53 1l-2 -4c-24 -7.33301 -42 -21.666 -54 -42.999l-40 40l2 6l-57 1v-3c-16 -2.66699 -29.667 -10.834 -41 -24.501
s-17 -28.5 -17 -44.5zM264 106.001l33.999 -1.00098l-55 -219l-35 1l31 120c-22 0 -33 12.333 -33 37c0 14.667 5.83301 28.334 17.5 41.001s24.834 19 39.501 19zM116.999 104l-0.000976562 1.99902l34 -1l-55 -219l-34 1l31 120h-1c-22 0 -33 12.333 -33 37
c0 14.667 5.83301 28.334 17.5 41.001s24.834 19 39.501 19h1z" />
    <glyph glyph-name="quotedblbase" unicode="&#x201e;" horiz-adv-x="381" 
d="M49 44c0 -24.667 8 -39.333 24 -44l5 -4l-29 -119h7l47 -47l49 -1l47 192c4 -8.66699 10 -15 18 -19l8 -6l-30 -119h7l47 -47l50 -1l58 233l-48 47l2 6l-53 1l-2 -4c-24 -7.33301 -42 -21.666 -54 -42.999l-40 40l2 6l-57 1v-3c-16 -2.66699 -29.667 -10.834 -41 -24.501
s-17 -28.5 -17 -44.5zM264 106.001l33.999 -1.00098l-55 -219l-35 1l31 120c-22 0 -33 12.333 -33 37c0 14.667 5.83301 28.334 17.5 41.001s24.834 19 39.501 19zM116.999 104l-0.000976562 1.99902l34 -1l-55 -219l-34 1l31 120h-1c-22 0 -33 12.333 -33 37
c0 14.667 5.83301 28.334 17.5 41.001s24.834 19 39.501 19h1z" />
    <glyph glyph-name="ellipsis" unicode="&#x85;" horiz-adv-x="1000" 
d="M140 41c0 -31.333 7.66699 -49.667 23 -55l42 -42c4 -4 9.66699 -6 17 -6c19.333 0 29 18 29 54c0 22.667 -4 38 -12 46l-40 40c-4.66699 12.667 -13.667 19 -27 19c-21.333 0 -32 -18.667 -32 -56zM473 40.999c0 -31.333 7.66699 -49.667 23 -55l42 -42
c4 -4 9.66699 -6 17 -6c19.333 0 29 18 29 54c0 22.667 -4 38 -12 46l-40 40c-4.66699 12.667 -13.667 19 -27 19c-21.333 0 -32 -18.667 -32 -56zM807 40.998c0 -31.333 7.66699 -49.667 23 -55l42 -42c4 -4 9.66699 -6 17 -6c19.333 0 29 18 29 54c0 22.667 -4 38 -12 46
l-40 40c-4.66699 12.667 -13.667 19 -27 19c-21.333 0 -32 -18.667 -32 -56zM150 40.9971c0 30.667 7.33301 46 22 46s22 -15.333 22 -46s-7.33301 -46 -22 -46s-22 15.333 -22 46zM817 40.9971c0 30.667 7.33301 46 22 46s22 -15.333 22 -46s-7.33301 -46 -22 -46
s-22 15.333 -22 46zM483 40.9971c0 30.667 7.33301 46 22 46s22 -15.333 22 -46s-7.33301 -46 -22 -46s-22 15.333 -22 46z" />
    <glyph glyph-name="ellipsis" unicode="&#x2026;" horiz-adv-x="1000" 
d="M140 41c0 -31.333 7.66699 -49.667 23 -55l42 -42c4 -4 9.66699 -6 17 -6c19.333 0 29 18 29 54c0 22.667 -4 38 -12 46l-40 40c-4.66699 12.667 -13.667 19 -27 19c-21.333 0 -32 -18.667 -32 -56zM473 40.999c0 -31.333 7.66699 -49.667 23 -55l42 -42
c4 -4 9.66699 -6 17 -6c19.333 0 29 18 29 54c0 22.667 -4 38 -12 46l-40 40c-4.66699 12.667 -13.667 19 -27 19c-21.333 0 -32 -18.667 -32 -56zM807 40.998c0 -31.333 7.66699 -49.667 23 -55l42 -42c4 -4 9.66699 -6 17 -6c19.333 0 29 18 29 54c0 22.667 -4 38 -12 46
l-40 40c-4.66699 12.667 -13.667 19 -27 19c-21.333 0 -32 -18.667 -32 -56zM150 40.9971c0 30.667 7.33301 46 22 46s22 -15.333 22 -46s-7.33301 -46 -22 -46s-22 15.333 -22 46zM817 40.9971c0 30.667 7.33301 46 22 46s22 -15.333 22 -46s-7.33301 -46 -22 -46
s-22 15.333 -22 46zM483 40.9971c0 30.667 7.33301 46 22 46s22 -15.333 22 -46s-7.33301 -46 -22 -46s-22 15.333 -22 46z" />
    <glyph glyph-name="dagger" horiz-adv-x="500" 
d="M224 -113h6l47 -47h45v629h148v43l-47 47v6h-101v111l-47 47v6h-51v-164h-147v-49h6l47 -47h94v-582zM234 526h-147v29h147v164h31v-164h148v-29h-148v-629h-31v629z" />
    <glyph glyph-name="dagger" unicode="&#x2020;" horiz-adv-x="500" 
d="M224 -113h6l47 -47h45v629h148v43l-47 47v6h-101v111l-47 47v6h-51v-164h-147v-49h6l47 -47h94v-582zM234 526h-147v29h147v164h31v-164h148v-29h-148v-629h-31v629z" />
    <glyph glyph-name="daggerdbl" horiz-adv-x="500" 
d="M322 676l-47 47v6h-51v-164h-147v-49h6l47 -47h94v-372h-147v-49h6l47 -47h94v-114h6l47 -47h45v161h148v43l-47 47v6h-101v372h148v43l-47 47v6h-101v111zM413 87v-29h-148v-161h-31v161h-147v29h147v439h-147v29h147v164h31v-164h148v-29h-148v-439h148z" />
    <glyph glyph-name="daggerdbl" unicode="&#x2021;" horiz-adv-x="500" 
d="M322 676l-47 47v6h-51v-164h-147v-49h6l47 -47h94v-372h-147v-49h6l47 -47h94v-114h6l47 -47h45v161h148v43l-47 47v6h-101v372h148v43l-47 47v6h-101v111zM413 87v-29h-148v-161h-31v161h-147v29h147v439h-147v29h147v164h31v-164h148v-29h-148v-439h148z" />
    <glyph glyph-name="circumflex" horiz-adv-x="500" 
d="M107 574h9l47 -47h55l70 108l43 -66h4l48 -47l52 6l-107 173l-40 39l-8 14h-60zM226 744h48l99 -160l-36 -4l-87 136l-86 -132h-38z" />
    <glyph glyph-name="circumflex" unicode="&#x2c6;" horiz-adv-x="500" 
d="M107 574h9l47 -47h55l70 108l43 -66h4l48 -47l52 6l-107 173l-40 39l-8 14h-60zM226 744h48l99 -160l-36 -4l-87 136l-86 -132h-38z" />
    <glyph glyph-name="perthousand" horiz-adv-x="1028" 
d="M396 175c0 -46 12.3369 -86.334 37.0039 -121.001c12 -16.667 25.333 -30 40 -40l30 -29c25.333 -25.333 55.666 -38 90.999 -38c46.667 0 83.334 19.333 110.001 58c15.333 22.667 25.666 47 30.999 73c5.33301 -8.66699 10.166 -15.834 14.499 -21.501l10.5 -13.5
c8.66699 -12 19 -21.667 31 -29l30 -29c25.333 -25.333 55.666 -38 90.999 -38c44.667 0 80.667 19 108 57c24.667 33.333 37 73.666 37 120.999c0 46.667 -12.333 86.667 -37 120c-6 8.66699 -12 16 -18 22l-6 4l-24 26c-28.667 40.667 -65.334 61 -110.001 61
c-45.333 0 -82.333 -20 -111 -60c-16.667 -22.667 -28 -48.667 -34 -78c-7.33301 16.667 -18.333 32.334 -33 47.001l-26 26c-0.666992 0.666992 -1.16699 1.33398 -1.5 2.00098s-0.833008 1.33398 -1.5 2.00098c-28.667 40.667 -65.667 61 -111 61
c-46 0 -83 -19.667 -111 -59c-24.667 -34.667 -37 -76 -37 -124zM510.004 761.999l-131.999 -285.001c0 3.33301 0.333008 6.66602 1 9.99902v10c0 46.667 -12.333 86.667 -37 120c-5.33301 6.66699 -11.333 13.667 -18 21l-6 4l-21 23
c-0.666992 0.666992 -1.16699 1.33398 -1.5 2.00098s-0.833008 1.33398 -1.5 2.00098c-29.333 40 -66 60 -110 60c-45.333 0 -82 -19.667 -110 -59c-26 -35.333 -39 -76.333 -39 -123c0 -46 12.667 -86.667 38 -122c13.333 -18 27.333 -31.667 42 -41l28 -28
c25.333 -25.333 55.666 -38 90.999 -38c32 0 60.333 10.333 85 31l-166 -358h8l47 -47h50l353 765l-48 47l3 6h-56zM406.005 174.998c0 44.667 11.667 83.667 35 117c26 37.333 60.333 56 103 56c41.333 0 75.666 -19 102.999 -57c24 -33.333 36 -72 36 -116
c0 -44.667 -11.667 -83.667 -35 -117c-26 -36.667 -60.667 -55 -104 -55c-41.333 0 -75.666 18.667 -102.999 56c-23.333 33.333 -35 72 -35 116zM723.005 174.998c0 43.333 11.666 82.333 34.999 117c27.333 37.333 62 56 104 56c40.667 0 74.667 -19 102 -57
c24 -34 36 -72.667 36 -116c0 -44 -11.667 -82.667 -35 -116c-26 -37.333 -60.333 -56 -103 -56c-41.333 0 -75.666 18.667 -102.999 56c-24 34 -36 72.667 -36 116zM45.0039 546.998c0 44 12 82.666 36 115.999c27.333 37.333 61.666 56 102.999 56
c42 0 76 -18.667 102 -56c24 -34 36 -72.667 36 -116c0 -44 -11.667 -82.667 -35 -116c-26 -37.333 -60.333 -56 -103 -56c-41.333 0 -75.666 18.667 -102.999 56c-24 32.667 -36 71.334 -36 116.001zM76.0039 546.997c0 -34.667 9 -66 27 -94c20.667 -32 47.667 -48 81 -48
c32 0 58.667 16 80 48c18 28 27 59.333 27 94c0 35.333 -9 66.666 -27 93.999c-20 31.333 -46.667 47 -80 47c-34 0 -61 -15.667 -81 -47c-18 -27.333 -27 -58.666 -27 -93.999zM437.004 174.997c0 -36 8.66699 -67.332 26 -93.999c21.333 -31.333 48.333 -47 81 -47
s59.667 15.667 81 47c17.333 27.333 26 58.666 26 93.999c0 36 -8.66699 67.333 -26 94c-21.333 31.333 -48.333 47 -81 47c-35.333 0 -62.333 -15.333 -81 -46c-17.333 -27.333 -26 -59 -26 -95zM754.004 174.998c0 -36 8.99902 -67.333 26.999 -94
c20 -31.333 47 -47 81 -47c32 0 58.667 16 80 48c18 28 27 59 27 93c0 35.333 -9 66.666 -27 93.999c-20 31.333 -46.667 47 -80 47s-60.666 -15.667 -81.999 -47c-17.333 -27.333 -26 -58.666 -26 -93.999zM550.003 751.998l-346 -752h-35l347 752h34zM133.003 496.998
c0 34 8.33398 63.666 25.001 88.999c18.667 30 44 45 76 45c7.33301 0 16 -1.66699 26 -5c14 -24 21 -50.333 21 -79c0 -31.333 -8.66699 -60.666 -26 -87.999h1c-19.333 -29.333 -43.333 -44 -72 -44c-12.667 0 -24.334 2.66699 -35.001 8c-10.667 22 -16 46.667 -16 74z
M811.004 124.997c0 34.667 8.33301 64.334 25 89.001c18.667 30 44 45 76 45c10 0 18.667 -1.33301 26 -4c14 -24 21 -50.667 21 -80c0 -30.667 -8.33301 -59.334 -25 -86.001c-19.333 -30 -43.333 -45 -72 -45c-14 0 -25.667 2.66699 -35 8c-10.667 20.667 -16 45 -16 73z
M494.004 124.997c0 36 8.33301 66.333 25 91c18.667 28.667 43.667 43 75 43c11.333 0 20 -1.33301 26 -4c14 -25.333 21 -52 21 -80c0 -31.333 -8.33301 -60.333 -25 -87h1c-19.333 -29.333 -43.666 -44 -72.999 -44c-12.667 0 -24.334 2.66699 -35.001 8
c-10 24 -15 48.333 -15 73z" />
    <glyph glyph-name="perthousand" unicode="&#x2030;" horiz-adv-x="1028" 
d="M396 175c0 -46 12.3369 -86.334 37.0039 -121.001c12 -16.667 25.333 -30 40 -40l30 -29c25.333 -25.333 55.666 -38 90.999 -38c46.667 0 83.334 19.333 110.001 58c15.333 22.667 25.666 47 30.999 73c5.33301 -8.66699 10.166 -15.834 14.499 -21.501l10.5 -13.5
c8.66699 -12 19 -21.667 31 -29l30 -29c25.333 -25.333 55.666 -38 90.999 -38c44.667 0 80.667 19 108 57c24.667 33.333 37 73.666 37 120.999c0 46.667 -12.333 86.667 -37 120c-6 8.66699 -12 16 -18 22l-6 4l-24 26c-28.667 40.667 -65.334 61 -110.001 61
c-45.333 0 -82.333 -20 -111 -60c-16.667 -22.667 -28 -48.667 -34 -78c-7.33301 16.667 -18.333 32.334 -33 47.001l-26 26c-0.666992 0.666992 -1.16699 1.33398 -1.5 2.00098s-0.833008 1.33398 -1.5 2.00098c-28.667 40.667 -65.667 61 -111 61
c-46 0 -83 -19.667 -111 -59c-24.667 -34.667 -37 -76 -37 -124zM510.004 761.999l-131.999 -285.001c0 3.33301 0.333008 6.66602 1 9.99902v10c0 46.667 -12.333 86.667 -37 120c-5.33301 6.66699 -11.333 13.667 -18 21l-6 4l-21 23
c-0.666992 0.666992 -1.16699 1.33398 -1.5 2.00098s-0.833008 1.33398 -1.5 2.00098c-29.333 40 -66 60 -110 60c-45.333 0 -82 -19.667 -110 -59c-26 -35.333 -39 -76.333 -39 -123c0 -46 12.667 -86.667 38 -122c13.333 -18 27.333 -31.667 42 -41l28 -28
c25.333 -25.333 55.666 -38 90.999 -38c32 0 60.333 10.333 85 31l-166 -358h8l47 -47h50l353 765l-48 47l3 6h-56zM406.005 174.998c0 44.667 11.667 83.667 35 117c26 37.333 60.333 56 103 56c41.333 0 75.666 -19 102.999 -57c24 -33.333 36 -72 36 -116
c0 -44.667 -11.667 -83.667 -35 -117c-26 -36.667 -60.667 -55 -104 -55c-41.333 0 -75.666 18.667 -102.999 56c-23.333 33.333 -35 72 -35 116zM723.005 174.998c0 43.333 11.666 82.333 34.999 117c27.333 37.333 62 56 104 56c40.667 0 74.667 -19 102 -57
c24 -34 36 -72.667 36 -116c0 -44 -11.667 -82.667 -35 -116c-26 -37.333 -60.333 -56 -103 -56c-41.333 0 -75.666 18.667 -102.999 56c-24 34 -36 72.667 -36 116zM45.0039 546.998c0 44 12 82.666 36 115.999c27.333 37.333 61.666 56 102.999 56
c42 0 76 -18.667 102 -56c24 -34 36 -72.667 36 -116c0 -44 -11.667 -82.667 -35 -116c-26 -37.333 -60.333 -56 -103 -56c-41.333 0 -75.666 18.667 -102.999 56c-24 32.667 -36 71.334 -36 116.001zM76.0039 546.997c0 -34.667 9 -66 27 -94c20.667 -32 47.667 -48 81 -48
c32 0 58.667 16 80 48c18 28 27 59.333 27 94c0 35.333 -9 66.666 -27 93.999c-20 31.333 -46.667 47 -80 47c-34 0 -61 -15.667 -81 -47c-18 -27.333 -27 -58.666 -27 -93.999zM437.004 174.997c0 -36 8.66699 -67.332 26 -93.999c21.333 -31.333 48.333 -47 81 -47
s59.667 15.667 81 47c17.333 27.333 26 58.666 26 93.999c0 36 -8.66699 67.333 -26 94c-21.333 31.333 -48.333 47 -81 47c-35.333 0 -62.333 -15.333 -81 -46c-17.333 -27.333 -26 -59 -26 -95zM754.004 174.998c0 -36 8.99902 -67.333 26.999 -94
c20 -31.333 47 -47 81 -47c32 0 58.667 16 80 48c18 28 27 59 27 93c0 35.333 -9 66.666 -27 93.999c-20 31.333 -46.667 47 -80 47s-60.666 -15.667 -81.999 -47c-17.333 -27.333 -26 -58.666 -26 -93.999zM550.003 751.998l-346 -752h-35l347 752h34zM133.003 496.998
c0 34 8.33398 63.666 25.001 88.999c18.667 30 44 45 76 45c7.33301 0 16 -1.66699 26 -5c14 -24 21 -50.333 21 -79c0 -31.333 -8.66699 -60.666 -26 -87.999h1c-19.333 -29.333 -43.333 -44 -72 -44c-12.667 0 -24.334 2.66699 -35.001 8c-10.667 22 -16 46.667 -16 74z
M811.004 124.997c0 34.667 8.33301 64.334 25 89.001c18.667 30 44 45 76 45c10 0 18.667 -1.33301 26 -4c14 -24 21 -50.667 21 -80c0 -30.667 -8.33301 -59.334 -25 -86.001c-19.333 -30 -43.333 -45 -72 -45c-14 0 -25.667 2.66699 -35 8c-10.667 20.667 -16 45 -16 73z
M494.004 124.997c0 36 8.33301 66.333 25 91c18.667 28.667 43.667 43 75 43c11.333 0 20 -1.33301 26 -4c14 -25.333 21 -52 21 -80c0 -31.333 -8.33301 -60.333 -25 -87h1c-19.333 -29.333 -43.666 -44 -72.999 -44c-12.667 0 -24.334 2.66699 -35.001 8
c-10 24 -15 48.333 -15 73z" />
    <glyph glyph-name="Scaron" horiz-adv-x="573" 
d="M586 141c0 48 -15.6738 87.6631 -47.0068 118.996l-24 24c-13.333 22 -32.333 40.333 -57 55c-25.333 16.667 -78.666 36.334 -159.999 59.001h-3c2 -2 2.66699 -3 2 -3c-5.33301 1.33301 -8.33301 2 -9 2l1 3c-1.33301 0.666992 -2.66602 1.66699 -3.99902 3h-3
c-54 14 -93.667 28 -119 42c-7.33301 14.667 -11 32 -11 52c0 50 17 88.667 51 116c30.667 24.667 72 37 124 37c42 0 78.667 -8.66699 110 -26c19.333 -29.333 29.333 -66 30 -110h6l47 -47h46c-3.33301 68.667 -23 121.334 -59 158.001l-30 30
c-26 35.333 -59.333 60.333 -100 75l106 171l-47 47l3 5l-60 7l-75 -118l-39 59l-42 41l-7 12l-61 1l113 -180h5l35 -31c-5.33301 0 -10.166 0.166992 -14.499 0.5s-9.16602 0.5 -14.499 0.5c-61.333 0 -112.333 -15.333 -153 -46v1c-48.667 -36.667 -73 -87.667 -73 -153
c0 -58 22.667 -104 68 -138l30 -29c0.666992 -1.33301 3.33398 -3.66602 8.00098 -6.99902c24 -22 77.333 -44.333 160 -67c1.33301 0 2.33301 -0.333008 3 -1h1c12 -3.33301 24 -7 36 -11s24.333 -7.66699 37 -11c30 -9.33301 53 -18.666 69 -27.999
c13.333 -21.333 20 -45.666 20 -72.999c0 -50.667 -20.333 -90.334 -61 -119.001c-37.333 -26 -81.666 -39 -132.999 -39c-49.333 0 -90.666 12.333 -123.999 37c-18 30.667 -28.667 69 -32 115l-47 46v7h-53c4.66699 -82 29.667 -144.667 75 -188l22 -19l27 -26l1 -1
c20.667 0 50.667 -11 90 -33c38.667 -22 68.667 -33 90 -33c72 0 129.667 17.333 173 52c48.667 36.667 73 90 73 160zM528.993 190.996c0 -66.667 -23.666 -118.674 -70.999 -156.007c-42.667 -32.667 -98.667 -49 -168 -49c-36 0 -68.5 5.33301 -97.5 16
s-54 26.167 -75 46.5s-37.833 44.833 -50.5 73.5s-20 61 -22 97h33c4 -64 24.5 -114.167 61.5 -150.5s87.5 -54.5 151.5 -54.5c55.333 0 102 14 140 42c42.667 30.667 64 72.667 64 126c0 54.667 -22.333 96.334 -67 125.001c-11.333 7.33301 -29 15.5 -53 24.5
s-54.333 18.167 -91 27.5c-2.66699 0.666992 -5 1.33398 -7 2.00098l-6 2c-82.667 23.333 -135 45 -157 65c-34 30.667 -51 70.334 -51 119.001c0 61.333 21.333 108.333 64 141c39.333 31.333 90 47 152 47c34 0 64.667 -4.83301 92 -14.5s51 -23.5 71 -41.5
s35.667 -40 47 -66s18 -55.667 20 -89h-32c-1.33301 57.333 -20.666 102.666 -57.999 135.999c-36.667 31.333 -84 47 -142 47c-53.333 0 -96.333 -13 -129 -39c-35.333 -29.333 -53 -69.666 -53 -120.999c0 -37.333 14.667 -69.666 44 -96.999
c19.333 -17.333 66.666 -36.666 141.999 -57.999c3.33301 -1.33301 6.16602 -2.16602 8.49902 -2.49902s4.16602 -0.833008 5.49902 -1.5c84.667 -25.333 137.334 -44.666 158.001 -57.999c50.667 -32.667 76 -79 76 -139zM420.994 944.989l-99 -160h-48l-100 160l37 -1
l87 -131l87 136zM292.994 397.989h1h-1z" />
    <glyph glyph-name="Scaron" unicode="&#x160;" horiz-adv-x="573" 
d="M586 141c0 48 -15.6738 87.6631 -47.0068 118.996l-24 24c-13.333 22 -32.333 40.333 -57 55c-25.333 16.667 -78.666 36.334 -159.999 59.001h-3c2 -2 2.66699 -3 2 -3c-5.33301 1.33301 -8.33301 2 -9 2l1 3c-1.33301 0.666992 -2.66602 1.66699 -3.99902 3h-3
c-54 14 -93.667 28 -119 42c-7.33301 14.667 -11 32 -11 52c0 50 17 88.667 51 116c30.667 24.667 72 37 124 37c42 0 78.667 -8.66699 110 -26c19.333 -29.333 29.333 -66 30 -110h6l47 -47h46c-3.33301 68.667 -23 121.334 -59 158.001l-30 30
c-26 35.333 -59.333 60.333 -100 75l106 171l-47 47l3 5l-60 7l-75 -118l-39 59l-42 41l-7 12l-61 1l113 -180h5l35 -31c-5.33301 0 -10.166 0.166992 -14.499 0.5s-9.16602 0.5 -14.499 0.5c-61.333 0 -112.333 -15.333 -153 -46v1c-48.667 -36.667 -73 -87.667 -73 -153
c0 -58 22.667 -104 68 -138l30 -29c0.666992 -1.33301 3.33398 -3.66602 8.00098 -6.99902c24 -22 77.333 -44.333 160 -67c1.33301 0 2.33301 -0.333008 3 -1h1c12 -3.33301 24 -7 36 -11s24.333 -7.66699 37 -11c30 -9.33301 53 -18.666 69 -27.999
c13.333 -21.333 20 -45.666 20 -72.999c0 -50.667 -20.333 -90.334 -61 -119.001c-37.333 -26 -81.666 -39 -132.999 -39c-49.333 0 -90.666 12.333 -123.999 37c-18 30.667 -28.667 69 -32 115l-47 46v7h-53c4.66699 -82 29.667 -144.667 75 -188l22 -19l27 -26l1 -1
c20.667 0 50.667 -11 90 -33c38.667 -22 68.667 -33 90 -33c72 0 129.667 17.333 173 52c48.667 36.667 73 90 73 160zM528.993 190.996c0 -66.667 -23.666 -118.674 -70.999 -156.007c-42.667 -32.667 -98.667 -49 -168 -49c-36 0 -68.5 5.33301 -97.5 16
s-54 26.167 -75 46.5s-37.833 44.833 -50.5 73.5s-20 61 -22 97h33c4 -64 24.5 -114.167 61.5 -150.5s87.5 -54.5 151.5 -54.5c55.333 0 102 14 140 42c42.667 30.667 64 72.667 64 126c0 54.667 -22.333 96.334 -67 125.001c-11.333 7.33301 -29 15.5 -53 24.5
s-54.333 18.167 -91 27.5c-2.66699 0.666992 -5 1.33398 -7 2.00098l-6 2c-82.667 23.333 -135 45 -157 65c-34 30.667 -51 70.334 -51 119.001c0 61.333 21.333 108.333 64 141c39.333 31.333 90 47 152 47c34 0 64.667 -4.83301 92 -14.5s51 -23.5 71 -41.5
s35.667 -40 47 -66s18 -55.667 20 -89h-32c-1.33301 57.333 -20.666 102.666 -57.999 135.999c-36.667 31.333 -84 47 -142 47c-53.333 0 -96.333 -13 -129 -39c-35.333 -29.333 -53 -69.666 -53 -120.999c0 -37.333 14.667 -69.666 44 -96.999
c19.333 -17.333 66.666 -36.666 141.999 -57.999c3.33301 -1.33301 6.16602 -2.16602 8.49902 -2.49902s4.16602 -0.833008 5.49902 -1.5c84.667 -25.333 137.334 -44.666 158.001 -57.999c50.667 -32.667 76 -79 76 -139zM420.994 944.989l-99 -160h-48l-100 160l37 -1
l87 -131l87 136zM292.994 397.989h1h-1z" />
    <glyph glyph-name="guilsinglleft" horiz-adv-x="248" 
d="M217 391l2 3l-43 29l-135 -167l135 -167l3 2l48 -48l36 26l-109 137l111 137zM96 256l107 -135l-25 -19l-125 154l125 154l27 -19z" />
    <glyph glyph-name="guilsinglleft" unicode="&#x2039;" horiz-adv-x="248" 
d="M217 391l2 3l-43 29l-135 -167l135 -167l3 2l48 -48l36 26l-109 137l111 137zM96 256l107 -135l-25 -19l-125 154l125 154l27 -19z" />
    <glyph glyph-name="OE" horiz-adv-x="957" 
d="M370 745c-110 0 -193.334 -38.333 -250.001 -115c-52 -68 -78 -158.333 -78 -271c0 -110.667 25.667 -200.667 77 -270c8.66699 -11.333 17.334 -21.333 26.001 -30s17.667 -16.667 27 -24l25 -25c54.667 -54 129 -81 223 -81c42 0 79.667 5 113 15h451v47l-47 46v6h-267
c50 66 75.333 152.333 76 259h144v46l-47 47v6h-104c-13.333 86.667 -46.333 156.667 -99 210l-20 20h354v46l-47 47v6h-450c-35.333 10 -71 15 -107 15zM477.999 720h439v-32h-372c89.333 -59.333 137 -158.333 143 -297h145v-32h-144
c0 -109.333 -25.333 -197.333 -76 -264c-19.333 -25.333 -41 -46 -65 -62h379v-33h-446c-34 -9.33301 -71 -14 -111 -14c-106.667 0 -188 36.333 -244 109c-49.333 66.667 -74 154.667 -74 264c0 108.667 25 196.667 75 264c56 74.667 137 112 243 112
c40.667 0 76.667 -5.33301 108 -16v1zM477.999 687c-32 12 -67.999 17.998 -107.999 17.998c-96.667 0 -169.334 -35 -218.001 -105c-43.333 -61.333 -65 -141.666 -65 -240.999s21.667 -179.666 65 -240.999c49.333 -69.333 122 -104 218 -104c40 0 76 6 108 18v655z
M370 23.998c-66.667 0 -121.667 17.332 -165 51.999c-40.667 60.667 -61 138.334 -61 233.001c0 97.333 21 176 63 236c48 68.667 119 103 213 103c8 0 16 -0.333008 24 -1s16 -1.66699 24 -3v-605c-32 -10 -64.667 -15 -98 -15zM512 358.997v-310
c94.667 56.667 142 160 142 310h-142zM512 390.997h141c-4.66699 76 -22 139 -52 189l-1 1v1c-22.667 36.667 -52 66 -88 88v-279zM580 593.997c34.667 -45.333 55 -109.667 61 -193h-72v206c0 -0.666992 0.666992 -1 2 -1zM569 109.996v192h72c-10 -90 -34 -154 -72 -192z
M602 579.996l-1 -0.000976562c-0.666992 0.666992 -1 1.33398 -1 2.00098z" />
    <glyph glyph-name="OE" unicode="&#x152;" horiz-adv-x="957" 
d="M370 745c-110 0 -193.334 -38.333 -250.001 -115c-52 -68 -78 -158.333 -78 -271c0 -110.667 25.667 -200.667 77 -270c8.66699 -11.333 17.334 -21.333 26.001 -30s17.667 -16.667 27 -24l25 -25c54.667 -54 129 -81 223 -81c42 0 79.667 5 113 15h451v47l-47 46v6h-267
c50 66 75.333 152.333 76 259h144v46l-47 47v6h-104c-13.333 86.667 -46.333 156.667 -99 210l-20 20h354v46l-47 47v6h-450c-35.333 10 -71 15 -107 15zM477.999 720h439v-32h-372c89.333 -59.333 137 -158.333 143 -297h145v-32h-144
c0 -109.333 -25.333 -197.333 -76 -264c-19.333 -25.333 -41 -46 -65 -62h379v-33h-446c-34 -9.33301 -71 -14 -111 -14c-106.667 0 -188 36.333 -244 109c-49.333 66.667 -74 154.667 -74 264c0 108.667 25 196.667 75 264c56 74.667 137 112 243 112
c40.667 0 76.667 -5.33301 108 -16v1zM477.999 687c-32 12 -67.999 17.998 -107.999 17.998c-96.667 0 -169.334 -35 -218.001 -105c-43.333 -61.333 -65 -141.666 -65 -240.999s21.667 -179.666 65 -240.999c49.333 -69.333 122 -104 218 -104c40 0 76 6 108 18v655z
M370 23.998c-66.667 0 -121.667 17.332 -165 51.999c-40.667 60.667 -61 138.334 -61 233.001c0 97.333 21 176 63 236c48 68.667 119 103 213 103c8 0 16 -0.333008 24 -1s16 -1.66699 24 -3v-605c-32 -10 -64.667 -15 -98 -15zM512 358.997v-310
c94.667 56.667 142 160 142 310h-142zM512 390.997h141c-4.66699 76 -22 139 -52 189l-1 1v1c-22.667 36.667 -52 66 -88 88v-279zM580 593.997c34.667 -45.333 55 -109.667 61 -193h-72v206c0 -0.666992 0.666992 -1 2 -1zM569 109.996v192h72c-10 -90 -34 -154 -72 -192z
M602 579.996l-1 -0.000976562c-0.666992 0.666992 -1 1.33398 -1 2.00098z" />
    <glyph glyph-name="quoteleft" horiz-adv-x="237" 
d="M124 449h48l1 2c8 0.666992 15.5 3 22.5 7s13.333 9.16699 19 15.5s10.167 13.333 13.5 21s5 15.5 5 23.5c0 15.333 -3.33301 26.333 -10 33l-19 19l28 114l-48 47l2 6l-55 1l-61 -242h7zM118 506l-34.999 0.000976562l56 222l34 -1l-30 -123c22 0 33 -12 33 -36
c0 -14.667 -5.83301 -28.334 -17.5 -41.001s-24.834 -19 -39.501 -19z" />
    <glyph glyph-name="quoteleft" unicode="&#x2018;" horiz-adv-x="237" 
d="M124 449h48l1 2c8 0.666992 15.5 3 22.5 7s13.333 9.16699 19 15.5s10.167 13.333 13.5 21s5 15.5 5 23.5c0 15.333 -3.33301 26.333 -10 33l-19 19l28 114l-48 47l2 6l-55 1l-61 -242h7zM118 506l-34.999 0.000976562l56 222l34 -1l-30 -123c22 0 33 -12 33 -36
c0 -14.667 -5.83301 -28.334 -17.5 -41.001s-24.834 -19 -39.501 -19z" />
    <glyph glyph-name="quoteright" horiz-adv-x="237" 
d="M73 666c0 -21.333 7 -35.333 21 -42l8 -9l-29 -119h7l47 -47h50l58 235l-48 47l2 6l-54 1l-2 -5c-15.333 -5.33301 -29 -13.333 -41 -24c-12.667 -12.667 -19 -27 -19 -43zM142 728l34 -1l-55 -221h-35l31 123c-22.667 0 -34 12.333 -34 37c0 14.667 6 28.167 18 40.5
s25.333 18.5 40 18.5z" />
    <glyph glyph-name="quoteright" unicode="&#x2019;" horiz-adv-x="237" 
d="M73 666c0 -21.333 7 -35.333 21 -42l8 -9l-29 -119h7l47 -47h50l58 235l-48 47l2 6l-54 1l-2 -5c-15.333 -5.33301 -29 -13.333 -41 -24c-12.667 -12.667 -19 -27 -19 -43zM142 728l34 -1l-55 -221h-35l31 123c-22.667 0 -34 12.333 -34 37c0 14.667 6 28.167 18 40.5
s25.333 18.5 40 18.5z" />
    <glyph glyph-name="quotedblleft" horiz-adv-x="354" 
d="M223 551l-19 19l28 114l-48 47l2 6l-55 1l-61 -242h7l47 -47h48l1 2c24 2.66699 42 16.667 54 42l44 -44h47l1 2c16 1.33301 30 8.83301 42 22.5s18 28.5 18 44.5c0 14.667 -3.66699 25.667 -11 33l-18 18l29 115l-48 47l2 6l-55 1l-50 -196l-2 4
c-0.666992 1.33301 -1.66699 3 -3 5zM118 506l-34.999 0.000976562l56 222l34 -1l-30 -123c22 0 33 -12 33 -36c0 -14.667 -5.83301 -28.334 -17.5 -41.001s-24.834 -19 -39.501 -19zM265.001 508.001l-1 -1.99902h-34l56 222l34 -1l-31 -123h1c21.333 0 32 -12 32 -36
c0 -14.667 -5.66699 -28.334 -17 -41.001s-24.333 -19 -39 -19h-1z" />
    <glyph glyph-name="quotedblleft" unicode="&#x201c;" horiz-adv-x="354" 
d="M223 551l-19 19l28 114l-48 47l2 6l-55 1l-61 -242h7l47 -47h48l1 2c24 2.66699 42 16.667 54 42l44 -44h47l1 2c16 1.33301 30 8.83301 42 22.5s18 28.5 18 44.5c0 14.667 -3.66699 25.667 -11 33l-18 18l29 115l-48 47l2 6l-55 1l-50 -196l-2 4
c-0.666992 1.33301 -1.66699 3 -3 5zM118 506l-34.999 0.000976562l56 222l34 -1l-30 -123c22 0 33 -12 33 -36c0 -14.667 -5.83301 -28.334 -17.5 -41.001s-24.834 -19 -39.501 -19zM265.001 508.001l-1 -1.99902h-34l56 222l34 -1l-31 -123h1c21.333 0 32 -12 32 -36
c0 -14.667 -5.66699 -28.334 -17 -41.001s-24.333 -19 -39 -19h-1z" />
    <glyph glyph-name="quotedblright" horiz-adv-x="354" 
d="M73 666c0 -21.333 6.99902 -35.333 20.999 -42l8 -9l-29 -119h7l47 -47h50l47 191c4 -8.66699 10.333 -15 19 -19l6 -5l-29 -120h7l47 -47h49l58 235l-48 47l2 6l-57 1v-4c-23.333 -4 -40.666 -18 -51.999 -42l-39 39l2 6l-54 1l-2 -5
c-15.333 -5.33301 -29 -13.333 -41 -24c-12.667 -12.667 -19 -27 -19 -43zM141.999 728l34 -1l-55 -221h-35l31 123c-22.667 0 -34 12.333 -34 37c0 14.667 6 28.167 18 40.5s25.333 18.5 40 18.5zM287.999 725l-0.000976562 3l34 -1l-55 -221h-34l31 123h-1
c-22 0 -33 12.333 -33 37c0 14.667 5.83301 28.167 17.5 40.5s24.834 18.5 39.501 18.5h1z" />
    <glyph glyph-name="quotedblright" unicode="&#x201d;" horiz-adv-x="354" 
d="M73 666c0 -21.333 6.99902 -35.333 20.999 -42l8 -9l-29 -119h7l47 -47h50l47 191c4 -8.66699 10.333 -15 19 -19l6 -5l-29 -120h7l47 -47h49l58 235l-48 47l2 6l-57 1v-4c-23.333 -4 -40.666 -18 -51.999 -42l-39 39l2 6l-54 1l-2 -5
c-15.333 -5.33301 -29 -13.333 -41 -24c-12.667 -12.667 -19 -27 -19 -43zM141.999 728l34 -1l-55 -221h-35l31 123c-22.667 0 -34 12.333 -34 37c0 14.667 6 28.167 18 40.5s25.333 18.5 40 18.5zM287.999 725l-0.000976562 3l34 -1l-55 -221h-34l31 123h-1
c-22 0 -33 12.333 -33 37c0 14.667 5.83301 28.167 17.5 40.5s24.834 18.5 39.501 18.5h1z" />
    <glyph glyph-name="bullet" horiz-adv-x="590" 
d="M235 213c28.667 -28.667 64.999 -42.999 108.999 -42.999c43.333 0 79.333 14.333 108 43c29.333 29.333 44 65.666 44 108.999s-14.333 79.333 -43 108l-29 29l-19 23c-29.333 29.333 -66 44 -110 44c-45.333 0 -82.666 -14.667 -111.999 -44
c-28.667 -28.667 -43 -65.334 -43 -110.001c0 -53.333 21.667 -96.666 65 -129.999zM438.999 372.001c0 -41.333 -14 -76.002 -42 -104.002c-27.333 -27.333 -61.666 -41 -102.999 -41c-21.333 0 -40.833 3.5 -58.5 10.5s-32.834 17 -45.501 30s-22.5 28.333 -29.5 46
s-10.5 37.167 -10.5 58.5s3.66699 40.833 11 58.5s17.333 32.834 30 45.501s27.834 22.5 45.501 29.5s37.167 10.5 58.5 10.5c41.333 0 75.666 -13.667 102.999 -41s41 -61.666 41 -102.999zM326.999 371.999c0 22 -11 33 -33 33s-33 -11 -33 -33c0 -21.333 11 -32 33 -32
s33 10.667 33 32z" />
    <glyph glyph-name="bullet" unicode="&#x2022;" horiz-adv-x="590" 
d="M235 213c28.667 -28.667 64.999 -42.999 108.999 -42.999c43.333 0 79.333 14.333 108 43c29.333 29.333 44 65.666 44 108.999s-14.333 79.333 -43 108l-29 29l-19 23c-29.333 29.333 -66 44 -110 44c-45.333 0 -82.666 -14.667 -111.999 -44
c-28.667 -28.667 -43 -65.334 -43 -110.001c0 -53.333 21.667 -96.666 65 -129.999zM438.999 372.001c0 -41.333 -14 -76.002 -42 -104.002c-27.333 -27.333 -61.666 -41 -102.999 -41c-21.333 0 -40.833 3.5 -58.5 10.5s-32.834 17 -45.501 30s-22.5 28.333 -29.5 46
s-10.5 37.167 -10.5 58.5s3.66699 40.833 11 58.5s17.333 32.834 30 45.501s27.834 22.5 45.501 29.5s37.167 10.5 58.5 10.5c41.333 0 75.666 -13.667 102.999 -41s41 -61.666 41 -102.999zM326.999 371.999c0 22 -11 33 -33 33s-33 -11 -33 -33c0 -21.333 11 -32 33 -32
s33 10.667 33 32z" />
    <glyph glyph-name="endash" horiz-adv-x="500" 
d="M-9 238h6l46 -47h514v35l-47 47v6h-519v-41zM0 269h500v-21h-500v21z" />
    <glyph glyph-name="endash" unicode="&#x2013;" horiz-adv-x="500" 
d="M-9 238h6l46 -47h514v35l-47 47v6h-519v-41zM0 269h500v-21h-500v21z" />
    <glyph glyph-name="emdash" horiz-adv-x="1000" 
d="M-9 279v-41h6l46 -47h1014v35l-47 47v6h-1019zM1000 269v-21h-1000v21h1000z" />
    <glyph glyph-name="emdash" unicode="&#x2014;" horiz-adv-x="1000" 
d="M-9 279v-41h6l46 -47h1014v35l-47 47v6h-1019zM1000 269v-21h-1000v21h1000z" />
    <glyph glyph-name="tilde" horiz-adv-x="500" 
d="M358 724c-0.666992 -0.666992 -1.66797 -3.00391 -3.00098 -7.00391l-4 -10c-1.33301 -2 -2.66602 -5.66699 -3.99902 -11c-3.33301 -7.33301 -7.33301 -16.666 -12 -27.999v1c-8.66699 -14.667 -19 -22 -31 -22c-8 0 -23.667 10.667 -47 32c-28 26 -48.333 39 -61 39
c-26.667 0 -54.667 -28.667 -84 -86l31 -31c0 1.33301 0.333008 2.33301 1 3l48 -48c22.667 42 40.667 63.333 54 64h1c6.66699 0 19.334 -9.33301 38.001 -28l5 -5c25.333 -26 46.666 -38.333 63.999 -37c20 0.666992 36 8.66699 48 24l1 1c4 6.66699 9 15.667 15 27
c0.666992 1.33301 1.5 2.83301 2.5 4.5s2.16699 3.83398 3.5 6.50098l2 2c1.33301 2.66699 2.83301 5.33398 4.5 8.00098s3.16699 5.33398 4.5 8.00098l-26 37l-39 39zM375.999 680.996l-14 -25l-15 -27c-10.667 -14 -25 -21.333 -43 -22c-10.667 0 -30.667 11.667 -60 35
c-28 24 -44 35.667 -48 35c-17.333 -1.33301 -36 -21 -56 -59l-16 16c25.333 49.333 49.333 74 72 74c9.33301 0 27 -12 53 -36c26.667 -23.333 45 -35 55 -35c16.667 0 30 9 40 27l8 19.5c2.66699 6.33301 5.66699 12.5 9 18.5z" />
    <glyph glyph-name="tilde" unicode="&#x2dc;" horiz-adv-x="500" 
d="M358 724c-0.666992 -0.666992 -1.66797 -3.00391 -3.00098 -7.00391l-4 -10c-1.33301 -2 -2.66602 -5.66699 -3.99902 -11c-3.33301 -7.33301 -7.33301 -16.666 -12 -27.999v1c-8.66699 -14.667 -19 -22 -31 -22c-8 0 -23.667 10.667 -47 32c-28 26 -48.333 39 -61 39
c-26.667 0 -54.667 -28.667 -84 -86l31 -31c0 1.33301 0.333008 2.33301 1 3l48 -48c22.667 42 40.667 63.333 54 64h1c6.66699 0 19.334 -9.33301 38.001 -28l5 -5c25.333 -26 46.666 -38.333 63.999 -37c20 0.666992 36 8.66699 48 24l1 1c4 6.66699 9 15.667 15 27
c0.666992 1.33301 1.5 2.83301 2.5 4.5s2.16699 3.83398 3.5 6.50098l2 2c1.33301 2.66699 2.83301 5.33398 4.5 8.00098s3.16699 5.33398 4.5 8.00098l-26 37l-39 39zM375.999 680.996l-14 -25l-15 -27c-10.667 -14 -25 -21.333 -43 -22c-10.667 0 -30.667 11.667 -60 35
c-28 24 -44 35.667 -48 35c-17.333 -1.33301 -36 -21 -56 -59l-16 16c25.333 49.333 49.333 74 72 74c9.33301 0 27 -12 53 -36c26.667 -23.333 45 -35 55 -35c16.667 0 30 9 40 27l8 19.5c2.66699 6.33301 5.66699 12.5 9 18.5z" />
    <glyph glyph-name="trademark" horiz-adv-x="833" 
d="M394 719v-51l-45 45v6h-220v-40h6l47 -47h34v-190h6l47 -47h42v237h83v-190h6l47 -47h38v200l43 -59l4 1l47 -47l14 4l33 47v-99h6l47 -47h37v271l-47 47v6h-58l-72 -109l-38 56l-40 39l-9 14h-58zM447 709l88 -125l82 125h42v-257h-23v239l-97 -141l-7 -2l-104 143v-239
h-24v257h43zM339 709v-20h-85v-237h-28v237h-87v20h200z" />
    <glyph glyph-name="trademark" unicode="&#x2122;" horiz-adv-x="833" 
d="M394 719v-51l-45 45v6h-220v-40h6l47 -47h34v-190h6l47 -47h42v237h83v-190h6l47 -47h38v200l43 -59l4 1l47 -47l14 4l33 47v-99h6l47 -47h37v271l-47 47v6h-58l-72 -109l-38 56l-40 39l-9 14h-58zM447 709l88 -125l82 125h42v-257h-23v239l-97 -141l-7 -2l-104 143v-239
h-24v257h43zM339 709v-20h-85v-237h-28v237h-87v20h200z" />
    <glyph glyph-name="scaron" horiz-adv-x="481" 
d="M490 83c0 37.333 -10.999 66.667 -32.999 88l-33 32c-11.333 16.667 -24 29.667 -38 39v-1c-14 10 -32.667 19 -56 27c-6 2 -14 4.5 -24 7.5l-35 10.5c-4 1.33301 -6.66699 2 -8 2h-1c-45.333 10.667 -80.333 23.667 -105 39c-2 6 -3 12.667 -3 20c0 32.667 15 58 45 76
c24.667 14.667 54.334 22 89.001 22c28.667 0 52 -4.33301 70 -13c8.66699 -15.333 15 -35.666 19 -60.999h6l47 -47h45c-5.33301 48 -21.666 85.667 -48.999 113l-29 29c-4 6 -8.66699 11.667 -14 17l-16 16c-6.66699 4.66699 -13.334 9 -20.001 13s-13.667 7.66699 -21 11
h13l107 173l-47 47l3 5l-59 7l-76 -119l-38 60l-39 38l-9 15l-63 1l113 -180h5l31 -31c-4 0.666992 -8.33301 1 -13 1h-12c-52 0 -94.667 -11.333 -128 -34c-40 -27.333 -60 -65 -60 -113c0 -42 17 -76 51 -102v1l35 -34c6.66699 -6.66699 10.667 -10.334 12 -11.001v1
c25.333 -20.667 80.666 -42 165.999 -64l24 -6c0.666992 -0.666992 1.66699 -1 3 -1c24 -9.33301 37 -14.333 39 -15c4 -9.33301 6 -18.666 6 -27.999c0 -36.667 -15.333 -64.334 -46 -83.001c-26.667 -16.667 -59 -25 -97 -25c-38.667 0 -69.334 7.33301 -92.001 22
c-4.66699 9.33301 -8.33398 18.666 -11.001 27.999s-4.66699 19 -6 29l-46 46c-0.666992 0.666992 -1 2.33398 -1 5.00098l-9 8h-43c4.66699 -64.667 27 -112.667 67 -144c1.33301 -1.33301 2.83301 -2.66602 4.5 -3.99902l6.5 -5l29 -27
c6.66699 -6.66699 10.667 -10.334 12 -11.001c36 -28 82.667 -42 140 -42c52.667 0 96.334 12.333 131.001 37c40.667 26.667 61 65 61 115zM433.001 133.001c0 -46.667 -19.667 -83.668 -59 -111.001c-34.667 -22.667 -76.667 -34 -126 -34
c-57.333 0 -102.666 13.333 -135.999 40c-36 28.667 -56.667 70.667 -62 126h31c16.667 -92 72 -138 166 -138c42 0 76.667 9 104 27c32.667 20.667 49 51 49 91c0 32 -14.667 57 -44 75c-18.667 11.333 -47.334 22 -86.001 32c-84 20.667 -138.667 41.334 -164 62.001
c-28 22 -42 52 -42 90c0 45.333 19.333 80.333 58 105c33.333 21.333 73.333 32 120 32c12.667 0 25 -1 37 -3l4 -4h15c33.333 -8.66699 60.333 -25 81 -49s33.334 -55 38.001 -93h-31c-10.667 80.667 -60 121 -148 121c-36.667 0 -68.334 -8 -95.001 -24
c-30.667 -18.667 -46 -45.667 -46 -81c0 -52 53 -91.333 159 -118c0.666992 -0.666992 4 -1.66699 10 -3c54.667 -14 92.667 -28.333 114 -43c35.333 -24 53 -57.333 53 -100zM384.001 740l-99 -160h-48l-100 160l38 -1l86 -131l88 136z" />
    <glyph glyph-name="scaron" unicode="&#x161;" horiz-adv-x="481" 
d="M490 83c0 37.333 -10.999 66.667 -32.999 88l-33 32c-11.333 16.667 -24 29.667 -38 39v-1c-14 10 -32.667 19 -56 27c-6 2 -14 4.5 -24 7.5l-35 10.5c-4 1.33301 -6.66699 2 -8 2h-1c-45.333 10.667 -80.333 23.667 -105 39c-2 6 -3 12.667 -3 20c0 32.667 15 58 45 76
c24.667 14.667 54.334 22 89.001 22c28.667 0 52 -4.33301 70 -13c8.66699 -15.333 15 -35.666 19 -60.999h6l47 -47h45c-5.33301 48 -21.666 85.667 -48.999 113l-29 29c-4 6 -8.66699 11.667 -14 17l-16 16c-6.66699 4.66699 -13.334 9 -20.001 13s-13.667 7.66699 -21 11
h13l107 173l-47 47l3 5l-59 7l-76 -119l-38 60l-39 38l-9 15l-63 1l113 -180h5l31 -31c-4 0.666992 -8.33301 1 -13 1h-12c-52 0 -94.667 -11.333 -128 -34c-40 -27.333 -60 -65 -60 -113c0 -42 17 -76 51 -102v1l35 -34c6.66699 -6.66699 10.667 -10.334 12 -11.001v1
c25.333 -20.667 80.666 -42 165.999 -64l24 -6c0.666992 -0.666992 1.66699 -1 3 -1c24 -9.33301 37 -14.333 39 -15c4 -9.33301 6 -18.666 6 -27.999c0 -36.667 -15.333 -64.334 -46 -83.001c-26.667 -16.667 -59 -25 -97 -25c-38.667 0 -69.334 7.33301 -92.001 22
c-4.66699 9.33301 -8.33398 18.666 -11.001 27.999s-4.66699 19 -6 29l-46 46c-0.666992 0.666992 -1 2.33398 -1 5.00098l-9 8h-43c4.66699 -64.667 27 -112.667 67 -144c1.33301 -1.33301 2.83301 -2.66602 4.5 -3.99902l6.5 -5l29 -27
c6.66699 -6.66699 10.667 -10.334 12 -11.001c36 -28 82.667 -42 140 -42c52.667 0 96.334 12.333 131.001 37c40.667 26.667 61 65 61 115zM433.001 133.001c0 -46.667 -19.667 -83.668 -59 -111.001c-34.667 -22.667 -76.667 -34 -126 -34
c-57.333 0 -102.666 13.333 -135.999 40c-36 28.667 -56.667 70.667 -62 126h31c16.667 -92 72 -138 166 -138c42 0 76.667 9 104 27c32.667 20.667 49 51 49 91c0 32 -14.667 57 -44 75c-18.667 11.333 -47.334 22 -86.001 32c-84 20.667 -138.667 41.334 -164 62.001
c-28 22 -42 52 -42 90c0 45.333 19.333 80.333 58 105c33.333 21.333 73.333 32 120 32c12.667 0 25 -1 37 -3l4 -4h15c33.333 -8.66699 60.333 -25 81 -49s33.334 -55 38.001 -93h-31c-10.667 80.667 -60 121 -148 121c-36.667 0 -68.334 -8 -95.001 -24
c-30.667 -18.667 -46 -45.667 -46 -81c0 -52 53 -91.333 159 -118c0.666992 -0.666992 4 -1.66699 10 -3c54.667 -14 92.667 -28.333 114 -43c35.333 -24 53 -57.333 53 -100zM384.001 740l-99 -160h-48l-100 160l38 -1l86 -131l88 136z" />
    <glyph glyph-name="guilsinglright" horiz-adv-x="248" 
d="M42 120l19 -16l35 -34l35 -27l132 163l-132 163l-28 28l-21 26l-43 -29l110 -138zM162 256l-109 135l27 19l125 -154l-125 -154l-24 19z" />
    <glyph glyph-name="guilsinglright" unicode="&#x203a;" horiz-adv-x="248" 
d="M42 120l19 -16l35 -34l35 -27l132 163l-132 163l-28 28l-21 26l-43 -29l110 -138zM162 256l-109 135l27 19l125 -154l-125 -154l-24 19z" />
    <glyph glyph-name="oe" horiz-adv-x="825" 
d="M790 122l-45.001 23.999c-29.333 -81.333 -84 -122 -164 -122c-24 0 -45.333 4 -64 12c26 44 39.667 98.333 41 163h297v26c0 91.333 -23 159 -69 203l-25 24l-6 9c-34.667 52.667 -92.667 79 -174 79c-61.333 0 -112.333 -19 -153 -57c-42 38 -94 57 -156 57
c-79.333 0 -140 -28.667 -182 -86c-37.333 -51.333 -56 -116.666 -56 -195.999c0 -80 18.667 -145.667 56 -197c13.333 -18 28.333 -32.667 45 -44l26 -25c40.667 -40.667 94.334 -61 161.001 -61c63.333 0 115.666 19 156.999 57c38.667 -38 89.334 -57 152.001 -57
c52.667 0 98.667 15 138 45v1c30.667 24 53 55.333 67 94l-48 47zM580.999 -12.001c-63.333 0 -114.002 19.6689 -152.002 59.002c-39.333 -39.333 -91.666 -59 -156.999 -59c-76.667 0 -135 26.667 -175 80c-35.333 47.333 -53 110.666 -53 189.999
c0 77.333 18 140.666 54 189.999c40 54.667 98 82 174 82c66 0 118.333 -20.333 157 -61c38 40.667 88.667 61 152 61c71.333 0 126.666 -25 165.999 -75c34 -44 51 -104 51 -180v-19h-297c0 -74.667 -17 -136 -51 -184c32.667 -38.667 76.334 -58 131.001 -58
c84.667 0 141.334 39.333 170.001 118l26 -14c-15.333 -42 -40.333 -74.167 -75 -96.5s-75 -33.5 -121 -33.5zM409.997 71.001c-33.333 49.333 -50 111.666 -50 186.999c0 76.667 16.667 138.667 50 186c-34 38.667 -80 58 -138 58c-66.667 0 -117 -25 -151 -75
c-30 -43.333 -45 -99.666 -45 -168.999c0 -70 15 -126.333 45 -169c34 -50 84.333 -75 151 -75c58 0 104 19 138 57zM271.997 24.001c-40.667 0 -75.001 9.99902 -103.001 29.999c-24 40.667 -36 92 -36 154c0 68 14.333 122.667 43 164c32.667 48.667 81.334 73 146.001 73
c24.667 0 47.667 -4 69 -12c-27.333 -49.333 -41 -107.666 -41 -174.999c0 -72.667 15.667 -134.667 47 -186c-34 -32 -75.667 -48 -125 -48zM763.996 285c0 60.667 -14.332 110.668 -42.999 150.001c-32 44.667 -77 67 -135 67c-56.667 0 -101.667 -19.667 -135 -59
c29.333 -42.667 45.666 -95.334 48.999 -158.001h264zM509.997 392.001c31.333 35.333 73.334 53 126.001 53c29.333 0 55.666 -6.66699 78.999 -20c23.333 -34 36.333 -77.333 39 -130h-205c-6.66699 32.667 -19.667 65 -39 97zM393.998 256.001v-7.99805
c0 -58.667 12.333 -108.334 37 -149.001c25.333 43.333 38 95.666 38 156.999h-75zM467.998 285.003c-3.33301 50.667 -15.667 94.333 -37 131c-21.333 -35.333 -33.333 -79 -36 -131h73zM450.997 199.002h3c-1.33301 -4.66699 -2.33301 -10 -3 -16v16z" />
    <glyph glyph-name="oe" unicode="&#x153;" horiz-adv-x="825" 
d="M790 122l-45.001 23.999c-29.333 -81.333 -84 -122 -164 -122c-24 0 -45.333 4 -64 12c26 44 39.667 98.333 41 163h297v26c0 91.333 -23 159 -69 203l-25 24l-6 9c-34.667 52.667 -92.667 79 -174 79c-61.333 0 -112.333 -19 -153 -57c-42 38 -94 57 -156 57
c-79.333 0 -140 -28.667 -182 -86c-37.333 -51.333 -56 -116.666 -56 -195.999c0 -80 18.667 -145.667 56 -197c13.333 -18 28.333 -32.667 45 -44l26 -25c40.667 -40.667 94.334 -61 161.001 -61c63.333 0 115.666 19 156.999 57c38.667 -38 89.334 -57 152.001 -57
c52.667 0 98.667 15 138 45v1c30.667 24 53 55.333 67 94l-48 47zM580.999 -12.001c-63.333 0 -114.002 19.6689 -152.002 59.002c-39.333 -39.333 -91.666 -59 -156.999 -59c-76.667 0 -135 26.667 -175 80c-35.333 47.333 -53 110.666 -53 189.999
c0 77.333 18 140.666 54 189.999c40 54.667 98 82 174 82c66 0 118.333 -20.333 157 -61c38 40.667 88.667 61 152 61c71.333 0 126.666 -25 165.999 -75c34 -44 51 -104 51 -180v-19h-297c0 -74.667 -17 -136 -51 -184c32.667 -38.667 76.334 -58 131.001 -58
c84.667 0 141.334 39.333 170.001 118l26 -14c-15.333 -42 -40.333 -74.167 -75 -96.5s-75 -33.5 -121 -33.5zM409.997 71.001c-33.333 49.333 -50 111.666 -50 186.999c0 76.667 16.667 138.667 50 186c-34 38.667 -80 58 -138 58c-66.667 0 -117 -25 -151 -75
c-30 -43.333 -45 -99.666 -45 -168.999c0 -70 15 -126.333 45 -169c34 -50 84.333 -75 151 -75c58 0 104 19 138 57zM271.997 24.001c-40.667 0 -75.001 9.99902 -103.001 29.999c-24 40.667 -36 92 -36 154c0 68 14.333 122.667 43 164c32.667 48.667 81.334 73 146.001 73
c24.667 0 47.667 -4 69 -12c-27.333 -49.333 -41 -107.666 -41 -174.999c0 -72.667 15.667 -134.667 47 -186c-34 -32 -75.667 -48 -125 -48zM763.996 285c0 60.667 -14.332 110.668 -42.999 150.001c-32 44.667 -77 67 -135 67c-56.667 0 -101.667 -19.667 -135 -59
c29.333 -42.667 45.666 -95.334 48.999 -158.001h264zM509.997 392.001c31.333 35.333 73.334 53 126.001 53c29.333 0 55.666 -6.66699 78.999 -20c23.333 -34 36.333 -77.333 39 -130h-205c-6.66699 32.667 -19.667 65 -39 97zM393.998 256.001v-7.99805
c0 -58.667 12.333 -108.334 37 -149.001c25.333 43.333 38 95.666 38 156.999h-75zM467.998 285.003c-3.33301 50.667 -15.667 94.333 -37 131c-21.333 -35.333 -33.333 -79 -36 -131h73zM450.997 199.002h3c-1.33301 -4.66699 -2.33301 -10 -3 -16v16z" />
    <glyph glyph-name="Ydieresis" horiz-adv-x="530" 
d="M238 -9h6l47 -47h47v319l253 413l-48 47l4 6h-63l-211 -345l-180 292l-40 40l-8 13h-62l255 -417v-321zM248 318l-247 401h38l227 -367l224 367h38l-247 -403v-316h-33v318zM157 866c0 -33.333 7.33301 -52.333 22 -57l43 -42c4 -4 9.33301 -6 16 -6
c19.333 0 29 18.333 29 55c0 24 -4 40 -12 48l-41 41c-5.33301 12 -14 18 -26 18c-20.667 0 -31 -19 -31 -57zM311 868c0 -34 7.66602 -53 22.999 -57l42 -41c4.66699 -4.66699 10.334 -7 17.001 -7c19.333 0 29 18.333 29 55c0 23.333 -4 39 -12 47l-40 40
c-4.66699 12.667 -13.667 19 -27 19c-21.333 0 -32 -18.667 -32 -56zM320.999 868c0 30.667 7.33301 46 22 46s22 -15.333 22 -46c0 -32 -7.33301 -48 -22 -48s-22 16 -22 48zM166.999 866c0 31.333 7 47 21 47c14.667 0 22 -15.667 22 -47c0 -32 -7.33301 -48 -22 -48
c-14 0 -21 16 -21 48z" />
    <glyph glyph-name="Ydieresis" unicode="&#x178;" horiz-adv-x="530" 
d="M238 -9h6l47 -47h47v319l253 413l-48 47l4 6h-63l-211 -345l-180 292l-40 40l-8 13h-62l255 -417v-321zM248 318l-247 401h38l227 -367l224 367h38l-247 -403v-316h-33v318zM157 866c0 -33.333 7.33301 -52.333 22 -57l43 -42c4 -4 9.33301 -6 16 -6
c19.333 0 29 18.333 29 55c0 24 -4 40 -12 48l-41 41c-5.33301 12 -14 18 -26 18c-20.667 0 -31 -19 -31 -57zM311 868c0 -34 7.66602 -53 22.999 -57l42 -41c4.66699 -4.66699 10.334 -7 17.001 -7c19.333 0 29 18.333 29 55c0 23.333 -4 39 -12 47l-40 40
c-4.66699 12.667 -13.667 19 -27 19c-21.333 0 -32 -18.667 -32 -56zM320.999 868c0 30.667 7.33301 46 22 46s22 -15.333 22 -46c0 -32 -7.33301 -48 -22 -48s-22 16 -22 48zM166.999 866c0 31.333 7 47 21 47c14.667 0 22 -15.667 22 -47c0 -32 -7.33301 -48 -22 -48
c-14 0 -21 16 -21 48z" />
    <glyph glyph-name="nonbreakingspace" unicode="&#xa0;" 
 />
    <glyph glyph-name="exclamdown" unicode="&#xa1;" horiz-adv-x="307" 
d="M173 426h-44l-9 -556h6l47 -47h56l-9 550l-47 47v6zM172 -120h-42l9 536h24zM119 553c0 -33.333 7.33301 -52.333 22 -57l43 -42c4 -4 9.33301 -6 16 -6c19.333 0 29 18.333 29 55c0 24 -4 40 -12 48l-1 1v-1l-1 1h1l-40 40c-5.33301 12 -14 18 -26 18
c-20.667 0 -31 -19 -31 -57zM129 553c0 31.333 7 47 21 47c14.667 0 22 -15.667 22 -47c0 -32 -7.33301 -48 -22 -48c-14 0 -21 16 -21 48z" />
    <glyph glyph-name="cent" unicode="&#xa2;" 
d="M282 169l0.00195312 -28.999l-23 23v6h-56v-133l-17 8.5c-6 3 -12 6.16699 -18 9.5c-23.333 39.333 -35 90.666 -35 153.999c0 73.333 17 131.666 51 174.999l9.5 11c3 3.33301 6.16699 6.33301 9.5 9v-47h6l47 -47h50v29l29 -29h50v125
c1.33301 -0.666992 3.5 -1.66699 6.5 -3s6.16699 -2.66602 9.5 -3.99902c13.333 -20 22.333 -43.333 27 -70h6l47 -47h46c-6.66699 52 -25.334 92.667 -56.001 122l-29 28c-3.33301 6 -8 12 -14 18l-16 16l-27 18v77l-47 47v6h-56v-29l-23 23v6h-56v-111
c-42.667 -12.667 -77.667 -35.334 -105 -68.001c-42.667 -50.667 -64 -119 -64 -205c0 -85.333 21.333 -153.333 64 -204c6.66699 -8 13.167 -15 19.5 -21s12.166 -11 17.499 -15l28 -26c14.667 -13.333 28 -23.666 40 -30.999v-62h6l47 -47h50v29l29 -29h50v86
c86 22.667 135 84.667 147 186l-48 47v3c0.666992 0.666992 1 1.66699 1 3h-50c-6 -44 -22.667 -80.667 -50 -110v49l-47 47v6h-56zM328.002 159.001l-0.00195312 -137c22 6.66699 42 18 60 34c31.333 27.333 50 64.333 56 111h30c-4.66699 -44 -19.667 -81.667 -45 -113
s-59 -51.333 -101 -60v-85h-36v80c-2 -0.666992 -5.66699 -1 -11 -1h-32v-79h-36v85c-56.667 10.667 -100 43.667 -130 99c-26 46.667 -39 101.667 -39 165c0 64 12.667 119.333 38 166c28.667 52.667 72.334 85.667 131.001 99v109h36v-103c2 0.666992 5.66699 1 11 1h22
c4.66699 0 8 -0.333008 10 -1v103h36v-108c82 -18.667 129 -71 141 -157h-32c-10.667 66.667 -47 109 -109 127v-128h-36v135c-2 0.666992 -5.33301 1 -10 1h-22c-5.33301 0 -9 -0.333008 -11 -1v-135h-36v128c-47.333 -14 -83 -45 -107 -93c-20 -40 -30 -87.667 -30 -143
c0 -84 22 -148.333 66 -193c20.667 -20.667 44.334 -35 71.001 -43v137h36v-144c2 -0.666992 5.66699 -1 11 -1h22c4.66699 0 8 0.333008 10 1v144h36z" />
    <glyph glyph-name="currency" unicode="&#xa4;" horiz-adv-x="606" 
d="M145 606l30.998 -33.002c-18 -30 -27 -60.667 -27 -92s8.66699 -61.666 26 -90.999l-27 -29l40 -42l2 2l48 -48l27 29c26.667 -18.667 56.334 -28 89.001 -28c34 0 63.333 9.33301 88 28l25 -24l36 39l-24 24c17.333 27.333 26 57.333 26 90
c0 34.667 -9.33301 65.334 -28 92.001l28 28l-48 48l2 2l-41 41l-26 -28c-29.333 19.333 -58.666 29 -87.999 29s-58.333 -10 -87 -30l-32 35zM214.998 600.998c27.333 21.333 57.002 32 89.002 32s61.667 -10.667 89 -32l25 27l27 -27l-27 -27c20 -28 30 -59 30 -93
s-9.66699 -64.667 -29 -92l24 -22l-26 -29l-24 24c-26.667 -20.667 -56.334 -31 -89.001 -31s-62.334 10.333 -89.001 31l-27 -29l-26 28l26 28c-19.333 29.333 -29 60 -29 92c0 34 10 65 30 93l-30 32l26 28zM411 496.998c-2.66699 25.333 -12.5 47 -29.5 65
s-37.833 28.667 -62.5 32v-97h92zM289 593.998c-24.667 -3.33301 -45.5 -14.167 -62.5 -32.5s-26.833 -39.833 -29.5 -64.5h92v97zM197 465.997c3.33301 -24.667 13.332 -46 29.999 -64s37.334 -28.667 62.001 -32v96h-92zM318.999 369.997c24 3.33301 44.5 14 61.5 32
s27.167 39.333 30.5 64h-92v-96zM254.999 408.997h24v-26c-16 4 -24 12.667 -24 26zM397.999 506.997h-22.001v28c4 -1.33301 7.66699 -2.33301 11 -3c2.66699 -3.33301 4.83398 -7 6.50098 -11s3.16699 -8.66699 4.5 -14z" />
    <glyph glyph-name="yen" unicode="&#xa5;" horiz-adv-x="530" 
d="M52 350v-51h6l47 -47h133v-75h-186v-51h6l47 -47h133v-88h6l47 -47h47v135h185v45l-47 47v6h-138v75h185v45l-47 47v6h-86l201 326l-48 47l4 6h-63l-211 -345l-180 292l-40 40l-8 13h-62l232 -379h-163zM234 340l-233 379h38l227 -367l224 367h38l-233 -379h171v-31h-185
v-142h185v-31h-185v-136h-33v136h-186v31h186v142h-186v31h172z" />
    <glyph glyph-name="brokenbar" unicode="&#xa6;" horiz-adv-x="500" 
d="M222 709v-390h6l47 -47h50v384l-47 47v6h-56zM222 209v-388h6l47 -47h50v382l-47 47v6h-56zM268 699v-370h-36v370h36zM268 199v-368h-36v368h36z" />
    <glyph glyph-name="section" unicode="&#xa7;" horiz-adv-x="500" 
d="M75 81c-1.33301 -6.66699 -1.99902 -11.6641 -1.99902 -14.9971v-16c0 -55.333 20.333 -98 61 -128l31 -31c29.333 -29.333 71.666 -44 126.999 -44c47.333 0 85.666 12.333 114.999 37c33.333 27.333 50 63.333 50 108c0 37.333 -13.333 69.333 -40 96l-25 25
c31.333 5.33301 57 20 77 44c21.333 25.333 32 52.666 32 81.999c0 38.667 -14.667 72 -44 100l-26 25c-22.667 34 -60.334 63.333 -113.001 88l-77 36c-18.667 8.66699 -34 16.667 -46 24c-3.33301 10 -5 21.333 -5 34c0 30.667 11.333 56 34 76h-1
c20.667 17.333 48 26 82 26c15.333 0 30.333 -2.66699 45 -8c10 -21.333 15 -48 15 -80h6l47 -47h45c0 62.667 -15 108.667 -45 138l-31 30c-26 42.667 -71.333 64 -136 64c-23.333 0 -44.666 -3.5 -63.999 -10.5s-36.166 -17 -50.499 -30s-25.5 -28.833 -33.5 -47.5
s-12 -39.334 -12 -62.001c0 -48.667 19.333 -86.334 58 -113.001c-69.333 -19.333 -104 -62 -104 -128c0 -52 23.667 -93.667 71 -125l23 -23c16.667 -17.333 38.667 -32.333 66 -45l131 -64l7 -3.5c2 -1 3.66699 -2.16699 5 -3.5c8 -14 12 -29 12 -45
c0 -31.333 -9.66699 -56 -29 -74v1c-25.333 -19.333 -56 -29 -92 -29c-24.667 0 -45 4 -61 12c-5.33301 14 -8 31.667 -8 53v20l-47 47v6h-48zM113.001 71.0029l-0.00195312 -13.002c0 -83.333 42 -125 126 -125c38.667 0 70.167 9.16699 94.5 27.5s36.5 46.5 36.5 84.5
c0 44.667 -27 80.667 -81 108l-131 64c-68.667 32.667 -103 78.334 -103 137.001c0 70.667 41 112 123 124c-51.333 25.333 -77 64.333 -77 117c0 42.667 14.667 77 44 103c26.667 24.667 62 37 106 37c103.333 0 155 -55 155 -165h-31c0 90 -40 135 -120 135
c-34.667 0 -63.667 -9.66699 -87 -29s-35 -46 -35 -80c0 -29.333 10.667 -54 32 -74c12.667 -12.667 36.667 -27 72 -43l77 -36c86.667 -40.667 130 -92 130 -154c0 -33.333 -12.667 -62 -38 -86c-25.333 -23.333 -54.666 -35 -87.999 -35h-9
c-1.33301 0 -2.5 -0.166992 -3.5 -0.5s-2.16699 -0.166016 -3.5 0.500977c30 -9.33301 53.833 -25.333 71.5 -48s26.5 -49 26.5 -79c0 -22 -4 -41.5 -12 -58.5s-19.167 -31.333 -33.5 -43s-31.166 -20.5 -50.499 -26.5s-40 -9 -62 -9c-50 0 -88.333 12 -115 36
c-29.333 25.333 -44 62 -44 110c0 12 0.333008 19 1 21h29zM272.999 193.001c94 2.66699 141 33 141 91c0 55.333 -35 98 -105 128l-104 45c-33.333 -3.33301 -60.333 -12.333 -81 -27c-25.333 -17.333 -38 -41.333 -38 -72c0 -49.333 26.667 -87 80 -113zM169.999 254.001
c-2.66699 1.33301 -5.49902 2.83594 -8.49902 4.50293l-11.5 6.5c-4.66699 11.333 -7 25.666 -7 42.999c0 27.333 12 49.666 36 66.999c21.333 14 46.333 22.333 75 25l102 -44c6.66699 -4 17.667 -10 33 -18c10 -16 15 -34 15 -54c0 -40 -27.333 -65.333 -82 -76
c-7.33301 -1.33301 -14.833 -2.33301 -22.5 -3s-15.834 -1.33398 -24.501 -2.00098z" />
    <glyph glyph-name="dieresis" unicode="&#xa8;" horiz-adv-x="500" 
d="M142 661c0 -33.333 7.33301 -52.333 22 -57l43 -42c4 -4 9.33301 -6 16 -6c19.333 0 29 18.333 29 55c0 24 -4 40 -12 48l-41 41c-5.33301 12 -14 18 -26 18c-20.667 0 -31 -19 -31 -57zM296 663c0 -34 7.66602 -53 22.999 -57l42 -41
c4.66699 -4.66699 10.334 -7 17.001 -7c19.333 0 29 18.333 29 55c0 23.333 -4 39 -12 47l-40 40c-4.66699 12.667 -13.667 19 -27 19c-21.333 0 -32 -18.667 -32 -56zM305.999 663c0 30.667 7.33301 46 22 46s22 -15.333 22 -46c0 -32 -7.33301 -48 -22 -48s-22 16 -22 48z
M151.999 661c0 31.333 7 47 21 47c14.667 0 22 -15.667 22 -47c0 -32 -7.33301 -48 -22 -48c-14 0 -21 16 -21 48z" />
    <glyph glyph-name="copyright" unicode="&#xa9;" horiz-adv-x="833" 
d="M652 481l-21.998 21.999c-3.33301 3.33301 -7.33301 7.83301 -12 13.5s-10.334 12.167 -17.001 19.5c-51.333 49.333 -113 74 -185 74c-70.667 0 -131.334 -25 -182.001 -75c-51.333 -50 -77 -111.333 -77 -184c0 -70.667 25 -132 75 -184c8.66699 -10 17.667 -18 27 -24
l25 -24c51.333 -49.333 112 -74 182 -74c72 0 132.667 24.667 182 74c50 48.667 75 109.334 75 182.001s-23.667 132.667 -71 180zM666.002 350.999c0 -70 -24.332 -129.001 -72.999 -177.001c-48 -48 -107 -72 -177 -72s-129.333 23.667 -178 71
c-47.333 48.667 -71 108 -71 178c0 69.333 24 128 72 176c48.667 48.667 107.667 73 177 73c71.333 0 130.666 -23.667 177.999 -71c48 -47.333 72 -106.666 72 -177.999zM198.003 350.998c0 -44.667 12.166 -85.1689 36.499 -121.502s57.5 -63.166 99.5 -80.499
c28 -11.333 55.333 -17 82 -17c60.667 0 112.334 21.333 155.001 64s64 94.334 64 155.001c0 62 -21 113.667 -63 155c-41.333 41.333 -93.333 62 -156 62c-60 0 -111.333 -21.333 -154 -64c-42.667 -42 -64 -93 -64 -153zM359.002 305.996c0 40.667 8 74 24 100
c18.667 32.667 47 49 85 49c12.667 0 24.667 -2 36 -6c2.66699 -4.66699 4.83398 -9.16699 6.50098 -13.5s3.16699 -8.5 4.5 -12.5l4 2l48 -47l42 23c-10 26 -22 46 -36 60l-30 30c-1.33301 2 -2.5 3.66699 -3.5 5s-2.16699 2.66602 -3.5 3.99902
c18.667 -6.66699 34.334 -14 47.001 -22c28 -36 42 -78.333 42 -127c0 -39.333 -10.333 -75.666 -31 -108.999l-30 31c0 2.66699 0.333008 4.33398 1 5.00098l-48 25c-12.667 -60.667 -46.334 -91 -101.001 -91c-16.667 0 -31.334 3 -44.001 9
c-8.66699 21.333 -13 49.666 -13 84.999zM418.002 171.996c-51.333 0 -89.668 18.666 -115.001 55.999c-22 32 -33 74.667 -33 128s11.333 96.333 34 129c26 38 64.667 57 116 57c66 0 109.333 -29.333 130 -88l-29 -16c-16 49.333 -50.333 74 -103 74
c-39.333 0 -69.666 -16.667 -90.999 -50c-16.667 -27.333 -25 -62.666 -25 -105.999s8 -78.333 24 -105c18.667 -32.667 48.667 -49 90 -49c58.667 0 94.667 28.667 108 86l29 -15c-7.33301 -28 -20.333 -50.333 -39 -67c-25.333 -22.667 -57.333 -34 -96 -34zM363 153.995
c0.666992 -0.666992 1.33203 -1.5 1.99902 -2.5s1.66699 -2.16699 3 -3.5c-28.667 7.33301 -56 20.666 -82 39.999c-20.667 32.667 -31 70.334 -31 113.001c0 18 1.66699 34.333 5 49c0.666992 -52 12.334 -94.667 35.001 -128c10 -16 22.333 -28.333 37 -37z" />
    <glyph glyph-name="ordfeminine" unicode="&#xaa;" horiz-adv-x="380" 
d="M130 337c28.667 -27.333 65.333 -41.002 110 -41.002c41.333 0 74.333 10.333 99 31l23 -22h40v369l-47 47v6h-46v-45c-28 34.667 -67.667 52 -119 52c-56.667 0 -99 -19.667 -127 -59c-25.333 -35.333 -38 -80.666 -38 -135.999s12.667 -100.666 38 -135.999
c12 -17.333 24 -29.333 36 -36zM189.999 352.998c-52 0 -91.668 18.668 -119.001 56.001c-24 32.667 -36 76 -36 130c0 53.333 12 96.666 36 129.999c26.667 36.667 66.334 55 119.001 55c61.333 0 104.333 -25.333 129 -76v69h26v-355h-26v65c-24 -49.333 -67 -74 -129 -74
zM189.998 377.999c44.667 0 77.999 16.333 99.999 49c19.333 28.667 29 66 29 112c0 45.333 -9.66699 82.333 -29 111c-23.333 33.333 -56.666 50 -99.999 50c-42.667 0 -75.667 -16.667 -99 -50c-19.333 -29.333 -29 -66.333 -29 -111c0 -45.333 9.66699 -82.333 29 -111
c22 -33.333 55 -50 99 -50zM189.997 387.999c-20.667 0 -39.001 4 -55.001 12c-10.667 23.333 -16 53 -16 89c0 44 9.33301 79.667 28 107c21.333 31.333 52.333 47 93 47c18.667 0 34.334 -3.33301 47.001 -10c14.667 -26.667 22 -58 22 -94c0 -44.667 -9 -80 -27 -106
c-21.333 -30 -52 -45 -92 -45z" />
    <glyph glyph-name="guillemotleft" unicode="&#xab;" horiz-adv-x="354" 
d="M339 391l2 3l-43 29l-51 -63l-30 31l2 3l-43 29l-135 -167l135 -167l3 2l48 -48l36 26l-109 137l24 31l120 -148l3 2l48 -48l36 26l-109 137l111 137zM218 256l107 -135l-25 -19l-125 154l125 154l27 -19zM96 256l107 -135l-25 -19l-125 154l125 154l27 -19z" />
    <glyph glyph-name="logicalnot" unicode="&#xac;" horiz-adv-x="703" 
d="M114 427v-51h6l47 -47h410v-84h6l47 -47h43v176l-47 47v6h-512zM616 417v-162h-29v131h-463v31h492z" />
    <glyph glyph-name="registered" unicode="&#xae;" horiz-adv-x="708" 
d="M284 119c51.333 -49.333 112.002 -74.001 182.002 -74.001c72 0 132.667 24.667 182 74c50 48.667 75 109.334 75 182.001s-23.667 132.667 -71 180l-22 22c-3.33301 3.33301 -7.33301 7.83301 -12 13.5s-10.334 12.167 -17.001 19.5c-49.333 49.333 -111 74 -185 74
c-70.667 0 -131.334 -25 -182.001 -75c-51.333 -50 -77 -111.333 -77 -184c0 -70.667 25 -132 75 -184c8.66699 -10 17.667 -18 27 -24zM666.002 350.999c0 -70 -24.332 -129.001 -72.999 -177.001c-48 -48 -107 -72 -177 -72s-129.333 23.667 -178 71
c-47.333 48.667 -71 108 -71 178c0 69.333 24 128 72 176c48.667 48.667 107.667 73 177 73c71.333 0 130.666 -23.667 177.999 -71c48 -47.333 72 -106.666 72 -177.999zM198.003 350.998c0 -22 3.33203 -43.334 9.99902 -64.001s16 -39.667 28 -57s26.333 -33 43 -47
s35 -25.333 55 -34c28 -11.333 55.333 -17 82 -17c22 0 43.333 3.16699 64 9.5s39.834 15.5 57.501 27.5s33.5 26.333 47.5 43s25.333 35 34 55c10.667 24 16 52 16 84c0 62 -21 113.667 -63 155c-41.333 41.333 -93.333 62 -156 62c-61.333 0 -113 -21 -155 -63
c-42 -41.333 -63 -92.666 -63 -153.999zM313.002 178.997v355.001h119c82 0 123 -32.333 123 -97c0 -39.333 -15.333 -67 -46 -83c18.667 -10.667 29.667 -30 33 -58v-117h-34v83c0 37.333 -7.66699 60.666 -23 69.999c-7.33301 4.66699 -23 7 -47 7h-93v-160h-32z
M523.002 435.998c0 36.667 -16.667 58 -50 64c-11.333 2 -25 3 -41 3h-87v-134h95c55.333 0 83 22.333 83 67zM402.002 281.998l94 -0.00195312c0.666992 -3.33301 1.16699 -6.66602 1.5 -9.99902s0.5 -6.66602 0.5 -9.99902v-93h6l5 -5
c-28.667 -14.667 -59.667 -22 -93 -22h-14v140zM255.002 300.996c0 54 16 98.999 48 134.999v-259c-0.666992 0 -5.66699 3.66699 -15 11c-22 34.667 -33 72.334 -33 113.001zM513.002 435.995c0 -38 -24.333 -57 -73 -57h-38v67h80c6.66699 0 12.5 -0.166992 17.5 -0.5
s9.5 -0.833008 13.5 -1.5v-8zM577.002 298.995l-5.00195 4.99707c26.667 16.667 40 44.334 40 83.001c0 30.667 -8.66699 54.667 -26 72l-32 31c-0.666992 0.666992 -1.16699 1.33398 -1.5 2.00098s-0.833008 1.33398 -1.5 2.00098c12.667 -4.66699 23.334 -10 32.001 -16
c28 -36 42 -78.333 42 -127c0 -38.667 -8.66699 -72.667 -26 -102c-3.33301 22 -10.666 38.667 -21.999 50z" />
    <glyph glyph-name="macron" unicode="&#xaf;" horiz-adv-x="500" 
d="M415 604v44l-47 47v6h-265v-50h6l47 -47h259zM358 661h-245v30h245v-30z" />
    <glyph glyph-name="macron" unicode="&#x2c9;" horiz-adv-x="500" 
d="M415 604v44l-47 47v6h-265v-50h6l47 -47h259zM358 661h-245v30h245v-30z" />
    <glyph glyph-name="degree" unicode="&#xb0;" horiz-adv-x="329" 
d="M165 717c-21.333 0 -40.6689 -3.66797 -58.002 -11.001s-32.166 -17.333 -44.499 -30s-22 -27.667 -29 -45s-10.5 -36 -10.5 -56c0 -54 21 -94 63 -120l29 -29c26 -26 59 -39 99 -39c20 0 38.5 3.5 55.5 10.5s31.667 16.5 44 28.5s22 26.5 29 43.5s10.5 35.5 10.5 55.5
c0 39.333 -13.333 72.333 -40 99l-29 29c-2 2.66699 -4.5 5.83398 -7.5 9.50098l-11.5 13.5c-27.333 27.333 -60.666 41 -99.999 41zM164.997 706.999c36.667 0 67.667 -12.6689 93 -38.002s38 -56.666 38 -93.999c0 -19.333 -3.33301 -37 -10 -53
s-15.834 -29.667 -27.501 -41s-25.667 -20.333 -42 -27s-33.833 -10 -52.5 -10c-19.333 0 -37 3.33301 -53 10s-29.833 15.667 -41.5 27s-20.667 25 -27 41s-9.5 33.667 -9.5 53c0 18.667 3.33301 36.167 10 52.5s15.834 30.333 27.501 42s25.5 20.834 41.5 27.501
s33.667 10 53 10zM164.997 681.997c-32 0 -57.833 -9.83301 -77.5 -29.5s-29.5 -45.5 -29.5 -77.5c0 -30.667 10.167 -56.167 30.5 -76.5s45.833 -30.5 76.5 -30.5s56 10.167 76 30.5s30 45.833 30 76.5c0 15.333 -2.66699 29.5 -8 42.5s-12.833 24.333 -22.5 34
s-21 17.167 -34 22.5s-26.833 8 -41.5 8zM114.997 524.997c0 30 9.16797 54.167 27.501 72.5s42.5 27.5 72.5 27.5c12 0 24 -2.33301 36 -7c6.66699 -12.667 10 -27 10 -43c0 -28 -9 -51.167 -27 -69.5s-41 -27.5 -69 -27.5c-16.667 0 -31.334 3.33301 -44.001 10
c-4 10.667 -6 23 -6 37z" />
    <glyph glyph-name="plusminus" unicode="&#xb1;" horiz-adv-x="614" 
d="M285 572v-174h-185v-51h6l47 -47h132v-127h6l47 -47h44v174h179v45l-47 47v6h-132v121l-47 47v6h-50zM100 75v-51h6l47 -46h408v44l-47 47v6h-414zM325 562v-174h179v-31h-179v-174h-30v174h-185v31h185v174h30zM504 65v-31h-394v31h394z" />
    <glyph glyph-name="twosuperior" unicode="&#xb2;" horiz-adv-x="344" 
d="M240 523l-232.999 -256h10l47 -47h285v31l-47 47v6h-114l134 149c18.667 20.667 28 48 28 82c0 36 -10.667 64.667 -32 86l-32 32c-22.667 36.667 -59.334 55 -110.001 55c-42 0 -74.5 -11.667 -97.5 -35s-34.5 -56 -34.5 -98v-15h6l47 -47h35v14
c0 63.333 31.333 95 94 95c10 0 20 -1.33301 30 -4c4 -11.333 6 -23 6 -35c0 -24.667 -7.33301 -44.667 -22 -60zM247.001 516c16.667 18.667 25 41 25 67c0 30 -8.5 53.5 -25.5 70.5s-40.5 25.5 -70.5 25.5c-67.333 0 -101 -34 -101 -102v-7h-21v5c0 38 10.833 68 32.5 90
s51.5 33 89.5 33c36 0 64.5 -9.83301 85.5 -29.5s31.5 -47.5 31.5 -83.5c0 -32 -8.66699 -57.667 -26 -77l-192 -214h217v-17h-262zM287.001 601l-1 1c0.666992 0 1 -0.333008 1 -1z" />
    <glyph glyph-name="threesuperior" unicode="&#xb3;" horiz-adv-x="344" 
d="M169 288c-23.333 0 -43.334 4 -60.001 12c-2 5.33301 -3.5 10.5 -4.5 15.5l-2.5 12.5l-47 46v4c-0.666992 1.33301 -1 2.66602 -1 3.99902l-40 -17c8 -40.667 26.667 -71 56 -91l34 -33c26.667 -26 65.334 -39 116.001 -39c44.667 0 82.667 11 114 33
c34 24.667 51 59.334 51 104.001c0 35.333 -12.667 65.666 -38 90.999l-29 28c34.667 14 52 45.333 52 94c0 28.667 -8.33301 51.334 -25 68.001l-33 33c-19.333 36 -63.333 54 -132 54c-77.333 0 -127 -30 -149 -90l10 -5l44 -43l35 -15c15.333 45.333 50.333 68 105 68
c12 0 29 -2 51 -6c0.666992 -3.33301 1.16699 -6.33301 1.5 -9s0.5 -4.66699 0.5 -6c0 -48 -36.667 -72 -110 -72h-41l8 -41h2c0.666992 0.666992 1.66699 1 3 1l48 -48c3.33301 0.666992 6.5 1.16699 9.5 1.5s5.16699 0.5 6.5 0.5h11c26 0 49 -5 69 -15c6 -12 9 -26 9 -42
c0 -31.333 -13.333 -56 -40 -74c-23.333 -16 -51.333 -24 -84 -24zM168.999 278c36 0 66.666 8.66797 91.999 26.001c28 20 42 47.333 42 82c0 38 -14 67 -42 87c-25.333 18 -57.333 27 -96 27h-11c-4.66699 0 -8 -0.333008 -10 -1l-4 20h16c88 0 132 27.333 132 82
c0 52 -37.667 78 -113 78c-58.667 0 -95.334 -22 -110.001 -66l-21 9c18.667 50 64 75 136 75c88.667 0 133 -31.667 133 -95c0 -58.667 -27.667 -90 -83 -94c14 -2.66699 27 -7.66699 39 -15s22.333 -16.333 31 -27s15.5 -22.667 20.5 -36s7.5 -27 7.5 -41
c0 -42.667 -16.333 -75.334 -49 -98.001c-29.333 -21.333 -65.666 -32 -108.999 -32c-82 0 -130 33.333 -144 100l21 9c10.667 -60 51.334 -90 122.001 -90z" />
    <glyph glyph-name="acute" unicode="&#xb4;" horiz-adv-x="500" 
d="M175 574h9l47 -47h71l110 174l-48 47l4 6h-78zM296 744h53l-101 -160h-54z" />
    <glyph glyph-name="paragraph" unicode="&#xb6;" horiz-adv-x="500" 
d="M156 386c11.333 -11.333 26.334 -21.666 45.001 -30.999c26 -12.667 60.333 -21.334 103 -26.001v-459h6l47 -47h44v42l42 -42h43v814h1v42l-47 47v6h-118c-70.667 0 -128.334 -12 -173.001 -36c-59.333 -31.333 -89 -78.333 -89 -141v-3c0 -61.333 22 -107 66 -137z
M429.001 694v-814.001h-29v814h-56v-814h-30v502c-36 1.33301 -67.333 4.33301 -94 9s-48.667 11.334 -66 20.001c-55.333 26.667 -83.333 73.667 -84 141c-0.666992 62 28 107.667 86 137c44 22 99.333 33 166 33h108v-28h-1z" />
    <glyph glyph-name="periodcentered" unicode="&#xb7;" horiz-adv-x="284" 
d="M98 372c0 -32 7.66699 -50.667 23 -56l42 -42c4 -4 9.66699 -6 17 -6c19.333 0 29 18 29 54c0 23.333 -4 39 -12 47l-40 40c-4.66699 12.667 -13.667 19 -27 19c-21.333 0 -32 -18.667 -32 -56zM108 372c0 30.667 7.33301 46 22 46s22 -15.333 22 -46
c0 -31.333 -7.33301 -47 -22 -47s-22 15.667 -22 47z" />
    <glyph glyph-name="cedilla" unicode="&#xb8;" horiz-adv-x="500" 
d="M223 -225h6.00098l47 -47h41c70.667 0 106 30 106 90c0 24 -6.66699 42.667 -20 56l-36 36c-10 19.333 -28 32 -54 38v10l-47 46v6h-45v-101h6l47 -47h54c-0.666992 -26.667 -20.334 -40 -59.001 -40h-46v-47zM233.001 -188h36c46 0 69 17 69 51
c0 37.333 -26.333 56 -79 56h-28v81h25v-57h12c65.333 0 98 -25 98 -75c0 -55.333 -33 -83 -99 -83h-34v27z" />
    <glyph glyph-name="onesuperior" unicode="&#xb9;" horiz-adv-x="344" 
d="M75 554l5 4l48 -48l40 35l1 -285h6l47 -47h40v432l-47 47v6h-41l-99 -90v-54zM85 604l94 84h26v-418h-26l-1 388l-93 -82v28z" />
    <glyph glyph-name="ordmasculine" unicode="&#xba;" horiz-adv-x="409" 
d="M23 537c0 -58 14.999 -105.333 44.999 -142c10.667 -13.333 22.334 -24.333 35.001 -33l28 -27c31.333 -30.667 72.333 -46 123 -46c56.667 0 101 19 133 57h1c30 36 45 83 45 141c0 60 -15 107 -45 141l-11 10c0 -0.666992 0.666992 -1 2 -1l-28 27l-8 11.5l-8 10.5v-2
c-33.333 35.333 -77 53 -131 53c-55.333 0 -99 -17.667 -131 -53v2c-33.333 -39.333 -50 -89 -50 -149zM32.999 537c0 57.333 14 102.666 42 135.999c30 36 73 54 129 54s98.667 -17.5 128 -52.5s44 -80.833 44 -137.5c0 -57.333 -14.333 -102.666 -43 -135.999
c-30.667 -36.667 -73.667 -55 -129 -55c-56 0 -99 18.333 -129 55c-28 34 -42 79.333 -42 136zM56.999 537c0 -49.333 11.668 -89.333 35.001 -120c26 -34 63.333 -51 112 -51c47.333 0 84.666 17 111.999 51c24 30.667 36 70.667 36 120c0 50 -12 90 -36 120
c-26 33.333 -63.333 50 -112 50c-48 0 -85 -16.667 -111 -50c-24 -31.333 -36 -71.333 -36 -120zM114 487c0 46 11.668 84.668 35.001 116.001h-1c25.333 31.333 60.666 47 105.999 47c23.333 0 45 -4.66699 65 -14c15.333 -27.333 23 -60.333 23 -99
c0 -46.667 -11 -84.334 -33 -113.001c-25.333 -32 -60.333 -48 -105 -48c-28 0 -52 6 -72 18c-12 22.667 -18 53.667 -18 93z" />
    <glyph glyph-name="guillemotright" unicode="&#xbb;" horiz-adv-x="354" 
d="M42 120l19 -16l35 -34l35 -27l51 63l36 -36l35 -27l132 163l-132 163l-28 28l-21 26l-43 -29l110 -138l-24 -31l-116 144l-28 28l-21 26l-43 -29l110 -138zM284 256l-109 135l27 19l125 -154l-125 -154l-24 19zM162 256l-109 135l27 19l125 -154l-125 -154l-24 19z" />
    <glyph glyph-name="onequarter" unicode="&#xbc;" horiz-adv-x="823" 
d="M141 -24h9l47 -47h55l474 727l-48 47l4 6h-63zM719 -12h6l47 -47h38v108h59v32l-47 47v6h-12v230l-47 47v6h-40l-257 -297l15 -24h5l47 -47h186v-61zM75 554l5 4l48 -48l40 35l1 -285h6l47 -47h40v432l-47 47v6h-41l-99 -90v-54zM729 106h-242l-8 13l248 288h26v-283h59
v-18h-59v-108h-24v108zM730 374l-217 -251h217v251zM625 699h38l-465 -713h-38zM85 604l94 84h26v-418h-26l-1 388l-93 -82v28zM624 133l96 110v-110h-96z" />
    <glyph glyph-name="onehalf" unicode="&#xbd;" horiz-adv-x="823" 
d="M141 -24h9l47 -47h55l474 727l-48 47l4 6h-63zM731 246l-231.999 -255h10l47 -47h284v32l-47 46v6h-113l145 160l-2 1c12.667 18.667 19 42 19 70c0 35.333 -10.667 63.666 -32 84.999l-33 32c-22.667 36.667 -59.334 55 -110.001 55c-42 0 -74.5 -11.5 -97.5 -34.5
s-34.5 -55.5 -34.5 -97.5v-16h6l47 -47h35v14c0 63.333 31.333 95 94 95c9.33301 0 20 -1.66699 32 -5c3.33301 -12 5 -23 5 -33c0 -23.333 -7.66699 -43.666 -23 -60.999zM75.001 554l5 4l48 -48l40 35l1 -285h6l47 -47h40v432l-47 47v6h-41l-99 -90v-54zM625.001 699h38
l-465 -713h-38zM738.001 239c17.333 19.333 26 42 26 68c0 30 -8.66699 53.333 -26 70s-41 25 -71 25c-67.333 0 -101 -34 -101 -102v-7h-21v6c0 38 10.833 67.833 32.5 89.5s51.5 32.5 89.5 32.5c36 0 64.667 -9.66699 86 -29s32 -47 32 -83c0 -31.333 -9 -57.333 -27 -78
h1l-192 -213h216v-18h-261zM85.001 604l94 84h26v-418h-26l-1 388l-93 -82v28z" />
    <glyph glyph-name="threequarters" unicode="&#xbe;" horiz-adv-x="823" 
d="M160 293c-21.333 0 -40.999 3.66699 -58.999 11l-4 14l-3 15l-47 47c-0.666992 0.666992 -1 3 -1 7l-42 -17c8 -40.667 26.667 -71 56 -91l34 -33c26.667 -26 65.334 -39 116.001 -39c38 0 69.667 6.66699 95 20l-164 -251h9l47 -47h55l474 727l-48 47l4 6h-63l-245 -376
c0 2 0.333008 3.66699 1 5v6c0 35.333 -12.667 65.666 -38 90.999l-4 3l-25 25c34.667 14 52 45.333 52 94c0 28.667 -8.33301 51.334 -25 68.001l-2 1h1l-32 32c-19.333 36 -63.333 54 -132 54c-76.667 0 -126 -30 -148 -90l10 -5l44 -43l33 -15
c15.333 45.333 51 68 107 68c9.33301 0 18.166 -0.5 26.499 -1.5s16.166 -2.16699 23.499 -3.5c0.666992 -3.33301 1.16699 -6.33301 1.5 -9s0.5 -5 0.5 -7c0 -48.667 -37.667 -73 -113 -73h-9l-29 2l8 -42h2c0.666992 0.666992 1.66699 1 3 1l48 -48
c3.33301 0.666992 6.5 1.16699 9.5 1.5s5.16699 0.5 6.5 0.5h11c26 0 49 -5 69 -15c6 -12 9 -26 9 -42c0 -31.333 -13 -56 -39 -74c-23.333 -16 -51.333 -24 -84 -24zM719.001 -9h6l47 -47h38v109h59v32l-47 47v6h-12v230l-47 47v6h-40l-257 -297l15 -24h5l47 -47h186v-62z
M729.001 110h-242l-8 13l248 288h26v-283h59v-18h-59v-110h-24v110zM730.001 377l-217 -250h217v250zM625.001 699h38l-465 -713h-38zM160.001 283c35.333 0 65.667 8.99902 91 26.999c28 20 42 47 42 81c0 38 -14 67 -42 87c-25.333 18 -57.333 27 -96 27h-11
c-4.66699 0 -8 -0.333008 -10 -1l-4 20l16 -1c88 -5.33301 132 22.334 132 83.001c0 52 -37.333 78 -112 78c-59.333 0 -96.333 -22 -111 -66l-20 9c18 50 63 75 135 75c88.667 0 133 -31.667 133 -95c0 -58.667 -27.333 -90 -82 -94c14 -2.66699 27 -7.66699 39 -15
s22.167 -16.333 30.5 -27s15 -22.667 20 -36s7.5 -27 7.5 -41c0 -43.333 -16.333 -76.333 -49 -99c-28.667 -20.667 -65 -31 -109 -31c-82 0 -130 33.333 -144 100l22 9c10 -60 50.667 -90 122 -90zM624.002 136.999l96 109v-109h-96z" />
    <glyph glyph-name="questiondown" unicode="&#xbf;" horiz-adv-x="463" 
d="M432 34l-44.002 14.001c-16 -91.333 -68.333 -137 -157 -137c-42 0 -75.333 7 -100 21c-6.66699 16 -10 37 -10 63c0 34 16.333 63 49 87c61.333 45.333 93.333 69.666 96 72.999c35.333 39.333 53 94 53 164c0 8 -0.333008 17.167 -1 27.5s-1.66699 21.833 -3 34.5
l-46 46v4c-0.666992 0.666992 -1 1.66699 -1 3h-51c1.33301 -11.333 2.5 -22.666 3.5 -33.999s1.5 -23 1.5 -35c0 -54.667 -16 -98.334 -48 -131.001l-55 -41c-15.333 -12 -27.666 -22 -36.999 -30v1c-41.333 -31.333 -62 -72.666 -62 -123.999
c0 -32.667 6 -59.334 18 -80.001c3.33301 -6.66699 9.5 -15 18.5 -25s20.5 -22 34.5 -36l28 -28c39.333 -39.333 91.666 -59 156.999 -59c54.667 0 100.334 14 137.001 42s60.334 68.333 71.001 121l-5 8l-42 41v1zM426.998 25.001
c-8.66699 -50 -31.167 -88.5029 -67.5 -115.503s-80.833 -40.5 -133.5 -40.5c-56.667 0 -102.667 14.333 -138 43c-38.667 30.667 -58 73.334 -58 128.001c0 46.667 17.667 84 53 112l46 35.5l51 38.5c34.667 34 52 80.333 52 139c0 9.33301 -0.333008 18.833 -1 28.5
s-1.66699 19.834 -3 30.501h31c2 -19.333 3 -37.666 3 -54.999c0 -68 -17 -121 -51 -159c-3.33301 -4.66699 -35 -28.667 -95 -72c-34.667 -24.667 -52 -56 -52 -94c0 -95.333 55.667 -143 167 -143c94 0 149 44.667 165 134zM278.998 455.998c4 -4 9.66699 -6 17 -6
c19.333 0 29 18 29 54c0 24 -4 40 -12 48l-41 41c-5.33301 12 -14 18 -26 18c-21.333 0 -32 -19 -32 -57c0 -32 7.66699 -50.667 23 -56zM267.998 553.998c0 -31.333 -7.33301 -47 -22 -47s-22 15.667 -22 47s7.33301 47 22 47s22 -15.667 22 -47z" />
    <glyph glyph-name="Agrave" unicode="&#xc0;" horiz-adv-x="574" 
d="M-20 -9h8l46 -47h49l94 244h291l75 -197h5l47 -47h48l-278 732l-45 45l-3 8h-52zM272 719h38l273 -719h-33l-93 245h-335l-94 -245h-32zM445 275l-154 405l-157 -405h311zM430 285h-215l108 278zM347 732h70l-111 174l-39 39l-9 14h-78l115 -180h5zM301 789l-102 160h53
l102 -160h-53z" />
    <glyph glyph-name="Aacute" unicode="&#xc1;" horiz-adv-x="574" 
d="M-20 -9h8l46 -47h49l94 244h291l75 -197h5l47 -47h48l-278 732l-45 45l-3 8h-52zM272 719h38l273 -719h-33l-93 245h-335l-94 -245h-32zM445 275l-154 405l-157 -405h311zM430 285h-215l108 278zM223 779h9l47 -47h71l110 174l-48 47l4 6h-78zM344 949h53l-101 -160h-54z
" />
    <glyph glyph-name="Acircumflex" unicode="&#xc2;" horiz-adv-x="574" 
d="M-20 -9h8l46 -47h49l94 244h291l75 -197h5l47 -47h48l-278 732l-45 45l-3 8h-52zM272 719h38l273 -719h-33l-93 245h-335l-94 -245h-32zM445 275l-154 405l-157 -405h311zM430 285h-215l108 278zM155 779h9l47 -47h55l70 108l43 -66h4l48 -47l52 6l-107 173l-40 39l-8 14
h-60zM274 949h48l99 -160l-36 -4l-87 136l-86 -132h-38z" />
    <glyph glyph-name="Atilde" unicode="&#xc3;" horiz-adv-x="574" 
d="M-20 -9h8l46 -47h49l94 244h291l75 -197h5l47 -47h48l-278 732l-45 45l-3 8h-52zM272 719h38l273 -719h-33l-93 245h-335l-94 -245h-32zM445 275l-154 405l-157 -405h311zM430 285h-215l108 278zM406 929c-0.666992 -0.666992 -1.66797 -3.00391 -3.00098 -7.00391
l-4 -10c-1.33301 -2 -2.66602 -5.66699 -3.99902 -11c-3.33301 -7.33301 -7.33301 -16.666 -12 -27.999v1c-8.66699 -14.667 -19 -22 -31 -22c-8 0 -23.667 10.667 -47 32c-28 26 -48.333 39 -61 39c-26.667 0 -54.667 -28.667 -84 -86l31 -31
c0 1.33301 0.333008 2.33301 1 3l48 -48c22.667 42 40.667 63.333 54 64h1c6.66699 0 19.334 -9.33301 38.001 -28l5 -5c25.333 -26 46.666 -38.333 63.999 -37c20 0.666992 36 8.66699 48 24l1 1c4 6.66699 9 15.667 15 27c0.666992 1.33301 1.5 2.83301 2.5 4.5
s2.16699 3.83398 3.5 6.50098l2 2c1.33301 2.66699 2.83301 5.33398 4.5 8.00098s3.16699 5.33398 4.5 8.00098l-26 37l-39 39zM423.999 885.996l-14 -25l-15 -27c-10.667 -14 -25 -21.333 -43 -22c-10.667 0 -30.667 11.667 -60 35c-28 24 -44 35.667 -48 35
c-17.333 -1.33301 -36 -21 -56 -59l-16 16c25.333 49.333 49.333 74 72 74c9.33301 0 27 -12 53 -36c26.667 -23.333 45 -35 55 -35c16.667 0 30 9 40 27l8 19.5c2.66699 6.33301 5.66699 12.5 9 18.5z" />
    <glyph glyph-name="Adieresis" unicode="&#xc4;" horiz-adv-x="574" 
d="M-20 -9h8l46 -47h49l94 244h291l75 -197h5l47 -47h48l-278 732l-45 45l-3 8h-52zM272 719h38l273 -719h-33l-93 245h-335l-94 -245h-32zM445 275l-154 405l-157 -405h311zM430 285h-215l108 278zM190 866c0 -33.333 7.33301 -52.333 22 -57l43 -42c4 -4 9.33301 -6 16 -6
c19.333 0 29 18.333 29 55c0 24 -4 40 -12 48l-41 41c-5.33301 12 -14 18 -26 18c-20.667 0 -31 -19 -31 -57zM344 868c0 -34 7.66602 -53 22.999 -57l42 -41c4.66699 -4.66699 10.334 -7 17.001 -7c19.333 0 29 18.333 29 55c0 23.333 -4 39 -12 47l-40 40
c-4.66699 12.667 -13.667 19 -27 19c-21.333 0 -32 -18.667 -32 -56zM353.999 868c0 30.667 7.33301 46 22 46s22 -15.333 22 -46c0 -32 -7.33301 -48 -22 -48s-22 16 -22 48zM199.999 866c0 31.333 7 47 21 47c14.667 0 22 -15.667 22 -47c0 -32 -7.33301 -48 -22 -48
c-14 0 -21 16 -21 48z" />
    <glyph glyph-name="Aring" unicode="&#xc5;" horiz-adv-x="574" 
d="M-20 -9l8 0.00390625l46 -47h49l94 244h291l75 -197h5l47 -47h48l-290 743c32 3.33301 57.333 15.5 76 36.5s28 47.5 28 79.5c0 35.333 -11 63.666 -33 84.999l-33 32c-22 35.333 -55.333 53 -100 53c-36 0 -65 -11 -87 -33s-33 -51 -33 -87
c0 -46.667 18 -80.334 54 -101.001l32 -32c0.666992 -0.666992 1.16699 -1.33398 1.5 -2.00098s0.833008 -1.33398 1.5 -2.00098zM272 719.004h38l273 -719h-33l-93 245h-335l-94 -245h-32zM445 275.004l-154 405l-157 -405h311zM181 853.004c0 32 10.333 58.333 31 79
s47 31 79 31s58.167 -10.333 78.5 -31s30.5 -47 30.5 -79s-10.167 -58.167 -30.5 -78.5s-46.5 -30.5 -78.5 -30.5s-58.333 10.167 -79 30.5s-31 46.5 -31 78.5zM430 285.004h-215l108 278zM209 854.004c0 -23.333 7.83301 -42.666 23.5 -57.999s35.167 -23 58.5 -23
s42.666 7.66699 57.999 23s23 34.666 23 57.999s-7.66699 42.666 -23 57.999s-34.666 23 -57.999 23s-42.833 -7.66699 -58.5 -23s-23.5 -34.666 -23.5 -57.999zM266 804.004c0 21.333 7.16797 38.999 21.501 52.999s32.166 21 53.499 21c2.66699 0 5.5 -0.166992 8.5 -0.5
s6.16699 -0.833008 9.5 -1.5c2 -7.33301 3 -14.666 3 -21.999c0 -20.667 -6.66699 -37.667 -20 -51s-30.333 -20 -51 -20c-10.667 0 -18.667 1.33301 -24 4c-0.666992 2 -1 7.66699 -1 17z" />
    <glyph glyph-name="AE" unicode="&#xc6;" horiz-adv-x="804" 
d="M525 302h242v44l-47 47v6h-195v233h277v44l-47 47v6h-381l-341 -738h8l47 -47h51l111 240h176v-193h6l47 -47h333v45l-47 46v6h-240v261zM196 241l-111 -241h-36l331 719h365v-30h-277v-300h242v-30h-242v-328h287v-31h-319v241h-240zM436 689h-34l-192 -418h226v418z
M294 281l132 285v-285h-132z" />
    <glyph glyph-name="Ccedilla" unicode="&#xc7;" horiz-adv-x="681" 
d="M623 181l-41 22.001c-27.333 -119.333 -106.333 -179 -237 -179c-57.333 0 -105 16 -143 48l-3 6c-37.333 61.333 -56 138 -56 230c0 94 19.333 171.333 58 232c44.667 72 111 108 199 108c55.333 0 101.666 -11.333 138.999 -34c14.667 -20 26.667 -43.667 36 -71l4 2
l48 -48l44 23c-12.667 35.333 -32 66 -58 92l-5 5l-21 20c-15.333 19.333 -30 34.666 -44 45.999c-51.333 41.333 -113.666 62 -186.999 62c-108 0 -189.333 -39 -244 -117c-47.333 -68.667 -71 -158.667 -71 -270c0 -108.667 23 -197 69 -265
c19.333 -28.667 40.666 -50.667 63.999 -66l21 -21c50.667 -50.667 119 -76 205 -76c66.667 0 124.334 15.667 173.001 47c52 32.667 86 80.667 102 144l-4 8l-44 44zM618 173.001c-16 -61.333 -49 -108.333 -99 -141c-47.333 -30 -103.666 -45 -168.999 -45
c-104 0 -181.333 37.333 -232 112c-44.667 64.667 -67 151 -67 259c0 108.667 22.667 196.334 68 263.001c52.667 76 131.667 114 237 114c71.333 0 131.666 -19.667 180.999 -59c35.333 -28 60.333 -62.333 75 -103l-31 -16c-32.667 98.667 -109.667 148 -231 148
c-90 0 -158.333 -37 -205 -111c-39.333 -62.667 -59 -141.334 -59 -236.001c0 -95.333 19 -173.333 57 -234c45.333 -73.333 112.666 -110 201.999 -110c62 0 113.667 14.333 155 43c46.667 31.333 76.334 75 89.001 131zM325 -224.999h6.00098l47 -47h41
c70.667 0 106 30 106 90c0 24 -6.66699 42.667 -20 56l-36 36c-10 19.333 -28 32 -54 38v10l-47 46v6h-45v-101h6l47 -47h54c-0.666992 -26.667 -20.334 -40 -59.001 -40h-46v-47zM335.001 -187.999h36c46 0 69 17 69 51c0 37.333 -26.333 56 -79 56h-28v81h25v-57h12
c65.333 0 98 -25 98 -75c0 -55.333 -33 -83 -99 -83h-34v27z" />
    <glyph glyph-name="Egrave" unicode="&#xc8;" horiz-adv-x="567" 
d="M72 -9h6l47 -47h463v46l-47 46v6h-368v260h321v45l-47 47v6h-274v230h405v46l-47 47v6h-459v-738zM82 719h439v-32h-405v-297h321v-31h-321v-327h415v-32h-449v719zM357 732h70l-111 174l-39 39l-9 14h-78l115 -180h5zM311 789l-102 160h53l102 -160h-53z" />
    <glyph glyph-name="Eacute" unicode="&#xc9;" horiz-adv-x="567" 
d="M72 -9h6l47 -47h463v46l-47 46v6h-368v260h321v45l-47 47v6h-274v230h405v46l-47 47v6h-459v-738zM82 719h439v-32h-405v-297h321v-31h-321v-327h415v-32h-449v719zM233 779h9l47 -47h71l110 174l-48 47l4 6h-78zM354 949h53l-101 -160h-54z" />
    <glyph glyph-name="Ecircumflex" unicode="&#xca;" horiz-adv-x="567" 
d="M72 -9h6l47 -47h463v46l-47 46v6h-368v260h321v45l-47 47v6h-274v230h405v46l-47 47v6h-459v-738zM82 719h439v-32h-405v-297h321v-31h-321v-327h415v-32h-449v719zM165 779h9l47 -47h55l70 108l43 -66h4l48 -47l52 6l-107 173l-40 39l-8 14h-60zM284 949h48l99 -160
l-36 -4l-87 136l-86 -132h-38z" />
    <glyph glyph-name="Edieresis" unicode="&#xcb;" horiz-adv-x="567" 
d="M72 -9h6l47 -47h463v46l-47 46v6h-368v260h321v45l-47 47v6h-274v230h405v46l-47 47v6h-459v-738zM82 719h439v-32h-405v-297h321v-31h-321v-327h415v-32h-449v719zM200 866c0 -33.333 7.33301 -52.333 22 -57l43 -42c4 -4 9.33301 -6 16 -6c19.333 0 29 18.333 29 55
c0 24 -4 40 -12 48l-41 41c-5.33301 12 -14 18 -26 18c-20.667 0 -31 -19 -31 -57zM354 868c0 -34 7.66602 -53 22.999 -57l42 -41c4.66699 -4.66699 10.334 -7 17.001 -7c19.333 0 29 18.333 29 55c0 23.333 -4 39 -12 47l-40 40c-4.66699 12.667 -13.667 19 -27 19
c-21.333 0 -32 -18.667 -32 -56zM363.999 868c0 30.667 7.33301 46 22 46s22 -15.333 22 -46c0 -32 -7.33301 -48 -22 -48s-22 16 -22 48zM209.999 866c0 31.333 7 47 21 47c14.667 0 22 -15.667 22 -47c0 -32 -7.33301 -48 -22 -48c-14 0 -21 16 -21 48z" />
    <glyph glyph-name="Igrave" unicode="&#xcc;" horiz-adv-x="207" 
d="M77 -9h6l47 -47h47v732l-47 47v6h-53v-738zM87 719h33v-719h-33v719zM155 732h70l-111 174l-39 39l-9 14h-78l115 -180h5zM109 789l-102 160h53l102 -160h-53z" />
    <glyph glyph-name="Iacute" unicode="&#xcd;" horiz-adv-x="207" 
d="M77 -9h6l47 -47h47v732l-47 47v6h-53v-738zM87 719h33v-719h-33v719zM31 779h9l47 -47h71l110 174l-48 47l4 6h-78zM152 949h53l-101 -160h-54z" />
    <glyph glyph-name="Icircumflex" unicode="&#xce;" horiz-adv-x="207" 
d="M77 -9h6l47 -47h47v732l-47 47v6h-53v-738zM87 719h33v-719h-33v719zM-37 779h9l47 -47h55l70 108l43 -66h4l48 -47l52 6l-107 173l-40 39l-8 14h-60zM82 949h48l99 -160l-36 -4l-87 136l-86 -132h-38z" />
    <glyph glyph-name="Idieresis" unicode="&#xcf;" horiz-adv-x="207" 
d="M77 -9h6l47 -47h47v732l-47 47v6h-53v-738zM87 719h33v-719h-33v719zM-2 866c0 -33.333 7.33301 -52.333 22 -57l43 -42c4 -4 9.33301 -6 16 -6c19.333 0 29 18.333 29 55c0 24 -4 40 -12 48l-41 41c-5.33301 12 -14 18 -26 18c-20.667 0 -31 -19 -31 -57zM152 868
c0 -34 7.66602 -53 22.999 -57l42 -41c4.66699 -4.66699 10.334 -7 17.001 -7c19.333 0 29 18.333 29 55c0 23.333 -4 39 -12 47l-40 40c-4.66699 12.667 -13.667 19 -27 19c-21.333 0 -32 -18.667 -32 -56zM161.999 868c0 30.667 7.33301 46 22 46s22 -15.333 22 -46
c0 -32 -7.33301 -48 -22 -48s-22 16 -22 48zM7.99902 866c0 31.333 7 47 21 47c14.667 0 22 -15.667 22 -47c0 -32 -7.33301 -48 -22 -48c-14 0 -21 16 -21 48z" />
    <glyph glyph-name="Eth" unicode="&#xd0;" horiz-adv-x="689" 
d="M72 -9h5.99902l47 -47h172c104.667 0 182.667 12 234 36c108.667 50 163 159.667 163 329c0 128 -31 221.667 -93 281l-23 22c-26 34.667 -58 61.667 -96 81c-47.333 24 -125.666 36 -234.999 36h-175v-320h-81v-47h6l46 -47h29v-324zM81.999 372l-82 -0.000976562v27h82
v320h165c106 0 183 -11.667 231 -35c106 -53.333 159 -161.666 159 -324.999c0 -167.333 -53 -275.333 -159 -324c-50.667 -23.333 -127.667 -35 -231 -35h-165v372zM254.999 29.999c96.667 0 168 11.999 214 35.999c88.667 46.667 133 144.334 133 293.001
c0 120.667 -31.667 209.667 -95 267c-30 26.667 -69.667 44.667 -119 54c-14.667 2.66699 -33 4.66699 -55 6s-48 2 -78 2h-139v-289h243v-27h-243v-342h139zM172.999 630.998l132 -0.000976562c30 0 56 -0.666992 78 -2s40 -3.33301 54 -6
c36 -7.33301 66.333 -18.666 91 -33.999c42.667 -55.333 64 -132 64 -230c0 -145.333 -42.333 -240 -127 -284c-45.333 -23.333 -115.333 -35 -210 -35h-82v275h243v41l-47 47v6h-196v222z" />
    <glyph glyph-name="Ntilde" unicode="&#xd1;" horiz-adv-x="682" 
d="M72 -9h6l47 -47h47v615l390 -568h4l47 -47h44v732l-47 47v6h-53v-622l-387 569l-41 40l-8 13h-49v-738zM82 719h34l451 -662v662h33v-719h-33l-452 661v-661h-33v719zM449 929c-0.666992 -0.666992 -1.66797 -3.00391 -3.00098 -7.00391l-4 -10
c-1.33301 -2 -2.66602 -5.66699 -3.99902 -11c-3.33301 -7.33301 -7.33301 -16.666 -12 -27.999v1c-8.66699 -14.667 -19 -22 -31 -22c-8 0 -23.667 10.667 -47 32c-28 26 -48.333 39 -61 39c-26.667 0 -54.667 -28.667 -84 -86l31 -31c0 1.33301 0.333008 2.33301 1 3
l48 -48c22.667 42 40.667 63.333 54 64h1c6.66699 0 19.334 -9.33301 38.001 -28l5 -5c25.333 -26 46.666 -38.333 63.999 -37c20 0.666992 36 8.66699 48 24l1 1c4 6.66699 9 15.667 15 27c0.666992 1.33301 1.5 2.83301 2.5 4.5s2.16699 3.83398 3.5 6.50098l2 2
c1.33301 2.66699 2.83301 5.33398 4.5 8.00098s3.16699 5.33398 4.5 8.00098l-26 37l-39 39zM466.999 885.996l-14 -25l-15 -27c-10.667 -14 -25 -21.333 -43 -22c-10.667 0 -30.667 11.667 -60 35c-28 24 -44 35.667 -48 35c-17.333 -1.33301 -36 -21 -56 -59l-16 16
c25.333 49.333 49.333 74 72 74c9.33301 0 27 -12 53 -36c26.667 -23.333 45 -35 55 -35c16.667 0 30 9 40 27l8 19.5c2.66699 6.33301 5.66699 12.5 9 18.5z" />
    <glyph glyph-name="Ograve" unicode="&#xd2;" horiz-adv-x="741" 
d="M42 359c0 -110.667 25.666 -200.668 76.999 -270.001c8.66699 -11.333 17.334 -21.333 26.001 -30s17.667 -16.667 27 -24l25 -25c54.667 -54 129 -81 223 -81c108.667 0 191.667 37 249 111c51.333 67.333 77 157 77 269c0 112.667 -25.333 202.334 -76 269.001
c-7.33301 10 -16.333 20.333 -27 31l-21 21c-56.667 76.667 -140.667 115 -252 115c-110 0 -193.333 -38.333 -250 -115c-52 -68 -78 -158.333 -78 -271zM51.999 358.999c0 108.667 25.001 196.667 75.001 264c56 74.667 137 112 243 112
c107.333 0 188.666 -37 243.999 -111c50 -66 75 -154.333 75 -265c0 -111.333 -25 -199.333 -75 -264c-54.667 -72.667 -136 -109 -244 -109c-106.667 0 -188 36.333 -244 109c-49.333 66.667 -74 154.667 -74 264zM87 358.999c0 -99.333 21.668 -179.666 65.001 -240.999
c49.333 -69.333 122 -104 218 -104c96.667 0 169.667 34.667 219 104c43.333 61.333 65 141.666 65 240.999s-22 179.666 -66 240.999c-50 70 -122.667 105 -218 105c-96.667 0 -169.334 -35 -218.001 -105c-43.333 -61.333 -65 -141.666 -65 -240.999zM144.001 308.999
c0 97.333 21.001 175.999 63.001 235.999c48 68.667 119 103 213 103c57.333 0 107.666 -14 150.999 -42l9 -12c42.667 -56.667 64 -135 64 -235c0 -98.667 -21 -177 -63 -235c-48 -66.667 -118.333 -100 -211 -100c-66.667 0 -121.667 17.333 -165 52
c-40.667 60.667 -61 138.334 -61 233.001zM420.002 731.998h70l-111 174l-39 39l-9 14h-78l115 -180h5zM374.002 788.998l-102 160h53l102 -160h-53z" />
    <glyph glyph-name="Oacute" unicode="&#xd3;" horiz-adv-x="741" 
d="M42 359c0 -110.667 25.666 -200.668 76.999 -270.001c8.66699 -11.333 17.334 -21.333 26.001 -30s17.667 -16.667 27 -24l25 -25c54.667 -54 129 -81 223 -81c108.667 0 191.667 37 249 111c51.333 67.333 77 157 77 269c0 112.667 -25.333 202.334 -76 269.001
c-7.33301 10 -16.333 20.333 -27 31l-21 21c-56.667 76.667 -140.667 115 -252 115c-110 0 -193.333 -38.333 -250 -115c-52 -68 -78 -158.333 -78 -271zM51.999 358.999c0 108.667 25.001 196.667 75.001 264c56 74.667 137 112 243 112
c107.333 0 188.666 -37 243.999 -111c50 -66 75 -154.333 75 -265c0 -111.333 -25 -199.333 -75 -264c-54.667 -72.667 -136 -109 -244 -109c-106.667 0 -188 36.333 -244 109c-49.333 66.667 -74 154.667 -74 264zM87 358.999c0 -99.333 21.668 -179.666 65.001 -240.999
c49.333 -69.333 122 -104 218 -104c96.667 0 169.667 34.667 219 104c43.333 61.333 65 141.666 65 240.999s-22 179.666 -66 240.999c-50 70 -122.667 105 -218 105c-96.667 0 -169.334 -35 -218.001 -105c-43.333 -61.333 -65 -141.666 -65 -240.999zM144.001 308.999
c0 97.333 21.001 175.999 63.001 235.999c48 68.667 119 103 213 103c57.333 0 107.666 -14 150.999 -42l9 -12c42.667 -56.667 64 -135 64 -235c0 -98.667 -21 -177 -63 -235c-48 -66.667 -118.333 -100 -211 -100c-66.667 0 -121.667 17.333 -165 52
c-40.667 60.667 -61 138.334 -61 233.001zM296.002 778.998h9l47 -47h71l110 174l-48 47l4 6h-78zM417.002 948.998h53l-101 -160h-54z" />
    <glyph glyph-name="Ocircumflex" unicode="&#xd4;" horiz-adv-x="741" 
d="M42 359c0 -110.667 25.666 -200.668 76.999 -270.001c8.66699 -11.333 17.334 -21.333 26.001 -30s17.667 -16.667 27 -24l25 -25c54.667 -54 129 -81 223 -81c108.667 0 191.667 37 249 111c51.333 67.333 77 157 77 269c0 112.667 -25.333 202.334 -76 269.001
c-7.33301 10 -16.333 20.333 -27 31l-21 21c-56.667 76.667 -140.667 115 -252 115c-110 0 -193.333 -38.333 -250 -115c-52 -68 -78 -158.333 -78 -271zM51.999 358.999c0 108.667 25.001 196.667 75.001 264c56 74.667 137 112 243 112
c107.333 0 188.666 -37 243.999 -111c50 -66 75 -154.333 75 -265c0 -111.333 -25 -199.333 -75 -264c-54.667 -72.667 -136 -109 -244 -109c-106.667 0 -188 36.333 -244 109c-49.333 66.667 -74 154.667 -74 264zM87 358.999c0 -99.333 21.668 -179.666 65.001 -240.999
c49.333 -69.333 122 -104 218 -104c96.667 0 169.667 34.667 219 104c43.333 61.333 65 141.666 65 240.999s-22 179.666 -66 240.999c-50 70 -122.667 105 -218 105c-96.667 0 -169.334 -35 -218.001 -105c-43.333 -61.333 -65 -141.666 -65 -240.999zM144.001 308.999
c0 97.333 21.001 175.999 63.001 235.999c48 68.667 119 103 213 103c57.333 0 107.666 -14 150.999 -42l9 -12c42.667 -56.667 64 -135 64 -235c0 -98.667 -21 -177 -63 -235c-48 -66.667 -118.333 -100 -211 -100c-66.667 0 -121.667 17.333 -165 52
c-40.667 60.667 -61 138.334 -61 233.001zM228.002 778.998h9l47 -47h55l70 108l43 -66h4l48 -47l52 6l-107 173l-40 39l-8 14h-60zM347.002 948.998h48l99 -160l-36 -4l-87 136l-86 -132h-38z" />
    <glyph glyph-name="Otilde" unicode="&#xd5;" horiz-adv-x="741" 
d="M42 359c0 -110.667 25.666 -200.668 76.999 -270.001c8.66699 -11.333 17.334 -21.333 26.001 -30s17.667 -16.667 27 -24l25 -25c54.667 -54 129 -81 223 -81c108.667 0 191.667 37 249 111c51.333 67.333 77 157 77 269c0 112.667 -25.333 202.334 -76 269.001
c-7.33301 10 -16.333 20.333 -27 31l-21 21c-56.667 76.667 -140.667 115 -252 115c-110 0 -193.333 -38.333 -250 -115c-52 -68 -78 -158.333 -78 -271zM51.999 358.999c0 108.667 25.001 196.667 75.001 264c56 74.667 137 112 243 112
c107.333 0 188.666 -37 243.999 -111c50 -66 75 -154.333 75 -265c0 -111.333 -25 -199.333 -75 -264c-54.667 -72.667 -136 -109 -244 -109c-106.667 0 -188 36.333 -244 109c-49.333 66.667 -74 154.667 -74 264zM87 358.999c0 -99.333 21.668 -179.666 65.001 -240.999
c49.333 -69.333 122 -104 218 -104c96.667 0 169.667 34.667 219 104c43.333 61.333 65 141.666 65 240.999s-22 179.666 -66 240.999c-50 70 -122.667 105 -218 105c-96.667 0 -169.334 -35 -218.001 -105c-43.333 -61.333 -65 -141.666 -65 -240.999zM144.001 308.999
c0 97.333 21.001 175.999 63.001 235.999c48 68.667 119 103 213 103c57.333 0 107.666 -14 150.999 -42l9 -12c42.667 -56.667 64 -135 64 -235c0 -98.667 -21 -177 -63 -235c-48 -66.667 -118.333 -100 -211 -100c-66.667 0 -121.667 17.333 -165 52
c-40.667 60.667 -61 138.334 -61 233.001zM479.002 928.998c-0.666992 -0.666992 -1.66797 -3.00391 -3.00098 -7.00391l-4 -10c-1.33301 -2 -2.66602 -5.66699 -3.99902 -11c-3.33301 -7.33301 -7.33301 -16.666 -12 -27.999v1c-8.66699 -14.667 -19 -22 -31 -22
c-8 0 -23.667 10.667 -47 32c-28 26 -48.333 39 -61 39c-26.667 0 -54.667 -28.667 -84 -86l31 -31c0 1.33301 0.333008 2.33301 1 3l48 -48c22.667 42 40.667 63.333 54 64h1c6.66699 0 19.334 -9.33301 38.001 -28l5 -5c25.333 -26 46.666 -38.333 63.999 -37
c20 0.666992 36 8.66699 48 24l1 1c4 6.66699 9 15.667 15 27c0.666992 1.33301 1.5 2.83301 2.5 4.5s2.16699 3.83398 3.5 6.50098l2 2c1.33301 2.66699 2.83301 5.33398 4.5 8.00098s3.16699 5.33398 4.5 8.00098l-26 37l-39 39zM497.001 885.994l-14 -25l-15 -27
c-10.667 -14 -25 -21.333 -43 -22c-10.667 0 -30.667 11.667 -60 35c-28 24 -44 35.667 -48 35c-17.333 -1.33301 -36 -21 -56 -59l-16 16c25.333 49.333 49.333 74 72 74c9.33301 0 27 -12 53 -36c26.667 -23.333 45 -35 55 -35c16.667 0 30 9 40 27l8 19.5
c2.66699 6.33301 5.66699 12.5 9 18.5z" />
    <glyph glyph-name="Odieresis" unicode="&#xd6;" horiz-adv-x="741" 
d="M42 359c0 -110.667 25.666 -200.668 76.999 -270.001c8.66699 -11.333 17.334 -21.333 26.001 -30s17.667 -16.667 27 -24l25 -25c54.667 -54 129 -81 223 -81c108.667 0 191.667 37 249 111c51.333 67.333 77 157 77 269c0 112.667 -25.333 202.334 -76 269.001
c-7.33301 10 -16.333 20.333 -27 31l-21 21c-56.667 76.667 -140.667 115 -252 115c-110 0 -193.333 -38.333 -250 -115c-52 -68 -78 -158.333 -78 -271zM51.999 358.999c0 108.667 25.001 196.667 75.001 264c56 74.667 137 112 243 112
c107.333 0 188.666 -37 243.999 -111c50 -66 75 -154.333 75 -265c0 -111.333 -25 -199.333 -75 -264c-54.667 -72.667 -136 -109 -244 -109c-106.667 0 -188 36.333 -244 109c-49.333 66.667 -74 154.667 -74 264zM87 358.999c0 -99.333 21.668 -179.666 65.001 -240.999
c49.333 -69.333 122 -104 218 -104c96.667 0 169.667 34.667 219 104c43.333 61.333 65 141.666 65 240.999s-22 179.666 -66 240.999c-50 70 -122.667 105 -218 105c-96.667 0 -169.334 -35 -218.001 -105c-43.333 -61.333 -65 -141.666 -65 -240.999zM144.001 308.999
c0 97.333 21.001 175.999 63.001 235.999c48 68.667 119 103 213 103c57.333 0 107.666 -14 150.999 -42l9 -12c42.667 -56.667 64 -135 64 -235c0 -98.667 -21 -177 -63 -235c-48 -66.667 -118.333 -100 -211 -100c-66.667 0 -121.667 17.333 -165 52
c-40.667 60.667 -61 138.334 -61 233.001zM263.002 865.998c0 -33.333 7.33301 -52.333 22 -57l43 -42c4 -4 9.33301 -6 16 -6c19.333 0 29 18.333 29 55c0 24 -4 40 -12 48l-41 41c-5.33301 12 -14 18 -26 18c-20.667 0 -31 -19 -31 -57zM417.002 867.998
c0 -34 7.66602 -53 22.999 -57l42 -41c4.66699 -4.66699 10.334 -7 17.001 -7c19.333 0 29 18.333 29 55c0 23.333 -4 39 -12 47l-40 40c-4.66699 12.667 -13.667 19 -27 19c-21.333 0 -32 -18.667 -32 -56zM427.001 867.998c0 30.667 7.33301 46 22 46s22 -15.333 22 -46
c0 -32 -7.33301 -48 -22 -48s-22 16 -22 48zM273.001 865.998c0 31.333 7 47 21 47c14.667 0 22 -15.667 22 -47c0 -32 -7.33301 -48 -22 -48c-14 0 -21 16 -21 48z" />
    <glyph glyph-name="multiply" unicode="&#xd7;" horiz-adv-x="684" 
d="M126 522l186 -224l-184 -221h9l47 -47h52l150 179l109 -132h4l47 -47h54l-182 218l184 221l-48 48l4 5h-60l-154 -186l-109 133l-30 30l-19 23h-60zM502 512h36l-178 -214l176 -211h-37l-157 189l-158 -189h-36l176 211l-178 214h36l160 -193z" />
    <glyph glyph-name="Oslash" unicode="&#xd8;" horiz-adv-x="741" 
d="M22 -8l25 -20.999l29 -29l34 -28l85 99c62.667 -56.667 136.334 -85 221.001 -85c110.667 0 195 37 253 111c51.333 67.333 77 157.333 77 270c0 103.333 -24 190.666 -72 261.999l90 105l-48 48l2 2l-37 36l-88 -100c-56.667 54.667 -130 82 -220 82
c-112.667 0 -197.334 -37.333 -254.001 -112c-51.333 -67.333 -77 -158.333 -77 -273c0 -104 23.667 -191.333 71 -262zM126 97.001c-49.333 69.333 -74 156.668 -74 262.001c0 112 24.667 200.667 74 266c54.667 72.667 137 109 247 109c94 0 167.667 -28.667 221 -86
l87 100l23 -22l-89 -104c49.333 -71.333 74 -159 74 -263c0 -112.667 -25.333 -201.334 -76 -266.001c-56 -72 -138.333 -108 -247 -108c-86 0 -159.667 29.667 -221 89l-86 -101l-23 19zM369 704.003c-96 0 -168.667 -34.668 -218 -104.001
c-42.667 -59.333 -64 -139.666 -64 -240.999c0 -95.333 20.667 -173.666 62 -234.999c61.333 -73.333 135.333 -110 222 -110c94.667 0 167 35 217 105c44 60.667 66 140.667 66 240s-22.333 179.666 -67 240.999c-51.333 69.333 -124 104 -218 104zM144 309.002
c0 98 20.667 176.667 62 236c46.667 68 117.667 102 213 102c60 0 110.333 -14.333 151 -43c49.333 -63.333 74 -145 74 -245c0 -95.333 -21.333 -173.333 -64 -234c-47.333 -67.333 -117 -101 -209 -101c-65.333 0 -122.333 20.333 -171 61c-37.333 59.333 -56 134 -56 224
zM329 349.002c0 -17.333 6 -28 18 -32l42 -41c4.66699 -4.66699 11.667 -7 21 -7c18.667 0 28 10 28 30c0 10.667 -2.66699 18.667 -8 24l-1 1v-1l-1 1h1l-40 39c-3.33301 13.333 -13 20 -29 20c-20.667 0 -31 -11.333 -31 -34zM339 349.002c0 16 7 24 21 24s21 -8 21 -24
c0 -15.333 -7 -23 -21 -23s-21 7.66699 -21 23z" />
    <glyph glyph-name="Ugrave" unicode="&#xd9;" horiz-adv-x="671" 
d="M67 729l-0.000976562 -478c0 -86 23.333 -153.333 70 -202c10.667 -11.333 20.667 -20.333 30 -27l24 -22c49.333 -47.333 114.333 -71 195 -71c85.333 0 151 23.833 197 71.5s69 114.5 69 200.5v475l-47 47v6h-53v-462c0 -77.333 -16.667 -136.333 -50 -177
c-37.333 -44 -92.666 -66 -165.999 -66c-56 0 -101 12 -135 36c-22.667 38.667 -34 91 -34 157v459l-47 47v6h-53zM109.999 719v-452c0 -168.667 75.333 -253 226 -253s226 84.333 226 253v452h33v-468c0 -84 -22.333 -149.167 -67 -195.5s-108.667 -69.5 -192 -69.5
s-147.333 23.167 -192 69.5s-67 111.5 -67 195.5v468h33zM384.999 732h70l-111 174l-39 39l-9 14h-78l115 -180h5zM338.999 789l-102 160h53l102 -160h-53z" />
    <glyph glyph-name="Uacute" unicode="&#xda;" horiz-adv-x="671" 
d="M67 729l-0.000976562 -478c0 -86 23.333 -153.333 70 -202c10.667 -11.333 20.667 -20.333 30 -27l24 -22c49.333 -47.333 114.333 -71 195 -71c85.333 0 151 23.833 197 71.5s69 114.5 69 200.5v475l-47 47v6h-53v-462c0 -77.333 -16.667 -136.333 -50 -177
c-37.333 -44 -92.666 -66 -165.999 -66c-56 0 -101 12 -135 36c-22.667 38.667 -34 91 -34 157v459l-47 47v6h-53zM109.999 719v-452c0 -168.667 75.333 -253 226 -253s226 84.333 226 253v452h33v-468c0 -84 -22.333 -149.167 -67 -195.5s-108.667 -69.5 -192 -69.5
s-147.333 23.167 -192 69.5s-67 111.5 -67 195.5v468h33zM260.999 779h9l47 -47h71l110 174l-48 47l4 6h-78zM381.999 949h53l-101 -160h-54z" />
    <glyph glyph-name="Ucircumflex" unicode="&#xdb;" horiz-adv-x="671" 
d="M67 729l-0.000976562 -478c0 -86 23.333 -153.333 70 -202c10.667 -11.333 20.667 -20.333 30 -27l24 -22c49.333 -47.333 114.333 -71 195 -71c85.333 0 151 23.833 197 71.5s69 114.5 69 200.5v475l-47 47v6h-53v-462c0 -77.333 -16.667 -136.333 -50 -177
c-37.333 -44 -92.666 -66 -165.999 -66c-56 0 -101 12 -135 36c-22.667 38.667 -34 91 -34 157v459l-47 47v6h-53zM109.999 719v-452c0 -168.667 75.333 -253 226 -253s226 84.333 226 253v452h33v-468c0 -84 -22.333 -149.167 -67 -195.5s-108.667 -69.5 -192 -69.5
s-147.333 23.167 -192 69.5s-67 111.5 -67 195.5v468h33zM192.999 779h9l47 -47h55l70 108l43 -66h4l48 -47l52 6l-107 173l-40 39l-8 14h-60zM311.999 949h48l99 -160l-36 -4l-87 136l-86 -132h-38z" />
    <glyph glyph-name="Udieresis" unicode="&#xdc;" horiz-adv-x="671" 
d="M67 729l-0.000976562 -478c0 -86 23.333 -153.333 70 -202c10.667 -11.333 20.667 -20.333 30 -27l24 -22c49.333 -47.333 114.333 -71 195 -71c85.333 0 151 23.833 197 71.5s69 114.5 69 200.5v475l-47 47v6h-53v-462c0 -77.333 -16.667 -136.333 -50 -177
c-37.333 -44 -92.666 -66 -165.999 -66c-56 0 -101 12 -135 36c-22.667 38.667 -34 91 -34 157v459l-47 47v6h-53zM109.999 719v-452c0 -168.667 75.333 -253 226 -253s226 84.333 226 253v452h33v-468c0 -84 -22.333 -149.167 -67 -195.5s-108.667 -69.5 -192 -69.5
s-147.333 23.167 -192 69.5s-67 111.5 -67 195.5v468h33zM227.999 866c0 -33.333 7.33301 -52.333 22 -57l43 -42c4 -4 9.33301 -6 16 -6c19.333 0 29 18.333 29 55c0 24 -4 40 -12 48l-41 41c-5.33301 12 -14 18 -26 18c-20.667 0 -31 -19 -31 -57zM381.999 868
c0 -34 7.66602 -53 22.999 -57l42 -41c4.66699 -4.66699 10.334 -7 17.001 -7c19.333 0 29 18.333 29 55c0 23.333 -4 39 -12 47l-40 40c-4.66699 12.667 -13.667 19 -27 19c-21.333 0 -32 -18.667 -32 -56zM391.998 868c0 30.667 7.33301 46 22 46s22 -15.333 22 -46
c0 -32 -7.33301 -48 -22 -48s-22 16 -22 48zM237.998 866c0 31.333 7 47 21 47c14.667 0 22 -15.667 22 -47c0 -32 -7.33301 -48 -22 -48c-14 0 -21 16 -21 48z" />
    <glyph glyph-name="Yacute" unicode="&#xdd;" horiz-adv-x="530" 
d="M238 -9h6l47 -47h47v319l253 413l-48 47l4 6h-63l-211 -345l-180 292l-40 40l-8 13h-62l255 -417v-321zM248 318l-247 401h38l227 -367l224 367h38l-247 -403v-316h-33v318zM190 779h9l47 -47h71l110 174l-48 47l4 6h-78zM311 949h53l-101 -160h-54z" />
    <glyph glyph-name="Thorn" unicode="&#xde;" horiz-adv-x="527" 
d="M173 676l-46.999 47v6h-54v-738h6l47 -47h48v188h152c129.333 0 204.666 36 225.999 108c6 20 9 50.333 9 91c0 44 -2.33301 74 -7 90c-7.33301 24.667 -18 43.667 -32 57l-31 30c-12 18 -25 31.333 -39 40c-39.333 24.667 -97 37 -173 37h-105v91zM82.001 0v719h34v-144
h162c71.333 0 127 -12 167 -36c24.667 -14.667 41.667 -38 51 -70c4.66699 -16 7 -45.333 7 -88c0 -39.333 -3 -69 -9 -89c-20.667 -68.667 -93.667 -103 -219 -103h-159v-189h-34zM116.001 219l137 -0.000976562c56 0 96.667 3 122 9c45.333 11.333 73.333 36 84 74
c6 20 9 49 9 87c0 32.667 -3 58.667 -9 78c-6.66699 22.667 -21 40.334 -43 53.001c-30.667 17.333 -84.667 26 -162 26h-138v-327zM173.001 488.999h131.001c63.333 0 111 -6.33301 143 -19l2 -6c6 -18 9 -43 9 -75c0 -36 -3 -64 -9 -84
c-10.667 -34 -36.334 -56.333 -77.001 -67c-23.333 -6 -63 -9 -119 -9h-80v260z" />
    <glyph glyph-name="germandbls" unicode="&#xdf;" horiz-adv-x="488" 
d="M59 -9l5.99707 0.000976562l47 -47h35v-13h6l47 -47l93 1c104.667 1.33301 172.334 51.333 203.001 150c11.333 37.333 17 70.333 17 99c0 52.667 -11.667 98.667 -35 138h-1c-3.33301 6 -7.66602 12.5 -12.999 19.5s-11.666 14.833 -18.999 23.5l-6 5l-1 1h1l-20 19
l-8 10.5c-2.66699 3.66699 -5.66699 7.16699 -9 10.5c46 28 69 74.667 69 140c0 58 -16 103 -48 135l-30 30c-33.333 48 -86 72 -158 72c-78.667 0 -132.667 -24.667 -162 -74h1c-10.667 -14.667 -16 -37.334 -16 -68.001zM213.997 331.001h68.001
c36 0 67.667 -7.66699 95 -23c22.667 -34.667 34 -76.334 34 -125.001c0 -58 -14 -105 -42 -141c-30.667 -38.667 -73.334 -58 -128.001 -58c-42.667 0 -69 -1.66699 -79 -5v4h-3v494c0 4 0.166992 8.83301 0.5 14.5s0.5 11.834 0.5 18.501s0.166992 12.834 0.5 18.501
s0.5 10.5 0.5 14.5v10c-0.666992 3.33301 -1 6.66602 -1 9.99902v3c0 24 13.667 43.667 41 59c22.667 12 51 18 85 18c26 0 48 -4 66 -12c11.333 -24 17 -51.333 17 -82c0 -82.667 -44.333 -124 -133 -124h-33c-4.66699 0 -8.66699 0.333008 -12 1h-30v-48h6z
M67.998 596.001c0 26 4.66797 46.6699 14.001 62.0029c28.667 46.667 79.667 70 153 70c56.667 0 100.667 -15.333 132 -46s47 -74.334 47 -131.001c0 -75.333 -32.667 -125 -98 -149c44.667 -10.667 80 -38.667 106 -84c22.667 -38.667 34 -83.334 34 -134.001
c0 -15.333 -1.5 -31.333 -4.5 -48s-7.16699 -33.167 -12.5 -49.5s-11.833 -32 -19.5 -47s-16.167 -27.833 -25.5 -38.5c-32.667 -38 -83 -57.667 -151 -59l-86 -1v32h1c-1.33301 0.666992 4 1 16 1h67c58.667 0 104 20.667 136 62c29.333 38.667 44 87.667 44 147
c0 30.667 -4.16699 58.667 -12.5 84s-20.5 47 -36.5 65s-35.833 31.833 -59.5 41.5s-50.5 14.5 -80.5 14.5h-61v28h33c7.33301 -0.666992 13.666 -1 18.999 -1h13c95.333 0 143 44.667 143 134c0 100.667 -47.667 151 -143 151c-33.333 0 -62.333 -6 -87 -18
c-32 -16 -47.333 -39 -46 -69c0.666992 -13.333 0.666992 -28.333 0 -45c-0.666992 -8.66699 -1 -16.334 -1 -23.001v-18v-527h-33zM438.999 320.004h1l-1 1v-1z" />
    <glyph glyph-name="agrave" unicode="&#xe0;" horiz-adv-x="572" 
d="M163 -8c40.667 -40.667 94.668 -61 162.001 -61c63.333 0 113.666 17 150.999 51l38 -38h45v532l-47 47v6h-51v-80l-9 9c-40 54.667 -99 82 -177 82c-80 0 -141 -28.333 -183 -85c-37.333 -51.333 -56 -117 -56 -197s18.667 -145.667 56 -197
c13.333 -18 28.333 -32.667 45 -44zM471.001 112c-32.667 -82.667 -98 -124.001 -196 -124.001c-76 0 -134.333 26.333 -175 79c-36 46.667 -54 110.334 -54 191.001c0 79.333 18 143 54 191c40 54 98.333 81 175 81c96.667 0 162 -43.333 196 -130v119h31v-519h-31v112z
M78.001 257.999c0 -70 14.999 -126.333 44.999 -169c34.667 -50 85.334 -75 152.001 -75s117 25 151 75c30 42.667 45 99 45 169c0 69.333 -15 125.666 -45 168.999c-34 50 -84.333 75 -151 75c-66 0 -116.333 -25 -151 -75c-30.667 -43.333 -46 -99.666 -46 -168.999z
M135 207.999c0 66 14.666 120.666 43.999 163.999c32.667 48.667 81.334 73 146.001 73c36 0 66.333 -7.33301 91 -22l2 -2c28.667 -41.333 43 -95.666 43 -162.999s-14 -121.333 -42 -162c-33.333 -48 -81.333 -72 -144 -72c-42 0 -76.667 9.66699 -104 29
c-24 40 -36 91.667 -36 155zM294.999 526.998h70l-111 174l-39 39l-9 14h-78l115 -180h5zM248.999 583.998l-102 160h53l102 -160h-53z" />
    <glyph glyph-name="aacute" unicode="&#xe1;" horiz-adv-x="572" 
d="M163 -8c40.667 -40.667 94.668 -61 162.001 -61c63.333 0 113.666 17 150.999 51l38 -38h45v532l-47 47v6h-51v-80l-9 9c-40 54.667 -99 82 -177 82c-80 0 -141 -28.333 -183 -85c-37.333 -51.333 -56 -117 -56 -197s18.667 -145.667 56 -197
c13.333 -18 28.333 -32.667 45 -44zM471.001 112c-32.667 -82.667 -98 -124.001 -196 -124.001c-76 0 -134.333 26.333 -175 79c-36 46.667 -54 110.334 -54 191.001c0 79.333 18 143 54 191c40 54 98.333 81 175 81c96.667 0 162 -43.333 196 -130v119h31v-519h-31v112z
M78.001 257.999c0 -70 14.999 -126.333 44.999 -169c34.667 -50 85.334 -75 152.001 -75s117 25 151 75c30 42.667 45 99 45 169c0 69.333 -15 125.666 -45 168.999c-34 50 -84.333 75 -151 75c-66 0 -116.333 -25 -151 -75c-30.667 -43.333 -46 -99.666 -46 -168.999z
M135 207.999c0 66 14.666 120.666 43.999 163.999c32.667 48.667 81.334 73 146.001 73c36 0 66.333 -7.33301 91 -22l2 -2c28.667 -41.333 43 -95.666 43 -162.999s-14 -121.333 -42 -162c-33.333 -48 -81.333 -72 -144 -72c-42 0 -76.667 9.66699 -104 29
c-24 40 -36 91.667 -36 155zM170.999 573.998h9l47 -47h71l110 174l-48 47l4 6h-78zM291.999 743.998h53l-101 -160h-54z" />
    <glyph glyph-name="acircumflex" unicode="&#xe2;" horiz-adv-x="572" 
d="M163 -8c40.667 -40.667 94.668 -61 162.001 -61c63.333 0 113.666 17 150.999 51l38 -38h45v532l-47 47v6h-51v-80l-9 9c-40 54.667 -99 82 -177 82c-80 0 -141 -28.333 -183 -85c-37.333 -51.333 -56 -117 -56 -197s18.667 -145.667 56 -197
c13.333 -18 28.333 -32.667 45 -44zM471.001 112c-32.667 -82.667 -98 -124.001 -196 -124.001c-76 0 -134.333 26.333 -175 79c-36 46.667 -54 110.334 -54 191.001c0 79.333 18 143 54 191c40 54 98.333 81 175 81c96.667 0 162 -43.333 196 -130v119h31v-519h-31v112z
M78.001 257.999c0 -70 14.999 -126.333 44.999 -169c34.667 -50 85.334 -75 152.001 -75s117 25 151 75c30 42.667 45 99 45 169c0 69.333 -15 125.666 -45 168.999c-34 50 -84.333 75 -151 75c-66 0 -116.333 -25 -151 -75c-30.667 -43.333 -46 -99.666 -46 -168.999z
M135 207.999c0 66 14.666 120.666 43.999 163.999c32.667 48.667 81.334 73 146.001 73c36 0 66.333 -7.33301 91 -22l2 -2c28.667 -41.333 43 -95.666 43 -162.999s-14 -121.333 -42 -162c-33.333 -48 -81.333 -72 -144 -72c-42 0 -76.667 9.66699 -104 29
c-24 40 -36 91.667 -36 155zM125.999 573.998h9l47 -47h55l70 108l43 -66h4l48 -47l52 6l-107 173l-40 39l-8 14h-60zM244.999 743.998h48l99 -160l-36 -4l-87 136l-86 -132h-38z" />
    <glyph glyph-name="atilde" unicode="&#xe3;" horiz-adv-x="572" 
d="M163 -8c40.667 -40.667 94.668 -61 162.001 -61c63.333 0 113.666 17 150.999 51l38 -38h45v532l-47 47v6h-51v-80l-9 9c-40 54.667 -99 82 -177 82c-80 0 -141 -28.333 -183 -85c-37.333 -51.333 -56 -117 -56 -197s18.667 -145.667 56 -197
c13.333 -18 28.333 -32.667 45 -44zM471.001 112c-32.667 -82.667 -98 -124.001 -196 -124.001c-76 0 -134.333 26.333 -175 79c-36 46.667 -54 110.334 -54 191.001c0 79.333 18 143 54 191c40 54 98.333 81 175 81c96.667 0 162 -43.333 196 -130v119h31v-519h-31v112z
M78.001 257.999c0 -70 14.999 -126.333 44.999 -169c34.667 -50 85.334 -75 152.001 -75s117 25 151 75c30 42.667 45 99 45 169c0 69.333 -15 125.666 -45 168.999c-34 50 -84.333 75 -151 75c-66 0 -116.333 -25 -151 -75c-30.667 -43.333 -46 -99.666 -46 -168.999z
M135 207.999c0 66 14.666 120.666 43.999 163.999c32.667 48.667 81.334 73 146.001 73c36 0 66.333 -7.33301 91 -22l2 -2c28.667 -41.333 43 -95.666 43 -162.999s-14 -121.333 -42 -162c-33.333 -48 -81.333 -72 -144 -72c-42 0 -76.667 9.66699 -104 29
c-24 40 -36 91.667 -36 155zM376.999 723.998c-0.666992 -0.666992 -1.66797 -3.00391 -3.00098 -7.00391l-4 -10c-1.33301 -2 -2.66602 -5.66699 -3.99902 -11c-3.33301 -7.33301 -7.33301 -16.666 -12 -27.999v1c-8.66699 -14.667 -19 -22 -31 -22
c-8 0 -23.667 10.667 -47 32c-28 26 -48.333 39 -61 39c-26.667 0 -54.667 -28.667 -84 -86l31 -31c0 1.33301 0.333008 2.33301 1 3l48 -48c22.667 42 40.667 63.333 54 64h1c6.66699 0 19.334 -9.33301 38.001 -28l5 -5c25.333 -26 46.666 -38.333 63.999 -37
c20 0.666992 36 8.66699 48 24l1 1c4 6.66699 9 15.667 15 27c0.666992 1.33301 1.5 2.83301 2.5 4.5s2.16699 3.83398 3.5 6.50098l2 2c1.33301 2.66699 2.83301 5.33398 4.5 8.00098s3.16699 5.33398 4.5 8.00098l-26 37l-39 39zM394.998 680.994l-14 -25l-15 -27
c-10.667 -14 -25 -21.333 -43 -22c-10.667 0 -30.667 11.667 -60 35c-28 24 -44 35.667 -48 35c-17.333 -1.33301 -36 -21 -56 -59l-16 16c25.333 49.333 49.333 74 72 74c9.33301 0 27 -12 53 -36c26.667 -23.333 45 -35 55 -35c16.667 0 30 9 40 27l8 19.5
c2.66699 6.33301 5.66699 12.5 9 18.5z" />
    <glyph glyph-name="adieresis" unicode="&#xe4;" horiz-adv-x="572" 
d="M163 -8c40.667 -40.667 94.668 -61 162.001 -61c63.333 0 113.666 17 150.999 51l38 -38h45v532l-47 47v6h-51v-80l-9 9c-40 54.667 -99 82 -177 82c-80 0 -141 -28.333 -183 -85c-37.333 -51.333 -56 -117 -56 -197s18.667 -145.667 56 -197
c13.333 -18 28.333 -32.667 45 -44zM471.001 112c-32.667 -82.667 -98 -124.001 -196 -124.001c-76 0 -134.333 26.333 -175 79c-36 46.667 -54 110.334 -54 191.001c0 79.333 18 143 54 191c40 54 98.333 81 175 81c96.667 0 162 -43.333 196 -130v119h31v-519h-31v112z
M78.001 257.999c0 -70 14.999 -126.333 44.999 -169c34.667 -50 85.334 -75 152.001 -75s117 25 151 75c30 42.667 45 99 45 169c0 69.333 -15 125.666 -45 168.999c-34 50 -84.333 75 -151 75c-66 0 -116.333 -25 -151 -75c-30.667 -43.333 -46 -99.666 -46 -168.999z
M135 207.999c0 66 14.666 120.666 43.999 163.999c32.667 48.667 81.334 73 146.001 73c36 0 66.333 -7.33301 91 -22l2 -2c28.667 -41.333 43 -95.666 43 -162.999s-14 -121.333 -42 -162c-33.333 -48 -81.333 -72 -144 -72c-42 0 -76.667 9.66699 -104 29
c-24 40 -36 91.667 -36 155zM160.999 660.998c0 -33.333 7.33301 -52.333 22 -57l43 -42c4 -4 9.33301 -6 16 -6c19.333 0 29 18.333 29 55c0 24 -4 40 -12 48l-41 41c-5.33301 12 -14 18 -26 18c-20.667 0 -31 -19 -31 -57zM314.999 662.998c0 -34 7.66602 -53 22.999 -57
l42 -41c4.66699 -4.66699 10.334 -7 17.001 -7c19.333 0 29 18.333 29 55c0 23.333 -4 39 -12 47l-40 40c-4.66699 12.667 -13.667 19 -27 19c-21.333 0 -32 -18.667 -32 -56zM324.998 662.998c0 30.667 7.33301 46 22 46s22 -15.333 22 -46c0 -32 -7.33301 -48 -22 -48
s-22 16 -22 48zM170.998 660.998c0 31.333 7 47 21 47c14.667 0 22 -15.667 22 -47c0 -32 -7.33301 -48 -22 -48c-14 0 -21 16 -21 48z" />
    <glyph glyph-name="aring" unicode="&#xe5;" horiz-adv-x="572" 
d="M160 665c0 -47.333 18.334 -81.334 55.001 -102.001l25 -25c-68.667 -6.66699 -121 -38.667 -157 -96c-31.333 -49.333 -47 -110.666 -47 -183.999c0 -80 18.667 -145.667 56 -197c13.333 -18 28.333 -32.667 45 -44l26 -25c40.667 -40.667 94.667 -61 162 -61
c63.333 0 113.666 17 150.999 51l38 -38h45v532l-47 47v6h-51v-80l-9 9c-15.333 22 -36.333 40.667 -63 56c37.333 20 56 53.667 56 101c0 34 -11 61.667 -33 83l-31 30c-21.333 37.333 -55.333 56 -102 56c-34.667 0 -63.167 -11.167 -85.5 -33.5
s-33.5 -50.833 -33.5 -85.5zM471.001 111.999c-32.667 -82.667 -98 -124.001 -196 -124.001c-76 0 -134.333 26.333 -175 79c-36 46.667 -54 110.334 -54 191.001c0 79.333 18 143 54 191c40 54 98.333 81 175 81c96.667 0 162 -43.333 196 -130v119h31v-519h-31v112z
M78.001 257.998c0 -70 14.999 -126.333 44.999 -169c34.667 -50 85.334 -75 152.001 -75s117 25 151 75c30 42.667 45 99 45 169c0 69.333 -15 125.666 -45 168.999c-34 50 -84.333 75 -151 75c-66 0 -116.333 -25 -151 -75c-30.667 -43.333 -46 -99.666 -46 -168.999z
M135 207.998c0 66 14.666 120.666 43.999 163.999c32.667 48.667 81.334 73 146.001 73c36 0 66.333 -7.33301 91 -22l2 -2c28.667 -41.333 43 -95.666 43 -162.999s-14 -121.333 -42 -162c-33.333 -48 -81.333 -72 -144 -72c-42 0 -76.667 9.66699 -104 29
c-24 40 -36 91.667 -36 155zM169.999 664.997c0 32 10.167 58.167 30.5 78.5s46.5 30.5 78.5 30.5s58.167 -10.167 78.5 -30.5s30.5 -46.5 30.5 -78.5s-10.167 -58.167 -30.5 -78.5s-46.5 -30.5 -78.5 -30.5s-58.167 10.167 -78.5 30.5s-30.5 46.5 -30.5 78.5z
M197.999 665.997c0 -23.333 7.66895 -42.8311 23.002 -58.498s34.666 -23.5 57.999 -23.5s42.666 7.83301 57.999 23.5s23 35.167 23 58.5s-7.66699 42.666 -23 57.999s-34.666 23 -57.999 23c-22.667 0 -41.834 -7.83301 -57.501 -23.5s-23.5 -34.834 -23.5 -57.501z
M255.001 615.999c0 20.667 7.16797 38.167 21.501 52.5s31.833 21.5 52.5 21.5c2.66699 0 5.5 -0.166992 8.5 -0.5s6.16699 -0.833008 9.5 -1.5c2 -7.33301 3 -14.666 3 -21.999c0 -20.667 -6.66699 -37.834 -20 -51.501s-30.333 -20.5 -51 -20.5
c-8.66699 0 -16.334 1 -23.001 3c-0.666992 2 -1 5 -1 9v10z" />
    <glyph glyph-name="ae" unicode="&#xe6;" horiz-adv-x="944" 
d="M903 169l-40 0.000976562c-11.333 -42 -31.666 -75.5 -60.999 -100.5s-65.333 -37.5 -108 -37.5c-35.333 0 -66 9 -92 27c-25.333 41.333 -38 90.333 -38 147v1h405v26c0 90.667 -24.333 159.334 -73 206.001l-25 24c-0.666992 1.33301 -1.16699 2.16602 -1.5 2.49902
s-0.833008 1.16602 -1.5 2.49902c-39.333 53.333 -97.333 80 -174 80c-60.667 0 -110.667 -18.667 -150 -56l-32 32v6h-51v-80l-9 9c-40 54.667 -99 82 -177 82c-80 0 -141 -28.333 -183 -85c-37.333 -51.333 -56 -117 -56 -197s18.667 -145.667 56 -197
c13.333 -18 28.333 -32.667 45 -44l26 -25c40.667 -40.667 94.667 -61 162 -61c63.333 0 113.666 17 150.999 51l38 -38h45v81c2 -2 4.33301 -3.66699 7 -5l26 -25c38 -38 88.667 -57 152 -57c54.667 0 101.167 14.667 139.5 44s63.5 71 75.5 125l-7 9l-40 40v1z
M902 159.001c-11.333 -52 -35.332 -92.335 -71.999 -121.002s-82 -43 -136 -43c-74 0 -130.333 27 -169 81c-10.667 14.667 -18.334 28.667 -23.001 42v-118h-31v112c-32.667 -82.667 -98 -124 -196 -124c-76 0 -134.333 26.333 -175 79c-36 46.667 -54 110.334 -54 191.001
c0 79.333 18 143 54 191c40 54 98.333 81 175 81c96.667 0 162 -43.333 196 -130v119h31v-107c3.33301 7.33301 6.83301 14.333 10.5 21s7.83398 13.334 12.501 20.001c38.667 56 95 84 169 84c72 0 127.333 -25.333 166 -76c34.667 -44.667 52 -104.334 52 -179.001v-19
h-405v-8c0 -64 15 -117.333 45 -160c34 -49.333 81.333 -74 142 -74c44 0 81.667 12.333 113 37s52.666 58.334 63.999 101.001h31zM78.001 257.999c0 -70 14.999 -126.333 44.999 -169c34.667 -50 85.334 -75 152.001 -75s117 25 151 75c30 42.667 45 99 45 169
c0 69.333 -15 125.666 -45 168.999c-34 50 -84.333 75 -151 75c-66 0 -116.333 -25 -151 -75c-30.667 -43.333 -46 -99.666 -46 -168.999zM135 207.999c0 66 14.666 120.666 43.999 163.999c32.667 48.667 81.334 73 146.001 73c36 0 66.333 -7.33301 91 -22l2 -2
c28.667 -41.333 43 -95.666 43 -162.999s-14 -121.333 -42 -162c-33.333 -48 -81.333 -72 -144 -72c-42 0 -76.667 9.66699 -104 29c-24 40 -36 91.667 -36 155zM877.999 291.998c0 60 -14.333 109.667 -43 149c-33.333 45.333 -78.333 68 -135 68c-60 0 -107 -22 -141 -66
c-30 -38 -47 -88.333 -51 -151h370zM613.999 388.998c32.667 42 78.001 63 136.001 63c29.333 0 55.666 -6.66699 78.999 -20c23.333 -34 36.333 -77.333 39 -130h-296c8 32 22 61 42 87z" />
    <glyph glyph-name="ccedilla" unicode="&#xe7;" horiz-adv-x="519" 
d="M472 134l-39.999 22.998c-10 -39.333 -28.667 -71.333 -56 -96c-28.667 -24.667 -63.334 -37 -104.001 -37s-75 10 -103 30c-24 40.667 -36 92 -36 154c0 68 14.333 122.667 43 164c32.667 48.667 81.334 73 146.001 73c32 0 59.333 -6.33301 82 -19
c2 -3.33301 4.66699 -8.5 8 -15.5s7.33301 -16.167 12 -27.5l4 2l48 -47l40 26c-10.667 28.667 -25.334 51.667 -44.001 69l-29 28c-36.667 52.667 -93.667 79 -171 79c-79.333 0 -140 -28.667 -182 -86c-37.333 -51.333 -56 -116.666 -56 -195.999s18.333 -144.333 55 -195
c13.333 -19.333 29.333 -35.666 48 -48.999l26 -24c41.333 -39.333 93.333 -59 156 -59c60 0 108.333 16.333 145 49c27.333 23.333 47 54.333 59 93l-3 8l-45 45zM466.001 124.998c-28 -91.333 -93.667 -137 -197 -137c-76 0 -133.333 27 -172 81
c-35.333 48.667 -53 111.667 -53 189s18 140.666 54 189.999c40 54.667 98 82 174 82c94 0 155.667 -37.667 185 -113l-27 -18c-11.333 32.667 -31.5 58 -60.5 76s-61.5 27 -97.5 27c-66.667 0 -117 -25 -151 -75c-30 -43.333 -45 -99.666 -45 -168.999
c0 -70 15 -126.333 45 -169c34 -50 84.333 -75 151 -75c42 0 77.833 11.167 107.5 33.5s49.5 53.5 59.5 93.5zM242.001 -225.002h6.00098l47 -47h41c70.667 0 106 30 106 90c0 24 -6.66699 42.667 -20 56l-36 36c-10 19.333 -28 32 -54 38v10l-47 46v6h-45v-101h6l47 -47h54
c-0.666992 -26.667 -20.334 -40 -59.001 -40h-46v-47zM252.002 -188.002h36c46 0 69 17 69 51c0 37.333 -26.333 56 -79 56h-28v81h25v-57h12c65.333 0 98 -25 98 -75c0 -55.333 -33 -83 -99 -83h-34v27z" />
    <glyph glyph-name="egrave" unicode="&#xe8;" horiz-adv-x="523" 
d="M473 122l-44.999 24.0039c-31.333 -81.333 -86.333 -122 -165 -122c-35.333 0 -66 9 -92 27c-25.333 41.333 -38 90.333 -38 147v1h405v26c0 77.333 -17.667 138.666 -53 183.999l-18 21l-27 26c-0.666992 1.33301 -1.16699 2.16602 -1.5 2.49902
s-0.833008 1.16602 -1.5 2.49902c-38.667 52.667 -96.667 79 -174 79c-76.667 0 -135.334 -29 -176.001 -87c-36 -50 -54 -115 -54 -195c0 -77.333 17.667 -142.333 53 -195c7.33301 -10.667 15.333 -20.334 24 -29.001s18 -16.334 28 -23.001l24 -23
c38 -38 88.333 -57 151 -57c54 0 100 15 138 45v1c30 23.333 52.667 54.666 68 93.999l-48 47c0.666992 0.666992 1 1.33398 1 2.00098s0.333008 1.33398 1 2.00098zM263.001 -11.9961c-74.667 0 -131.333 27.333 -170 82c-33.333 47.333 -50 110 -50 188
c0 76 17 138.667 51 188c38.667 56 95 84 169 84c72.667 0 128 -25 166 -75c34.667 -44.667 52 -104.667 52 -180v-19h-405v-8c0 -64 15 -117.333 45 -160c34 -49.333 81.333 -74 142 -74c84 0 141 39.333 171 118l26 -14c-16 -42 -41.333 -74.167 -76 -96.5
s-75 -33.5 -121 -33.5zM447.002 285.004c0 60.667 -14.333 110.667 -43 150c-32 44.667 -77 67 -135 67c-60.667 0 -107.667 -21.667 -141 -65c-30 -38 -47 -88.667 -51 -152h370zM184.002 383.004l-0.998047 0.000976562c33.333 41.333 78.666 62 135.999 62
c29.333 0 55.666 -6.66699 78.999 -20c23.333 -34 36.333 -77.333 39 -130h-295c10 35.333 24 64.666 42 87.999zM315.004 527.005h70l-111 174l-39 39l-9 14h-78l115 -180h5zM269.004 584.005l-102 160h53l102 -160h-53z" />
    <glyph glyph-name="eacute" unicode="&#xe9;" horiz-adv-x="523" 
d="M473 122l-44.999 24.0039c-31.333 -81.333 -86.333 -122 -165 -122c-35.333 0 -66 9 -92 27c-25.333 41.333 -38 90.333 -38 147v1h405v26c0 77.333 -17.667 138.666 -53 183.999l-18 21l-27 26c-0.666992 1.33301 -1.16699 2.16602 -1.5 2.49902
s-0.833008 1.16602 -1.5 2.49902c-38.667 52.667 -96.667 79 -174 79c-76.667 0 -135.334 -29 -176.001 -87c-36 -50 -54 -115 -54 -195c0 -77.333 17.667 -142.333 53 -195c7.33301 -10.667 15.333 -20.334 24 -29.001s18 -16.334 28 -23.001l24 -23
c38 -38 88.333 -57 151 -57c54 0 100 15 138 45v1c30 23.333 52.667 54.666 68 93.999l-48 47c0.666992 0.666992 1 1.33398 1 2.00098s0.333008 1.33398 1 2.00098zM263.001 -11.9961c-74.667 0 -131.333 27.333 -170 82c-33.333 47.333 -50 110 -50 188
c0 76 17 138.667 51 188c38.667 56 95 84 169 84c72.667 0 128 -25 166 -75c34.667 -44.667 52 -104.667 52 -180v-19h-405v-8c0 -64 15 -117.333 45 -160c34 -49.333 81.333 -74 142 -74c84 0 141 39.333 171 118l26 -14c-16 -42 -41.333 -74.167 -76 -96.5
s-75 -33.5 -121 -33.5zM447.002 285.004c0 60.667 -14.333 110.667 -43 150c-32 44.667 -77 67 -135 67c-60.667 0 -107.667 -21.667 -141 -65c-30 -38 -47 -88.667 -51 -152h370zM184.002 383.004l-0.998047 0.000976562c33.333 41.333 78.666 62 135.999 62
c29.333 0 55.666 -6.66699 78.999 -20c23.333 -34 36.333 -77.333 39 -130h-295c10 35.333 24 64.666 42 87.999zM191.004 574.005h9l47 -47h71l110 174l-48 47l4 6h-78zM312.004 744.005h53l-101 -160h-54z" />
    <glyph glyph-name="ecircumflex" unicode="&#xea;" horiz-adv-x="523" 
d="M473 122l-44.999 24.0039c-31.333 -81.333 -86.333 -122 -165 -122c-35.333 0 -66 9 -92 27c-25.333 41.333 -38 90.333 -38 147v1h405v26c0 77.333 -17.667 138.666 -53 183.999l-18 21l-27 26c-0.666992 1.33301 -1.16699 2.16602 -1.5 2.49902
s-0.833008 1.16602 -1.5 2.49902c-38.667 52.667 -96.667 79 -174 79c-76.667 0 -135.334 -29 -176.001 -87c-36 -50 -54 -115 -54 -195c0 -77.333 17.667 -142.333 53 -195c7.33301 -10.667 15.333 -20.334 24 -29.001s18 -16.334 28 -23.001l24 -23
c38 -38 88.333 -57 151 -57c54 0 100 15 138 45v1c30 23.333 52.667 54.666 68 93.999l-48 47c0.666992 0.666992 1 1.33398 1 2.00098s0.333008 1.33398 1 2.00098zM263.001 -11.9961c-74.667 0 -131.333 27.333 -170 82c-33.333 47.333 -50 110 -50 188
c0 76 17 138.667 51 188c38.667 56 95 84 169 84c72.667 0 128 -25 166 -75c34.667 -44.667 52 -104.667 52 -180v-19h-405v-8c0 -64 15 -117.333 45 -160c34 -49.333 81.333 -74 142 -74c84 0 141 39.333 171 118l26 -14c-16 -42 -41.333 -74.167 -76 -96.5
s-75 -33.5 -121 -33.5zM447.002 285.004c0 60.667 -14.333 110.667 -43 150c-32 44.667 -77 67 -135 67c-60.667 0 -107.667 -21.667 -141 -65c-30 -38 -47 -88.667 -51 -152h370zM184.002 383.004l-0.998047 0.000976562c33.333 41.333 78.666 62 135.999 62
c29.333 0 55.666 -6.66699 78.999 -20c23.333 -34 36.333 -77.333 39 -130h-295c10 35.333 24 64.666 42 87.999zM123.004 574.005h9l47 -47h55l70 108l43 -66h4l48 -47l52 6l-107 173l-40 39l-8 14h-60zM242.004 744.005h48l99 -160l-36 -4l-87 136l-86 -132h-38z" />
    <glyph glyph-name="edieresis" unicode="&#xeb;" horiz-adv-x="523" 
d="M473 122l-44.999 24.0039c-31.333 -81.333 -86.333 -122 -165 -122c-35.333 0 -66 9 -92 27c-25.333 41.333 -38 90.333 -38 147v1h405v26c0 77.333 -17.667 138.666 -53 183.999l-18 21l-27 26c-0.666992 1.33301 -1.16699 2.16602 -1.5 2.49902
s-0.833008 1.16602 -1.5 2.49902c-38.667 52.667 -96.667 79 -174 79c-76.667 0 -135.334 -29 -176.001 -87c-36 -50 -54 -115 -54 -195c0 -77.333 17.667 -142.333 53 -195c7.33301 -10.667 15.333 -20.334 24 -29.001s18 -16.334 28 -23.001l24 -23
c38 -38 88.333 -57 151 -57c54 0 100 15 138 45v1c30 23.333 52.667 54.666 68 93.999l-48 47c0.666992 0.666992 1 1.33398 1 2.00098s0.333008 1.33398 1 2.00098zM263.001 -11.9961c-74.667 0 -131.333 27.333 -170 82c-33.333 47.333 -50 110 -50 188
c0 76 17 138.667 51 188c38.667 56 95 84 169 84c72.667 0 128 -25 166 -75c34.667 -44.667 52 -104.667 52 -180v-19h-405v-8c0 -64 15 -117.333 45 -160c34 -49.333 81.333 -74 142 -74c84 0 141 39.333 171 118l26 -14c-16 -42 -41.333 -74.167 -76 -96.5
s-75 -33.5 -121 -33.5zM447.002 285.004c0 60.667 -14.333 110.667 -43 150c-32 44.667 -77 67 -135 67c-60.667 0 -107.667 -21.667 -141 -65c-30 -38 -47 -88.667 -51 -152h370zM184.002 383.004l-0.998047 0.000976562c33.333 41.333 78.666 62 135.999 62
c29.333 0 55.666 -6.66699 78.999 -20c23.333 -34 36.333 -77.333 39 -130h-295c10 35.333 24 64.666 42 87.999zM158.004 661.005c0 -33.333 7.33301 -52.333 22 -57l43 -42c4 -4 9.33301 -6 16 -6c19.333 0 29 18.333 29 55c0 24 -4 40 -12 48l-41 41
c-5.33301 12 -14 18 -26 18c-20.667 0 -31 -19 -31 -57zM312.004 663.005c0 -34 7.66602 -53 22.999 -57l42 -41c4.66699 -4.66699 10.334 -7 17.001 -7c19.333 0 29 18.333 29 55c0 23.333 -4 39 -12 47l-40 40c-4.66699 12.667 -13.667 19 -27 19
c-21.333 0 -32 -18.667 -32 -56zM322.003 663.005c0 30.667 7.33301 46 22 46s22 -15.333 22 -46c0 -32 -7.33301 -48 -22 -48s-22 16 -22 48zM168.003 661.005c0 31.333 7 47 21 47c14.667 0 22 -15.667 22 -47c0 -32 -7.33301 -48 -22 -48c-14 0 -21 16 -21 48z" />
    <glyph glyph-name="igrave" unicode="&#xec;" horiz-adv-x="175" 
d="M62 -9h6l47 -47h45v532l-47 47v6h-51v-538zM72 519h31v-519h-31v519zM139 527h70l-111 174l-39 39l-9 14h-78l115 -180h5zM93 584l-102 160h53l102 -160h-53z" />
    <glyph glyph-name="iacute" unicode="&#xed;" horiz-adv-x="175" 
d="M62 -9h6l47 -47h45v532l-47 47v6h-51v-538zM72 519h31v-519h-31v519zM15 574h9l47 -47h71l110 174l-48 47l4 6h-78zM136 744h53l-101 -160h-54z" />
    <glyph glyph-name="icircumflex" unicode="&#xee;" horiz-adv-x="175" 
d="M62 -9h6l47 -47h45v532l-47 47v6h-51v-538zM72 519h31v-519h-31v519zM-53 574h9l47 -47h55l70 108l43 -66h4l48 -47l52 6l-107 173l-40 39l-8 14h-60zM66 744h48l99 -160l-36 -4l-87 136l-86 -132h-38z" />
    <glyph glyph-name="idieresis" unicode="&#xef;" horiz-adv-x="175" 
d="M62 -9h6l47 -47h45v532l-47 47v6h-51v-538zM72 519h31v-519h-31v519zM-18 661c0 -33.333 7.33301 -52.333 22 -57l43 -42c4 -4 9.33301 -6 16 -6c19.333 0 29 18.333 29 55c0 24 -4 40 -12 48l-41 41c-5.33301 12 -14 18 -26 18c-20.667 0 -31 -19 -31 -57zM136 663
c0 -34 7.66602 -53 22.999 -57l42 -41c4.66699 -4.66699 10.334 -7 17.001 -7c19.333 0 29 18.333 29 55c0 23.333 -4 39 -12 47l-40 40c-4.66699 12.667 -13.667 19 -27 19c-21.333 0 -32 -18.667 -32 -56zM145.999 663c0 30.667 7.33301 46 22 46s22 -15.333 22 -46
c0 -32 -7.33301 -48 -22 -48s-22 16 -22 48zM-8.00098 661c0 31.333 7 47 21 47c14.667 0 22 -15.667 22 -47c0 -32 -7.33301 -48 -22 -48c-14 0 -21 16 -21 48z" />
    <glyph glyph-name="eth" unicode="&#xf0;" 
d="M444 724l-77 -55.999c-38 26 -81.333 39 -130 39c-58 0 -103.333 -17.333 -136 -52c-30 -32 -48.667 -77.333 -56 -136h6l47 -47h46c12.667 88 59.667 133.667 141 137l-71 -52l27 -40l3 2l48 -48l104 76c21.333 -52 33 -116.333 35 -193l-21 20
c-36 51.333 -89.333 77 -160 77c-68 0 -121.333 -23.333 -160 -70c-35.333 -43.333 -53 -100 -53 -170c0 -66 18 -122 54 -168c12.667 -16 25.334 -28.333 38.001 -37l28 -26c37.333 -36.667 84.666 -55 141.999 -55c155.333 0 233 116 233 348
c0 145.333 -27.667 249.666 -83 312.999l70 51l-26 33l-33 33zM459 688.001l-69.999 -51c57.333 -61.333 86 -166 86 -314c0 -227.333 -75.333 -341 -226 -341c-64.667 0 -115 22.333 -151 67c-34 42 -51 96 -51 162c0 67.333 16.667 121.666 50 162.999
c36 44.667 87 67 153 67c100.667 0 164 -53.333 190 -160c0.666992 2.66699 1 5.66699 1 9v11v30c0 138.667 -25.667 234.667 -77 288l-120 -88l-16 23l114 83c-27.333 19.333 -60.333 29 -99 29c-90 0 -141.667 -45.667 -155 -137h-32
c5.33301 52.667 23.666 93.834 54.999 123.501s73.333 44.5 126 44.5c52 0 95.667 -13.667 131 -41l74 54zM82.001 211.001c0 -58 14.333 -104.666 43 -139.999c31.333 -39.333 75 -59 131 -59c55.333 0 97.333 20.333 126 61c26.667 36.667 40 83 40 139
c0 57.333 -14 104 -42 140c-31.333 39.333 -74.333 59 -129 59c-56 0 -99 -20 -129 -60c-26.667 -34.667 -40 -81.334 -40 -140.001zM139.001 161.002c0 55.333 12.667 100.331 38 134.998c28.667 38.667 70 58 124 58c28 0 53.667 -6 77 -18
c22.667 -35.333 34 -76.666 34 -123.999c0 -53.333 -12.333 -97.333 -37 -132c-28 -38.667 -67.667 -58 -119 -58c-36 0 -66.667 8.66699 -92 26c-16.667 30.667 -25 68.334 -25 113.001z" />
    <glyph glyph-name="ntilde" unicode="&#xf1;" 
d="M59 -9h6.00098l47 -47h46v284c0 19.333 0.5 36.5 1.5 51.5s2.16699 27.5 3.5 37.5c14 84.667 68.667 127 164 127c21.333 0 43.666 -4 66.999 -12c12 -24 18 -56.667 18 -98v-343h6l47 -47h46v350c0 66.667 -16 115.667 -48 147l-30 29c-30 46.667 -82.333 70 -157 70
c-56.667 0 -102.667 -14.667 -138 -44l-27 27v6h-52v-538zM69.001 519h31.999v-85c32.667 64 91 96 175 96c118.667 0 178 -62 178 -186v-344h-32v334c0 55.333 -10 96 -30 122c-23.333 30 -61.666 45 -114.999 45c-99.333 0 -156.333 -44.333 -171 -133
c-1.33301 -9.33301 -2.5 -21.5 -3.5 -36.5s-1.5 -32.833 -1.5 -53.5v-278h-32v519zM369 724c-0.666992 -0.666992 -1.66797 -3.00391 -3.00098 -7.00391l-4 -10c-1.33301 -2 -2.66602 -5.66699 -3.99902 -11c-3.33301 -7.33301 -7.33301 -16.666 -12 -27.999v1
c-8.66699 -14.667 -19 -22 -31 -22c-8 0 -23.667 10.667 -47 32c-28 26 -48.333 39 -61 39c-26.667 0 -54.667 -28.667 -84 -86l31 -31c0 1.33301 0.333008 2.33301 1 3l48 -48c22.667 42 40.667 63.333 54 64h1c6.66699 0 19.334 -9.33301 38.001 -28l5 -5
c25.333 -26 46.666 -38.333 63.999 -37c20 0.666992 36 8.66699 48 24l1 1c4 6.66699 9 15.667 15 27c0.666992 1.33301 1.5 2.83301 2.5 4.5s2.16699 3.83398 3.5 6.50098l2 2c1.33301 2.66699 2.83301 5.33398 4.5 8.00098s3.16699 5.33398 4.5 8.00098l-26 37l-39 39z
M386.999 680.996l-14 -25l-15 -27c-10.667 -14 -25 -21.333 -43 -22c-10.667 0 -30.667 11.667 -60 35c-28 24 -44 35.667 -48 35c-17.333 -1.33301 -36 -21 -56 -59l-16 16c25.333 49.333 49.333 74 72 74c9.33301 0 27 -12 53 -36c26.667 -23.333 45 -35 55 -35
c16.667 0 30 9 40 27l8 19.5c2.66699 6.33301 5.66699 12.5 9 18.5z" />
    <glyph glyph-name="ograve" unicode="&#xf2;" horiz-adv-x="545" 
d="M34 258c0 -80 18.667 -145.67 56 -197.003c13.333 -18 28.333 -32.667 45 -44l26 -25c40.667 -40.667 94.334 -61 161.001 -61c79.333 0 139.666 27 180.999 81c36.667 48.667 55 114 55 196c0 94.667 -25.667 167.667 -77 219l-23 23
c-0.666992 0.666992 -1.16699 1.33398 -1.5 2.00098s-0.833008 1.33398 -1.5 2.00098c-41.333 57.333 -102.333 86 -183 86c-79.333 0 -140 -28.667 -182 -86c-37.333 -51.333 -56 -116.666 -56 -195.999zM44 257.997c0 77.333 18.001 140.669 54.001 190.002
c40 54.667 98 82 174 82c75.333 0 133.666 -27 174.999 -81c36 -49.333 54 -113 54 -191c0 -80.667 -18 -144.334 -54 -191.001c-40.667 -52.667 -99 -79 -175 -79c-76.667 0 -135 26.667 -175 80c-35.333 47.333 -53 110.666 -53 189.999zM76.001 258
c0 -70 15 -126.333 45 -169c34 -50 84.333 -75 151 -75c66 0 116.667 25 152 75c30 42.667 45 99 45 169c0 69.333 -15 125.666 -45 168.999c-35.333 50 -86 75 -152 75c-66.667 0 -117 -25 -151 -75c-30 -43.333 -45 -99.666 -45 -168.999zM133.001 208
c0 68 14.3311 122.666 42.998 163.999c32.667 48.667 81.334 73 146.001 73c34.667 0 65.667 -7.66699 93 -23v-1h1c28.667 -41.333 43 -95.666 43 -162.999s-14 -121.333 -42 -162c-33.333 -48 -81.666 -72 -144.999 -72c-40.667 0 -75 10 -103 30
c-24 40.667 -36 92 -36 154zM321.999 526.999h70l-111 174l-39 39l-9 14h-78l115 -180h5zM275.999 583.999l-102 160h53l102 -160h-53z" />
    <glyph glyph-name="oacute" unicode="&#xf3;" horiz-adv-x="545" 
d="M34 258c0 -80 18.667 -145.67 56 -197.003c13.333 -18 28.333 -32.667 45 -44l26 -25c40.667 -40.667 94.334 -61 161.001 -61c79.333 0 139.666 27 180.999 81c36.667 48.667 55 114 55 196c0 94.667 -25.667 167.667 -77 219l-23 23
c-0.666992 0.666992 -1.16699 1.33398 -1.5 2.00098s-0.833008 1.33398 -1.5 2.00098c-41.333 57.333 -102.333 86 -183 86c-79.333 0 -140 -28.667 -182 -86c-37.333 -51.333 -56 -116.666 -56 -195.999zM44 257.997c0 77.333 18.001 140.669 54.001 190.002
c40 54.667 98 82 174 82c75.333 0 133.666 -27 174.999 -81c36 -49.333 54 -113 54 -191c0 -80.667 -18 -144.334 -54 -191.001c-40.667 -52.667 -99 -79 -175 -79c-76.667 0 -135 26.667 -175 80c-35.333 47.333 -53 110.666 -53 189.999zM76.001 258
c0 -70 15 -126.333 45 -169c34 -50 84.333 -75 151 -75c66 0 116.667 25 152 75c30 42.667 45 99 45 169c0 69.333 -15 125.666 -45 168.999c-35.333 50 -86 75 -152 75c-66.667 0 -117 -25 -151 -75c-30 -43.333 -45 -99.666 -45 -168.999zM133.001 208
c0 68 14.3311 122.666 42.998 163.999c32.667 48.667 81.334 73 146.001 73c34.667 0 65.667 -7.66699 93 -23v-1h1c28.667 -41.333 43 -95.666 43 -162.999s-14 -121.333 -42 -162c-33.333 -48 -81.666 -72 -144.999 -72c-40.667 0 -75 10 -103 30
c-24 40.667 -36 92 -36 154zM197.999 573.999h9l47 -47h71l110 174l-48 47l4 6h-78zM318.999 743.999h53l-101 -160h-54z" />
    <glyph glyph-name="ocircumflex" unicode="&#xf4;" horiz-adv-x="545" 
d="M34 258c0 -80 18.667 -145.67 56 -197.003c13.333 -18 28.333 -32.667 45 -44l26 -25c40.667 -40.667 94.334 -61 161.001 -61c79.333 0 139.666 27 180.999 81c36.667 48.667 55 114 55 196c0 94.667 -25.667 167.667 -77 219l-23 23
c-0.666992 0.666992 -1.16699 1.33398 -1.5 2.00098s-0.833008 1.33398 -1.5 2.00098c-41.333 57.333 -102.333 86 -183 86c-79.333 0 -140 -28.667 -182 -86c-37.333 -51.333 -56 -116.666 -56 -195.999zM44 257.997c0 77.333 18.001 140.669 54.001 190.002
c40 54.667 98 82 174 82c75.333 0 133.666 -27 174.999 -81c36 -49.333 54 -113 54 -191c0 -80.667 -18 -144.334 -54 -191.001c-40.667 -52.667 -99 -79 -175 -79c-76.667 0 -135 26.667 -175 80c-35.333 47.333 -53 110.666 -53 189.999zM76.001 258
c0 -70 15 -126.333 45 -169c34 -50 84.333 -75 151 -75c66 0 116.667 25 152 75c30 42.667 45 99 45 169c0 69.333 -15 125.666 -45 168.999c-35.333 50 -86 75 -152 75c-66.667 0 -117 -25 -151 -75c-30 -43.333 -45 -99.666 -45 -168.999zM133.001 208
c0 68 14.3311 122.666 42.998 163.999c32.667 48.667 81.334 73 146.001 73c34.667 0 65.667 -7.66699 93 -23v-1h1c28.667 -41.333 43 -95.666 43 -162.999s-14 -121.333 -42 -162c-33.333 -48 -81.666 -72 -144.999 -72c-40.667 0 -75 10 -103 30
c-24 40.667 -36 92 -36 154zM129.999 573.999h9l47 -47h55l70 108l43 -66h4l48 -47l52 6l-107 173l-40 39l-8 14h-60zM248.999 743.999h48l99 -160l-36 -4l-87 136l-86 -132h-38z" />
    </font>
</defs>
</svg>
