<?xml version="1.0" standalone="no"?>
<!DOCTYPE svg PUBLIC "-//W3C//DTD SVG 1.1//EN" "http://www.w3.org/Graphics/SVG/1.1/DTD/svg11.dtd" >
<svg>
<metadata>
Created by FontForge 20090914 at Fri Jan 24 11:27:25 2014
 By www-data
Copyright (c) 1989 Adobe Systems Incorporated. All Rights Reserved.
</metadata>
<defs>
<font id="VAG-Rounded-Bold" horiz-adv-x="1176" >
  <font-face 
    font-family="VAG Rounded"
    font-weight="700"
    font-stretch="normal"
    units-per-em="2048"
    panose-1="2 11 5 0 0 0 0 0 0 0"
    ascent="1638"
    descent="-410"
    x-height="1090"
    cap-height="1470"
    bbox="-308.999 -446.002 2171 1923"
    underline-thickness="50"
    underline-position="-75"
    unicode-range="U+0020-U+F002"
  />
<missing-glyph horiz-adv-x="1536" 
d="M256 0v1280h1024v-1280h-1024zM1247 33v1214h-958v-1214h958z" />
    <glyph glyph-name=".notdef" horiz-adv-x="1536" 
d="M256 0v1280h1024v-1280h-1024zM1247 33v1214h-958v-1214h958z" />
    <glyph glyph-name="space" unicode=" " horiz-adv-x="549" 
 />
    <glyph glyph-name="exclam" unicode="!" horiz-adv-x="684" 
d="M195 555v788c0 42.667 13.667 76.667 41 102s62.666 38 105.999 38c42 0 77 -13 105 -39s42 -59.667 42 -101v-788c0 -42 -14 -75.667 -42 -101s-63 -38 -105 -38c-43.333 0 -78.666 12.667 -105.999 38s-41 59 -41 101zM342 -25c-44 0 -81.667 15.667 -113 47
s-47 69 -47 113s15.667 81.667 47 113s69 47 113 47s81.667 -15.667 113 -47s47 -69 47 -113s-15.667 -81.667 -47 -113s-69 -47 -113 -47z" />
    <glyph glyph-name="quotedbl" unicode="&#x22;" horiz-adv-x="909" 
d="M518 1012v348c0 37.333 10.833 67.166 32.5 89.499s51.834 33.5 90.501 33.5s68.834 -11.167 90.501 -33.5s32.5 -52.166 32.5 -89.499v-348c0 -37.333 -10.833 -67.166 -32.5 -89.499s-51.834 -33.5 -90.501 -33.5s-68.834 11.167 -90.501 33.5
s-32.5 52.166 -32.5 89.499zM145 1012v348c0 37.333 11.167 67.166 33.5 89.499s52.166 33.5 89.499 33.5c38.667 0 68.834 -11.167 90.501 -33.5s32.5 -52.166 32.5 -89.499v-348c0 -37.333 -10.833 -67.166 -32.5 -89.499s-51.834 -33.5 -90.501 -33.5
c-37.333 0 -67.166 11.167 -89.499 33.5s-33.5 52.166 -33.5 89.499z" />
    <glyph glyph-name="numbersign" unicode="#" horiz-adv-x="1229" 
d="M303 612l33.002 234h-176c-32.667 0 -57.334 9.66699 -74.001 29s-25 42.333 -25 69s8.33301 49.667 25 69s41.334 29 74.001 29h205l45 330c4.66699 36.667 15.167 62.167 31.5 76.5s39.833 21.5 70.5 21.5c25.333 0 47.333 -7.5 66 -22.5s28 -34.5 28 -58.5
c0 -11.333 -1.33301 -28 -4 -50l-41 -297h197l45 330c4.66699 36.667 15.167 62.167 31.5 76.5s39.833 21.5 70.5 21.5c25.333 0 47.333 -7.5 66 -22.5s28 -34.5 28 -58.5c0 -11.333 -1.33301 -28 -4 -50l-41 -297h176c32.667 0 57.334 -9.66699 74.001 -29
s25 -42.333 25 -69s-8.33301 -49.667 -25 -69s-41.334 -29 -74.001 -29h-204l-33 -234h176c32.667 0 57.167 -9.5 73.5 -28.5s24.5 -42.167 24.5 -69.5s-8.16699 -50.5 -24.5 -69.5s-40.833 -28.5 -73.5 -28.5h-205l-45 -330c-4.66699 -36 -14.834 -61.333 -30.501 -76
s-39.5 -22 -71.5 -22c-25.333 0 -47.333 7.66699 -66 23s-28 35 -28 59c0 10.667 1.33301 27 4 49l41 297h-197l-45 -330c-4.66699 -36 -14.834 -61.333 -30.501 -76s-39.5 -22 -71.5 -22c-26 0 -48.333 7.66699 -67 23s-28 35 -28 59c0 10.667 1.33301 27 4 49l41 297h-176
c-32 0 -56.333 9.66699 -73 29s-25 42.333 -25 69s8.33301 49.667 25 69s41 29 73 29h205zM535.002 846l-33 -234h194l33 234h-194z" />
    <glyph glyph-name="dollar" unicode="$" horiz-adv-x="1100" 
d="M596 580v-299c40.667 9.33301 73 29.166 97 59.499s36 65.5 36 105.5c0 58.667 -44.333 103.334 -133 134.001zM485 946l-0.00195312 234c-31.333 -8.66699 -57.166 -23.834 -77.499 -45.501s-30.5 -48.167 -30.5 -79.5c0 -25.333 8.83301 -46.166 26.5 -62.499
s44.834 -31.833 81.501 -46.5zM484.998 272l0.00390625 342.002l-147 47c-58.667 19.333 -109.334 43.333 -152.001 72s-76.834 66.334 -102.501 113.001s-38.5 104 -38.5 172c0 84 19.5 159.5 58.5 226.5s92 120.5 159 160.5s141.167 64.667 222.5 74v4v59
c0 23.333 0.833008 41.166 2.5 53.499s6.66699 22.5 15 30.5s21.166 12 38.499 12c24.667 0 40 -7.33301 46 -22s9 -39.334 9 -74.001v-63c84 -2.66699 164.667 -20.5 242 -53.5s116 -82.167 116 -147.5c0 -42 -12.667 -77.833 -38 -107.5s-58.333 -44.5 -99 -44.5
c-25.333 0 -61 8.5 -107 25.5s-84 27.167 -114 30.5v-273c94.667 -27.333 173 -55 235 -83s115.833 -72.167 161.5 -132.5s68.5 -141.166 68.5 -242.499c0 -66.667 -11.833 -128 -35.5 -184s-57.167 -104.333 -100.5 -145s-93.333 -73 -150 -97
s-116.334 -38.333 -179.001 -43v-7v-59c0 -20.667 -0.833008 -37.5 -2.5 -50.5s-6.66699 -23.833 -15 -32.5s-20.833 -13 -37.5 -13c-24.667 0 -40.167 8.16699 -46.5 24.5s-9.5 40.166 -9.5 71.499v64c-65.333 1.33301 -132 9 -200 23s-126 37.833 -174 71.5
s-72 77.167 -72 130.5c0 41.333 12.5 75.833 37.5 103.5s58.167 41.5 99.5 41.5c31.333 0 80.833 -11.833 148.5 -35.5s121.167 -37.834 160.5 -42.501z" />
    <glyph glyph-name="percent" unicode="%" horiz-adv-x="1479" 
d="M379 1030c32.667 0 58.5 11.667 77.5 35s28.5 52 28.5 86c0 34.667 -9.5 63.834 -28.5 87.501s-44.833 35.5 -77.5 35.5c-33.333 0 -59.5 -11.833 -78.5 -35.5s-28.5 -52.834 -28.5 -87.501c0 -34 9.5 -62.667 28.5 -86s45.167 -35 78.5 -35zM305 152l677.999 1278
c14 26 27.167 43.333 39.5 52s30.5 13 54.5 13c20 0 39.333 -5 58 -15s33.834 -23.833 45.501 -41.5s17.5 -37.167 17.5 -58.5c0 -20 -5.33301 -40.333 -16 -61l-688 -1288c-19.333 -27.333 -33.833 -45.5 -43.5 -54.5s-26.167 -13.5 -49.5 -13.5
c-26.667 0 -52.667 11.5 -78 34.5s-38 49.167 -38 78.5c0 22 6.66699 47.333 20 76zM378.999 821c-90 0 -165.165 32.668 -225.498 98.001s-90.5 142.666 -90.5 231.999c0 58.667 13.667 113.5 41 164.5s65.166 91.667 113.499 122s102.166 45.5 161.499 45.5
c58 0 111.167 -15 159.5 -45s86.333 -70.667 114 -122s41.5 -106.333 41.5 -165c0 -58 -13.667 -112.5 -41 -163.5s-65.333 -91.5 -114 -121.5s-102 -45 -160 -45zM1100 -24.999c-90 0 -165.165 32.668 -225.498 98.001s-90.5 142.666 -90.5 231.999
c0 58.667 13.667 113.5 41 164.5s65.166 91.667 113.499 122s102.166 45.5 161.499 45.5c58 0 111.167 -15 159.5 -45s86.333 -70.667 114 -122s41.5 -106.333 41.5 -165c0 -58 -13.667 -112.5 -41 -163.5s-65.333 -91.5 -114 -121.5s-102 -45 -160 -45zM1100 184.002
c32.667 0 58.5 11.667 77.5 35s28.5 52 28.5 86c0 34.667 -9.5 63.834 -28.5 87.501s-44.833 35.5 -77.5 35.5c-33.333 0 -59.5 -11.833 -78.5 -35.5s-28.5 -52.834 -28.5 -87.501c0 -34 9.5 -62.667 28.5 -86s45.167 -35 78.5 -35z" />
    <glyph glyph-name="ampersand" unicode="&#x26;" horiz-adv-x="1442" 
d="M817 365l-296.998 329c-54.667 -34 -97.667 -70.333 -129 -109s-47 -85 -47 -139c0 -62.667 19.5 -111.667 58.5 -147s90.5 -53 154.5 -53c53.333 0 99.166 9.5 137.499 28.5s79.166 49.167 122.499 90.5zM811.002 803l215.004 -237.998l80 92
c30.667 35.333 56.5 60 77.5 74s47.167 21 78.5 21s57.833 -12 79.5 -36s32.5 -55 32.5 -93c0 -25.333 -9.5 -54 -28.5 -86s-46.833 -68.333 -83.5 -109l-52 -55l140 -158c15.333 -18 26.666 -33.833 33.999 -47.5s11 -31.834 11 -54.501c0 -36 -14.333 -68 -43 -96
s-62.334 -42 -101.001 -42c-42 0 -78 16 -108 48l-142 147c-44 -38.667 -89.833 -73 -137.5 -103s-97.5 -52.833 -149.5 -68.5s-106.333 -23.5 -163 -23.5c-92.667 0 -177.167 17.167 -253.5 51.5s-136.833 85 -181.5 152s-67 146.833 -67 239.5c0 96 28.667 181.5 86 256.5
s131.666 137.5 222.999 187.5c-43.333 44.667 -76.666 88.5 -99.999 131.5s-35 91.5 -35 145.5c0 73.333 20.667 136.166 62 188.499s94.666 91.333 159.999 117s134.666 38.5 207.999 38.5c64 0 128.667 -12.333 194 -37s119 -61.334 161 -110.001s63 -107 63 -175
c0 -77.333 -24.667 -146.666 -74 -207.999s-111.333 -111.333 -186 -150zM788.006 1130c0 42 -13.833 72.334 -41.5 91.001s-58.834 28 -93.501 28c-29.333 0 -57.166 -9.83301 -83.499 -29.5s-39.5 -43.834 -39.5 -72.501c0 -29.333 8 -56 24 -80s44.333 -56 85 -96
c99.333 48.667 149 101.667 149 159z" />
    <glyph glyph-name="quotesingle" unicode="'" horiz-adv-x="492" 
d="M123 1012v348c0 37.333 10.833 67.166 32.5 89.499s51.834 33.5 90.501 33.5s68.834 -11.167 90.501 -33.5s32.5 -52.166 32.5 -89.499v-348c0 -37.333 -10.833 -67.166 -32.5 -89.499s-51.834 -33.5 -90.501 -33.5s-68.834 11.167 -90.501 33.5
s-32.5 52.166 -32.5 89.499z" />
    <glyph glyph-name="parenleft" unicode="(" horiz-adv-x="494" 
d="M352 1483c35.333 0 66.001 -10.998 92.001 -32.998s39 -50.667 39 -86c0 -11.333 -5.5 -34.5 -16.5 -69.5s-18.5 -56.833 -22.5 -65.5c-34.667 -110 -61 -218.333 -79 -325s-27 -213.334 -27 -320.001c0 -106 7.66699 -209.833 23 -311.5s39 -200.167 71 -295.5
c34 -88.667 51 -142.334 51 -161.001c0 -39.333 -12 -71 -36 -95s-55.667 -36 -95 -36c-42 0 -77.333 25.667 -106 77c-34.667 60.667 -64.167 139.667 -88.5 237s-43.333 199.333 -57 306s-20.5 199.667 -20.5 279c0 52 4.66699 121.833 14 209.5s22.333 174.667 39 261
s38.167 166.833 64.5 241.5s55.5 128 87.5 160c15.333 18 37.666 27 66.999 27z" />
    <glyph glyph-name="parenright" unicode=")" horiz-adv-x="494" 
d="M141 -315c-34 0 -64.334 11.168 -91.001 33.501s-40 50.5 -40 84.5c0 20.667 13 66 39 136c35.333 107.333 62 215.166 80 323.499s27 215.5 27 321.5c0 105.333 -7.66699 209.5 -23 312.5s-39.333 200.833 -72 293.5c-34 92 -51 146 -51 162c0 39.333 12 71 36 95
s55.667 36 95 36c41.333 0 77 -26 107 -78c32.667 -56.667 61.834 -135.5 87.501 -236.5s45.167 -203.833 58.5 -308.5s20 -196.667 20 -276c0 -52 -4.16699 -119.167 -12.5 -201.5s-21.333 -169.5 -39 -261.5s-39.667 -175.167 -66 -249.5s-55.5 -127.833 -87.5 -160.5
c-15.333 -17.333 -38 -26 -68 -26z" />
    <glyph glyph-name="asterisk" unicode="*" horiz-adv-x="797" 
d="M397 1470c30.667 0 55.834 -7.50195 75.501 -22.502s29.5 -38.833 29.5 -71.5c0 -14 -2.5 -34.667 -7.5 -62s-8.16699 -49.666 -9.5 -66.999l61 46c14 10.667 28 19.667 42 27s28.333 11 43 11c29.333 0 54.333 -12 75 -36s31 -51.667 31 -83
c0 -23.333 -7.83301 -42 -23.5 -56s-40.834 -28.167 -75.501 -42.5s-56.334 -23.833 -65.001 -28.5l80.5 -32c24.333 -10 44.333 -22 60 -36s23.5 -32.667 23.5 -56c0 -31.333 -10.167 -59.333 -30.5 -84s-45.5 -37 -75.5 -37c-14.667 0 -28.667 3.5 -42 10.5
s-28.333 17.167 -45 30.5l-59 45c1.33301 -16.667 4.5 -38.667 9.5 -66s7.5 -48.333 7.5 -63c0 -32.667 -10 -56.667 -30 -72s-45 -23 -75 -23c-29.333 0 -54 7.66699 -74 23s-30 39.333 -30 72c0 5.33301 0.5 13 1.5 23s2.5 21.5 4.5 34.5l5 33c1.33301 9 3 21.833 5 38.5
l-58 -43c-18.667 -14 -34.667 -24.667 -48 -32s-27 -11 -41 -11c-30.667 0 -55.5 12.5 -74.5 37.5s-28.5 52.833 -28.5 83.5c0 23.333 8 42 24 56s36 26 60 36l78 32c-6 3.33301 -26.5 12.5 -61.5 27.5s-60.5 29.5 -76.5 43.5s-24 32.667 -24 56c0 31.333 9.5 59 28.5 83
s43.833 36 74.5 36c14 0 28 -3.66699 42 -11s31.667 -19 53 -35l52 -38c-1.33301 16 -2.66602 28.333 -3.99902 37l-5.5 35c-2.33301 14.667 -4 26.834 -5 36.501s-1.5 16.5 -1.5 20.5c0 32.667 9.83301 56.5 29.5 71.5s44.5 22.5 74.5 22.5z" />
    <glyph glyph-name="plus" unicode="+" horiz-adv-x="1229" 
d="M492 641l-0.00195312 297c0 37.333 10.833 67.166 32.5 89.499s51.5 33.5 89.5 33.5c38.667 0 68.834 -11.167 90.501 -33.5s32.5 -52.166 32.5 -89.499v-297h297c38.667 0 68.834 -11.167 90.501 -33.5s32.5 -52.166 32.5 -89.499s-10.833 -67.166 -32.5 -89.499
s-51.834 -33.5 -90.501 -33.5h-297v-297c0 -36 -11.167 -65.5 -33.5 -88.5s-52.166 -34.5 -89.499 -34.5c-36.667 0 -66.167 11.5 -88.5 34.5s-33.5 52.5 -33.5 88.5v297h-297c-38.667 0 -68.834 11.167 -90.501 33.5s-32.5 52.166 -32.5 89.499s10.833 67.166 32.5 89.499
s51.834 33.5 90.501 33.5h297z" />
    <glyph glyph-name="comma" unicode="," horiz-adv-x="549" 
d="M408 102l-172 -306.999c-11.333 -22 -29 -39 -53 -51s-45.333 -18 -64 -18c-38 0 -70.667 13.167 -98 39.5s-41 58.166 -41 95.499c0 18.667 8 46 24 82l170 307c12.667 22 30.834 39 54.501 51s45.167 18 64.5 18c37.333 0 70.166 -13.333 98.499 -40
s42.5 -58.334 42.5 -95.001c0 -15.333 -8.66699 -42.666 -26 -81.999z" />
    <glyph glyph-name="hyphen" unicode="-" horiz-adv-x="797" 
d="M180 723l436 -0.00195312c37.333 -2.66699 66.166 -15.667 86.499 -39s30.5 -54 30.5 -92c0 -35.333 -10.167 -64.666 -30.5 -87.999s-49.166 -36.333 -86.499 -39h-436c-37.333 2.66699 -66.166 15.5 -86.499 38.5s-30.5 52.5 -30.5 88.5
c0 37.333 10.167 67.833 30.5 91.5s49.166 36.834 86.499 39.501z" />
    <glyph glyph-name="period" unicode="." horiz-adv-x="549" 
d="M115 135c0 43.333 15.5 80.833 46.5 112.5s68.5 47.5 112.5 47.5s81.667 -15.667 113 -47s47 -69 47 -113s-15.667 -81.667 -47 -113s-69 -47 -113 -47s-81.5 15.833 -112.5 47.5s-46.5 69.167 -46.5 112.5z" />
    <glyph glyph-name="slash" unicode="/" horiz-adv-x="834" 
d="M35 145l547 1262c20 50.667 58 76 114 76c34 0 62.667 -10.833 86 -32.5s35 -48.5 35 -80.5c0 -10 -6 -29 -18 -57l-545 -1262c-23.333 -50.667 -61.666 -76 -114.999 -76c-32.667 0 -61.334 11 -86.001 33s-37 48.667 -37 80c0 8.66699 6.33301 27.667 19 57z" />
    <glyph glyph-name="zero" unicode="0" 
d="M588 254c63.333 0 111.5 27 144.5 81s54.333 116.333 64 187s14.5 139.667 14.5 207c0 124.667 -14.5 235 -43.5 331s-88.833 144 -179.5 144s-150.5 -48.667 -179.5 -146s-43.5 -207 -43.5 -329c0 -118 14.667 -226.667 44 -326s89 -149 179 -149zM588 -25
c-129.333 0 -234.666 37.499 -315.999 112.499s-139.5 169.833 -174.5 284.5s-52.5 233.667 -52.5 357s17.5 242.333 52.5 357s93.167 209.5 174.5 284.5s186.666 112.5 315.999 112.5c99.333 0 184 -22.333 254 -67s126 -103.667 168 -177s72.5 -154.166 91.5 -242.499
s28.5 -177.5 28.5 -267.5c0 -88.667 -9.5 -177 -28.5 -265s-49.5 -169 -91.5 -243s-98 -133.5 -168 -178.5s-154.667 -67.5 -254 -67.5z" />
    <glyph glyph-name="one" unicode="1" horiz-adv-x="758" 
d="M311 147l-0.000976562 1029h-121c-46 0 -80.667 13.833 -104 41.5s-35 60.834 -35 99.501c0 37.333 12.5 70.166 37.5 98.499s58.833 42.5 101.5 42.5h291c42.667 0 76.167 -13.5 100.5 -40.5s36.5 -61.833 36.5 -104.5v-1166c0 -50.667 -14.167 -89.834 -42.5 -117.501
s-65.166 -41.5 -110.499 -41.5c-44.667 0 -81.5 14.167 -110.5 42.5s-43.5 67.166 -43.5 116.499z" />
    <glyph glyph-name="two" unicode="2" 
d="M549 270l375 -0.000976562c48 0 86.5 -11.167 115.5 -33.5s43.5 -56.166 43.5 -101.499c0 -44.667 -13.833 -78.334 -41.5 -101.001s-62.834 -34 -105.501 -34h-684c-48 0 -86.667 11.333 -116 34s-44 56.334 -44 101.001c0 30.667 15.667 65.667 47 105l125 144l137 154
c46.667 52.667 91 105.5 133 158.5s80.333 104.833 115 155.5c48 68.667 72 132 72 190c0 42.667 -14.333 79.667 -43 111s-63.667 47 -105 47c-51.333 0 -89 -14.167 -113 -42.5s-44.333 -70 -61 -125s-34 -96.167 -52 -123.5s-49 -41 -93 -41
c-46 0 -82.5 14.667 -109.5 44s-40.5 64.666 -40.5 105.999c0 84 22.333 161.5 67 232.5s104.334 127.5 179.001 169.5s153.334 63 236.001 63c84.667 0 161.5 -17.5 230.5 -52.5s123.5 -85 163.5 -150s60 -139.5 60 -223.5c0 -65.333 -15.833 -132.833 -47.5 -202.5
s-71.5 -136.167 -119.5 -199.5s-106.333 -133.666 -175 -210.999s-118.334 -135.333 -149.001 -174z" />
    <glyph glyph-name="three" unicode="3" 
d="M555 1483c91.333 0 170.17 -19.3301 236.503 -57.9971s116.166 -87.334 149.499 -146.001s50 -115.667 50 -171c0 -65.333 -14 -125 -42 -179s-70 -98.667 -126 -134c76 -35.333 136.667 -85.333 182 -150s68 -137 68 -217c0 -80.667 -22.833 -155.834 -68.5 -225.501
s-108.167 -125 -187.5 -166s-166 -61.5 -260 -61.5c-95.333 0 -180.333 20.167 -255 60.5s-132.667 90.666 -174 150.999s-62 118.166 -62 173.499c0 38.667 16.333 71.334 49 98.001s68.667 40 108 40c36.667 0 75.167 -29.167 115.5 -87.5s71 -98.333 92 -120
s64.5 -32.5 130.5 -32.5c35.333 0 67.666 8.16699 96.999 24.5s52.666 39.166 69.999 68.499s26 62 26 98c0 63.333 -15 106.5 -45 129.5s-74.5 38.833 -133.5 47.5s-102 20.834 -129 36.501s-40.5 50.167 -40.5 103.5c0 48 12.167 81 36.5 99s60.5 33.333 108.5 46
s84.167 28.667 108.5 48s36.5 54 36.5 104c0 39.333 -13.333 72 -40 98s-62.334 39 -107.001 39c-44 0 -78.333 -8.66699 -103 -26s-48.667 -43 -72 -77s-43.5 -58.833 -60.5 -74.5s-40.833 -23.5 -71.5 -23.5c-40 0 -72.167 15.167 -96.5 45.5s-36.5 65.833 -36.5 106.5
c0 39.333 12.333 78.833 37 118.5s58.334 75.667 101.001 108s91.167 58 145.5 77s108.5 28.5 162.5 28.5z" />
    <glyph glyph-name="four" unicode="4" 
d="M670 322l-494.001 0.000976562c-46 0 -81.333 12.5 -106 37.5s-37 52.5 -37 82.5c0 28.667 9.33301 58.667 28 90l459 832c24 42.667 51.667 73.167 83 91.5s73.333 27.5 126 27.5c42 0 80.833 -9.33301 116.5 -28s64.5 -47.834 86.5 -87.501s33 -88.5 33 -146.5v-629h34
c26 0 50.167 -5.5 72.5 -16.5s39.833 -27 52.5 -48s19 -44.5 19 -70.5s-6.33301 -49.5 -19 -70.5s-30.167 -37 -52.5 -48s-46.5 -16.5 -72.5 -16.5h-34v-175c0 -54.667 -11.5 -94.834 -34.5 -120.501s-60.833 -38.5 -113.5 -38.5c-51.333 0 -88.666 12.833 -111.999 38.5
s-35 65.834 -35 120.501v175zM669.999 592.001v571h-4l-277 -571h281z" />
    <glyph glyph-name="five" unicode="5" 
d="M512 1176l-31 -218.004c62.667 14 114 21 154 21c80 0 152.5 -19.5 217.5 -58.5s115.667 -91.833 152 -158.5s54.5 -139.667 54.5 -219c0 -85.333 -11.5 -162.666 -34.5 -231.999s-57.667 -129.166 -104 -179.499s-103.333 -89 -171 -116s-145.5 -40.5 -233.5 -40.5
c-55.333 0 -118.333 11 -189 33s-131.834 54.167 -183.501 96.5s-77.5 90.833 -77.5 145.5c0 24.667 6.16699 47.834 18.5 69.501s29.333 38.667 51 51s44.834 18.5 69.501 18.5c22.667 0 57.334 -14.5 104.001 -43.5s83.667 -50.833 111 -65.5s61.333 -22 102 -22
c67.333 0 120.333 27 159 81s58 116.333 58 187c0 39.333 -7.5 75 -22.5 107s-37.167 56.667 -66.5 74s-65 26 -107 26c-41.333 0 -84 -11.167 -128 -33.5s-82 -33.5 -114 -33.5c-36 0 -65.167 10.833 -87.5 32.5s-33.5 42.834 -33.5 63.501c0 9.33301 0.666992 19.5 2 30.5
s2.66602 23.833 3.99902 38.5l52 433c6.66699 42.667 14 76.167 22 100.5s18 43.166 30 56.499s26.333 22.833 43 28.5s38 8.5 64 8.5h494c45.333 0 81.5 -12.167 108.5 -36.5s40.5 -55.166 40.5 -92.499c0 -62 -15.5 -103 -46.5 -123s-63.167 -30 -96.5 -30h-385z" />
    <glyph glyph-name="six" unicode="6" 
d="M588 -25c-102 0 -192.167 23.1709 -270.5 69.5039s-138.5 108.166 -180.5 185.499s-63 161.666 -63 252.999c0 95.333 27.167 202.666 81.5 321.999s122.333 234.166 204 344.499s159.834 200.166 234.501 269.499c9.33301 10 31 26.333 65 49c15.333 10 36 15 62 15
c18.667 0 39.5 -7.33301 62.5 -22s42.5 -34 58.5 -58s24 -47.333 24 -70c0 -20.667 -14.333 -48.667 -43 -84c-20.667 -25.333 -66.5 -77.333 -137.5 -156s-119.167 -135.667 -144.5 -171l4 -4c36.667 16 79.667 24 129 24c61.333 0 118.166 -12.5 170.499 -37.5
s97.5 -58.5 135.5 -100.5s67.833 -90.667 89.5 -146s32.5 -113.666 32.5 -174.999c0 -88.667 -22 -172 -66 -250s-105.5 -140.5 -184.5 -187.5s-166.833 -70.5 -263.5 -70.5zM588 696.004c-38 0 -71.832 -9.33301 -101.499 -28s-52.667 -44.5 -69 -77.5
s-24.5 -68.833 -24.5 -107.5c0 -59.333 17.833 -109.666 53.5 -150.999s82.834 -62 141.501 -62c57.333 0 104 20.5 140 61.5s54 91.5 54 151.5c0 37.333 -7.33301 72.166 -22 104.499s-36.334 58.5 -65.001 78.5s-64.334 30 -107.001 30z" />
    <glyph glyph-name="seven" unicode="7" horiz-adv-x="1102" 
d="M195 205l512.001 971.001h-525c-50.667 0 -88.5 13.667 -113.5 41s-37.5 60.666 -37.5 99.999c0 40 12 73.5 36 100.5s62.333 40.5 115 40.5h742c48 0 84.5 -16.333 109.5 -49s37.5 -65.334 37.5 -98.001c0 -18.667 -4.16699 -38.5 -12.5 -59.5
s-19.833 -46.167 -34.5 -75.5l-508 -1033c-22.667 -45.333 -40.5 -77.666 -53.5 -96.999s-28.833 -33.833 -47.5 -43.5s-42.334 -14.5 -71.001 -14.5c-51.333 0 -92.5 15.5 -123.5 46.5s-46.5 63.833 -46.5 98.5c0 20.667 7 44.667 21 72z" />
    <glyph glyph-name="eight" unicode="8" 
d="M588 668c-58 0 -103.668 -19.333 -137.001 -58s-50 -87.667 -50 -147c0 -56 16.333 -104.167 49 -144.5s78.667 -60.5 138 -60.5c56 0 101 20.167 135 60.5s51 88.5 51 144.5c0 64.667 -16.667 115 -50 151s-78.666 54 -135.999 54zM587.999 -25
c-94 0 -179.502 19.8291 -256.502 59.4961s-137.833 95.334 -182.5 167.001s-67 151.834 -67 240.501c0 52.667 9.16699 101.667 27.5 147s44.333 85.666 78 120.999s71.5 64.333 113.5 87c-104 74.667 -156 172.334 -156 293.001c0 58 11.5 111.5 34.5 160.5
s54.333 90.667 94 125s86.334 60.833 140.001 79.5s111.834 28 174.501 28c60 0 116.667 -9 170 -27s100.833 -44.5 142.5 -79.5s74 -76.833 97 -125.5s34.5 -102.334 34.5 -161.001c0 -59.333 -13.833 -115.166 -41.5 -167.499s-66.5 -94.166 -116.5 -125.499
c70.667 -35.333 125 -83.666 163 -144.999s57 -131.333 57 -210c0 -90.667 -22.833 -171.667 -68.5 -243s-107 -126.5 -184 -165.5s-161.5 -58.5 -253.5 -58.5zM587.997 1212c-46.667 0 -83 -14.333 -109 -43s-39 -66 -39 -112c0 -46.667 13 -84.334 39 -113.001
s62.333 -43 109 -43c46 0 82.333 14.333 109 43s40 66.334 40 113.001c0 46 -13.167 83.333 -39.5 112s-62.833 43 -109.5 43z" />
    <glyph glyph-name="nine" unicode="9" 
d="M588 1483c101.333 0 191.169 -23.1699 269.502 -69.5029s138.666 -108.166 180.999 -185.499s63.5 -161.666 63.5 -252.999c0 -94.667 -27.667 -202.334 -83 -323.001s-122.5 -234.667 -201.5 -342s-157.5 -197.666 -235.5 -270.999c-14.667 -14 -36.667 -30.333 -66 -49
c-14.667 -10 -35 -15 -61 -15c-30 0 -61.833 16.333 -95.5 49s-50.5 66.334 -50.5 101.001c0 12.667 3.33301 25.167 10 37.5s17.667 27.833 33 46.5c20.667 25.333 66.667 77.333 138 156s119.666 136 144.999 172l-4 4c-36 -16.667 -79 -25 -129 -25
c-79.333 0 -151.833 21.167 -217.5 63.5s-117.167 98.833 -154.5 169.5s-56 146 -56 226c0 88.667 22 172 66 250s105.5 140.5 184.5 187.5s166.833 70.5 263.5 70.5zM588.003 761.997c57.333 0 104.001 20.001 140.001 60.001s54 91 54 153c0 60 -17.333 110.5 -52 151.5
s-82 61.5 -142 61.5c-58 0 -105 -20.333 -141 -61s-54 -91.334 -54 -152.001c0 -58 17.167 -108 51.5 -150s82.166 -63 143.499 -63z" />
    <glyph glyph-name="colon" unicode=":" horiz-adv-x="549" 
d="M115 793c0 44 15.5 81.501 46.5 112.501s68.5 46.5 112.5 46.5s81.667 -15.333 113 -46s47 -68.334 47 -113.001c0 -44 -15.667 -81.667 -47 -113s-69 -47 -113 -47s-81.5 15.833 -112.5 47.5s-46.5 69.167 -46.5 112.5zM115 135.001c0 43.333 15.5 80.833 46.5 112.5
s68.5 47.5 112.5 47.5s81.667 -15.667 113 -47s47 -69 47 -113s-15.667 -81.667 -47 -113s-69 -47 -113 -47s-81.5 15.833 -112.5 47.5s-46.5 69.167 -46.5 112.5z" />
    <glyph glyph-name="semicolon" unicode=";" horiz-adv-x="549" 
d="M293 319c37.333 0 70.166 -13.332 98.499 -39.999s42.5 -58.334 42.5 -95.001c0 -15.333 -8.66699 -42.666 -26 -81.999l-172 -307c-11.333 -22 -29 -39 -53 -51s-45.333 -18 -64 -18c-38 0 -70.667 13.167 -98 39.5s-41 58.166 -41 95.499c0 18.667 8 46 24 82l170 307
c12.667 22 30.834 39 54.501 51s45.167 18 64.5 18zM115 793.001c0 44 15.5 81.501 46.5 112.501s68.5 46.5 112.5 46.5s81.667 -15.333 113 -46s47 -68.334 47 -113.001c0 -44 -15.667 -81.667 -47 -113s-69 -47 -113 -47s-81.5 15.833 -112.5 47.5
s-46.5 69.167 -46.5 112.5z" />
    <glyph glyph-name="less" unicode="&#x3c;" horiz-adv-x="1229" 
d="M401 518l682 -284.998c49.333 -20.667 74 -55.334 74 -104.001c0 -40 -9.5 -71.5 -28.5 -94.5s-42.167 -34.5 -69.5 -34.5c-26 0 -60.333 9.66699 -103 29l-809 372c-50 22 -75 61 -75 117s25 95 75 117l809 371c42.667 20 77 30 103 30c27.333 0 50.5 -11.5 69.5 -34.5
s28.5 -54.5 28.5 -94.5c0 -48.667 -24.667 -83.334 -74 -104.001z" />
    <glyph glyph-name="equal" unicode="=" horiz-adv-x="1229" 
d="M195 870h839.002c25.333 0 47.166 -5 65.499 -15s32.5 -24.167 42.5 -42.5s15 -39.833 15 -64.5c0 -37.333 -10.833 -67.166 -32.5 -89.499s-51.834 -33.5 -90.501 -33.5h-839c-38.667 0 -68.834 11.167 -90.501 33.5s-32.5 52.166 -32.5 89.499
c0 36.667 10.833 66.167 32.5 88.5s51.834 33.5 90.501 33.5zM195.002 412h839c38.667 0 68.834 -11.5 90.501 -34.5s32.5 -52.5 32.5 -88.5c0 -37.333 -10.833 -67.166 -32.5 -89.499s-51.834 -33.5 -90.501 -33.5h-839c-38.667 0 -68.834 11.167 -90.501 33.5
s-32.5 52.166 -32.5 89.499c0 36 10.833 65.5 32.5 88.5s51.834 34.5 90.501 34.5z" />
    <glyph glyph-name="greater" unicode="&#x3e;" horiz-adv-x="1229" 
d="M145 233l682 284.998l-682 285c-48.667 20.667 -73 55.334 -73 104.001c0 40 9.5 71.5 28.5 94.5s42.167 34.5 69.5 34.5c26 0 60 -10 102 -30l809 -371c50.667 -22.667 76 -61.667 76 -117s-25.333 -94.333 -76 -117l-809 -372c-42 -19.333 -76 -29 -102 -29
c-27.333 0 -50.5 11.5 -69.5 34.5s-28.5 54.5 -28.5 94.5c0 48.667 24.333 83.334 73 104.001z" />
    <glyph glyph-name="question" unicode="?" horiz-adv-x="985" 
d="M301 557l0.000976562 204.997c0 32.667 11.833 54.667 35.5 66s67.167 25.333 130.5 42c52 15.333 92.333 34.833 121 58.5s43 62.167 43 115.5c0 44.667 -17 81.834 -51 111.501s-73.667 44.5 -119 44.5c-38 0 -71 -9.33301 -99 -28s-56.167 -44.5 -84.5 -77.5
s-52.666 -57.5 -72.999 -73.5s-44.833 -24 -73.5 -24c-36.667 0 -66.667 13.5 -90 40.5s-35 62.833 -35 107.5c0 50.667 14.333 97.334 43 140.001s66.334 78.834 113.001 108.501s96.667 52 150 67s103 22.5 149 22.5c88.667 0 170.167 -17.667 244.5 -53
s133.666 -86.5 177.999 -153.5s66.5 -144.5 66.5 -232.5c0 -108.667 -31.333 -197.667 -94 -267s-149.334 -118 -260.001 -146v-74c0 -41.333 -13.833 -75.166 -41.5 -101.499s-62.834 -39.5 -105.501 -39.5c-44.667 0 -80.5 13.167 -107.5 39.5s-40.5 60.166 -40.5 101.499
zM449.001 -25.0029c-44 0 -81.667 15.667 -113 47s-47 69 -47 113s15.667 81.667 47 113s69 47 113 47c44.667 0 82.334 -15.667 113.001 -47s46 -69 46 -113s-15.333 -81.667 -46 -113s-68.334 -47 -113.001 -47z" />
    <glyph glyph-name="at" unicode="@" horiz-adv-x="1638" 
d="M735 516c38 0 72.834 10.3291 104.501 30.9961s56.334 47.834 74.001 81.501s26.5 69.834 26.5 108.501c0 48.667 -13.833 89.834 -41.5 123.501s-65.834 50.5 -114.501 50.5c-34.667 0 -66.834 -11 -96.501 -33s-53 -49.667 -70 -83s-25.5 -67.666 -25.5 -102.999
c0 -46.667 12.667 -87.667 38 -123s60.333 -53 105 -53zM819.001 1483c96.667 0 190.498 -16.668 281.498 -50.001s171.5 -79.333 241.5 -138s126 -128.334 168 -209.001s63 -167.667 63 -261c0 -94 -20.833 -174.5 -62.5 -241.5s-93 -120.833 -154 -161.5
s-120.167 -70 -177.5 -88s-101.333 -27 -132 -27c-94.667 0 -142 33.667 -142 101h-4c-24.667 -30.667 -56.167 -55.167 -94.5 -73.5s-78.5 -27.5 -120.5 -27.5c-42.667 0 -82.5 10.167 -119.5 30.5s-69.167 47.333 -96.5 81s-48.666 72 -63.999 115s-23 86.5 -23 130.5
c0 57.333 9.5 113.666 28.5 168.999s46 104.5 81 147.5s77.167 77 126.5 102s103.666 37.5 162.999 37.5c107.333 0 187.333 -41 240 -123h4v25c0 65.333 38.333 98 115 98c26.667 0 49 -5 67 -15s27 -24 27 -42c0 -16 -2.66699 -38 -8 -66l-82 -372
c-5.33301 -22.667 -8 -45.334 -8 -68.001c0 -28.667 15.667 -43 47 -43c23.333 0 51.333 11.5 84 34.5s61 58 85 105s36 104.167 36 171.5c0 71.333 -15.167 136.5 -45.5 195.5s-72.5 109.167 -126.5 150.5s-114.833 72.833 -182.5 94.5s-139.5 32.5 -215.5 32.5
s-149.167 -14.667 -219.5 -44s-131.166 -69.666 -182.499 -120.999s-92 -112.166 -122 -182.499s-45 -144.166 -45 -221.499c0 -76.667 14.667 -149.834 44 -219.501s70.166 -130.667 122.499 -183s113.333 -93.166 183 -122.499s142.834 -44 219.501 -44
c164 0 306 32 426 96c6.66699 3.33301 27.334 18.833 62.001 46.5s59.667 41.5 75 41.5c50.667 0 76 -25.333 76 -76c0 -17.333 -4.33301 -34.166 -13 -50.499s-22.667 -36.166 -42 -59.499c-75.333 -68.667 -161.5 -116.334 -258.5 -143.001s-205.5 -40 -325.5 -40
c-136.667 0 -262.667 33.833 -378 101.5s-206.666 159.167 -273.999 274.5s-101 241.333 -101 378s33.667 262.667 101 378s158.666 206.833 273.999 274.5s241.333 101.5 378 101.5z" />
    <glyph glyph-name="A" unicode="A" horiz-adv-x="1290" 
d="M18 199l411.999 1114c19.333 51.333 48.166 92.5 86.499 123.5s82.5 46.5 132.5 46.5c52.667 0 97.834 -15.333 135.501 -46s65.5 -72 83.5 -124l402 -1114c10.667 -29.333 16 -54.666 16 -75.999c0 -26 -6.5 -49.333 -19.5 -70s-30.167 -36.667 -51.5 -48
s-44.666 -17 -69.999 -17c-76 0 -126 35.333 -150 106l-61 193h-569l-62 -191c-22.667 -72 -71.667 -108 -147 -108c-42 0 -77.833 13.833 -107.5 41.5s-44.5 61.5 -44.5 101.5c0 19.333 4.66699 42 14 68zM646.999 1163l-194 -594h389l-191 594h-4z" />
    <glyph glyph-name="B" unicode="B" 
d="M92 156v1149c0 48 15.167 85.5 45.5 112.5s69.166 40.5 116.499 40.5h393c70.667 0 135.334 -15 194.001 -45s105.167 -72.5 139.5 -127.5s51.5 -117.5 51.5 -187.5c0 -142 -63.333 -242.333 -190 -301v-4c42.667 -6 83 -19.167 121 -39.5s71.5 -46.166 100.5 -77.499
s51.167 -66.333 66.5 -105s23 -81 23 -127c0 -141.333 -43.167 -250.666 -129.5 -327.999s-201.5 -116 -345.5 -116h-422c-48 0 -87.333 14.333 -118 43s-46 66.334 -46 113.001zM399 1188v-307h160c50.667 0 91 14.167 121 42.5s45 67.833 45 118.5
c0 46.667 -15.5 82.667 -46.5 108s-70.833 38 -119.5 38h-160zM399 609.997v-340h242c57.333 0 103.833 15.833 139.5 47.5s53.5 75.5 53.5 131.5c0 49.333 -18.5 88.5 -55.5 117.5s-91.167 43.5 -162.5 43.5h-217z" />
    <glyph glyph-name="C" unicode="C" horiz-adv-x="1251" 
d="M35 729c0 106 16.999 205.002 50.999 297.002s82.5 172.333 145.5 241s137.5 121.834 223.5 159.501s180.667 56.5 284 56.5c42 0 89 -4 141 -12s100.167 -20.5 144.5 -37.5s81.333 -40.5 111 -70.5s44.5 -66.667 44.5 -110c0 -37.333 -12.167 -69.5 -36.5 -96.5
s-54.5 -40.5 -90.5 -40.5c-22 0 -52.833 7.66699 -92.5 23s-74 27.333 -103 36s-68.5 13 -118.5 13c-62.667 0 -118 -12.167 -166 -36.5s-88 -57.5 -120 -99.5s-56.5 -91.333 -73.5 -148s-25.5 -117 -25.5 -181c0 -128.667 34 -236.334 102 -323.001s162.333 -130 283 -130
c50.667 0 90.834 5 120.501 15s65.667 24.333 108 43s74.833 28 97.5 28c42 0 75 -15.833 99 -47.5s36 -62.167 36 -91.5c0 -60 -25.667 -108 -77 -144s-112.5 -61.333 -183.5 -76s-137.833 -22 -200.5 -22c-136 0 -257.5 33.167 -364.5 99.5s-190.333 157.166 -250 272.499
s-89.5 242.666 -89.5 381.999z" />
    <glyph glyph-name="D" unicode="D" horiz-adv-x="1366" 
d="M92 154l-0.00390625 1146c0 46.667 15 84.667 45 114s67.667 44 113 44h340c114.667 0 216.834 -17.667 306.501 -53s165.334 -85.5 227.001 -150.5s108.334 -143.667 140.001 -236s47.5 -195.5 47.5 -309.5c0 -106.667 -16.5 -203.667 -49.5 -291
s-80.5 -162.166 -142.5 -224.499s-136.667 -110.166 -224 -143.499s-182.333 -50 -285 -50h-356c-25.333 0 -50.166 5 -74.499 15s-45 26.5 -62 49.5s-25.5 52.833 -25.5 89.5zM398.996 1176l0.000976562 -893h207c86 0 157.667 19.167 215 57.5s100 90.333 128 156
s42 141.167 42 226.5c0 88 -14.333 166.333 -43 235s-73.334 122.167 -134.001 160.5s-136.667 57.5 -228 57.5h-187z" />
    <glyph glyph-name="E" unicode="E" horiz-adv-x="948" 
d="M92 154l0.00195312 1126c0 53.333 13.667 96.333 41 129s67 49 119 49h508c46.667 0 82.5 -13.833 107.5 -41.5s37.5 -60.834 37.5 -99.501c0 -25.333 -5.66699 -48.5 -17 -69.5s-27.833 -38.167 -49.5 -51.5s-47.834 -20 -78.501 -20h-361v-299h336
c48 0 85 -13.667 111 -41s39 -61 39 -101c0 -37.333 -13.333 -70.166 -40 -98.499s-63.334 -42.5 -110.001 -42.5h-336v-311h379c47.333 0 83.5 -13.833 108.5 -41.5s37.5 -61.167 37.5 -100.5c0 -22 -5.66699 -44.333 -17 -67s-28 -40.667 -50 -54s-48.333 -20 -79 -20
h-528c-45.333 0 -83 14.167 -113 42.5s-45 65.5 -45 111.5z" />
    <glyph glyph-name="F" unicode="F" horiz-adv-x="909" 
d="M92 147l0.000976562 1151c0 43.333 14.5 80.833 43.5 112.5s67.833 47.5 116.5 47.5h524c43.333 0 77 -14 101 -42s36 -61 36 -99s-12.167 -71 -36.5 -99s-57.833 -42 -100.5 -42h-377v-299h318c47.333 0 83.666 -13.667 108.999 -41s38 -60.333 38 -99
s-12.833 -72.167 -38.5 -100.5s-61.834 -42.5 -108.501 -42.5h-318v-447c0 -50.667 -14.167 -89.834 -42.5 -117.501s-65.166 -41.5 -110.499 -41.5c-44.667 0 -81.5 14.167 -110.5 42.5s-43.5 67.166 -43.5 116.499z" />
    <glyph glyph-name="G" unicode="G" horiz-adv-x="1442" 
d="M879 864h347.999c64 0 110 -15.833 138 -47.5s42 -81.167 42 -148.5c0 -98.667 -15.5 -190.334 -46.5 -275.001s-75.667 -158.167 -134 -220.5s-129 -110.833 -212 -145.5s-174.833 -52 -275.5 -52c-136 0 -257.5 33.167 -364.5 99.5s-190.333 157.166 -250 272.499
s-89.5 242.666 -89.5 381.999c0 106 17 205 51 297s82.5 172.333 145.5 241s137.5 121.834 223.5 159.501s180.667 56.5 284 56.5c76 0 148.833 -8.33301 218.5 -25s130 -38.667 181 -66s91.167 -58.333 120.5 -93s44 -69.667 44 -105c0 -43.333 -12.167 -78 -36.5 -104
s-54.5 -39 -90.5 -39c-37.333 0 -81.833 16.5 -133.5 49.5s-95.834 57.833 -132.501 74.5s-93.667 25 -171 25c-81.333 0 -151.166 -21.5 -209.499 -64.5s-102.166 -100.167 -131.499 -171.5s-44 -149.666 -44 -234.999c0 -134 33.167 -246 99.5 -336s161.5 -135 285.5 -135
c57.333 0 112.666 11.333 165.999 34s97 58.334 131 107.001s51 109.667 51 183h-208c-42 0 -76.5 13.167 -103.5 39.5s-40.5 60.833 -40.5 103.5c0 41.333 13.833 74.833 41.5 100.5s61.834 38.5 102.501 38.5z" />
    <glyph glyph-name="H" unicode="H" horiz-adv-x="1442" 
d="M92 147v1164.01c0 49.333 14.5 88.166 43.5 116.499s65.833 42.5 110.5 42.5c45.333 0 82.166 -13.833 110.499 -41.5s42.5 -66.834 42.5 -117.501v-434h643v434c0 49.333 14.5 88.166 43.5 116.499s65.833 42.5 110.5 42.5c46 0 83.167 -13.833 111.5 -41.5
s42.5 -66.834 42.5 -117.501v-1164c0 -50.667 -14.167 -89.834 -42.5 -117.501s-65.5 -41.5 -111.5 -41.5c-44.667 0 -81.5 14.167 -110.5 42.5s-43.5 67.166 -43.5 116.499v447h-643v-447c0 -50.667 -14.167 -89.834 -42.5 -117.501s-65.166 -41.5 -110.499 -41.5
c-44.667 0 -81.5 14.167 -110.5 42.5s-43.5 67.166 -43.5 116.499z" />
    <glyph glyph-name="I" unicode="I" horiz-adv-x="492" 
d="M92 147v1164c0 49.333 14.5 88.166 43.5 116.499s65.833 42.5 110.5 42.5c45.333 0 82.166 -13.833 110.499 -41.5s42.5 -66.834 42.5 -117.501v-1164c0 -50.667 -14.167 -89.834 -42.5 -117.501s-65.166 -41.5 -110.499 -41.5c-44.667 0 -81.5 14.167 -110.5 42.5
s-43.5 67.166 -43.5 116.499z" />
    <glyph glyph-name="J" unicode="J" horiz-adv-x="834" 
d="M754 1311l0.000976562 -900.999c0 -108 -19.833 -194.333 -59.5 -259s-89.834 -110.167 -150.501 -136.5s-126 -39.5 -196 -39.5c-90 0 -175.333 19.167 -256 57.5s-121 97.166 -121 176.499c0 18.667 5 37.834 15 57.501s23.833 35.834 41.5 48.501s37.167 19 58.5 19
c18 0 37.333 -3.66699 58 -11s44.167 -17.333 70.5 -30s47.5 -21.667 63.5 -27s34 -8 54 -8c50 0 81.5 16.167 94.5 48.5s19.5 73.5 19.5 123.5v881c0 49.333 14.5 88.166 43.5 116.499s65.833 42.5 110.5 42.5c46 0 83.167 -13.833 111.5 -41.5s42.5 -66.834 42.5 -117.501
z" />
    <glyph glyph-name="K" unicode="K" horiz-adv-x="1251" 
d="M92 135l-0.000976562 1184c0 42.667 14.5 78.5 43.5 107.5s65.833 43.5 110.5 43.5s81.334 -13.5 110.001 -40.5s43 -63.833 43 -110.5v-442l504 536c34.667 38 74.334 57 119.001 57c40.667 0 76.167 -13.667 106.5 -41s45.5 -62.666 45.5 -105.999
c0 -25.333 -8 -50.166 -24 -74.499s-41.667 -54.166 -77 -89.499l-387 -381l473 -493c57.333 -57.333 86 -109.333 86 -156c0 -44.667 -15.333 -79.334 -46 -104.001s-68.667 -37 -114 -37c-26.667 0 -50.834 7.33301 -72.501 22s-49.167 39.334 -82.5 74.001l-531 573v-522
c0 -41.333 -14.5 -76.166 -43.5 -104.499s-65.5 -42.5 -109.5 -42.5c-44.667 0 -81.5 13.5 -110.5 40.5s-43.5 62.5 -43.5 106.5z" />
    <glyph glyph-name="L" unicode="L" horiz-adv-x="872" 
d="M92 168l0.00292969 1143c0 49.333 14.5 88.166 43.5 116.499s65.833 42.5 110.5 42.5c45.333 0 82.166 -13.833 110.499 -41.5s42.5 -66.834 42.5 -117.501v-1028h365c49.333 0 86.166 -14.833 110.499 -44.5s36.5 -64.167 36.5 -103.5c-2 -36 -16.333 -67.5 -43 -94.5
s-61.334 -40.5 -104.001 -40.5h-512c-49.333 0 -88.333 15.167 -117 45.5s-43 71.166 -43 122.499z" />
    <glyph glyph-name="M" unicode="M" horiz-adv-x="1782" 
d="M51 170l190.998 1143c6.66699 39.333 28.834 75.333 66.501 108s82.167 49 133.5 49c49.333 0 92.833 -14.5 130.5 -43.5s62.5 -63.5 74.5 -103.5l242 -811h4l242 811c12 39.333 36.833 73.666 74.5 102.999s80.834 44 129.501 44c51.333 0 96 -16.333 134 -49
s60.333 -68.667 67 -108l191 -1143c1.33301 -8 2 -19.667 2 -35c0 -44.667 -14.167 -80.334 -42.5 -107.001s-63.5 -40 -105.5 -40c-50 0 -87.167 11.333 -111.5 34s-40.5 59 -48.5 109l-120 834h-5l-245 -859c-24 -78.667 -78.667 -118 -164 -118
c-86.667 0 -141.334 39.333 -164.001 118l-246 859h-4l-121 -834c-7.33301 -49.333 -23.166 -85.5 -47.499 -108.5s-61.5 -34.5 -111.5 -34.5c-42 0 -77.167 13.5 -105.5 40.5s-42.5 62.5 -42.5 106.5c0 15.333 0.666992 27 2 35z" />
    <glyph glyph-name="N" unicode="N" horiz-adv-x="1403" 
d="M80 147v1164c0 50 14.333 89 43 117s65.334 42 110.001 42c21.333 0 45 -6.66699 71 -20s45.333 -29 58 -47l650 -866h4v774c0 50 14.333 89 43 117s65.334 42 110.001 42c46 0 83.167 -13.833 111.5 -41.5s42.5 -66.834 42.5 -117.501v-1164
c0 -50.667 -14.167 -89.834 -42.5 -117.501s-65.5 -41.5 -111.5 -41.5c-18.667 0 -40.834 6.5 -66.501 19.5s-46.5 28.833 -62.5 47.5l-649 856h-4v-764c0 -50.667 -14.167 -89.834 -42.5 -117.501s-65.5 -41.5 -111.5 -41.5c-44.667 0 -81.334 14 -110.001 42
s-43 67 -43 117z" />
    <glyph glyph-name="O" unicode="O" horiz-adv-x="1479" 
d="M739 258c62.667 0 118.327 12.335 166.994 37.002s89.334 59.167 122.001 103.5s56.834 94.666 72.501 150.999s23.5 116.166 23.5 179.499c0 85.333 -14.667 163.666 -44 234.999s-73.166 128.5 -131.499 171.5s-128.166 64.5 -209.499 64.5
s-151.166 -21.5 -209.499 -64.5s-102.166 -100.167 -131.499 -171.5s-44 -149.666 -44 -234.999c0 -134 33.167 -246 99.5 -336s161.5 -135 285.5 -135zM738.993 -24.998c-136 0 -257.499 33.1689 -364.499 99.502s-190.333 157.166 -250 272.499
s-89.5 242.666 -89.5 381.999c0 106 17 205 51 297s82.5 172.333 145.5 241s137.5 121.834 223.5 159.501s180.667 56.5 284 56.5c101.333 0 195.5 -19.5 282.5 -58.5s161.833 -92.833 224.5 -161.5s111.334 -149 146.001 -241s52 -189.667 52 -293
c0 -104.667 -16.667 -202.834 -50 -294.501s-81.833 -172.167 -145.5 -241.5s-138.834 -123 -225.501 -161s-181.334 -57 -284.001 -57z" />
    <glyph glyph-name="P" unicode="P" horiz-adv-x="1139" 
d="M92 147l-0.000976562 1151c0 49.333 14 88.333 42 117s67.333 43 118 43h362c98 0 187.5 -20.5 268.5 -61.5s144 -98.667 189 -173s67.5 -159.166 67.5 -254.499c0 -74 -13.5 -141.167 -40.5 -201.5s-63.667 -111.5 -110 -153.5s-100.833 -74.333 -163.5 -97
s-128.667 -34 -198 -34h-228v-336c0 -50.667 -14.167 -89.834 -42.5 -117.501s-65.166 -41.5 -110.499 -41.5c-44.667 0 -81.5 14.167 -110.5 42.5s-43.5 67.166 -43.5 116.499zM398.999 1188v-434h209c62.667 0 113.5 20.333 152.5 61s58.5 92.667 58.5 156
c0 40.667 -8.66699 77.5 -26 110.5s-42 59 -74 78s-69 28.5 -111 28.5h-209z" />
    <glyph glyph-name="Q" unicode="Q" horiz-adv-x="1479" 
d="M1217 -33l-117.001 99.0029c-105.333 -60.667 -225.666 -91 -360.999 -91c-136 0 -257.5 33.167 -364.5 99.5s-190.333 157.166 -250 272.499s-89.5 242.666 -89.5 381.999c0 106 17 205 51 297s82.5 172.333 145.5 241s137.5 121.834 223.5 159.501
s180.667 56.5 284 56.5c101.333 0 195.5 -19.5 282.5 -58.5s161.833 -92.833 224.5 -161.5s111.334 -149 146.001 -241s52 -189.667 52 -293c0 -89.333 -11.667 -174.333 -35 -255s-57.333 -153.334 -102 -218.001l116 -100c24 -20 42 -39.333 54 -58s18 -41 18 -67
c0 -22.667 -6.66699 -43.834 -20 -63.501s-31 -35.5 -53 -47.5s-44.667 -18 -68 -18c-40.667 0 -86.334 21.667 -137.001 65zM974.999 547.003l99.9961 -80c32.667 72.667 49 160 49 262c0 84 -14.667 161.833 -44 233.5s-73.166 129.167 -131.499 172.5
s-128.166 65 -209.499 65s-151.166 -21.5 -209.499 -64.5s-102.166 -100.167 -131.499 -171.5s-44 -149.666 -44 -234.999c0 -134 33.167 -246 99.5 -336s161.5 -135 285.5 -135c39.333 0 83 4.66699 131 14l-73 72c-26 24 -39 51.333 -39 82
c0 41.333 12.833 76.166 38.5 104.499s59.167 42.5 100.5 42.5c24.667 0 50.667 -8.66699 78 -26z" />
    <glyph glyph-name="R" unicode="R" horiz-adv-x="1139" 
d="M92 147l0.000976562 1151c0 50 13.5 89.167 40.5 117.5s66.167 42.5 117.5 42.5h360c163.333 0 289.166 -37.833 377.499 -113.5s132.5 -192.167 132.5 -349.5c0 -55.333 -9.66699 -105.333 -29 -150s-46.5 -83.167 -81.5 -115.5s-75 -58.333 -120 -78
s-94.5 -34.167 -148.5 -43.5l349 -372c26.667 -29.333 40 -59.666 40 -90.999c0 -41.333 -14.833 -77.833 -44.5 -109.5s-65.834 -47.5 -108.501 -47.5c-49.333 0 -89 17.667 -119 53l-455 551h-4v-445c0 -50.667 -14.167 -89.834 -42.5 -117.501
s-65.166 -41.5 -110.499 -41.5c-44.667 0 -81.5 14.167 -110.5 42.5s-43.5 67.166 -43.5 116.499zM399.001 1176v-363h211c56.667 0 102.667 16.333 138 49s53 77 53 133c0 58 -17.5 102.667 -52.5 134s-81.167 47 -138.5 47h-211z" />
    <glyph glyph-name="S" unicode="S" horiz-adv-x="1100" 
d="M553 1483c46.667 0 101.835 -6.66602 165.502 -19.999s118.834 -35.5 165.501 -66.5s70 -70.5 70 -118.5c0 -42 -12.667 -77.833 -38 -107.5s-58.333 -44.5 -99 -44.5c-18.667 0 -38.834 3.5 -60.501 10.5s-44 14.833 -67 23.5s-46 15.5 -69 20.5s-48.167 7.5 -75.5 7.5
c-46 0 -85.5 -12 -118.5 -36s-49.5 -56.333 -49.5 -97c0 -44 37.167 -79.167 111.5 -105.5l248 -84.5c91 -30 167.833 -76.5 230.5 -139.5s94 -154.5 94 -274.5c0 -93.333 -23.667 -176.333 -71 -249s-111 -128.667 -191 -168s-167.333 -59 -262 -59
c-116.667 0 -228.834 17.167 -336.501 51.5s-161.5 93.833 -161.5 178.5c0 41.333 12.5 75.833 37.5 103.5s58.167 41.5 99.5 41.5c20 0 42 -3.33301 66 -10s54.667 -16.5 92 -29.5s70 -23 98 -30s57.333 -10.5 88 -10.5c44 0 81.667 7.5 113 22.5
s55.166 35.833 71.499 62.5s24.5 57 24.5 91c0 52 -18.167 86 -54.5 102s-119.833 44.667 -250.5 86s-226.5 89 -287.5 143s-91.5 134.333 -91.5 241c0 93.333 23.167 175.166 69.5 245.499s108.5 124.5 186.5 162.5s162 57 252 57z" />
    <glyph glyph-name="T" unicode="T" horiz-adv-x="983" 
d="M338 147l-0.00488281 1029h-223c-45.333 0 -80 13.833 -104 41.5s-36 60.834 -36 99.501c0 24 5.83301 47 17.5 69s28.334 39.5 50.001 52.5s45.834 19.5 72.501 19.5h753c26.667 0 50.834 -6.5 72.501 -19.5s38.334 -30.5 50.001 -52.5s17.5 -45 17.5 -69
c0 -38.667 -11.667 -71.834 -35 -99.501s-58.333 -41.5 -105 -41.5h-223v-1029c0 -50.667 -14.167 -89.834 -42.5 -117.501s-65.166 -41.5 -110.499 -41.5c-46 0 -83.167 13.833 -111.5 41.5s-42.5 66.834 -42.5 117.501z" />
    <glyph glyph-name="U" unicode="U" horiz-adv-x="1403" 
d="M80 580l-0.00195312 731.003c0 50 14.333 89 43 117s65.334 42 110.001 42c46 0 83.167 -13.833 111.5 -41.5s42.5 -66.834 42.5 -117.501v-715c0 -63.333 12.667 -120.5 38 -171.5s62.166 -91.5 110.499 -121.5s103.833 -45 166.5 -45c91.333 0 166.5 33.333 225.5 100
s88.5 146 88.5 238v715c0 50 14.333 89 43 117s65.334 42 110.001 42c46 0 83.167 -13.833 111.5 -41.5s42.5 -66.834 42.5 -117.501v-731c0 -84 -16 -162.833 -48 -236.5s-76.667 -138.167 -134 -193.5s-123.666 -98.333 -198.999 -129s-155.333 -46 -240 -46
c-112.667 0 -216.667 26.167 -312 78.5s-170.833 124.666 -226.5 216.999s-83.5 195.5 -83.5 309.5z" />
    <glyph glyph-name="V" unicode="V" horiz-adv-x="1212" 
d="M455 106l-449.001 1141c-9.33301 25.333 -14 50.666 -14 75.999c0 42 15.833 77 47.5 105s68.5 42 110.5 42c60 0 106.333 -33.333 139 -100l317 -852l318 852c31.333 66.667 77.666 100 138.999 100c42.667 0 79.667 -14 111 -42s47 -63 47 -105
c0 -26 -5 -51.333 -15 -76l-448 -1141c-15.333 -37.333 -34.166 -66.333 -56.499 -87s-54.166 -31 -95.499 -31s-72.833 10 -94.5 30s-40.5 49.333 -56.5 88z" />
    <glyph glyph-name="W" unicode="W" horiz-adv-x="1860" 
d="M285 147l-259.999 1119c-6 22 -9 45 -9 69c0 35.333 13.667 66.666 41 93.999s62.333 41 105 41c88.667 0 143.334 -49 164.001 -147l174 -870h4l266 897c12 37.333 32.333 66.666 61 87.999s61.667 32 99 32s70.5 -10.667 99.5 -32s49.167 -50.666 60.5 -87.999
l266 -897h4l174 870c9.33301 48 27 84.5 53 109.5s63 37.5 111 37.5c43.333 0 78.333 -13.667 105 -41s40 -58.666 40 -93.999c0 -22.667 -2.66699 -45.667 -8 -69l-260 -1119c-10.667 -46 -33.5 -84 -68.5 -114s-79.833 -45 -134.5 -45c-48.667 0 -91.334 14 -128.001 42
s-61.667 63.667 -75 107l-237 791h-4l-238 -791c-12.667 -43.333 -37.334 -79 -74.001 -107s-79.667 -42 -129 -42c-54 0 -98.5 15 -133.5 45s-57.833 68 -68.5 114z" />
    <glyph glyph-name="X" unicode="X" horiz-adv-x="1253" 
d="M43 236l405.997 543.999l-332 451c-22 27.333 -33 57.333 -33 90c0 44 14.833 79.833 44.5 107.5s66.834 41.5 111.501 41.5c26 0 51.333 -7.5 76 -22.5s43.667 -32.5 57 -52.5l254 -361l254 361c13.333 20 32.333 37.5 57 52.5s50 22.5 76 22.5
c27.333 0 53.333 -6.33301 78 -19s43.667 -30.167 57 -52.5s20 -48.166 20 -77.499c0 -32 -10.667 -62 -32 -90l-332 -451l405 -544c23.333 -31.333 35 -66.333 35 -105c0 -43.333 -14.333 -78 -43 -104s-66 -39 -112 -39c-53.333 0 -95.666 22.333 -126.999 67l-336 467
l-336 -467c-32 -44.667 -74.333 -67 -127 -67c-45.333 0 -82.666 13.333 -111.999 40s-44 61 -44 103c0 36.667 11.667 71.667 35 105z" />
    <glyph glyph-name="Y" unicode="Y" horiz-adv-x="1098" 
d="M395 137v547l-387 545c-18.667 26.667 -28 57.334 -28 92.001c0 41.333 13.833 76.5 41.5 105.5s62.834 43.5 105.501 43.5c56.667 0 99 -20.333 127 -61l295 -428l295 428c27.333 40.667 69.666 61 126.999 61c42.667 0 77.834 -14.5 105.501 -43.5
s41.5 -64.167 41.5 -105.5c0 -34.667 -9.33301 -65.334 -28 -92.001l-388 -545v-547c0 -42 -12.833 -77.333 -38.5 -106s-63.834 -43 -114.501 -43c-51.333 0 -89.833 14.333 -115.5 43s-38.5 64 -38.5 106z" />
    <glyph glyph-name="Z" unicode="Z" horiz-adv-x="1214" 
d="M428 270l594.002 -0.000976562c44 0 79.5 -11.667 106.5 -35s40.5 -56.666 40.5 -99.999c0 -38.667 -14.833 -70.834 -44.5 -96.501s-63.834 -38.5 -102.501 -38.5h-805c-53.333 0 -95.333 13.5 -126 40.5s-46 62.5 -46 106.5c0 42 13.667 81.667 41 119l659 922h-538
c-42 0 -76.5 11.667 -103.5 35s-40.5 55.333 -40.5 96c0 38.667 14.167 71.5 42.5 98.5s62.166 40.5 101.499 40.5h749c56 0 98.667 -14.667 128 -44s44 -63.666 44 -102.999c0 -49.333 -15 -93 -45 -131z" />
    <glyph glyph-name="bracketleft" unicode="[" horiz-adv-x="569" 
d="M90 -168v1503c0 44.667 13.833 80.5 41.5 107.5s63.834 40.5 108.501 40.5h204c32.667 0 59 -9.5 79 -28.5s30 -48.5 30 -88.5s-10 -69.5 -30 -88.5s-46.333 -28.5 -79 -28.5h-96v-1331h96c32.667 0 59 -9.5 79 -28.5s30 -48.5 30 -88.5s-10 -69.333 -30 -88
s-46.333 -28 -79 -28h-204c-44.667 0 -80.834 13.167 -108.501 39.5s-41.5 62.166 -41.5 107.499z" />
    <glyph glyph-name="backslash" unicode="\" horiz-adv-x="834" 
d="M252 1407l547.001 -1262c12 -28 18 -47 18 -57c0 -31.333 -12 -58 -36 -80s-53 -33 -87 -33c-54.667 0 -92 25.333 -112 76l-549 1262c-11.333 32 -17 51 -17 57c0 31.333 11.667 58 35 80s52 33 86 33c55.333 0 93.666 -25.333 114.999 -76z" />
    <glyph glyph-name="bracketright" unicode="]" horiz-adv-x="569" 
d="M479 1335v-1503c0 -45.333 -13.5 -81.166 -40.5 -107.499s-63.167 -39.5 -108.5 -39.5h-205c-32.667 0 -59 9.5 -79 28.5s-30 48.167 -30 87.5c0 38.667 10 67.834 30 87.501s46.333 29.5 79 29.5h96v1331h-96c-32.667 0 -59 9.83301 -79 29.5s-30 48.834 -30 87.501
s10 67.834 30 87.501s46.333 29.5 79 29.5h205c45.333 0 81.5 -13.5 108.5 -40.5s40.5 -62.833 40.5 -107.5z" />
    <glyph glyph-name="asciicircum" unicode="^" horiz-adv-x="1229" 
d="M614 1163l-255.999 -473c-20.667 -30 -55.334 -45 -104.001 -45c-29.333 0 -54 7.16699 -74 21.5s-30 34.5 -30 60.5c0 21.333 8.66699 48.666 26 81.999l330 600c20 40.667 56 61 108 61s88.333 -20.333 109 -61l330 -600c17.333 -33.333 26 -60.666 26 -81.999
c0 -26 -9.83301 -46.167 -29.5 -60.5s-44.5 -21.5 -74.5 -21.5c-48.667 0 -83.667 15 -105 45z" />
    <glyph glyph-name="underscore" unicode="_" horiz-adv-x="1024" 
d="M1024 -256l-1024 0.00195312c-16 0 -29.833 4.66699 -41.5 14s-17.5 21.666 -17.5 36.999s5.5 27.666 16.5 36.999s25.167 14 42.5 14h1024c17.333 0 31.5 -4.5 42.5 -13.5s16.5 -21.5 16.5 -37.5s-5.83301 -28.5 -17.5 -37.5s-25.5 -13.5 -41.5 -13.5z" />
    <glyph glyph-name="grave" unicode="`" horiz-adv-x="455" 
d="M164 1563l241.999 -99l16 -8c16.667 -8.66699 30.334 -20.334 41.001 -35.001s16 -30.334 16 -47.001c0 -36.667 -10.667 -70.667 -32 -102s-46.666 -47 -75.999 -47c-14 0 -22.833 0.333008 -26.5 1s-9 2.33398 -16 5.00098s-20.167 7.33398 -39.5 14.001l-230 90
c-56 20.667 -84 61 -84 121c0 28.667 11.167 57 33.5 85s48.166 42 77.499 42c17.333 0 43.333 -6.66699 78 -20z" />
    <glyph glyph-name="a" unicode="a" 
d="M1092 909l0.000976562 -729.001c0 -57.333 -8 -103.666 -24 -138.999s-55.333 -53 -118 -53c-40 0 -70.833 10.5 -92.5 31.5s-37.834 52.167 -48.501 93.5c-78 -92 -171.667 -138 -281 -138c-90.667 0 -173.334 24.333 -248.001 73s-133.167 116.167 -175.5 202.5
s-63.5 183.833 -63.5 292.5c0 104.667 21.667 200.834 65 288.501s102.333 156.667 177 207s156.334 75.5 245.001 75.5c55.333 0 108 -11.333 158 -34s91 -56.334 123 -101.001c4 36 19.5 65.5 46.5 88.5s58.5 34.5 94.5 34.5c62.667 0 102 -17.833 118 -53.5
s24 -82.167 24 -139.5zM336.001 542.999c0 -50 8.83301 -97.832 26.5 -143.499s44 -82.667 79 -111s77.5 -42.5 127.5 -42.5c72 0 128 29.833 168 89.5s60 128.834 60 207.501c0 49.333 -8.5 97.166 -25.5 143.499s-43 84.166 -78 113.499s-76.5 44 -124.5 44
c-49.333 0 -91.833 -14.5 -127.5 -43.5s-62.167 -66.833 -79.5 -113.5s-26 -94.667 -26 -144z" />
    <glyph glyph-name="b" unicode="b" 
d="M84 152v1261c0 48.667 13.5 88.167 40.5 118.5s62.5 45.5 106.5 45.5c28.667 0 54.167 -6.83301 76.5 -20.5s39.833 -33 52.5 -58s19 -53.5 19 -85.5v-401c37.333 32.667 80.666 57.834 129.999 75.501s99.333 26.5 150 26.5c100.667 0 186.834 -27.667 258.501 -83
s125.834 -127.666 162.501 -216.999s55 -184 55 -284c0 -93.333 -20.167 -182.833 -60.5 -268.5s-97.833 -154.834 -172.5 -207.501s-159 -79 -253 -79c-54 0 -105.833 11.833 -155.5 35.5s-87.834 57.167 -114.501 100.5c-20 -82 -69.333 -123 -148 -123
c-44 0 -79.5 15.167 -106.5 45.5s-40.5 69.833 -40.5 118.5zM379 552.999c0 -79.333 19.833 -150.333 59.5 -213s96.834 -94 171.501 -94c48 0 89.667 14.667 125 44s61.666 66.5 78.999 111.5s26 92.167 26 141.5s-8.66699 97 -26 143s-43.5 83.833 -78.5 113.5
s-76.833 44.5 -125.5 44.5c-50 0 -92.5 -13.833 -127.5 -41.5s-61 -63.5 -78 -107.5s-25.5 -91.333 -25.5 -142z" />
    <glyph glyph-name="c" unicode="c" horiz-adv-x="948" 
d="M930 928c0 -33.333 -10.6641 -65.332 -31.9971 -95.999s-48.333 -46 -81 -46c-21.333 0 -56.833 9.66699 -106.5 29s-91.834 29 -126.501 29c-52.667 0 -97.834 -14.167 -135.501 -42.5s-65.834 -65.5 -84.501 -111.5s-28 -95 -28 -147
c0 -78.667 22.333 -147.834 67 -207.501s105 -89.5 181 -89.5c20.667 0 43 3.83301 67 11.5s53.167 17.834 87.5 30.501s55.833 19 64.5 19c22.667 0 43.667 -5.83301 63 -17.5s34.833 -27.334 46.5 -47.001s17.5 -41.167 17.5 -64.5c0 -46 -21.167 -84.333 -63.5 -115
s-92.166 -53 -149.499 -67s-106.666 -21 -147.999 -21c-102 0 -193.333 25.5 -274 76.5s-143.167 120 -187.5 207s-66.5 181.833 -66.5 284.5c0 73.333 12.833 144.5 38.5 213.5s62.167 130.5 109.5 184.5s103.666 96.333 168.999 127s135.666 46 210.999 46
c45.333 0 96.5 -6.16699 153.5 -18.5s105.833 -32.333 146.5 -60s61 -63.5 61 -107.5z" />
    <glyph glyph-name="d" unicode="d" 
d="M1092 1413l0.000976562 -1261c0 -32 -6.33301 -60.5 -19 -85.5s-30.334 -44.333 -53.001 -58s-48 -20.5 -76 -20.5c-79.333 0 -128.333 41 -147 123c-27.333 -43.333 -65.833 -76.833 -115.5 -100.5s-101.5 -35.5 -155.5 -35.5c-94 0 -178.167 26.333 -252.5 79
s-131.666 122 -171.999 208s-60.5 175.333 -60.5 268c0 100 18 194.667 54 284s90.167 161.666 162.5 216.999s158.5 83 258.5 83c33.333 0 66.666 -3.83301 99.999 -11.5s65 -18.834 95 -33.501s58.667 -33.667 86 -57v401c0 48.667 13.5 88.167 40.5 118.5
s62.5 45.5 106.5 45.5c28.667 0 54.167 -6.83301 76.5 -20.5s39.833 -33 52.5 -58s19 -53.5 19 -85.5zM797.001 553.002c0 79.333 -20.167 147.667 -60.5 205s-97.5 86 -171.5 86c-48 0 -89.5 -14.833 -124.5 -44.5s-61.167 -67.5 -78.5 -113.5s-26 -93.667 -26 -143
c0 -34 5 -69 15 -105s24.667 -68.5 44 -97.5s43.5 -52 72.5 -69s61.5 -25.5 97.5 -25.5c50 0 92.667 15 128 45s61.5 68.833 78.5 116.5s25.5 96.167 25.5 145.5z" />
    <glyph glyph-name="e" unicode="e" horiz-adv-x="1100" 
d="M950 446h-628.001c10 -70 40.667 -123 92 -159s113.333 -54 186 -54c44.667 0 82.667 7 114 21s70.5 33.833 117.5 59.5s81.167 38.5 102.5 38.5c20 0 39.5 -6.16699 58.5 -18.5s34.167 -28.166 45.5 -47.499s17 -39.666 17 -60.999c0 -30.667 -14.167 -61 -42.5 -91
s-66 -56.833 -113 -80.5s-100 -42.667 -159 -57s-114.833 -21.5 -167.5 -21.5c-107.333 0 -203.333 24.5 -288 73.5s-150 116.667 -196 203s-69 183.5 -69 291.5c0 73.333 13.167 144.666 39.5 213.999s63 131 110 185s103.333 96.167 169 126.5s135.834 45.5 210.501 45.5
c76.667 0 148.167 -15.833 214.5 -47.5s122.5 -73.5 168.5 -125.5s82 -109.833 108 -173.5s39 -126.834 39 -189.501c0 -88 -43 -132 -129 -132zM314.999 643l469 0.000976562c-8 67.333 -32.667 121.666 -74 162.999s-95 62 -161 62c-63.333 0 -116 -21 -158 -63
s-67.333 -96 -76 -162z" />
    <glyph glyph-name="f" unicode="f" horiz-adv-x="606" 
d="M152 152l0.000976562 678.998h-66c-38.667 0 -69.834 11.833 -93.501 35.5s-35.5 55.167 -35.5 94.5c0 36.667 12.333 67.334 37 92.001s55.334 37 92.001 37h66v151c0 106.667 28.5 189.334 85.5 248.001s131.5 88 223.5 88c58.667 0 107.5 -10.333 146.5 -31
s58.5 -54.667 58.5 -102c0 -83.333 -40.333 -125 -121 -125c-32.667 0 -57.334 -6 -74.001 -18s-25 -42.333 -25 -91v-120h93c99.333 0 149 -43 149 -129c0 -86.667 -49.667 -130 -149 -130h-93v-679c0 -48.667 -13.5 -88.167 -40.5 -118.5s-62.5 -45.5 -106.5 -45.5
s-79.5 15.167 -106.5 45.5s-40.5 69.833 -40.5 118.5z" />
    <glyph glyph-name="g" unicode="g" 
d="M1092 938l0.00292969 -852.002c0 -114.667 -23.667 -212 -71 -292s-113.833 -140 -199.5 -180s-184.834 -60 -297.501 -60c-46.667 0 -108 8 -184 24s-141.833 40.667 -197.5 74s-83.5 74.333 -83.5 123c0 28 12.833 56.5 38.5 85.5s52.5 43.5 80.5 43.5
c26 0 66.667 -10.667 122 -32s97.833 -36.666 127.5 -45.999s69.5 -14 119.5 -14c48 0 91 9.16699 129 27.5s67.667 45 89 80s32 76.833 32 125.5v70h-4c-64 -93.333 -163 -140 -297 -140c-75.333 0 -141.333 15 -198 45s-104.334 72 -143.001 126
s-67.334 114.667 -86.001 182s-28 138.333 -28 213c0 74 11.167 145.333 33.5 214s55 130.167 98 184.5s94.667 97 155 128s126.5 46.5 198.5 46.5c34.667 0 69.5 -5.16699 104.5 -15.5s67 -25.666 96 -45.999s52.5 -44.833 70.5 -73.5c18.667 82 67.667 123 147 123
c28.667 0 54.167 -6.83301 76.5 -20.5s39.833 -33 52.5 -58s19 -53.5 19 -85.5zM797.003 536.998c0 49.333 -8.50293 97.833 -25.5029 145.5s-43.167 86.5 -78.5 116.5s-78 45 -128 45c-47.333 0 -88.666 -14.667 -123.999 -44s-61.666 -66.5 -78.999 -111.5
s-26 -92.167 -26 -141.5c0 -54.667 8.66699 -104.667 26 -150s43.333 -81.833 78 -109.5s76.334 -41.5 125.001 -41.5c74 0 131.167 28.5 171.5 85.5s60.5 125.5 60.5 205.5z" />
    <glyph glyph-name="h" unicode="h" horiz-adv-x="1139" 
d="M84 152l0.00488281 1261c0 48.667 13.5 88.167 40.5 118.5s62.5 45.5 106.5 45.5c28.667 0 54.167 -6.83301 76.5 -20.5s39.833 -33 52.5 -58s19 -53.5 19 -85.5v-401h4c28 34.667 66.833 60.334 116.5 77.001s100.167 25 151.5 25
c77.333 0 146.666 -15.833 207.999 -47.5s109.333 -77.334 144 -137.001s52 -130.5 52 -212.5v-565c0 -32 -6.33301 -60.5 -19 -85.5s-30.334 -44.333 -53.001 -58s-48 -20.5 -76 -20.5c-44 0 -79.5 15.167 -106.5 45.5s-40.5 69.833 -40.5 118.5v514
c0 66 -17.833 116.167 -53.5 150.5s-82.167 51.5 -139.5 51.5c-38.667 0 -72.334 -8.83301 -101.001 -26.5s-50.334 -41.5 -65.001 -71.5s-22 -64.667 -22 -104v-514c0 -32 -6.33301 -60.5 -19 -85.5s-30.334 -44.333 -53.001 -58s-48 -20.5 -76 -20.5
c-44 0 -79.5 15.167 -106.5 45.5s-40.5 69.833 -40.5 118.5z" />
    <glyph glyph-name="i" unicode="i" horiz-adv-x="455" 
d="M80 152l0.000976562 786c0 48.667 13.5 88.167 40.5 118.5s62.5 45.5 106.5 45.5c28.667 0 54.167 -6.83301 76.5 -20.5s39.833 -33 52.5 -58s19 -53.5 19 -85.5v-786c0 -32 -6.33301 -60.5 -19 -85.5s-30.334 -44.333 -53.001 -58s-48 -20.5 -76 -20.5
c-44 0 -79.5 15.167 -106.5 45.5s-40.5 69.833 -40.5 118.5zM227.001 1544c29.333 0 56.668 -7.66699 82.001 -23s45.666 -35.5 60.999 -60.5s23 -51.167 23 -78.5c0 -46 -16.167 -85.833 -48.5 -119.5s-71.5 -50.5 -117.5 -50.5c-43.333 0 -81.833 17.333 -115.5 52
s-50.5 74 -50.5 118c0 42 16.833 79.5 50.5 112.5s72.167 49.5 115.5 49.5z" />
    <glyph glyph-name="j" unicode="j" horiz-adv-x="455" 
d="M80 -283l0.000976562 1221c0 48.667 13.5 88.167 40.5 118.5s62.5 45.5 106.5 45.5c28.667 0 54.167 -6.83301 76.5 -20.5s39.833 -33 52.5 -58s19 -53.5 19 -85.5v-1221c0 -30.667 -6.33301 -58.667 -19 -84s-30.334 -44.833 -53.001 -58.5s-48 -20.5 -76 -20.5
c-44 0 -79.5 14.833 -106.5 44.5s-40.5 69.167 -40.5 118.5zM227.001 1544c29.333 0 56.668 -7.66699 82.001 -23s45.666 -35.5 60.999 -60.5s23 -51.167 23 -78.5c0 -46 -16.167 -85.833 -48.5 -119.5s-71.5 -50.5 -117.5 -50.5c-43.333 0 -81.833 17.333 -115.5 52
s-50.5 74 -50.5 118c0 42 16.833 79.5 50.5 112.5s72.167 49.5 115.5 49.5z" />
    <glyph glyph-name="k" unicode="k" horiz-adv-x="1024" 
d="M84 152v1261c0 48.667 13.5 88.167 40.5 118.5s62.5 45.5 106.5 45.5c28.667 0 54.167 -6.83301 76.5 -20.5s39.833 -33 52.5 -58s19 -53.5 19 -85.5v-688l323 313c45.333 42.667 90 64 134 64c35.333 0 65 -13.667 89 -41s36 -58 36 -92
c0 -42.667 -19.333 -81.667 -58 -117l-262 -234l346 -405c24.667 -28 37 -60.667 37 -98c0 -39.333 -13.5 -72.5 -40.5 -99.5s-59.833 -40.5 -98.5 -40.5c-25.333 0 -48.666 7.16699 -69.999 21.5s-45.333 37.5 -72 69.5l-360 444h-4v-358c0 -32 -6.33301 -60.5 -19 -85.5
s-30.334 -44.333 -53.001 -58s-48 -20.5 -76 -20.5c-44 0 -79.5 15.167 -106.5 45.5s-40.5 69.833 -40.5 118.5z" />
    <glyph glyph-name="l" unicode="l" horiz-adv-x="455" 
d="M80 152l0.000976562 1261c0 48.667 13.5 88.167 40.5 118.5s62.5 45.5 106.5 45.5c28.667 0 54.167 -6.83301 76.5 -20.5s39.833 -33 52.5 -58s19 -53.5 19 -85.5v-1261c0 -32 -6.33301 -60.5 -19 -85.5s-30.334 -44.333 -53.001 -58s-48 -20.5 -76 -20.5
c-44 0 -79.5 15.167 -106.5 45.5s-40.5 69.833 -40.5 118.5z" />
    <glyph glyph-name="m" unicode="m" horiz-adv-x="1745" 
d="M84 152l-0.000976562 785.999c0 48.667 13.5 88.167 40.5 118.5s62.5 45.5 106.5 45.5c38 0 68.833 -9.66699 92.5 -29s38.167 -46.666 43.5 -81.999c74.667 82 166 123 274 123c124 0 225.667 -49.667 305 -149c39.333 44.667 88.333 80.667 147 108
s113.334 41 164.001 41c80.667 0 151.334 -15.167 212.001 -45.5s107.834 -75.5 141.501 -135.5s50.5 -132 50.5 -216v-565c0 -32 -6.33301 -60.5 -19 -85.5s-30.334 -44.333 -53.001 -58s-48 -20.5 -76 -20.5c-44 0 -79.5 15.167 -106.5 45.5s-40.5 69.833 -40.5 118.5v514
c0 40 -6.83301 75 -20.5 105s-33.5 53.667 -59.5 71s-56.667 26 -92 26c-53.333 0 -95.666 -18.5 -126.999 -55.5s-47 -85.833 -47 -146.5v-514c0 -32 -6.33301 -60.5 -19 -85.5s-30.334 -44.333 -53.001 -58s-48 -20.5 -76 -20.5c-44 0 -79.5 15.167 -106.5 45.5
s-40.5 69.833 -40.5 118.5v514c0 40 -6.83301 75 -20.5 105s-33.5 53.667 -59.5 71s-56.667 26 -92 26c-39.333 0 -72 -8.5 -98 -25.5s-45.167 -40.5 -57.5 -70.5s-18.5 -65.333 -18.5 -106v-514c0 -32 -6.33301 -60.5 -19 -85.5s-30.334 -44.333 -53.001 -58
s-48 -20.5 -76 -20.5c-44 0 -79.5 15.167 -106.5 45.5s-40.5 69.833 -40.5 118.5z" />
    <glyph glyph-name="n" unicode="n" horiz-adv-x="1139" 
d="M84 152l0.00488281 786.001c0 48.667 13.5 88.167 40.5 118.5s62.5 45.5 106.5 45.5c38 0 68.833 -9.66699 92.5 -29s38.167 -46 43.5 -80c57.333 80.667 152 121 284 121c77.333 0 146.666 -15.833 207.999 -47.5s109.333 -77.334 144 -137.001s52 -130.5 52 -212.5
v-565c0 -32 -6.33301 -60.5 -19 -85.5s-30.334 -44.333 -53.001 -58s-48 -20.5 -76 -20.5c-44 0 -79.5 15.167 -106.5 45.5s-40.5 69.833 -40.5 118.5v514c0 66 -17.833 116.167 -53.5 150.5s-82.167 51.5 -139.5 51.5c-38.667 0 -72.334 -8.83301 -101.001 -26.5
s-50.334 -41.5 -65.001 -71.5s-22 -64.667 -22 -104v-514c0 -32 -6.33301 -60.5 -19 -85.5s-30.334 -44.333 -53.001 -58s-48 -20.5 -76 -20.5c-44 0 -79.5 15.167 -106.5 45.5s-40.5 69.833 -40.5 118.5z" />
    <glyph glyph-name="o" unicode="o" horiz-adv-x="1139" 
d="M569 1114c76 0 146.835 -15.5 212.502 -46.5s122 -73.167 169 -126.5s83.333 -114 109 -182s38.5 -140 38.5 -216c0 -76.667 -12.833 -149.5 -38.5 -218.5s-61.334 -129.333 -107.001 -181s-101.667 -92.667 -168 -123s-138.166 -45.5 -215.499 -45.5
c-102 0 -193.333 25.5 -274 76.5s-143.167 120 -187.5 207s-66.5 181.833 -66.5 284.5c0 73.333 12.833 144.5 38.5 213.5s62.167 130.5 109.5 184.5s103.666 96.333 168.999 127s135.666 46 210.999 46zM569.002 844c-49.333 0 -91.834 -14.498 -127.501 -43.498
s-62.167 -66.833 -79.5 -113.5s-26 -94.667 -26 -144c0 -50 8.83301 -97.833 26.5 -143.5s44 -82.667 79 -111s77.5 -42.5 127.5 -42.5c50.667 0 93.5 14.167 128.5 42.5s61.333 65.333 79 111s26.5 93.5 26.5 143.5c0 49.333 -8.66699 97.166 -26 143.499
s-43.666 84.166 -78.999 113.499s-78.333 44 -129 44z" />
    <glyph glyph-name="p" unicode="p" 
d="M84 -283l-0.000976562 1221c0 48.667 13.5 88.167 40.5 118.5s62.5 45.5 106.5 45.5c78.667 0 128 -41 148 -123c27.333 44 66.333 77.5 117 100.5s105 34.5 163 34.5c100.667 0 186.834 -27.667 258.501 -83s125.834 -127.666 162.501 -216.999s55 -184 55 -284
c0 -93.333 -20.167 -182.833 -60.5 -268.5s-97.833 -154.834 -172.5 -207.501s-159 -79 -253 -79c-46.667 0 -93.667 8.83301 -141 26.5s-90.333 43.167 -129 76.5v-361c0 -30.667 -6.33301 -58.667 -19 -84s-30.334 -44.833 -53.001 -58.5s-48 -20.5 -76 -20.5
c-44 0 -79.5 14.833 -106.5 44.5s-40.5 69.167 -40.5 118.5zM378.999 553c0 -79.333 19.833 -150.333 59.5 -213s96.834 -94 171.501 -94c48 0 89.667 14.667 125 44s61.666 66.5 78.999 111.5s26 92.167 26 141.5s-8.66699 97 -26 143s-43.5 83.833 -78.5 113.5
s-76.833 44.5 -125.5 44.5c-50 0 -92.5 -13.833 -127.5 -41.5s-61 -63.5 -78 -107.5s-25.5 -91.333 -25.5 -142z" />
    <glyph glyph-name="q" unicode="q" 
d="M1092 938v-1221c0 -30.667 -6.33301 -58.667 -19 -84s-30.334 -44.833 -53.001 -58.5s-48 -20.5 -76 -20.5c-44 0 -79.5 14.833 -106.5 44.5s-40.5 69.167 -40.5 118.5v361c-38.667 -33.333 -82 -58.833 -130 -76.5s-95 -26.5 -141 -26.5
c-94 0 -178.167 26.333 -252.5 79s-131.666 122 -171.999 208s-60.5 175.333 -60.5 268c0 100 18 194.667 54 284s90.167 161.666 162.5 216.999s158.5 83 258.5 83c37.333 0 74.333 -5.16699 111 -15.5s69.5 -25.5 98.5 -45.5s52.833 -44.667 71.5 -74
c18.667 82 67.667 123 147 123c28.667 0 54.167 -6.83301 76.5 -20.5s39.833 -33 52.5 -58s19 -53.5 19 -85.5zM797 553.001c0 79.333 -20.167 147.667 -60.5 205s-97.5 86 -171.5 86c-48 0 -89.5 -14.833 -124.5 -44.5s-61.167 -67.5 -78.5 -113.5s-26 -93.667 -26 -143
c0 -34 5 -69 15 -105s24.667 -68.5 44 -97.5s43.5 -52 72.5 -69s61.5 -25.5 97.5 -25.5c50 0 92.667 15 128 45s61.5 68.833 78.5 116.5s25.5 96.167 25.5 145.5z" />
    <glyph glyph-name="r" unicode="r" horiz-adv-x="682" 
d="M80 152l0.00195312 802c0 46.667 15.167 83 45.5 109s65.5 39 105.5 39c96 0 144 -41 144 -123h4c30 43.333 60.667 74.666 92 93.999s69.666 29 114.999 29c38 0 71.333 -13.667 100 -41s43 -66.333 43 -117c0 -29.333 -7.5 -51.666 -22.5 -66.999
s-35.5 -28.333 -61.5 -39l-92 -37c-58.667 -26.667 -103 -53.167 -133 -79.5s-45 -65.5 -45 -117.5v-452c0 -32 -6.33301 -60.5 -19 -85.5s-30.334 -44.333 -53.001 -58s-48 -20.5 -76 -20.5c-44 0 -79.5 15.167 -106.5 45.5s-40.5 69.833 -40.5 118.5z" />
    <glyph glyph-name="s" unicode="s" horiz-adv-x="872" 
d="M825 901c0 -34 -11.499 -64.333 -34.499 -91s-51.5 -40 -85.5 -40c-15.333 0 -44.5 9.66699 -87.5 29s-76.167 33.666 -99.5 42.999s-49.333 14 -78 14s-52.5 -7 -71.5 -21s-28.5 -34.333 -28.5 -61c0 -28.667 29.333 -55.834 88 -81.501l186.5 -79
c65.667 -27 121.667 -63.167 168 -108.5s69.5 -106.333 69.5 -183c0 -66 -17.333 -125.167 -52 -177.5s-84.167 -93.666 -148.5 -123.999s-137.5 -45.5 -219.5 -45.5c-58 0 -119.167 10 -183.5 30s-118.5 47.667 -162.5 83s-66 73.666 -66 114.999
c0 26.667 11.833 55.167 35.5 85.5s54.167 45.5 91.5 45.5c26.667 0 50 -4.16699 70 -12.5s45.167 -21.166 75.5 -38.499s56.666 -30 78.999 -38s49.5 -12 81.5 -12c43.333 0 73.5 6.83301 90.5 20.5s25.5 34.834 25.5 63.501s-28.333 55.334 -85 80.001l-187 79
c-68 28 -125 65 -171 111s-69 107 -69 183c0 67.333 17 127 51 179s81.333 92.5 142 121.5s129.667 43.5 207 43.5c54 0 109.333 -8 166 -24s104.5 -40.333 143.5 -73s58.5 -71.334 58.5 -116.001z" />
    <glyph glyph-name="t" unicode="t" horiz-adv-x="606" 
d="M156 152l-0.000976562 678.999h-66c-38.667 0 -69.834 11.833 -93.501 35.5s-35.5 55.167 -35.5 94.5c0 36.667 12.333 67.334 37 92.001s55.334 37 92.001 37h66v176c0 48.667 13.5 88.167 40.5 118.5s62.5 45.5 106.5 45.5c28.667 0 54.167 -6.83301 76.5 -20.5
s39.833 -33 52.5 -58s19 -53.5 19 -85.5v-176h84c40.667 0 74.334 -10.5 101.001 -31.5s40 -53.5 40 -97.5s-13.167 -76.667 -39.5 -98s-60.166 -32 -101.499 -32h-84v-679c0 -32 -6.33301 -60.5 -19 -85.5s-30.334 -44.333 -53.001 -58s-48 -20.5 -76 -20.5
c-44 0 -79.5 15.167 -106.5 45.5s-40.5 69.833 -40.5 118.5z" />
    <glyph glyph-name="u" unicode="u" horiz-adv-x="1139" 
d="M84 406l-0.000976562 532c0 48.667 13.5 88.167 40.5 118.5s62.5 45.5 106.5 45.5c28.667 0 54.167 -6.83301 76.5 -20.5s39.833 -33 52.5 -58s19 -53.5 19 -85.5v-526c0 -58 18.833 -104.333 56.5 -139s82.167 -52 133.5 -52c34.667 0 66.334 7.5 95.001 22.5
s51.834 36.833 69.501 65.5s26.5 63 26.5 103v526c0 48.667 13.5 88.167 40.5 118.5s62.5 45.5 106.5 45.5c28.667 0 54.167 -6.83301 76.5 -20.5s39.833 -33 52.5 -58s19 -53.5 19 -85.5v-532c0 -87.333 -18.833 -163.5 -56.5 -228.5s-93.334 -115 -167.001 -150
s-161.167 -52.5 -262.5 -52.5c-154 0 -273.333 38.667 -358 116s-127 182.333 -127 315z" />
    <glyph glyph-name="v" unicode="v" horiz-adv-x="946" 
d="M313 111l-297.001 761.003c-12 32 -18 60.667 -18 86c0 45.333 15 80.666 45 105.999s66.333 38 109 38c64 0 107.667 -35 131 -105l188 -581h4l189 581c22 70 65.667 105 131 105c42.667 0 78.834 -12.5 108.501 -37.5s44.5 -60.5 44.5 -106.5c0 -25.333 -6 -54 -18 -86
l-297 -761c-16 -42.667 -35.167 -73.834 -57.5 -93.501s-56.5 -29.5 -102.5 -29.5s-79.833 9.66699 -101.5 29s-41.167 50.666 -58.5 93.999z" />
    <glyph glyph-name="w" unicode="w" horiz-adv-x="1593" 
d="M295 137l-249.996 706.999c-20.667 60.667 -31 107 -31 139c0 33.333 13.833 61.5 41.5 84.5s63.167 34.5 106.5 34.5c34.667 0 64.5 -10.667 89.5 -32s41.5 -49.666 49.5 -84.999l170 -563h4l172 551c12.667 42 30.5 74 53.5 96s55.167 33 96.5 33
c42 0 74.5 -11 97.5 -33s40.167 -54 51.5 -96l172 -551h4l170 563c9.33301 35.333 26.166 63.666 50.499 84.999s54.166 32 89.499 32c28 0 53.333 -5.66699 76 -17s40.167 -28.166 52.5 -50.499s18.5 -47.833 18.5 -76.5c0 -15.333 -9.66699 -52 -29 -110l-252 -711
c-34.667 -99.333 -94 -149 -178 -149c-84.667 0 -141.334 45.667 -170.001 137l-151 475h-4l-152 -475c-28.667 -91.333 -85.334 -137 -170.001 -137c-45.333 0 -82 13 -110 39s-50.667 62.667 -68 110z" />
    <glyph glyph-name="x" unicode="x" horiz-adv-x="1024" 
d="M41 231l298.998 339.999l-250 281c-30 36 -45 71.333 -45 106c0 38.667 15.5 72.334 46.5 101.001s66.167 43 105.5 43s75.333 -19.333 108 -58l207 -258l207 258c32.667 38.667 68.667 58 108 58s74.5 -14.5 105.5 -43.5s46.5 -62.5 46.5 -100.5
c0 -34.667 -15 -70 -45 -106l-250 -281l299 -340c12 -12 21.833 -27 29.5 -45s11.5 -36.333 11.5 -55c0 -42.667 -13.5 -77.167 -40.5 -103.5s-61.833 -39.5 -104.5 -39.5c-30 0 -53.167 5 -69.5 15s-34.166 26.667 -53.499 50l-244 299l-244 -299
c-19.333 -23.333 -37.166 -40 -53.499 -50s-39.5 -15 -69.5 -15c-42.667 0 -77.5 13.167 -104.5 39.5s-40.5 60.833 -40.5 103.5c0 16 3.66699 33.333 11 52s17.333 34.667 30 48z" />
    <glyph glyph-name="y" unicode="y" horiz-adv-x="985" 
d="M336 86l-326 812.999c-9.33301 26.667 -14 52 -14 76c0 35.333 14.833 65.333 44.5 90s61.167 37 94.5 37c35.333 0 65.833 -9.16699 91.5 -27.5s44.5 -44.166 56.5 -77.499l202 -555l217 555c13.333 33.333 32.5 59.166 57.5 77.499s55.167 27.5 90.5 27.5
c33.333 0 64.833 -12.167 94.5 -36.5s44.5 -54.5 44.5 -90.5c0 -29.333 -4.66699 -54.666 -14 -75.999l-494 -1229c-30.667 -77.333 -77 -116 -139 -116c-46.667 0 -84 12.667 -112 38s-42 55 -42 89c0 23.333 6.33301 52 19 86z" />
    <glyph glyph-name="z" unicode="z" horiz-adv-x="985" 
d="M49 180l463.002 651h-342c-38 0 -69.667 11.833 -95 35.5s-38 55.167 -38 94.5s12.667 70.666 38 93.999s57 35 95 35h670c21.333 0 42.666 -6.83301 63.999 -20.5s32 -37.834 32 -72.501c0 -19.333 -2.33301 -35 -7 -47s-12.667 -25.667 -24 -41l-465 -651h389
c38.667 0 70.667 -11.667 96 -35s38 -54.666 38 -93.999s-12.667 -70.666 -38 -93.999s-57.333 -35 -96 -35h-686c-34.667 -0 -63.334 8.83301 -86.001 26.5s-34 42.167 -34 73.5c0 25.333 8.66699 52 26 80z" />
    <glyph glyph-name="braceleft" unicode="{" horiz-adv-x="682" 
d="M176 -47l0.00195312 396.995c0 54.667 -8.5 90.834 -25.5 108.501s-41.167 26.5 -72.5 26.5c-30.667 0 -54.667 9.83301 -72 29.5s-26 42.834 -26 69.501s8.33301 49.667 25 69s41 29 73 29c31.333 0 55.5 8.83301 72.5 26.5s25.5 53.834 25.5 108.501v397
c0 92 22.667 159.833 68 203.5s113.666 65.5 204.999 65.5h126c27.333 0 49.666 -7.83301 66.999 -23.5s26 -38.5 26 -68.5c0 -29.333 -8.66699 -52.166 -26 -68.499s-39.666 -24.5 -66.999 -24.5h-51c-60 0 -90 -39.333 -90 -118v-387c0 -82 -21.833 -135.667 -65.5 -161
s-95.5 -40.666 -155.5 -45.999v-4c58.667 -4.66699 110.167 -20.167 154.5 -46.5s66.5 -79.833 66.5 -160.5v-387c0 -79.333 30 -119 90 -119h51c27.333 0 49.666 -7.83301 66.999 -23.5s26 -38.5 26 -68.5s-8.66699 -52.833 -26 -68.5s-39.666 -23.5 -66.999 -23.5h-126
c-90.667 0 -158.834 21.833 -204.501 65.5s-68.5 111.167 -68.5 202.5z" />
    <glyph glyph-name="bar" unicode="|" horiz-adv-x="455" 
d="M350 1454l-0.000976562 -1356c0 -36 -11.167 -65.5 -33.5 -88.5s-52.166 -34.5 -89.499 -34.5c-36 0 -65.5 11.5 -88.5 34.5s-34.5 52.5 -34.5 88.5v1356c0 37.333 11.167 67.166 33.5 89.499s52.166 33.5 89.499 33.5c38.667 0 68.834 -11.167 90.501 -33.5
s32.5 -52.166 32.5 -89.499z" />
    <glyph glyph-name="braceright" unicode="}" horiz-adv-x="682" 
d="M506 1214l0.00195312 -396.999c0 -54.667 8.5 -90.834 25.5 -108.501s41.167 -26.5 72.5 -26.5c32.667 0 57.167 -9.5 73.5 -28.5s24.5 -42.167 24.5 -69.5s-8.5 -50.666 -25.5 -69.999s-41.167 -29 -72.5 -29s-55.5 -8.83301 -72.5 -26.5s-25.5 -53.834 -25.5 -108.501
v-397c0 -92 -22.833 -159.667 -68.5 -203s-113.834 -65 -204.501 -65h-127c-26.667 0 -48.667 7.83301 -66 23.5s-26 38.5 -26 68.5s8.66699 52.833 26 68.5s39.333 23.5 66 23.5h52c60 0 90 39.667 90 119v387c0 80 22.167 133.333 66.5 160s95.833 42.334 154.5 47.001v4
c-60 5.33301 -111.833 20.833 -155.5 46.5s-65.5 79.167 -65.5 160.5v387c0 78.667 -30 118 -90 118h-52c-26.667 0 -48.667 8.16699 -66 24.5s-26 39.166 -26 68.499c0 30 8.66699 52.833 26 68.5s39.333 23.5 66 23.5h127c91.333 0 159.666 -21.667 204.999 -65
s68 -111.333 68 -204z" />
    <glyph glyph-name="asciitilde" unicode="~" horiz-adv-x="1229" 
d="M829 571c25.333 0 46.8281 5.16797 64.4951 15.501s37.667 26.333 60 48s40.5 37.334 54.5 47.001s30.333 14.5 49 14.5c30.667 0 53 -9.66699 67 -29s21 -43 21 -71c0 -43.333 -12.5 -85.833 -37.5 -127.5s-61.167 -75.834 -108.5 -102.501s-102.333 -40 -165 -40
c-32.667 0 -67 5.83301 -103 17.5s-78.5 28.667 -127.5 51s-89.833 39.666 -122.5 51.999s-60 18.5 -82 18.5c-25.333 0 -47 -5.33301 -65 -16s-38.667 -27.334 -62 -50.001s-41.166 -38.167 -53.499 -46.5s-27.833 -12.5 -46.5 -12.5c-30 0 -52.167 10 -66.5 30
s-21.5 43.333 -21.5 70c0 43.333 12.333 85.833 37 127.5s60.834 76 108.501 103s102.834 40.5 165.501 40.5c34 0 70.833 -6.5 110.5 -19.5s77.334 -27.667 113.001 -44s74.334 -33.166 116.001 -50.499s73.167 -26 94.5 -26z" />
    <glyph glyph-name="exclamdown" unicode="&#xa1;" horiz-adv-x="684" 
d="M195 -254v789c0 42 13.667 75.667 41 101s62.666 38 105.999 38c42 0 77 -13 105 -39s42 -59.333 42 -100v-789c0 -42 -14 -75.667 -42 -101s-63 -38 -105 -38c-43.333 0 -78.666 12.667 -105.999 38s-41 59 -41 101zM342 1114c44 0 81.667 -15.667 113 -47
s47 -69 47 -113s-15.833 -81.5 -47.5 -112.5s-69.167 -46.5 -112.5 -46.5s-80.833 15.5 -112.5 46.5s-47.5 68.5 -47.5 112.5s15.667 81.667 47 113s69 47 113 47z" />
    <glyph glyph-name="cent" unicode="&#xa2;" horiz-adv-x="948" 
d="M487 270v551c-49.333 -20 -86.833 -55.667 -112.5 -107s-38.5 -108.333 -38.5 -171c0 -59.333 13.333 -114.333 40 -165s63.667 -86.667 111 -108zM598 842l0.00195312 -595.995c28.667 2.66699 68.167 13.5 118.5 32.5s79.166 28.5 86.499 28.5
c22.667 0 43.667 -5.83301 63 -17.5s34.833 -27.334 46.5 -47.001s17.5 -41.167 17.5 -64.5c0 -64 -35.5 -112.833 -106.5 -146.5s-146.167 -52.5 -225.5 -56.5v-47c0 -20.667 -0.833008 -37.5 -2.5 -50.5s-6.66699 -23.833 -15 -32.5s-20.833 -13 -37.5 -13
c-24.667 0 -40.167 8.16699 -46.5 24.5s-9.5 40.166 -9.5 71.499v56c-90.667 12.667 -169.834 45 -237.501 97s-119.334 118.833 -155.001 200.5s-53.5 171.5 -53.5 269.5c0 93.333 18.5 179.666 55.5 258.999s89.5 145.166 157.5 197.499s145.667 85.166 233 98.499v57
c0 34.667 3 59.5 9 74.5s21.667 22.5 47 22.5c24.667 0 40 -7.5 46 -22.5s9 -39.833 9 -74.5v-49c43.333 -1.33301 90.833 -8.33301 142.5 -21s96.167 -33 133.5 -61s56 -62.667 56 -104c0 -34.667 -10.667 -67.667 -32 -99s-48.333 -47 -81 -47
c-21.333 0 -55.666 9.5 -102.999 28.5s-86 29.5 -116 31.5z" />
    <glyph glyph-name="sterling" unicode="&#xa3;" horiz-adv-x="1251" 
d="M559 868l311.003 -0.00390625c28 0 53.333 -5.66699 76 -17s40.334 -27.666 53.001 -48.999s19 -46.333 19 -75s-6.33301 -53.667 -19 -75s-30.334 -37.666 -53.001 -48.999s-48 -17 -76 -17h-264c0 -106 -34.667 -207 -104 -303h569c28 0 53.5 -5.83301 76.5 -17.5
s40.667 -28.167 53 -49.5s18.5 -46.333 18.5 -75s-6.33301 -53.667 -19 -75s-30.334 -37.666 -53.001 -48.999s-48 -17 -76 -17h-803c-50.667 0 -89.834 14.5 -117.501 43.5s-41.5 67.833 -41.5 116.5c0 17.333 8.66699 38 26 62l65 91c26 36.667 47 77 63 121
s24 94.667 24 152h-107c-44 0 -79.5 12.667 -106.5 38s-40.5 59.666 -40.5 102.999s13.5 77.666 40.5 102.999s62.5 38 106.5 38h43c-12.667 26 -24.667 61.667 -36 107s-17 82 -17 110c0 78.667 23.167 148.334 69.5 209.001s109 107.334 188 140.001s165.167 49 258.5 49
s180 -15.5 260 -46.5s143 -73.5 189 -127.5s69 -114.333 69 -181c0 -46.667 -14.833 -84.167 -44.5 -112.5s-68.167 -42.5 -115.5 -42.5c-29.333 0 -52.333 7.33301 -69 22s-40 40.834 -70 78.501s-59.833 66.167 -89.5 85.5s-68.834 29 -117.501 29
c-54 0 -100.167 -14.167 -138.5 -42.5s-57.5 -66.833 -57.5 -115.5c0 -43.333 8.66699 -79.333 26 -108z" />
    <glyph glyph-name="currency" unicode="&#xa4;" horiz-adv-x="1229" 
d="M614 223c-56.667 0 -110.666 8.16602 -161.999 24.499s-94 39.5 -128 69.5l-117 -120c-14 -16.667 -34 -25 -60 -25c-30 0 -53.167 11 -69.5 33s-24.5 46.667 -24.5 74c0 10 3 18.5 9 25.5s12.667 14.167 20 21.5l119 118c-20.667 23.333 -38 50 -52 80
s-24.667 62.667 -32 98s-11 71 -11 107c0 57.333 8.16699 112.333 24.5 165s39.833 94 70.5 124l-119 119c-16.667 16.667 -26.334 32.334 -29.001 47.001c0 30 8.33301 54.333 25 73c16 22 39 33 69 33c26 0 46 -8 60 -24l117 -117c32.667 26.667 75.667 48.334 129 65.001
s107 25 161 25c54.667 0 109.167 -8.5 163.5 -25.5s96.833 -38.5 127.5 -64.5l117 117c14 16 33.667 24 59 24c30.667 0 54 -11 70 -33c16.667 -23.333 25 -47.666 25 -72.999c0 -12 -9.66699 -27.667 -29 -47l-119 -119c31.333 -30.667 54.833 -71.334 70.5 -122.001
s23.5 -106.334 23.5 -167.001c0 -56 -8.33301 -109.167 -25 -159.5s-39.667 -92.166 -69 -125.499l119 -118c7.33301 -7.33301 14 -14.333 20 -21s9 -15.334 9 -26.001c0 -26 -8.33301 -50.667 -25 -74c-16 -22 -39.333 -33 -70 -33c-25.333 0 -45 8.33301 -59 25l-117 120
c-32.667 -30 -75 -53.167 -127 -69.5s-106.667 -24.5 -164 -24.5zM614.001 1006c-74.667 0 -137 -26.5 -187 -79.5s-75 -118.833 -75 -197.5c0 -78 25 -142.833 75 -194.5s112.333 -77.5 187 -77.5c75.333 0 138 25.833 188 77.5s75 116.5 75 194.5
c0 78.667 -24.833 144.5 -74.5 197.5s-112.5 79.5 -188.5 79.5z" />
    <glyph glyph-name="yen" unicode="&#xa5;" 
d="M434 137l-0.00195312 248.001h-291c-26 0 -48.833 8.16699 -68.5 24.5s-29.5 36.833 -29.5 61.5s9.83301 45.167 29.5 61.5s42.5 24.5 68.5 24.5h291v139h-291c-26 0 -48.833 8.16699 -68.5 24.5s-29.5 36.833 -29.5 61.5c0 25.333 9.66699 46 29 62s42.333 24 69 24h166
l-260 361c-19.333 28 -29 58.667 -29 92c0 40.667 14 75.667 42 105s63.333 44 106 44c25.333 0 49.833 -5.5 73.5 -16.5s41.5 -25.833 53.5 -44.5l293 -428l293 428c12 18.667 29.833 33.5 53.5 44.5s48.167 16.5 73.5 16.5c42.667 0 77.834 -14.5 105.501 -43.5
s41.5 -64.167 41.5 -105.5c0 -34.667 -9.66699 -65.334 -29 -92.001l-260 -361h166c26.667 0 49.667 -8 69 -24s29 -36.667 29 -62c0 -24.667 -9.83301 -45.167 -29.5 -61.5s-42.5 -24.5 -68.5 -24.5h-291v-139h291c26 0 48.833 -8.16699 68.5 -24.5
s29.5 -36.833 29.5 -61.5s-9.83301 -45.167 -29.5 -61.5s-42.5 -24.5 -68.5 -24.5h-291v-248c0 -41.333 -12.667 -76.5 -38 -105.5s-63.666 -43.5 -114.999 -43.5c-52 0 -90.667 14.5 -116 43.5s-38 64.167 -38 105.5z" />
    <glyph glyph-name="brokenbar" unicode="&#xa6;" horiz-adv-x="455" 
d="M104 98l0.000976562 398c0 36.667 11.167 66.167 33.5 88.5s52.166 33.5 89.499 33.5c25.333 0 47.166 -5 65.499 -15s32.5 -24.167 42.5 -42.5s15 -39.833 15 -64.5v-398c0 -36 -11.167 -65.5 -33.5 -88.5s-52.166 -34.5 -89.499 -34.5c-36 0 -65.5 11.5 -88.5 34.5
s-34.5 52.5 -34.5 88.5zM104.001 1057v397c0 37.333 11.167 67.166 33.5 89.499s52.166 33.5 89.499 33.5c38.667 0 68.834 -11.167 90.501 -33.5s32.5 -52.166 32.5 -89.499v-397c0 -37.333 -10.833 -67.166 -32.5 -89.499s-51.834 -33.5 -90.501 -33.5
c-37.333 0 -67.166 11.167 -89.499 33.5s-33.5 52.166 -33.5 89.499z" />
    <glyph glyph-name="section" unicode="&#xa7;" 
d="M573 1483c52 0 105.499 -5.16113 160.499 -15.4941s109.167 -27.333 162.5 -51s97.166 -55.334 131.499 -95.001s51.5 -86.834 51.5 -141.501c0 -37.333 -13.667 -71 -41 -101s-59.333 -45 -96 -45c-27.333 0 -51.166 7 -71.499 21s-46.333 35.833 -78 65.5
s-61.167 52.334 -88.5 68.001s-58.666 23.5 -93.999 23.5c-40.667 0 -76 -13.333 -106 -40s-45 -60.334 -45 -101.001c0 -34.667 14.167 -61.834 42.5 -81.501s77.666 -42.667 147.999 -69s120.166 -47.166 149.499 -62.499c106 -44 188.5 -91.333 247.5 -142
s88.5 -119.334 88.5 -206.001c0 -84 -17.333 -152.667 -52 -206s-89.667 -106.333 -165 -159c30 -37.333 52.167 -72.333 66.5 -105s21.5 -69.334 21.5 -110.001c0 -58 -11.5 -110.167 -34.5 -156.5s-54.667 -85.833 -95 -118.5s-87.166 -57.667 -140.499 -75
s-107.666 -26 -162.999 -26c-80 0 -159.167 14.5 -237.5 43.5s-142.833 67.5 -193.5 115.5s-76 98 -76 150c0 43.333 16 79.666 48 108.999s70.333 44 115 44c24.667 0 45 -6.83301 61 -20.5s39.167 -37.334 69.5 -71.001s58.333 -58.834 84 -75.501s56.834 -25 93.501 -25
s70.667 10.667 102 32s47 49.666 47 84.999c0 27.333 -8.66699 51.5 -26 72.5s-41 39.333 -71 55s-64.167 30.834 -102.5 45.501l-121.5 46c-100.667 40 -179.834 87.5 -237.501 142.5s-86.5 130.833 -86.5 227.5c0 77.333 14.5 142.5 43.5 195.5s75.167 105.5 138.5 157.5
c-34 38 -58.5 72.5 -73.5 103.5s-22.5 68.167 -22.5 111.5c0 78 20 146.333 60 205s93.833 103.334 161.5 134.001s142.5 46 224.5 46zM452.999 428.006l258.001 -109c34 20.667 59.833 42.167 77.5 64.5s26.5 50.833 26.5 85.5c0 64 -50.333 115.333 -151 154l-226 88
c-60 -45.333 -90 -94 -90 -146c0 -32 8.66699 -58.5 26 -79.5s43.666 -40.167 78.999 -57.5z" />
    <glyph glyph-name="dieresis" unicode="&#xa8;" horiz-adv-x="455" 
d="M305 1382c0 40 14.333 74.666 43 103.999s63.667 44 105 44c42 0 77 -14.333 105 -43s42 -63.667 42 -105c0 -42 -14 -77 -42 -105s-63 -42 -105 -42c-41.333 0 -76.333 14.333 -105 43s-43 63.334 -43 104.001zM-145 1382c0 41.333 14 76.333 42 105s63 43 105 43
c41.333 0 76.333 -14.333 105 -43s43 -63.667 43 -105c0 -42 -14.333 -77 -43 -105s-63.667 -42 -105 -42c-42 0 -77 14 -105 42s-42 63 -42 105z" />
    <glyph glyph-name="copyright" unicode="&#xa9;" horiz-adv-x="1638" 
d="M1098 797c-18 0 -32.6699 2.33301 -44.0029 7s-21.166 11.334 -29.499 20.001s-15.333 18.834 -21 30.501l-16.5 34.5c-13.333 22.667 -31.166 41.334 -53.499 56.001s-58.5 22 -108.5 22c-60.667 0 -106.834 -21.167 -138.501 -63.5s-47.5 -100.5 -47.5 -174.5
s15.833 -132 47.5 -174s77.834 -63 138.501 -63c48.667 0 84.334 7.16699 107.001 21.5s41 32.833 55 55.5c18 36.667 32.5 61.334 43.5 74.001s33.5 19 67.5 19c32.667 -6 54.5 -16.5 65.5 -31.5s16.5 -41.5 16.5 -79.5c0 -32 -15.333 -67.333 -46 -106
s-73 -71.334 -127 -98.001s-114.667 -40 -182 -40c-82.667 0 -154.5 18.167 -215.5 54.5s-108.167 86.666 -141.5 150.999s-50 136.5 -50 216.5s16.667 152.167 50 216.5s80.5 114.666 141.5 150.999s132.833 54.5 215.5 54.5c67.333 0 128 -13.333 182 -40
s96.333 -59.334 127 -98.001s46 -74 46 -106c0 -36.667 -5.33301 -62.667 -16 -78s-32.667 -26 -66 -32zM65.9971 729c0 136.667 33.668 262.666 101.001 377.999s158.666 206.833 273.999 274.5s241.333 101.5 378 101.5c102 0 199.167 -19.333 291.5 -58
s173.166 -92.667 242.499 -162s123.333 -150.166 162 -242.499s58 -189.5 58 -291.5c0 -136.667 -33.833 -262.667 -101.5 -378s-159.167 -206.833 -274.5 -274.5s-241.333 -101.5 -378 -101.5s-262.667 33.833 -378 101.5s-206.666 159.167 -273.999 274.5
s-101 241.333 -101 378zM249.998 728.999c0 -76.667 14.667 -149.837 44 -219.504s70.166 -130.667 122.499 -183s113.333 -93.166 183 -122.499s142.834 -44 219.501 -44c77.333 0 151.333 15 222 45s131.667 70.667 183 122s91.666 112.166 120.999 182.499
s44 143.5 44 219.5c0 76.667 -14.833 150.334 -44.5 221.001s-70 131.5 -121 182.5s-112 91.333 -183 121s-144.833 44.5 -221.5 44.5c-76 0 -149.167 -14.667 -219.5 -44s-131.166 -69.666 -182.499 -120.999s-92 -112.166 -122 -182.499s-45 -144.166 -45 -221.499z" />
    <glyph glyph-name="ordfeminine" unicode="&#xaa;" horiz-adv-x="764" 
d="M709 1372v-481.002c0 -60 -30.333 -90 -91 -90c-56.667 0 -87.334 26.667 -92.001 80c-50.667 -53.333 -106.667 -80 -168 -80c-64 0 -121.167 14.5 -171.5 43.5s-89.5 69.333 -117.5 121s-42 110.167 -42 175.5c0 62.667 14 120.334 42 173.001s66.333 94 115 124
s102 45 160 45c37.333 0 72 -6.66699 104 -20s58 -33.333 78 -60c4.66699 53.333 35.334 80 92.001 80c35.333 0 59.333 -10.167 72 -30.5s19 -47.166 19 -80.499zM371 960.998c46 0 81 17.832 105 53.499s36 77.834 36 126.501c0 49.333 -12 92 -36 128s-59 54 -105 54
c-47.333 0 -83.833 -18.167 -109.5 -54.5s-38.5 -78.833 -38.5 -127.5c0 -48 13 -90 39 -126s62.333 -54 109 -54z" />
    <glyph glyph-name="guillemotleft" unicode="&#xab;" horiz-adv-x="1024" 
d="M543 698l198.001 281.001c22 23.333 51.333 35 88 35s65.667 -11 87 -33s32 -48.667 32 -80s-7.33301 -57.333 -22 -78l-162 -248l162 -243c14.667 -22 22 -45.333 22 -70c0 -36.667 -11.333 -67.334 -34 -92.001s-52.334 -37 -89.001 -37c-44.667 0 -78.667 17 -102 51
l-211 326c-12 17.333 -18 42 -18 74c0 32.667 16.333 70.667 49 114zM125.001 698.001l199.001 281.001c21.333 23.333 50.666 35 87.999 35c36 0 64.667 -11 86 -33s32 -48.667 32 -80s-7.33301 -57.333 -22 -78l-162 -248l162 -243c14.667 -22 22 -45.333 22 -70
c0 -36.667 -11.333 -67.334 -34 -92.001s-52 -37 -88 -37c-44 0 -78.333 17 -103 51l-211 326c-12 17.333 -18 42 -18 74c0 32.667 16.333 70.667 49 114z" />
    <glyph glyph-name="logicalnot" unicode="&#xac;" horiz-adv-x="1229" 
d="M195 870l839.003 0.000976562c25.333 0 47.166 -5 65.499 -15s32.5 -24.167 42.5 -42.5s15 -39.833 15 -64.5v-465c0 -37.333 -10.833 -67.166 -32.5 -89.499s-51.834 -33.5 -90.501 -33.5s-68.834 11.167 -90.501 33.5s-32.5 52.166 -32.5 89.499v342h-716
c-38.667 0 -68.834 11.167 -90.501 33.5s-32.5 52.166 -32.5 89.499c0 36.667 10.833 66.167 32.5 88.5s51.834 33.5 90.501 33.5z" />
    <glyph glyph-name="registered" unicode="&#xae;" horiz-adv-x="1638" 
d="M700 647l0.000976562 -241.002c0 -66 -30.667 -99 -92 -99c-34 0 -57.833 7.83301 -71.5 23.5s-20.5 40.834 -20.5 75.501v632c0 26.667 6.83301 47.667 20.5 63s38.167 23 73.5 23h232c93.333 0 167.5 -17.833 222.5 -53.5s82.5 -97.5 82.5 -185.5
c0 -72.667 -17.5 -127.5 -52.5 -164.5s-85.833 -57.5 -152.5 -61.5l145 -237c8.66699 -15.333 13 -29.666 13 -42.999c0 -48 -32 -72 -96 -72c-21.333 0 -38.5 4.5 -51.5 13.5s-23.333 19.5 -31 31.5s-17.834 30 -30.501 54l-129 241h-62zM700.001 794.998l154 -0.000976562
c36.667 0 64 6.33301 82 19s27 36.334 27 71.001c0 35.333 -9.16699 59.5 -27.5 72.5s-45.5 19.5 -81.5 19.5h-154v-182zM66.001 728.997c0 136.667 33.668 262.666 101.001 377.999s158.666 206.833 273.999 274.5s241.333 101.5 378 101.5
c102 0 199.167 -19.333 291.5 -58s173.166 -92.667 242.499 -162s123.333 -150.166 162 -242.499s58 -189.5 58 -291.5c0 -136.667 -33.833 -262.667 -101.5 -378s-159.167 -206.833 -274.5 -274.5s-241.333 -101.5 -378 -101.5s-262.667 33.833 -378 101.5
s-206.666 159.167 -273.999 274.5s-101 241.333 -101 378zM250.002 728.996c0 -76.667 14.667 -149.837 44 -219.504s70.166 -130.667 122.499 -183s113.333 -93.166 183 -122.499s142.834 -44 219.501 -44c77.333 0 151.333 15 222 45s131.667 70.667 183 122
s91.666 112.166 120.999 182.499s44 143.5 44 219.5c0 76.667 -14.833 150.334 -44.5 221.001s-70 131.5 -121 182.5s-112 91.333 -183 121s-144.833 44.5 -221.5 44.5c-76 0 -149.167 -14.667 -219.5 -44s-131.166 -69.666 -182.499 -120.999s-92 -112.166 -122 -182.499
s-45 -144.166 -45 -221.499z" />
    <glyph glyph-name="macron" unicode="&#xaf;" horiz-adv-x="455" 
d="M37 1495h381c38.667 0 70.5 -10.667 95.5 -32s37.5 -51.666 37.5 -90.999c0 -38.667 -12.333 -68.834 -37 -90.501s-56.667 -32.5 -96 -32.5h-381c-39.333 0 -71.333 10.833 -96 32.5s-37 51.834 -37 90.501c0 39.333 12.5 69.666 37.5 90.999s56.833 32 95.5 32z" />
    <glyph glyph-name="degree" unicode="&#xb0;" horiz-adv-x="819" 
d="M240 1153c0 -46 16.833 -85.833 50.5 -119.5s73.5 -50.5 119.5 -50.5s85.833 16.833 119.5 50.5s50.5 73.5 50.5 119.5c0 29.333 -7.66699 57.333 -23 84s-36.333 47.667 -63 63s-54.667 23 -84 23c-46.667 0 -86.667 -16.667 -120 -50s-50 -73.333 -50 -120zM80 1153
c0 60 14.832 115.166 44.499 165.499s69.334 90.333 119.001 120s105.167 44.5 166.5 44.5c45.333 0 87.833 -8.5 127.5 -25.5s74.667 -40.5 105 -70.5s54 -65.167 71 -105.5s25.5 -83.166 25.5 -128.499c0 -60 -14.667 -115.167 -44 -165.5s-69.166 -90.333 -119.499 -120
s-105.5 -44.5 -165.5 -44.5c-61.333 0 -116.833 14.833 -166.5 44.5s-89.334 69.667 -119.001 120s-44.5 105.5 -44.5 165.5z" />
    <glyph glyph-name="plusminus" unicode="&#xb1;" horiz-adv-x="1229" 
d="M492 807v131c0 37.333 10.833 67.166 32.5 89.499s51.5 33.5 89.5 33.5c38.667 0 68.834 -11.167 90.501 -33.5s32.5 -52.166 32.5 -89.499v-131h297c38.667 0 68.834 -11.167 90.501 -33.5s32.5 -52.166 32.5 -89.499s-10.833 -67.166 -32.5 -89.499
s-51.834 -33.5 -90.501 -33.5h-297v-131c0 -37.333 -10.833 -67.166 -32.5 -89.499s-51.834 -33.5 -90.501 -33.5c-38 0 -67.833 11.167 -89.5 33.5s-32.5 52.166 -32.5 89.499v131h-297c-38.667 0 -68.834 11.167 -90.501 33.5s-32.5 52.166 -32.5 89.499
s10.833 67.166 32.5 89.499s51.834 33.5 90.501 33.5h297zM195 246h839c38.667 0 68.834 -11.167 90.501 -33.5s32.5 -52.166 32.5 -89.499s-10.833 -67.166 -32.5 -89.499s-51.834 -33.5 -90.501 -33.5h-839c-38.667 0 -68.834 11.167 -90.501 33.5
s-32.5 52.166 -32.5 89.499s10.833 67.166 32.5 89.499s51.834 33.5 90.501 33.5z" />
    <glyph glyph-name="twosuperior" unicode="&#xb2;" horiz-adv-x="764" 
d="M406 805h208c60.667 0 91 -35 91 -105c0 -69.333 -30.333 -104 -91 -104h-458c-28 0 -51.167 7 -69.5 21s-27.5 33.667 -27.5 59c0 20 10.333 40.333 31 61c32.667 36.667 71.667 78.334 117 125.001s85.333 89.667 120 129s65.667 77.666 93 114.999
c31.333 43.333 47 81 47 113c0 24.667 -8.83301 44 -26.5 58s-40.167 21 -67.5 21c-36 0 -61.5 -8 -76.5 -24s-27.833 -39.333 -38.5 -70s-21.834 -53.334 -33.501 -68.001s-31.834 -22 -60.501 -22c-31.333 0 -55.166 10 -71.499 30s-24.5 48.333 -24.5 85
c0 32.667 12.667 68.834 38 108.501s61.833 73.834 109.5 102.501s102.834 43 165.501 43c54 0 103.5 -10.333 148.5 -31s80.667 -50.167 107 -88.5s39.5 -83.166 39.5 -134.499c0 -40.667 -10.333 -81.834 -31 -123.501s-44 -78.334 -70 -110.001s-58.5 -68.5 -97.5 -110.5
s-62.833 -68.667 -71.5 -80z" />
    <glyph glyph-name="threesuperior" unicode="&#xb3;" horiz-adv-x="764" 
d="M373 1483c49.333 0 95.8311 -9.16309 139.498 -27.4961s79 -44.5 106 -78.5s40.5 -73 40.5 -117c0 -80.667 -37.333 -143.667 -112 -189c48.667 -20.667 88.167 -50.667 118.5 -90s45.5 -83 45.5 -131c0 -85.333 -33.833 -151 -101.5 -197s-146.5 -69 -236.5 -69
c-46.667 0 -95 9.33301 -145 28s-91.667 45.5 -125 80.5s-50 74.5 -50 118.5c0 22 11.167 41.167 33.5 57.5s45.5 24.5 69.5 24.5c19.333 0 34.333 -4.83301 45 -14.5s24.334 -25.167 41.001 -46.5s34.667 -37.333 54 -48s45 -16 77 -16c36 0 66.5 9 91.5 27
s37.5 40.333 37.5 67c0 35.333 -10.333 60.5 -31 75.5s-48 24.833 -82 29.5c-40.667 7.33301 -70 15.666 -88 24.999s-27 29.666 -27 60.999c0 15.333 2.66699 28.166 8 38.499s12.666 18.5 21.999 24.5s19.333 10.833 30 14.5s22.334 6.5 35.001 8.5
c30.667 8 54 17.833 70 29.5s24 32.5 24 62.5c0 20 -7.66699 36.167 -23 48.5s-37.666 18.5 -66.999 18.5c-24.667 0 -44.667 -4.5 -60 -13.5s-31.5 -22 -48.5 -39s-32.5 -29.833 -46.5 -38.5s-30.667 -13 -50 -13c-26 0 -46.833 9.16699 -62.5 27.5
s-23.5 39.166 -23.5 62.499c0 37.333 16.167 71.333 48.5 102s71.5 54.5 117.5 71.5s87.667 25.5 125 25.5z" />
    <glyph glyph-name="acute" unicode="&#xb4;" horiz-adv-x="455" 
d="M49 1464l242 99c34.667 13.333 60.667 20 78 20c29.333 0 55 -13.833 77 -41.5s33 -56.167 33 -85.5c0 -60.667 -28 -101 -84 -121l-229 -90l-37.5 -13.5c-8.33301 -3 -14.333 -4.83301 -18 -5.5s-12.5 -1 -26.5 -1c-29.333 0 -54.833 15.5 -76.5 46.5
s-32.5 65.167 -32.5 102.5c0 34.667 19.333 62 58 82z" />
    <glyph glyph-name="mu" unicode="&#xb5;" horiz-adv-x="1139" 
d="M84 -283l-0.000976562 1221c0 48.667 13.5 88.167 40.5 118.5s62.5 45.5 106.5 45.5c28.667 0 54.167 -6.83301 76.5 -20.5s39.833 -33 52.5 -58s19 -53.5 19 -85.5v-526c0 -58 18.833 -104.333 56.5 -139s82.167 -52 133.5 -52c34.667 0 66.334 7.5 95.001 22.5
s51.834 36.833 69.501 65.5s26.5 63 26.5 103v526c0 48.667 13.5 88.167 40.5 118.5s62.5 45.5 106.5 45.5c28.667 0 54.167 -6.83301 76.5 -20.5s39.833 -33 52.5 -58s19 -53.5 19 -85.5v-786c0 -32 -6.33301 -60.5 -19 -85.5s-30.334 -44.333 -53.001 -58
s-48 -20.5 -76 -20.5c-43.333 0 -78.666 12.833 -105.999 38.5s-41 59.834 -41 102.501h-4c-19.333 -51.333 -47 -89.833 -83 -115.5s-71.333 -38.5 -106 -38.5c-31.333 0 -64.833 9.5 -100.5 28.5s-63.5 43.833 -83.5 74.5h-4v-361c0 -30.667 -6.33301 -58.667 -19 -84
s-30.334 -44.833 -53.001 -58.5s-48 -20.5 -76 -20.5c-44 0 -79.5 14.833 -106.5 44.5s-40.5 69.167 -40.5 118.5z" />
    <glyph glyph-name="paragraph" unicode="&#xb6;" horiz-adv-x="1270" 
d="M487 -311l0.000976562 1054c-98.667 0 -182 14 -250 42s-119.333 68.5 -154 121.5s-52 115.5 -52 187.5c0 94 21.333 167.667 64 221s101 90.5 175 111.5s162.333 31.5 265 31.5h520c37.333 0 67.166 -11.167 89.499 -33.5s33.5 -52.166 33.5 -89.499v-1646
c0 -37.333 -11.167 -67.166 -33.5 -89.499s-52.166 -33.5 -89.499 -33.5c-38.667 0 -68.834 11.167 -90.501 33.5s-32.5 52.166 -32.5 89.499v1585h-199v-1585c0 -37.333 -10.833 -67.166 -32.5 -89.499s-51.834 -33.5 -90.501 -33.5c-37.333 0 -67.166 11.167 -89.499 33.5
s-33.5 52.166 -33.5 89.499z" />
    <glyph glyph-name="cedilla" unicode="&#xb8;" horiz-adv-x="455" 
d="M260 0l123 -0.000976562l-80 -104c0.666992 0 6.5 1 17.5 3s20.167 3 27.5 3c45.333 0 82.333 -14 111 -42s43 -66 43 -114c0 -60.667 -23.5 -107.834 -70.5 -141.501s-99.5 -50.5 -157.5 -50.5c-44.667 0 -86.5 7.33301 -125.5 22s-58.5 41.334 -58.5 80.001
c0 16 4.5 28.833 13.5 38.5s20.833 14.5 35.5 14.5c8 0 22.833 -3.16699 44.5 -9.5s39.834 -9.83301 54.501 -10.5c44.667 0 67 19 67 57c0 24.667 -5.83301 40.334 -17.5 47.001s-28.834 10 -51.501 10c-28.667 3.33301 -47.5 7 -56.5 11s-13.5 16 -13.5 36
c0 14.667 15 42 45 82z" />
    <glyph glyph-name="onesuperior" unicode="&#xb9;" horiz-adv-x="492" 
d="M180 674l0.000976562 587.999h-69c-60.667 0 -91 35.333 -91 106c0 31.333 8.16699 56.166 24.5 74.499s38.5 27.5 66.5 27.5h190c28.667 0 50.5 -7.83301 65.5 -23.5s22.5 -36.5 22.5 -62.5v-710c0 -25.333 -9.16699 -46.666 -27.5 -63.999s-43.833 -26 -76.5 -26
c-30.667 0 -55.834 8.33301 -75.501 25s-29.5 38.334 -29.5 65.001z" />
    <glyph glyph-name="ordmasculine" unicode="&#xba;" horiz-adv-x="739" 
d="M371 1483c64 0 122.5 -15.833 175.5 -47.5s94 -73.5 123 -125.5s43.5 -108.333 43.5 -169c0 -62 -14.333 -118.833 -43 -170.5s-69.167 -92.834 -121.5 -123.501s-111.5 -46 -177.5 -46c-67.333 0 -127 15.167 -179 45.5s-92.5 71.5 -121.5 123.5s-43.5 109 -43.5 171
c0 59.333 14.5 115.333 43.5 168s70.167 94.834 123.5 126.501s112.333 47.5 177 47.5zM371 961c45.333 0 80.833 18.1689 106.5 54.502s38.5 78.166 38.5 125.499c0 48.667 -12.167 91.167 -36.5 127.5s-60.5 54.5 -108.5 54.5c-47.333 0 -83.833 -18.333 -109.5 -55
s-38.5 -79 -38.5 -127c0 -46.667 13 -88.334 39 -125.001s62.333 -55 109 -55z" />
    <glyph glyph-name="guillemotright" unicode="&#xbb;" horiz-adv-x="1024" 
d="M516 324l162 250.999l-162 240c-14.667 22 -22 45.333 -22 70c0 36.667 11.167 67.334 33.5 92.001s51.833 37 88.5 37c44 0 78.333 -17 103 -51l211 -326c12 -18 18 -42.667 18 -74c0 -32.667 -16.333 -70.667 -49 -114l-199 -281c-20 -23.333 -49.333 -35 -88 -35
c-36 0 -64.667 11 -86 33s-32 48.667 -32 80s7.33301 57.333 22 78zM98 323.999l162 250.999l-162 240c-14.667 22 -22 45.333 -22 70c0 36.667 11.167 67.334 33.5 92.001s52.166 37 89.499 37c44.667 0 78.667 -17 102 -51l211 -326c12 -18 18 -42.667 18 -74
c0 -32.667 -16.333 -70.667 -49 -114l-198 -281c-21.333 -23.333 -50.666 -35 -87.999 -35c-36.667 0 -65.667 11 -87 33s-32 48.667 -32 80s7.33301 57.333 22 78z" />
    <glyph glyph-name="onequarter" unicode="&#xbc;" horiz-adv-x="1763" 
d="M332 152l678.003 1278c12.667 25.333 25.5 42.5 38.5 51.5s31.5 13.5 55.5 13.5c19.333 0 38.666 -5 57.999 -15s34.666 -23.833 45.999 -41.5s17 -37.167 17 -58.5c0 -20 -5.66699 -40.333 -17 -61l-688 -1288c-19.333 -27.333 -33.833 -45.5 -43.5 -54.5
s-25.834 -13.5 -48.501 -13.5c-28 0 -54.5 11.5 -79.5 34.5s-37.5 49.167 -37.5 78.5c0 20.667 7 46 21 76zM233.003 674l0.00195312 587.999h-69c-60 0 -90 35.333 -90 106c0 31.333 8.16699 56.166 24.5 74.499s38.166 27.5 65.499 27.5h190c28 0 49.667 -7.66699 65 -23
s23 -36.333 23 -63v-710c0 -25.333 -9.16699 -46.666 -27.5 -63.999s-43.833 -26 -76.5 -26c-30.667 0 -55.834 8.33301 -75.501 25s-29.5 38.334 -29.5 65.001zM973.005 314.999l296.998 500c15.333 26 33.833 44.5 55.5 55.5s51.5 16.5 89.5 16.5
c46 0 84.5 -13.167 115.5 -39.5s46.5 -65.833 46.5 -118.5v-362h20c26.667 0 48.834 -8.16699 66.501 -24.5s26.5 -40.5 26.5 -72.5s-8.66699 -56.667 -26 -74s-39.666 -26 -66.999 -26h-20v-92c0 -60 -34.667 -90 -104 -90c-70 0 -105 30 -105 90v92h-334
c-26.667 0 -46.667 8.5 -60 25.5s-20 36.5 -20 58.5c0 18.667 6.33301 39 19 61zM1368 366.999v313h-4l-172 -313h176z" />
    <glyph glyph-name="onehalf" unicode="&#xbd;" horiz-adv-x="1763" 
d="M332 152l678.003 1278c12.667 25.333 25.5 42.5 38.5 51.5s31.5 13.5 55.5 13.5c19.333 0 38.666 -5 57.999 -15s34.666 -23.833 45.999 -41.5s17 -37.167 17 -58.5c0 -20 -5.66699 -40.333 -17 -61l-688 -1288c-19.333 -27.333 -33.833 -45.5 -43.5 -54.5
s-25.834 -13.5 -48.501 -13.5c-28 0 -54.5 11.5 -79.5 34.5s-37.5 49.167 -37.5 78.5c0 20.667 7 46 21 76zM1606 0l-465 0.00195312c-28 0 -51.167 7 -69.5 21s-27.5 34.333 -27.5 61c0 20 10.333 40.333 31 61c32.667 36.667 71.667 78.334 117 125.001
s85.333 89.667 120 129s65.667 77.666 93 114.999c31.333 41.333 47 79 47 113c0 24.667 -8.66699 43.667 -26 57s-40 20 -68 20c-35.333 0 -60.666 -7.83301 -75.999 -23.5s-28.5 -38.834 -39.5 -69.501s-22.167 -53.167 -33.5 -67.5s-31.333 -21.5 -60 -21.5
c-31.333 0 -55.166 10 -71.499 30s-24.5 48.333 -24.5 85c0 32.667 12.667 68.667 38 108s62 73.166 110 101.499s103 42.5 165 42.5c53.333 0 102.666 -10 147.999 -30s81.166 -49.167 107.499 -87.5s39.5 -83.166 39.5 -134.499c0 -40.667 -10.333 -81.834 -31 -123.501
s-44 -78.667 -70 -111s-57.833 -68.5 -95.5 -108.5s-62.167 -67.667 -73.5 -83h202c25.333 0 47.833 -10.833 67.5 -32.5s29.5 -47.167 29.5 -76.5c0 -66.667 -28 -100 -84 -100zM233.003 674.002l0.00195312 587.999h-69c-60 0 -90 35.333 -90 106
c0 31.333 8.16699 56.166 24.5 74.499s38.166 27.5 65.499 27.5h190c28 0 49.667 -7.66699 65 -23s23 -36.333 23 -63v-710c0 -25.333 -9.16699 -46.666 -27.5 -63.999s-43.833 -26 -76.5 -26c-30.667 0 -55.834 8.33301 -75.501 25s-29.5 38.334 -29.5 65.001z" />
    <glyph glyph-name="threequarters" unicode="&#xbe;" horiz-adv-x="1763" 
d="M487 152l678 1278c14 26.667 27.167 44.167 39.5 52.5s30.833 12.5 55.5 12.5c32 0 60 -11.167 84 -33.5s36 -49.5 36 -81.5c0 -20 -5.33301 -40.333 -16 -61l-688 -1288c-19.333 -27.333 -33.833 -45.5 -43.5 -54.5s-25.834 -13.5 -48.501 -13.5
c-27.333 0 -53.666 11.5 -78.999 34.5s-38 49.167 -38 78.5c0 22 6.66699 47.333 20 76zM367 1483c49.333 0 95.8311 -9.16406 139.498 -27.4971s79 -44.5 106 -78.5s40.5 -73 40.5 -117c0 -80.667 -37.333 -143.667 -112 -189c48.667 -20.667 88.167 -50.667 118.5 -90
s45.5 -83 45.5 -131c0 -85.333 -34 -151 -102 -197s-146.667 -69 -236 -69c-47.333 0 -95.833 9.33301 -145.5 28s-91.167 45.5 -124.5 80.5s-50 74.5 -50 118.5c0 22 11 41.167 33 57.5s45.333 24.5 70 24.5c19.333 0 34.333 -4.83301 45 -14.5
s24.334 -25.167 41.001 -46.5s34.667 -37.333 54 -48s45 -16 77 -16c36 0 66.5 9 91.5 27s37.5 40.333 37.5 67c0 35.333 -10.333 60.5 -31 75.5s-48 24.833 -82 29.5c-40.667 7.33301 -70 15.666 -88 24.999s-27 29.666 -27 60.999c0 28.667 8.16699 48.5 24.5 59.5
s39.5 19.833 69.5 26.5c32 8 55.833 17.833 71.5 29.5s23.5 32.5 23.5 62.5c0 20 -7.66699 36.167 -23 48.5s-37.666 18.5 -66.999 18.5c-24.667 0 -44.667 -4.5 -60 -13.5s-31.5 -22 -48.5 -39s-32.5 -29.833 -46.5 -38.5s-30.667 -13 -50 -13
c-26 0 -46.833 9.16699 -62.5 27.5s-23.5 39.166 -23.5 62.499c0 37.333 16.167 71.333 48.5 102s71.5 54.5 117.5 71.5s87.667 25.5 125 25.5zM998.998 315.003l297 500.001c16.667 26 35.667 44.5 57 55.5s51 16.5 89 16.5c46 0 84.5 -13.167 115.5 -39.5
s46.5 -65.833 46.5 -118.5v-362h20c27.333 0 49.5 -8.16699 66.5 -24.5s25.5 -40.5 25.5 -72.5s-8.5 -56.667 -25.5 -74s-39.167 -26 -66.5 -26h-20v-92c0 -60 -35 -90 -105 -90c-69.333 0 -104 30 -104 90v92h-334c-28 0 -48.333 8.5 -61 25.5s-19 36.5 -19 58.5
c0 19.333 6 39.666 18 60.999zM1395 367.004v313h-4l-172 -313h176z" />
    <glyph glyph-name="questiondown" unicode="&#xbf;" horiz-adv-x="985" 
d="M684 532l0.000976562 -203.998c0 -17.333 -4.5 -32 -13.5 -44s-20 -21.167 -33 -27.5s-33.833 -13.5 -62.5 -21.5l-57 -16c-51.333 -14 -91.5 -33 -120.5 -57s-43.5 -63 -43.5 -117c0 -29.333 8.16699 -56 24.5 -80s37.333 -42.667 63 -56s53.167 -20 82.5 -20
c38 0 70.333 8.83301 97 26.5s55.167 43.5 85.5 77.5s55.333 59 75 75s43.834 24 72.501 24c37.333 0 67.5 -13.333 90.5 -40s34.5 -62.334 34.5 -107.001c0 -50 -14.333 -96.667 -43 -140s-66.167 -79.5 -112.5 -108.5s-96 -51.167 -149 -66.5s-103.167 -23 -150.5 -23
c-88.667 0 -170.334 17.667 -245.001 53s-134 86.333 -178 153s-66 144 -66 232c0 110 31.5 199.667 94.5 269s149.5 117.666 259.5 144.999v73c0 41.333 14 75.333 42 102s63.333 40 106 40c45.333 0 81.166 -13.167 107.499 -39.5s39.5 -60.5 39.5 -102.5zM537.001 1114
c44.667 0 82.333 -15.667 113 -47s46 -69 46 -113s-15.5 -81.5 -46.5 -112.5s-68.5 -46.5 -112.5 -46.5c-43.333 0 -80.833 15.5 -112.5 46.5s-47.5 68.5 -47.5 112.5s15.667 81.667 47 113s69 47 113 47z" />
    <glyph glyph-name="Agrave" unicode="&#xc0;" horiz-adv-x="1290" 
d="M18 199l411.999 1114c19.333 51.333 48.166 92.5 86.499 123.5s82.5 46.5 132.5 46.5c52.667 0 97.834 -15.333 135.501 -46s65.5 -72 83.5 -124l402 -1114c10.667 -29.333 16 -54.666 16 -75.999c0 -26 -6.5 -49.333 -19.5 -70s-30.167 -36.667 -51.5 -48
s-44.666 -17 -69.999 -17c-76 0 -126 35.333 -150 106l-61 193h-569l-62 -191c-22.667 -72 -71.667 -108 -147 -108c-42 0 -77.833 13.833 -107.5 41.5s-44.5 61.5 -44.5 101.5c0 19.333 4.66699 42 14 68zM646.999 1163l-194 -594h389l-191 594h-4zM581.999 1895
l241.999 -99l16 -8c16.667 -8.66699 30.334 -20.334 41.001 -35.001s16 -30.334 16 -47.001c0 -36.667 -10.667 -70.667 -32 -102s-46.666 -47 -75.999 -47c-14 0 -22.833 0.333008 -26.5 1s-9 2.33398 -16 5.00098s-20.167 7.33398 -39.5 14.001l-230 90
c-56 20.667 -84 61 -84 121c0 28.667 11.167 57 33.5 85s48.166 42 77.499 42c17.333 0 43.333 -6.66699 78 -20z" />
    <glyph glyph-name="Aacute" unicode="&#xc1;" horiz-adv-x="1290" 
d="M18 199l411.999 1114c19.333 51.333 48.166 92.5 86.499 123.5s82.5 46.5 132.5 46.5c52.667 0 97.834 -15.333 135.501 -46s65.5 -72 83.5 -124l402 -1114c10.667 -29.333 16 -54.666 16 -75.999c0 -26 -6.5 -49.333 -19.5 -70s-30.167 -36.667 -51.5 -48
s-44.666 -17 -69.999 -17c-76 0 -126 35.333 -150 106l-61 193h-569l-62 -191c-22.667 -72 -71.667 -108 -147 -108c-42 0 -77.833 13.833 -107.5 41.5s-44.5 61.5 -44.5 101.5c0 19.333 4.66699 42 14 68zM646.999 1163l-194 -594h389l-191 594h-4zM466.999 1796l242 99
c34.667 13.333 60.667 20 78 20c29.333 0 55 -13.833 77 -41.5s33 -56.167 33 -85.5c0 -60.667 -28 -101 -84 -121l-229 -90l-37.5 -13.5c-8.33301 -3 -14.333 -4.83301 -18 -5.5s-12.5 -1 -26.5 -1c-29.333 0 -54.833 15.5 -76.5 46.5s-32.5 65.167 -32.5 102.5
c0 34.667 19.333 62 58 82z" />
    <glyph glyph-name="Acircumflex" unicode="&#xc2;" horiz-adv-x="1290" 
d="M18 199l411.999 1114c19.333 51.333 48.166 92.5 86.499 123.5s82.5 46.5 132.5 46.5c52.667 0 97.834 -15.333 135.501 -46s65.5 -72 83.5 -124l402 -1114c10.667 -29.333 16 -54.666 16 -75.999c0 -26 -6.5 -49.333 -19.5 -70s-30.167 -36.667 -51.5 -48
s-44.666 -17 -69.999 -17c-76 0 -126 35.333 -150 106l-61 193h-569l-62 -191c-22.667 -72 -71.667 -108 -147 -108c-42 0 -77.833 13.833 -107.5 41.5s-44.5 61.5 -44.5 101.5c0 19.333 4.66699 42 14 68zM646.999 1163l-194 -594h389l-191 594h-4zM427.999 1809l217 88
l217 -88c32 -12.667 55.833 -28.834 71.5 -48.501s23.5 -45.167 23.5 -76.5c0 -33.333 -12.667 -63.5 -38 -90.5s-54.333 -40.5 -87 -40.5c-12.667 0 -48.334 12 -107.001 36l-80 35l-80 -35c-57.333 -24 -92.666 -36 -105.999 -36c-32.667 0 -61.667 13.5 -87 40.5
s-38 57.167 -38 90.5c0 58.667 31.333 100.334 94 125.001z" />
    <glyph glyph-name="Atilde" unicode="&#xc3;" horiz-adv-x="1290" 
d="M18 199l411.999 1114c19.333 51.333 48.166 92.5 86.499 123.5s82.5 46.5 132.5 46.5c52.667 0 97.834 -15.333 135.501 -46s65.5 -72 83.5 -124l402 -1114c10.667 -29.333 16 -54.666 16 -75.999c0 -26 -6.5 -49.333 -19.5 -70s-30.167 -36.667 -51.5 -48
s-44.666 -17 -69.999 -17c-76 0 -126 35.333 -150 106l-61 193h-569l-62 -191c-22.667 -72 -71.667 -108 -147 -108c-42 0 -77.833 13.833 -107.5 41.5s-44.5 61.5 -44.5 101.5c0 19.333 4.66699 42 14 68zM646.999 1163l-194 -594h389l-191 594h-4zM407.999 1571
c-24.667 0 -48.0029 11.332 -70.0029 33.999s-33 47 -33 73c0 54.667 18.833 98.334 56.5 131.001s83.834 49 138.501 49c35.333 0 79.833 -8.5 133.5 -25.5s85.5 -25.5 95.5 -25.5c11.333 0 36 9.83301 74 29.5s66.667 29.5 86 29.5c30.667 0 54.334 -11.167 71.001 -33.5
s25 -49.5 25 -81.5c0 -48.667 -20.833 -90.5 -62.5 -125.5s-87.5 -52.5 -137.5 -52.5c-21.333 0 -61.666 8.5 -120.999 25.5s-96.333 25.5 -111 25.5c-10.667 0 -20.167 -1.83301 -28.5 -5.5s-20.5 -10.5 -36.5 -20.5s-29.333 -17 -40 -21s-24 -6 -40 -6z" />
    <glyph glyph-name="Adieresis" unicode="&#xc4;" horiz-adv-x="1290" 
d="M18 199l411.999 1114c19.333 51.333 48.166 92.5 86.499 123.5s82.5 46.5 132.5 46.5c52.667 0 97.834 -15.333 135.501 -46s65.5 -72 83.5 -124l402 -1114c10.667 -29.333 16 -54.666 16 -75.999c0 -26 -6.5 -49.333 -19.5 -70s-30.167 -36.667 -51.5 -48
s-44.666 -17 -69.999 -17c-76 0 -126 35.333 -150 106l-61 193h-569l-62 -191c-22.667 -72 -71.667 -108 -147 -108c-42 0 -77.833 13.833 -107.5 41.5s-44.5 61.5 -44.5 101.5c0 19.333 4.66699 42 14 68zM646.999 1163l-194 -594h389l-191 594h-4zM722.999 1714
c0 40 14.333 74.666 43 103.999s63.667 44 105 44c42 0 77 -14.333 105 -43s42 -63.667 42 -105c0 -42 -14 -77 -42 -105s-63 -42 -105 -42c-41.333 0 -76.333 14.333 -105 43s-43 63.334 -43 104.001zM272.999 1714c0 41.333 14 76.333 42 105s63 43 105 43
c41.333 0 76.333 -14.333 105 -43s43 -63.667 43 -105c0 -42 -14.333 -77 -43 -105s-63.667 -42 -105 -42c-42 0 -77 14 -105 42s-42 63 -42 105z" />
    <glyph glyph-name="Aring" unicode="&#xc5;" horiz-adv-x="1290" 
d="M18 199l411.999 1114c19.333 51.333 48.166 92.5 86.499 123.5s82.5 46.5 132.5 46.5c52.667 0 97.834 -15.333 135.501 -46s65.5 -72 83.5 -124l402 -1114c10.667 -29.333 16 -54.666 16 -75.999c0 -26 -6.5 -49.333 -19.5 -70s-30.167 -36.667 -51.5 -48
s-44.666 -17 -69.999 -17c-76 0 -126 35.333 -150 106l-61 193h-569l-62 -191c-22.667 -72 -71.667 -108 -147 -108c-42 0 -77.833 13.833 -107.5 41.5s-44.5 61.5 -44.5 101.5c0 19.333 4.66699 42 14 68zM646.999 1163l-194 -594h389l-191 594h-4zM442.999 1721
c0 36 9 69.667 27 101s42.667 56 74 74s65 27 101 27c37.333 0 71.5 -9 102.5 -27s55.5 -42.667 73.5 -74s27 -65 27 -101c0 -56.667 -20 -104.667 -60 -144s-87.667 -59 -143 -59c-54.667 0 -102 20 -142 60s-60 87.667 -60 143zM552.999 1721c0 -26 9 -47.999 27 -65.999
s39.667 -27 65 -27c26 0 47.833 9.16699 65.5 27.5s26.5 40.166 26.5 65.499c0 26 -8.83301 47.833 -26.5 65.5s-39.5 26.5 -65.5 26.5c-25.333 0 -47 -8.66699 -65 -26s-27 -39.333 -27 -66z" />
    <glyph glyph-name="AE" unicode="&#xc6;" horiz-adv-x="1706" 
d="M20 215l635.004 1174c12.667 21.333 29 38.166 49 50.499s51.667 18.5 95 18.5h719c46.667 0 82.5 -13.833 107.5 -41.5s37.5 -60.834 37.5 -99.501c0 -25.333 -5.66699 -48.5 -17 -69.5s-27.833 -38.167 -49.5 -51.5s-47.834 -20 -78.501 -20h-361v-299h336
c47.333 0 84 -13.667 110 -41s39 -61 39 -101c0 -37.333 -13.333 -70.166 -40 -98.499s-63 -42.5 -109 -42.5h-336v-311h379c46.667 0 82.5 -13.833 107.5 -41.5s37.5 -61.167 37.5 -100.5c0 -24 -5.66699 -46.833 -17 -68.5s-27.833 -39.167 -49.5 -52.5
s-47.834 -20 -78.501 -20h-528c-45.333 0 -83 14.167 -113 42.5s-45 65.5 -45 111.5v102h-469l-96 -168c-38.667 -66.667 -87.334 -100 -146.001 -100c-40.667 0 -75.334 11.833 -104.001 35.5s-43 54.834 -43 93.501c0 29.333 9.33301 62 28 98zM846.004 1126l-324 -594
h328v594h-4z" />
    <glyph glyph-name="Ccedilla" unicode="&#xc7;" horiz-adv-x="1251" 
d="M35 729c0 106 16.999 205.002 50.999 297.002s82.5 172.333 145.5 241s137.5 121.834 223.5 159.501s180.667 56.5 284 56.5c42 0 89 -4 141 -12s100.167 -20.5 144.5 -37.5s81.333 -40.5 111 -70.5s44.5 -66.667 44.5 -110c0 -37.333 -12.167 -69.5 -36.5 -96.5
s-54.5 -40.5 -90.5 -40.5c-22 0 -52.833 7.66699 -92.5 23s-74 27.333 -103 36s-68.5 13 -118.5 13c-62.667 0 -118 -12.167 -166 -36.5s-88 -57.5 -120 -99.5s-56.5 -91.333 -73.5 -148s-25.5 -117 -25.5 -181c0 -128.667 34 -236.334 102 -323.001s162.333 -130 283 -130
c50.667 0 90.834 5 120.501 15s65.667 24.333 108 43s74.833 28 97.5 28c42 0 75 -15.833 99 -47.5s36 -62.167 36 -91.5c0 -60 -25.667 -108 -77 -144s-112.5 -61.333 -183.5 -76s-137.833 -22 -200.5 -22c-136 0 -257.5 33.167 -364.5 99.5s-190.333 157.166 -250 272.499
s-89.5 242.666 -89.5 381.999zM658.999 0.00195312l123 -0.000976562l-80 -104c0.666992 0 6.5 1 17.5 3s20.167 3 27.5 3c45.333 0 82.333 -14 111 -42s43 -66 43 -114c0 -60.667 -23.5 -107.834 -70.5 -141.501s-99.5 -50.5 -157.5 -50.5
c-44.667 0 -86.5 7.33301 -125.5 22s-58.5 41.334 -58.5 80.001c0 16 4.5 28.833 13.5 38.5s20.833 14.5 35.5 14.5c8 0 22.833 -3.16699 44.5 -9.5s39.834 -9.83301 54.501 -10.5c44.667 0 67 19 67 57c0 24.667 -5.83301 40.334 -17.5 47.001s-28.834 10 -51.501 10
c-28.667 3.33301 -47.5 7 -56.5 11s-13.5 16 -13.5 36c0 14.667 15 42 45 82z" />
    <glyph glyph-name="Egrave" unicode="&#xc8;" horiz-adv-x="948" 
d="M92 154l0.00195312 1126c0 53.333 13.667 96.333 41 129s67 49 119 49h508c46.667 0 82.5 -13.833 107.5 -41.5s37.5 -60.834 37.5 -99.501c0 -25.333 -5.66699 -48.5 -17 -69.5s-27.833 -38.167 -49.5 -51.5s-47.834 -20 -78.501 -20h-361v-299h336
c48 0 85 -13.667 111 -41s39 -61 39 -101c0 -37.333 -13.333 -70.166 -40 -98.499s-63.334 -42.5 -110.001 -42.5h-336v-311h379c47.333 0 83.5 -13.833 108.5 -41.5s37.5 -61.167 37.5 -100.5c0 -22 -5.66699 -44.333 -17 -67s-28 -40.667 -50 -54s-48.333 -20 -79 -20
h-528c-45.333 0 -83 14.167 -113 42.5s-45 65.5 -45 111.5zM412.002 1895l241.999 -99l16 -8c16.667 -8.66699 30.334 -20.334 41.001 -35.001s16 -30.334 16 -47.001c0 -36.667 -10.667 -70.667 -32 -102s-46.666 -47 -75.999 -47c-14 0 -22.833 0.333008 -26.5 1
s-9 2.33398 -16 5.00098s-20.167 7.33398 -39.5 14.001l-230 90c-56 20.667 -84 61 -84 121c0 28.667 11.167 57 33.5 85s48.166 42 77.499 42c17.333 0 43.333 -6.66699 78 -20z" />
    <glyph glyph-name="Eacute" unicode="&#xc9;" horiz-adv-x="948" 
d="M92 154l0.00195312 1126c0 53.333 13.667 96.333 41 129s67 49 119 49h508c46.667 0 82.5 -13.833 107.5 -41.5s37.5 -60.834 37.5 -99.501c0 -25.333 -5.66699 -48.5 -17 -69.5s-27.833 -38.167 -49.5 -51.5s-47.834 -20 -78.501 -20h-361v-299h336
c48 0 85 -13.667 111 -41s39 -61 39 -101c0 -37.333 -13.333 -70.166 -40 -98.499s-63.334 -42.5 -110.001 -42.5h-336v-311h379c47.333 0 83.5 -13.833 108.5 -41.5s37.5 -61.167 37.5 -100.5c0 -22 -5.66699 -44.333 -17 -67s-28 -40.667 -50 -54s-48.333 -20 -79 -20
h-528c-45.333 0 -83 14.167 -113 42.5s-45 65.5 -45 111.5zM297.002 1796l242 99c34.667 13.333 60.667 20 78 20c29.333 0 55 -13.833 77 -41.5s33 -56.167 33 -85.5c0 -60.667 -28 -101 -84 -121l-229 -90l-37.5 -13.5c-8.33301 -3 -14.333 -4.83301 -18 -5.5
s-12.5 -1 -26.5 -1c-29.333 0 -54.833 15.5 -76.5 46.5s-32.5 65.167 -32.5 102.5c0 34.667 19.333 62 58 82z" />
    <glyph glyph-name="Ecircumflex" unicode="&#xca;" horiz-adv-x="948" 
d="M92 154l0.00195312 1126c0 53.333 13.667 96.333 41 129s67 49 119 49h508c46.667 0 82.5 -13.833 107.5 -41.5s37.5 -60.834 37.5 -99.501c0 -25.333 -5.66699 -48.5 -17 -69.5s-27.833 -38.167 -49.5 -51.5s-47.834 -20 -78.501 -20h-361v-299h336
c48 0 85 -13.667 111 -41s39 -61 39 -101c0 -37.333 -13.333 -70.166 -40 -98.499s-63.334 -42.5 -110.001 -42.5h-336v-311h379c47.333 0 83.5 -13.833 108.5 -41.5s37.5 -61.167 37.5 -100.5c0 -22 -5.66699 -44.333 -17 -67s-28 -40.667 -50 -54s-48.333 -20 -79 -20
h-528c-45.333 0 -83 14.167 -113 42.5s-45 65.5 -45 111.5zM258.002 1809l217 88l217 -88c32 -12.667 55.833 -28.834 71.5 -48.501s23.5 -45.167 23.5 -76.5c0 -33.333 -12.667 -63.5 -38 -90.5s-54.333 -40.5 -87 -40.5c-12.667 0 -48.334 12 -107.001 36l-80 35l-80 -35
c-57.333 -24 -92.666 -36 -105.999 -36c-32.667 0 -61.667 13.5 -87 40.5s-38 57.167 -38 90.5c0 58.667 31.333 100.334 94 125.001z" />
    <glyph glyph-name="Edieresis" unicode="&#xcb;" horiz-adv-x="948" 
d="M92 154l0.00195312 1126c0 53.333 13.667 96.333 41 129s67 49 119 49h508c46.667 0 82.5 -13.833 107.5 -41.5s37.5 -60.834 37.5 -99.501c0 -25.333 -5.66699 -48.5 -17 -69.5s-27.833 -38.167 -49.5 -51.5s-47.834 -20 -78.501 -20h-361v-299h336
c48 0 85 -13.667 111 -41s39 -61 39 -101c0 -37.333 -13.333 -70.166 -40 -98.499s-63.334 -42.5 -110.001 -42.5h-336v-311h379c47.333 0 83.5 -13.833 108.5 -41.5s37.5 -61.167 37.5 -100.5c0 -22 -5.66699 -44.333 -17 -67s-28 -40.667 -50 -54s-48.333 -20 -79 -20
h-528c-45.333 0 -83 14.167 -113 42.5s-45 65.5 -45 111.5zM553.002 1714c0 40 14.333 74.666 43 103.999s63.667 44 105 44c42 0 77 -14.333 105 -43s42 -63.667 42 -105c0 -42 -14 -77 -42 -105s-63 -42 -105 -42c-41.333 0 -76.333 14.333 -105 43
s-43 63.334 -43 104.001zM103.002 1714c0 41.333 14 76.333 42 105s63 43 105 43c41.333 0 76.333 -14.333 105 -43s43 -63.667 43 -105c0 -42 -14.333 -77 -43 -105s-63.667 -42 -105 -42c-42 0 -77 14 -105 42s-42 63 -42 105z" />
    <glyph glyph-name="Igrave" unicode="&#xcc;" horiz-adv-x="492" 
d="M92 147v1164c0 49.333 14.5 88.166 43.5 116.499s65.833 42.5 110.5 42.5c45.333 0 82.166 -13.833 110.499 -41.5s42.5 -66.834 42.5 -117.501v-1164c0 -50.667 -14.167 -89.834 -42.5 -117.501s-65.166 -41.5 -110.499 -41.5c-44.667 0 -81.5 14.167 -110.5 42.5
s-43.5 67.166 -43.5 116.499zM182 1895l241.999 -99l16 -8c16.667 -8.66699 30.334 -20.334 41.001 -35.001s16 -30.334 16 -47.001c0 -36.667 -10.667 -70.667 -32 -102s-46.666 -47 -75.999 -47c-14 0 -22.833 0.333008 -26.5 1s-9 2.33398 -16 5.00098
s-20.167 7.33398 -39.5 14.001l-230 90c-56 20.667 -84 61 -84 121c0 28.667 11.167 57 33.5 85s48.166 42 77.499 42c17.333 0 43.333 -6.66699 78 -20z" />
    <glyph glyph-name="Iacute" unicode="&#xcd;" horiz-adv-x="492" 
d="M92 147v1164c0 49.333 14.5 88.166 43.5 116.499s65.833 42.5 110.5 42.5c45.333 0 82.166 -13.833 110.499 -41.5s42.5 -66.834 42.5 -117.501v-1164c0 -50.667 -14.167 -89.834 -42.5 -117.501s-65.166 -41.5 -110.499 -41.5c-44.667 0 -81.5 14.167 -110.5 42.5
s-43.5 67.166 -43.5 116.499zM67 1796l242 99c34.667 13.333 60.667 20 78 20c29.333 0 55 -13.833 77 -41.5s33 -56.167 33 -85.5c0 -60.667 -28 -101 -84 -121l-229 -90l-37.5 -13.5c-8.33301 -3 -14.333 -4.83301 -18 -5.5s-12.5 -1 -26.5 -1
c-29.333 0 -54.833 15.5 -76.5 46.5s-32.5 65.167 -32.5 102.5c0 34.667 19.333 62 58 82z" />
    <glyph glyph-name="Icircumflex" unicode="&#xce;" horiz-adv-x="492" 
d="M92 147v1164c0 49.333 14.5 88.166 43.5 116.499s65.833 42.5 110.5 42.5c45.333 0 82.166 -13.833 110.499 -41.5s42.5 -66.834 42.5 -117.501v-1164c0 -50.667 -14.167 -89.834 -42.5 -117.501s-65.166 -41.5 -110.499 -41.5c-44.667 0 -81.5 14.167 -110.5 42.5
s-43.5 67.166 -43.5 116.499zM28 1809l217 88l217 -88c32 -12.667 55.833 -28.834 71.5 -48.501s23.5 -45.167 23.5 -76.5c0 -33.333 -12.667 -63.5 -38 -90.5s-54.333 -40.5 -87 -40.5c-12.667 0 -48.334 12 -107.001 36l-80 35l-80 -35
c-57.333 -24 -92.666 -36 -105.999 -36c-32.667 0 -61.667 13.5 -87 40.5s-38 57.167 -38 90.5c0 58.667 31.333 100.334 94 125.001z" />
    <glyph glyph-name="Idieresis" unicode="&#xcf;" horiz-adv-x="492" 
d="M92 147v1164c0 49.333 14.5 88.166 43.5 116.499s65.833 42.5 110.5 42.5c45.333 0 82.166 -13.833 110.499 -41.5s42.5 -66.834 42.5 -117.501v-1164c0 -50.667 -14.167 -89.834 -42.5 -117.501s-65.166 -41.5 -110.499 -41.5c-44.667 0 -81.5 14.167 -110.5 42.5
s-43.5 67.166 -43.5 116.499zM323 1714c0 40 14.333 74.666 43 103.999s63.667 44 105 44c42 0 77 -14.333 105 -43s42 -63.667 42 -105c0 -42 -14 -77 -42 -105s-63 -42 -105 -42c-41.333 0 -76.333 14.333 -105 43s-43 63.334 -43 104.001zM-127 1714
c0 41.333 14 76.333 42 105s63 43 105 43c41.333 0 76.333 -14.333 105 -43s43 -63.667 43 -105c0 -42 -14.333 -77 -43 -105s-63.667 -42 -105 -42c-42 0 -77 14 -105 42s-42 63 -42 105z" />
    <glyph glyph-name="Eth" unicode="&#xd0;" horiz-adv-x="1366" 
d="M92 154l-0.00488281 468.999h-55c-40 0 -71.5 11.833 -94.5 35.5s-34.5 50.5 -34.5 80.5c0 31.333 11.333 58.666 34 81.999s54.334 35 95.001 35h55v444c0 46.667 15 84.667 45 114s67.667 44 113 44h340c114.667 0 216.834 -17.667 306.501 -53
s165.334 -85.5 227.001 -150.5s108.334 -143.667 140.001 -236s47.5 -195.5 47.5 -309.5c0 -106.667 -16.5 -203.667 -49.5 -291s-80.5 -162.166 -142.5 -224.499s-136.667 -110.166 -224 -143.499s-182.333 -50 -285 -50h-356c-25.333 0 -50.166 5 -74.499 15
s-45 26.5 -62 49.5s-25.5 52.833 -25.5 89.5zM398.995 1176v-320.001h168c40.667 0 72.334 -11.667 95.001 -35s34 -50.666 34 -81.999c0 -30 -11.5 -56.833 -34.5 -80.5s-54.5 -35.5 -94.5 -35.5h-168v-340h207c86 0 157.667 19.167 215 57.5s100 90.333 128 156
s42 141.167 42 226.5c0 88 -14.333 166.333 -43 235s-73.334 122.167 -134.001 160.5s-136.667 57.5 -228 57.5h-187z" />
    <glyph glyph-name="Ntilde" unicode="&#xd1;" horiz-adv-x="1403" 
d="M80 147v1164c0 50 14.333 89 43 117s65.334 42 110.001 42c21.333 0 45 -6.66699 71 -20s45.333 -29 58 -47l650 -866h4v774c0 50 14.333 89 43 117s65.334 42 110.001 42c46 0 83.167 -13.833 111.5 -41.5s42.5 -66.834 42.5 -117.501v-1164
c0 -50.667 -14.167 -89.834 -42.5 -117.501s-65.5 -41.5 -111.5 -41.5c-18.667 0 -40.834 6.5 -66.501 19.5s-46.5 28.833 -62.5 47.5l-649 856h-4v-764c0 -50.667 -14.167 -89.834 -42.5 -117.501s-65.5 -41.5 -111.5 -41.5c-44.667 0 -81.334 14 -110.001 42
s-43 67 -43 117zM465 1571c-24.667 0 -48.0029 11.332 -70.0029 33.999s-33 47 -33 73c0 54.667 18.833 98.334 56.5 131.001s83.834 49 138.501 49c35.333 0 79.833 -8.5 133.5 -25.5s85.5 -25.5 95.5 -25.5c11.333 0 36 9.83301 74 29.5s66.667 29.5 86 29.5
c30.667 0 54.334 -11.167 71.001 -33.5s25 -49.5 25 -81.5c0 -48.667 -20.833 -90.5 -62.5 -125.5s-87.5 -52.5 -137.5 -52.5c-21.333 0 -61.666 8.5 -120.999 25.5s-96.333 25.5 -111 25.5c-10.667 0 -20.167 -1.83301 -28.5 -5.5s-20.5 -10.5 -36.5 -20.5
s-29.333 -17 -40 -21s-24 -6 -40 -6z" />
    <glyph glyph-name="Ograve" unicode="&#xd2;" horiz-adv-x="1479" 
d="M739 258c62.667 0 118.327 12.335 166.994 37.002s89.334 59.167 122.001 103.5s56.834 94.666 72.501 150.999s23.5 116.166 23.5 179.499c0 85.333 -14.667 163.666 -44 234.999s-73.166 128.5 -131.499 171.5s-128.166 64.5 -209.499 64.5
s-151.166 -21.5 -209.499 -64.5s-102.166 -100.167 -131.499 -171.5s-44 -149.666 -44 -234.999c0 -134 33.167 -246 99.5 -336s161.5 -135 285.5 -135zM738.993 -24.998c-136 0 -257.499 33.1689 -364.499 99.502s-190.333 157.166 -250 272.499
s-89.5 242.666 -89.5 381.999c0 106 17 205 51 297s82.5 172.333 145.5 241s137.5 121.834 223.5 159.501s180.667 56.5 284 56.5c101.333 0 195.5 -19.5 282.5 -58.5s161.833 -92.833 224.5 -161.5s111.334 -149 146.001 -241s52 -189.667 52 -293
c0 -104.667 -16.667 -202.834 -50 -294.501s-81.833 -172.167 -145.5 -241.5s-138.834 -123 -225.501 -161s-181.334 -57 -284.001 -57zM675.994 1895l241.999 -99l16 -8c16.667 -8.66699 30.334 -20.334 41.001 -35.001s16 -30.334 16 -47.001
c0 -36.667 -10.667 -70.667 -32 -102s-46.666 -47 -75.999 -47c-14 0 -22.833 0.333008 -26.5 1s-9 2.33398 -16 5.00098s-20.167 7.33398 -39.5 14.001l-230 90c-56 20.667 -84 61 -84 121c0 28.667 11.167 57 33.5 85s48.166 42 77.499 42
c17.333 0 43.333 -6.66699 78 -20z" />
    <glyph glyph-name="Oacute" unicode="&#xd3;" horiz-adv-x="1479" 
d="M739 258c62.667 0 118.327 12.335 166.994 37.002s89.334 59.167 122.001 103.5s56.834 94.666 72.501 150.999s23.5 116.166 23.5 179.499c0 85.333 -14.667 163.666 -44 234.999s-73.166 128.5 -131.499 171.5s-128.166 64.5 -209.499 64.5
s-151.166 -21.5 -209.499 -64.5s-102.166 -100.167 -131.499 -171.5s-44 -149.666 -44 -234.999c0 -134 33.167 -246 99.5 -336s161.5 -135 285.5 -135zM738.993 -24.998c-136 0 -257.499 33.1689 -364.499 99.502s-190.333 157.166 -250 272.499
s-89.5 242.666 -89.5 381.999c0 106 17 205 51 297s82.5 172.333 145.5 241s137.5 121.834 223.5 159.501s180.667 56.5 284 56.5c101.333 0 195.5 -19.5 282.5 -58.5s161.833 -92.833 224.5 -161.5s111.334 -149 146.001 -241s52 -189.667 52 -293
c0 -104.667 -16.667 -202.834 -50 -294.501s-81.833 -172.167 -145.5 -241.5s-138.834 -123 -225.501 -161s-181.334 -57 -284.001 -57zM560.994 1796l242 99c34.667 13.333 60.667 20 78 20c29.333 0 55 -13.833 77 -41.5s33 -56.167 33 -85.5c0 -60.667 -28 -101 -84 -121
l-229 -90l-37.5 -13.5c-8.33301 -3 -14.333 -4.83301 -18 -5.5s-12.5 -1 -26.5 -1c-29.333 0 -54.833 15.5 -76.5 46.5s-32.5 65.167 -32.5 102.5c0 34.667 19.333 62 58 82z" />
    <glyph glyph-name="Ocircumflex" unicode="&#xd4;" horiz-adv-x="1479" 
d="M739 258c62.667 0 118.327 12.335 166.994 37.002s89.334 59.167 122.001 103.5s56.834 94.666 72.501 150.999s23.5 116.166 23.5 179.499c0 85.333 -14.667 163.666 -44 234.999s-73.166 128.5 -131.499 171.5s-128.166 64.5 -209.499 64.5
s-151.166 -21.5 -209.499 -64.5s-102.166 -100.167 -131.499 -171.5s-44 -149.666 -44 -234.999c0 -134 33.167 -246 99.5 -336s161.5 -135 285.5 -135zM738.993 -24.998c-136 0 -257.499 33.1689 -364.499 99.502s-190.333 157.166 -250 272.499
s-89.5 242.666 -89.5 381.999c0 106 17 205 51 297s82.5 172.333 145.5 241s137.5 121.834 223.5 159.501s180.667 56.5 284 56.5c101.333 0 195.5 -19.5 282.5 -58.5s161.833 -92.833 224.5 -161.5s111.334 -149 146.001 -241s52 -189.667 52 -293
c0 -104.667 -16.667 -202.834 -50 -294.501s-81.833 -172.167 -145.5 -241.5s-138.834 -123 -225.501 -161s-181.334 -57 -284.001 -57zM521.994 1809l217 88l217 -88c32 -12.667 55.833 -28.834 71.5 -48.501s23.5 -45.167 23.5 -76.5c0 -33.333 -12.667 -63.5 -38 -90.5
s-54.333 -40.5 -87 -40.5c-12.667 0 -48.334 12 -107.001 36l-80 35l-80 -35c-57.333 -24 -92.666 -36 -105.999 -36c-32.667 0 -61.667 13.5 -87 40.5s-38 57.167 -38 90.5c0 58.667 31.333 100.334 94 125.001z" />
    <glyph glyph-name="Otilde" unicode="&#xd5;" horiz-adv-x="1479" 
d="M739 258c62.667 0 118.327 12.335 166.994 37.002s89.334 59.167 122.001 103.5s56.834 94.666 72.501 150.999s23.5 116.166 23.5 179.499c0 85.333 -14.667 163.666 -44 234.999s-73.166 128.5 -131.499 171.5s-128.166 64.5 -209.499 64.5
s-151.166 -21.5 -209.499 -64.5s-102.166 -100.167 -131.499 -171.5s-44 -149.666 -44 -234.999c0 -134 33.167 -246 99.5 -336s161.5 -135 285.5 -135zM738.993 -24.998c-136 0 -257.499 33.1689 -364.499 99.502s-190.333 157.166 -250 272.499
s-89.5 242.666 -89.5 381.999c0 106 17 205 51 297s82.5 172.333 145.5 241s137.5 121.834 223.5 159.501s180.667 56.5 284 56.5c101.333 0 195.5 -19.5 282.5 -58.5s161.833 -92.833 224.5 -161.5s111.334 -149 146.001 -241s52 -189.667 52 -293
c0 -104.667 -16.667 -202.834 -50 -294.501s-81.833 -172.167 -145.5 -241.5s-138.834 -123 -225.501 -161s-181.334 -57 -284.001 -57zM501.994 1571c-24.667 0 -48.0029 11.332 -70.0029 33.999s-33 47 -33 73c0 54.667 18.833 98.334 56.5 131.001s83.834 49 138.501 49
c35.333 0 79.833 -8.5 133.5 -25.5s85.5 -25.5 95.5 -25.5c11.333 0 36 9.83301 74 29.5s66.667 29.5 86 29.5c30.667 0 54.334 -11.167 71.001 -33.5s25 -49.5 25 -81.5c0 -48.667 -20.833 -90.5 -62.5 -125.5s-87.5 -52.5 -137.5 -52.5
c-21.333 0 -61.666 8.5 -120.999 25.5s-96.333 25.5 -111 25.5c-10.667 0 -20.167 -1.83301 -28.5 -5.5s-20.5 -10.5 -36.5 -20.5s-29.333 -17 -40 -21s-24 -6 -40 -6z" />
    <glyph glyph-name="Odieresis" unicode="&#xd6;" horiz-adv-x="1479" 
d="M739 258c62.667 0 118.327 12.335 166.994 37.002s89.334 59.167 122.001 103.5s56.834 94.666 72.501 150.999s23.5 116.166 23.5 179.499c0 85.333 -14.667 163.666 -44 234.999s-73.166 128.5 -131.499 171.5s-128.166 64.5 -209.499 64.5
s-151.166 -21.5 -209.499 -64.5s-102.166 -100.167 -131.499 -171.5s-44 -149.666 -44 -234.999c0 -134 33.167 -246 99.5 -336s161.5 -135 285.5 -135zM738.993 -24.998c-136 0 -257.499 33.1689 -364.499 99.502s-190.333 157.166 -250 272.499
s-89.5 242.666 -89.5 381.999c0 106 17 205 51 297s82.5 172.333 145.5 241s137.5 121.834 223.5 159.501s180.667 56.5 284 56.5c101.333 0 195.5 -19.5 282.5 -58.5s161.833 -92.833 224.5 -161.5s111.334 -149 146.001 -241s52 -189.667 52 -293
c0 -104.667 -16.667 -202.834 -50 -294.501s-81.833 -172.167 -145.5 -241.5s-138.834 -123 -225.501 -161s-181.334 -57 -284.001 -57zM816.994 1714c0 40 14.333 74.666 43 103.999s63.667 44 105 44c42 0 77 -14.333 105 -43s42 -63.667 42 -105c0 -42 -14 -77 -42 -105
s-63 -42 -105 -42c-41.333 0 -76.333 14.333 -105 43s-43 63.334 -43 104.001zM366.994 1714c0 41.333 14 76.333 42 105s63 43 105 43c41.333 0 76.333 -14.333 105 -43s43 -63.667 43 -105c0 -42 -14.333 -77 -43 -105s-63.667 -42 -105 -42c-42 0 -77 14 -105 42
s-42 63 -42 105z" />
    <glyph glyph-name="multiply" unicode="&#xd7;" horiz-adv-x="1229" 
d="M360 940l253.999 -254l254 254c26 26 54 39 84 39c31.333 0 59.333 -13 84 -39c26 -22.667 39 -52.667 39 -90c0 -26 -13 -52 -39 -78l-254 -254l254 -254c26 -24.667 39 -52.667 39 -84c0 -30 -13 -58 -39 -84c-23.333 -26 -53.333 -39 -90 -39
c-24.667 0 -50.667 13 -78 39l-254 254l-254 -254c-26 -26 -51.667 -39 -77 -39c-36.667 0 -66.667 13 -90 39c-26 26 -39 54 -39 84c0 31.333 13 59.333 39 84l253 254l-253 254c-26 26 -39 52 -39 78c0 37.333 13 67.333 39 90c24.667 26 52.334 39 83.001 39
c31.333 0 59.333 -13 84 -39z" />
    <glyph glyph-name="Oslash" unicode="&#xd8;" horiz-adv-x="1479" 
d="M1079 963l-579.004 -616.998c58.667 -58.667 138.334 -88 239.001 -88c62.667 0 118.334 12.333 167.001 37s89.334 59.167 122.001 103.5s56.834 94.666 72.501 150.999s23.5 116.166 23.5 179.499c0 92.667 -15 170.667 -45 234zM28.9961 119.002l143.001 145.003
c-29.333 42.667 -54.166 88.667 -74.499 138s-35.833 101.166 -46.5 155.499s-16 111.5 -16 171.5c0 106 17 205 51 297s82.5 172.333 145.5 241s137.5 121.834 223.5 159.501s180.667 56.5 284 56.5c177.333 0 325 -52 443 -156l98 98c40 46.667 78.333 70 115 70
c20.667 0 39.834 -6.83301 57.501 -20.5s26.5 -30.834 26.5 -51.501c0 -28.667 -7 -51 -21 -67l-155 -160c94 -138 141 -293.667 141 -467c0 -104.667 -16.667 -202.834 -50 -294.501s-81.833 -172.167 -145.5 -241.5s-138.834 -123 -225.501 -161
s-181.334 -57 -284.001 -57c-177.333 0 -326 52 -446 156l-127 -129c-24.667 -26 -51.334 -39 -80.001 -39c-21.333 0 -41 9.33301 -59 28s-27 40 -27 64c0 21.333 9.66699 42.666 29 63.999zM396.997 500.005l579.997 613.999c-61.333 57.333 -140.666 86 -237.999 86
c-81.333 0 -151.166 -21.5 -209.499 -64.5s-102.166 -100.167 -131.499 -171.5s-44 -149.666 -44 -234.999c0 -88.667 14.333 -165 43 -229z" />
    <glyph glyph-name="Ugrave" unicode="&#xd9;" horiz-adv-x="1403" 
d="M80 580l-0.00195312 731.003c0 50 14.333 89 43 117s65.334 42 110.001 42c46 0 83.167 -13.833 111.5 -41.5s42.5 -66.834 42.5 -117.501v-715c0 -63.333 12.667 -120.5 38 -171.5s62.166 -91.5 110.499 -121.5s103.833 -45 166.5 -45c91.333 0 166.5 33.333 225.5 100
s88.5 146 88.5 238v715c0 50 14.333 89 43 117s65.334 42 110.001 42c46 0 83.167 -13.833 111.5 -41.5s42.5 -66.834 42.5 -117.501v-731c0 -84 -16 -162.833 -48 -236.5s-76.667 -138.167 -134 -193.5s-123.666 -98.333 -198.999 -129s-155.333 -46 -240 -46
c-112.667 0 -216.667 26.167 -312 78.5s-170.833 124.666 -226.5 216.999s-83.5 195.5 -83.5 309.5zM638.998 1895l241.999 -99l16 -8c16.667 -8.66699 30.334 -20.334 41.001 -35.001s16 -30.334 16 -47.001c0 -36.667 -10.667 -70.667 -32 -102s-46.666 -47 -75.999 -47
c-14 0 -22.833 0.333008 -26.5 1s-9 2.33398 -16 5.00098s-20.167 7.33398 -39.5 14.001l-230 90c-56 20.667 -84 61 -84 121c0 28.667 11.167 57 33.5 85s48.166 42 77.499 42c17.333 0 43.333 -6.66699 78 -20z" />
    <glyph glyph-name="Uacute" unicode="&#xda;" horiz-adv-x="1403" 
d="M80 580l-0.00195312 731.003c0 50 14.333 89 43 117s65.334 42 110.001 42c46 0 83.167 -13.833 111.5 -41.5s42.5 -66.834 42.5 -117.501v-715c0 -63.333 12.667 -120.5 38 -171.5s62.166 -91.5 110.499 -121.5s103.833 -45 166.5 -45c91.333 0 166.5 33.333 225.5 100
s88.5 146 88.5 238v715c0 50 14.333 89 43 117s65.334 42 110.001 42c46 0 83.167 -13.833 111.5 -41.5s42.5 -66.834 42.5 -117.501v-731c0 -84 -16 -162.833 -48 -236.5s-76.667 -138.167 -134 -193.5s-123.666 -98.333 -198.999 -129s-155.333 -46 -240 -46
c-112.667 0 -216.667 26.167 -312 78.5s-170.833 124.666 -226.5 216.999s-83.5 195.5 -83.5 309.5zM523.998 1796l242 99c34.667 13.333 60.667 20 78 20c29.333 0 55 -13.833 77 -41.5s33 -56.167 33 -85.5c0 -60.667 -28 -101 -84 -121l-229 -90l-37.5 -13.5
c-8.33301 -3 -14.333 -4.83301 -18 -5.5s-12.5 -1 -26.5 -1c-29.333 0 -54.833 15.5 -76.5 46.5s-32.5 65.167 -32.5 102.5c0 34.667 19.333 62 58 82z" />
    <glyph glyph-name="Ucircumflex" unicode="&#xdb;" horiz-adv-x="1403" 
d="M80 580l-0.00195312 731.003c0 50 14.333 89 43 117s65.334 42 110.001 42c46 0 83.167 -13.833 111.5 -41.5s42.5 -66.834 42.5 -117.501v-715c0 -63.333 12.667 -120.5 38 -171.5s62.166 -91.5 110.499 -121.5s103.833 -45 166.5 -45c91.333 0 166.5 33.333 225.5 100
s88.5 146 88.5 238v715c0 50 14.333 89 43 117s65.334 42 110.001 42c46 0 83.167 -13.833 111.5 -41.5s42.5 -66.834 42.5 -117.501v-731c0 -84 -16 -162.833 -48 -236.5s-76.667 -138.167 -134 -193.5s-123.666 -98.333 -198.999 -129s-155.333 -46 -240 -46
c-112.667 0 -216.667 26.167 -312 78.5s-170.833 124.666 -226.5 216.999s-83.5 195.5 -83.5 309.5zM484.998 1809l217 88l217 -88c32 -12.667 55.833 -28.834 71.5 -48.501s23.5 -45.167 23.5 -76.5c0 -33.333 -12.667 -63.5 -38 -90.5s-54.333 -40.5 -87 -40.5
c-12.667 0 -48.334 12 -107.001 36l-80 35l-80 -35c-57.333 -24 -92.666 -36 -105.999 -36c-32.667 0 -61.667 13.5 -87 40.5s-38 57.167 -38 90.5c0 58.667 31.333 100.334 94 125.001z" />
    <glyph glyph-name="Udieresis" unicode="&#xdc;" horiz-adv-x="1403" 
d="M80 580l-0.00195312 731.003c0 50 14.333 89 43 117s65.334 42 110.001 42c46 0 83.167 -13.833 111.5 -41.5s42.5 -66.834 42.5 -117.501v-715c0 -63.333 12.667 -120.5 38 -171.5s62.166 -91.5 110.499 -121.5s103.833 -45 166.5 -45c91.333 0 166.5 33.333 225.5 100
s88.5 146 88.5 238v715c0 50 14.333 89 43 117s65.334 42 110.001 42c46 0 83.167 -13.833 111.5 -41.5s42.5 -66.834 42.5 -117.501v-731c0 -84 -16 -162.833 -48 -236.5s-76.667 -138.167 -134 -193.5s-123.666 -98.333 -198.999 -129s-155.333 -46 -240 -46
c-112.667 0 -216.667 26.167 -312 78.5s-170.833 124.666 -226.5 216.999s-83.5 195.5 -83.5 309.5zM779.998 1714c0 40 14.333 74.666 43 103.999s63.667 44 105 44c42 0 77 -14.333 105 -43s42 -63.667 42 -105c0 -42 -14 -77 -42 -105s-63 -42 -105 -42
c-41.333 0 -76.333 14.333 -105 43s-43 63.334 -43 104.001zM329.998 1714c0 41.333 14 76.333 42 105s63 43 105 43c41.333 0 76.333 -14.333 105 -43s43 -63.667 43 -105c0 -42 -14.333 -77 -43 -105s-63.667 -42 -105 -42c-42 0 -77 14 -105 42s-42 63 -42 105z" />
    <glyph glyph-name="Yacute" unicode="&#xdd;" horiz-adv-x="1098" 
d="M395 137v547l-387 545c-18.667 26.667 -28 57.334 -28 92.001c0 41.333 13.833 76.5 41.5 105.5s62.834 43.5 105.501 43.5c56.667 0 99 -20.333 127 -61l295 -428l295 428c27.333 40.667 69.666 61 126.999 61c42.667 0 77.834 -14.5 105.501 -43.5
s41.5 -64.167 41.5 -105.5c0 -34.667 -9.33301 -65.334 -28 -92.001l-388 -545v-547c0 -42 -12.833 -77.333 -38.5 -106s-63.834 -43 -114.501 -43c-51.333 0 -89.833 14.333 -115.5 43s-38.5 64 -38.5 106zM371 1796l242 99c34.667 13.333 60.667 20 78 20
c29.333 0 55 -13.833 77 -41.5s33 -56.167 33 -85.5c0 -60.667 -28 -101 -84 -121l-229 -90l-37.5 -13.5c-8.33301 -3 -14.333 -4.83301 -18 -5.5s-12.5 -1 -26.5 -1c-29.333 0 -54.833 15.5 -76.5 46.5s-32.5 65.167 -32.5 102.5c0 34.667 19.333 62 58 82z" />
    <glyph glyph-name="Thorn" unicode="&#xde;" horiz-adv-x="1139" 
d="M399 983v-434h209c62.667 0 113.5 20.333 152.5 61s58.5 92.667 58.5 156c0 40.667 -8.66699 77.5 -26 110.5s-42 59 -74 78s-69 28.5 -111 28.5h-209zM92 147l-0.000976562 1164c0 49.333 14.5 88.166 43.5 116.499s65.833 42.5 110.5 42.5
c45.333 0 82.166 -13.833 110.499 -41.5s42.5 -66.834 42.5 -117.501v-58h215c98 0 187.5 -20.5 268.5 -61.5s144 -98.667 189 -173s67.5 -159.166 67.5 -254.499c0 -74 -13.5 -141.167 -40.5 -201.5s-63.833 -111.5 -110.5 -153.5s-101.167 -74.167 -163.5 -96.5
s-128.166 -33.5 -197.499 -33.5h-228v-132c0 -50.667 -14.167 -89.834 -42.5 -117.501s-65.166 -41.5 -110.499 -41.5c-44.667 0 -81.5 14.167 -110.5 42.5s-43.5 67.166 -43.5 116.499z" />
    <glyph glyph-name="germandbls" unicode="&#xdf;" horiz-adv-x="1139" 
d="M80 152l0.00292969 905.001c0 98 18.167 186.5 54.5 265.5s90.166 141.167 161.499 186.5s157 68 257 68c82 0 156.833 -17.667 224.5 -53s120.834 -85.166 159.501 -149.499s58 -137.5 58 -219.5c0 -58.667 -11.5 -114.334 -34.5 -167.001
s-57.833 -93.334 -104.5 -122.001c56 -16.667 103 -45.334 141 -86.001s66.333 -88.5 85 -143.5s28 -112.167 28 -171.5c0 -77.333 -18.833 -153.833 -56.5 -229.5s-90.667 -138 -159 -187s-145.833 -73.5 -232.5 -73.5c-59.333 0 -104 14 -134 42s-45 63.333 -45 106
c0 44 13.667 74 41 90s69.666 30.333 126.999 43c44.667 9.33301 83.167 33.333 115.5 72s48.5 84.334 48.5 137.001c0 77.333 -15.167 131.5 -45.5 162.5s-74.833 54 -133.5 69s-100.834 30.5 -126.501 46.5s-38.5 49 -38.5 99c0 43.333 9.5 72.5 28.5 87.5
s48.833 30 89.5 45s71.5 34.5 92.5 58.5s31.5 64.667 31.5 122c0 38.667 -15 73.667 -45 105s-68.333 47 -115 47c-70.667 0 -118 -22.667 -142 -68s-36 -106 -36 -182v-905c0 -32 -6.33301 -60.5 -19 -85.5s-30.334 -44.333 -53.001 -58s-48 -20.5 -76 -20.5
c-44 0 -79.5 15.167 -106.5 45.5s-40.5 69.833 -40.5 118.5z" />
    <glyph glyph-name="agrave" unicode="&#xe0;" 
d="M1092 909l0.000976562 -729.001c0 -57.333 -8 -103.666 -24 -138.999s-55.333 -53 -118 -53c-40 0 -70.833 10.5 -92.5 31.5s-37.834 52.167 -48.501 93.5c-78 -92 -171.667 -138 -281 -138c-90.667 0 -173.334 24.333 -248.001 73s-133.167 116.167 -175.5 202.5
s-63.5 183.833 -63.5 292.5c0 104.667 21.667 200.834 65 288.501s102.333 156.667 177 207s156.334 75.5 245.001 75.5c55.333 0 108 -11.333 158 -34s91 -56.334 123 -101.001c4 36 19.5 65.5 46.5 88.5s58.5 34.5 94.5 34.5c62.667 0 102 -17.833 118 -53.5
s24 -82.167 24 -139.5zM336.001 542.999c0 -50 8.83301 -97.832 26.5 -143.499s44 -82.667 79 -111s77.5 -42.5 127.5 -42.5c72 0 128 29.833 168 89.5s60 128.834 60 207.501c0 49.333 -8.5 97.166 -25.5 143.499s-43 84.166 -78 113.499s-76.5 44 -124.5 44
c-49.333 0 -91.833 -14.5 -127.5 -43.5s-62.167 -66.833 -79.5 -113.5s-26 -94.667 -26 -144zM524.001 1563l241.999 -99l16 -8c16.667 -8.66699 30.334 -20.334 41.001 -35.001s16 -30.334 16 -47.001c0 -36.667 -10.667 -70.667 -32 -102s-46.666 -47 -75.999 -47
c-14 0 -22.833 0.333008 -26.5 1s-9 2.33398 -16 5.00098s-20.167 7.33398 -39.5 14.001l-230 90c-56 20.667 -84 61 -84 121c0 28.667 11.167 57 33.5 85s48.166 42 77.499 42c17.333 0 43.333 -6.66699 78 -20z" />
    <glyph glyph-name="aacute" unicode="&#xe1;" 
d="M1092 909l0.000976562 -729.001c0 -57.333 -8 -103.666 -24 -138.999s-55.333 -53 -118 -53c-40 0 -70.833 10.5 -92.5 31.5s-37.834 52.167 -48.501 93.5c-78 -92 -171.667 -138 -281 -138c-90.667 0 -173.334 24.333 -248.001 73s-133.167 116.167 -175.5 202.5
s-63.5 183.833 -63.5 292.5c0 104.667 21.667 200.834 65 288.501s102.333 156.667 177 207s156.334 75.5 245.001 75.5c55.333 0 108 -11.333 158 -34s91 -56.334 123 -101.001c4 36 19.5 65.5 46.5 88.5s58.5 34.5 94.5 34.5c62.667 0 102 -17.833 118 -53.5
s24 -82.167 24 -139.5zM336.001 542.999c0 -50 8.83301 -97.832 26.5 -143.499s44 -82.667 79 -111s77.5 -42.5 127.5 -42.5c72 0 128 29.833 168 89.5s60 128.834 60 207.501c0 49.333 -8.5 97.166 -25.5 143.499s-43 84.166 -78 113.499s-76.5 44 -124.5 44
c-49.333 0 -91.833 -14.5 -127.5 -43.5s-62.167 -66.833 -79.5 -113.5s-26 -94.667 -26 -144zM409.001 1464l242 99c34.667 13.333 60.667 20 78 20c29.333 0 55 -13.833 77 -41.5s33 -56.167 33 -85.5c0 -60.667 -28 -101 -84 -121l-229 -90l-37.5 -13.5
c-8.33301 -3 -14.333 -4.83301 -18 -5.5s-12.5 -1 -26.5 -1c-29.333 0 -54.833 15.5 -76.5 46.5s-32.5 65.167 -32.5 102.5c0 34.667 19.333 62 58 82z" />
    <glyph glyph-name="acircumflex" unicode="&#xe2;" 
d="M1092 909l0.000976562 -729.001c0 -57.333 -8 -103.666 -24 -138.999s-55.333 -53 -118 -53c-40 0 -70.833 10.5 -92.5 31.5s-37.834 52.167 -48.501 93.5c-78 -92 -171.667 -138 -281 -138c-90.667 0 -173.334 24.333 -248.001 73s-133.167 116.167 -175.5 202.5
s-63.5 183.833 -63.5 292.5c0 104.667 21.667 200.834 65 288.501s102.333 156.667 177 207s156.334 75.5 245.001 75.5c55.333 0 108 -11.333 158 -34s91 -56.334 123 -101.001c4 36 19.5 65.5 46.5 88.5s58.5 34.5 94.5 34.5c62.667 0 102 -17.833 118 -53.5
s24 -82.167 24 -139.5zM336.001 542.999c0 -50 8.83301 -97.832 26.5 -143.499s44 -82.667 79 -111s77.5 -42.5 127.5 -42.5c72 0 128 29.833 168 89.5s60 128.834 60 207.501c0 49.333 -8.5 97.166 -25.5 143.499s-43 84.166 -78 113.499s-76.5 44 -124.5 44
c-49.333 0 -91.833 -14.5 -127.5 -43.5s-62.167 -66.833 -79.5 -113.5s-26 -94.667 -26 -144zM370.001 1477l217 88l217 -88c32 -12.667 55.833 -28.834 71.5 -48.501s23.5 -45.167 23.5 -76.5c0 -33.333 -12.667 -63.5 -38 -90.5s-54.333 -40.5 -87 -40.5
c-12.667 0 -48.334 12 -107.001 36l-80 35l-80 -35c-57.333 -24 -92.666 -36 -105.999 -36c-32.667 0 -61.667 13.5 -87 40.5s-38 57.167 -38 90.5c0 58.667 31.333 100.334 94 125.001z" />
    <glyph glyph-name="atilde" unicode="&#xe3;" 
d="M1092 909l0.000976562 -729.001c0 -57.333 -8 -103.666 -24 -138.999s-55.333 -53 -118 -53c-40 0 -70.833 10.5 -92.5 31.5s-37.834 52.167 -48.501 93.5c-78 -92 -171.667 -138 -281 -138c-90.667 0 -173.334 24.333 -248.001 73s-133.167 116.167 -175.5 202.5
s-63.5 183.833 -63.5 292.5c0 104.667 21.667 200.834 65 288.501s102.333 156.667 177 207s156.334 75.5 245.001 75.5c55.333 0 108 -11.333 158 -34s91 -56.334 123 -101.001c4 36 19.5 65.5 46.5 88.5s58.5 34.5 94.5 34.5c62.667 0 102 -17.833 118 -53.5
s24 -82.167 24 -139.5zM336.001 542.999c0 -50 8.83301 -97.832 26.5 -143.499s44 -82.667 79 -111s77.5 -42.5 127.5 -42.5c72 0 128 29.833 168 89.5s60 128.834 60 207.501c0 49.333 -8.5 97.166 -25.5 143.499s-43 84.166 -78 113.499s-76.5 44 -124.5 44
c-49.333 0 -91.833 -14.5 -127.5 -43.5s-62.167 -66.833 -79.5 -113.5s-26 -94.667 -26 -144zM350.001 1239c-24.667 0 -48.0029 11.332 -70.0029 33.999s-33 47 -33 73c0 54.667 18.833 98.334 56.5 131.001s83.834 49 138.501 49c35.333 0 79.833 -8.5 133.5 -25.5
s85.5 -25.5 95.5 -25.5c11.333 0 36 9.83301 74 29.5s66.667 29.5 86 29.5c30.667 0 54.334 -11.167 71.001 -33.5s25 -49.5 25 -81.5c0 -48.667 -20.833 -90.5 -62.5 -125.5s-87.5 -52.5 -137.5 -52.5c-21.333 0 -61.666 8.5 -120.999 25.5s-96.333 25.5 -111 25.5
c-10.667 0 -20.167 -1.83301 -28.5 -5.5s-20.5 -10.5 -36.5 -20.5s-29.333 -17 -40 -21s-24 -6 -40 -6z" />
    <glyph glyph-name="adieresis" unicode="&#xe4;" 
d="M1092 909l0.000976562 -729.001c0 -57.333 -8 -103.666 -24 -138.999s-55.333 -53 -118 -53c-40 0 -70.833 10.5 -92.5 31.5s-37.834 52.167 -48.501 93.5c-78 -92 -171.667 -138 -281 -138c-90.667 0 -173.334 24.333 -248.001 73s-133.167 116.167 -175.5 202.5
s-63.5 183.833 -63.5 292.5c0 104.667 21.667 200.834 65 288.501s102.333 156.667 177 207s156.334 75.5 245.001 75.5c55.333 0 108 -11.333 158 -34s91 -56.334 123 -101.001c4 36 19.5 65.5 46.5 88.5s58.5 34.5 94.5 34.5c62.667 0 102 -17.833 118 -53.5
s24 -82.167 24 -139.5zM336.001 542.999c0 -50 8.83301 -97.832 26.5 -143.499s44 -82.667 79 -111s77.5 -42.5 127.5 -42.5c72 0 128 29.833 168 89.5s60 128.834 60 207.501c0 49.333 -8.5 97.166 -25.5 143.499s-43 84.166 -78 113.499s-76.5 44 -124.5 44
c-49.333 0 -91.833 -14.5 -127.5 -43.5s-62.167 -66.833 -79.5 -113.5s-26 -94.667 -26 -144zM665.001 1382c0 40 14.333 74.666 43 103.999s63.667 44 105 44c42 0 77 -14.333 105 -43s42 -63.667 42 -105c0 -42 -14 -77 -42 -105s-63 -42 -105 -42
c-41.333 0 -76.333 14.333 -105 43s-43 63.334 -43 104.001zM215.001 1382c0 41.333 14 76.333 42 105s63 43 105 43c41.333 0 76.333 -14.333 105 -43s43 -63.667 43 -105c0 -42 -14.333 -77 -43 -105s-63.667 -42 -105 -42c-42 0 -77 14 -105 42s-42 63 -42 105z" />
    <glyph glyph-name="aring" unicode="&#xe5;" 
d="M1092 909l0.000976562 -729.001c0 -57.333 -8 -103.666 -24 -138.999s-55.333 -53 -118 -53c-40 0 -70.833 10.5 -92.5 31.5s-37.834 52.167 -48.501 93.5c-78 -92 -171.667 -138 -281 -138c-90.667 0 -173.334 24.333 -248.001 73s-133.167 116.167 -175.5 202.5
s-63.5 183.833 -63.5 292.5c0 104.667 21.667 200.834 65 288.501s102.333 156.667 177 207s156.334 75.5 245.001 75.5c55.333 0 108 -11.333 158 -34s91 -56.334 123 -101.001c4 36 19.5 65.5 46.5 88.5s58.5 34.5 94.5 34.5c62.667 0 102 -17.833 118 -53.5
s24 -82.167 24 -139.5zM336.001 542.999c0 -50 8.83301 -97.832 26.5 -143.499s44 -82.667 79 -111s77.5 -42.5 127.5 -42.5c72 0 128 29.833 168 89.5s60 128.834 60 207.501c0 49.333 -8.5 97.166 -25.5 143.499s-43 84.166 -78 113.499s-76.5 44 -124.5 44
c-49.333 0 -91.833 -14.5 -127.5 -43.5s-62.167 -66.833 -79.5 -113.5s-26 -94.667 -26 -144zM385.001 1389c0 36 9 69.667 27 101s42.667 56 74 74s65 27 101 27c37.333 0 71.5 -9 102.5 -27s55.5 -42.667 73.5 -74s27 -65 27 -101c0 -56.667 -20 -104.667 -60 -144
s-87.667 -59 -143 -59c-54.667 0 -102 20 -142 60s-60 87.667 -60 143zM495.001 1389c0 -26 9 -47.999 27 -65.999s39.667 -27 65 -27c26 0 47.833 9.16699 65.5 27.5s26.5 40.166 26.5 65.499c0 26 -8.83301 47.833 -26.5 65.5s-39.5 26.5 -65.5 26.5
c-25.333 0 -47 -8.66699 -65 -26s-27 -39.333 -27 -66z" />
    <glyph glyph-name="ae" unicode="&#xe6;" horiz-adv-x="1858" 
d="M336 543c0 -50 8.83301 -97.832 26.5 -143.499s44 -82.667 79 -111s77.5 -42.5 127.5 -42.5c72 0 128 29.833 168 89.5s60 128.834 60 207.501c0 49.333 -8.5 97.166 -25.5 143.499s-43 84.166 -78 113.499s-76.5 44 -124.5 44c-49.333 0 -91.833 -14.5 -127.5 -43.5
s-62.167 -66.833 -79.5 -113.5s-26 -94.667 -26 -144zM1708 446.001h-628.998c10.667 -69.333 42.167 -122.166 94.5 -158.499s114.5 -54.5 186.5 -54.5c43.333 0 79.5 6.5 108.5 19.5s68.167 32.833 117.5 59.5s84.666 40 105.999 40c31.333 0 59.166 -13 83.499 -39
s36.5 -55.333 36.5 -88c0 -40.667 -24.5 -80.5 -73.5 -119.5s-111.667 -70.5 -188 -94.5s-149.5 -36 -219.5 -36c-114 0 -209.667 28.667 -287 86c-8.66699 -24.667 -20.834 -43 -36.501 -55s-40.167 -18 -73.5 -18c-42.667 0 -74.167 11.167 -94.5 33.5
s-30.5 52.833 -30.5 91.5h-4c-73.333 -92 -165.666 -138 -276.999 -138c-90.667 0 -173.334 24.333 -248.001 73s-133.167 116.167 -175.5 202.5s-63.5 183.833 -63.5 292.5c0 104.667 21.667 200.834 65 288.501s102.333 156.667 177 207s156.334 75.5 245.001 75.5
c58 0 111.5 -11.333 160.5 -34s90.5 -56.334 124.5 -101.001h4c0 39.333 11.333 69.666 34 90.999s50.334 32 83.001 32c60 0 96.667 -27.333 110 -82c67.333 62.667 153.666 94 258.999 94c92 0 179.333 -24.667 262 -74s148.667 -115.5 198 -198.5s74 -170.833 74 -263.5
c0 -88 -43 -132 -129 -132zM1075 643.001l467 0.000976562c-8 67.333 -32.333 121.666 -73 162.999s-94 62 -160 62c-63.333 0 -116 -21 -158 -63s-67.333 -96 -76 -162z" />
    <glyph glyph-name="ccedilla" unicode="&#xe7;" horiz-adv-x="948" 
d="M930 928c0 -33.333 -10.6641 -65.332 -31.9971 -95.999s-48.333 -46 -81 -46c-21.333 0 -56.833 9.66699 -106.5 29s-91.834 29 -126.501 29c-52.667 0 -97.834 -14.167 -135.501 -42.5s-65.834 -65.5 -84.501 -111.5s-28 -95 -28 -147
c0 -78.667 22.333 -147.834 67 -207.501s105 -89.5 181 -89.5c20.667 0 43 3.83301 67 11.5s53.167 17.834 87.5 30.501s55.833 19 64.5 19c22.667 0 43.667 -5.83301 63 -17.5s34.833 -27.334 46.5 -47.001s17.5 -41.167 17.5 -64.5c0 -46 -21.167 -84.333 -63.5 -115
s-92.166 -53 -149.499 -67s-106.666 -21 -147.999 -21c-102 0 -193.333 25.5 -274 76.5s-143.167 120 -187.5 207s-66.5 181.833 -66.5 284.5c0 73.333 12.833 144.5 38.5 213.5s62.167 130.5 109.5 184.5s103.666 96.333 168.999 127s135.666 46 210.999 46
c45.333 0 96.5 -6.16699 153.5 -18.5s105.833 -32.333 146.5 -60s61 -63.5 61 -107.5zM508.003 0.000976562l123 -0.000976562l-80 -104c0.666992 0 6.5 1 17.5 3s20.167 3 27.5 3c45.333 0 82.333 -14 111 -42s43 -66 43 -114c0 -60.667 -23.5 -107.834 -70.5 -141.501
s-99.5 -50.5 -157.5 -50.5c-44.667 0 -86.5 7.33301 -125.5 22s-58.5 41.334 -58.5 80.001c0 16 4.5 28.833 13.5 38.5s20.833 14.5 35.5 14.5c8 0 22.833 -3.16699 44.5 -9.5s39.834 -9.83301 54.501 -10.5c44.667 0 67 19 67 57c0 24.667 -5.83301 40.334 -17.5 47.001
s-28.834 10 -51.501 10c-28.667 3.33301 -47.5 7 -56.5 11s-13.5 16 -13.5 36c0 14.667 15 42 45 82z" />
    <glyph glyph-name="egrave" unicode="&#xe8;" horiz-adv-x="1100" 
d="M950 446h-628.001c10 -70 40.667 -123 92 -159s113.333 -54 186 -54c44.667 0 82.667 7 114 21s70.5 33.833 117.5 59.5s81.167 38.5 102.5 38.5c20 0 39.5 -6.16699 58.5 -18.5s34.167 -28.166 45.5 -47.499s17 -39.666 17 -60.999c0 -30.667 -14.167 -61 -42.5 -91
s-66 -56.833 -113 -80.5s-100 -42.667 -159 -57s-114.833 -21.5 -167.5 -21.5c-107.333 0 -203.333 24.5 -288 73.5s-150 116.667 -196 203s-69 183.5 -69 291.5c0 73.333 13.167 144.666 39.5 213.999s63 131 110 185s103.333 96.167 169 126.5s135.834 45.5 210.501 45.5
c76.667 0 148.167 -15.833 214.5 -47.5s122.5 -73.5 168.5 -125.5s82 -109.833 108 -173.5s39 -126.834 39 -189.501c0 -88 -43 -132 -129 -132zM314.999 643l469 0.000976562c-8 67.333 -32.667 121.666 -74 162.999s-95 62 -161 62c-63.333 0 -116 -21 -158 -63
s-67.333 -96 -76 -162zM487.999 1563l241.999 -99l16 -8c16.667 -8.66699 30.334 -20.334 41.001 -35.001s16 -30.334 16 -47.001c0 -36.667 -10.667 -70.667 -32 -102s-46.666 -47 -75.999 -47c-14 0 -22.833 0.333008 -26.5 1s-9 2.33398 -16 5.00098
s-20.167 7.33398 -39.5 14.001l-230 90c-56 20.667 -84 61 -84 121c0 28.667 11.167 57 33.5 85s48.166 42 77.499 42c17.333 0 43.333 -6.66699 78 -20z" />
    <glyph glyph-name="eacute" unicode="&#xe9;" horiz-adv-x="1100" 
d="M950 446h-628.001c10 -70 40.667 -123 92 -159s113.333 -54 186 -54c44.667 0 82.667 7 114 21s70.5 33.833 117.5 59.5s81.167 38.5 102.5 38.5c20 0 39.5 -6.16699 58.5 -18.5s34.167 -28.166 45.5 -47.499s17 -39.666 17 -60.999c0 -30.667 -14.167 -61 -42.5 -91
s-66 -56.833 -113 -80.5s-100 -42.667 -159 -57s-114.833 -21.5 -167.5 -21.5c-107.333 0 -203.333 24.5 -288 73.5s-150 116.667 -196 203s-69 183.5 -69 291.5c0 73.333 13.167 144.666 39.5 213.999s63 131 110 185s103.333 96.167 169 126.5s135.834 45.5 210.501 45.5
c76.667 0 148.167 -15.833 214.5 -47.5s122.5 -73.5 168.5 -125.5s82 -109.833 108 -173.5s39 -126.834 39 -189.501c0 -88 -43 -132 -129 -132zM314.999 643l469 0.000976562c-8 67.333 -32.667 121.666 -74 162.999s-95 62 -161 62c-63.333 0 -116 -21 -158 -63
s-67.333 -96 -76 -162zM372.999 1464l242 99c34.667 13.333 60.667 20 78 20c29.333 0 55 -13.833 77 -41.5s33 -56.167 33 -85.5c0 -60.667 -28 -101 -84 -121l-229 -90l-37.5 -13.5c-8.33301 -3 -14.333 -4.83301 -18 -5.5s-12.5 -1 -26.5 -1
c-29.333 0 -54.833 15.5 -76.5 46.5s-32.5 65.167 -32.5 102.5c0 34.667 19.333 62 58 82z" />
    <glyph glyph-name="ecircumflex" unicode="&#xea;" horiz-adv-x="1100" 
d="M950 446h-628.001c10 -70 40.667 -123 92 -159s113.333 -54 186 -54c44.667 0 82.667 7 114 21s70.5 33.833 117.5 59.5s81.167 38.5 102.5 38.5c20 0 39.5 -6.16699 58.5 -18.5s34.167 -28.166 45.5 -47.499s17 -39.666 17 -60.999c0 -30.667 -14.167 -61 -42.5 -91
s-66 -56.833 -113 -80.5s-100 -42.667 -159 -57s-114.833 -21.5 -167.5 -21.5c-107.333 0 -203.333 24.5 -288 73.5s-150 116.667 -196 203s-69 183.5 -69 291.5c0 73.333 13.167 144.666 39.5 213.999s63 131 110 185s103.333 96.167 169 126.5s135.834 45.5 210.501 45.5
c76.667 0 148.167 -15.833 214.5 -47.5s122.5 -73.5 168.5 -125.5s82 -109.833 108 -173.5s39 -126.834 39 -189.501c0 -88 -43 -132 -129 -132zM314.999 643l469 0.000976562c-8 67.333 -32.667 121.666 -74 162.999s-95 62 -161 62c-63.333 0 -116 -21 -158 -63
s-67.333 -96 -76 -162zM333.999 1477l217 88l217 -88c32 -12.667 55.833 -28.834 71.5 -48.501s23.5 -45.167 23.5 -76.5c0 -33.333 -12.667 -63.5 -38 -90.5s-54.333 -40.5 -87 -40.5c-12.667 0 -48.334 12 -107.001 36l-80 35l-80 -35
c-57.333 -24 -92.666 -36 -105.999 -36c-32.667 0 -61.667 13.5 -87 40.5s-38 57.167 -38 90.5c0 58.667 31.333 100.334 94 125.001z" />
    <glyph glyph-name="edieresis" unicode="&#xeb;" horiz-adv-x="1100" 
d="M950 446h-628.001c10 -70 40.667 -123 92 -159s113.333 -54 186 -54c44.667 0 82.667 7 114 21s70.5 33.833 117.5 59.5s81.167 38.5 102.5 38.5c20 0 39.5 -6.16699 58.5 -18.5s34.167 -28.166 45.5 -47.499s17 -39.666 17 -60.999c0 -30.667 -14.167 -61 -42.5 -91
s-66 -56.833 -113 -80.5s-100 -42.667 -159 -57s-114.833 -21.5 -167.5 -21.5c-107.333 0 -203.333 24.5 -288 73.5s-150 116.667 -196 203s-69 183.5 -69 291.5c0 73.333 13.167 144.666 39.5 213.999s63 131 110 185s103.333 96.167 169 126.5s135.834 45.5 210.501 45.5
c76.667 0 148.167 -15.833 214.5 -47.5s122.5 -73.5 168.5 -125.5s82 -109.833 108 -173.5s39 -126.834 39 -189.501c0 -88 -43 -132 -129 -132zM314.999 643l469 0.000976562c-8 67.333 -32.667 121.666 -74 162.999s-95 62 -161 62c-63.333 0 -116 -21 -158 -63
s-67.333 -96 -76 -162zM628.999 1382c0 40 14.333 74.666 43 103.999s63.667 44 105 44c42 0 77 -14.333 105 -43s42 -63.667 42 -105c0 -42 -14 -77 -42 -105s-63 -42 -105 -42c-41.333 0 -76.333 14.333 -105 43s-43 63.334 -43 104.001zM178.999 1382
c0 41.333 14 76.333 42 105s63 43 105 43c41.333 0 76.333 -14.333 105 -43s43 -63.667 43 -105c0 -42 -14.333 -77 -43 -105s-63.667 -42 -105 -42c-42 0 -77 14 -105 42s-42 63 -42 105z" />
    <glyph glyph-name="igrave" unicode="&#xec;" horiz-adv-x="455" 
d="M80 152l0.000976562 786c0 48.667 13.5 88.167 40.5 118.5s62.5 45.5 106.5 45.5c28.667 0 54.167 -6.83301 76.5 -20.5s39.833 -33 52.5 -58s19 -53.5 19 -85.5v-786c0 -32 -6.33301 -60.5 -19 -85.5s-30.334 -44.333 -53.001 -58s-48 -20.5 -76 -20.5
c-44 0 -79.5 15.167 -106.5 45.5s-40.5 69.833 -40.5 118.5zM164.001 1563l241.999 -99l16 -8c16.667 -8.66699 30.334 -20.334 41.001 -35.001s16 -30.334 16 -47.001c0 -36.667 -10.667 -70.667 -32 -102s-46.666 -47 -75.999 -47c-14 0 -22.833 0.333008 -26.5 1
s-9 2.33398 -16 5.00098s-20.167 7.33398 -39.5 14.001l-230 90c-56 20.667 -84 61 -84 121c0 28.667 11.167 57 33.5 85s48.166 42 77.499 42c17.333 0 43.333 -6.66699 78 -20z" />
    <glyph glyph-name="iacute" unicode="&#xed;" horiz-adv-x="455" 
d="M80 152l0.000976562 786c0 48.667 13.5 88.167 40.5 118.5s62.5 45.5 106.5 45.5c28.667 0 54.167 -6.83301 76.5 -20.5s39.833 -33 52.5 -58s19 -53.5 19 -85.5v-786c0 -32 -6.33301 -60.5 -19 -85.5s-30.334 -44.333 -53.001 -58s-48 -20.5 -76 -20.5
c-44 0 -79.5 15.167 -106.5 45.5s-40.5 69.833 -40.5 118.5zM49.001 1464l242 99c34.667 13.333 60.667 20 78 20c29.333 0 55 -13.833 77 -41.5s33 -56.167 33 -85.5c0 -60.667 -28 -101 -84 -121l-229 -90l-37.5 -13.5c-8.33301 -3 -14.333 -4.83301 -18 -5.5
s-12.5 -1 -26.5 -1c-29.333 0 -54.833 15.5 -76.5 46.5s-32.5 65.167 -32.5 102.5c0 34.667 19.333 62 58 82z" />
    <glyph glyph-name="icircumflex" unicode="&#xee;" horiz-adv-x="455" 
d="M80 152l0.000976562 786c0 48.667 13.5 88.167 40.5 118.5s62.5 45.5 106.5 45.5c28.667 0 54.167 -6.83301 76.5 -20.5s39.833 -33 52.5 -58s19 -53.5 19 -85.5v-786c0 -32 -6.33301 -60.5 -19 -85.5s-30.334 -44.333 -53.001 -58s-48 -20.5 -76 -20.5
c-44 0 -79.5 15.167 -106.5 45.5s-40.5 69.833 -40.5 118.5zM10.001 1477l217 88l217 -88c32 -12.667 55.833 -28.834 71.5 -48.501s23.5 -45.167 23.5 -76.5c0 -33.333 -12.667 -63.5 -38 -90.5s-54.333 -40.5 -87 -40.5c-12.667 0 -48.334 12 -107.001 36l-80 35l-80 -35
c-57.333 -24 -92.666 -36 -105.999 -36c-32.667 0 -61.667 13.5 -87 40.5s-38 57.167 -38 90.5c0 58.667 31.333 100.334 94 125.001z" />
    <glyph glyph-name="idieresis" unicode="&#xef;" horiz-adv-x="455" 
d="M80 152l0.000976562 786c0 48.667 13.5 88.167 40.5 118.5s62.5 45.5 106.5 45.5c28.667 0 54.167 -6.83301 76.5 -20.5s39.833 -33 52.5 -58s19 -53.5 19 -85.5v-786c0 -32 -6.33301 -60.5 -19 -85.5s-30.334 -44.333 -53.001 -58s-48 -20.5 -76 -20.5
c-44 0 -79.5 15.167 -106.5 45.5s-40.5 69.833 -40.5 118.5zM305.001 1382c0 40 14.333 74.666 43 103.999s63.667 44 105 44c42 0 77 -14.333 105 -43s42 -63.667 42 -105c0 -42 -14 -77 -42 -105s-63 -42 -105 -42c-41.333 0 -76.333 14.333 -105 43
s-43 63.334 -43 104.001zM-144.999 1382c0 41.333 14 76.333 42 105s63 43 105 43c41.333 0 76.333 -14.333 105 -43s43 -63.667 43 -105c0 -42 -14.333 -77 -43 -105s-63.667 -42 -105 -42c-42 0 -77 14 -105 42s-42 63 -42 105z" />
    <glyph glyph-name="eth" unicode="&#xf0;" horiz-adv-x="1139" 
d="M569 -25c-102 0 -193.339 25.501 -274.006 76.501s-143.167 120 -187.5 207s-66.5 181.833 -66.5 284.5c0 64.667 12.333 128.5 37 191.5s59.334 119.5 104.001 169.5s97.334 89.667 158.001 119s126.334 44 197.001 44c100.667 0 177.667 -29.333 231 -88l4 4
c-54 120 -130.333 209.333 -229 268l-135 -71c-49.333 -25.333 -80.5 -41 -93.5 -47s-27.833 -9 -44.5 -9c-18 0 -34.333 6.5 -49 19.5s-22 31.167 -22 54.5c0 16 3.83301 30 11.5 42s16.334 21 26.001 27s23.834 13.667 42.501 23l102 53
c-48 21.333 -83.833 39.666 -107.5 54.999s-35.5 36.666 -35.5 63.999c0 44.667 12.667 77 38 97s65.666 30 120.999 30c41.333 0 83.666 -8.66699 126.999 -26s90 -40.666 140 -69.999l163 88c28.667 15.333 53.334 23 74.001 23s37.834 -7.5 51.501 -22.5
s20.5 -33.5 20.5 -55.5c0 -19.333 -6 -35 -18 -47s-33.333 -25.667 -64 -41l-107 -58c76.667 -72 138 -147.5 184 -226.5s79.167 -164.167 99.5 -255.5s30.5 -193.333 30.5 -306c0 -89.333 -12.667 -171.5 -38 -246.5s-61.166 -140.167 -107.499 -195.5
s-102.333 -98.333 -168 -129s-137.5 -46 -215.5 -46zM566.994 809.001c-45.333 0 -85.667 -12.834 -121 -38.501s-62.5 -59.167 -81.5 -100.5s-28.5 -83.666 -28.5 -126.999c0 -50 8.83301 -97.833 26.5 -143.5s44 -82.667 79 -111s77.5 -42.5 127.5 -42.5
c50.667 0 93.5 14.167 128.5 42.5s61.333 65.333 79 111s26.5 93.5 26.5 143.5c-1.33301 46.667 -11.333 90.5 -30 131.5s-45.5 73.667 -80.5 98s-76.833 36.5 -125.5 36.5z" />
    <glyph glyph-name="ntilde" unicode="&#xf1;" horiz-adv-x="1139" 
d="M84 152l0.00488281 786.001c0 48.667 13.5 88.167 40.5 118.5s62.5 45.5 106.5 45.5c38 0 68.833 -9.66699 92.5 -29s38.167 -46 43.5 -80c57.333 80.667 152 121 284 121c77.333 0 146.666 -15.833 207.999 -47.5s109.333 -77.334 144 -137.001s52 -130.5 52 -212.5
v-565c0 -32 -6.33301 -60.5 -19 -85.5s-30.334 -44.333 -53.001 -58s-48 -20.5 -76 -20.5c-44 0 -79.5 15.167 -106.5 45.5s-40.5 69.833 -40.5 118.5v514c0 66 -17.833 116.167 -53.5 150.5s-82.167 51.5 -139.5 51.5c-38.667 0 -72.334 -8.83301 -101.001 -26.5
s-50.334 -41.5 -65.001 -71.5s-22 -64.667 -22 -104v-514c0 -32 -6.33301 -60.5 -19 -85.5s-30.334 -44.333 -53.001 -58s-48 -20.5 -76 -20.5c-44 0 -79.5 15.167 -106.5 45.5s-40.5 69.833 -40.5 118.5zM332.005 1239c-24.667 0 -48.0029 11.332 -70.0029 33.999
s-33 47 -33 73c0 54.667 18.833 98.334 56.5 131.001s83.834 49 138.501 49c35.333 0 79.833 -8.5 133.5 -25.5s85.5 -25.5 95.5 -25.5c11.333 0 36 9.83301 74 29.5s66.667 29.5 86 29.5c30.667 0 54.334 -11.167 71.001 -33.5s25 -49.5 25 -81.5
c0 -48.667 -20.833 -90.5 -62.5 -125.5s-87.5 -52.5 -137.5 -52.5c-21.333 0 -61.666 8.5 -120.999 25.5s-96.333 25.5 -111 25.5c-10.667 0 -20.167 -1.83301 -28.5 -5.5s-20.5 -10.5 -36.5 -20.5s-29.333 -17 -40 -21s-24 -6 -40 -6z" />
    <glyph glyph-name="ograve" unicode="&#xf2;" horiz-adv-x="1139" 
d="M569 1114c76 0 146.835 -15.5 212.502 -46.5s122 -73.167 169 -126.5s83.333 -114 109 -182s38.5 -140 38.5 -216c0 -76.667 -12.833 -149.5 -38.5 -218.5s-61.334 -129.333 -107.001 -181s-101.667 -92.667 -168 -123s-138.166 -45.5 -215.499 -45.5
c-102 0 -193.333 25.5 -274 76.5s-143.167 120 -187.5 207s-66.5 181.833 -66.5 284.5c0 73.333 12.833 144.5 38.5 213.5s62.167 130.5 109.5 184.5s103.666 96.333 168.999 127s135.666 46 210.999 46zM569.002 844c-49.333 0 -91.834 -14.498 -127.501 -43.498
s-62.167 -66.833 -79.5 -113.5s-26 -94.667 -26 -144c0 -50 8.83301 -97.833 26.5 -143.5s44 -82.667 79 -111s77.5 -42.5 127.5 -42.5c50.667 0 93.5 14.167 128.5 42.5s61.333 65.333 79 111s26.5 93.5 26.5 143.5c0 49.333 -8.66699 97.166 -26 143.499
s-43.666 84.166 -78.999 113.499s-78.333 44 -129 44zM506.001 1563l241.999 -99l16 -8c16.667 -8.66699 30.334 -20.334 41.001 -35.001s16 -30.334 16 -47.001c0 -36.667 -10.667 -70.667 -32 -102s-46.666 -47 -75.999 -47c-14 0 -22.833 0.333008 -26.5 1
s-9 2.33398 -16 5.00098s-20.167 7.33398 -39.5 14.001l-230 90c-56 20.667 -84 61 -84 121c0 28.667 11.167 57 33.5 85s48.166 42 77.499 42c17.333 0 43.333 -6.66699 78 -20z" />
    <glyph glyph-name="oacute" unicode="&#xf3;" horiz-adv-x="1139" 
d="M569 1114c76 0 146.835 -15.5 212.502 -46.5s122 -73.167 169 -126.5s83.333 -114 109 -182s38.5 -140 38.5 -216c0 -76.667 -12.833 -149.5 -38.5 -218.5s-61.334 -129.333 -107.001 -181s-101.667 -92.667 -168 -123s-138.166 -45.5 -215.499 -45.5
c-102 0 -193.333 25.5 -274 76.5s-143.167 120 -187.5 207s-66.5 181.833 -66.5 284.5c0 73.333 12.833 144.5 38.5 213.5s62.167 130.5 109.5 184.5s103.666 96.333 168.999 127s135.666 46 210.999 46zM569.002 844c-49.333 0 -91.834 -14.498 -127.501 -43.498
s-62.167 -66.833 -79.5 -113.5s-26 -94.667 -26 -144c0 -50 8.83301 -97.833 26.5 -143.5s44 -82.667 79 -111s77.5 -42.5 127.5 -42.5c50.667 0 93.5 14.167 128.5 42.5s61.333 65.333 79 111s26.5 93.5 26.5 143.5c0 49.333 -8.66699 97.166 -26 143.499
s-43.666 84.166 -78.999 113.499s-78.333 44 -129 44zM391.001 1464l242 99c34.667 13.333 60.667 20 78 20c29.333 0 55 -13.833 77 -41.5s33 -56.167 33 -85.5c0 -60.667 -28 -101 -84 -121l-229 -90l-37.5 -13.5c-8.33301 -3 -14.333 -4.83301 -18 -5.5
s-12.5 -1 -26.5 -1c-29.333 0 -54.833 15.5 -76.5 46.5s-32.5 65.167 -32.5 102.5c0 34.667 19.333 62 58 82z" />
    <glyph glyph-name="ocircumflex" unicode="&#xf4;" horiz-adv-x="1139" 
d="M569 1114c76 0 146.835 -15.5 212.502 -46.5s122 -73.167 169 -126.5s83.333 -114 109 -182s38.5 -140 38.5 -216c0 -76.667 -12.833 -149.5 -38.5 -218.5s-61.334 -129.333 -107.001 -181s-101.667 -92.667 -168 -123s-138.166 -45.5 -215.499 -45.5
c-102 0 -193.333 25.5 -274 76.5s-143.167 120 -187.5 207s-66.5 181.833 -66.5 284.5c0 73.333 12.833 144.5 38.5 213.5s62.167 130.5 109.5 184.5s103.666 96.333 168.999 127s135.666 46 210.999 46zM569.002 844c-49.333 0 -91.834 -14.498 -127.501 -43.498
s-62.167 -66.833 -79.5 -113.5s-26 -94.667 -26 -144c0 -50 8.83301 -97.833 26.5 -143.5s44 -82.667 79 -111s77.5 -42.5 127.5 -42.5c50.667 0 93.5 14.167 128.5 42.5s61.333 65.333 79 111s26.5 93.5 26.5 143.5c0 49.333 -8.66699 97.166 -26 143.499
s-43.666 84.166 -78.999 113.499s-78.333 44 -129 44zM352.001 1477l217 88l217 -88c32 -12.667 55.833 -28.834 71.5 -48.501s23.5 -45.167 23.5 -76.5c0 -33.333 -12.667 -63.5 -38 -90.5s-54.333 -40.5 -87 -40.5c-12.667 0 -48.334 12 -107.001 36l-80 35l-80 -35
c-57.333 -24 -92.666 -36 -105.999 -36c-32.667 0 -61.667 13.5 -87 40.5s-38 57.167 -38 90.5c0 58.667 31.333 100.334 94 125.001z" />
    <glyph glyph-name="otilde" unicode="&#xf5;" horiz-adv-x="1139" 
d="M569 1114c76 0 146.835 -15.5 212.502 -46.5s122 -73.167 169 -126.5s83.333 -114 109 -182s38.5 -140 38.5 -216c0 -76.667 -12.833 -149.5 -38.5 -218.5s-61.334 -129.333 -107.001 -181s-101.667 -92.667 -168 -123s-138.166 -45.5 -215.499 -45.5
c-102 0 -193.333 25.5 -274 76.5s-143.167 120 -187.5 207s-66.5 181.833 -66.5 284.5c0 73.333 12.833 144.5 38.5 213.5s62.167 130.5 109.5 184.5s103.666 96.333 168.999 127s135.666 46 210.999 46zM569.002 844c-49.333 0 -91.834 -14.498 -127.501 -43.498
s-62.167 -66.833 -79.5 -113.5s-26 -94.667 -26 -144c0 -50 8.83301 -97.833 26.5 -143.5s44 -82.667 79 -111s77.5 -42.5 127.5 -42.5c50.667 0 93.5 14.167 128.5 42.5s61.333 65.333 79 111s26.5 93.5 26.5 143.5c0 49.333 -8.66699 97.166 -26 143.499
s-43.666 84.166 -78.999 113.499s-78.333 44 -129 44zM332.001 1239c-24.667 0 -48.0029 11.332 -70.0029 33.999s-33 47 -33 73c0 54.667 18.833 98.334 56.5 131.001s83.834 49 138.501 49c35.333 0 79.833 -8.5 133.5 -25.5s85.5 -25.5 95.5 -25.5
c11.333 0 36 9.83301 74 29.5s66.667 29.5 86 29.5c30.667 0 54.334 -11.167 71.001 -33.5s25 -49.5 25 -81.5c0 -48.667 -20.833 -90.5 -62.5 -125.5s-87.5 -52.5 -137.5 -52.5c-21.333 0 -61.666 8.5 -120.999 25.5s-96.333 25.5 -111 25.5
c-10.667 0 -20.167 -1.83301 -28.5 -5.5s-20.5 -10.5 -36.5 -20.5s-29.333 -17 -40 -21s-24 -6 -40 -6z" />
    <glyph glyph-name="odieresis" unicode="&#xf6;" horiz-adv-x="1139" 
d="M569 1114c76 0 146.835 -15.5 212.502 -46.5s122 -73.167 169 -126.5s83.333 -114 109 -182s38.5 -140 38.5 -216c0 -76.667 -12.833 -149.5 -38.5 -218.5s-61.334 -129.333 -107.001 -181s-101.667 -92.667 -168 -123s-138.166 -45.5 -215.499 -45.5
c-102 0 -193.333 25.5 -274 76.5s-143.167 120 -187.5 207s-66.5 181.833 -66.5 284.5c0 73.333 12.833 144.5 38.5 213.5s62.167 130.5 109.5 184.5s103.666 96.333 168.999 127s135.666 46 210.999 46zM569.002 844c-49.333 0 -91.834 -14.498 -127.501 -43.498
s-62.167 -66.833 -79.5 -113.5s-26 -94.667 -26 -144c0 -50 8.83301 -97.833 26.5 -143.5s44 -82.667 79 -111s77.5 -42.5 127.5 -42.5c50.667 0 93.5 14.167 128.5 42.5s61.333 65.333 79 111s26.5 93.5 26.5 143.5c0 49.333 -8.66699 97.166 -26 143.499
s-43.666 84.166 -78.999 113.499s-78.333 44 -129 44zM647.001 1382c0 40 14.333 74.666 43 103.999s63.667 44 105 44c42 0 77 -14.333 105 -43s42 -63.667 42 -105c0 -42 -14 -77 -42 -105s-63 -42 -105 -42c-41.333 0 -76.333 14.333 -105 43s-43 63.334 -43 104.001z
M197.001 1382c0 41.333 14 76.333 42 105s63 43 105 43c41.333 0 76.333 -14.333 105 -43s43 -63.667 43 -105c0 -42 -14.333 -77 -43 -105s-63.667 -42 -105 -42c-42 0 -77 14 -105 42s-42 63 -42 105z" />
    <glyph glyph-name="divide" unicode="&#xf7;" horiz-adv-x="1229" 
d="M195 641h839c38.667 0 68.834 -11.167 90.501 -33.5s32.5 -52.166 32.5 -89.499s-10.833 -67.166 -32.5 -89.499s-51.834 -33.5 -90.501 -33.5h-839c-38.667 0 -68.834 11.167 -90.501 33.5s-32.5 52.166 -32.5 89.499s10.833 67.166 32.5 89.499
s51.834 33.5 90.501 33.5zM455 94c0 43.333 15.5 80.833 46.5 112.5s68.5 47.5 112.5 47.5s81.667 -15.667 113 -47s47 -69 47 -113s-15.667 -81.667 -47 -113s-69 -47 -113 -47s-81.5 15.833 -112.5 47.5s-46.5 69.167 -46.5 112.5zM455 942
c0 43.333 15.5 80.833 46.5 112.5s68.5 47.5 112.5 47.5s81.667 -15.667 113 -47s47 -69 47 -113s-15.667 -81.667 -47 -113s-69 -47 -113 -47s-81.5 15.833 -112.5 47.5s-46.5 69.167 -46.5 112.5z" />
    <glyph glyph-name="oslash" unicode="&#xf8;" horiz-adv-x="1139" 
d="M354 430l351 365c-36 32.667 -81.333 49 -136 49c-49.333 0 -91.833 -14.5 -127.5 -43.5s-62.167 -66.833 -79.5 -113.5s-26 -94.667 -26 -144c0 -40 6 -77.667 18 -113zM31 94l108.003 112.998c-65.333 97.333 -98 209.333 -98 336c0 73.333 12.833 144.5 38.5 213.5
s62.167 130.5 109.5 184.5s103.666 96.333 168.999 127s135.666 46 210.999 46c124 0 232.667 -40.333 326 -121l94 99c18.667 20 37 30 55 30c23.333 0 43.166 -8.16699 59.499 -24.5s24.5 -36.166 24.5 -59.499s-6.66699 -41.666 -20 -54.999l-107 -111
c64.667 -100 97 -209.667 97 -329c0 -76.667 -12.833 -149.5 -38.5 -218.5s-61.334 -129.333 -107.001 -181s-101.667 -92.667 -168 -123s-138.166 -45.5 -215.499 -45.5c-125.333 0 -232.333 37 -321 111l-103 -106c-15.333 -16.667 -32.333 -25 -51 -25
c-22 0 -41.5 8.5 -58.5 25.5s-25.5 36.5 -25.5 58.5c0 24 7 42.333 21 55zM788.003 650.998l-346 -360c34 -30 76.333 -45 127 -45s93.5 14.167 128.5 42.5s61.333 65.333 79 111s26.5 93.5 26.5 143.5c0 38.667 -5 74.667 -15 108z" />
    <glyph glyph-name="ugrave" unicode="&#xf9;" horiz-adv-x="1139" 
d="M84 406l-0.000976562 532c0 48.667 13.5 88.167 40.5 118.5s62.5 45.5 106.5 45.5c28.667 0 54.167 -6.83301 76.5 -20.5s39.833 -33 52.5 -58s19 -53.5 19 -85.5v-526c0 -58 18.833 -104.333 56.5 -139s82.167 -52 133.5 -52c34.667 0 66.334 7.5 95.001 22.5
s51.834 36.833 69.501 65.5s26.5 63 26.5 103v526c0 48.667 13.5 88.167 40.5 118.5s62.5 45.5 106.5 45.5c28.667 0 54.167 -6.83301 76.5 -20.5s39.833 -33 52.5 -58s19 -53.5 19 -85.5v-532c0 -87.333 -18.833 -163.5 -56.5 -228.5s-93.334 -115 -167.001 -150
s-161.167 -52.5 -262.5 -52.5c-154 0 -273.333 38.667 -358 116s-127 182.333 -127 315zM505.999 1563l241.999 -99l16 -8c16.667 -8.66699 30.334 -20.334 41.001 -35.001s16 -30.334 16 -47.001c0 -36.667 -10.667 -70.667 -32 -102s-46.666 -47 -75.999 -47
c-14 0 -22.833 0.333008 -26.5 1s-9 2.33398 -16 5.00098s-20.167 7.33398 -39.5 14.001l-230 90c-56 20.667 -84 61 -84 121c0 28.667 11.167 57 33.5 85s48.166 42 77.499 42c17.333 0 43.333 -6.66699 78 -20z" />
    <glyph glyph-name="uacute" unicode="&#xfa;" horiz-adv-x="1139" 
d="M84 406l-0.000976562 532c0 48.667 13.5 88.167 40.5 118.5s62.5 45.5 106.5 45.5c28.667 0 54.167 -6.83301 76.5 -20.5s39.833 -33 52.5 -58s19 -53.5 19 -85.5v-526c0 -58 18.833 -104.333 56.5 -139s82.167 -52 133.5 -52c34.667 0 66.334 7.5 95.001 22.5
s51.834 36.833 69.501 65.5s26.5 63 26.5 103v526c0 48.667 13.5 88.167 40.5 118.5s62.5 45.5 106.5 45.5c28.667 0 54.167 -6.83301 76.5 -20.5s39.833 -33 52.5 -58s19 -53.5 19 -85.5v-532c0 -87.333 -18.833 -163.5 -56.5 -228.5s-93.334 -115 -167.001 -150
s-161.167 -52.5 -262.5 -52.5c-154 0 -273.333 38.667 -358 116s-127 182.333 -127 315zM390.999 1464l242 99c34.667 13.333 60.667 20 78 20c29.333 0 55 -13.833 77 -41.5s33 -56.167 33 -85.5c0 -60.667 -28 -101 -84 -121l-229 -90l-37.5 -13.5
c-8.33301 -3 -14.333 -4.83301 -18 -5.5s-12.5 -1 -26.5 -1c-29.333 0 -54.833 15.5 -76.5 46.5s-32.5 65.167 -32.5 102.5c0 34.667 19.333 62 58 82z" />
    <glyph glyph-name="ucircumflex" unicode="&#xfb;" horiz-adv-x="1139" 
d="M84 406l-0.000976562 532c0 48.667 13.5 88.167 40.5 118.5s62.5 45.5 106.5 45.5c28.667 0 54.167 -6.83301 76.5 -20.5s39.833 -33 52.5 -58s19 -53.5 19 -85.5v-526c0 -58 18.833 -104.333 56.5 -139s82.167 -52 133.5 -52c34.667 0 66.334 7.5 95.001 22.5
s51.834 36.833 69.501 65.5s26.5 63 26.5 103v526c0 48.667 13.5 88.167 40.5 118.5s62.5 45.5 106.5 45.5c28.667 0 54.167 -6.83301 76.5 -20.5s39.833 -33 52.5 -58s19 -53.5 19 -85.5v-532c0 -87.333 -18.833 -163.5 -56.5 -228.5s-93.334 -115 -167.001 -150
s-161.167 -52.5 -262.5 -52.5c-154 0 -273.333 38.667 -358 116s-127 182.333 -127 315zM351.999 1477l217 88l217 -88c32 -12.667 55.833 -28.834 71.5 -48.501s23.5 -45.167 23.5 -76.5c0 -33.333 -12.667 -63.5 -38 -90.5s-54.333 -40.5 -87 -40.5
c-12.667 0 -48.334 12 -107.001 36l-80 35l-80 -35c-57.333 -24 -92.666 -36 -105.999 -36c-32.667 0 -61.667 13.5 -87 40.5s-38 57.167 -38 90.5c0 58.667 31.333 100.334 94 125.001z" />
    <glyph glyph-name="udieresis" unicode="&#xfc;" horiz-adv-x="1139" 
d="M84 406l-0.000976562 532c0 48.667 13.5 88.167 40.5 118.5s62.5 45.5 106.5 45.5c28.667 0 54.167 -6.83301 76.5 -20.5s39.833 -33 52.5 -58s19 -53.5 19 -85.5v-526c0 -58 18.833 -104.333 56.5 -139s82.167 -52 133.5 -52c34.667 0 66.334 7.5 95.001 22.5
s51.834 36.833 69.501 65.5s26.5 63 26.5 103v526c0 48.667 13.5 88.167 40.5 118.5s62.5 45.5 106.5 45.5c28.667 0 54.167 -6.83301 76.5 -20.5s39.833 -33 52.5 -58s19 -53.5 19 -85.5v-532c0 -87.333 -18.833 -163.5 -56.5 -228.5s-93.334 -115 -167.001 -150
s-161.167 -52.5 -262.5 -52.5c-154 0 -273.333 38.667 -358 116s-127 182.333 -127 315zM646.999 1382c0 40 14.333 74.666 43 103.999s63.667 44 105 44c42 0 77 -14.333 105 -43s42 -63.667 42 -105c0 -42 -14 -77 -42 -105s-63 -42 -105 -42
c-41.333 0 -76.333 14.333 -105 43s-43 63.334 -43 104.001zM196.999 1382c0 41.333 14 76.333 42 105s63 43 105 43c41.333 0 76.333 -14.333 105 -43s43 -63.667 43 -105c0 -42 -14.333 -77 -43 -105s-63.667 -42 -105 -42c-42 0 -77 14 -105 42s-42 63 -42 105z" />
    <glyph glyph-name="yacute" unicode="&#xfd;" horiz-adv-x="985" 
d="M336 86l-326 812.999c-9.33301 26.667 -14 52 -14 76c0 35.333 14.833 65.333 44.5 90s61.167 37 94.5 37c35.333 0 65.833 -9.16699 91.5 -27.5s44.5 -44.166 56.5 -77.499l202 -555l217 555c13.333 33.333 32.5 59.166 57.5 77.499s55.167 27.5 90.5 27.5
c33.333 0 64.833 -12.167 94.5 -36.5s44.5 -54.5 44.5 -90.5c0 -29.333 -4.66699 -54.666 -14 -75.999l-494 -1229c-30.667 -77.333 -77 -116 -139 -116c-46.667 0 -84 12.667 -112 38s-42 55 -42 89c0 23.333 6.33301 52 19 86zM315 1464l242 99
c34.667 13.333 60.667 20 78 20c29.333 0 55 -13.833 77 -41.5s33 -56.167 33 -85.5c0 -60.667 -28 -101 -84 -121l-229 -90l-37.5 -13.5c-8.33301 -3 -14.333 -4.83301 -18 -5.5s-12.5 -1 -26.5 -1c-29.333 0 -54.833 15.5 -76.5 46.5s-32.5 65.167 -32.5 102.5
c0 34.667 19.333 62 58 82z" />
    <glyph glyph-name="thorn" unicode="&#xfe;" 
d="M84 -283l0.00195312 1696c0 48.667 13.5 88.167 40.5 118.5s62.5 45.5 106.5 45.5c28.667 0 54.167 -6.83301 76.5 -20.5s39.833 -33 52.5 -58s19 -53.5 19 -85.5v-434h4c25.333 44 62.333 77.5 111 100.5s100.334 34.5 155.001 34.5
c73.333 0 139.666 -15.333 198.999 -46s110.666 -72.5 153.999 -125.5s76.333 -112.667 99 -179s34 -134.5 34 -204.5c0 -94 -19 -186.167 -57 -276.5s-93.167 -164.166 -165.5 -221.499s-156.833 -86 -253.5 -86c-108 0 -201.333 34.333 -280 103v-361
c0 -30.667 -6.33301 -58.667 -19 -84s-30.334 -44.833 -53.001 -58.5s-48 -20.5 -76 -20.5c-44 0 -79.5 14.833 -106.5 44.5s-40.5 69.167 -40.5 118.5zM379.002 536.999c0 -78 20.1689 -145.998 60.502 -203.998s97.166 -87 170.499 -87c72 0 128.333 30.833 169 92.5
s61 131.167 61 208.5c0 34 -5 69.167 -15 105.5s-24.5 68.666 -43.5 96.999s-43.167 51.166 -72.5 68.499s-62.333 26 -99 26c-74.667 0 -131.834 -31.333 -171.501 -94s-59.5 -133.667 -59.5 -213z" />
    <glyph glyph-name="ydieresis" unicode="&#xff;" horiz-adv-x="985" 
d="M336 86l-326 812.999c-9.33301 26.667 -14 52 -14 76c0 35.333 14.833 65.333 44.5 90s61.167 37 94.5 37c35.333 0 65.833 -9.16699 91.5 -27.5s44.5 -44.166 56.5 -77.499l202 -555l217 555c13.333 33.333 32.5 59.166 57.5 77.499s55.167 27.5 90.5 27.5
c33.333 0 64.833 -12.167 94.5 -36.5s44.5 -54.5 44.5 -90.5c0 -29.333 -4.66699 -54.666 -14 -75.999l-494 -1229c-30.667 -77.333 -77 -116 -139 -116c-46.667 0 -84 12.667 -112 38s-42 55 -42 89c0 23.333 6.33301 52 19 86zM571 1382c0 40 14.333 74.666 43 103.999
s63.667 44 105 44c42 0 77 -14.333 105 -43s42 -63.667 42 -105c0 -42 -14 -77 -42 -105s-63 -42 -105 -42c-41.333 0 -76.333 14.333 -105 43s-43 63.334 -43 104.001zM121 1382c0 41.333 14 76.333 42 105s63 43 105 43c41.333 0 76.333 -14.333 105 -43
s43 -63.667 43 -105c0 -42 -14.333 -77 -43 -105s-63.667 -42 -105 -42c-42 0 -77 14 -105 42s-42 63 -42 105z" />
    <glyph glyph-name="dotlessi" unicode="&#x131;" horiz-adv-x="455" 
d="M80 152l0.000976562 786c0 48.667 13.5 88.167 40.5 118.5s62.5 45.5 106.5 45.5c28.667 0 54.167 -6.83301 76.5 -20.5s39.833 -33 52.5 -58s19 -53.5 19 -85.5v-786c0 -32 -6.33301 -60.5 -19 -85.5s-30.334 -44.333 -53.001 -58s-48 -20.5 -76 -20.5
c-44 0 -79.5 15.167 -106.5 45.5s-40.5 69.833 -40.5 118.5z" />
    <glyph glyph-name="Lslash" unicode="&#x141;" horiz-adv-x="872" 
d="M92 168l0.00292969 324.003l-80 -62c-17.333 -13.333 -38.333 -20 -63 -20c-16 0 -31.333 4.5 -46 13.5s-25.667 21.333 -33 37s-11 34.167 -11 55.5c0 25.333 7.83301 46.5 23.5 63.5s43.834 40.833 84.501 71.5l125 94v566c0 49.333 14.5 88.166 43.5 116.499
s65.833 42.5 110.5 42.5c45.333 0 82.166 -13.833 110.499 -41.5s42.5 -66.834 42.5 -117.501v-332l226 168c25.333 18 54 27 86 27c21.333 0 41.666 -9.16699 60.999 -27.5s29 -41.5 29 -69.5c0 -24 -8.5 -45.167 -25.5 -63.5s-43.5 -40.833 -79.5 -67.5l-297 -217v-446
h365c49.333 0 86.166 -14.833 110.499 -44.5s36.5 -64.167 36.5 -103.5c-2 -36 -16.333 -67.5 -43 -94.5s-61.334 -40.5 -104.001 -40.5h-512c-49.333 0 -88.333 15.167 -117 45.5s-43 71.166 -43 122.499z" />
    <glyph glyph-name="lslash" unicode="&#x142;" horiz-adv-x="455" 
d="M80 152v380l-10 -10c-35.333 -34 -67.666 -51 -96.999 -51c-25.333 0 -46.333 9.66699 -63 29s-25 42.333 -25 69c0 27.333 14.333 55.333 43 84l152 152v608c0 48.667 13.5 88.167 40.5 118.5s62.5 45.5 106.5 45.5c28.667 0 54.167 -6.83301 76.5 -20.5
s39.833 -33 52.5 -58s19 -53.5 19 -85.5v-323l10 10c21.333 20 38.833 34.167 52.5 42.5s30.167 12.5 49.5 12.5c25.333 0 45.333 -8.66699 60 -26s22 -39.333 22 -66c0 -21.333 -3.5 -39 -10.5 -53s-17.833 -27.667 -32.5 -41l-151 -152v-665
c0 -32 -6.33301 -60.5 -19 -85.5s-30.334 -44.333 -53.001 -58s-48 -20.5 -76 -20.5c-44 0 -79.5 15.167 -106.5 45.5s-40.5 69.833 -40.5 118.5z" />
    <glyph glyph-name="OE" unicode="&#x152;" horiz-adv-x="1972" 
d="M1419 1176l0.00390625 -298.998h340c48 0 85 -13.667 111 -41s39 -61 39 -101c0 -37.333 -13.333 -70.166 -40 -98.499s-63.334 -42.5 -110.001 -42.5h-340v-311h383c47.333 0 83.5 -13.833 108.5 -41.5s37.5 -61.167 37.5 -100.5c0 -22 -5.66699 -44.333 -17 -67
s-28 -40.667 -50 -54s-48.333 -20 -79 -20h-569c-41.333 0 -67 9.5 -77 28.5s-15 48.5 -15 88.5h-4c-28.667 -38 -64.334 -67.333 -107.001 -88s-87.834 -34.834 -135.501 -42.501s-99.5 -11.5 -155.5 -11.5c-136 0 -257.5 33.167 -364.5 99.5
s-190.333 157.166 -250 272.499s-89.5 242.666 -89.5 381.999c0 106 17 205 51 297s82.5 172.333 145.5 241s137.5 121.834 223.5 159.501s180.667 56.5 284 56.5c49.333 0 98 -5.5 146 -16.5s93.667 -28 137 -51s82.333 -51.833 117 -86.5l4 4
c0 53.333 9.5 87.5 28.5 102.5s58.5 22.5 118.5 22.5h494c46.667 0 82.5 -13.833 107.5 -41.5s37.5 -60.834 37.5 -99.501c0 -25.333 -5.66699 -48.5 -17 -69.5s-27.833 -38.167 -49.5 -51.5s-47.834 -20 -78.501 -20h-365zM354.004 729.002
c0 -134 33.1602 -245.998 99.4932 -335.998s161.5 -135 285.5 -135c62.667 0 118.334 12.333 167.001 37s89.334 59.167 122.001 103.5s56.834 94.666 72.501 150.999s23.5 116.166 23.5 179.499c0 85.333 -14.667 163.666 -44 234.999s-73.166 128.5 -131.499 171.5
s-128.166 64.5 -209.499 64.5s-151.166 -21.5 -209.499 -64.5s-102.166 -100.167 -131.499 -171.5s-44 -149.666 -44 -234.999z" />
    <glyph glyph-name="oe" unicode="&#x153;" horiz-adv-x="1858" 
d="M1073 643h468.998c-8 67.333 -32.333 121.666 -73 162.999s-94 62 -160 62c-63.333 0 -116.166 -21.167 -158.499 -63.5s-68.166 -96.166 -77.499 -161.499zM1708 446l-628.996 -0.000976562c10.667 -69.333 42.167 -122.166 94.5 -158.499s114.5 -54.5 186.5 -54.5
c43.333 0 79.5 6.5 108.5 19.5s68.167 32.833 117.5 59.5s84.666 40 105.999 40c31.333 0 59.166 -13 83.499 -39s36.5 -55.333 36.5 -88c0 -40.667 -24.5 -80.5 -73.5 -119.5s-111.667 -70.5 -188 -94.5s-149.5 -36 -219.5 -36c-84 0 -159.5 15.333 -226.5 46
s-121.833 72 -164.5 124c-42.667 -52 -95.667 -93.333 -159 -124s-134 -46 -212 -46c-102 0 -193.333 25.5 -274 76.5s-143.167 120 -187.5 207s-66.5 181.833 -66.5 284.5c0 73.333 12.833 144.5 38.5 213.5s62.167 130.5 109.5 184.5s103.666 96.333 168.999 127
s135.666 46 210.999 46c143.333 0 270.333 -55.333 381 -166c39.333 49.333 89.5 89.333 150.5 120s128.5 46 202.5 46c92 0 179.333 -24.667 262 -74s148.667 -115.5 198 -198.5s74 -170.833 74 -263.5c0 -88 -43 -132 -129 -132zM336.002 542.999
c0 -50 8.83203 -97.8311 26.499 -143.498s44 -82.667 79 -111s77.5 -42.5 127.5 -42.5c50.667 0 93.5 14.167 128.5 42.5s61.333 65.333 79 111s26.5 93.5 26.5 143.5c0 49.333 -8.66699 97.166 -26 143.499s-43.666 84.166 -78.999 113.499s-78.333 44 -129 44
c-49.333 0 -91.833 -14.5 -127.5 -43.5s-62.167 -66.833 -79.5 -113.5s-26 -94.667 -26 -144z" />
    <glyph glyph-name="Scaron" unicode="&#x160;" horiz-adv-x="1100" 
d="M553 1483c46.667 0 101.835 -6.66602 165.502 -19.999s118.834 -35.5 165.501 -66.5s70 -70.5 70 -118.5c0 -42 -12.667 -77.833 -38 -107.5s-58.333 -44.5 -99 -44.5c-18.667 0 -38.834 3.5 -60.501 10.5s-44 14.833 -67 23.5s-46 15.5 -69 20.5s-48.167 7.5 -75.5 7.5
c-46 0 -85.5 -12 -118.5 -36s-49.5 -56.333 -49.5 -97c0 -44 37.167 -79.167 111.5 -105.5l248 -84.5c91 -30 167.833 -76.5 230.5 -139.5s94 -154.5 94 -274.5c0 -93.333 -23.667 -176.333 -71 -249s-111 -128.667 -191 -168s-167.333 -59 -262 -59
c-116.667 0 -228.834 17.167 -336.501 51.5s-161.5 93.833 -161.5 178.5c0 41.333 12.5 75.833 37.5 103.5s58.167 41.5 99.5 41.5c20 0 42 -3.33301 66 -10s54.667 -16.5 92 -29.5s70 -23 98 -30s57.333 -10.5 88 -10.5c44 0 81.667 7.5 113 22.5
s55.166 35.833 71.499 62.5s24.5 57 24.5 91c0 52 -18.167 86 -54.5 102s-119.833 44.667 -250.5 86s-226.5 89 -287.5 143s-91.5 134.333 -91.5 241c0 93.333 23.167 175.166 69.5 245.499s108.5 124.5 186.5 162.5s162 57 252 57zM551.001 1544l-217 87.999
c-62.667 24.667 -94 66.334 -94 125.001c0 33.333 12.667 63.5 38 90.5s54.333 40.5 87 40.5c13.333 0 48.666 -12 105.999 -36l80 -35l80 35c58.667 24 94.334 36 107.001 36c32.667 0 61.667 -13.5 87 -40.5s38 -57.167 38 -90.5c0 -30.667 -7.83301 -55.667 -23.5 -75
s-39.5 -36 -71.5 -50z" />
    <glyph glyph-name="scaron" unicode="&#x161;" horiz-adv-x="872" 
d="M825 901c0 -34 -11.499 -64.333 -34.499 -91s-51.5 -40 -85.5 -40c-15.333 0 -44.5 9.66699 -87.5 29s-76.167 33.666 -99.5 42.999s-49.333 14 -78 14s-52.5 -7 -71.5 -21s-28.5 -34.333 -28.5 -61c0 -28.667 29.333 -55.834 88 -81.501l186.5 -79
c65.667 -27 121.667 -63.167 168 -108.5s69.5 -106.333 69.5 -183c0 -66 -17.333 -125.167 -52 -177.5s-84.167 -93.666 -148.5 -123.999s-137.5 -45.5 -219.5 -45.5c-58 0 -119.167 10 -183.5 30s-118.5 47.667 -162.5 83s-66 73.666 -66 114.999
c0 26.667 11.833 55.167 35.5 85.5s54.167 45.5 91.5 45.5c26.667 0 50 -4.16699 70 -12.5s45.167 -21.166 75.5 -38.499s56.666 -30 78.999 -38s49.5 -12 81.5 -12c43.333 0 73.5 6.83301 90.5 20.5s25.5 34.834 25.5 63.501s-28.333 55.334 -85 80.001l-187 79
c-68 28 -125 65 -171 111s-69 107 -69 183c0 67.333 17 127 51 179s81.333 92.5 142 121.5s129.667 43.5 207 43.5c54 0 109.333 -8 166 -24s104.5 -40.333 143.5 -73s58.5 -71.334 58.5 -116.001zM436.001 1212l-217 87.999c-62.667 24.667 -94 66.334 -94 125.001
c0 33.333 12.667 63.5 38 90.5s54.333 40.5 87 40.5c13.333 0 48.666 -12 105.999 -36l80 -35l80 35c58.667 24 94.334 36 107.001 36c32.667 0 61.667 -13.5 87 -40.5s38 -57.167 38 -90.5c0 -30.667 -7.83301 -55.667 -23.5 -75s-39.5 -36 -71.5 -50z" />
    <glyph glyph-name="Ydieresis" unicode="&#x178;" horiz-adv-x="1098" 
d="M395 137v547l-387 545c-18.667 26.667 -28 57.334 -28 92.001c0 41.333 13.833 76.5 41.5 105.5s62.834 43.5 105.501 43.5c56.667 0 99 -20.333 127 -61l295 -428l295 428c27.333 40.667 69.666 61 126.999 61c42.667 0 77.834 -14.5 105.501 -43.5
s41.5 -64.167 41.5 -105.5c0 -34.667 -9.33301 -65.334 -28 -92.001l-388 -545v-547c0 -42 -12.833 -77.333 -38.5 -106s-63.834 -43 -114.501 -43c-51.333 0 -89.833 14.333 -115.5 43s-38.5 64 -38.5 106zM627 1714c0 40 14.333 74.666 43 103.999s63.667 44 105 44
c42 0 77 -14.333 105 -43s42 -63.667 42 -105c0 -42 -14 -77 -42 -105s-63 -42 -105 -42c-41.333 0 -76.333 14.333 -105 43s-43 63.334 -43 104.001zM177 1714c0 41.333 14 76.333 42 105s63 43 105 43c41.333 0 76.333 -14.333 105 -43s43 -63.667 43 -105
c0 -42 -14.333 -77 -43 -105s-63.667 -42 -105 -42c-42 0 -77 14 -105 42s-42 63 -42 105z" />
    <glyph glyph-name="Zcaron" unicode="&#x17d;" horiz-adv-x="1214" 
d="M428 270l594.002 -0.000976562c44 0 79.5 -11.667 106.5 -35s40.5 -56.666 40.5 -99.999c0 -38.667 -14.833 -70.834 -44.5 -96.501s-63.834 -38.5 -102.501 -38.5h-805c-53.333 0 -95.333 13.5 -126 40.5s-46 62.5 -46 106.5c0 42 13.667 81.667 41 119l659 922h-538
c-42 0 -76.5 11.667 -103.5 35s-40.5 55.333 -40.5 96c0 38.667 14.167 71.5 42.5 98.5s62.166 40.5 101.499 40.5h749c56 0 98.667 -14.667 128 -44s44 -63.666 44 -102.999c0 -49.333 -15 -93 -45 -131zM608.002 1544l-217 87.999c-62.667 24.667 -94 66.334 -94 125.001
c0 33.333 12.667 63.5 38 90.5s54.333 40.5 87 40.5c13.333 0 48.666 -12 105.999 -36l80 -35l80 35c58.667 24 94.334 36 107.001 36c32.667 0 61.667 -13.5 87 -40.5s38 -57.167 38 -90.5c0 -30.667 -7.83301 -55.667 -23.5 -75s-39.5 -36 -71.5 -50z" />
    <glyph glyph-name="zcaron" unicode="&#x17e;" horiz-adv-x="985" 
d="M49 180l463.002 651h-342c-38 0 -69.667 11.833 -95 35.5s-38 55.167 -38 94.5s12.667 70.666 38 93.999s57 35 95 35h670c21.333 0 42.666 -6.83301 63.999 -20.5s32 -37.834 32 -72.501c0 -19.333 -2.33301 -35 -7 -47s-12.667 -25.667 -24 -41l-465 -651h389
c38.667 0 70.667 -11.667 96 -35s38 -54.666 38 -93.999s-12.667 -70.666 -38 -93.999s-57.333 -35 -96 -35h-686c-34.667 -0 -63.334 8.83301 -86.001 26.5s-34 42.167 -34 73.5c0 25.333 8.66699 52 26 80zM493.002 1212l-217 87.999
c-62.667 24.667 -94 66.334 -94 125.001c0 33.333 12.667 63.5 38 90.5s54.333 40.5 87 40.5c13.333 0 48.666 -12 105.999 -36l80 -35l80 35c58.667 24 94.334 36 107.001 36c32.667 0 61.667 -13.5 87 -40.5s38 -57.167 38 -90.5c0 -30.667 -7.83301 -55.667 -23.5 -75
s-39.5 -36 -71.5 -50z" />
    <glyph glyph-name="florin" unicode="&#x192;" 
d="M453 866l58.998 310.001c17.333 101.333 53.5 177.833 108.5 229.5s131.5 77.5 229.5 77.5c54.667 0 101.834 -10.333 141.501 -31s59.5 -57 59.5 -109c0 -44.667 -14.333 -75.5 -43 -92.5s-67.667 -25.5 -117 -25.5c-28 0 -49 -9.33301 -63 -28
s-24.333 -46.334 -31 -83.001l-45 -248h71c45.333 0 80.666 -10.833 105.999 -32.5s38 -53.167 38 -94.5c0 -48.667 -16.167 -82.667 -48.5 -102s-81.166 -29 -146.499 -29h-67l-130 -708c-18.667 -109.333 -55 -194.333 -109 -255s-133.667 -91 -239 -91
c-37.333 0 -70.666 3.5 -99.999 10.5s-53 20.167 -71 39.5s-27 47 -27 83c0 54.667 15.5 89.167 46.5 103.5s69.167 21.5 114.5 21.5s76.333 42.333 93 127l125 669h-52c-44.667 0 -79 11.833 -103 35.5s-36 53.5 -36 89.5c0 43.333 14.167 76.333 42.5 99s65.5 34 111.5 34
h82z" />
    <glyph glyph-name="circumflex" unicode="&#x2c6;" horiz-adv-x="455" 
d="M10 1477l217 88l217 -88c32 -12.667 55.833 -28.834 71.5 -48.501s23.5 -45.167 23.5 -76.5c0 -33.333 -12.667 -63.5 -38 -90.5s-54.333 -40.5 -87 -40.5c-12.667 0 -48.334 12 -107.001 36l-80 35l-80 -35c-57.333 -24 -92.666 -36 -105.999 -36
c-32.667 0 -61.667 13.5 -87 40.5s-38 57.167 -38 90.5c0 58.667 31.333 100.334 94 125.001z" />
    <glyph glyph-name="caron" unicode="&#x2c7;" horiz-adv-x="455" 
d="M227 1212l-217 87.999c-62.667 24.667 -94 66.334 -94 125.001c0 33.333 12.667 63.5 38 90.5s54.333 40.5 87 40.5c13.333 0 48.666 -12 105.999 -36l80 -35l80 35c58.667 24 94.334 36 107.001 36c32.667 0 61.667 -13.5 87 -40.5s38 -57.167 38 -90.5
c0 -30.667 -7.83301 -55.667 -23.5 -75s-39.5 -36 -71.5 -50z" />
    <glyph glyph-name="breve" unicode="&#x2d8;" horiz-adv-x="455" 
d="M-90 1436c0 32.667 7.33008 61.334 21.9971 86.001s38 37 70 37c35.333 0 63 -11.667 83 -35l59.5 -70c19.667 -23.333 47.167 -35 82.5 -35c24.667 0 43.834 5.66699 57.501 17s28.834 28.5 45.501 51.5s34 40.667 52 53s41.667 18.5 71 18.5
c16.667 0 32.167 -6.5 46.5 -19.5s25.5 -28.833 33.5 -47.5s12 -37.334 12 -56.001c0 -46 -17.167 -85.167 -51.5 -117.5s-76 -56.333 -125 -72s-96.167 -23.5 -141.5 -23.5c-44 0 -91.167 7.66699 -141.5 23s-92.166 38.833 -125.499 70.5s-50 71.5 -50 119.5z" />
    <glyph glyph-name="dotaccent" unicode="&#x2d9;" horiz-adv-x="455" 
d="M80 1382c0 41.333 14 76.333 42 105s63 43 105 43c41.333 0 76.333 -14.333 105 -43s43 -63.667 43 -105c0 -42 -14.333 -77 -43 -105s-63.667 -42 -105 -42c-42 0 -77 14 -105 42s-42 63 -42 105z" />
    <glyph glyph-name="ring" unicode="&#x2da;" horiz-adv-x="455" 
d="M25 1389c0 36 9 69.667 27 101s42.667 56 74 74s65 27 101 27c37.333 0 71.5 -9 102.5 -27s55.5 -42.667 73.5 -74s27 -65 27 -101c0 -56.667 -20 -104.667 -60 -144s-87.667 -59 -143 -59c-54.667 0 -102 20 -142 60s-60 87.667 -60 143zM135 1389
c0 -26 9 -47.999 27 -65.999s39.667 -27 65 -27c26 0 47.833 9.16699 65.5 27.5s26.5 40.166 26.5 65.499c0 26 -8.83301 47.833 -26.5 65.5s-39.5 26.5 -65.5 26.5c-25.333 0 -47 -8.66699 -65 -26s-27 -39.333 -27 -66z" />
    <glyph glyph-name="ogonek" unicode="&#x2db;" horiz-adv-x="455" 
d="M250 0l141 -0.000976562c-40.667 -20 -79.5 -52.667 -116.5 -98s-55.5 -89.666 -55.5 -132.999c0 -53.333 24 -80 72 -80c8 0 20.167 2.33301 36.5 7s30.833 7 43.5 7c28.667 0 43 -15 43 -45c0 -20 -9.33301 -37.667 -28 -53s-44 -27.666 -76 -36.999s-65 -14 -99 -14
c-56 0 -101.333 15.5 -136 46.5s-52 72.833 -52 125.5c0 56.667 24.667 111.167 74 163.5s100.333 89.166 153 110.499z" />
    <glyph glyph-name="tilde" unicode="&#x2dc;" horiz-adv-x="455" 
d="M-10 1239c-24.667 0 -48.0029 11.332 -70.0029 33.999s-33 47 -33 73c0 54.667 18.833 98.334 56.5 131.001s83.834 49 138.501 49c35.333 0 79.833 -8.5 133.5 -25.5s85.5 -25.5 95.5 -25.5c11.333 0 36 9.83301 74 29.5s66.667 29.5 86 29.5
c30.667 0 54.334 -11.167 71.001 -33.5s25 -49.5 25 -81.5c0 -48.667 -20.833 -90.5 -62.5 -125.5s-87.5 -52.5 -137.5 -52.5c-21.333 0 -61.666 8.5 -120.999 25.5s-96.333 25.5 -111 25.5c-10.667 0 -20.167 -1.83301 -28.5 -5.5s-20.5 -10.5 -36.5 -20.5
s-29.333 -17 -40 -21s-24 -6 -40 -6z" />
    <glyph glyph-name="hungarumlaut" unicode="&#x2dd;" horiz-adv-x="455" 
d="M-236 1464l242.003 99c34.667 13.333 60.667 20 78 20c29.333 0 55.166 -13.667 77.499 -41s33.5 -56 33.5 -86c0 -60 -28 -100.333 -84 -121l-230 -90c-19.333 -6.66699 -32.5 -11.5 -39.5 -14.5s-12.333 -4.66699 -16 -5s-12.5 -0.5 -26.5 -0.5
c-28.667 0 -53.834 15.667 -75.501 47s-32.5 65.333 -32.5 102c0 15.333 5.16699 30.5 15.5 45.5s24.166 27.167 41.499 36.5zM334.003 1464l240.999 99c34.667 13.333 60.667 20 78 20c30 0 56 -13.833 78 -41.5s33 -56.167 33 -85.5c0 -60 -28 -100.333 -84 -121l-229 -90
l-37.5 -13.5c-8.33301 -3 -14.333 -4.83301 -18 -5.5s-12.5 -1 -26.5 -1c-29.333 0 -54.833 15.667 -76.5 47s-32.5 65.333 -32.5 102c0 16 5.33301 31.5 16 46.5s24.334 26.833 41.001 35.5z" />
    <glyph glyph-name="emdash" unicode="&#x2013;" horiz-adv-x="1024" 
d="M123 717h778c38.667 0 68.834 -11.167 90.501 -33.5s32.5 -52.166 32.5 -89.499s-10.833 -67.166 -32.5 -89.499s-51.834 -33.5 -90.501 -33.5h-778c-38.667 0 -68.834 11.167 -90.501 33.5s-32.5 52.166 -32.5 89.499s10.833 67.166 32.5 89.499
s51.834 33.5 90.501 33.5z" />
    <glyph glyph-name="endash" unicode="&#x2014;" horiz-adv-x="2048" 
d="M0 717h2048c38.667 0 68.834 -11.167 90.5 -33.5c21.667 -22.333 32.5 -52.166 32.5 -89.499s-10.833 -67.166 -32.5 -89.499s-51.834 -33.5 -90.5 -33.5h-2048c-38.667 0 -68.834 11.167 -90.501 33.5s-32.5 52.166 -32.5 89.499s10.833 67.166 32.5 89.499
s51.834 33.5 90.501 33.5z" />
    <glyph glyph-name="quoteleft" unicode="&#x2018;" horiz-adv-x="492" 
d="M446 1266l-172 -308c-11.333 -22 -29 -39 -53 -51s-45 -18 -63 -18c-37.333 0 -70 13.333 -98 40s-42 58.334 -42 95.001c0 17.333 8.33301 44.666 25 81.999l170 307c12.667 21.333 31.334 38.333 56.001 51s45.667 19 63 19c37.333 0 70.166 -13.5 98.499 -40.5
s42.5 -58.5 42.5 -94.5c0 -18.667 -9 -46 -27 -82z" />
    <glyph glyph-name="quoteright" unicode="&#x2019;" horiz-adv-x="492" 
d="M446 1266l-172 -308c-11.333 -22 -29 -39 -53 -51s-45 -18 -63 -18c-37.333 0 -70 13.333 -98 40s-42 58.334 -42 95.001c0 17.333 8.33301 44.666 25 81.999l170 307c12.667 21.333 31.334 38.333 56.001 51s45.667 19 63 19c37.333 0 70.166 -13.5 98.499 -40.5
s42.5 -58.5 42.5 -94.5c0 -18.667 -9 -46 -27 -82z" />
    <glyph glyph-name="quotesinglbase" unicode="&#x201a;" horiz-adv-x="492" 
d="M446 102l-172 -307c-11.333 -22 -29 -39 -53 -51s-45 -18 -63 -18c-37.333 0 -70 13.333 -98 40s-42 58.334 -42 95.001c0 17.333 8.33301 44.666 25 81.999l170 307c12.667 22 30.834 39 54.501 51s45.167 18 64.5 18c37.333 0 70.166 -13.333 98.499 -40
s42.5 -58.334 42.5 -95.001c0 -17.333 -9 -44.666 -27 -81.999z" />
    <glyph glyph-name="quotedblleft" unicode="&#x201c;" horiz-adv-x="909" 
d="M864 1266l-172 -308c-11.333 -22 -29 -39 -53 -51s-45.333 -18 -64 -18c-36.667 0 -69 13.333 -97 40s-42 58.334 -42 95.001c0 17.333 8.33301 44.666 25 81.999l170 307c11.333 20.667 29.333 37.5 54 50.5s46.334 19.5 65.001 19.5
c37.333 0 70.166 -13.5 98.499 -40.5s42.5 -58.5 42.5 -94.5c0 -18.667 -9 -46 -27 -82zM446 1266l-172 -308c-11.333 -22 -29 -39 -53 -51s-45 -18 -63 -18c-37.333 0 -70 13.333 -98 40s-42 58.334 -42 95.001c0 17.333 8.33301 44.666 25 81.999l170 307
c12.667 21.333 31.334 38.333 56.001 51s45.667 19 63 19c37.333 0 70.166 -13.5 98.499 -40.5s42.5 -58.5 42.5 -94.5c0 -18.667 -9 -46 -27 -82z" />
    <glyph glyph-name="quotedblright" unicode="&#x201d;" horiz-adv-x="909" 
d="M864 1266l-172 -308c-11.333 -22 -29 -39 -53 -51s-45.333 -18 -64 -18c-36.667 0 -69 13.333 -97 40s-42 58.334 -42 95.001c0 17.333 8.33301 44.666 25 81.999l170 307c11.333 20.667 29.333 37.5 54 50.5s46.334 19.5 65.001 19.5
c37.333 0 70.166 -13.5 98.499 -40.5s42.5 -58.5 42.5 -94.5c0 -18.667 -9 -46 -27 -82zM446 1266l-172 -308c-11.333 -22 -29 -39 -53 -51s-45 -18 -63 -18c-37.333 0 -70 13.333 -98 40s-42 58.334 -42 95.001c0 17.333 8.33301 44.666 25 81.999l170 307
c12.667 21.333 31.334 38.333 56.001 51s45.667 19 63 19c37.333 0 70.166 -13.5 98.499 -40.5s42.5 -58.5 42.5 -94.5c0 -18.667 -9 -46 -27 -82z" />
    <glyph glyph-name="quotedblbase" unicode="&#x201e;" horiz-adv-x="909" 
d="M864 102l-172 -306.999c-11.333 -22 -29 -39 -53 -51s-45.333 -18 -64 -18c-36.667 0 -69 13.333 -97 40s-42 58.334 -42 95.001c0 17.333 8.33301 44.666 25 81.999l170 307c11.333 21.333 28.833 38.166 52.5 50.499s45.834 18.5 66.501 18.5
c37.333 0 70.166 -13.333 98.499 -40s42.5 -58.334 42.5 -95.001c0 -17.333 -9 -44.666 -27 -81.999zM446 102.001l-172 -307c-11.333 -22 -29 -39 -53 -51s-45 -18 -63 -18c-37.333 0 -70 13.333 -98 40s-42 58.334 -42 95.001c0 17.333 8.33301 44.666 25 81.999l170 307
c12.667 22 30.834 39 54.501 51s45.167 18 64.5 18c37.333 0 70.166 -13.333 98.499 -40s42.5 -58.334 42.5 -95.001c0 -17.333 -9 -44.666 -27 -81.999z" />
    <glyph glyph-name="dagger" unicode="&#x2020;" horiz-adv-x="1290" 
d="M504 -305v1075h-336c-35.333 0 -63.666 11.5 -84.999 34.5s-32 54.5 -32 94.5s10.667 71.5 32 94.5s49.666 34.5 84.999 34.5h336v313c0 44.667 12.833 79.5 38.5 104.5s59.834 37.5 102.501 37.5s76.834 -12.5 102.501 -37.5s38.5 -59.833 38.5 -104.5v-313h336
c35.333 0 63.666 -11.5 84.999 -34.5s32 -54.5 32 -94.5s-10.667 -71.5 -32 -94.5s-49.666 -34.5 -84.999 -34.5h-336v-1075c0 -29.333 -5.83301 -54.666 -17.5 -75.999s-28.334 -37.5 -50.001 -48.5s-46.167 -16.5 -73.5 -16.5c-42.667 0 -76.834 12.5 -102.501 37.5
s-38.5 59.5 -38.5 103.5z" />
    <glyph glyph-name="daggerdbl" unicode="&#x2021;" horiz-adv-x="1290" 
d="M504 -305v316.999h-336c-35.333 0 -63.666 11.5 -84.999 34.5s-32 54.5 -32 94.5s10.667 71.5 32 94.5s49.666 34.5 84.999 34.5h336v500h-336c-35.333 0 -63.666 11.5 -84.999 34.5s-32 54.5 -32 94.5s10.667 71.5 32 94.5s49.666 34.5 84.999 34.5h336v313
c0 44.667 12.833 79.5 38.5 104.5s59.834 37.5 102.501 37.5s76.834 -12.5 102.501 -37.5s38.5 -59.833 38.5 -104.5v-313h336c35.333 0 63.666 -11.5 84.999 -34.5s32 -54.5 32 -94.5s-10.667 -71.5 -32 -94.5s-49.666 -34.5 -84.999 -34.5h-336v-500h336
c35.333 0 63.666 -11.5 84.999 -34.5s32 -54.5 32 -94.5s-10.667 -71.5 -32 -94.5s-49.666 -34.5 -84.999 -34.5h-336v-317c0 -29.333 -5.83301 -54.666 -17.5 -75.999s-28.334 -37.5 -50.001 -48.5s-46.167 -16.5 -73.5 -16.5c-42.667 0 -76.834 12.5 -102.501 37.5
s-38.5 59.5 -38.5 103.5z" />
    <glyph glyph-name="bullet" unicode="&#x2022;" horiz-adv-x="1024" 
d="M147 729c0 66 16.333 127 49 183s77 100.333 133 133s117 49 183 49c50.667 0 97.667 -9.16699 141 -27.5s82.333 -44.833 117 -79.5s61.167 -73.667 79.5 -117s27.5 -90.333 27.5 -141c0 -66 -16.5 -127 -49.5 -183s-77.5 -100.167 -133.5 -132.5
s-116.667 -48.5 -182 -48.5s-126 16.167 -182 48.5s-100.5 76.5 -133.5 132.5s-49.5 117 -49.5 183z" />
    <glyph glyph-name="ellipsis" unicode="&#x2026;" horiz-adv-x="2048" 
d="M182 135c0 44 15.667 81.667 47 113s69 47 113 47s81.667 -15.667 113 -47s47 -69 47 -113s-15.667 -81.667 -47 -113s-69 -47 -113 -47s-81.667 15.667 -113 47s-47 69 -47 113zM864 135c0 44 15.667 81.667 47 113s69 47 113 47s81.667 -15.667 113 -47s47 -69 47 -113
s-15.667 -81.667 -47 -113s-69 -47 -113 -47s-81.667 15.667 -113 47s-47 69 -47 113zM1546 135c0 44 15.667 81.667 47 113s69 47 113 47s81.667 -15.667 113 -47s47 -69 47 -113s-15.667 -81.667 -47 -113s-69 -47 -113 -47s-81.667 15.667 -113 47s-47 69 -47 113z" />
    <glyph glyph-name="perthousand" unicode="&#x2030;" horiz-adv-x="2200" 
d="M1821 -25c-58.667 0 -112.332 15 -160.999 45s-86.667 70.5 -114 121.5s-41 105.5 -41 163.5c0 58.667 13.833 113.667 41.5 165s65.667 92 114 122s101.833 45 160.5 45c58 0 111.167 -15 159.5 -45s86.333 -70.667 113.999 -122
c27.667 -51.333 41.5 -106.333 41.5 -165c0 -58 -13.667 -112.5 -41 -163.5s-65.333 -91.5 -114 -121.5s-102 -45 -160 -45zM1821 184c32.667 0 58.5 11.667 77.5 35s28.5 52 28.5 86c0 34.667 -9.5 63.834 -28.5 87.501s-44.833 35.5 -77.5 35.5
c-33.333 0 -59.5 -11.833 -78.5 -35.5s-28.5 -52.834 -28.5 -87.501c0 -34 9.5 -62.667 28.5 -86s45.167 -35 78.5 -35zM379.002 1030c32.667 0 58.5 11.667 77.5 35s28.5 52 28.5 86c0 34.667 -9.5 63.834 -28.5 87.501s-44.833 35.5 -77.5 35.5
c-33.333 0 -59.5 -11.833 -78.5 -35.5s-28.5 -52.834 -28.5 -87.501c0 -34 9.5 -62.667 28.5 -86s45.167 -35 78.5 -35zM305.002 152l677.999 1278c14 26 27.167 43.333 39.5 52s30.5 13 54.5 13c20 0 39.333 -5 58 -15s33.834 -23.833 45.501 -41.5
s17.5 -37.167 17.5 -58.5c0 -20 -5.33301 -40.333 -16 -61l-688 -1288c-19.333 -27.333 -33.833 -45.5 -43.5 -54.5s-26.167 -13.5 -49.5 -13.5c-26.667 0 -52.667 11.5 -78 34.5s-38 49.167 -38 78.5c0 22 6.66699 47.333 20 76zM379.001 821
c-90 0 -165.165 32.668 -225.498 98.001s-90.5 142.666 -90.5 231.999c0 58.667 13.667 113.5 41 164.5s65.166 91.667 113.499 122s102.166 45.5 161.499 45.5c58 0 111.167 -15 159.5 -45s86.333 -70.667 114 -122s41.5 -106.333 41.5 -165
c0 -58 -13.667 -112.5 -41 -163.5s-65.333 -91.5 -114 -121.5s-102 -45 -160 -45zM1100 -24.999c-90 0 -165.165 32.668 -225.498 98.001s-90.5 142.666 -90.5 231.999c0 58.667 13.667 113.5 41 164.5s65.166 91.667 113.499 122s102.166 45.5 161.499 45.5
c58 0 111.167 -15 159.5 -45s86.333 -70.667 114 -122s41.5 -106.333 41.5 -165c0 -58 -13.667 -112.5 -41 -163.5s-65.333 -91.5 -114 -121.5s-102 -45 -160 -45zM1100 184.002c32.667 0 58.5 11.667 77.5 35s28.5 52 28.5 86c0 34.667 -9.5 63.834 -28.5 87.501
s-44.833 35.5 -77.5 35.5c-33.333 0 -59.5 -11.833 -78.5 -35.5s-28.5 -52.834 -28.5 -87.501c0 -34 9.5 -62.667 28.5 -86s45.167 -35 78.5 -35z" />
    <glyph glyph-name="guilsinglleft" unicode="&#x2039;" horiz-adv-x="606" 
d="M346 575l162.001 -242.999c14.667 -22 22 -45.333 22 -70c0 -36.667 -11.333 -67.334 -34 -92.001s-52 -37 -88 -37c-44 0 -78.333 17 -103 51l-211 326c-12 17.333 -18 42 -18 74c0 32.667 16.333 70.667 49 114l199 281c21.333 23.333 50.666 35 87.999 35
c36 0 64.667 -11 86 -33s32 -48.667 32 -80s-7.33301 -57.333 -22 -78z" />
    <glyph glyph-name="guilsinglright" unicode="&#x203a;" horiz-adv-x="606" 
d="M98 324l162 246.999l-162 244c-14.667 22 -22 45.333 -22 70c0 36.667 11.167 67.334 33.5 92.001s52.166 37 89.499 37c44.667 0 78.667 -17 102 -51l211 -326c12 -18 18 -42.667 18 -74c0 -32.667 -16.333 -70.667 -49 -114l-198 -281
c-21.333 -23.333 -50.666 -35 -87.999 -35c-36.667 0 -65.667 11 -87 33s-32 48.667 -32 80s7.33301 57.333 22 78z" />
    <glyph glyph-name="fraction" unicode="&#x2044;" horiz-adv-x="340" 
d="M-266 152l678.003 1278c12.667 25.333 25.5 42.5 38.5 51.5s31.5 13.5 55.5 13.5c19.333 0 38.666 -5 57.999 -15s34.666 -23.833 45.999 -41.5s17 -37.167 17 -58.5c0 -20 -5.66699 -40.333 -17 -61l-688 -1288c-19.333 -27.333 -33.833 -45.5 -43.5 -54.5
s-25.834 -13.5 -48.501 -13.5c-28 0 -54.5 11.5 -79.5 34.5s-37.5 49.167 -37.5 78.5c0 20.667 7 46 21 76z" />
    <glyph glyph-name="trademark" unicode="&#x2122;" horiz-adv-x="2048" 
d="M340 737l-0.00195312 537h-162c-26.667 0 -48.667 8.16699 -66 24.5s-26 38.833 -26 67.5c0 30 8.66699 52.833 26 68.5s39.333 23.5 66 23.5h570c27.333 0 49.5 -7.83301 66.5 -23.5s25.5 -38.5 25.5 -68.5c0 -28.667 -8.5 -51.167 -25.5 -67.5
s-39.167 -24.5 -66.5 -24.5h-162v-537c0 -36 -11.167 -65.5 -33.5 -88.5s-52.166 -34.5 -89.499 -34.5s-67.166 11.5 -89.499 34.5s-33.5 52.5 -33.5 88.5zM957.998 737l-0.00195312 605.999c0 84.667 58.333 127 175 127c43.333 0 78.833 -8.16699 106.5 -24.5
s52.834 -50.5 75.501 -102.5l145 -372l146 372c23.333 52.667 48.5 87 75.5 103s62.5 24 106.5 24c116 0 174 -42.333 174 -127v-606c0 -39.333 -8.16699 -69.666 -24.5 -90.999s-45.166 -32 -86.499 -32c-40 0 -68.333 10.667 -85 32s-25 51.666 -25 90.999v426h-4
l-148 -426c-15.333 -43.333 -31.333 -74.666 -48 -93.999s-43.667 -29 -81 -29c-26 0 -47.167 5.16699 -63.5 15.5s-29 24 -38 41s-18.167 39.167 -27.5 66.5l-147 426h-4v-426c0 -39.333 -8.16699 -69.666 -24.5 -90.999s-45.166 -32 -86.499 -32
c-40.667 0 -69.334 10.667 -86.001 32s-25 51.666 -25 90.999z" />
    <glyph glyph-name="minus" unicode="&#x2212;" horiz-adv-x="1229" 
d="M195 641h839c38.667 0 68.834 -11.167 90.501 -33.5s32.5 -52.166 32.5 -89.499s-10.833 -67.166 -32.5 -89.499s-51.834 -33.5 -90.501 -33.5h-839c-38.667 0 -68.834 11.167 -90.501 33.5s-32.5 52.166 -32.5 89.499s10.833 67.166 32.5 89.499
s51.834 33.5 90.501 33.5z" />
    <glyph glyph-name="periodcentered" unicode="&#x2219;" horiz-adv-x="549" 
d="M274 735c44 0 81.666 -15.667 112.999 -47s47 -69 47 -113c0 -45.333 -15.5 -83.166 -46.5 -113.499s-68.833 -45.5 -113.5 -45.5c-43.333 0 -80.666 15.667 -111.999 47s-47 68.666 -47 111.999c0 44.667 15.5 82.5 46.5 113.5s68.5 46.5 112.5 46.5z" />
    <glyph glyph-name="fi" unicode="&#xf001;" horiz-adv-x="1063" 
d="M152 152l0.000976562 678.998h-66c-38.667 0 -69.834 11.833 -93.501 35.5s-35.5 55.167 -35.5 94.5c0 36.667 12.333 67.334 37 92.001s55.334 37 92.001 37h66v151c0 106.667 28.5 189.334 85.5 248.001s131.5 88 223.5 88c47.333 0 89.166 -10.667 125.499 -32
s54.5 -55 54.5 -101c0 -83.333 -36.333 -125 -109 -125c-30.667 0 -52.667 -5.66699 -66 -17s-20 -42 -20 -92v-120h72c96 0 144 -43 144 -129c0 -41.333 -5.66699 -71.333 -17 -90s-26.333 -30 -45 -34s-46 -6 -82 -6h-72v-679c0 -48.667 -13.5 -88.167 -40.5 -118.5
s-62.5 -45.5 -106.5 -45.5s-79.5 15.167 -106.5 45.5s-40.5 69.833 -40.5 118.5zM688.001 151.998v786c0 48 13.667 87.333 41 118s63 46 107 46s79.5 -15.167 106.5 -45.5s40.5 -69.833 40.5 -118.5v-786c0 -48.667 -13.5 -88.167 -40.5 -118.5s-62.5 -45.5 -106.5 -45.5
s-79.667 15.333 -107 46s-41 70 -41 118zM836.001 1544c29.333 0 56.666 -7.49902 81.999 -22.499s45.5 -34.833 60.5 -59.5s22.5 -51.334 22.5 -80.001c0 -46 -16.167 -85.833 -48.5 -119.5s-71.166 -50.5 -116.499 -50.5c-43.333 0 -81.833 17.333 -115.5 52
s-50.5 74 -50.5 118c0 42 16.833 79.5 50.5 112.5s72.167 49.5 115.5 49.5z" />
    <glyph glyph-name="fl" unicode="&#xf002;" horiz-adv-x="1063" 
d="M152 152l0.000976562 678.998h-66c-38.667 0 -69.834 11.833 -93.501 35.5s-35.5 55.167 -35.5 94.5c0 36.667 12.333 67.334 37 92.001s55.334 37 92.001 37h66v151c0 106.667 28.5 189.334 85.5 248.001s131.5 88 223.5 88c47.333 0 89.166 -10.667 125.499 -32
s54.5 -55 54.5 -101c0 -83.333 -36.333 -125 -109 -125c-30.667 0 -52.667 -5.66699 -66 -17s-20 -42 -20 -92v-120h72c96 0 144 -43 144 -129c0 -41.333 -5.66699 -71.333 -17 -90s-26.333 -30 -45 -34s-46 -6 -82 -6h-72v-679c0 -48.667 -13.5 -88.167 -40.5 -118.5
s-62.5 -45.5 -106.5 -45.5s-79.5 15.167 -106.5 45.5s-40.5 69.833 -40.5 118.5zM688.001 151.998v1261c0 48 13.667 87.333 41 118s63 46 107 46s79.5 -15.167 106.5 -45.5s40.5 -69.833 40.5 -118.5v-1261c0 -48.667 -13.5 -88.167 -40.5 -118.5s-62.5 -45.5 -106.5 -45.5
s-79.667 15.333 -107 46s-41 70 -41 118z" />
    <glyph glyph-name=".null" horiz-adv-x="0" 
 />
    <glyph glyph-name="nonmarkingreturn" horiz-adv-x="0" 
 />
  </font>
</defs>
</svg>
